<?xml version="1.0" encoding="utf-8"?>
<!-- Created with "sPlan" (http://www.abacom-online.de) -->
<svg version="1.1" baseProfile="full"
xmlns="http://www.w3.org/2000/svg"
width="28mm" height="40mm"
viewBox="0 0 285 406">
<title>klappe</title>
<defs>
<style type="text/css">
<![CDATA[
polyline {stroke-linecap:round; stroke-linejoin:round}
polygon {stroke-linecap:round; stroke-linejoin:round}
path {stroke-linecap:round; stroke-linejoin:round}
circle {stroke-linecap:round; stroke-linejoin:round}
]]>
</style>
</defs>
<path fill="rgb(0,0,0)" stroke="rgb(0,0,0)" stroke-width="5" d=" M 152.40 240.03 Q 152.50 239.00 152.40 237.96 Q 152.31 236.93 152.02 235.93 Q 151.74 234.93 151.28 234.01 Q 150.81 233.10 150.19 232.29 Q 149.57 231.49 148.81 230.82 Q 148.06 230.16 147.19 229.67 Q 146.33 229.18 145.39 228.88 Q 144.45 228.58 143.48 228.48 Q 142.50 228.37 141.52 228.48 Q 140.55 228.58 139.61 228.88 Q 138.67 229.18 137.81 229.67 Q 136.94 230.16 136.19 230.82 Q 135.43 231.49 134.81 232.29 Q 134.19 233.10 133.72 234.01 Q 133.26 234.93 132.98 235.93 Q 132.69 236.93 132.60 237.96 Q 132.50 239.00 132.60 240.03 Q 132.69 241.07 132.98 242.07 Q 133.26 243.06 133.72 243.98 Q 134.19 244.90 134.81 245.71 Q 135.43 246.51 136.19 247.17 Q 136.94 247.83 137.81 248.32 Q 138.67 248.81 139.61 249.12 Q 140.55 249.42 141.52 249.52 Q 142.50 249.62 143.48 249.52 Q 144.45 249.42 145.39 249.12 Q 146.33 248.81 147.19 248.32 Q 148.06 247.83 148.81 247.17 Q 149.57 246.51 150.19 245.71 Q 150.81 244.90 151.28 243.98 Q 151.74 243.06 152.02 242.07 Q 152.31 241.07 152.40 240.03 Z" />
<polyline points="92.50 239.00 192.50 239.00" fill="none" stroke="rgb(0,0,0)" stroke-width="5" />
<polyline points="167.50 214.62 117.50 264.62" fill="none" stroke="rgb(0,0,0)" stroke-width="10" />
<polyline points="192.50 239.00 242.50 239.00" fill="none" stroke="rgb(0,0,0)" stroke-width="5" />
<polyline points="92.50 239.00 42.50 239.00" fill="none" stroke="rgb(0,0,0)" stroke-width="5" />
<polyline points="67.50 244.00 67.50 234.00" fill="none" stroke="rgb(0,0,0)" stroke-width="5" />
<polyline points="217.50 244.00 217.50 234.00" fill="none" stroke="rgb(0,0,0)" stroke-width="5" />
<path fill="none" stroke="rgb(0,0,0)" stroke-width="5" d=" M 92 114 L 192 114 192 364 92 364 92 114 Z" />
<path fill="none" stroke="rgb(0,0,0)" stroke-width="5" d=" M 140.80 42.33 Q 138.49 42.55 136.26 43.19 Q 134.03 43.83 131.98 44.87 Q 129.92 45.92 128.12 47.32 Q 126.32 48.72 124.85 50.43 Q 123.37 52.14 122.27 54.10 Q 121.17 56.05 120.50 58.16 Q 119.82 60.28 119.59 62.48 Q 119.37 64.68 119.59 66.88 Q 119.82 69.09 120.50 71.20 Q 121.17 73.32 122.27 75.27 Q 123.37 77.22 124.85 78.93 Q 126.32 80.64 128.12 82.05 Q 129.92 83.45 131.98 84.49 Q 134.03 85.53 136.26 86.18 Q 138.49 86.82 140.80 87.04 Q 143.12 87.25 145.44 87.04 Q 147.75 86.82 149.98 86.18 Q 152.21 85.53 154.26 84.49 Q 156.32 83.45 158.12 82.05 Q 159.92 80.64 161.39 78.93 Q 162.87 77.22 163.97 75.27 Q 165.07 73.32 165.74 71.20 Q 166.42 69.09 166.65 66.88 Q 166.88 64.68 166.65 62.48 Q 166.42 60.28 165.74 58.16 Q 165.07 56.05 163.97 54.10 Q 162.87 52.14 161.39 50.43 Q 159.92 48.72 158.12 47.32 Q 156.32 45.92 154.26 44.87 Q 152.21 43.83 149.98 43.19 Q 147.75 42.55 145.44 42.33 Q 143.12 42.11 140.80 42.33 Z" />
<path fill="rgb(0,0,0)" stroke="rgb(0,0,0)" stroke-width="0" d=" M 147.55 52.29 L 152.25 52.29 152.22 81.75 147.73 81.75 147.76 61.18 148.06 62.48 143.77 76.54 141.26 76.54 137.00 62.89 137.41 61.18 137.38 81.75 132.81 81.75 132.84 52.29 137.66 52.29 142.52 68.30 Z" />
<polyline points="141.87 89.63 141.87 114.63" fill="none" stroke="rgb(0,0,0)" stroke-width="5" />
<path fill="rgb(0,0,0)" stroke="rgb(0,0,0)" stroke-width="5" d=" M 152.40 175.03 M 152.40 175.03 Q 152.50 174.00 152.40 172.96 Q 152.31 171.93 152.02 170.93 Q 151.74 169.93 151.28 169.01 Q 150.81 168.10 150.19 167.29 Q 149.57 166.49 148.81 165.82 Q 148.06 165.16 147.19 164.67 Q 146.33 164.18 145.39 163.88 Q 144.45 163.58 143.48 163.48 Q 142.50 163.37 141.52 163.48 Q 140.55 163.58 139.61 163.88 Q 138.67 164.18 137.81 164.67 Q 136.94 165.16 136.19 165.82 Q 135.43 166.49 134.81 167.29 Q 134.19 168.10 133.72 169.01 Q 133.26 169.93 132.98 170.93 Q 132.69 171.93 132.60 172.96 Q 132.50 174.00 132.60 175.03 Q 132.69 176.07 132.98 177.07 Q 133.26 178.06 133.72 178.98 Q 134.19 179.90 134.81 180.71 Q 135.43 181.51 136.19 182.17 Q 136.94 182.83 137.81 183.32 Q 138.67 183.81 139.61 184.12 Q 140.55 184.42 141.52 184.52 Q 142.50 184.62 143.48 184.52 Q 144.45 184.42 145.39 184.12 Q 146.33 183.81 147.19 183.32 Q 148.06 182.83 148.81 182.17 Q 149.57 181.51 150.19 180.71 Q 150.81 179.90 151.28 178.98 Q 151.74 178.06 152.02 177.07 Q 152.31 176.07 152.40 175.03 Z" />
<polyline points="167.50 149.62 117.50 199.62" fill="none" stroke="rgb(0,0,0)" stroke-width="10" />
<path fill="rgb(0,0,0)" stroke="rgb(0,0,0)" stroke-width="5" d=" M 152.40 305.04 Q 152.50 304.00 152.40 302.96 Q 152.31 301.93 152.02 300.93 Q 151.74 299.93 151.28 299.01 Q 150.81 298.10 150.19 297.29 Q 149.57 296.49 148.81 295.82 Q 148.06 295.16 147.19 294.67 Q 146.33 294.18 145.39 293.88 Q 144.45 293.58 143.48 293.48 Q 142.50 293.37 141.52 293.48 Q 140.55 293.58 139.61 293.88 Q 138.67 294.18 137.81 294.67 Q 136.94 295.16 136.19 295.82 Q 135.43 296.49 134.81 297.29 Q 134.19 298.10 133.72 299.01 Q 133.26 299.93 132.98 300.93 Q 132.69 301.93 132.60 302.96 Q 132.50 304.00 132.60 305.04 Q 132.69 306.07 132.98 307.07 Q 133.26 308.06 133.72 308.98 Q 134.19 309.90 134.81 310.71 Q 135.43 311.51 136.19 312.17 Q 136.94 312.83 137.81 313.32 Q 138.67 313.81 139.61 314.12 Q 140.55 314.42 141.52 314.52 Q 142.50 314.62 143.48 314.52 Q 144.45 314.42 145.39 314.12 Q 146.33 313.81 147.19 313.32 Q 148.06 312.83 148.81 312.17 Q 149.57 311.51 150.19 310.71 Q 150.81 309.90 151.28 308.98 Q 151.74 308.06 152.02 307.07 Q 152.31 306.07 152.40 305.04 Z" />
<polyline points="167.50 279.62 117.50 329.62" fill="none" stroke="rgb(0,0,0)" stroke-width="10" />
</svg>
