<?xml version="1.0" encoding="utf-8"?>
<!-- Created with "sPlan" (http://www.abacom-online.de) -->
<svg version="1.1" baseProfile="full"
xmlns="http://www.w3.org/2000/svg"
width="68mm" height="75mm"
viewBox="0 0 685 756">
<title>kreuzstromwaermetauscher</title>
<defs>
<style type="text/css">
<![CDATA[
polyline {stroke-linecap:round; stroke-linejoin:round}
polygon {stroke-linecap:round; stroke-linejoin:round}
path {stroke-linecap:round; stroke-linejoin:round}
circle {stroke-linecap:round; stroke-linejoin:round}
]]>
</style>
</defs>
<polyline points="92.50 589.00 42.50 589.00" fill="none" stroke="rgb(0,0,0)" stroke-width="5" />
<polyline points="67.50 594.00 67.50 584.00" fill="none" stroke="rgb(0,0,0)" stroke-width="5" />
<polyline points="92.50 239.00 42.50 239.00" fill="none" stroke="rgb(0,0,0)" stroke-width="5" />
<polyline points="67.50 234.00 67.50 244.00" fill="none" stroke="rgb(0,0,0)" stroke-width="5" />
<polyline points="592.50 589.00 642.50 589.00" fill="none" stroke="rgb(0,0,0)" stroke-width="5" />
<polyline points="617.50 594.00 617.50 584.00" fill="none" stroke="rgb(0,0,0)" stroke-width="5" />
<polyline points="592.50 239.00 642.50 239.00" fill="none" stroke="rgb(0,0,0)" stroke-width="5" />
<polyline points="617.50 234.00 617.50 244.00" fill="none" stroke="rgb(0,0,0)" stroke-width="5" />
<path fill="none" stroke="rgb(0,0,0)" stroke-width="5" d=" M 92 114 L 592 114 592 714 92 714 92 114 Z" />
<polyline points="492.50 239.00 592.50 239.00" fill="none" stroke="rgb(0,0,0)" stroke-width="5" />
<polyline points="492.50 589.00 592.50 589.00" fill="none" stroke="rgb(0,0,0)" stroke-width="5" />
<polyline points="542.50 264.62 542.50 589.62" fill="none" stroke="rgb(0,0,0)" stroke-width="5" />
<polygon points="531.70 548.82 542.50 589.62 553.30 548.82" fill="rgb(0,0,0)" stroke="rgb(0,0,0)" stroke-width="5" />
<polyline points="542.50 164.00 542.50 214.62" fill="none" stroke="rgb(0,0,0)" stroke-width="5" />
<polyline points="542.50 264.62 542.50 264.62" fill="none" stroke="rgb(0,0,0)" stroke-width="5" />
<polyline points="92.50 239.00 117.50 239.00" fill="none" stroke="rgb(0,0,0)" stroke-width="5" />
<path fill="rgb(0,0,0)" stroke="rgb(0,0,0)" stroke-width="5" d=" M 202.40 165.03 Q 202.50 163.99 202.40 162.96 Q 202.31 161.92 202.02 160.92 Q 201.74 159.93 201.28 159.01 Q 200.81 158.09 200.19 157.29 Q 199.57 156.48 198.81 155.82 Q 198.06 155.16 197.19 154.67 Q 196.33 154.18 195.39 153.87 Q 194.45 153.57 193.48 153.47 Q 192.50 153.37 191.53 153.47 Q 190.55 153.57 189.61 153.87 Q 188.67 154.18 187.81 154.67 Q 186.95 155.16 186.19 155.82 Q 185.43 156.48 184.81 157.29 Q 184.19 158.09 183.72 159.01 Q 183.26 159.93 182.98 160.92 Q 182.69 161.92 182.60 162.96 Q 182.50 163.99 182.60 165.03 Q 182.69 166.07 182.98 167.06 Q 183.26 168.06 183.72 168.98 Q 184.19 169.90 184.81 170.70 Q 185.43 171.51 186.19 172.17 Q 186.95 172.83 187.81 173.32 Q 188.67 173.81 189.61 174.11 Q 190.55 174.41 191.53 174.52 Q 192.50 174.62 193.48 174.52 Q 194.45 174.41 195.39 174.11 Q 196.33 173.81 197.19 173.32 Q 198.06 172.83 198.81 172.17 Q 199.57 171.51 200.19 170.70 Q 200.81 169.90 201.28 168.98 Q 201.74 168.06 202.02 167.06 Q 202.31 166.07 202.40 165.03 Z" />
<polyline points="142.50 163.99 242.50 164.00" fill="none" stroke="rgb(0,0,0)" stroke-width="5" />
<polyline points="217.50 139.62 167.50 189.62" fill="none" stroke="rgb(0,0,0)" stroke-width="10" />
<path fill="rgb(0,0,0)" stroke="rgb(0,0,0)" stroke-width="5" d=" M 202.40 240.04 Q 202.50 239.00 202.40 237.97 Q 202.31 236.93 202.02 235.93 Q 201.74 234.94 201.28 234.02 Q 200.81 233.10 200.19 232.30 Q 199.57 231.49 198.81 230.83 Q 198.06 230.17 197.19 229.68 Q 196.33 229.19 195.39 228.88 Q 194.45 228.58 193.48 228.48 Q 192.50 228.38 191.52 228.48 Q 190.55 228.58 189.61 228.88 Q 188.67 229.19 187.81 229.68 Q 186.94 230.17 186.19 230.83 Q 185.43 231.49 184.81 232.30 Q 184.19 233.10 183.72 234.02 Q 183.26 234.94 182.98 235.93 Q 182.69 236.93 182.60 237.97 Q 182.50 239.00 182.60 240.04 Q 182.69 241.08 182.98 242.07 Q 183.26 243.07 183.72 243.99 Q 184.19 244.91 184.81 245.71 Q 185.43 246.52 186.19 247.18 Q 186.94 247.84 187.81 248.33 Q 188.67 248.82 189.61 249.12 Q 190.55 249.42 191.52 249.53 Q 192.50 249.63 193.48 249.53 Q 194.45 249.42 195.39 249.12 Q 196.33 248.82 197.19 248.33 Q 198.06 247.84 198.81 247.18 Q 199.57 246.52 200.19 245.71 Q 200.81 244.91 201.28 243.99 Q 201.74 243.07 202.02 242.07 Q 202.31 241.08 202.40 240.04 Z" />
<polyline points="142.50 239.00 242.50 239.01" fill="none" stroke="rgb(0,0,0)" stroke-width="5" />
<polyline points="217.50 214.63 167.50 264.63" fill="none" stroke="rgb(0,0,0)" stroke-width="10" />
<polyline points="117.50 239.00 142.50 239.00" fill="none" stroke="rgb(0,0,0)" stroke-width="5" />
<polyline points="142.50 163.99 117.50 163.99 117.50 239.00" fill="none" stroke="rgb(0,0,0)" stroke-width="5" />
<polyline points="242.50 164.00 542.50 164.00" fill="none" stroke="rgb(0,0,0)" stroke-width="5" />
<path fill="none" stroke="rgb(0,0,0)" stroke-width="5" d=" M 542 265 C 572 265 572 215 542 215" />
<path fill="none" stroke="rgb(0,0,0)" stroke-width="5" d=" M 340.80 42.33 Q 338.49 42.55 336.26 43.19 Q 334.03 43.83 331.98 44.87 Q 329.92 45.92 328.12 47.32 Q 326.32 48.72 324.85 50.43 Q 323.37 52.14 322.27 54.10 Q 321.17 56.05 320.50 58.16 Q 319.82 60.28 319.59 62.48 Q 319.37 64.68 319.59 66.88 Q 319.82 69.09 320.50 71.20 Q 321.17 73.32 322.27 75.27 Q 323.37 77.22 324.85 78.93 Q 326.32 80.64 328.12 82.05 Q 329.92 83.45 331.98 84.49 Q 334.03 85.53 336.26 86.18 Q 338.49 86.82 340.80 87.04 Q 343.12 87.25 345.44 87.04 Q 347.75 86.82 349.98 86.18 Q 352.21 85.53 354.26 84.49 Q 356.32 83.45 358.12 82.05 Q 359.92 80.64 361.39 78.93 Q 362.87 77.22 363.97 75.27 Q 365.07 73.32 365.74 71.20 Q 366.42 69.09 366.65 66.88 Q 366.88 64.68 366.65 62.48 Q 366.42 60.28 365.74 58.16 Q 365.07 56.05 363.97 54.10 Q 362.87 52.14 361.39 50.43 Q 359.92 48.72 358.12 47.32 Q 356.32 45.92 354.26 44.87 Q 352.21 43.83 349.98 43.19 Q 347.75 42.55 345.44 42.33 Q 343.12 42.11 340.80 42.33 Z" />
<path fill="rgb(0,0,0)" stroke="rgb(0,0,0)" stroke-width="0" d=" M 347.55 52.29 L 352.25 52.29 352.22 81.75 347.73 81.75 347.76 61.18 348.06 62.48 343.77 76.54 341.26 76.54 337.00 62.89 337.41 61.18 337.38 81.75 332.81 81.75 332.84 52.29 337.66 52.29 342.52 68.30 Z" />
<polyline points="341.87 89.63 341.87 114.63" fill="none" stroke="rgb(0,0,0)" stroke-width="5" />
<polyline points="92.50 589.00 242.50 589.00" fill="none" stroke="rgb(0,0,0)" stroke-width="5" />
<polyline points="242.50 239.01 492.50 589.00" fill="none" stroke="rgb(0,0,0)" stroke-width="5" />
<polygon points="460.00 562.08 492.50 589.00 477.57 549.53" fill="rgb(0,0,0)" stroke="rgb(0,0,0)" stroke-width="5" />
<polyline points="492.50 239.00 242.50 589.00" fill="none" stroke="rgb(0,0,0)" stroke-width="5" />
<polygon points="257.43 549.52 242.50 589.00 275.00 562.08" fill="rgb(0,0,0)" stroke="rgb(0,0,0)" stroke-width="5" />
</svg>
