<?xml version="1.0" encoding="utf-8"?>
<!-- Created with "sPlan" (http://www.abacom-online.de) -->
<svg version="1.1" baseProfile="full"
xmlns="http://www.w3.org/2000/svg"
width="53mm" height="68mm"
viewBox="0 0 535 684">
<title>mischkammer</title>
<defs>
<style type="text/css">
<![CDATA[
polyline {stroke-linecap:round; stroke-linejoin:round}
polygon {stroke-linecap:round; stroke-linejoin:round}
path {stroke-linecap:round; stroke-linejoin:round}
circle {stroke-linecap:round; stroke-linejoin:round}
]]>
</style>
</defs>
<path fill="none" stroke="rgb(0,0,0)" stroke-width="5" d=" M 140.80 320.33 Q 138.49 320.54 136.26 321.19 Q 134.03 321.83 131.98 322.87 Q 129.92 323.91 128.12 325.32 Q 126.32 326.72 124.85 328.43 Q 123.37 330.14 122.27 332.09 Q 121.17 334.04 120.50 336.16 Q 119.82 338.28 119.59 340.48 Q 119.37 342.68 119.59 344.88 Q 119.82 347.08 120.50 349.20 Q 121.17 351.32 122.27 353.27 Q 123.37 355.22 124.85 356.93 Q 126.32 358.64 128.12 360.04 Q 129.92 361.45 131.98 362.49 Q 134.03 363.53 136.26 364.17 Q 138.49 364.82 140.80 365.03 Q 143.12 365.25 145.44 365.03 Q 147.75 364.82 149.98 364.17 Q 152.21 363.53 154.26 362.49 Q 156.32 361.45 158.12 360.04 Q 159.92 358.64 161.39 356.93 Q 162.87 355.22 163.97 353.27 Q 165.07 351.32 165.74 349.20 Q 166.42 347.08 166.65 344.88 Q 166.88 342.68 166.65 340.48 Q 166.42 338.28 165.74 336.16 Q 165.07 334.04 163.97 332.09 Q 162.87 330.14 161.39 328.43 Q 159.92 326.72 158.12 325.32 Q 156.32 323.91 154.26 322.87 Q 152.21 321.83 149.98 321.19 Q 147.75 320.54 145.44 320.33 Q 143.12 320.11 140.80 320.33 Z" />
<path fill="rgb(0,0,0)" stroke="rgb(0,0,0)" stroke-width="0" d=" M 147.55 330.29 L 152.25 330.29 152.22 359.75 147.73 359.75 147.76 339.18 148.06 340.48 143.77 354.54 141.26 354.54 137.00 340.88 137.41 339.18 137.38 359.75 132.81 359.75 132.84 330.29 137.66 330.29 142.52 346.30 Z" />
<polyline points="141.87 367.62 141.87 392.62" fill="none" stroke="rgb(0,0,0)" stroke-width="5" />
<path fill="none" stroke="rgb(0,0,0)" stroke-width="5" d=" M 92 42 L 442 42 442 642 92 642 92 42 Z" />
<path fill="rgb(0,0,0)" stroke="rgb(0,0,0)" stroke-width="5" d=" M 152.40 518.04 Q 152.50 517.00 152.40 515.96 Q 152.31 514.93 152.02 513.93 Q 151.74 512.93 151.28 512.02 Q 150.81 511.10 150.19 510.29 Q 149.57 509.49 148.81 508.83 Q 148.06 508.17 147.19 507.67 Q 146.33 507.18 145.39 506.88 Q 144.45 506.58 143.48 506.48 Q 142.50 506.38 141.52 506.48 Q 140.55 506.58 139.61 506.88 Q 138.67 507.18 137.81 507.67 Q 136.94 508.17 136.19 508.83 Q 135.43 509.49 134.81 510.29 Q 134.19 511.10 133.72 512.02 Q 133.26 512.93 132.98 513.93 Q 132.69 514.93 132.60 515.96 Q 132.50 517.00 132.60 518.04 Q 132.69 519.07 132.98 520.07 Q 133.26 521.07 133.72 521.98 Q 134.19 522.90 134.81 523.71 Q 135.43 524.51 136.19 525.17 Q 136.94 525.83 137.81 526.33 Q 138.67 526.82 139.61 527.12 Q 140.55 527.42 141.52 527.52 Q 142.50 527.63 143.48 527.52 Q 144.45 527.42 145.39 527.12 Q 146.33 526.82 147.19 526.33 Q 148.06 525.83 148.81 525.17 Q 149.57 524.51 150.19 523.71 Q 150.81 522.90 151.28 521.98 Q 151.74 521.07 152.02 520.07 Q 152.31 519.07 152.40 518.04 Z" />
<polyline points="92.50 517.00 192.50 517.01" fill="none" stroke="rgb(0,0,0)" stroke-width="5" />
<polyline points="167.50 492.63 117.50 542.63" fill="none" stroke="rgb(0,0,0)" stroke-width="10" />
<polyline points="192.50 517.00 242.50 517.00" fill="none" stroke="rgb(0,0,0)" stroke-width="5" />
<polyline points="92.50 517.00 42.50 517.00" fill="none" stroke="rgb(0,0,0)" stroke-width="5" />
<polyline points="67.50 522.00 67.50 512.00" fill="none" stroke="rgb(0,0,0)" stroke-width="5" />
<polyline points="217.50 522.00 217.50 512.00" fill="none" stroke="rgb(0,0,0)" stroke-width="5" />
<path fill="none" stroke="rgb(0,0,0)" stroke-width="5" d=" M 92 392 L 192 392 192 642 92 642 92 392 Z" />
<path fill="rgb(0,0,0)" stroke="rgb(0,0,0)" stroke-width="5" d=" M 152.40 453.04 Q 152.50 452.00 152.40 450.96 Q 152.31 449.93 152.02 448.93 Q 151.74 447.93 151.28 447.02 Q 150.81 446.10 150.19 445.29 Q 149.57 444.49 148.81 443.83 Q 148.06 443.17 147.19 442.67 Q 146.33 442.18 145.39 441.88 Q 144.45 441.58 143.48 441.48 Q 142.50 441.38 141.52 441.48 Q 140.55 441.58 139.61 441.88 Q 138.67 442.18 137.81 442.67 Q 136.94 443.17 136.19 443.83 Q 135.43 444.49 134.81 445.29 Q 134.19 446.10 133.72 447.02 Q 133.26 447.93 132.98 448.93 Q 132.69 449.93 132.60 450.96 Q 132.50 452.00 132.60 453.04 Q 132.69 454.07 132.98 455.07 Q 133.26 456.07 133.72 456.98 Q 134.19 457.90 134.81 458.71 Q 135.43 459.51 136.19 460.17 Q 136.94 460.83 137.81 461.33 Q 138.67 461.82 139.61 462.12 Q 140.55 462.42 141.52 462.52 Q 142.50 462.63 143.48 462.52 Q 144.45 462.42 145.39 462.12 Q 146.33 461.82 147.19 461.33 Q 148.06 460.83 148.81 460.17 Q 149.57 459.51 150.19 458.71 Q 150.81 457.90 151.28 456.98 Q 151.74 456.07 152.02 455.07 Q 152.31 454.07 152.40 453.04 Z" />
<polyline points="167.50 427.63 117.50 477.63" fill="none" stroke="rgb(0,0,0)" stroke-width="10" />
<path fill="rgb(0,0,0)" stroke="rgb(0,0,0)" stroke-width="5" d=" M 152.40 583.04 Q 152.50 582.00 152.40 580.96 Q 152.31 579.93 152.02 578.93 Q 151.74 577.93 151.28 577.02 Q 150.81 576.10 150.19 575.29 Q 149.57 574.49 148.81 573.83 Q 148.06 573.17 147.19 572.68 Q 146.33 572.18 145.39 571.88 Q 144.45 571.58 143.48 571.48 Q 142.50 571.38 141.52 571.48 Q 140.55 571.58 139.61 571.88 Q 138.67 572.18 137.81 572.68 Q 136.94 573.17 136.19 573.83 Q 135.43 574.49 134.81 575.29 Q 134.19 576.10 133.72 577.02 Q 133.26 577.93 132.98 578.93 Q 132.69 579.93 132.60 580.96 Q 132.50 582.00 132.60 583.04 Q 132.69 584.07 132.98 585.07 Q 133.26 586.07 133.72 586.99 Q 134.19 587.90 134.81 588.71 Q 135.43 589.51 136.19 590.17 Q 136.94 590.83 137.81 591.33 Q 138.67 591.82 139.61 592.12 Q 140.55 592.42 141.52 592.52 Q 142.50 592.63 143.48 592.52 Q 144.45 592.42 145.39 592.12 Q 146.33 591.82 147.19 591.33 Q 148.06 590.83 148.81 590.17 Q 149.57 589.51 150.19 588.71 Q 150.81 587.90 151.28 586.99 Q 151.74 586.07 152.02 585.07 Q 152.31 584.07 152.40 583.04 Z" />
<polyline points="167.50 557.63 117.50 607.63" fill="none" stroke="rgb(0,0,0)" stroke-width="10" />
<path fill="rgb(0,0,0)" stroke="rgb(0,0,0)" stroke-width="5" d=" M 152.40 168.04 Q 152.50 167.00 152.40 165.96 Q 152.31 164.93 152.02 163.93 Q 151.74 162.93 151.28 162.02 Q 150.81 161.10 150.19 160.29 Q 149.57 159.49 148.81 158.83 Q 148.06 158.17 147.19 157.67 Q 146.33 157.18 145.39 156.88 Q 144.45 156.58 143.48 156.48 Q 142.50 156.37 141.52 156.48 Q 140.55 156.58 139.61 156.88 Q 138.67 157.18 137.81 157.67 Q 136.94 158.17 136.19 158.83 Q 135.43 159.49 134.81 160.29 Q 134.19 161.10 133.72 162.02 Q 133.26 162.93 132.98 163.93 Q 132.69 164.93 132.60 165.96 Q 132.50 167.00 132.60 168.04 Q 132.69 169.07 132.98 170.07 Q 133.26 171.07 133.72 171.98 Q 134.19 172.90 134.81 173.71 Q 135.43 174.51 136.19 175.17 Q 136.94 175.83 137.81 176.32 Q 138.67 176.82 139.61 177.12 Q 140.55 177.42 141.52 177.52 Q 142.50 177.62 143.48 177.52 Q 144.45 177.42 145.39 177.12 Q 146.33 176.82 147.19 176.32 Q 148.06 175.83 148.81 175.17 Q 149.57 174.51 150.19 173.71 Q 150.81 172.90 151.28 171.98 Q 151.74 171.07 152.02 170.07 Q 152.31 169.07 152.40 168.04 Z" />
<polyline points="92.50 167.00 192.50 167.00" fill="none" stroke="rgb(0,0,0)" stroke-width="5" />
<polyline points="167.50 142.62 117.50 192.62" fill="none" stroke="rgb(0,0,0)" stroke-width="10" />
<polyline points="192.50 167.00 242.50 167.00" fill="none" stroke="rgb(0,0,0)" stroke-width="5" />
<polyline points="92.50 167.00 42.50 167.00" fill="none" stroke="rgb(0,0,0)" stroke-width="5" />
<polyline points="67.50 172.00 67.50 162.00" fill="none" stroke="rgb(0,0,0)" stroke-width="5" />
<polyline points="217.50 172.00 217.50 162.00" fill="none" stroke="rgb(0,0,0)" stroke-width="5" />
<path fill="none" stroke="rgb(0,0,0)" stroke-width="5" d=" M 92 42 L 192 42 192 292 92 292 92 42 Z" />
<path fill="rgb(0,0,0)" stroke="rgb(0,0,0)" stroke-width="5" d=" M 152.40 103.04 Q 152.50 102.00 152.40 100.96 Q 152.31 99.93 152.02 98.93 Q 151.74 97.93 151.28 97.02 Q 150.81 96.10 150.19 95.29 Q 149.57 94.49 148.81 93.83 Q 148.06 93.17 147.19 92.67 Q 146.33 92.18 145.39 91.88 Q 144.45 91.58 143.48 91.48 Q 142.50 91.37 141.52 91.48 Q 140.55 91.58 139.61 91.88 Q 138.67 92.18 137.81 92.67 Q 136.94 93.17 136.19 93.83 Q 135.43 94.49 134.81 95.29 Q 134.19 96.10 133.72 97.02 Q 133.26 97.93 132.98 98.93 Q 132.69 99.93 132.60 100.96 Q 132.50 102.00 132.60 103.04 Q 132.69 104.07 132.98 105.07 Q 133.26 106.07 133.72 106.98 Q 134.19 107.90 134.81 108.71 Q 135.43 109.51 136.19 110.17 Q 136.94 110.83 137.81 111.32 Q 138.67 111.82 139.61 112.12 Q 140.55 112.42 141.52 112.52 Q 142.50 112.62 143.48 112.52 Q 144.45 112.42 145.39 112.12 Q 146.33 111.82 147.19 111.32 Q 148.06 110.83 148.81 110.17 Q 149.57 109.51 150.19 108.71 Q 150.81 107.90 151.28 106.98 Q 151.74 106.07 152.02 105.07 Q 152.31 104.07 152.40 103.04 Z" />
<polyline points="167.50 77.62 117.50 127.62" fill="none" stroke="rgb(0,0,0)" stroke-width="10" />
<path fill="rgb(0,0,0)" stroke="rgb(0,0,0)" stroke-width="5" d=" M 152.40 233.04 Q 152.50 232.00 152.40 230.96 Q 152.31 229.93 152.02 228.93 Q 151.74 227.93 151.28 227.02 Q 150.81 226.10 150.19 225.29 Q 149.57 224.49 148.81 223.83 Q 148.06 223.17 147.19 222.67 Q 146.33 222.18 145.39 221.88 Q 144.45 221.58 143.48 221.48 Q 142.50 221.37 141.52 221.48 Q 140.55 221.58 139.61 221.88 Q 138.67 222.18 137.81 222.67 Q 136.94 223.17 136.19 223.83 Q 135.43 224.49 134.81 225.29 Q 134.19 226.10 133.72 227.02 Q 133.26 227.93 132.98 228.93 Q 132.69 229.93 132.60 230.96 Q 132.50 232.00 132.60 233.04 Q 132.69 234.07 132.98 235.07 Q 133.26 236.07 133.72 236.98 Q 134.19 237.90 134.81 238.71 Q 135.43 239.51 136.19 240.17 Q 136.94 240.83 137.81 241.32 Q 138.67 241.82 139.61 242.12 Q 140.55 242.42 141.52 242.52 Q 142.50 242.62 143.48 242.52 Q 144.45 242.42 145.39 242.12 Q 146.33 241.82 147.19 241.32 Q 148.06 240.83 148.81 240.17 Q 149.57 239.51 150.19 238.71 Q 150.81 237.90 151.28 236.98 Q 151.74 236.07 152.02 235.07 Q 152.31 234.07 152.40 233.04 Z" />
<polyline points="167.50 207.62 117.50 257.62" fill="none" stroke="rgb(0,0,0)" stroke-width="10" />
<path fill="rgb(0,0,0)" stroke="rgb(0,0,0)" stroke-width="5" d=" M 316.46 351.90 Q 317.50 352.00 318.54 351.90 Q 319.57 351.81 320.57 351.52 Q 321.57 351.24 322.48 350.78 Q 323.40 350.31 324.21 349.69 Q 325.01 349.07 325.67 348.31 Q 326.33 347.56 326.83 346.69 Q 327.32 345.83 327.62 344.89 Q 327.92 343.95 328.02 342.98 Q 328.12 342.00 328.02 341.02 Q 327.92 340.05 327.62 339.11 Q 327.32 338.17 326.83 337.31 Q 326.33 336.44 325.67 335.69 Q 325.01 334.93 324.21 334.31 Q 323.40 333.69 322.48 333.22 Q 321.57 332.76 320.57 332.48 Q 319.57 332.19 318.54 332.10 Q 317.50 332.00 316.46 332.10 Q 315.43 332.19 314.43 332.48 Q 313.43 332.76 312.52 333.22 Q 311.60 333.69 310.79 334.31 Q 309.99 334.93 309.33 335.69 Q 308.67 336.44 308.18 337.31 Q 307.68 338.17 307.38 339.11 Q 307.08 340.05 306.98 341.02 Q 306.88 342.00 306.98 342.98 Q 307.08 343.95 307.38 344.89 Q 307.68 345.83 308.18 346.69 Q 308.67 347.56 309.33 348.31 Q 309.99 349.07 310.79 349.69 Q 311.60 350.31 312.52 350.78 Q 313.43 351.24 314.43 351.52 Q 315.43 351.81 316.46 351.90 Z" />
<polyline points="317.50 292.00 317.50 392.00" fill="none" stroke="rgb(0,0,0)" stroke-width="5" />
<polyline points="341.88 367.00 291.88 317.00" fill="none" stroke="rgb(0,0,0)" stroke-width="10" />
<polyline points="317.50 392.00 317.50 442.00" fill="none" stroke="rgb(0,0,0)" stroke-width="5" />
<polyline points="317.50 292.00 317.50 242.00" fill="none" stroke="rgb(0,0,0)" stroke-width="5" />
<polyline points="312.50 267.00 322.50 267.00" fill="none" stroke="rgb(0,0,0)" stroke-width="5" />
<polyline points="312.50 417.00 322.50 417.00" fill="none" stroke="rgb(0,0,0)" stroke-width="5" />
<path fill="none" stroke="rgb(0,0,0)" stroke-width="5" d=" M 442 292 L 442 392 192 392 192 292 442 292 Z" />
<path fill="rgb(0,0,0)" stroke="rgb(0,0,0)" stroke-width="5" d=" M 381.46 351.90 Q 382.50 352.00 383.54 351.90 Q 384.57 351.81 385.57 351.52 Q 386.57 351.24 387.48 350.78 Q 388.40 350.31 389.21 349.69 Q 390.01 349.07 390.67 348.31 Q 391.33 347.56 391.83 346.69 Q 392.32 345.83 392.62 344.89 Q 392.92 343.95 393.02 342.98 Q 393.12 342.00 393.02 341.02 Q 392.92 340.05 392.62 339.11 Q 392.32 338.17 391.83 337.31 Q 391.33 336.44 390.67 335.69 Q 390.01 334.93 389.21 334.31 Q 388.40 333.69 387.48 333.22 Q 386.57 332.76 385.57 332.48 Q 384.57 332.19 383.54 332.10 Q 382.50 332.00 381.46 332.10 Q 380.43 332.19 379.43 332.48 Q 378.43 332.76 377.52 333.22 Q 376.60 333.69 375.79 334.31 Q 374.99 334.93 374.33 335.69 Q 373.67 336.44 373.18 337.31 Q 372.68 338.17 372.38 339.11 Q 372.08 340.05 371.98 341.02 Q 371.88 342.00 371.98 342.98 Q 372.08 343.95 372.38 344.89 Q 372.68 345.83 373.18 346.69 Q 373.67 347.56 374.33 348.31 Q 374.99 349.07 375.79 349.69 Q 376.60 350.31 377.52 350.78 Q 378.43 351.24 379.43 351.52 Q 380.43 351.81 381.46 351.90 Z" />
<polyline points="406.88 367.00 356.88 317.00" fill="none" stroke="rgb(0,0,0)" stroke-width="10" />
<path fill="rgb(0,0,0)" stroke="rgb(0,0,0)" stroke-width="5" d=" M 251.46 351.90 Q 252.50 352.00 253.54 351.90 Q 254.57 351.81 255.57 351.52 Q 256.57 351.24 257.48 350.78 Q 258.40 350.31 259.21 349.69 Q 260.01 349.07 260.67 348.31 Q 261.33 347.56 261.82 346.69 Q 262.32 345.83 262.62 344.89 Q 262.92 343.95 263.02 342.98 Q 263.12 342.00 263.02 341.02 Q 262.92 340.05 262.62 339.11 Q 262.32 338.17 261.82 337.31 Q 261.33 336.44 260.67 335.69 Q 260.01 334.93 259.21 334.31 Q 258.40 333.69 257.48 333.22 Q 256.57 332.76 255.57 332.48 Q 254.57 332.19 253.54 332.10 Q 252.50 332.00 251.46 332.10 Q 250.43 332.19 249.43 332.48 Q 248.43 332.76 247.52 333.22 Q 246.60 333.69 245.79 334.31 Q 244.99 334.93 244.33 335.69 Q 243.67 336.44 243.17 337.31 Q 242.68 338.17 242.38 339.11 Q 242.08 340.05 241.98 341.02 Q 241.87 342.00 241.98 342.98 Q 242.08 343.95 242.38 344.89 Q 242.68 345.83 243.17 346.69 Q 243.67 347.56 244.33 348.31 Q 244.99 349.07 245.79 349.69 Q 246.60 350.31 247.52 350.78 Q 248.43 351.24 249.43 351.52 Q 250.43 351.81 251.46 351.90 Z" />
<polyline points="276.88 367.00 226.88 317.00" fill="none" stroke="rgb(0,0,0)" stroke-width="10" />
<polygon points="318 292 307 262 327 262" fill="rgb(0,0,0)" stroke="rgb(0,0,0)" stroke-width="5" />
<polygon points="192 167 222 157 222 177" fill="rgb(0,0,0)" stroke="rgb(0,0,0)" stroke-width="5" />
<polygon points="242 517 212 527 212 507" fill="rgb(0,0,0)" stroke="rgb(0,0,0)" stroke-width="5" />
<polyline points="142.50 317.62 142.50 292.62" fill="none" stroke="rgb(0,0,0)" stroke-width="5" />
<polyline points="167.50 342.62 192.50 342.62" fill="none" stroke="rgb(0,0,0)" stroke-width="5" />
<polyline points="492.50 167.00 442.50 167.00" fill="none" stroke="rgb(0,0,0)" stroke-width="5" />
<polyline points="467.50 172.00 467.50 162.00" fill="none" stroke="rgb(0,0,0)" stroke-width="5" />
<polyline points="492.50 517.00 442.50 517.00" fill="none" stroke="rgb(0,0,0)" stroke-width="5" />
<polyline points="467.50 522.00 467.50 512.00" fill="none" stroke="rgb(0,0,0)" stroke-width="5" />
</svg>
