<?xml version="1.0" encoding="UTF-8"?>
<svg width="24" height="24" version="1.1" xmlns="http://www.w3.org/2000/svg" xmlns:cc="http://creativecommons.org/ns#" xmlns:dc="http://purl.org/dc/elements/1.1/" xmlns:rdf="http://www.w3.org/1999/02/22-rdf-syntax-ns#">
 <metadata>
  <rdf:RDF>
   <cc:Work rdf:about="">
    <dc:format>image/svg+xml</dc:format>
    <dc:type rdf:resource="http://purl.org/dc/dcmitype/StillImage"/>
    <dc:title/>
   </cc:Work>
  </rdf:RDF>
 </metadata>
 <g transform="matrix(.26504 0 0 .26504 2.8253 2.5202)" pointer-events="none" style="fill:none;stroke-width:3.2907;stroke:#ffffff">
  <rect width="70" height="70" style="fill:none;stroke-width:3.2907;stroke:#ffffff"/>
  <path d="m0 0 70 70m-56-70 56 56m-42-56 42 42m-28-42 28 28m-14-28 14 14m-70 0 56 56m-56-42 42 42m-42-28 28 28m-28-14 14 14m-14-56 14-14m-14 28 28-28m-28 42 42-42m-42 56 56-56m-56 70 70-70m0 14-56 56m14 0 42-42m0 14-28 28m14 0 14-14" stroke-miterlimit="10" style="fill:none;stroke-miterlimit:4;stroke-width:3.2907;stroke:#ffffff"/>
 </g>
</svg>
