<?xml version="1.0" encoding="UTF-8" standalone="no"?>
<svg
   xmlns:dc="http://purl.org/dc/elements/1.1/"
   xmlns:cc="http://creativecommons.org/ns#"
   xmlns:rdf="http://www.w3.org/1999/02/22-rdf-syntax-ns#"
   xmlns:svg="http://www.w3.org/2000/svg"
   xmlns="http://www.w3.org/2000/svg"
   xmlns:sodipodi="http://sodipodi.sourceforge.net/DTD/sodipodi-0.dtd"
   xmlns:inkscape="http://www.inkscape.org/namespaces/inkscape"
   width="21"
   height="21"
   version="1.1"
   id="svg888"
   sodipodi:docname="iframe.svg"
   inkscape:version="1.0.1 (3bc2e813f5, 2020-09-07)">
  <defs
     id="defs892" />
  <sodipodi:namedview
     pagecolor="#ffffff"
     bordercolor="#666666"
     borderopacity="1"
     objecttolerance="10"
     gridtolerance="10"
     guidetolerance="10"
     inkscape:pageopacity="0"
     inkscape:pageshadow="2"
     inkscape:window-width="1475"
     inkscape:window-height="914"
     id="namedview890"
     showgrid="false"
     inkscape:zoom="20.228155"
     inkscape:cx="10.5"
     inkscape:cy="10.5"
     inkscape:window-x="212"
     inkscape:window-y="78"
     inkscape:window-maximized="0"
     inkscape:current-layer="svg888" />
  <metadata
     id="metadata876">
    <rdf:RDF>
      <cc:Work
         rdf:about="">
        <dc:format>image/svg+xml</dc:format>
        <dc:type
           rdf:resource="http://purl.org/dc/dcmitype/StillImage" />
        <dc:title></dc:title>
      </cc:Work>
    </rdf:RDF>
  </metadata>
  <path
     d="M 18.832888,2.3896233 H 2.2043372 A 1.847617,1.5303576 0 0 0 0.3567201,3.9199809 V 16.162842 a 1.847617,1.5303576 0 0 0 1.8476171,1.530357 H 18.832888 a 1.847617,1.5303576 0 0 0 1.847617,-1.530357 V 3.9199809 A 1.847617,1.5303576 0 0 0 18.832888,2.3896233 M 9.5948048,14.249894 8.2090923,15.397662 4.0519542,11.954358 8.2090923,8.5110535 9.5948048,9.6588225 6.8233796,11.954358 9.5948048,14.249894 m 3.2333282,1.147768 -1.385712,-1.147768 2.771425,-2.295536 -2.771425,-2.2955355 1.385712,-1.147769 4.15714,3.4433045 -4.15714,3.443304 M 18.832888,6.2155172 H 2.2043372 V 3.9199809 H 18.832888 Z"
     id="path1455"
     style="fill:#ffffff;stroke:none;stroke-width:0;stroke-miterlimit:4;stroke-dasharray:none;stroke-opacity:1" />
</svg>
