<?xml version="1.0" standalone="no"?><!DOCTYPE svg PUBLIC "-//W3C//DTD SVG 1.1//EN" "http://www.w3.org/Graphics/SVG/1.1/DTD/svg11.dtd"><svg t="1744348556888" class="icon" viewBox="0 0 1024 1024" version="1.1" xmlns="http://www.w3.org/2000/svg" p-id="1026" xmlns:xlink="http://www.w3.org/1999/xlink" width="200" height="200"><path d="M947.744681 32.680851a43.574468 43.574468 0 0 1 43.574468 43.574468v675.404255a43.574468 43.574468 0 0 1-43.574468 43.574469H76.255319a43.574468 43.574468 0 0 1-43.574468-43.574469V76.255319a43.574468 43.574468 0 0 1 43.574468-43.574468h871.489362z m-10.893617 54.468085H87.148936v653.617021h849.702128V87.148936z" fill="#8626c3" p-id="1027"></path><path d="M206.978723 904.170213h610.042554v65.361702H206.978723z" fill="#8626c3" p-id="1028"></path><path d="M442.60766 264.998128l22.114042 19.662978L653.07234 452.085106H817.021277v54.468085H632.374468l-7.734468-6.873872-173.971064-154.645787L337.702128 495.659574l-8.170213 10.893617H196.041532v-54.468085h106.25634L424.851064 288.680851z" fill="#8626c3" p-id="1029"></path></svg>