<?xml version="1.0" encoding="UTF-8" standalone="no"?>
<svg
   xmlns:dc="http://purl.org/dc/elements/1.1/"
   xmlns:cc="http://creativecommons.org/ns#"
   xmlns:rdf="http://www.w3.org/1999/02/22-rdf-syntax-ns#"
   xmlns:svg="http://www.w3.org/2000/svg"
   xmlns="http://www.w3.org/2000/svg"
   xmlns:sodipodi="http://sodipodi.sourceforge.net/DTD/sodipodi-0.dtd"
   xmlns:inkscape="http://www.inkscape.org/namespaces/inkscape"
   width="21"
   height="21"
   version="1.1"
   id="svg888"
   sodipodi:docname="table.svg"
   inkscape:version="1.0.1 (3bc2e813f5, 2020-09-07)">
  <defs
     id="defs892" />
  <sodipodi:namedview
     pagecolor="#ffffff"
     bordercolor="#666666"
     borderopacity="1"
     objecttolerance="10"
     gridtolerance="10"
     guidetolerance="10"
     inkscape:pageopacity="0"
     inkscape:pageshadow="2"
     inkscape:window-width="1475"
     inkscape:window-height="914"
     id="namedview890"
     showgrid="false"
     inkscape:zoom="20.228155"
     inkscape:cx="11.18518"
     inkscape:cy="10.5"
     inkscape:window-x="212"
     inkscape:window-y="78"
     inkscape:window-maximized="0"
     inkscape:current-layer="svg888"
     inkscape:document-rotation="0" />
  <metadata
     id="metadata876">
    <rdf:RDF>
      <cc:Work
         rdf:about="">
        <dc:format>image/svg+xml</dc:format>
        <dc:type
           rdf:resource="http://purl.org/dc/dcmitype/StillImage" />
        <dc:title></dc:title>
      </cc:Work>
    </rdf:RDF>
  </metadata>
  <path
     d="M 18.553259,2.215764 H 2.4961778 c -1.2407745,0 -2.18960191,0.8627021 -2.18960191,1.9908499 V 16.151716 c 0,1.128148 0.94882741,1.99085 2.18960191,1.99085 H 18.553259 c 1.240774,0 2.189602,-0.862702 2.189602,-1.99085 V 4.2066139 c 0,-1.1281478 -0.948828,-1.9908499 -2.189602,-1.9908499 z M 8.3351165,12.833631 v -2.654467 h 5.1090715 v 2.654467 z m 5.1090715,1.327234 v 2.654467 H 8.3351165 v -2.654467 z m 0,-7.9634003 V 8.8519306 H 8.3351165 V 6.1974647 Z m 5.838938,0 V 8.8519306 H 14.903922 V 6.1974647 Z M 6.8753817,8.8519306 H 1.7663105 V 6.1974647 H 6.8753817 Z M 1.7663105,10.179164 h 5.1090712 v 2.654467 H 1.7663105 Z m 13.1376115,0 h 4.379204 v 2.654467 H 14.903922 Z M 1.7663105,16.151716 v -1.990851 h 5.1090712 v 2.654467 H 2.4961778 c -0.4379204,0 -0.7298673,-0.265447 -0.7298673,-0.663616 z m 16.7869485,0.663616 h -3.649337 v -2.654467 h 4.379204 v 1.990851 c 0,0.398169 -0.291947,0.663616 -0.729867,0.663616 z"
     id="path842"
     style="fill:#ffffff;stroke-width:0.695954" />
</svg>
