<svg t="1709603901805" class="icon" viewBox="0 0 1170 1024" version="1.1" xmlns="http://www.w3.org/2000/svg" p-id="5181"
     xmlns:cc="http://creativecommons.org/ns#" xmlns:dc="http://purl.org/dc/elements/1.1/" xmlns:rdf="http://www.w3.org/1999/02/22-rdf-syntax-ns#"
     width="24" height="24">
    <metadata>
        <rdf:RDF>
            <cc:Work rdf:about="">
                <dc:format>image/svg+xml</dc:format>
                <dc:type rdf:resource="http://purl.org/dc/dcmitype/StillImage"/>
                <dc:title/>
            </cc:Work>
        </rdf:RDF>
    </metadata>
    <path
        d="M1167.067429 408.356571a238.445714 238.445714 0 0 1-65.609143 84.48c10.971429 10.020571 14.116571 26.038857 7.826285 39.497143l-115.712 247.954286a34.230857 34.230857 0 0 1-45.421714 16.603429l-98.304-45.860572a102.619429 102.619429 0 0 1-116.589714 21.138286L536.795429 680.594286l-66.486858 132.973714a102.034286 102.034286 0 0 1-91.794285 56.685714h-173.348572v34.230857c0 56.612571-45.933714 102.546286-102.546285 102.546286H34.230857A34.230857 34.230857 0 0 1 0 972.873143V630.857143c0-18.870857 15.36-34.230857 34.230857-34.230857h68.388572c43.446857 0 82.212571 27.428571 96.694857 68.388571h115.785143l35.620571-71.241143L175.177143 512a171.154286 171.154286 0 0 1-82.651429-227.328L179.2 98.742857A171.227429 171.227429 0 0 1 406.528 16.018286L1150.537143 362.934857a34.230857 34.230857 0 0 1 16.530286 45.421714zM102.619429 665.088H68.388571v273.554286h34.230858c18.870857 0 34.157714-15.36 34.230857-34.157715V699.245714a34.230857 34.230857 0 0 0-34.230857-34.230857z m843.410285 55.369143l86.747429-186.002286-3.145143-1.462857a239.616 239.616 0 0 1-78.043429 13.677714l-67.510857 144.822857 61.952 28.964572z m-609.792 13.019428H205.238857v68.388572h173.348572c12.946286 0 24.795429-7.314286 30.573714-18.944l65.682286-131.291429-62.098286-28.891428-45.933714 91.794285a34.230857 34.230857 0 0 1-30.573715 18.944zM197.851429 220.598857l-43.373715 93.037714a102.692571 102.692571 0 0 0 49.664 136.338286l558.006857 260.169143a34.157714 34.157714 0 0 0 45.421715-16.530286l73.362285-157.184a242.322286 242.322286 0 0 1-32.036571-12.288l-650.971429-303.542857z m179.785142-142.628571a102.765714 102.765714 0 0 0-136.411428 49.664l-14.409143 31.012571 650.971429 303.542857a171.154286 171.154286 0 0 0 209.773714-53.174857L377.636571 77.970286z m351.451429 541.257143l-124.050286-57.782858a34.230857 34.230857 0 1 1 28.964572-62.025142l123.977143 57.782857a34.230857 34.230857 0 1 1-28.891429 62.025143zM371.492571 449.097143a34.230857 34.230857 0 1 1 0-68.388572 34.230857 34.230857 0 0 1 0 68.388572z m-123.977142-57.782857a34.230857 34.230857 0 1 1 0-68.461715 34.230857 34.230857 0 0 1 0 68.388572z"
        fill="#ffffff" p-id="5182"></path>
</svg>
