<?xml version="1.0" standalone="no"?>
<!DOCTYPE svg PUBLIC "-//W3C//DTD SVG 20010904//EN"
 "http://www.w3.org/TR/2001/REC-SVG-20010904/DTD/svg10.dtd">
<svg version="1.0" xmlns="http://www.w3.org/2000/svg"
 width="500.000000pt" height="500.000000pt" viewBox="0 0 500.000000 500.000000"
 preserveAspectRatio="xMidYMid meet">

<g transform="translate(0.000000,500.000000) scale(0.100000,-0.100000)"
fill="#000000" stroke="none">
<path d="M2069 3357 c-103 -29 -181 -96 -228 -197 l-26 -55 0 -530 0 -530 28
-57 c28 -58 127 -160 167 -173 11 -3 20 -10 20 -15 0 -17 78 -111 116 -140 21
-16 68 -39 103 -50 58 -18 90 -20 387 -20 198 0 343 4 376 11 143 30 303 160
374 304 l39 79 0 126 c0 140 -13 183 -75 253 l-32 37 -35 -31 c-19 -16 -37
-29 -39 -27 -1 2 -4 22 -5 44 -2 33 3 48 29 81 134 166 106 439 -61 586 -84
76 -92 84 -138 145 -44 58 -117 111 -200 145 -52 21 -70 22 -404 24 -258 2
-362 -1 -396 -10z m403 -424 c25 -22 27 -183 2 -207 -40 -41 -94 -6 -94 62 0
35 -5 48 -25 64 -29 23 -32 54 -8 80 21 24 99 25 125 1z m-6 -649 c42 -20 64
-59 64 -115 0 -33 -6 -47 -34 -75 -28 -28 -42 -34 -75 -34 -53 0 -97 22 -116
60 -30 59 -14 118 44 157 40 27 71 29 117 7z"/>
<path d="M2400 2180 c0 -5 5 -10 10 -10 6 0 10 5 10 10 0 6 -4 10 -10 10 -5 0
-10 -4 -10 -10z"/>
<path d="M1450 1269 l0 -101 76 4 c60 3 79 7 90 23 19 26 18 41 -5 64 -17 17
-18 21 -5 32 19 16 18 43 -4 62 -13 12 -37 17 -85 17 l-67 0 0 -101z m115 41
c0 -10 -12 -16 -32 -18 -28 -3 -33 0 -33 18 0 18 5 21 33 18 20 -2 32 -8 32
-18z m3 -77 c-2 -12 -14 -19 -36 -21 -27 -3 -32 0 -32 17 0 17 6 21 36 21 28
0 35 -3 32 -17z"/>
<path d="M1723 1273 c-40 -95 -41 -98 -20 -101 14 -3 27 4 35 17 20 29 87 30
102 1 6 -12 21 -20 35 -20 14 0 25 2 25 3 0 2 -18 46 -39 98 -36 85 -42 94
-68 97 -27 3 -30 -1 -70 -95z m84 7 c11 -29 10 -30 -17 -30 -27 0 -28 1 -17
30 6 17 14 30 17 30 3 0 11 -13 17 -30z"/>
<path d="M1968 1280 c-2 -50 -1 -95 0 -100 2 -6 15 -10 28 -10 20 0 24 5 24
29 0 16 6 33 13 39 10 8 19 2 37 -28 19 -31 31 -40 52 -40 16 0 28 2 28 5 0 3
-16 30 -37 61 l-36 55 38 39 39 40 -31 0 c-23 0 -40 -10 -67 -40 l-36 -40 0
40 c0 36 -3 40 -24 40 -24 0 -25 -2 -28 -90z"/>
<path d="M2220 1270 l0 -100 80 0 c73 0 80 2 80 20 0 18 -7 20 -55 20 -48 0
-55 2 -55 20 0 17 7 20 50 20 43 0 50 3 50 20 0 17 -7 20 -50 20 -43 0 -50 3
-50 20 0 18 7 20 55 20 48 0 55 2 55 20 0 18 -7 20 -80 20 l-80 0 0 -100z"/>
<path d="M2460 1270 l0 -100 61 0 c102 0 148 41 100 89 -17 17 -18 21 -5 32
19 16 18 43 -4 62 -13 12 -37 17 -85 17 l-67 0 0 -100z m115 40 c0 -10 -12
-16 -32 -18 -28 -3 -33 0 -33 18 0 18 5 21 33 18 20 -2 32 -8 32 -18z m3 -77
c-2 -12 -14 -19 -36 -21 -27 -3 -32 0 -32 17 0 17 6 21 36 21 28 0 35 -3 32
-17z"/>
<path d="M2724 1306 c23 -40 36 -78 36 -100 0 -32 3 -36 25 -36 21 0 25 5 25
30 0 16 16 58 35 93 19 35 35 67 35 70 0 4 -11 7 -25 7 -14 0 -25 -3 -25 -7 0
-5 -9 -23 -21 -42 l-21 -34 -24 41 c-19 32 -31 42 -50 42 l-26 0 36 -64z"/>
<path d="M2930 1350 c0 -16 7 -20 30 -20 l30 0 0 -80 c0 -79 0 -80 25 -80 25
0 25 1 25 80 l0 80 30 0 c23 0 30 4 30 20 0 18 -7 20 -85 20 -78 0 -85 -2 -85
-20z"/>
<path d="M3170 1270 l0 -100 80 0 c73 0 80 2 80 20 0 18 -7 20 -55 20 -48 0
-55 3 -55 19 0 17 8 20 47 23 35 2 47 7 49 21 2 14 -6 17 -47 17 -42 0 -49 3
-49 19 0 17 8 20 52 23 41 2 54 7 56 21 3 15 -6 17 -77 17 l-81 0 0 -100z"/>
<path d="M3421 1351 c-37 -37 -21 -72 44 -97 45 -17 55 -36 22 -42 -9 -2 -31
3 -47 12 -28 13 -31 13 -40 -4 -13 -25 9 -41 65 -48 58 -6 95 16 95 58 0 32
-24 53 -72 65 -16 4 -28 14 -28 22 0 12 9 14 44 9 35 -6 45 -4 50 10 9 24 3
27 -58 32 -45 4 -57 1 -75 -17z"/>
</g>
</svg>
