<svg width="43" height="36" viewBox="0 0 43 36" fill="none" xmlns="http://www.w3.org/2000/svg">
    <path d="M21.267 3.18669L26.1966 6.03797L21.267 8.88924L16.3374 6.03797L21.267 3.18669ZM21.267 0.273438C20.9589 0.273438 20.6508 0.335422 20.4043 0.45939L10.8531 6.03797V6.09995L20.0346 11.4306C20.3427 11.6165 20.774 11.7405 21.2054 11.7405H21.267H21.3286C21.76 11.7405 22.1913 11.6165 22.4994 11.4306L31.6809 6.09995V6.03797L22.1297 0.45939C21.9448 0.335422 21.5751 0.273438 21.267 0.273438Z" fill="#323232"/>
    <path d="M3.14999 11.3068L18.8016 20.4185C19.4794 20.8524 20.3421 21.0384 21.2048 21.1003H21.2664H21.328C22.1907 21.1003 23.0534 20.8524 23.7312 20.4185L39.3828 11.3068V22.34L21.328 32.9393H21.2664L3.21162 22.34V11.3068H3.14999ZM0.438699 5.9762C0.377079 5.9762 0.377075 5.9762 0.377075 6.03818V22.464C0.377075 23.2698 0.80841 24.1996 1.48624 24.5715L19.9724 35.3567C20.2805 35.5427 20.7734 35.6666 21.2048 35.6666H21.2664H21.328C21.7594 35.6666 22.1907 35.5427 22.5604 35.3567L41.0465 24.5715C41.7244 24.1996 42.1557 23.2078 42.1557 22.464V6.10017C42.1557 6.03818 42.1557 6.03818 42.0941 6.03818C42.0941 6.03818 42.0325 6.03818 42.0325 6.10017C41.8476 6.72001 41.4163 6.96794 40.9233 7.21588L22.3755 18.0011C22.0674 18.1871 21.6361 18.2491 21.2664 18.3111C20.835 18.3111 20.4653 18.1871 20.1572 18.0011L1.60948 7.21588C1.17814 6.90596 0.746801 6.65802 0.438699 5.9762C0.50032 6.03818 0.50032 6.03818 0.438699 5.9762C0.50032 6.03818 0.50032 5.9762 0.438699 5.9762Z" fill="#323232"/>
</svg>
