<?xml version="1.0" encoding="UTF-8" standalone="no"?>
<svg
   xmlns:dc="http://purl.org/dc/elements/1.1/"
   xmlns:cc="http://creativecommons.org/ns#"
   xmlns:rdf="http://www.w3.org/1999/02/22-rdf-syntax-ns#"
   xmlns:svg="http://www.w3.org/2000/svg"
   xmlns="http://www.w3.org/2000/svg"
   xmlns:sodipodi="http://sodipodi.sourceforge.net/DTD/sodipodi-0.dtd"
   xmlns:inkscape="http://www.inkscape.org/namespaces/inkscape"
   width="24"
   height="24"
   version="1.1"
   id="svg858"
   sodipodi:docname="compair.svg"
   inkscape:version="1.0 (4035a4fb49, 2020-05-01)">
  <defs
     id="defs862" />
  <sodipodi:namedview
     inkscape:document-rotation="0"
     pagecolor="#ffffff"
     bordercolor="#666666"
     borderopacity="1"
     objecttolerance="10"
     gridtolerance="10"
     guidetolerance="10"
     inkscape:pageopacity="0"
     inkscape:pageshadow="2"
     inkscape:window-width="1920"
     inkscape:window-height="1017"
     id="namedview860"
     showgrid="false"
     inkscape:zoom="8.8544831"
     inkscape:cx="10.305943"
     inkscape:cy="36.414408"
     inkscape:window-x="-8"
     inkscape:window-y="-8"
     inkscape:window-maximized="1"
     inkscape:current-layer="svg858" />
  <metadata
     id="metadata854">
    <rdf:RDF>
      <cc:Work
         rdf:about="">
        <dc:format>image/svg+xml</dc:format>
        <dc:type
           rdf:resource="http://purl.org/dc/dcmitype/StillImage" />
        <dc:title></dc:title>
      </cc:Work>
    </rdf:RDF>
  </metadata>
  <g
     style="fill:none;stroke:#ffffff;stroke-width:4.13126;stroke-miterlimit:4;stroke-dasharray:none;stroke-opacity:1"
     transform="matrix(0.23650548,0,0,0.26110902,0.32033976,2.0027775)"
     id="g16">
    <path
       style="fill:none;stroke:#ffffff;stroke-width:4.13126;stroke-miterlimit:4;stroke-dasharray:none;stroke-opacity:1"
       d="m 7.79,25.33 h 84.42 c 7.79,12.31 7.79,27.84 0,40.15 H 7.79 C 0,53.17 0,37.64 7.79,25.33 Z"
       fill="#ffffff"
       stroke="#000000"
       stroke-miterlimit="10"
       pointer-events="all"
       id="path4" />
    <path
       id="rect6"
       style="fill:none;stroke:#ffffff;stroke-width:4.13126;stroke-miterlimit:4;stroke-dasharray:none;stroke-opacity:1"
       d="M 7.9899998,25.33 H 91.809999 V 65.480001 H 7.9899998 Z" />
    <path
       id="ellipse8"
       style="fill:none;stroke:#ffffff;stroke-width:4.13126;stroke-miterlimit:4;stroke-dasharray:none;stroke-opacity:1"
       d="m 40.186186,18.639999 a 3.9261878,3.8235295 0 0 1 -3.926188,3.82353 3.9261878,3.8235295 0 0 1 -3.926187,-3.82353 3.9261878,3.8235295 0 0 1 3.926187,-3.823529 3.9261878,3.8235295 0 0 1 3.926188,3.823529" />
    <path
       id="ellipse10"
       style="fill:none;stroke:#ffffff;stroke-width:4.13126;stroke-miterlimit:4;stroke-dasharray:none;stroke-opacity:1"
       d="M 74.052372,15.77 A 7.8523755,7.647059 0 0 1 66.199997,23.417059 7.8523755,7.647059 0 0 1 58.347621,15.77 7.8523755,7.647059 0 0 1 66.199997,8.1229415 7.8523755,7.647059 0 0 1 74.052372,15.77" />
    <path
       style="fill:none;stroke:#ffffff;stroke-width:4.13126;stroke-miterlimit:4;stroke-dasharray:none;stroke-opacity:1"
       d="M 35.4,14.91 64.09,8.53 m -27.8,14.07 29.76,0.89 m -48.93,1.84 v -4.3 m -4.42,0 4.42,-4.78 m 0,-15.77 v 15.77 m -3.44,-7.74 7.07,6.02 m -6.09,-8.6 5.6,4.59 m -5.01,-7.17 4.32,3.82 m 67.24,18.16 v -3.34"
       fill="none"
       stroke="#000000"
       stroke-miterlimit="10"
       pointer-events="all"
       id="path12" />
    <path
       style="fill:none;stroke:#ffffff;stroke-width:4.13126;stroke-miterlimit:4;stroke-dasharray:none;stroke-opacity:1"
       d="m 12.7,11.95 9.33,9.08 H 12.7 Z m 71.16,0 h 5.89 l -5.89,10.04 h 5.89 z"
       fill="#ffffff"
       stroke="#000000"
       stroke-miterlimit="10"
       pointer-events="all"
       id="path14" />
  </g>
</svg>
