<?xml version="1.0" encoding="UTF-8" standalone="no"?>
<svg
   xmlns:dc="http://purl.org/dc/elements/1.1/"
   xmlns:cc="http://creativecommons.org/ns#"
   xmlns:rdf="http://www.w3.org/1999/02/22-rdf-syntax-ns#"
   xmlns:svg="http://www.w3.org/2000/svg"
   xmlns="http://www.w3.org/2000/svg"
   xmlns:sodipodi="http://sodipodi.sourceforge.net/DTD/sodipodi-0.dtd"
   xmlns:inkscape="http://www.inkscape.org/namespaces/inkscape"
   inkscape:version="1.0 (4035a4fb49, 2020-05-01)"
   sodipodi:docname="misc2.svg"
   id="svg8"
   version="1.1"
   height="24"
   width="24">
  <defs
     id="defs12" />
  <sodipodi:namedview
     inkscape:current-layer="svg8"
     inkscape:window-maximized="1"
     inkscape:window-y="-8"
     inkscape:window-x="-8"
     inkscape:cy="2.5945166"
     inkscape:cx="12"
     inkscape:zoom="9.4889455"
     showgrid="false"
     id="namedview10"
     inkscape:window-height="1017"
     inkscape:window-width="1920"
     inkscape:pageshadow="2"
     inkscape:pageopacity="0"
     guidetolerance="10"
     gridtolerance="10"
     objecttolerance="10"
     borderopacity="1"
     bordercolor="#666666"
     pagecolor="#ffffff" />
  <metadata
     id="metadata2">
    <rdf:RDF>
      <cc:Work
         rdf:about="">
        <dc:format>image/svg+xml</dc:format>
        <dc:type
           rdf:resource="http://purl.org/dc/dcmitype/StillImage" />
        <dc:title></dc:title>
      </cc:Work>
    </rdf:RDF>
  </metadata>
  <g
     style="fill:none;stroke:#ffffff;stroke-width:4.39199;stroke-miterlimit:4;stroke-dasharray:none;stroke-opacity:1"
     transform="matrix(0.25045609,0,0,0.25045609,4.7186954,3.4364571)"
     id="g8">
    <path
       style="fill:none;stroke:#ffffff;stroke-width:4.39199;stroke-miterlimit:4;stroke-dasharray:none;stroke-opacity:1"
       d="M 60,0 V 45 C 60,61.57 46.57,75 30,75 13.43,75 0,61.57 0,45 V 0 Z"
       fill="#ffffff"
       stroke="#000000"
       stroke-miterlimit="10"
       pointer-events="all"
       id="path4" />
    <path
       style="fill:none;stroke:#ffffff;stroke-width:4.39199;stroke-miterlimit:4;stroke-dasharray:none;stroke-opacity:1"
       d="m 32.32,45.48 c -0.02,6.21 -1.03,11.24 -2.27,11.24 -0.6,0.01 -1.17,-1.18 -1.59,-3.29 -0.42,-2.11 -0.65,-4.97 -0.64,-7.96 0,-2.99 0.25,-5.85 0.68,-7.96 0.42,-2.11 1,-3.29 1.6,-3.29 1.24,0.02 2.23,5.05 2.22,11.26 z M 40.2,28.45 c -4.73,4.03 -9.22,6.53 -10.03,5.59 -0.8,-0.95 2.38,-4.98 7.11,-9 4.73,-4.03 9.22,-6.53 10.03,-5.59 0.8,0.95 -2.38,4.98 -7.11,9 z M 22.82,24.99 c 4.73,4 7.92,8.02 7.13,8.98 -0.38,0.46 -1.65,0.13 -3.54,-0.91 -1.88,-1.04 -4.22,-2.71 -6.5,-4.64 -2.28,-1.92 -4.31,-3.95 -5.65,-5.64 -1.34,-1.68 -1.87,-2.88 -1.49,-3.34 0.81,-0.94 5.31,1.54 10.05,5.55 z"
       fill="none"
       stroke="#000000"
       stroke-miterlimit="10"
       pointer-events="all"
       id="path6" />
  </g>
</svg>
