<?xml version="1.0" encoding="UTF-8"?>
<svg width="24" height="24" version="1.1" xmlns="http://www.w3.org/2000/svg" xmlns:cc="http://creativecommons.org/ns#" xmlns:dc="http://purl.org/dc/elements/1.1/" xmlns:rdf="http://www.w3.org/1999/02/22-rdf-syntax-ns#">
 <metadata>
  <rdf:RDF>
   <cc:Work rdf:about="">
    <dc:format>image/svg+xml</dc:format>
    <dc:type rdf:resource="http://purl.org/dc/dcmitype/StillImage"/>
    <dc:title/>
   </cc:Work>
  </rdf:RDF>
 </metadata>
 <g transform="matrix(.54855 0 0 .54855 1.1133 1.1133)" fill="none" stroke="#fff" stroke-width="2.1457">
  <path d="m40 20a20 20 0 0 1-20 20 20 20 0 0 1-20-20 20 20 0 0 1 20-20 20 20 0 0 1 20 20"/>
  <path d="m10 2.8 28 8.4m-28 26 28-8.4m-26-8.8h16m-2-5.2c2.56 2.99 2.56 7.41 0 10.4m-12-10.4c-2.56 2.99-2.56 7.41 0 10.4" pointer-events="all"/>
 </g>
</svg>
