<?xml version="1.0" encoding="UTF-8"?>
<svg width="24" height="24" version="1.1" xmlns="http://www.w3.org/2000/svg" xmlns:cc="http://creativecommons.org/ns#" xmlns:dc="http://purl.org/dc/elements/1.1/" xmlns:rdf="http://www.w3.org/1999/02/22-rdf-syntax-ns#">
 <metadata>
  <rdf:RDF>
   <cc:Work rdf:about="">
    <dc:format>image/svg+xml</dc:format>
    <dc:type rdf:resource="http://purl.org/dc/dcmitype/StillImage"/>
    <dc:title/>
   </cc:Work>
  </rdf:RDF>
 </metadata>
 <g transform="matrix(.27468 0 0 .27468 .95706 6.6401)" fill="none" stroke="#fff" stroke-width="4.0047">
  <g pointer-events="all">
   <path d="m0.5 0h80l-16 48h-48z"/>
   <path d="m20.5 0-13.6 20m53.6-20 13.6 20"/>
   <path d="m40.5 20h8m-16 8h8"/>
  </g>
  <path d="m56.5 24a16 16 0 0 1-16 16 16 16 0 0 1-16-16 16 16 0 0 1 16-16 16 16 0 0 1 16 16"/>
  <path d="m40.5 18v4l-6.4-2zm0 8v4l6.4-2z" pointer-events="all"/>
 </g>
</svg>
