<?xml version="1.0" encoding="UTF-8"?>
<svg width="24" height="24" version="1.1" xmlns="http://www.w3.org/2000/svg" xmlns:cc="http://creativecommons.org/ns#" xmlns:dc="http://purl.org/dc/elements/1.1/" xmlns:rdf="http://www.w3.org/1999/02/22-rdf-syntax-ns#">
 <metadata>
  <rdf:RDF>
   <cc:Work rdf:about="">
    <dc:format>image/svg+xml</dc:format>
    <dc:type rdf:resource="http://purl.org/dc/dcmitype/StillImage"/>
    <dc:title/>
   </cc:Work>
  </rdf:RDF>
 </metadata>
 <g transform="matrix(.36126 0 0 .36126 3.2843 1.2997)" fill="none" stroke="#fff" stroke-width="3.34">
  <path d="m9.6 45.08-9.6 10.4h48l-9.6-10.4" pointer-events="all"/>
  <path d="m48 25.88a24 24 0 0 1-24 24 24 24 0 0 1-24-24 24 24 0 0 1 24-24 24 24 0 0 1 24 24"/>
  <path d="m32 9.88a8 8 0 0 1-8 8 8 8 0 0 1-8-8 8 8 0 0 1 8-8 8 8 0 0 1 8 8"/>
  <path d="m18.88 35.08a8 8 0 0 1-8 8 8 8 0 0 1-8-8 8 8 0 0 1 8-8 8 8 0 0 1 8 8"/>
  <path d="m45.12 35.08a8 8 0 0 1-8 8 8 8 0 0 1-8-8 8 8 0 0 1 8-8 8 8 0 0 1 8 8"/>
  <path d="m17.04 6.04-13.36 25.44m27.28-25.44 13.36 25.44m-33.44 11.6h26.24m-21.12-42.8v9.6m16-9.6v9.6" pointer-events="all"/>
 </g>
</svg>
