<?xml version="1.0" encoding="UTF-8" standalone="no"?>
<!-- Created with Inkscape (http://www.inkscape.org/) -->

<svg
   width="15.056235mm"
   height="20.278074mm"
   viewBox="0 0 15.056235 20.278074"
   version="1.1"
   id="svg1"
   xml:space="preserve"
   xmlns="http://www.w3.org/2000/svg"
   xmlns:svg="http://www.w3.org/2000/svg"><defs
     id="defs1" /><g
     id="layer3"
     transform="translate(-158.47891,-21.985064)"><g
       id="g597"
       transform="matrix(4.1206626,0,0,4.1206626,-469.55462,-38.191605)"><path
         style="fill:#c2c2c2;fill-opacity:1"
         d="m 153.30546,19.061689 -0.0314,-0.330729 0.049,-0.357281 0.049,-0.357281 -0.22503,0.139075 -0.22503,0.139074 0.0396,-0.972419 0.0396,-0.972418 -0.15518,-0.264584 -0.15519,-0.264583 -0.0331,-0.595312 -0.0331,-0.595313 h 0.43792 0.43793 l 0.91028,1.038558 0.91027,1.038558 0.0331,0.284359 0.0331,0.284358 0.0661,0.132292 0.0661,0.132292 0.0661,0.264583 0.0661,0.264583 0.0551,0.06615 0.0551,0.06615 0.0614,0.532975 0.0614,0.532974 -0.8874,0.01506 -0.88739,0.01506 0.17139,-0.415742 0.17139,-0.415743 0.0479,-0.529166 0.0479,-0.529167 0.29539,0.05794 0.2954,0.05794 -0.0559,-0.381011 -0.0559,-0.381012 -0.22647,-0.206096 -0.22647,-0.206095 0.16056,0.282555 0.16055,0.282556 -0.6473,0.698084 -0.6473,0.698085 v 0.159454 0.159454 l 0.30955,-0.19131 0.30954,-0.19131 -0.17725,0.461918 -0.17726,0.461918 v 0.110652 0.110652 h -0.26458 -0.26458 z m 2.01593,-0.92888 0.0418,-0.567932 -0.2375,0.146784 -0.2375,0.146783 0.13547,0.353018 0.13546,0.353018 -0.18357,0.105288 -0.18358,0.105289 0.24377,-0.03716 0.24377,-0.03716 z m -1.42353,-1.195585 -0.25512,-0.255121 0.14417,-0.43078 0.14417,-0.43078 -0.47915,0.644884 -0.47915,0.644883 0.31595,0.105319 0.31596,0.105319 -0.18473,0.308131 -0.18473,0.308131 0.45888,-0.372433 0.45887,-0.372432 z m 0.62957,-0.719806 0.16352,-0.264583 h -0.2802 -0.28019 v 0.264583 0.264583 h 0.11667 0.11668 z m -1.29646,-0.644369 V 14.92868 l -0.1881,0.116253 -0.1881,0.116253 0.0885,0.46197 0.0885,0.46197 0.0202,0.06615 0.0202,0.06615 h 0.0794 0.0794 z"
         id="path606" /><path
         style="fill:#b0b0b0;fill-opacity:1"
         d="m 153.30546,19.061689 -0.0314,-0.330729 0.049,-0.357281 0.049,-0.357281 -0.22503,0.139075 -0.22503,0.139074 0.0396,-0.972419 0.0396,-0.972418 -0.15518,-0.264584 -0.15519,-0.264583 -0.0338,-0.608452 -0.0338,-0.608452 0.55516,0.07929 0.55515,0.07929 -0.0504,0.264583 -0.0504,0.264583 0.57953,0.228619 0.57952,0.228619 -0.33072,0.124159 -0.33073,0.124159 v 0.234231 0.234231 l 0.35448,-0.136029 0.35449,-0.136029 0.37312,0.459705 0.37311,0.459705 -0.29355,-0.175719 -0.29355,-0.17572 -0.67995,0.763126 -0.67995,0.763125 0.14447,0.55243 0.14446,0.55243 h -0.29544 -0.29544 z m 0.5924,-2.124465 -0.25512,-0.255121 0.14417,-0.43078 0.14417,-0.43078 -0.47915,0.644884 -0.47915,0.644883 0.31595,0.105319 0.31596,0.105319 -0.18473,0.308131 -0.18473,0.308131 0.45888,-0.372433 0.45887,-0.372432 z m -0.66689,-1.364175 V 14.92868 l -0.1881,0.116253 -0.1881,0.116253 0.0885,0.46197 0.0885,0.46197 0.0202,0.06615 0.0202,0.06615 h 0.0794 0.0794 z m 1.24518,3.649095 -0.31587,-0.128498 0.16239,-0.423184 0.1624,-0.423184 -0.337,0.208271 -0.33699,0.208272 0.43809,-0.668603 0.43809,-0.668603 0.37545,0.0551 0.37545,0.05511 0.17575,0.17575 0.17575,0.175749 -0.58312,-0.112298 -0.58312,-0.112297 0.10597,0.31791 0.10597,0.317911 0.3752,0.02697 0.3752,0.02697 0.23945,0.0403 0.23944,0.0403 -0.47889,0.529166 -0.47888,0.529167 -0.15744,-0.02089 -0.15743,-0.02089 z m 0.73777,-0.55733 0.3544,-0.463021 -0.23152,0.196142 -0.23151,0.196142 -0.33426,-0.277409 -0.33426,-0.277409 0.14234,0.544288 0.14233,0.544288 h 0.069 0.069 z"
         id="path605" /><path
         style="fill:#9e9e9e;fill-opacity:1"
         d="m 153.30546,19.061689 -0.0314,-0.330729 0.049,-0.357281 0.049,-0.357281 -0.22503,0.139075 -0.22503,0.139074 0.0396,-0.972419 0.0396,-0.972418 -0.15518,-0.264584 -0.15519,-0.264583 -0.0338,-0.608452 -0.0338,-0.608452 0.55516,0.07929 0.55515,0.07929 -0.0504,0.264583 -0.0504,0.264583 0.57953,0.228619 0.57952,0.228619 -0.33072,0.124159 -0.33073,0.124159 v 0.234231 0.234231 l 0.35448,-0.136029 0.35449,-0.136029 0.37312,0.459705 0.37311,0.459705 -0.29355,-0.175719 -0.29355,-0.17572 -0.67995,0.763126 -0.67995,0.763125 0.14447,0.55243 0.14446,0.55243 h -0.29544 -0.29544 z m 0.5924,-2.124465 -0.25512,-0.255121 0.14417,-0.43078 0.14417,-0.43078 -0.47915,0.644884 -0.47915,0.644883 0.31595,0.105319 0.31596,0.105319 -0.18473,0.308131 -0.18473,0.308131 0.45888,-0.372433 0.45887,-0.372432 z m -0.66689,-1.364175 V 14.92868 l -0.1881,0.116253 -0.1881,0.116253 0.0885,0.46197 0.0885,0.46197 0.0202,0.06615 0.0202,0.06615 h 0.0794 0.0794 z m 1.24518,3.649095 -0.31587,-0.128498 0.16239,-0.423184 0.1624,-0.423184 -0.337,0.208271 -0.33699,0.208272 0.43809,-0.668603 0.43809,-0.668603 0.37545,0.0551 0.37545,0.05511 0.17575,0.17575 0.17575,0.175749 -0.58312,-0.112298 -0.58312,-0.112297 0.10597,0.31791 0.10597,0.317911 0.3752,0.02697 0.3752,0.02697 0.23945,0.0403 0.23944,0.0403 -0.47889,0.529166 -0.47888,0.529167 -0.15744,-0.02089 -0.15743,-0.02089 z m 0.73777,-0.55733 0.3544,-0.463021 -0.23152,0.196142 -0.23151,0.196142 -0.33426,-0.277409 -0.33426,-0.277409 0.14234,0.544288 0.14233,0.544288 h 0.069 0.069 z"
         id="path604" /><path
         style="fill:#8c8c8c;fill-opacity:1"
         d="m 153.52236,18.952139 0.16896,-0.440278 -0.2434,0.149686 -0.24341,0.149685 -0.0293,-0.789871 -0.0293,-0.789872 0.18494,0.299238 0.18494,0.299239 0.32022,-0.385844 0.32022,-0.385843 -0.26587,-0.164321 -0.26588,-0.16432 0.1457,-0.454547 0.14569,-0.454548 -0.27852,0.394663 -0.27853,0.394664 -0.33188,-0.331879 -0.33188,-0.331878 -0.0351,-0.658098 -0.0352,-0.658097 h 0.37163 0.37163 l -0.20662,0.330729 -0.20661,0.330729 -0.05,0.329679 -0.05,0.329679 0.22719,0.140409 0.22718,0.140409 -0.0992,-0.515303 -0.0992,-0.515302 0.39139,-0.150192 0.3914,-0.150192 -0.14306,0.231472 -0.14306,0.231472 0.59234,0.180179 0.59233,0.180179 -0.33072,0.136533 -0.33073,0.136534 v 0.234231 0.234231 l 0.35448,-0.136029 0.35449,-0.136029 0.30277,0.364819 0.30277,0.364819 h -0.38103 -0.38104 l 0.16153,-0.261367 0.16154,-0.261366 -0.30978,0.191454 -0.30978,0.191454 0.12746,0.206232 0.12745,0.206231 -0.54662,0.58673 -0.54662,0.586729 0.13776,0.137755 0.13775,0.137755 0.43178,-0.658983 0.43179,-0.658983 0.37545,0.0551 0.37545,0.05511 0.17575,0.17575 0.17575,0.175749 -0.58312,-0.112298 -0.58312,-0.112297 0.10635,0.319032 0.10634,0.319033 0.30868,0.03307 0.30868,0.03307 0.1416,0.03307 0.1416,0.03307 -0.2832,0.529166 -0.2832,0.529167 h -0.28767 -0.28767 l 0.29468,-0.355073 0.29469,-0.355074 -0.16998,-0.16998 -0.16998,-0.169981 -0.35754,0.458908 -0.35754,0.458908 0.1779,-0.506424 0.17791,-0.506424 -0.30955,0.19131 -0.30955,0.19131 v 0.38126 0.38126 h -0.25628 -0.25628 z"
         id="path603" /><path
         style="fill:#7a7a7a;fill-opacity:1"
         d="m 153.52236,18.952139 0.16896,-0.440278 -0.2434,0.149686 -0.24341,0.149685 -0.0293,-0.789871 -0.0293,-0.789872 0.18494,0.299238 0.18494,0.299239 0.33977,-0.409399 0.33977,-0.409399 -0.23083,-0.03133 -0.23084,-0.03133 -0.26458,0.05338 -0.26459,0.05338 0.19433,-0.194325 0.19432,-0.194325 -0.44726,-0.327049 -0.44727,-0.327049 -0.0369,-0.691299 -0.0369,-0.6913 h 0.37163 0.37163 l -0.19131,0.309546 -0.19131,0.309547 0.45402,-0.174224 0.45402,-0.174224 -0.16165,0.261552 -0.16165,0.261553 h 0.39687 0.39688 l 0.16165,0.261553 0.16165,0.261552 -0.45402,-0.174224 -0.45402,-0.174224 0.21657,0.350427 0.21658,0.350427 -0.30547,-0.188787 -0.30546,-0.188787 v 0.251891 0.25189 l 0.37978,0.145736 0.37978,0.145736 0.11766,-0.315866 0.11767,-0.315866 0.49474,0.514676 0.49474,0.514676 -0.45989,-0.346037 -0.45989,-0.346037 -0.18676,0.49282 -0.18676,0.492819 -0.34554,0.349628 -0.34553,0.349628 v 0.286692 0.286691 l 0.48449,-0.438459 0.48449,-0.438459 0.19902,0.199014 0.19901,0.199015 0.24254,0.03307 0.24253,0.03307 0.1416,0.03307 0.1416,0.03307 -0.2832,0.529166 -0.2832,0.529167 h -0.30819 -0.30819 l 0.3112,-0.311205 0.31121,-0.311204 -0.29339,-0.353517 -0.2934,-0.353516 -0.36177,0.300243 -0.36177,0.300243 v 0.364478 0.364478 h -0.25628 -0.25628 z m -0.30388,-2.976706 -0.14955,-0.241985 0.319,-0.106334 0.319,-0.106333 -0.42355,-0.162529 -0.42354,-0.162528 0.0859,0.444701 0.086,0.444701 0.0202,0.06615 0.0202,0.06615 h 0.14791 0.14791 z m 1.56064,1.544031 -0.12192,-0.19726 0.39048,0.05731 0.39048,0.05731 0.13995,0.13995 0.13995,0.13995 h -0.40852 -0.40851 z"
         id="path602" /><path
         style="fill:#686868;fill-opacity:1"
         d="m 153.52236,18.952139 0.16896,-0.440278 -0.2434,0.149686 -0.24341,0.149685 -0.027,-0.833886 -0.027,-0.833886 0.1189,0.341772 0.11891,0.341772 0.37114,-0.308023 0.37115,-0.308023 V 16.950464 16.68997 l -0.45496,0.174583 -0.45496,0.174583 0.17913,-0.179122 0.17912,-0.179121 -0.58406,-0.500127 -0.58407,-0.500127 0.26459,0.05623 0.26458,0.05623 0.62195,-0.210996 0.62194,-0.210995 0.3041,0.306542 0.30409,0.306542 -0.50642,-0.19293 -0.50642,-0.192931 0.21657,0.350427 0.21658,0.350427 -0.30547,-0.188787 -0.30546,-0.188787 v 0.251891 0.25189 l 0.37978,0.145736 0.37978,0.145736 0.11766,-0.315866 0.11767,-0.315866 0.49474,0.514676 0.49474,0.514676 -0.43552,-0.325814 -0.43552,-0.325814 -0.55667,0.900701 -0.55666,0.900702 v 0.208214 0.208215 l 0.48449,-0.438459 0.48449,-0.438459 0.19902,0.199014 0.19901,0.199015 0.24254,0.03307 0.24253,0.03307 0.1416,0.03307 0.1416,0.03307 -0.2832,0.529166 -0.2832,0.529167 -0.32142,-0.0041 -0.32142,-0.0041 0.37986,-0.240366 0.37986,-0.240367 -0.34882,-0.420303 -0.34882,-0.420303 -0.36177,0.300243 -0.36177,0.300243 v 0.364478 0.364478 h -0.25628 -0.25628 z m 1.25676,-1.432675 -0.12192,-0.19726 0.39048,0.05731 0.39048,0.05731 0.13995,0.13995 0.13995,0.13995 h -0.40852 -0.40851 z"
         id="path601" /><path
         style="fill:#575757;fill-opacity:1"
         d="m 153.62228,19.046074 -0.0209,-0.478636 -0.30546,0.188787 -0.30547,0.188787 0.20304,-0.328517 0.20303,-0.328518 0.26449,0.264486 0.26448,0.264486 -0.14117,0.35388 -0.14116,0.353881 z m 1.16707,-0.716305 -0.16619,-0.268899 -0.28718,0.177488 -0.28718,0.177487 0.19672,-0.318311 0.19673,-0.318311 0.37332,0.309827 0.37332,0.309828 v 0.0999 0.0999 h -0.11668 -0.11667 z m -1.18796,-0.509236 v -0.248968 l 0.26155,-0.161649 0.26155,-0.161648 -0.15756,0.410617 -0.15757,0.410616 h -0.10399 -0.10398 z m 1.17773,-0.301069 -0.12192,-0.19726 0.39048,0.05731 0.39048,0.05731 0.13995,0.13995 0.13995,0.13995 h -0.40852 -0.40851 z m -1.27099,-0.836038 0.14679,-0.2375 0.33787,0.129654 0.33787,0.129653 0.25512,-0.255121 0.25512,-0.255121 0.37243,0.474234 0.37243,0.474235 -0.42121,-0.328434 -0.42122,-0.328434 -0.17949,0.179484 -0.17948,0.179483 -0.51151,0.03768 -0.5115,0.03768 z m -0.72552,-0.664445 -0.3544,-0.463021 0.2245,0.189128 0.22451,0.189129 0.56052,-0.269871 0.56052,-0.26987 -0.4589,0.371486 -0.45891,0.371487 0.17227,0.172276 0.17228,0.172276 h -0.14399 -0.14399 z"
         id="path600" /><path
         style="fill:#454545;fill-opacity:1"
         d="m 153.62228,19.046074 -0.0209,-0.478636 -0.30546,0.188787 -0.30547,0.188787 0.20304,-0.328517 0.20303,-0.328518 0.26449,0.264486 0.26448,0.264486 -0.14117,0.35388 -0.14116,0.353881 z m 1.16707,-0.716305 -0.16619,-0.268899 -0.28718,0.177488 -0.28718,0.177487 0.19672,-0.318311 0.19673,-0.318311 0.37332,0.309827 0.37332,0.309828 v 0.0999 0.0999 h -0.11668 -0.11667 z m -1.18796,-0.509236 v -0.248968 l 0.26155,-0.161649 0.26155,-0.161648 -0.15756,0.410617 -0.15757,0.410616 h -0.10399 -0.10398 z m 1.17773,-0.301069 -0.12192,-0.19726 0.39048,0.05731 0.39048,0.05731 0.13995,0.13995 0.13995,0.13995 h -0.40852 -0.40851 z m -1.27099,-0.836038 0.14679,-0.2375 0.33787,0.129654 0.33787,0.129653 0.25512,-0.255121 0.25512,-0.255121 0.37243,0.474234 0.37243,0.474235 -0.42121,-0.328434 -0.42122,-0.328434 -0.17949,0.179484 -0.17948,0.179483 -0.51151,0.03768 -0.5115,0.03768 z m -0.72552,-0.664445 -0.3544,-0.463021 0.2245,0.189128 0.22451,0.189129 0.56052,-0.269871 0.56052,-0.26987 -0.4589,0.371486 -0.45891,0.371487 0.17227,0.172276 0.17228,0.172276 h -0.14399 -0.14399 z"
         id="path599" /><path
         style="fill:#333333;fill-opacity:1"
         d="m 153.60139,17.820533 v -0.248968 l 0.26155,-0.161649 0.26155,-0.161648 -0.15756,0.410617 -0.15757,0.410616 h -0.10399 -0.10398 z m 1.17773,-0.301069 -0.12192,-0.19726 0.39048,0.05731 0.39048,0.05731 0.13995,0.13995 0.13995,0.13995 h -0.40852 -0.40851 z m -1.99651,-1.500483 -0.3544,-0.463021 0.2245,0.189128 0.22451,0.189129 0.56052,-0.269871 0.56052,-0.26987 -0.4589,0.371486 -0.45891,0.371487 0.17227,0.172276 0.17228,0.172276 h -0.14399 -0.14399 z"
         id="path598" /></g></g></svg>
