<svg version="1.1" id="Layer_1" xmlns="http://www.w3.org/2000/svg" xmlns:xlink="http://www.w3.org/1999/xlink" x="0px" y="0px" viewBox="0 0 100 100" xml:space="preserve"><desc>Copyright Opto 22</desc> 
<g>
    <g id="frame">

		<rect fill="none" width="100" height="100"></rect>

</g>
<g id="shape">
	<path fill="#006837" d="M31.67,66.908h-9v-2h1.083v-4.663H13.595v4.663h0.96v2h-9v-2h1.206v-4.663H5.085l-0.146-0.146
		c-5.455-5.455-5.455-14.331,0-19.786l0.146-0.146h1.676v-5.074H5.555v-2h9v2h-0.96v5.074h60.096v-5.074h-1.083v-2h9v2h-1.083v5.074
		h14.39l0.146,0.146c5.455,5.455,5.455,14.331,0,19.786l-0.146,0.146H30.587v4.663h1.083V66.908z"></path>
</g>
<g id="dark">
	<rect x="16.037" y="43.009" fill="#96D48D" width="70.177" height="0.898"></rect>
	<rect x="16.037" y="45.635" fill="#96D48D" width="70.177" height="0.898"></rect>
	<rect x="16.037" y="48.26" fill="#96D48D" width="70.177" height="0.898"></rect>
	<rect x="16.037" y="51.229" fill="#96D48D" width="70.177" height="0.898"></rect>
	<rect x="16.037" y="53.854" fill="#96D48D" width="70.177" height="0.898"></rect>
	<rect x="16.037" y="56.479" fill="#96D48D" width="70.177" height="0.898"></rect>
</g>
<g id="light">

		<rect x="56.914" y="55.021" fill="#29ABE2" width="25.026" height="1.189"></rect>
		<rect x="44.401" y="44.176" fill="#29ABE2" width="23.276" height="1.19"></rect>
		<polygon fill="#29ABE2" points="69.427,49.427 69.427,50.209 67.676,50.209 67.676,49.427 44.401,49.427 44.401,50.432 
			42.65,50.432 42.65,49.427 20.125,49.427 20.125,50.96 30.137,50.96 30.137,49.95 31.888,49.95 31.888,50.96 55.163,50.96 
			55.163,49.95 56.914,49.95 56.914,50.96 81.939,50.96 81.939,49.427 		"></polygon>
		<rect x="56.914" y="52.396" fill="#29ABE2" width="25.026" height="1.189"></rect>
		<rect x="31.888" y="55.021" fill="#29ABE2" width="23.276" height="1.189"></rect>
		<rect x="20.125" y="52.396" fill="#29ABE2" width="10.013" height="1.189"></rect>
		<polygon fill="#29ABE2" points="81.939,42.74 81.939,41.166 79.525,41.166 79.525,33.092 74.691,33.092 74.691,41.166 
			69.427,41.166 69.427,42.74 		"></polygon>
		<rect x="31.888" y="52.396" fill="#29ABE2" width="23.276" height="1.189"></rect>
		<rect x="20.125" y="55.021" fill="#29ABE2" width="10.013" height="1.189"></rect>
		<rect x="69.427" y="44.176" fill="#29ABE2" width="12.513" height="1.19"></rect>
		<rect x="31.888" y="57.646" fill="#29ABE2" width="23.276" height="1.6"></rect>
		<rect x="20.125" y="41.166" fill="#29ABE2" width="22.526" height="1.574"></rect>
		<polygon fill="#29ABE2" points="20.125,57.646 20.125,59.245 24.753,59.245 24.753,66.908 29.587,66.908 29.587,59.245 
			30.137,59.245 30.137,57.646 		"></polygon>
		<rect x="56.914" y="57.646" fill="#29ABE2" width="25.026" height="1.6"></rect>
		<rect x="20.125" y="46.802" fill="#29ABE2" width="22.526" height="1.189"></rect>
		<rect x="20.125" y="44.176" fill="#29ABE2" width="22.526" height="1.19"></rect>
		<rect x="44.401" y="46.802" fill="#29ABE2" width="23.276" height="1.189"></rect>
		<rect x="69.427" y="46.802" fill="#29ABE2" width="12.513" height="1.189"></rect>
		<rect x="44.401" y="41.166" fill="#29ABE2" width="23.276" height="1.574"></rect>

</g>
<g id="hlight">
	<path fill="#FFFFFF" d="M16.037,49.427v-1.436h1.588v-1.189h-1.588v-1.436h1.588v-1.19h-1.588V42.74h1.588v-1.574h-5.03v-8.074
		H7.761v8.074H5.501c-2.311,2.384-3.512,5.442-3.631,8.535h15.754v-0.274H16.037z"></path>
	<path fill="#FFFFFF" d="M16.037,57.646V56.21h1.588v-1.189h-1.588v-1.436h1.588v-1.189h-1.588V50.96h1.588v-0.243H1.871
		c0.121,3.09,1.322,6.146,3.631,8.528h2.259v7.663h4.834v-7.663h5.03v-1.6H16.037z"></path>
	<path fill="#FFFFFF" d="M94.499,41.166H84.44v1.574h1.774v1.436H84.44v1.19h1.774v1.436H84.44v1.189h1.774v1.436H84.44v1.533h1.774
		v1.436H84.44v1.189h1.774v1.436H84.44v1.189h1.774v1.436H84.44v1.6h10.059C99.372,54.218,99.372,46.193,94.499,41.166z"></path>
	<rect x="16.037" y="43.144" fill="#FFFFFF" width="70.177" height="0.629"></rect>
	<rect x="16.037" y="45.77" fill="#FFFFFF" width="70.177" height="0.629"></rect>
	<rect x="16.037" y="48.395" fill="#FFFFFF" width="70.177" height="0.629"></rect>
	<rect x="16.037" y="51.363" fill="#FFFFFF" width="70.177" height="0.629"></rect>
	<rect x="16.037" y="53.988" fill="#FFFFFF" width="70.177" height="0.629"></rect>
	<rect x="16.037" y="56.613" fill="#FFFFFF" width="70.177" height="0.629"></rect>
</g>
</g>

  <script type="text/javascript">
    <![CDATA[
    /*
    #####################################
    #           How to Use              #
    #####################################

    Variables with the following prefix:

    _pb_ = bool   parameter ( true or false )
    _pn_ = number parameter ( Int, Float, Real etc )
    _ps_ = string parameter ( string can be entered directly )
    _pc_ = color parameter in hex color code ( #00ff00ff )

    Indicate variable type to be used in Fuxa Properties and binding of Tags, Important! they have to be place within:

    //!export-start
    let _pn_setState = 0;
    //!export-end

  

    There are 2x Functions to handle sending and receiving data between Fuxa and the SVG

    // Recieve Variables From Fuxa
    function putValue(id, value) { } 
    
    // Send Variables To Fuxa
    function postValue(id, value) {
      console.error('Not defined!');
    }

    The ID is the name of the variable _pn_setState for example and value is the value to be sent or received from Fuxa


    This SVG uses an INT/Number Variable to change the State and State of the SVG:

    0 = Off
    1 = Run
    2 = Warning
    3 = Fault
    4 = Invalid
    5 = Spare

    You can also use the bool field and this will change the state between 0 = off and 1 = run 

    You can also set the color for each state in Fuxa using HEX color code #b4b4b4
    The Default Blink Interval is 500ms but can also be changed in Fuxa in MS resolution


    This SVG is a bit complex as we have different shades of color, we calculate the offset colors
    The Shade Values are from -100 to 100, where 0 is not changed and -100 is black and 100 is white

    These style of SVGs can be found here:

    https://www.opto22.com/support/resources-tools/demos/svg-image-library

    By Adding this script to there downloaded SVG it should work without any modification ( may have to check group element names )
    Make sure the script is within the SVG tags

    <svg>
      SVG Content Here
      <script>
        JS Script Content Here
      </script>
    </svg>

    */

	  // Global Parameters and Variables
    //!export-start
    let _pn_setState         = 0;
    let _pb_boolState        = false;
	  let _pn_setInterval      = 500;
    let _pc_state0Colour     = '#b4b4b4';
    let _pc_state1Colour     = '#00ff00';
    let _pc_state2Colour     = '#ff9500';
    let _pc_state3Colour     = '#ff0000';
    let _pc_state4Colour     = '#3c3c3c';
    let _pc_state5Colour     = '#dcdcdc';
    let _pn_lightShade       = 50;
    let _pn_highLightShade   = 90;
    let _pn_darkShade        = 15;
    let _pn_shadowShade      = -15;
    //!export-end
	  let stateNumber = 0;
    let blinkInterval;

    // Function to update the color based on the set state
    function logic() {

      switch (stateNumber) {
        case 0: // off
          setBaseColor( _pc_state0Colour);
		      clearBlinking();
          break; 
        case 1: // run
          setBaseColor( _pc_state1Colour);
		      clearBlinking();
          break;
        case 2: // warning
          setBaseColor( _pc_state2Colour);
		      clearBlinking();
          break;
        case 3: // fault
		      startBlinking( _pc_state0Colour, _pc_state3Colour, _pn_setInterval );
          break;
        case 4: // invalid 
          setBaseColor( _pc_state4Colour);
		      clearBlinking();
          break;
        case 5: // spare
          setBaseColor( _pc_state5Colour);
		      clearBlinking();
          break;
        default:
          console.log('Undefined State');
		      clearBlinking();
      }
    }

    // Initial setup
    function init() {
      logic(); // Initial state rendering
    }

    // Function to update values from Fuxa
    function putValue(id, value) {
      if (id === '_pn_setState') {
        stateNumber = value;
        logic(); 
      }
      if (id === '_pb_boolState') {
        _pb_boolState = value;
        if (_pb_boolState === true) {
          stateNumber = 1;
        } else if (_pb_boolState === false) {
          stateNumber = 0;
        }
        logic(); 
      }
	    if (id === '_pn_setInterval'   ) _pn_setInterval    = value;
      if (id === '_pc_state0Colour'  ) _pc_state0Colour   = value;
      if (id === '_pc_state1Colour'  ) _pc_state1Colour   = value;
      if (id === '_pc_state2Colour'  ) _pc_state2Colour   = value;
      if (id === '_pc_state3Colour'  ) _pc_state3Colour   = value;
      if (id === '_pc_state4Colour'  ) _pc_state4Colour   = value;
      if (id === '_pc_state5Colour'  ) _pc_state5Colour   = value;
      if (id === '_pn_lightShade'    ) _pn_lightShade     = value;
      if (id === '_pn_highLightShade') _pn_highLightShade = value;
      if (id === '_pn_darkShade'     ) _pn_darkShade      = value;
      if (id === '_pn_shadowShade'   ) _pn_shadowShade    = value;
    }

    // Function to send values back to Fuxa (placeholder)
    function postValue(id, value) {
      console.error('Not defined!');
    }

    // Initialize the SVG
    init();

	// Function to update the color for the base shape group
    function setBaseColor(baseColor) {
      // Define color manipulations based on base color
      const darkColor   = percentColor(baseColor, _pn_darkShade);
      const shadowColor = percentColor(baseColor, _pn_shadowShade);
      const lightColor  = percentColor(baseColor, _pn_lightShade);
      const hlightColor = percentColor(baseColor, _pn_highLightShade);

	  document.getElementById('shape').querySelectorAll('*').forEach(function(elem) {
      elem.setAttribute('fill', baseColor);
      });
      document.getElementById('dark').querySelectorAll('*').forEach(function(elem) {
      elem.setAttribute('fill', darkColor);
      });
      //document.getElementById('shadow').querySelectorAll('*').forEach(function(elem) {
      //elem.setAttribute('fill', shadowColor);
      //});
      document.getElementById('light').querySelectorAll('*').forEach(function(elem) {
      elem.setAttribute('fill', lightColor);
      });
	  document.getElementById('hlight').querySelectorAll('*').forEach(function(elem) {
      elem.setAttribute('fill', hlightColor);
      });
	}

    // Function to manipulate color brightness/darkness (-100% = Black) (0 = unchanged) (100% = White)
    function percentColor(color, percent) {
      let R = parseInt(color.substring(1, 3), 16);
      let G = parseInt(color.substring(3, 5), 16);
      let B = parseInt(color.substring(5, 7), 16);

      // Calculate the adjustment factor based on the percentage
      if (percent > 0) {
          // Lightening - move each channel closer to 255 (white)
          R = Math.round(R + (255 - R) * (percent / 100));
          G = Math.round(G + (255 - G) * (percent / 100));
          B = Math.round(B + (255 - B) * (percent / 100));
      } else {
          // Darkening - move each channel closer to 0 (black)
          R = Math.round(R * (1 + (percent / 100)));
          G = Math.round(G * (1 + (percent / 100)));
          B = Math.round(B * (1 + (percent / 100)));
      }

      // Clamp values to the [0, 255] range
      R = Math.max(0, Math.min(255, R));
      G = Math.max(0, Math.min(255, G));
      B = Math.max(0, Math.min(255, B));

      // Convert back to hexadecimal
      const RR = (R.toString(16).length === 1) ? "0" + R.toString(16) : R.toString(16);
      const GG = (G.toString(16).length === 1) ? "0" + G.toString(16) : G.toString(16);
      const BB = (B.toString(16).length === 1) ? "0" + B.toString(16) : B.toString(16);

      return "#" + RR + GG + BB;
    }

	// Function to start blinking between two colors
    function startBlinking(color1, color2, interval) {
      clearBlinking(); // Clear any existing blinking interval
    
      let isColor1 = true; 
      blinkInterval = setInterval(function() {
        const checkDestroy = document.getElementById('Layer_1'); // Important must be name of the SVG!
        if (!checkDestroy) {
          clearBlinking(); 
          return;
        }
        if (isColor1) {
          setBaseColor(color1); 
        } else {
          setBaseColor(color2); 
        }
        isColor1 = !isColor1; 
      }, interval);

      // Set up the MutationObserver to watch for removal of the SVG element
      const observer = new MutationObserver((mutations) => {
        mutations.forEach((mutation) => {
          mutation.removedNodes.forEach((node) => {
            if (node.id === 'Layer_1') { // Important must be name of the SVG!
              clearBlinking(); 
              observer.disconnect(); 
            }
          });
        });
      });

      // Start observing the body or a parent element of the SVG
      observer.observe(document.body, { childList: true, subtree: true }); 
    }

    // Function to clear the blinking interval
    function clearBlinking() {
      if (blinkInterval) {
        clearInterval(blinkInterval);
        blinkInterval = null;
      }
    }

    ]]>
  </script>

</svg>