<svg version="1.1" id="Layer_1" xmlns="http://www.w3.org/2000/svg" xmlns:xlink="http://www.w3.org/1999/xlink" x="0px" y="0px" viewBox="0 0 100 100" xml:space="preserve"><desc>Copyright Opto 22</desc> 
<g>
	<g id="shape">
		<path fill="#999999" d="M95.795,32.509c-2.312,0-4.205,0-4.205,0v1.449h-2.475v-6.52h-9.894v6.52h-23.08v-6.52h-9.894
			v6.52h-2.921v-1.449c0,0-1.892,0-4.205,0c-2.312,0-4.205,2.553-4.205,5.675v4.226c-0.692,0-1.611,0-2.624,0
			c-1.227,0-1.842,0.849-2.145,2.162c-0.405-1.314-1.141-2.162-2.367-2.162c-0.537,0-1.048,0-1.514,0V27.648
			c0-4.682-3.215-8.513-7.144-8.513c-3.929,0-7.144,3.831-7.144,8.513v17.416H5.684v-3.863H0.737v18.353h4.947v-3.863h6.295v17.416
			c0,4.682,3.215,8.513,7.144,8.513c3.929,0,7.144-3.831,7.144-8.513V58.346c0.466,0,0.978,0,1.514,0
			c1.227,0,1.962-0.848,2.367-2.161c0.303,1.314,0.918,2.164,2.145,2.164c1.013,0,1.932,0,2.624,0v4.223
			c0,3.122,1.892,5.675,4.205,5.675c2.312,0,4.205,0,4.205,0V66.8h2.921v6.761h9.894V66.8h23.08v6.761h9.894V66.8h2.475v1.446
			c0,0,1.892,0,4.205,0c2.312,0,4.205-2.553,4.205-5.675V38.184C100,35.062,98.108,32.509,95.795,32.509z"></path>
	</g>
	<g id="gradient"></g>
	<g id="dark">
		<path fill="#808080" d="M26.267,69.56c0,2.34-3.215,4.256-7.144,4.256c-3.929,0-7.144-1.916-7.144-4.256v3.547
			c0,4.682,3.215,8.513,7.144,8.513c3.929,0,7.144-3.831,7.144-8.513V69.56z"></path>
		<rect x="0.737" y="54.68" fill="#808080" width="4.947" height="4.874"></rect>
		<path fill="#808080" d="M95.795,65.409c-1.155,0-2.205,0-2.967,0v-3.076H40.883v3.076c-0.538,0-1.131,0-1.761,0
			c-2.312,0-4.205-1.915-4.205-4.256v1.419c0,3.122,1.892,5.675,4.205,5.675c2.312,0,4.205,0,4.205,0V66.8H91.59v1.446
			c0,0,1.892,0,4.205,0c2.312,0,4.205-2.553,4.205-5.675v-1.419C100,63.494,98.108,65.409,95.795,65.409z"></path>
	</g>
	<g id="light">
		<path fill="#B5B5B5" d="M26.267,34.742c0-2.34-3.215-4.256-7.144-4.256c-3.929,0-7.144,1.916-7.144,4.256v-7.094
			c0-4.682,3.215-8.513,7.144-8.513c3.929,0,7.144,3.831,7.144,8.513V34.742z"></path>
		<polygon fill="#B5B5B5" points="5.684,45.037 5.684,41.201 0.737,41.201 0.737,48.913 4.694,48.913 4.694,49.556 11.156,49.556 
			11.156,45.037 		"></polygon>
		<path fill="#B5B5B5" d="M95.795,32.509c-2.312,0-4.205,0-4.205,0v1.449H43.327v-1.449c0,0-1.892,0-4.205,0
			c-2.312,0-4.205,2.553-4.205,5.675v6.739c0-1.951,1.892-3.547,4.205-3.547c0.63,0,1.223,0,1.761,0v2.014h51.945v-2.014
			c0.762,0,1.812,0,2.967,0c2.312,0,4.205,1.596,4.205,3.547v-6.739C100,35.062,98.108,32.509,95.795,32.509z"></path>
	</g>
	<g id="shadow">
		<rect x="79.222" y="66.8" fill="#666666" width="9.894" height="6.761"></rect>
		<rect x="46.248" y="66.8" fill="#666666" width="9.894" height="6.761"></rect>
	</g>
	<g id="hlight">
		<rect x="0.737" y="42.257" fill="#CCCCCC" width="4.947" height="4.536"></rect>
		<path fill="#CCCCCC" d="M17.124,26.191c0,2.501,1.717,4.546,3.815,4.546c2.098,0,3.815-2.045,3.815-4.546v-1.52
			c0-2.501-1.717-4.546-3.815-4.546c-2.098,0-3.815,2.045-3.815,4.546V26.191z"></path>
		<path fill="#CCCCCC" d="M95.795,33.574c-2.312,0-4.205,0-4.205,0v2.742H43.327v-2.742c0,0-1.892,0-4.205,0
			c-2.312,0-4.205,2.074-4.205,4.61v4.434c0-2.535,1.892-4.61,4.205-4.61c0.63,0,1.223,0,1.761,0v3.025h51.945v-3.025
			c0.762,0,1.812,0,2.967,0c2.312,0,4.205,2.074,4.205,4.61v-4.434C100,35.648,98.108,33.574,95.795,33.574z"></path>
	</g>
</g>

  <script type="text/javascript">
    <![CDATA[
    /*
    #####################################
    #           How to Use              #
    #####################################

    Variables with the following prefix:

    _pb_ = bool   parameter ( true or false )
    _pn_ = number parameter ( Int, Float, Real etc )
    _ps_ = string parameter ( string can be entered directly )
    _pc_ = color parameter in hex color code ( #00ff00ff )

    Indicate variable type to be used in Fuxa Properties and binding of Tags, Important! they have to be place within:

    //!export-start
    let _pn_setState = 0;
    //!export-end

  

    There are 2x Functions to handle sending and receiving data between Fuxa and the SVG

    // Recieve Variables From Fuxa
    function putValue(id, value) { } 
    
    // Send Variables To Fuxa
    function postValue(id, value) {
      console.error('Not defined!');
    }

    The ID is the name of the variable _pn_setState for example and value is the value to be sent or received from Fuxa


    This SVG uses an INT/Number Variable to change the State and State of the SVG:

    0 = Off
    1 = Run
    2 = Warning
    3 = Fault
    4 = Invalid
    5 = Spare

    You can also use the bool field and this will change the state between 0 = off and 1 = run 

    You can also set the color for each state in Fuxa using HEX color code #b4b4b4
    The Default Blink Interval is 500ms but can also be changed in Fuxa in MS resolution


    This SVG is a bit complex as we have different shades of color, we calculate the offset colors
    The Shade Values are from -100 to 100, where 0 is not changed and -100 is black and 100 is white

    These style of SVGs can be found here:

    https://www.opto22.com/support/resources-tools/demos/svg-image-library

    By Adding this script to there downloaded SVG it should work without any modification ( may have to check group element names )
    Make sure the script is within the SVG tags

    <svg>
      SVG Content Here
      <script>
        JS Script Content Here
      </script>
    </svg>

    */

	  // Global Parameters and Variables
    //!export-start
    let _pn_setState         = 0;
    let _pb_boolState        = false;
	  let _pn_setInterval      = 500;
    let _pc_state0Colour     = '#b4b4b4';
    let _pc_state1Colour     = '#00ff00';
    let _pc_state2Colour     = '#ff9500';
    let _pc_state3Colour     = '#ff0000';
    let _pc_state4Colour     = '#3c3c3c';
    let _pc_state5Colour     = '#dcdcdc';
    let _pn_lightShade       = 50;
    let _pn_highLightShade   = 90;
    let _pn_darkShade        = 15;
    let _pn_shadowShade      = -15;
    //!export-end
	  let stateNumber = 0;
    let blinkInterval;

    // Function to update the color based on the set state
    function logic() {

      switch (stateNumber) {
        case 0: // off
          setBaseColor( _pc_state0Colour);
		      clearBlinking();
          break; 
        case 1: // run
          setBaseColor( _pc_state1Colour);
		      clearBlinking();
          break;
        case 2: // warning
          setBaseColor( _pc_state2Colour);
		      clearBlinking();
          break;
        case 3: // fault
		      startBlinking( _pc_state0Colour, _pc_state3Colour, _pn_setInterval );
          break;
        case 4: // invalid 
          setBaseColor( _pc_state4Colour);
		      clearBlinking();
          break;
        case 5: // spare
          setBaseColor( _pc_state5Colour);
		      clearBlinking();
          break;
        default:
          console.log('Undefined State');
		      clearBlinking();
      }
    }

    // Initial setup
    function init() {
      logic(); // Initial state rendering
    }

    // Function to update values from Fuxa
    function putValue(id, value) {
      if (id === '_pn_setState') {
        stateNumber = value;
        logic(); 
      }
      if (id === '_pb_boolState') {
        _pb_boolState = value;
        if (_pb_boolState === true) {
          stateNumber = 1;
        } else if (_pb_boolState === false) {
          stateNumber = 0;
        }
        logic(); 
      }
	    if (id === '_pn_setInterval'   ) _pn_setInterval    = value;
      if (id === '_pc_state0Colour'  ) _pc_state0Colour   = value;
      if (id === '_pc_state1Colour'  ) _pc_state1Colour   = value;
      if (id === '_pc_state2Colour'  ) _pc_state2Colour   = value;
      if (id === '_pc_state3Colour'  ) _pc_state3Colour   = value;
      if (id === '_pc_state4Colour'  ) _pc_state4Colour   = value;
      if (id === '_pc_state5Colour'  ) _pc_state5Colour   = value;
      if (id === '_pn_lightShade'    ) _pn_lightShade     = value;
      if (id === '_pn_highLightShade') _pn_highLightShade = value;
      if (id === '_pn_darkShade'     ) _pn_darkShade      = value;
      if (id === '_pn_shadowShade'   ) _pn_shadowShade    = value;
    }

    // Function to send values back to Fuxa (placeholder)
    function postValue(id, value) {
      console.error('Not defined!');
    }

    // Initialize the SVG
    init();

	// Function to update the color for the base shape group
    function setBaseColor(baseColor) {
      // Define color manipulations based on base color
      const darkColor   = percentColor(baseColor, _pn_darkShade);
      const shadowColor = percentColor(baseColor, _pn_shadowShade);
      const lightColor  = percentColor(baseColor, _pn_lightShade);
      const hlightColor = percentColor(baseColor, _pn_highLightShade);

	  document.getElementById('shape').querySelectorAll('*').forEach(function(elem) {
      elem.setAttribute('fill', baseColor);
      });
      document.getElementById('dark').querySelectorAll('*').forEach(function(elem) {
      elem.setAttribute('fill', darkColor);
      });
      document.getElementById('shadow').querySelectorAll('*').forEach(function(elem) {
      elem.setAttribute('fill', shadowColor);
      });
      document.getElementById('light').querySelectorAll('*').forEach(function(elem) {
      elem.setAttribute('fill', lightColor);
      });
	  document.getElementById('hlight').querySelectorAll('*').forEach(function(elem) {
      elem.setAttribute('fill', hlightColor);
      });
	}

    // Function to manipulate color brightness/darkness (-100% = Black) (0 = unchanged) (100% = White)
    function percentColor(color, percent) {
      let R = parseInt(color.substring(1, 3), 16);
      let G = parseInt(color.substring(3, 5), 16);
      let B = parseInt(color.substring(5, 7), 16);

      // Calculate the adjustment factor based on the percentage
      if (percent > 0) {
          // Lightening - move each channel closer to 255 (white)
          R = Math.round(R + (255 - R) * (percent / 100));
          G = Math.round(G + (255 - G) * (percent / 100));
          B = Math.round(B + (255 - B) * (percent / 100));
      } else {
          // Darkening - move each channel closer to 0 (black)
          R = Math.round(R * (1 + (percent / 100)));
          G = Math.round(G * (1 + (percent / 100)));
          B = Math.round(B * (1 + (percent / 100)));
      }

      // Clamp values to the [0, 255] range
      R = Math.max(0, Math.min(255, R));
      G = Math.max(0, Math.min(255, G));
      B = Math.max(0, Math.min(255, B));

      // Convert back to hexadecimal
      const RR = (R.toString(16).length === 1) ? "0" + R.toString(16) : R.toString(16);
      const GG = (G.toString(16).length === 1) ? "0" + G.toString(16) : G.toString(16);
      const BB = (B.toString(16).length === 1) ? "0" + B.toString(16) : B.toString(16);

      return "#" + RR + GG + BB;
    }

	// Function to start blinking between two colors
    function startBlinking(color1, color2, interval) {
      clearBlinking(); // Clear any existing blinking interval
    
      let isColor1 = true; 
      blinkInterval = setInterval(function() {
        const checkDestroy = document.getElementById('Layer_1'); // Important must be name of the SVG!
        if (!checkDestroy) {
          clearBlinking(); 
          return;
        }
        if (isColor1) {
          setBaseColor(color1); 
        } else {
          setBaseColor(color2); 
        }
        isColor1 = !isColor1; 
      }, interval);

      // Set up the MutationObserver to watch for removal of the SVG element
      const observer = new MutationObserver((mutations) => {
        mutations.forEach((mutation) => {
          mutation.removedNodes.forEach((node) => {
            if (node.id === 'Layer_1') { // Important must be name of the SVG!
              clearBlinking(); 
              observer.disconnect(); 
            }
          });
        });
      });

      // Start observing the body or a parent element of the SVG
      observer.observe(document.body, { childList: true, subtree: true }); 
    }

    // Function to clear the blinking interval
    function clearBlinking() {
      if (blinkInterval) {
        clearInterval(blinkInterval);
        blinkInterval = null;
      }
    }

    ]]>
  </script>

</svg>