<svg version="1.1" id="Layer_1" xmlns="http://www.w3.org/2000/svg" xmlns:xlink="http://www.w3.org/1999/xlink" x="0px" y="0px" viewBox="0 0 100 100" xml:space="preserve"><desc>Copyright Opto 22</desc> 
<g>
<g id="frame">
	<rect fill="none" width="100" height="100"></rect>
</g>
<g id="shape">
	<rect y="40.5" fill="#006837" width="5.667" height="19"></rect>
	<rect x="94.333" y="40.5" fill="#006837" width="5.667" height="19"></rect>
	<rect x="70" y="42" fill="#006837" width="30" height="16"></rect>
	<rect y="42" fill="#006837" width="30" height="16"></rect>
	<path fill="#006837" d="M81.5,68.75c-0.459,0-0.918-0.105-1.342-0.316L50,53.354L19.842,68.434
			c-0.93,0.463-2.034,0.415-2.919-0.132C16.039,67.755,15.5,66.79,15.5,65.75v-31.5c0-1.04,0.539-2.005,1.423-2.552
			c0.885-0.547,1.988-0.597,2.919-0.131L50,46.646l30.158-15.079c0.93-0.466,2.034-0.417,2.919,0.131
			c0.885,0.546,1.423,1.512,1.423,2.552v31.5c0,1.04-0.538,2.005-1.423,2.552C82.596,68.6,82.049,68.75,81.5,68.75z"></path>
	<rect x="40.5" y="94.333" fill="#006837" width="19" height="5.667"></rect>
	<rect x="42" y="83" fill="#006837" width="16" height="17"></rect>
	<path fill="#006837" d="M65.75,84.5h-31.5c-1.04,0-2.005-0.538-2.552-1.423c-0.547-0.885-0.597-1.989-0.131-2.919l15.75-31.5
			C47.825,47.642,48.864,47,50,47c1.137,0,2.175,0.642,2.684,1.658l15.75,31.5c0.465,0.93,0.415,2.034-0.132,2.919
			S66.79,84.5,65.75,84.5z"></path>
</g>
<g id="dark">
	<rect x="84.5" y="43" fill="#009245" width="15.5" height="14"></rect>
	<rect y="43" fill="#009245" width="15.5" height="14"></rect>
	<path fill="#009245" d="M81.5,67.75c-0.306,0-0.612-0.07-0.895-0.211L50,52.236L19.395,67.539c-0.62,0.309-1.357,0.276-1.946-0.088
		c-0.59-0.364-0.949-1.008-0.949-1.701v-31.5c0-0.693,0.359-1.337,0.949-1.701c0.589-0.365,1.326-0.398,1.946-0.088L50,47.764
		l30.605-15.303c0.619-0.309,1.356-0.276,1.946,0.088c0.589,0.364,0.948,1.008,0.948,1.701v31.5c0,0.693-0.359,1.337-0.948,1.701
		C82.23,67.649,81.865,67.75,81.5,67.75z"></path>
	<path fill="#009245" d="M65.75,83.5h-31.5c-0.693,0-1.337-0.359-1.701-0.948c-0.365-0.59-0.397-1.326-0.088-1.946l15.75-31.5
		C48.55,48.428,49.243,48,50,48s1.45,0.428,1.789,1.105l15.75,31.5c0.31,0.62,0.276,1.356-0.088,1.946
		C67.087,83.141,66.443,83.5,65.75,83.5z"></path>
	<rect x="43" y="84.5" fill="#009245" width="14" height="15.5"></rect>
</g>
<g id="light">
	<rect x="84.5" y="45" fill="#96D48D" width="15.5" height="10"></rect>
	<rect y="45" fill="#96D48D" width="15.5" height="10"></rect>
	<path fill="#96D48D" d="M18.5,66.25c-0.091,0-0.183-0.025-0.263-0.074C18.09,66.084,18,65.923,18,65.75v-31.5
		c0-0.173,0.09-0.334,0.237-0.425c0.147-0.091,0.331-0.099,0.486-0.022l31.5,15.75C50.393,49.638,50.5,49.811,50.5,50
		s-0.107,0.362-0.276,0.447l-31.5,15.75C18.653,66.232,18.577,66.25,18.5,66.25z"></path>
	<path fill="#96D48D" d="M81.5,66.25c-0.076,0-0.153-0.018-0.224-0.053l-31.5-15.75C49.607,50.362,49.5,50.189,49.5,50
		s0.107-0.362,0.276-0.447l31.5-15.75c0.154-0.078,0.34-0.069,0.486,0.022C81.91,33.916,82,34.077,82,34.25v31.5
		c0,0.173-0.09,0.334-0.237,0.426C81.683,66.225,81.592,66.25,81.5,66.25z"></path>
	<rect x="45" y="84.5" fill="#96D48D" width="10" height="15.5"></rect>
	<path fill="#96D48D" d="M65.75,82h-31.5c-0.173,0-0.334-0.09-0.425-0.237s-0.1-0.331-0.022-0.486l15.75-31.5
		c0.17-0.339,0.725-0.339,0.895,0l15.75,31.5c0.077,0.155,0.069,0.339-0.021,0.486C66.084,81.91,65.923,82,65.75,82z"></path>
</g>
<g id="hlight">
	<rect y="0" fill="#FFFFFF" width="1" height="1" opacity="0"></rect>
	<g class="alt" id="a1">
		<rect y="46.5" fill="#FFFFFF" width="15.5" height="7"></rect>
		<polygon fill="#FFFFFF" points="19,35.059 19,64.941 48.882,50 		"></polygon>
	</g>

	<g class="alt" id="a2">
		<polygon fill="#FFFFFF" points="35.059,81 64.941,81 50,51.118 		"></polygon>
		<rect x="46.5" y="84.5" fill="#FFFFFF" width="7" height="15.5"></rect>
	</g>
	<g class="alt" id="a3">
		<rect x="84.5" y="46.5" fill="#F1F2F2" width="15.5" height="7"></rect>
		<polygon fill="#FFFFFF" points="51.118,50 81,64.941 81,35.059 		"></polygon>
	</g>
</g>
</g>

  <script type="text/javascript">
    <![CDATA[
    /*
    #####################################
    #           How to Use              #
    #####################################

    Variables with the following prefix:

    _pb_ = bool   parameter ( true or false )
    _pn_ = number parameter ( Int, Float, Real etc )
    _ps_ = string parameter ( string can be entered directly )
    _pc_ = color parameter in hex color code ( #00ff00ff )

    Indicate variable type to be used in Fuxa Properties and binding of Tags, Important! they have to be place within:

    //!export-start
    let _pn_setState = 0;
    //!export-end

  

    There are 2x Functions to handle sending and receiving data between Fuxa and the SVG

    // Recieve Variables From Fuxa
    function putValue(id, value) { } 
    
    // Send Variables To Fuxa
    function postValue(id, value) {
      console.error('Not defined!');
    }

    The ID is the name of the variable _pn_setState for example and value is the value to be sent or received from Fuxa


    This SVG uses an INT/Number Variable to change the State and State of the SVG:

    0 = Off
    1 = Run
    2 = Warning
    3 = Fault
    4 = Invalid
    5 = Spare

    You can also use the bool field and this will change the state between 0 = off and 1 = run 

    You can also set the color for each state in Fuxa using HEX color code #b4b4b4
    The Default Blink Interval is 500ms but can also be changed in Fuxa in MS resolution


    This SVG is a bit complex as we have different shades of color, we calculate the offset colors
    The Shade Values are from -100 to 100, where 0 is not changed and -100 is black and 100 is white

    These style of SVGs can be found here:

    https://www.opto22.com/support/resources-tools/demos/svg-image-library

    By Adding this script to there downloaded SVG it should work without any modification ( may have to check group element names )
    Make sure the script is within the SVG tags

    <svg>
      SVG Content Here
      <script>
        JS Script Content Here
      </script>
    </svg>

    */

	  // Global Parameters and Variables
    //!export-start
    let _pn_setState         = 0;
    let _pb_boolState        = false;
	  let _pn_setInterval      = 500;
    let _pc_state0Colour     = '#b4b4b4';
    let _pc_state1Colour     = '#00ff00';
    let _pc_state2Colour     = '#ff9500';
    let _pc_state3Colour     = '#ff0000';
    let _pc_state4Colour     = '#3c3c3c';
    let _pc_state5Colour     = '#dcdcdc';
    let _pn_lightShade       = 50;
    let _pn_highLightShade   = 90;
    let _pn_darkShade        = 15;
    let _pn_shadowShade      = -15;
    //!export-end
	  let stateNumber = 0;
    let blinkInterval;

    // Function to update the color based on the set state
    function logic() {

      switch (stateNumber) {
        case 0: // off
          setBaseColor( _pc_state0Colour);
		      clearBlinking();
          break; 
        case 1: // run
          setBaseColor( _pc_state1Colour);
		      clearBlinking();
          break;
        case 2: // warning
          setBaseColor( _pc_state2Colour);
		      clearBlinking();
          break;
        case 3: // fault
		      startBlinking( _pc_state0Colour, _pc_state3Colour, _pn_setInterval );
          break;
        case 4: // invalid 
          setBaseColor( _pc_state4Colour);
		      clearBlinking();
          break;
        case 5: // spare
          setBaseColor( _pc_state5Colour);
		      clearBlinking();
          break;
        default:
          console.log('Undefined State');
		      clearBlinking();
      }
    }

    // Initial setup
    function init() {
      logic(); // Initial state rendering
    }

    // Function to update values from Fuxa
    function putValue(id, value) {
      if (id === '_pn_setState') {
        stateNumber = value;
        logic(); 
      }
      if (id === '_pb_boolState') {
        _pb_boolState = value;
        if (_pb_boolState === true) {
          stateNumber = 1;
        } else if (_pb_boolState === false) {
          stateNumber = 0;
        }
        logic(); 
      }
	    if (id === '_pn_setInterval'   ) _pn_setInterval    = value;
      if (id === '_pc_state0Colour'  ) _pc_state0Colour   = value;
      if (id === '_pc_state1Colour'  ) _pc_state1Colour   = value;
      if (id === '_pc_state2Colour'  ) _pc_state2Colour   = value;
      if (id === '_pc_state3Colour'  ) _pc_state3Colour   = value;
      if (id === '_pc_state4Colour'  ) _pc_state4Colour   = value;
      if (id === '_pc_state5Colour'  ) _pc_state5Colour   = value;
      if (id === '_pn_lightShade'    ) _pn_lightShade     = value;
      if (id === '_pn_highLightShade') _pn_highLightShade = value;
      if (id === '_pn_darkShade'     ) _pn_darkShade      = value;
      if (id === '_pn_shadowShade'   ) _pn_shadowShade    = value;
    }

    // Function to send values back to Fuxa (placeholder)
    function postValue(id, value) {
      console.error('Not defined!');
    }

    // Initialize the SVG
    init();

	// Function to update the color for the base shape group
    function setBaseColor(baseColor) {
      // Define color manipulations based on base color
      const darkColor   = percentColor(baseColor, _pn_darkShade);
      const shadowColor = percentColor(baseColor, _pn_shadowShade);
      const lightColor  = percentColor(baseColor, _pn_lightShade);
      const hlightColor = percentColor(baseColor, _pn_highLightShade);

	  document.getElementById('shape').querySelectorAll('*').forEach(function(elem) {
      elem.setAttribute('fill', baseColor);
      });
      document.getElementById('dark').querySelectorAll('*').forEach(function(elem) {
      elem.setAttribute('fill', darkColor);
      });
      //document.getElementById('shadow').querySelectorAll('*').forEach(function(elem) {
      //elem.setAttribute('fill', shadowColor);
      //});
      document.getElementById('light').querySelectorAll('*').forEach(function(elem) {
      elem.setAttribute('fill', lightColor);
      });
	  document.getElementById('hlight').querySelectorAll('*').forEach(function(elem) {
      elem.setAttribute('fill', hlightColor);
      });
	}

    // Function to manipulate color brightness/darkness (-100% = Black) (0 = unchanged) (100% = White)
    function percentColor(color, percent) {
      let R = parseInt(color.substring(1, 3), 16);
      let G = parseInt(color.substring(3, 5), 16);
      let B = parseInt(color.substring(5, 7), 16);

      // Calculate the adjustment factor based on the percentage
      if (percent > 0) {
          // Lightening - move each channel closer to 255 (white)
          R = Math.round(R + (255 - R) * (percent / 100));
          G = Math.round(G + (255 - G) * (percent / 100));
          B = Math.round(B + (255 - B) * (percent / 100));
      } else {
          // Darkening - move each channel closer to 0 (black)
          R = Math.round(R * (1 + (percent / 100)));
          G = Math.round(G * (1 + (percent / 100)));
          B = Math.round(B * (1 + (percent / 100)));
      }

      // Clamp values to the [0, 255] range
      R = Math.max(0, Math.min(255, R));
      G = Math.max(0, Math.min(255, G));
      B = Math.max(0, Math.min(255, B));

      // Convert back to hexadecimal
      const RR = (R.toString(16).length === 1) ? "0" + R.toString(16) : R.toString(16);
      const GG = (G.toString(16).length === 1) ? "0" + G.toString(16) : G.toString(16);
      const BB = (B.toString(16).length === 1) ? "0" + B.toString(16) : B.toString(16);

      return "#" + RR + GG + BB;
    }

	// Function to start blinking between two colors
    function startBlinking(color1, color2, interval) {
      clearBlinking(); // Clear any existing blinking interval
    
      let isColor1 = true; 
      blinkInterval = setInterval(function() {
        const checkDestroy = document.getElementById('Layer_1'); // Important must be name of the SVG!
        if (!checkDestroy) {
          clearBlinking(); 
          return;
        }
        if (isColor1) {
          setBaseColor(color1); 
        } else {
          setBaseColor(color2); 
        }
        isColor1 = !isColor1; 
      }, interval);

      // Set up the MutationObserver to watch for removal of the SVG element
      const observer = new MutationObserver((mutations) => {
        mutations.forEach((mutation) => {
          mutation.removedNodes.forEach((node) => {
            if (node.id === 'Layer_1') { // Important must be name of the SVG!
              clearBlinking(); 
              observer.disconnect(); 
            }
          });
        });
      });

      // Start observing the body or a parent element of the SVG
      observer.observe(document.body, { childList: true, subtree: true }); 
    }

    // Function to clear the blinking interval
    function clearBlinking() {
      if (blinkInterval) {
        clearInterval(blinkInterval);
        blinkInterval = null;
      }
    }

    ]]>
  </script>

</svg>