<?xml version="1.0" encoding="UTF-8" standalone="no"?>
<!-- Created with Inkscape (http://www.inkscape.org/) -->

<svg
   width="20.314587mm"
   height="27.444738mm"
   viewBox="0 0 20.314587 27.444738"
   version="1.1"
   id="Layer_1"
   xml:space="preserve"
   xmlns="http://www.w3.org/2000/svg"
   xmlns:svg="http://www.w3.org/2000/svg"><defs
     id="defs1" /><g
     id="layer8"
     transform="translate(-218.03963,-146.22127)"><g
       id="g313"><g
         id="g221"
         transform="translate(52.09195,-0.90437413)"><path
           style="fill:#d4d4d4;fill-opacity:1"
           d="m 173.20136,173.80009 -0.16718,-0.27049 0.0454,-3.06684 0.0454,-3.06683 -0.22979,-0.21233 -0.22979,-0.21233 -2.62342,-0.15199 -2.62342,-0.15198 -0.20339,-0.32909 -0.20339,-0.3291 0.17358,-0.27721 0.17359,-0.27722 0.13968,-2.41403 0.13969,-2.41403 -0.35743,0.13748 -0.35744,0.13748 -0.23383,-0.36928 -0.23382,-0.36928 -0.004,-0.70871 -0.004,-0.70871 0.46302,-0.46302 0.46302,-0.46302 0.0229,-0.15119 0.0229,-0.15119 0.20038,-0.52917 0.20039,-0.52916 0.26991,-0.72285 0.26992,-0.72286 -0.1688,-0.43989 -0.16881,-0.43989 0.39299,-0.43425 0.39299,-0.43424 0.0764,-2.6343 0.0764,-2.6343 0.79375,-0.16918 0.79375,-0.16918 5.42396,-0.016 5.42396,-0.0161 1.05833,0.18786 1.05834,0.18786 v 2.53403 2.53403 l 0.37613,0.45354 0.37614,0.45354 0.0336,0.84422 0.0336,0.84422 0.32488,1.11257 0.32488,1.11257 0.38988,0.38989 0.38989,0.38988 v 0.94494 0.94494 l -0.33073,0.0313 -0.33073,0.0313 -0.14295,-0.0128 -0.14295,-0.0128 0.0648,2.16432 0.0648,2.16432 0.16854,0.82017 0.16855,0.82018 -1.41326,0.16971 -1.41327,0.16971 -1.52135,0.002 -1.52135,0.002 -0.0468,0.46302 -0.0468,0.46302 -0.0194,3.04271 -0.0194,3.04271 -2.95571,0.0746 -2.95571,0.0746 z"
           id="path231" /><path
           style="fill:#c2c2c2;fill-opacity:1"
           d="m 173.20136,173.80009 -0.16718,-0.27049 0.0454,-3.06684 0.0454,-3.06683 -0.22979,-0.21233 -0.22979,-0.21233 -2.62342,-0.15199 -2.62342,-0.15198 -0.20339,-0.32909 -0.20339,-0.3291 0.17358,-0.27721 0.17359,-0.27722 0.13968,-2.41403 0.13969,-2.41403 -0.35743,0.13748 -0.35744,0.13748 -0.23383,-0.36928 -0.23382,-0.36928 -0.004,-0.70871 -0.004,-0.70871 0.46302,-0.46302 0.46302,-0.46302 0.0229,-0.15119 0.0229,-0.15119 0.20038,-0.52917 0.20039,-0.52916 0.26991,-0.72285 0.26992,-0.72286 -0.1688,-0.43989 -0.16881,-0.43989 0.39299,-0.43425 0.39299,-0.43424 0.0764,-2.6343 0.0764,-2.6343 0.79375,-0.16918 0.79375,-0.16918 5.42396,-0.016 5.42396,-0.0161 1.05833,0.18786 1.05834,0.18786 v 2.53403 2.53403 l 0.37613,0.45354 0.37614,0.45354 0.0336,0.84422 0.0336,0.84422 0.32488,1.11257 0.32488,1.11257 0.38988,0.38989 0.38989,0.38988 v 0.94494 0.94494 l -0.33073,0.0313 -0.33073,0.0313 -0.14295,-0.0128 -0.14295,-0.0128 0.0648,2.16432 0.0648,2.16432 0.16854,0.82017 0.16855,0.82018 -1.41326,0.16971 -1.41327,0.16971 -1.52135,0.002 -1.52135,0.002 -0.0468,0.46302 -0.0468,0.46302 -0.0194,3.04271 -0.0194,3.04271 -2.95571,0.0746 -2.95571,0.0746 z m 3.75798,-0.43547 -0.15986,-0.15985 -0.34726,0.13896 -0.34727,0.13897 0.50712,0.0209 0.50712,0.0209 z m 1.32843,-7.17341 -0.72761,-0.11022 -0.7276,0.11022 -0.72761,0.11023 h 1.45521 1.45521 z m -0.39688,-0.51488 -0.33073,-0.13345 -0.33073,0.13345 -0.33073,0.13345 h 0.66146 0.66146 z m 0.52917,-5.56775 -0.59531,-0.11466 -0.59532,0.11466 -0.59531,0.11466 h 1.19063 1.19062 z m 0.95768,-2.45261 0.0601,-1.31643 -0.25641,-0.47912 -0.25642,-0.47911 -1.59568,-0.063 -1.59567,-0.063 -0.27736,0.51824 -0.27736,0.51825 v 0.95174 0.95174 l 0.46302,0.14308 0.46302,0.14307 0.39688,0.22994 0.39687,0.22993 1.20949,0.0156 1.20949,0.0156 z m -10.98231,0.39038 -0.1523,-0.39688 h -0.10398 -0.10399 v 0.39688 0.39687 h 0.25628 0.25628 z m 0.74263,-2.31022 -0.27954,-0.27955 0.16386,0.6266 0.16386,0.6266 0.11568,-0.34705 0.11569,-0.34706 z m 0.4846,-0.46791 v -0.26458 h -0.2802 -0.28019 l 0.16352,0.26458 0.16352,0.26459 h 0.11668 0.11667 z m 8.40052,-0.44696 -0.46302,-0.121 -0.46302,0.121 -0.46302,0.121 h 0.92604 0.92604 z"
           id="path230" /><path
           style="fill:#b0b0b0;fill-opacity:1"
           d="m 173.20136,173.80009 -0.16718,-0.27049 0.0454,-3.06684 0.0454,-3.06683 -0.22979,-0.22075 -0.22979,-0.22074 -1.98437,-0.0714 -1.98438,-0.0714 -0.32736,-0.24509 -0.32736,-0.2451 -0.40024,0.15359 -0.40025,0.15359 -0.0313,-0.32243 -0.0313,-0.32242 0.0735,-0.26458 0.0735,-0.26459 0.15624,-2.40565 0.15624,-2.40566 -0.5044,0.13223 -0.50439,0.13223 0.18928,-0.30626 0.18928,-0.30626 h -0.2802 -0.2802 v -0.79375 -0.79375 h 0.2802 0.2802 l -0.14639,-0.23686 -0.14639,-0.23686 0.41213,-0.15815 0.41213,-0.15815 -0.16584,-0.26832 -0.16583,-0.26832 0.42153,-0.16175 0.42153,-0.16176 -0.14916,-0.46995 -0.14915,-0.46996 0.41851,-0.41851 0.4185,-0.4185 -0.29832,-0.55743 -0.29832,-0.55742 0.40769,-0.4505 0.4077,-0.4505 0.0764,-2.6343 0.0764,-2.6343 0.79375,-0.16918 0.79375,-0.16918 5.42396,-0.016 5.42396,-0.0161 1.05833,0.18786 1.05834,0.18786 v 2.53403 2.53403 l 0.37613,0.45354 0.37614,0.45354 0.0336,0.84422 0.0336,0.84422 0.32488,1.11257 0.32488,1.11257 0.38988,0.38989 0.38989,0.38988 v 0.94494 0.94494 l -0.33073,0.0313 -0.33073,0.0313 -0.14295,-0.0128 -0.14295,-0.0128 0.0648,2.16432 0.0648,2.16432 0.16605,0.80319 0.16606,0.8032 -0.48473,0.0521 -0.48473,0.0521 -2.4474,0.16924 -2.44739,0.16924 v 0.36451 0.36451 h -0.22906 -0.22906 l 0.18393,1.0058 0.18392,1.0058 -0.0358,2.10306 -0.0358,2.10305 -2.94096,0.0746 -2.94095,0.0746 z m 4.3588,-0.27562 0.39688,-0.25648 -1.1401,-0.004 -1.14009,-0.004 0.16352,0.26458 0.16352,0.26459 0.5797,-0.004 0.5797,-0.004 z m 0.048,-3.04046 0.0843,-2.5113 -0.28135,-0.10728 -0.28135,-0.10729 -0.68114,0.13021 -0.68114,0.13021 0.0566,1.76077 0.0566,1.76077 0.046,0.7276 0.046,0.72761 h 0.7756 0.77559 z m 0.2166,-3.44183 v -0.39687 h -1.05834 -1.05833 v 0.22048 0.22049 l 0.17639,0.17639 0.17639,0.17639 h 0.88194 0.88195 z m 3.29144,-0.84159 -0.54502,-0.10807 0.0159,-2.43559 0.0159,-2.43558 0.35507,-0.27884 0.35508,-0.27883 -3.0504,-0.009 -3.0504,-0.009 -0.0828,2.60375 -0.0828,2.60374 0.39688,0.0342 0.39687,0.0343 -0.92604,0.19492 -0.92604,0.19492 3.83646,-0.001 3.83645,-0.001 z m 0.41272,-6.16987 v -0.26458 l -1.52135,-0.0431 -1.52136,-0.0431 1.45521,-0.17833 1.45521,-0.17833 -3.30729,-0.0118 -3.30729,-0.0118 0.79375,0.18881 0.79375,0.18881 -0.92604,0.28519 -0.92605,0.28519 3.50573,0.0239 3.50573,0.0239 z m -7.28117,-2.3151 0.15958,-1.25677 0.0845,-0.59531 0.0845,-0.59532 h -0.36018 -0.36018 v 0.62453 0.62453 l -0.16826,1.22756 -0.16825,1.22755 h 0.28433 0.28434 z m 6.85273,0.0906 -0.32846,-1.08281 -0.15001,-0.70469 -0.15,-0.7047 -2.74298,-0.0127 -2.74297,-0.0127 -0.24492,1.80929 -0.24491,1.80929 3.46636,-0.009 3.46636,-0.009 z m 1.48678,0.89757 v -0.26858 l -0.44026,-1.5835 -0.44025,-1.58351 h -0.25207 -0.25206 l 0.16803,0.59532 0.16804,0.59531 0.28162,1.25677 0.28163,1.25677 h 0.24266 0.24266 z m -13.50358,-1.75026 0.53899,-1.44059 v -0.27671 -0.27671 l -0.31148,0.10383 -0.31149,0.10383 -0.59137,1.7531 -0.59137,1.7531 0.36386,-0.13962 0.36386,-0.13963 z m 15.5548,1.15894 -0.12207,-0.33073 -0.45735,-1.39111 -0.45736,-1.39111 -0.21509,0.13293 -0.2151,0.13293 0.20278,0.86131 0.20278,0.8613 0.34131,0.72761 0.34131,0.7276 h 0.25043 0.25042 z m -3.90331,-3.37343 -0.39687,-0.25648 -0.71199,-0.004 -0.71199,-0.004 -0.16352,-0.26458 -0.16352,-0.26458 h 0.66005 0.66005 l 0.0832,-2.77869 0.0832,-2.77868 -1.50574,5.6e-4 -1.50573,5.6e-4 -0.16353,-0.26459 -0.16352,-0.26458 -1.50574,0.0264 -1.50574,0.0264 -0.66145,0.21183 -0.66146,0.21184 1.47385,0.0264 1.47386,0.0264 -0.0252,2.76286 -0.0252,2.76286 0.53568,0.18114 0.53569,0.18115 -0.66146,0.1211 -0.66146,0.12111 -0.25135,0.24218 -0.25136,0.24218 3.29406,-0.004 3.29407,-0.004 z m -2.91041,-0.80937 v -0.2802 l 0.26458,0.16352 0.26458,0.16353 v 0.11667 0.11668 h -0.26458 -0.26458 z"
           id="path228" /><path
           style="fill:#9e9e9e;fill-opacity:1"
           d="m 173.78985,173.87126 -0.46302,-0.121 -0.0313,-3.35404 -0.0313,-3.35404 0.0313,-0.19844 0.0313,-0.19843 h -1.81516 -1.81515 l -1.22755,-0.16826 -1.22756,-0.16825 v -0.36091 -0.36092 h 0.26459 0.26458 v -2.48268 -2.48268 l -0.52917,-0.13838 -0.52916,-0.13838 v -0.66459 -0.66459 l 0.16001,-0.417 0.16002,-0.41699 0.2124,0.13127 0.2124,0.13127 0.55362,-1.63937 0.55363,-1.63938 v -0.72676 -0.72676 l 0.26458,-0.16352 0.26459,-0.16352 v -2.60191 -2.60191 l 0.41851,-0.1606 0.41851,-0.1606 h 0.7565 0.7565 l 0.16352,0.26458 0.16352,0.26459 h 1.32432 1.32433 l -0.0832,2.77868 -0.0832,2.77868 0.79375,0.0203 0.79375,0.0203 -0.26458,0.0883 -0.26459,0.0883 -0.73842,0.16319 -0.73843,0.1632 0.15873,0.25682 0.15873,0.25683 h 3.54064 3.54065 l 0.16468,-0.26645 0.16467,-0.26645 -0.3475,-0.13269 -0.3475,-0.13268 0.0851,-2.70579 0.0851,-2.70579 0.31182,-0.19832 0.31182,-0.19831 -1.91823,-0.004 -1.91822,-0.004 v -0.27417 -0.27416 l 2.57968,0.0757 2.57969,0.0757 0.0751,2.84427 0.0751,2.84427 h 0.38793 0.38792 v 0.63315 0.63315 l -0.39687,0.1523 -0.39688,0.1523 v 0.26296 0.26296 l 0.55292,1.47782 0.55293,1.47781 0.37312,-0.30966 0.37312,-0.30966 0.39687,0.32937 0.39688,0.32938 v 0.78612 0.78613 l -0.55713,0.14569 -0.55713,0.14569 0.0976,2.8517 0.0976,2.85171 -0.76417,0.15283 -0.76418,0.15284 h -2.05052 -2.05052 l -0.16537,0.82682 -0.16536,0.82682 v 2.71675 2.71674 l -0.41852,0.1606 -0.41851,0.1606 -1.89659,-0.0307 -1.89659,-0.0307 z m 3.85051,-0.23112 0.38806,-0.14891 0.043,-2.89379 0.043,-2.8938 h -0.91692 -0.91693 l -0.41851,0.1606 -0.41851,0.1606 v 2.48523 2.48524 l 0.46302,0.0307 0.46302,0.0307 -0.46626,0.12162 -0.46626,0.12163 0.15114,0.24456 0.15115,0.24456 h 0.75649 0.7565 z m 0.71355,-6.59796 v -0.39687 h -1.45521 -1.4552 v 0.39687 0.39688 h 1.4552 1.45521 z m 4.36563,-0.92604 0.52916,-0.22739 -0.66145,-0.018 -0.66146,-0.018 0.0865,-2.445 0.0865,-2.44499 0.28052,-0.17337 0.28051,-0.17337 -4.24574,0.008 -4.24574,0.008 -0.10631,0.55913 -0.10632,0.55914 0.0392,2.11666 0.0392,2.11667 -0.55213,0.17206 -0.55213,0.17207 4.63021,0.008 4.63021,0.008 z m 0.26458,-6.08542 0.16352,-0.26458 -0.87551,-0.036 -0.87551,-0.036 0.66146,-0.10419 0.66146,-0.10418 0.64766,-0.14255 0.64765,-0.14254 -0.26353,-0.18026 -0.26353,-0.18026 -0.54967,-0.79375 -0.54966,-0.79375 -0.18555,-0.85686 -0.18554,-0.85687 -0.26183,-0.16182 -0.26183,-0.16182 -0.14119,0.14119 -0.14119,0.14119 0.44209,1.76277 0.44209,1.76277 -0.1315,0.1315 -0.1315,0.1315 -0.42082,-0.81378 -0.42082,-0.81378 -0.16219,-1.18331 -0.16219,-1.18331 -2.86126,-0.003 -2.86126,-0.003 -0.15828,1.2475 -0.15828,1.2475 -0.23538,0.79375 -0.23538,0.79376 0.13025,-1.45521 0.13024,-1.45521 0.12134,-0.59531 0.12135,-0.59532 h -0.40192 -0.40191 l -0.0313,0.72761 -0.0313,0.7276 -0.20198,-0.79375 -0.20197,-0.79375 -0.0313,0.57338 -0.0313,0.57338 -0.52917,1.23449 -0.52916,1.2345 v 0.11035 0.11036 h 0.51395 0.51395 l 0.10128,-1.12448 0.10128,-1.12448 0.0462,1.26508 0.0462,1.26507 0.42792,0.16421 0.42793,0.16421 -0.62636,0.34728 -0.62636,0.34728 4.81303,0.009 4.81303,0.009 z m -7.27604,-1.05833 v -0.26458 h 0.38126 0.38126 l 0.16352,0.26458 0.16352,0.26458 h -0.54478 -0.54478 z m 4.49792,0 v -0.26458 h 0.39687 0.39688 v 0.26458 0.26458 h -0.39688 -0.39687 z m 2.64583,-0.0156 v -0.2802 l 0.26458,0.16352 0.26459,0.16352 v 0.11668 0.11667 h -0.26459 -0.26458 z m -13.62341,-2.19247 0.39424,-1.32755 v -0.21656 -0.21656 l -0.33073,3.7e-4 -0.33073,3.6e-4 -0.45008,1.53179 -0.45008,1.53178 -0.1901,0.51837 -0.19009,0.51837 0.57667,-0.50641 0.57666,-0.50642 z"
           id="path227" /><path
           style="fill:#8c8c8c;fill-opacity:1"
           d="m 173.32683,170.21718 v -3.57187 l -1.65365,-0.002 -1.65364,-0.002 -1.38907,-0.16685 -1.38906,-0.16684 v -0.36003 -0.36002 h 0.26459 0.26458 v -2.48268 -2.48268 l -0.52917,-0.13838 -0.52916,-0.13838 0.004,-0.75238 0.004,-0.75237 0.19438,-0.30547 0.19439,-0.30546 0.23516,0.0409 0.23516,0.0409 0.47494,-1.45521 0.47494,-1.45521 0.0175,-0.71198 0.0175,-0.71199 0.26458,-0.16353 0.26459,-0.16352 v -2.79936 -2.79937 l 1.38906,0.16685 1.38906,0.16685 0.79375,0.002 0.79375,0.002 -0.0832,2.77868 -0.0832,2.77869 0.87692,0.0307 0.87692,0.0307 -0.52917,0.1119 -0.52916,0.1119 -0.59532,0.12703 -0.59531,0.12703 v 0.25955 0.25954 h 4.1804 4.18039 l 0.33031,1.59918 0.3303,1.59917 0.14782,0.3852 0.14781,0.3852 h -0.26802 -0.26802 l -0.42174,-1.23776 -0.42175,-1.23776 v -0.60326 -0.60326 l -3.92132,0.008 -3.92133,0.008 -0.82214,1.66722 -0.82215,1.66723 1.10545,0.26639 1.10545,0.26639 -0.66146,0.0504 -0.66146,0.0504 0.52917,0.22739 0.52917,0.22739 -0.59532,0.0186 -0.59531,0.0186 v 0.26458 0.26459 l 1.78594,0.0186 1.78594,0.0186 0.52916,0.21119 0.52917,0.2112 -1.91823,-0.13305 -1.91823,-0.13305 v 2.66823 2.66824 l -0.46302,0.26969 -0.46302,0.26968 1.98438,0.0387 1.98437,0.0387 -0.46302,0.121 -0.46302,0.121 v 0.37747 0.37748 h 1.85208 1.85209 v -0.37483 -0.37483 l -0.33073,-0.13345 -0.33073,-0.13345 2.38125,-0.0473 2.38125,-0.0473 0.66146,-0.21184 0.66145,-0.21184 -0.52916,-0.0259 -0.52917,-0.0259 0.13229,-2.62683 0.13229,-2.62683 -2.59761,0.007 -2.59762,0.007 -0.15846,-0.15845 -0.15846,-0.15846 h 3.08681 3.0868 v -0.24701 -0.24701 l -0.7276,-0.11022 -0.72761,-0.11023 0.84428,-0.0396 0.84429,-0.0396 0.16352,-0.26459 0.16352,-0.26458 h -0.54478 -0.54478 v -0.26458 -0.26459 h 0.28348 0.28348 l -0.35811,-0.35811 -0.35811,-0.35811 -0.51338,-1.16324 -0.51338,-1.16325 -0.26448,-0.1842 -0.26447,-0.1842 0.41151,-0.15791 0.41151,-0.15791 v -0.38549 -0.38549 h -0.30501 -0.30501 l 0.0184,-2.77815 0.0184,-2.77815 -1.71979,-0.004 -1.7198,-0.004 0.39688,-0.25648 0.39687,-0.25648 1.49972,-0.004 1.49971,-0.004 0.41852,0.1606 0.41851,0.1606 v 2.72151 2.72151 l 0.39688,0.15229 0.39687,0.1523 v 0.50916 0.50916 l -0.39687,0.1523 -0.39688,0.1523 v 0.36989 0.3699 l 0.55662,1.33936 0.55661,1.33936 0.3728,-0.14305 0.37279,-0.14306 0.34959,0.29013 0.34959,0.29014 -0.0396,0.59936 -0.0396,0.59937 -0.5779,0.26117 -0.57789,0.26118 v 2.4508 2.4508 h 0.26458 0.26459 v 0.36002 0.36003 l -1.38907,0.16684 -1.38906,0.16685 -1.48828,0.002 -1.48828,0.002 -0.16537,0.82682 -0.16536,0.82682 v 2.74505 2.74506 l -0.59531,-0.0186 -0.59532,-0.0186 0.39688,-0.17984 0.39687,-0.17984 v -2.85551 -2.85551 l -1.5875,0.0774 -1.5875,0.0774 v 2.71233 2.71233 l -0.26458,0.004 -0.26458,0.004 0.39687,0.25648 0.39688,0.25648 -1.12448,0.004 -1.12448,0.004 z m -4.37086,-12.55758 0.35674,-0.68987 0.18442,-0.98305 0.18442,-0.98304 h -0.37424 -0.37424 l -0.58125,1.80471 -0.58124,1.80471 v 0.21206 0.21206 l 0.41432,-0.34385 0.41432,-0.34386 z m 6.75211,1.31279 v -0.26458 h 0.39687 0.39688 v 0.26458 0.26458 h -0.39688 -0.39687 z m 4.49792,-0.008 v -0.25628 h 0.39687 0.39688 v 0.10398 0.10399 l -0.39688,0.15229 -0.39687,0.1523 z m -6.85828,-0.93979 0.0209,-0.50712 0.13896,0.34727 0.13896,0.34726 -0.15985,0.15986 -0.15985,0.15985 z m 1.11312,-0.7717 0.004,-1.32292 0.11057,0.73124 0.11058,0.73125 -0.11419,0.59167 -0.11418,0.59167 z"
           id="path226" /><path
           style="fill:#7a7a7a;fill-opacity:1"
           d="m 173.32683,170.25615 v -3.53291 l -2.84363,-0.18384 -2.84362,-0.18385 -0.26523,-0.28507 -0.26523,-0.28507 0.33073,-0.12127 0.33073,-0.12126 v -2.46064 -2.46063 l -0.52917,-0.13838 -0.52916,-0.13838 v -0.80921 -0.80922 l 0.47457,-0.25398 0.47457,-0.25398 0.45147,-1.43223 0.45147,-1.43222 v -0.67196 -0.67195 l 0.41345,-0.34314 0.41346,-0.34313 -0.0827,-2.62715 -0.0827,-2.62715 1.1614,0.15976 1.16141,0.15977 h 0.49224 0.49224 v 2.8948 2.8948 l -0.26458,0.16352 -0.26459,0.16352 v 0.233 0.233 l 0.99219,0.10378 0.99219,0.10379 -0.9354,0.0445 -0.9354,0.0445 -0.85054,1.7248 -0.85054,1.72481 v 0.11883 0.11883 l 0.72761,0.39473 0.7276,0.39473 -0.46302,0.0106 -0.46302,0.0106 v 0.26458 0.26459 l 1.78594,0.036 1.78593,0.036 -0.66145,0.10147 -0.66146,0.10147 -0.79375,0.1262 -0.79375,0.1262 0.13229,2.51487 0.13229,2.51487 -0.66146,0.004 -0.66146,0.004 0.39688,0.25648 0.39687,0.25648 1.76117,0.004 1.76117,0.004 -0.13838,0.52917 -0.13838,0.52917 0.49388,0.008 0.49388,0.008 -0.48342,0.2811 -0.48341,0.28109 0.0664,2.68742 0.0664,2.68742 0.2847,0.19439 0.28469,0.19438 -0.99218,0.004 -0.99219,0.004 z m -4.56921,-12.27595 0.55532,-0.99219 0.18431,-0.99218 0.1843,-0.99219 h -0.37424 -0.37424 l -0.58125,1.80471 -0.58124,1.80471 v 0.17966 0.17967 h 0.21586 0.21586 z m 9.81037,12.78908 0.0818,-3.02082 -0.47867,-0.12401 -0.47866,-0.12401 0.57691,-0.0307 0.57691,-0.0307 0.11738,-0.46302 0.11737,-0.46302 -0.0961,0.92604 -0.0961,0.92604 -0.003,2.71198 -0.003,2.71198 -0.19844,5.2e-4 -0.19844,5.2e-4 z m 5.34217,-4.62555 0.66146,-0.18424 -0.45293,-0.17408 -0.45293,-0.17409 -0.0762,-2.45957 -0.0762,-2.45957 -1.19063,-0.1587 -1.19062,-0.1587 1.63803,-0.0397 1.63803,-0.0397 0.15239,-0.24658 0.15239,-0.24658 -0.73209,-0.11065 -0.73209,-0.11066 0.72761,-0.0396 0.7276,-0.0396 v -0.26459 -0.26458 h -0.66146 -0.66145 v -0.26458 -0.26459 h 0.23504 0.23505 l -0.61442,-1.51175 -0.61443,-1.51175 -0.47087,-0.16518 -0.47088,-0.16517 0.68878,-0.17287 0.68877,-0.17288 0.15318,-0.39915 0.15317,-0.39916 h -0.45989 -0.45989 l 0.0309,-2.77813 0.0309,-2.77812 -1.61321,-0.0266 -1.61321,-0.0266 1.05834,-0.25134 1.05833,-0.25134 0.8599,0.15761 0.85989,0.15762 v 2.77444 2.77444 l 0.39688,0.1523 0.39687,0.15229 v 0.33617 0.33617 l -0.39687,0.32938 -0.39688,0.32938 v 0.38157 0.38158 l 0.5582,1.29755 0.55819,1.29756 0.56629,-0.0579 0.56628,-0.0579 0.0844,0.8799 0.0844,0.87989 -0.54742,0.14315 -0.54742,0.14316 v 2.48268 2.48268 h 0.26458 0.26459 v 0.39688 0.39687 l -0.8599,-0.0264 -0.8599,-0.0264 z m -7.98711,-5.5 0.34727,-0.13896 0.15985,0.15985 0.15985,0.15985 -0.50711,-0.0209 -0.50712,-0.0209 z m 4.28295,-0.0838 v -0.26458 h 0.39687 0.39688 v 0.26458 0.26458 h -0.39688 -0.39687 z m -8.87069,-1.59906 -0.15638,-0.25302 h 0.54478 0.54479 v 0.10398 0.10399 l -0.38841,0.14904 -0.3884,0.14904 z m 4.37277,0.0116 v -0.26458 h 0.39687 0.39688 v 0.26458 0.26458 h -0.39688 -0.39687 z m 4.71289,-0.18074 0.34726,-0.13896 0.15986,0.15985 0.15985,0.15985 -0.50712,-0.0209 -0.50712,-0.0209 z m 0.87283,-0.67916 -0.27615,-0.85989 -0.24541,-1.12448 -0.24541,-1.12448 h 0.31357 0.31357 l 0.41464,1.98437 0.41464,1.98438 h -0.20665 -0.20665 z m -6.84191,-0.85989 0.005,-1.05834 0.11506,0.5984 0.11507,0.5984 -0.12041,0.45994 -0.1204,0.45993 z m 0.39629,-2.15961 0.33073,-0.13345 0.33073,0.13345 0.33073,0.13346 h -0.66146 -0.66146 z m -0.51263,-1.06384 0.34727,-0.13896 0.15985,0.15985 0.15985,0.15985 -0.50711,-0.0209 -0.50712,-0.0209 z"
           id="path225" /><path
           style="fill:#686868;fill-opacity:1"
           d="m 173.57404,173.72291 -0.0174,-0.0661 -0.0927,-3.63803 -0.0927,-3.63802 h 0.39942 0.39941 l 0.13838,0.52917 0.13838,0.52917 0.43216,0.008 0.43216,0.008 -0.46302,0.26968 -0.46302,0.26969 v 2.74293 2.74293 l 0.33073,0.13345 0.33073,0.13345 -0.7276,0.0209 -0.72761,0.0209 z m 4.91216,-0.19844 0.16353,-0.26458 h 0.11667 0.11668 v 0.26458 0.26459 h -0.2802 -0.2802 z m 0.22893,-3.0427 0.001,-2.64584 0.0975,1.39793 0.0975,1.39794 -0.0987,1.2479 -0.0987,1.2479 z m -11.33013,-4.34735 -0.15222,-0.2463 0.2689,-0.16619 0.2689,-0.16619 v -2.46706 -2.46707 l -0.52917,-0.13838 -0.52916,-0.13838 v -0.80921 -0.80922 l 0.47457,-0.25398 0.47457,-0.25398 0.45147,-1.43223 0.45147,-1.43222 v -0.71266 -0.71265 l 0.39687,-0.1523 0.39688,-0.15229 v -2.78289 -2.78289 l 0.82682,0.16536 0.82682,0.16537 0.42995,-5.8e-4 0.42995,-5.8e-4 -0.0832,2.71256 -0.0832,2.71255 -0.24752,0.25136 -0.24751,0.25135 v 0.33013 0.33014 l 1.38906,0.0972 1.38907,0.0972 -1.32292,0.0687 -1.32292,0.0687 -0.9725,1.94089 -0.97251,1.9409 0.70792,0.19837 0.70793,0.19837 -0.46302,0.10935 -0.46302,0.10936 v 0.24518 0.24519 l 1.65364,0.0168 1.65365,0.0168 -0.65524,0.26145 -0.65524,0.26146 -0.53539,-0.13478 -0.53538,-0.13477 0.071,2.63467 0.071,2.63468 -0.73247,0.0264 -0.73248,0.0264 0.66146,0.21184 0.66146,0.21184 -1.63803,0.0264 -1.63803,0.0264 z m 1.48875,-8.25592 0.44171,-0.92343 0.18305,-0.97571 0.18304,-0.97572 h -0.37424 -0.37424 l -0.58125,1.80471 -0.58124,1.80471 v 0.20171 0.20172 l 0.33073,-0.10729 0.33073,-0.10728 z m 14.77183,8.40078 v -0.10145 l 0.66146,-0.12645 0.66146,-0.12644 v 0.22789 0.22789 h -0.66146 -0.66146 z m 0.5238,-3.07356 -0.12693,-2.51354 -0.33073,0.0661 -0.33072,0.0661 v -0.26458 -0.26458 h 0.77813 0.77814 l 0.16352,-0.26459 0.16352,-0.26458 -0.61093,-0.0307 -0.61093,-0.0307 0.52917,-0.13221 0.52917,-0.13221 0.19438,-0.30012 0.19439,-0.30012 0.004,0.75237 0.004,0.75238 -0.51993,0.13596 -0.51993,0.13597 -0.0807,2.55124 -0.0807,2.55125 z m -8.24633,-2.56199 0.34727,-0.13896 0.15985,0.15985 0.15985,0.15985 -0.50711,-0.0209 -0.50712,-0.0209 z m 4.49792,0 0.34726,-0.13896 0.15986,0.15985 0.15985,0.15985 -0.50712,-0.0209 -0.50712,-0.0209 z m -8.73125,-1.85208 0.34727,-0.13896 0.15985,0.15985 0.15985,0.15985 -0.50712,-0.0209 -0.50712,-0.0209 z m 4.23333,0 0.34727,-0.13896 0.15985,0.15985 0.15985,0.15985 -0.50711,-0.0209 -0.50712,-0.0209 z m 4.49792,0 0.34726,-0.13896 0.15986,0.15985 0.15985,0.15985 -0.50712,-0.0209 -0.50712,-0.0209 z m 0.72984,-1.24904 -0.41565,-1.42979 v -0.59869 -0.59868 l 0.15254,0.15254 0.15254,0.15254 0.48254,1.87593 0.48253,1.87593 h -0.21942 -0.21943 z m 2.23019,1.1652 v -0.26459 h 0.39687 0.39688 v 0.26459 0.26458 h -0.39688 -0.39687 z m 1.25236,-0.0328 0.32632,-0.32877 0.14811,0.14811 0.14811,0.14811 -0.47443,0.18066 -0.47443,0.18065 z m -10.19662,-1.42238 0.01,-0.79375 0.12197,0.46805 0.12197,0.46806 -0.13178,0.32569 -0.13177,0.3257 z m 8.41509,-1.66451 v -0.32705 l 0.33073,-0.56014 0.33073,-0.56015 -0.33073,-0.11977 -0.33073,-0.11977 v -2.74158 -2.74158 l -1.25677,-0.0991 -1.25677,-0.0991 1.38906,-0.0477 1.38906,-0.0477 v 2.78643 2.78643 l 0.38017,0.14589 0.38017,0.14588 -0.15955,0.44112 -0.15955,0.44113 -0.35291,0.52189 -0.35291,0.52189 z"
           id="path224" /><path
           style="fill:#575757;fill-opacity:1"
           d="m 173.5885,171.07708 -0.003,-2.71198 -0.16486,-0.9975 -0.16486,-0.9975 0.43235,0.16591 0.43236,0.16591 v 0.34652 0.34652 l 0.33073,0.13345 0.33073,0.13345 -0.33073,0.0209 -0.33073,0.0209 v 2.88837 2.88837 l 0.33073,0.13345 0.33073,0.13345 -0.59532,0.0209 -0.59531,0.0209 z m -6.2035,-4.94266 -0.15222,-0.2463 0.2689,-0.16619 0.2689,-0.16619 v -2.49792 -2.49793 h -0.37905 -0.37904 l -0.16795,-0.52917 -0.16795,-0.52916 0.16019,-0.50473 0.16019,-0.50472 0.38681,-0.14843 0.3868,-0.14843 v 0.41062 0.41062 l 0.33073,-0.10729 0.33073,-0.10728 0.48731,-1.02026 0.4873,-1.02025 0.14263,-0.87889 0.14262,-0.87888 h -0.56379 -0.56378 v -0.53747 -0.53747 l 0.39687,-0.1523 0.39688,-0.15229 v -2.78068 -2.78067 l 0.59531,0.15953 0.59531,0.15954 0.33073,0.004 0.33073,0.004 v 2.77812 2.77813 h -0.66146 -0.66145 l 0.51218,0.51218 0.51218,0.51218 1.00917,0.1048 1.00917,0.1048 -0.97355,0.0445 -0.97355,0.0445 -0.99275,1.83799 -0.99274,1.838 -0.21651,-0.13382 -0.21652,-0.13381 v 0.25815 0.25815 l 0.7276,0.26574 0.72761,0.26574 -0.46302,0.0209 -0.46302,0.0209 v 0.26458 0.26459 h 1.5875 1.5875 v 0.25952 0.25952 l -1.12448,-0.1547 -1.12448,-0.1547 0.0837,2.6733 0.0837,2.67331 -0.61288,0.0264 -0.61289,0.0264 0.66146,0.21184 0.66146,0.21184 -1.37345,0.0264 -1.37344,0.0264 z m 16.78975,0.14232 v -0.10398 l 0.41061,-0.15757 0.41062,-0.15757 -0.16165,0.26155 -0.16165,0.26155 h -0.24897 -0.24896 z m -0.0562,-3.13716 -0.0761,-2.4474 -0.33073,0.0661 -0.33072,0.0661 v -0.26458 -0.26458 h 0.52916 0.52917 v 2.64583 2.64583 h -0.12236 -0.12237 z m -8.19548,-2.49585 0.34727,-0.13896 0.15985,0.15985 0.15985,0.15985 -0.50711,-0.0209 -0.50712,-0.0209 z m 4.49792,0 0.34726,-0.13896 0.15986,0.15985 0.15985,0.15985 -0.50712,-0.0209 -0.50712,-0.0209 z m 4.45471,-0.26213 0.30405,-0.21858 0.13479,-0.66146 0.13479,-0.66146 -0.042,0.77334 -0.042,0.77335 -0.39687,0.10669 -0.39688,0.1067 z m -13.18596,-1.58995 0.34727,-0.13896 0.15985,0.15985 0.15985,0.15985 -0.50712,-0.0209 -0.50712,-0.0209 z m 4.23333,0 0.34727,-0.13896 0.15985,0.15985 0.15985,0.15985 -0.50711,-0.0209 -0.50712,-0.0209 z m 4.49792,0 0.34726,-0.13896 0.15986,0.15985 0.15985,0.15985 -0.50712,-0.0209 -0.50712,-0.0209 z m 1.10794,-0.34843 -0.2832,-0.52916 h 0.24303 0.24304 l 0.13838,0.52916 0.13838,0.52917 h -0.0982 -0.0982 z m -13.73568,-0.66146 0.0145,-0.26458 0.22739,-0.52917 0.22739,-0.52916 0.0145,0.39687 0.0145,0.39688 -0.25648,0.39687 -0.25648,0.39688 z m 6.61282,-0.28663 0.0209,-0.50712 0.13896,0.34727 0.13897,0.34727 -0.15986,0.15985 -0.15985,0.15985 z m 6.5937,-0.47404 v -0.3638 l -0.13569,-0.89297 -0.13569,-0.89297 0.38014,0.92604 0.38014,0.92604 0.0201,0.33073 0.0201,0.33073 h -0.26458 -0.26458 z m -12.6919,-0.82683 v -0.26458 l 0.25648,-0.39687 0.25648,-0.39688 v 0.26458 0.26459 l -0.25648,0.39687 -0.25648,0.39688 z m 14.67627,-1.19062 0.16352,-0.26458 h 0.26459 0.26458 l -0.16352,0.26458 -0.16352,0.26458 h -0.26459 -0.26458 z m -0.13229,-3.81969 v -2.76137 l -0.8599,-0.10671 -0.85989,-0.10671 0.99218,-0.0423 0.99219,-0.0423 v 2.91042 2.91042 h -0.13229 -0.13229 z"
           id="path223" /><path
           style="fill:#454545;fill-opacity:1"
           d="m 173.53486,170.15104 -0.11784,-3.63802 0.081,-0.10402 0.081,-0.10402 0.18536,0.5009 0.18537,0.50089 0.28388,0.19438 0.28388,0.19439 -0.31117,0.004 -0.31117,0.004 0.0216,2.71198 0.0216,2.71198 0.2558,0.33073 0.2558,0.33073 h -0.39863 -0.39862 z m -6.02886,-4.0349 v -0.26458 l 0.19843,6e-4 0.19844,6e-4 -0.13229,-2.71258 -0.13229,-2.71258 -0.33073,0.0661 -0.33073,0.0661 -0.0221,-0.19844 -0.0221,-0.19843 -0.0653,-0.58619 -0.0654,-0.58618 0.21565,-0.33986 0.21564,-0.33986 0.004,0.33073 0.004,0.33073 h 0.47625 0.47625 l 0.37089,-0.33073 0.37088,-0.33073 -0.33264,0.44166 -0.33264,0.44167 0.47769,0.27789 0.4777,0.2779 -0.33073,0.008 -0.33073,0.008 v 0.26458 0.26459 l 1.25677,0.0423 1.25677,0.0423 -0.8599,0.10672 -0.85989,0.10671 v 2.62907 2.62907 l -0.46302,0.0264 -0.46302,0.0264 0.66146,0.21184 0.66145,0.21184 -1.12448,0.0264 -1.12447,0.0264 z m 8.41705,-5.47241 0.34727,-0.13896 0.15985,0.15985 0.15985,0.15985 -0.50711,-0.0209 -0.50712,-0.0209 z m -6.6777,-3.45728 0.35409,-0.99219 0.0116,-0.59531 0.0116,-0.59531 h -0.52916 -0.52917 v -0.50086 -0.50086 l 0.39687,-0.15229 0.39688,-0.1523 v -2.81474 -2.81473 l 0.41851,0.1606 0.41852,0.1606 h 0.22592 0.22592 l 0.0832,2.77868 0.0832,2.77868 -0.72761,-5.6e-4 -0.7276,-5.5e-4 0.50971,0.50971 0.50972,0.50972 0.74706,0.1121 0.74705,0.1121 -0.74216,0.0396 -0.74217,0.0396 -0.64356,1.45521 -0.64356,1.45521 h -0.10445 -0.10445 z m -1.46667,0.59531 v -0.26458 l 0.25648,-0.39687 0.25648,-0.39688 v 0.26458 0.26459 l -0.25648,0.39687 -0.25648,0.39688 z m 0.52917,-1.5875 v -0.26458 l 0.25648,-0.39687 0.25648,-0.39688 v 0.26458 0.26459 l -0.25648,0.39687 -0.25648,0.39688 z"
           id="path222" /><path
           style="fill:#333333;fill-opacity:1"
           d="m 173.59141,171.044 v -2.74505 l -0.0981,-0.76067 -0.0981,-0.76068 0.11753,0.33073 0.11754,0.33073 h 0.17904 0.17904 v 3.175 3.175 h -0.19844 -0.19844 z m -6.08541,-4.92786 v -0.26458 l 0.33072,0.0186 0.33073,0.0186 0.52917,0.22739 0.52917,0.22739 -0.8599,0.0186 -0.85989,0.0186 z m 0.52916,-3.20586 v -2.67669 l -0.52916,0.13838 -0.52917,0.13838 v -0.76898 -0.76898 h 0.52917 0.52916 v 0.64256 0.64256 l 0.42042,0.42041 0.42041,0.42042 0.0869,2.24431 0.0869,2.24432 h -0.50727 -0.50728 z m 1.00873,-2.53113 0.34726,-0.13896 0.15985,0.15985 0.15986,0.15985 -0.50712,-0.0209 -0.50712,-0.0209 z m 0.4886,-4.38332 0.15941,-0.99219 h -0.56379 -0.56378 v -0.52917 -0.52916 h 0.25256 0.25255 l 0.66146,0.66145 0.66146,0.66146 h -0.25256 -0.25255 l -0.004,0.46302 -0.004,0.46302 -0.25303,0.39688 -0.25303,0.39687 z m -0.17441,-4.98299 v -2.93246 l 0.33073,0.10972 0.33073,0.10971 0.0751,2.82275 0.0751,2.82275 h -0.40582 -0.40583 z"
           id="path221" /></g><g
         id="g312"
         transform="translate(52.09195,-0.90437413)"><path
           id="shape"
           style="opacity:0.608955;fill:none;fill-opacity:1;stroke:#000000;stroke-linejoin:bevel"
           d="m 181.39664,147.62565 -5.42396,0.016 -5.42396,0.016 -0.79375,0.1695 -0.79375,0.16898 -0.0765,2.63447 -0.0765,2.63394 -0.39274,0.4346 -0.015,0.016 -0.40772,0.45062 0.14883,0.27802 0.0496,0.12919 0.16899,0.44028 -0.26975,0.72244 -0.0264,0.0703 -0.31161,0.31161 0.0899,0.28164 v 5.1e-4 l -0.0222,0.0589 -0.19999,0.52917 -0.10439,0.27492 -0.30799,0.11834 0.16588,0.2682 0.0212,0.0336 v 5.2e-4 l -0.0212,0.1359 -0.26251,0.26252 -0.39584,0.15193 0.093,0.15089 -0.32297,0.32298 h -0.0377 v 0.0377 0.75602 0.79375 h 0.092 l 0.14986,0.2372 0.0873,0.13746 -0.14728,0.23771 0.2558,-0.0667 0.0382,0.0605 0.35709,-0.13746 0.21807,-0.0837 0.13849,-0.0362 -0.008,0.13849 -0.002,0.0326 -0.14522,2.23397 -0.15658,2.40554 -0.0264,0.0951 -0.0232,0.0372 h -0.0346 v 5.2e-4 0.0548 l -0.0563,0.0899 -0.0207,0.0331 -0.0553,0.0202 0.0253,0.0274 -0.12247,0.19638 0.2005,0.32504 0.0289,0.29456 0.12403,-0.0476 0.0532,0.0863 1.17616,0.0682 0.1018,0.076 1.98438,0.0713 1.20767,0.0434 h 5.2e-4 l 0.77618,0.045 0.22996,0.21239 0.22944,0.21239 -0.045,3.067 -0.0455,3.06648 0.16692,0.27078 0.16743,0.26975 v 5.2e-4 l 2.22002,-0.0563 0.56069,0.009 1.89652,0.0305 0.2837,-0.10853 0.95033,-0.0243 0.0181,-2.78846 0.0243,-1.41697 -0.0145,-0.0806 0.0114,-1.79937 0.0134,-0.13177 h 0.0796 v -0.36432 -0.36484 l 0.95808,-0.0667 h 0.004 l 0.56018,-5.2e-4 1.52135,-0.002 1.41283,-0.16949 1.41335,-0.1695 -0.007,-0.0341 h 0.002 l -0.16588,-0.80357 -0.16589,-0.80305 -0.0646,-2.16421 -0.0651,-2.16421 0.14262,0.0129 h 5.2e-4 l 0.14263,0.0124 0.33073,-0.031 0.33073,-0.0315 v -0.21498 -0.72967 -0.0563 -0.786 -0.10283 l -0.38964,-0.38964 -0.38965,-0.39016 -0.32504,-1.11259 -0.32504,-1.1126 -0.0336,-0.84387 -0.0336,-0.8444 -0.37621,-0.45371 -0.3762,-0.45321 v -2.53421 -2.53421 l -1.05834,-0.18759 z" /></g></g></g>


<script type="text/javascript">
  <![CDATA[
    // Global Parameters and Variables
    //!export-start
    let _pn_setState         = 0;
    let _pb_boolState        = false;
    let _pn_setInterval      = 500;
    let _pc_state0Colour     = '#ffffff';
    let _pc_state1Colour     = '#00ff00';
    let _pc_state2Colour     = '#ff9500';
    let _pc_state3Colour     = '#ff0000';
    let _pc_state4Colour     = '#3c3c3c';
    let _pc_state5Colour     = '#dcdcdc';
    let _pn_lightShade       = 50;
    let _pn_highLightShade   = 90;
    let _pn_darkShade        = 15;
    let _pn_shadowShade      = -15;
    let _pn_strokeWidth      = 1;     
    let _pn_opacity          = 0.60;  
    let _pn_indicationMode   = 0;     
    //!export-end
    
    // Internal state variables
    let stateNumber = 0;
    let isBlinking = false;
    let myCheckInterval;
    
    // Force global timing mechanism by using epoch time
    function getGlobalBlinkState(interval) {
      // Use the current time divided by interval, which will give
      // the same result for all SVGs at the same moment
      return Math.floor(Date.now() / interval) % 2 === 0;
    }
    
    // Function to update the color based on the set state
    function logic() {
      switch (stateNumber) {
        case 0: // off
          setColors(_pc_state0Colour);
          stopBlinking();
          break; 
        case 1: // run
          setColors(_pc_state1Colour);
          stopBlinking();
          break;
        case 2: // warning
          setColors(_pc_state2Colour);
          stopBlinking();
          break;
        case 3: // fault
          startForceSync();
          break;
        case 4: // invalid 
          setColors(_pc_state4Colour);
          stopBlinking();
          break;
        case 5: // spare
          setColors(_pc_state5Colour);
          stopBlinking();
          break;
        default:
          console.log('Undefined State');
          stopBlinking();
      }
    }

    // Initial setup
    function init() {
      // Set up visibility change listener
      document.addEventListener('visibilitychange', handleVisibilityChange);
      
      // Initial state rendering
      logic(); 
    }
    
    // Handler for tab visibility changes
    function handleVisibilityChange() {
      if (document.visibilityState === 'visible' && isBlinking) {
        // Resume checking when tab becomes visible again
        startForceSync();
      } else if (document.visibilityState === 'hidden' && isBlinking) {
        // Pause checking when tab is hidden
        clearInterval(myCheckInterval);
        myCheckInterval = null;
      }
    }
    
    // Update the blinking display based on global time
    function updateBlinkDisplay() {
      if (!isBlinking) return;
      
      // Get the global blink state
      const showFaultColor = getGlobalBlinkState(_pn_setInterval);
      
      // Set the appropriate color
      if (showFaultColor) {
        setColors(_pc_state3Colour);
      } else {
        setColors(_pc_state0Colour);
      }
    }
    
    // Start forced synchronization
    function startForceSync() {
      // Clear any existing interval
      stopBlinking();
      
      // Set blinking state
      isBlinking = true;
      
      // Update display immediately
      updateBlinkDisplay();
      
      // Check very frequently to ensure tight synchronization (every 16ms = ~60fps)
      myCheckInterval = setInterval(updateBlinkDisplay, 16);
    }

    // Function to update values from Fuxa
    function putValue(id, value) {
      if (id === '_pn_setState') {
        stateNumber = value;
        logic(); 
      }
      if (id === '_pb_boolState') {
        _pb_boolState = value;
        if (_pb_boolState === true) {
          stateNumber = 1;
        } else if (_pb_boolState === false) {
          stateNumber = 0;
        }
        logic(); 
      }
      if (id === '_pn_setInterval')    _pn_setInterval    = value;
      if (id === '_pc_state0Colour')   _pc_state0Colour   = value;
      if (id === '_pc_state1Colour')   _pc_state1Colour   = value;
      if (id === '_pc_state2Colour')   _pc_state2Colour   = value;
      if (id === '_pc_state3Colour')   _pc_state3Colour   = value;
      if (id === '_pc_state4Colour')   _pc_state4Colour   = value;
      if (id === '_pc_state5Colour')   _pc_state5Colour   = value;
      if (id === '_pn_lightShade')     _pn_lightShade     = value;
      if (id === '_pn_highLightShade') _pn_highLightShade = value;
      if (id === '_pn_darkShade')      _pn_darkShade      = value;
      if (id === '_pn_shadowShade')    _pn_shadowShade    = value;
      if (id === '_pn_strokeWidth')    _pn_strokeWidth    = value;
      if (id === '_pn_opacity')        _pn_opacity        = value;
      if (id === '_pn_indicationMode') _pn_indicationMode = value;
    }

    // Function to send values back to Fuxa (placeholder)
    function postValue(id, value) {
      console.error('Not defined!');
    }

    // Function to update the fill and/or stroke color based on indication mode
    function setColors(color) {
      // Get the single element with ID "shape"
      const shapeElement = document.getElementById('shape');
      if (!shapeElement) return; // Safety check
      
      // Set opacity
      shapeElement.style.opacity = _pn_opacity;
      
      // Set stroke width
      shapeElement.style.strokeWidth = _pn_strokeWidth;
      
      // Apply colors based on indication mode
      switch(_pn_indicationMode) {
        case 0: // Fill only
          shapeElement.style.fill = color;
          shapeElement.style.stroke = "none";
          break;
        case 1: // Stroke only
          shapeElement.style.fill = "none";
          shapeElement.style.stroke = color;
          break;
        case 2: // Both fill and stroke
          shapeElement.style.fill = color;
          shapeElement.style.stroke = color;
          break;
        default:
          // Default to fill only
          shapeElement.style.fill = color;
          shapeElement.style.stroke = "none";
      }
    }

    // Function to stop blinking
    function stopBlinking() {
      if (myCheckInterval) {
        clearInterval(myCheckInterval);
        myCheckInterval = null;
      }
      isBlinking = false;
    }

    // Clean up event listeners when widget is destroyed
    function cleanup() {
      stopBlinking();
      document.removeEventListener('visibilitychange', handleVisibilityChange);
    }

    // Initialize the SVG
    init();

    // Ensure cleanup when SVG is removed
    const cleanupObserver = new MutationObserver((mutations) => {
      mutations.forEach((mutation) => {
        mutation.removedNodes.forEach((node) => {
          if (node.id === 'Layer_1') {
            cleanup();
            cleanupObserver.disconnect();
          }
        });
      });
    });
    cleanupObserver.observe(document.body, { childList: true, subtree: true });
  ]]>
  </script>
</svg>
