<?xml version="1.0" encoding="UTF-8" standalone="no"?>
<!-- Created with Inkscape (http://www.inkscape.org/) -->

<svg
   width="71.017303mm"
   height="9.2077227mm"
   viewBox="0 0 71.017303 9.2077227"
   version="1.1"
   id="Layer_1"
   xml:space="preserve"
   xmlns="http://www.w3.org/2000/svg"
   xmlns:svg="http://www.w3.org/2000/svg"><defs
     id="defs1" /><g
     id="layer31"
     transform="translate(-678.87979,-212.56197)"><g
       id="g124"><g
         id="g106"
         transform="translate(-0.75774339,43.949117)"><path
           style="fill:#c2c2c2;fill-opacity:1"
           d="m 685.16552,176.5307 -1.9802,-1.16595 -1.01164,-0.17092 -1.01165,-0.17092 -0.71232,-0.61271 -0.71232,-0.61271 v -1.33981 -1.33981 l 0.67876,-0.67876 0.67876,-0.67876 2.87179,-0.51788 2.8718,-0.51788 h 27.85196 27.85195 l 2.09866,0.50125 2.09867,0.50125 0.55786,0.29857 0.55787,0.29856 0.27996,0.5231 0.27996,0.5231 h 1.04902 1.04902 v 1.1577 1.15769 l -3.52281,2.01731 -3.52282,2.0173 -28.16104,-0.0119 -28.16104,-0.0119 z m 4.43234,-0.66236 0.33047,-0.52917 h -0.92828 -0.92828 v 0.52917 0.52917 h 0.59781 0.59781 z m 5.61766,0 -0.28321,-0.52917 h -2.04371 -2.04371 l -0.33047,0.52917 -0.33047,0.52917 h 2.65738 2.65739 z m 1.85208,0 0.2832,-0.52917 h -0.67077 -0.67076 v 0.11066 0.11065 l 0.16059,0.41851 0.1606,0.41852 h 0.22697 0.22697 z m 5.82083,0.3175 v -0.21167 l -0.3175,-0.3175 -0.3175,-0.3175 h -2.06375 -2.06375 v 0.11066 0.11065 l -0.1606,0.41851 -0.1606,0.41852 h 2.54185 2.54185 z m 1.85209,-0.61448 v -0.23219 h -0.66146 -0.66146 v 0.21167 0.21167 l 0.3112,0.3112 0.31121,0.31121 0.35025,-0.29069 0.35026,-0.29068 z m 5.55625,0.71549 v -0.11065 l -0.1606,-0.41851 -0.1606,-0.41852 h -2.07905 -2.07905 l -0.2832,0.52917 -0.28321,0.52917 h 2.52286 2.52285 z m 1.79068,-0.41851 0.33047,-0.52917 h -0.8053 -0.80531 l 0.28321,0.52917 0.2832,0.52917 h 0.19163 0.19163 z m 5.55625,0 -0.33047,-0.52917 h -2.04372 -2.04371 l -0.2832,0.52917 -0.2832,0.52917 h 2.65738 2.65739 z m 1.91348,0 0.2832,-0.52917 h -0.8053 -0.8053 l 0.33047,0.52917 0.33047,0.52917 h 0.19163 0.19163 z m 5.55625,0 -0.2832,-0.52917 h -2.10736 -2.10735 v 0.11066 0.11065 l -0.1606,0.41851 -0.1606,0.41852 h 2.55116 2.55115 z m 1.85209,0 0.2832,-0.52917 h -0.67077 -0.67077 v 0.11066 0.11065 l 0.1606,0.41851 0.1606,0.41852 h 0.22697 0.22697 z m 5.82083,0.3175 v -0.21167 l -0.3175,-0.3175 -0.3175,-0.3175 h -1.87854 -1.87854 l -0.3175,0.3175 -0.3175,0.3175 v 0.21167 0.21167 h 2.51354 2.51354 z m 1.69148,-0.20685 0.1606,-0.41851 v -0.11065 -0.11066 h -0.67076 -0.67077 l 0.2832,0.52917 0.2832,0.52917 h 0.22697 0.22697 z m 5.65545,-0.11065 -0.33047,-0.52917 h -2.04371 -2.04372 l -0.2832,0.52917 -0.2832,0.52917 h 2.65739 2.65738 z m 2.44265,0 v -0.52917 h -0.93535 -0.93535 l 0.2832,0.52917 0.2832,0.52917 h 0.65215 0.65215 z m -55.29791,-0.13229 v -0.39688 h -0.71203 -0.71203 l 0.51359,0.38846 0.51359,0.38846 0.19844,0.008 0.19844,0.008 z m 57.03328,0.008 0.51359,-0.38846 -0.7276,-0.008 -0.72761,-0.008 v 0.39688 0.39687 h 0.21402 0.21401 z m -57.03328,-2.65425 v -1.19062 h -1.19063 -1.19062 v 0.3638 0.3638 l -0.16537,0.82683 -0.16536,0.82682 h 1.35599 1.35599 z m 3.84669,0.19844 0.50513,-0.99219 0.0971,-0.20459 0.0971,-0.20459 -1.87616,0.0723 -1.87616,0.0723 -2e-5,1.12448 -2e-5,1.12448 h 1.27391 1.27391 z m 3.03247,0.88691 v -0.10529 l -0.62324,-1.09723 -0.62323,-1.09723 -0.39393,0.6072 -0.39392,0.6072 -0.31507,0.59532 -0.31506,0.59531 h 1.33223 1.33222 z m 4.4492,-0.92293 0.57789,-1.02821 v -0.1107 -0.11069 l -2.51355,-0.067 -2.51354,-0.067 v 0.31476 0.31476 l 0.55075,0.89112 0.55074,0.89113 h 1.38491 1.38491 z m 2.95778,0.82977 -10e-4,-0.19844 -0.61977,-1.02386 -0.61978,-1.02387 -0.68316,1.22231 -0.68316,1.2223 h 1.30429 1.3043 z m 4.65292,-1.05668 0.66813,-1.12283 -2.75307,0.0349 -2.75307,0.0349 0.6519,1.16637 0.6519,1.16638 1.43303,-0.0785 1.43304,-0.0785 z m 2.69608,0.65981 -0.38613,-0.59532 -0.33096,-0.625 -0.33096,-0.62501 -0.628,1.02188 -0.628,1.02188 -0.008,0.19844 -0.008,0.19844 h 1.35335 1.35334 z m 4.74084,-0.60311 0.58679,-1.06613 -2.63347,-0.0566 -2.63347,-0.0567 v 0.14433 0.14432 l 0.59531,1.05156 0.59531,1.05155 1.45138,-0.0731 1.45137,-0.0731 z m 2.4636,0.14009 -0.53992,-1.05834 h -0.25383 -0.25383 l -0.53992,1.05834 -0.53992,1.05833 h 1.33367 1.33367 z m 4.96014,0.0131 0.59451,-1.04118 -0.2679,-0.16557 -0.2679,-0.16557 -2.37669,0.0843 -2.37669,0.0843 -4.5e-4,0.0714 -4.4e-4,0.0714 0.66478,1.05307 0.66478,1.05308 1.38574,-0.002 1.38574,-0.002 z m 2.9691,0.84681 -0.008,-0.19844 -0.62799,-1.02188 -0.628,-1.02188 -0.33096,0.62501 -0.33096,0.625 -0.38613,0.59532 -0.38613,0.59531 h 1.35334 1.35335 z m 4.58442,-0.96928 0.65265,-1.16772 -2.76555,-0.005 -2.76555,-0.005 0.37455,0.57765 0.37456,0.57764 0.31507,0.59532 0.31506,0.59531 h 1.42328 1.42328 z m 2.38635,-0.0367 -0.67315,-1.2044 -0.0664,0.0799 -0.0664,0.0799 -0.70038,1.12448 -0.70038,1.12448 h 1.4399 1.43991 z m 4.92216,0.31327 0.55075,-0.89112 v -0.27833 -0.27834 h -2.62654 -2.62653 l 0.70638,1.16946 0.70638,1.16946 h 1.3694 1.36941 z m 2.90013,0.29582 -0.31506,-0.59532 -0.39392,-0.6072 -0.39393,-0.6072 -0.62324,1.09723 -0.62323,1.09723 v 0.10529 0.10528 h 1.33222 1.33223 z m 3.73603,-0.55768 v -1.153 l -1.86837,-0.0203 -1.86837,-0.0203 0.0893,0.18114 0.0893,0.18115 0.50513,0.99219 0.50512,0.99219 h 1.27391 1.27391 z m 1.135,0.62382 -0.13838,-0.52916 h -0.10143 -0.10144 v 0.52916 0.52917 h 0.23982 0.23981 z m 0.29789,-3.10885 0.50121,-0.59531 -1.56236,0.0445 -1.56236,0.0445 0.99219,0.10379 0.99218,0.10378 v 0.5573 0.55729 l 0.069,-0.11025 0.069,-0.11024 z m -56.0032,-0.51311 -0.46302,-0.121 -0.46302,0.121 -0.46302,0.121 h 0.92604 0.92604 z m 4.22743,-0.0107 -0.99809,-0.10414 -0.85399,0.10627 -0.854,0.10627 1.85209,-0.002 1.85208,-0.002 z m 4.7684,3.5e-4 -0.99218,-0.10379 -0.99219,0.10379 -0.99219,0.10379 h 1.98438 1.98437 z m 4.7625,0 -0.99218,-0.10379 -0.99219,0.10379 -0.99219,0.10379 h 1.98438 1.98437 z m 4.7625,0 -0.99218,-0.10379 -0.99219,0.10379 -0.99219,0.10379 h 1.98438 1.98437 z m 4.49202,-3.5e-4 -0.99809,-0.10414 -0.85399,0.10627 -0.854,0.10627 1.85208,-0.002 1.85209,-0.002 z m 4.7625,0 -0.99809,-0.10414 -0.85399,0.10627 -0.854,0.10627 1.85208,-0.002 1.85209,-0.002 z m 4.7625,0 -0.99809,-0.10414 -0.85399,0.10627 -0.854,0.10627 1.85208,-0.002 1.85209,-0.002 z m 4.7625,0 -0.99809,-0.10414 -0.85399,0.10627 -0.854,0.10627 1.85208,-0.002 1.85209,-0.002 z m 4.7684,3.5e-4 -0.99219,-0.10379 -0.99218,0.10379 -0.99219,0.10379 h 1.98437 1.98438 z m 4.7625,0 -0.99219,-0.10379 -0.99218,0.10379 -0.99219,0.10379 h 1.98437 1.98438 z m 4.7625,0 -0.99219,-0.10379 -0.99218,0.10379 -0.99219,0.10379 h 1.98437 1.98438 z"
           id="path114" /><path
           style="fill:#b0b0b0;fill-opacity:1"
           d="m 685.16552,176.5307 -1.9802,-1.16595 -1.01164,-0.17092 -1.01165,-0.17092 -0.71232,-0.61271 -0.71232,-0.61271 v -1.33981 -1.33981 l 0.67876,-0.67876 0.67876,-0.67876 2.87179,-0.51788 2.8718,-0.51788 h 27.85196 27.85195 l 2.09866,0.50125 2.09867,0.50125 0.55786,0.29857 0.55787,0.29856 0.27996,0.5231 0.27996,0.5231 h 1.04902 1.04902 v 1.1577 1.15769 l -3.52281,2.01731 -3.52282,2.0173 -28.16104,-0.0119 -28.16104,-0.0119 z m 61.64375,-0.99912 3.30729,-1.91512 0.0821,-0.99073 0.0821,-0.99072 h -0.95762 -0.95763 l 0.16352,0.26458 0.16352,0.26458 h -2.79374 -2.79374 v -0.79375 -0.79375 h -0.79375 -0.79375 v 0.26459 0.26458 h -0.52917 -0.52916 v -0.26458 -0.26459 h -1.85209 -1.85208 v 0.26459 0.26458 h -0.52917 -0.52916 v -0.26458 -0.26459 l -1.91823,0.004 -1.91823,0.004 0.39687,0.25648 0.39688,0.25648 -17.99167,-0.0223 -17.99167,-0.0223 0.66146,-0.21183 0.66146,-0.21184 -1.91823,-0.0264 -1.91823,-0.0264 v 0.26459 0.26458 h -0.67707 -0.67707 l 0.16352,-0.26458 0.16352,-0.26459 h -1.88331 -1.88332 l 0.16352,0.26459 0.16353,0.26458 h -0.67708 -0.67707 v -0.26458 -0.26459 h -1.99999 -1.99999 l 0.16352,0.26459 0.16352,0.26458 h -1.99999 -1.99999 v 1.26804 1.26803 l 3.24115,1.88265 3.24114,1.88265 28.17813,0.0197 28.17813,0.0197 z m -59.53125,1.26808 v -0.36323 l -1.45521,-0.71197 -1.45521,-0.71197 v -1.68874 -1.68874 h 1.5875 1.5875 v 2.26457 2.26457 l 0.26458,-0.16352 0.26459,-0.16352 v 0.2802 0.2802 h 0.59781 0.59781 l 0.33047,-0.52917 0.33047,-0.52917 h -0.88418 -0.88419 l -0.15816,-0.15816 -0.15816,-0.15815 0.14237,-0.37101 0.14237,-0.37101 h 1.27678 1.27678 l 0.16917,-0.53301 0.16917,-0.53301 0.2425,0.14988 0.24251,0.14987 -0.1473,-0.38385 -0.1473,-0.38385 0.28262,-0.17467 0.28262,-0.17467 v -0.26876 -0.26876 l -1.73146,0.10794 -1.73145,0.10794 -0.13258,-0.21452 -0.13258,-0.21451 27.39633,-0.002 27.39633,-0.002 0.0477,2.44352 0.0477,2.44353 0.15077,-1.98438 0.15077,-1.98437 0.33073,0.0265 0.33073,0.0264 2.88701,0.0397 2.887,0.0397 -0.0626,0.42661 -0.0626,0.42661 -0.47943,0.26831 -0.47944,0.2683 0.1842,-0.29804 0.1842,-0.29804 h -0.2478 -0.2478 l -0.36313,0.44766 -0.36312,0.44767 0.33073,-0.1987 0.33073,-0.19869 v 0.12265 0.12265 l -1.52136,0.86525 -1.52135,0.86525 -0.46874,-0.0302 -0.46874,-0.0302 0.15175,0.24554 0.15175,0.24554 -0.45402,-0.17423 -0.45402,-0.17422 0.18311,0.29627 0.1831,0.29627 -0.47043,0.22983 -0.47043,0.22983 -1.05833,0.0297 -1.05833,0.0297 0.79375,-0.1947 0.79375,-0.19469 -0.8599,-0.13806 -0.8599,-0.13807 v 0.35106 0.35105 l -3.63802,-0.004 -3.63802,-0.004 0.35292,-0.22371 0.35291,-0.22371 -0.41906,-0.16081 -0.41906,-0.16081 v 0.38858 0.38857 h -3.58749 -3.58749 l 0.16352,-0.26459 0.16352,-0.26458 -0.34634,-0.004 -0.34635,-0.004 0.38425,-0.24308 0.38424,-0.24307 0.15437,0.0954 0.15438,0.0954 v -0.50975 -0.50974 h -0.63307 -0.63307 l 0.15757,0.41062 0.15757,0.41062 -0.26156,-0.16165 -0.26155,-0.16165 v 0.1653 0.1653 l 0.27389,0.51177 0.27389,0.51178 -0.8692,-0.0264 -0.86921,-0.0264 0.66146,-0.21184 0.66146,-0.21183 -3.04271,0.0236 -3.04271,0.0236 2.38125,0.16458 2.38125,0.16459 -2.72759,0.05 -2.72759,0.05 0.14638,-0.23686 0.14639,-0.23686 -0.32921,-0.0969 -0.32921,-0.0969 -3.175,0.16044 -3.175,0.16044 3.10938,-0.0251 3.10937,-0.0251 -5.2e-4,0.19844 -5.2e-4,0.19844 h -3.05202 -3.05202 l -0.586,-0.33934 -0.586,-0.33933 -3.175,0.16601 -3.175,0.16602 3.10937,-0.0251 3.10938,-0.0251 -5.2e-4,0.19844 -5.2e-4,0.19844 -3.63802,-0.004 -3.63803,-0.004 0.39688,-0.25648 0.39687,-0.25648 -0.61092,-0.004 -0.61093,-0.004 0.16766,0.27128 0.16766,0.27129 -8.22184,-0.0209 -8.22183,-0.0209 z m 1.92326,-0.0465 -0.32569,-0.13177 -0.46806,0.12197 -0.46806,0.12197 0.79375,0.01 0.79375,0.01 z m 5.15434,-0.022 -1.52135,-0.0955 -1.52136,0.0955 -1.52135,0.0955 h 3.04271 3.0427 z m 2.4474,0.0915 v -0.10399 l -0.39688,-0.15229 -0.39687,-0.1523 v 0.25628 0.25628 h 0.39687 0.39688 z m 4.96093,-0.0915 -1.52135,-0.0955 -1.52136,0.0955 -1.52135,0.0955 h 3.04271 3.04271 z m 30.17287,3.1e-4 -1.51098,-0.0952 -1.66402,0.0942 -1.66401,0.0942 3.175,9.5e-4 3.175,9.6e-4 z m 7.39797,-3.1e-4 -1.52136,-0.0955 -1.52135,0.0955 -1.52135,0.0955 h 3.0427 3.04271 z m -43.76075,-0.48783 0.40181,-0.15419 -0.14389,-0.37498 -0.14389,-0.37498 h -0.22797 -0.22798 l 0.14397,0.46302 0.14396,0.46302 -0.2977,-0.46302 -0.29771,-0.46302 h -2.10352 -2.10352 v 0.2802 0.2802 l -0.22049,-0.13627 -0.22048,-0.13627 v 0.38524 0.38524 h 2.4478 2.44781 z m 1.3973,-0.24117 0.15171,-0.39535 0.27774,0.17165 0.27774,0.17165 -0.18879,-0.30546 -0.18879,-0.30547 h -0.64584 -0.64584 v 0.11066 0.11065 l 0.16059,0.41851 0.1606,0.41852 h 0.24458 0.24458 z m 5.91709,0.18369 v -0.21167 l -0.3175,-0.3175 -0.3175,-0.3175 h -2.06375 -2.06375 v 0.11066 0.11065 l -0.1606,0.41851 -0.1606,0.41852 h 2.54185 2.54185 z m 1.85209,-0.61258 v -0.23028 l -1.05903,0.0415 -1.05903,0.0415 0.1283,0.1283 0.1283,0.1283 0.6,0.31436 0.6,0.31436 0.33073,-0.25387 0.33073,-0.25388 z m 5.42445,0.22893 -0.16745,-0.59531 0.25233,0.36463 0.25234,0.36462 0.26644,-0.16467 0.26644,-0.16466 0.15171,0.39535 0.15171,0.39536 h 0.20924 0.20925 l 0.34397,-0.5508 0.34398,-0.55079 -0.9276,0.0799 -0.9276,0.0799 -0.12323,-0.12443 -0.12324,-0.12444 -2.27332,0.0856 -2.27331,0.0856 -0.27278,0.50969 -0.27279,0.5097 h 2.54068 2.54069 z m 7.91385,0.4353 0.41699,-0.16002 -0.15039,-0.303 -0.1504,-0.30301 0.37952,0.46303 0.37952,0.46302 h 0.15996 0.15996 l 0.29503,-0.55126 0.29502,-0.55126 -0.88103,0.0489 -0.88103,0.0489 -0.13229,-0.0376 -0.13229,-0.0376 -2.42551,-0.0554 -2.42552,-0.0554 0.1011,0.10094 0.1011,0.10093 -0.26458,0.49438 -0.26458,0.49438 h 2.50121 2.50121 z m -0.46191,-0.28096 -0.17639,-0.17638 v -0.27341 -0.2734 l 0.31309,0.31309 0.31309,0.31309 -0.1367,0.1367 -0.13671,0.1367 z m 7.57555,7e-4 -0.16895,-0.44028 0.30954,0.19131 0.30955,0.19131 v -0.24739 -0.24739 l -2.42474,-0.0442 -2.42475,-0.0442 -0.21704,0.34212 -0.21703,0.34211 -0.004,0.19844 -0.004,0.19844 h 2.50524 2.50524 z m 7.59389,0.20809 v -0.23219 l -0.37506,-0.31127 -0.37506,-0.31127 -2.08488,0.0503 -2.08489,0.0503 -0.0371,0.49321 -0.0372,0.49321 h 2.4971 2.4971 z m 0.94408,-0.11757 0.36878,0.48205 0.26556,-0.39688 0.26556,-0.39687 0.004,-0.20673 0.004,-0.20672 -0.92604,0.0624 -0.92604,0.0624 v 0.0566 0.0566 l 0.19062,0.48466 0.19062,0.48466 0.097,-0.48205 0.097,-0.48205 z m 6.80772,0.18268 0.16708,-0.16708 -0.22841,-0.42824 -0.22842,-0.42823 -2.27693,0.0856 -2.27693,0.0856 -0.27278,0.50969 -0.27278,0.5097 h 2.61105 2.61104 z m -0.48664,-0.37969 -0.1744,-0.28219 0.1261,-0.1261 0.1261,-0.1261 0.15668,0.40829 0.15667,0.40828 h -0.10837 -0.10838 z m 2.52442,0.0176 v -0.52917 h -0.93535 -0.93535 l 0.2832,0.52917 0.2832,0.52917 h 0.65215 0.65215 z m -55.29791,-0.13229 v -0.39688 h -0.71203 -0.71203 l 0.51359,0.38846 0.51359,0.38846 0.19844,0.008 0.19844,0.008 z m 57.03328,0.008 0.51359,-0.38846 -0.7276,-0.008 -0.72761,-0.008 v 0.39688 0.39687 h 0.21402 0.21401 z m 1.31434,-0.35419 -0.14811,-0.14811 -0.32632,0.32876 -0.32632,0.32877 0.47443,-0.18065 0.47444,-0.18066 z m -50.94357,-1.64659 -0.30318,-0.56649 -0.12076,0.12076 -0.12076,0.12076 0.33063,0.72566 0.33063,0.72566 0.0933,-0.27993 0.0933,-0.27992 z m 22.65261,0.37841 -0.1712,-0.44616 -0.13229,0.1323 -0.1323,0.13229 0.17121,0.44615 0.17121,0.44616 0.13229,-0.13229 0.13229,-0.13229 z m -14.803,0.2249 -0.12339,-0.19844 1.53368,0.0882 1.53368,0.0882 0.59471,-1.05815 0.59472,-1.05815 0.42678,0.13504 0.42678,0.13504 -0.39687,-0.2865 -0.39688,-0.28649 -2.96535,0.0479 -2.96536,0.0479 0.6923,1.27198 0.6923,1.27198 h 0.23815 0.23815 z m -0.83387,-1.38907 -0.41047,-0.79375 h 0.1323 0.13229 l 0.41046,0.79375 0.41046,0.79375 h -0.13229 -0.13229 z m 9.9474,1.32292 h 1.30517 l 0.48213,-0.7928 0.48213,-0.7928 0.11874,0.11874 0.11874,0.11874 v -0.45917 -0.45917 l -2.58913,-0.0557 -2.58914,-0.0557 0.002,0.19674 0.002,0.19674 0.52568,0.79375 0.52568,0.79375 -0.009,0.26459 -0.009,0.26458 -0.40699,-0.75099 -0.40699,-0.751 -0.12149,0.12149 -0.12149,0.12149 0.32161,0.70588 0.32162,0.70587 0.37139,-0.14252 0.37139,-0.14251 z m 12.80676,-0.79375 -0.43589,-0.84293 -0.13229,0.1323 -0.13229,0.13229 0.43589,0.84292 0.4359,0.84293 0.13229,-0.13229 0.13229,-0.13229 z m 9.97596,0.75899 1.50929,-0.0548 -0.13556,-0.21933 -0.13555,-0.21933 0.4122,-0.5885 0.41221,-0.5885 v -0.32917 -0.32918 l -3.10886,0.0417 -3.10885,0.0417 -0.35035,0.41254 -0.35035,0.41253 0.19279,-0.37161 0.19279,-0.37161 -0.30978,0.19146 -0.30978,0.19145 0.13747,0.22243 0.13747,0.22242 -0.16088,0.41923 -0.16087,0.41923 -0.19276,-0.11913 -0.19277,-0.11913 v 0.40651 0.40651 l 1.54389,-0.0874 1.54388,-0.0874 -4.8e-4,0.21627 -4.8e-4,0.21626 0.46302,-0.14009 0.46302,-0.1401 z m -2.28459,-0.40944 -0.17921,-0.46701 -0.22363,0.36184 -0.22363,0.36184 -0.42359,-0.81914 -0.4236,-0.81914 0.0106,-0.21157 0.0106,-0.21158 0.40699,0.751 0.40699,0.75099 0.13302,-0.13302 0.13302,-0.13302 -0.29533,-0.55183 -0.29533,-0.55183 h 0.11547 0.11546 l 0.56606,0.95939 0.56605,0.95939 -0.11036,0.11035 -0.11035,0.11036 z m 10.43259,-0.73328 v -1.12851 l -1.85208,-0.0202 -1.85208,-0.0202 v 0.0997 0.0997 l 0.55388,1.00731 0.55388,1.00731 -0.35544,-0.4401 -0.35545,-0.44011 -0.3434,-0.48594 -0.3434,-0.48594 0.11958,0.39688 0.11958,0.39687 0.18583,0.52917 0.18582,0.52917 -0.55732,-0.86629 -0.55731,-0.86629 v -0.14151 -0.14152 l 0.26458,0.16352 0.26458,0.16353 v -0.23994 -0.23993 l -0.78915,-0.0224 -0.78915,-0.0224 -0.18029,0.29172 -0.1803,0.29172 0.42681,-0.16378 0.4268,-0.16378 -0.14654,0.38188 -0.14654,0.38188 -0.23383,-0.14451 -0.23383,-0.14451 0.1473,0.38385 0.1473,0.38385 -0.28262,0.17467 -0.28262,0.17467 v 0.26815 0.26815 l 1.45126,-0.0672 1.45126,-0.0672 0.11362,0.11419 0.11361,0.11419 1.47783,-0.0906 1.47783,-0.0906 z m -55.29791,-0.0131 v -1.19062 h -1.19063 -1.19062 v 0.3638 0.3638 l -0.16537,0.82683 -0.16536,0.82682 h 1.35599 1.35599 z m 6.87916,1.08535 v -0.10529 l -0.59531,-1.01919 -0.59531,-1.0192 -0.52917,-0.0772 -0.52917,-0.0772 0.35024,0.23715 0.35024,0.23714 -0.50553,0.83127 -0.50553,0.83128 -0.21786,-0.19749 -0.21785,-0.19749 0.19032,0.33073 0.19033,0.33073 h 1.3073 1.3073 z m 4.3536,-0.76407 0.46817,-0.86934 h 0.46947 0.46947 l -0.12995,0.33866 -0.12996,0.33866 -0.27774,-0.17166 -0.27774,-0.17165 0.19595,0.31706 0.19595,0.31705 -0.31975,0.38528 -0.31976,0.38529 h 1.35531 1.35532 l -10e-4,-0.19844 -10e-4,-0.19844 -0.64058,-1.05833 -0.64058,-1.05833 -0.21796,0.0914 -0.21796,0.0914 -0.19843,0.30546 -0.19844,0.30547 -0.19844,-0.28038 -0.19844,-0.28038 -2.44739,-0.0696 -2.4474,-0.0696 v 0.31878 0.31878 l 0.55075,0.89112 0.55074,0.89113 h 1.39197 1.39196 z m 10.17772,-0.12284 -0.59309,-0.99219 -0.19595,-0.22507 -0.19596,-0.22507 -0.17763,0.55964 -0.17762,0.55965 -0.20144,-0.1245 -0.20143,-0.12449 -0.0126,0.31909 -0.0126,0.31909 -0.19211,0.46302 -0.19212,0.46302 h 1.37281 1.3728 z m 7.4291,-0.0661 -0.53992,-1.05834 h 0.13087 0.13088 l 0.42318,0.81834 0.42317,0.81834 0.13422,-0.13422 0.13422,-0.13422 -0.29533,-0.55183 -0.29533,-0.55182 h 0.11547 0.11547 l 0.54638,0.92604 0.54637,0.92604 h 1.46413 1.46414 v -0.2802 -0.2802 l 0.30546,0.18879 0.30546,0.18879 -0.18416,-0.29799 -0.18417,-0.29799 0.42225,-0.64443 0.42224,-0.64444 -0.25411,-0.15705 -0.25411,-0.15705 -3.33474,0.0664 -3.33474,0.0664 0.12659,0.33073 0.12658,0.33073 -0.15171,0.39536 -0.15171,0.39535 -0.18016,-0.11135 -0.18016,-0.11134 v 0.50974 0.50974 h 1.27159 1.2716 z m 7.92924,0.85989 -0.008,-0.19844 -0.58705,-0.92604 -0.58706,-0.92604 -0.52916,-0.0772 -0.52917,-0.0772 0.33969,0.23063 0.33969,0.23062 -0.16897,0.44035 -0.16898,0.44035 -0.30301,-0.17319 -0.303,-0.1732 0.18913,0.2095 0.18912,0.2095 -0.26458,0.49438 -0.26458,0.49438 h 1.33222 1.33223 z m 4.28595,-0.45472 0.29761,-0.65316 0.26677,0.16487 0.26677,0.16488 -0.19595,-0.31706 -0.19595,-0.31705 0.30878,-0.37206 0.30878,-0.37205 -3.06412,0.0253 -3.06413,0.0253 v 0.21047 0.21048 l 0.26458,0.16352 0.26459,0.16352 0.0103,-0.34634 0.0103,-0.34635 0.678,1.12448 0.678,1.12448 h 1.43401 1.43401 z m 15.37814,0.12399 -0.13838,-0.52916 h -0.10143 -0.10144 v 0.52916 0.52917 h 0.23982 0.23981 z m 5.47959,-0.52916 -0.39688,-0.25648 h -0.26458 -0.26458 l 0.39687,0.25648 0.39688,0.25648 h 0.26458 0.26458 z m -55.29792,-0.79375 -0.30746,-0.57449 -0.13229,0.13229 -0.13229,0.13229 0.30746,0.57449 0.30745,0.57449 0.13229,-0.13229 0.1323,-0.1323 z m 14.92688,-0.0944 -0.16683,-0.43474 h -0.24558 -0.24559 l 0.29533,0.55183 0.29533,0.55182 0.11708,-0.11708 0.11709,-0.11708 z m -25.02462,1.01991 -0.0887,-1.72034 0.19844,5.5e-4 0.19844,5.6e-4 v 1.71979 1.71979 h -0.10972 -0.10972 z m 60.21396,-2.71142 0.50121,-0.59531 -1.56236,0.0445 -1.56236,0.0445 0.99219,0.10379 0.99218,0.10378 v 0.5573 0.55729 l 0.069,-0.11025 0.069,-0.11024 z m -42.24487,0.006 -0.99218,-0.10379 -0.99219,0.10379 -0.99219,0.10378 h 1.98438 1.98437 z m 4.7625,0 -0.99218,-0.10379 -0.99219,0.10379 -0.99219,0.10378 h 1.98438 1.98437 z m 4.49202,-3.6e-4 -0.99809,-0.10413 -0.85399,0.10627 -0.854,0.10627 1.85208,-0.002 1.85209,-0.002 z m 4.7625,0 -0.99809,-0.10413 -0.85399,0.10627 -0.854,0.10627 1.85208,-0.002 1.85209,-0.002 z m 4.7625,0 -0.99809,-0.10413 -0.85399,0.10627 -0.854,0.10627 1.85208,-0.002 1.85209,-0.002 z m 4.7625,0 -0.99809,-0.10413 -0.85399,0.10627 -0.854,0.10627 1.85208,-0.002 1.85209,-0.002 z m 4.7684,3.6e-4 -0.99219,-0.10379 -0.99218,0.10379 -0.99219,0.10378 h 1.98437 1.98438 z m -42.06875,-0.51881 -0.46302,-0.121 -0.46302,0.121 -0.46302,0.121 h 0.92604 0.92604 z m 4.22743,-0.0107 -0.99809,-0.10414 -0.85399,0.10627 -0.854,0.10627 1.85209,-0.002 1.85208,-0.002 z m 4.7684,3.5e-4 -0.99218,-0.10379 -0.99219,0.10379 -0.99219,0.10379 h 1.98438 1.98437 z m 4.7625,0 -0.99218,-0.10379 -0.99219,0.10379 -0.99219,0.10379 h 1.98438 1.98437 z m 4.7625,0 -0.99218,-0.10379 -0.99219,0.10379 -0.99219,0.10379 h 1.98438 1.98437 z m 4.49202,-3.5e-4 -0.99809,-0.10414 -0.85399,0.10627 -0.854,0.10627 1.85208,-0.002 1.85209,-0.002 z m 4.7625,0 -0.99809,-0.10414 -0.85399,0.10627 -0.854,0.10627 1.85208,-0.002 1.85209,-0.002 z m 4.7625,0 -0.99809,-0.10414 -0.85399,0.10627 -0.854,0.10627 1.85208,-0.002 1.85209,-0.002 z m 4.7625,0 -0.99809,-0.10414 -0.85399,0.10627 -0.854,0.10627 1.85208,-0.002 1.85209,-0.002 z m 4.7684,3.5e-4 -0.99219,-0.10379 -0.99218,0.10379 -0.99219,0.10379 h 1.98437 1.98438 z m 4.7625,0 -0.99219,-0.10379 -0.99218,0.10379 -0.99219,0.10379 h 1.98437 1.98438 z m 4.7625,0 -0.99219,-0.10379 -0.99218,0.10379 -0.99219,0.10379 h 1.98437 1.98438 z"
           id="path113" /><path
           style="fill:#9e9e9e;fill-opacity:1"
           d="m 686.60098,177.30393 -0.51359,-0.4165 0.39688,0.21806 0.39687,0.21806 28.44271,0.13465 28.44271,0.13465 -28.32599,0.0638 -28.326,0.0638 z m 57.82704,-0.22635 v -0.13229 l 0.52916,-0.2832 0.52917,-0.2832 v 0.13229 0.13229 l -0.52917,0.2832 -0.52916,0.2832 z m -59.33282,-0.56683 -0.7276,-0.39473 v -0.13063 -0.13064 l 0.79375,0.41046 0.79375,0.41047 v 0.1255 0.12549 l -0.0661,-0.0106 -0.0661,-0.0106 z m 56.95157,0.2252 -0.66146,-0.11867 -0.20675,-0.19757 -0.20675,-0.19758 0.80206,0.11772 0.80206,0.11772 v -0.5592 -0.5592 l -1.12448,-0.0189 -1.12447,-0.0189 -2.60635,0.005 -2.60635,0.005 -0.37087,0.47713 -0.37086,0.47712 0.16125,-0.46302 0.16125,-0.46302 h -0.70716 -0.70716 l -0.55262,-0.29575 -0.55261,-0.29575 0.59159,0.95721 0.59159,0.95721 h -2.932 -2.932 l -5.7e-4,-0.19844 -5.8e-4,-0.19844 2.64641,0.0837 2.64641,0.0837 v -0.22924 -0.22924 l -0.3175,-0.3175 -0.3175,-0.3175 h -1.87854 -1.87854 l -0.3175,0.26459 -0.3175,0.26458 0.26458,-0.3175 0.26458,-0.3175 -0.01,-0.27781 -0.01,-0.27782 -0.93814,1.05834 -0.93815,1.05833 0.47435,-0.76577 0.47435,-0.76577 -0.8542,0.12537 -0.85421,0.12537 -0.31411,-0.37848 -0.31411,-0.37848 -0.0446,-0.30403 -0.0446,-0.30404 h 1.66141 1.6614 l -0.0821,0.13229 -0.0821,0.13229 3.61306,-0.0679 3.61306,-0.0679 0.48078,-0.59355 0.48078,-0.59356 -0.28234,0.57792 -0.28234,0.57792 0.008,0.34812 0.008,0.34813 0.32231,-0.39688 0.32232,-0.39687 1.40608,0.0806 1.40609,0.0806 -0.2962,-0.60973 -0.29621,-0.60973 0.40193,0.50055 0.40193,0.50054 0.0757,0.16474 0.0757,0.16474 1.50605,-0.0936 1.50606,-0.0936 0.10795,-0.704 0.10794,-0.70401 0.0396,2.05052 0.0396,2.05052 -0.0661,-0.036 -0.0661,-0.036 z m -54.79922,-0.2723 -0.0305,-0.19844 0.0508,-0.48509 0.0508,-0.4851 -0.74798,0.0615 -0.74797,0.0615 -0.73913,-0.20332 -0.73913,-0.20331 0.0985,-0.29915 0.0985,-0.29916 1.36827,-0.08 1.36827,-0.08 v -1.1768 -1.1768 h -1.17306 -1.17305 l -0.0901,0.7276 -0.09,0.72761 -0.14629,-0.8599 -0.14628,-0.85989 h 1.54167 1.54168 v 2.51354 2.51354 h -0.13229 -0.13229 z m 1.34301,0.004 0.65109,-0.12198 0.3557,-0.43731 0.35569,-0.43731 -0.28849,0.59532 -0.28849,0.59531 -0.71829,-0.036 -0.7183,-0.036 z m 4.05529,-0.004 2.85429,-0.0851 -0.18319,-0.29641 -0.1832,-0.29641 0.30547,0.18879 0.30546,0.18878 v 0.24897 0.24897 l -2.97656,-0.0562 -2.97656,-0.0562 z m 4.32286,-0.43594 0.47435,-0.76577 -0.86084,0.12634 -0.86084,0.12635 -0.13625,-0.22047 -0.13626,-0.22047 h -0.26458 -0.26459 l 0.18879,0.30546 0.18879,0.30547 -0.285,-0.17614 -0.28499,-0.17613 -3.32776,-0.0219 -3.32776,-0.0219 v -0.52884 -0.52883 l 1.52135,0.0956 1.52135,0.0956 0.35035,-0.40187 0.35035,-0.40188 -0.18019,0.35122 -0.18019,0.35122 1.50364,-0.0696 1.50363,-0.0696 0.24039,0.37989 0.24038,0.37989 0.0354,-0.26459 0.0354,-0.26458 -0.01,-0.13229 -0.01,-0.13229 1.45194,0.0917 1.45194,0.0917 0.39318,-0.48857 0.39317,-0.48857 -0.26144,0.54476 -0.26143,0.54477 1.6359,-0.11347 1.6359,-0.11347 0.0876,-0.0779 0.0876,-0.0779 -0.29533,-0.55183 -0.29533,-0.55183 h 0.13481 0.1348 l 0.41047,0.79375 0.41046,0.79375 h 0.27341 0.2734 l -0.12264,-0.19843 -0.12264,-0.19844 h 1.67247 1.67248 l -0.009,0.13229 -0.009,0.13229 0.0354,0.26458 0.0354,0.26459 0.24039,-0.37989 0.24038,-0.37989 1.50364,0.0696 1.50363,0.0696 -0.18019,-0.35122 -0.18019,-0.35122 0.35035,0.40188 0.35035,0.40187 1.5875,-0.0973 1.5875,-0.0973 0.30991,-0.25356 0.30991,-0.25355 -0.1226,0.61043 -0.12261,0.61044 0.34186,-0.48594 0.34186,-0.48594 0.34533,-0.4401 0.34532,-0.44011 -0.28849,0.59532 -0.28849,0.59531 h 1.33902 1.33903 l -0.41047,-0.79375 -0.41046,-0.79375 h 0.13371 0.1337 l 0.54469,1.06768 0.54469,1.06768 0.26729,-0.1652 0.26728,-0.16519 -0.34357,-0.43946 -0.34358,-0.43947 0.39688,0.30468 0.39687,0.30469 1.5875,0.0576 1.5875,0.0576 1.54966,-0.0316 1.54966,-0.0316 -0.15229,-0.39688 -0.1523,-0.39687 h 0.0987 0.0987 l 0.83636,1.48195 0.83636,1.48195 -0.11485,0.11485 -0.11486,0.11486 -2.82503,-0.0754 -2.82504,-0.0755 0.40964,-0.52917 0.40964,-0.52917 -0.16124,0.46303 -0.16125,0.46302 h 2.55116 2.55115 l -0.2832,-0.52917 -0.2832,-0.52917 h -2.12297 -2.12297 l 0.16352,-0.26458 0.16352,-0.26458 h -0.1376 -0.1376 l -0.57839,0.59531 -0.57838,0.59531 0.18682,-0.33073 0.18682,-0.33073 h -0.78773 -0.78772 l -0.48395,-0.1857 -0.48394,-0.18571 0.4623,0.70556 0.46231,0.70557 v 0.1416 0.1416 l -2.97657,-0.0523 -2.97656,-0.0523 2.82411,-0.14614 2.82412,-0.14614 -0.35497,-0.48385 -0.35497,-0.48385 -2.11405,0.087 -2.11404,0.087 0.0827,-0.13229 0.0827,-0.13229 -1.13717,0.0905 -1.13717,0.0905 -0.5893,-0.31538 -0.58929,-0.31538 0.18842,0.30488 0.18842,0.30487 -2.3393,-0.0182 -2.33931,-0.0182 -1.12459,0.0705 -1.1246,0.0705 1.2e-4,-0.17013 1.2e-4,-0.17013 -0.403,-0.15464 -0.403,-0.15464 0.30309,0.58935 0.3031,0.58936 -0.34989,-0.33073 -0.34989,-0.33073 h -2.07936 -2.07937 l 0.16708,-0.33073 0.16708,-0.33073 -0.96725,1.05834 -0.96725,1.05833 z m 0.62806,0.43504 v -0.19844 h 2.77812 2.77813 v 0.19844 0.19844 h -2.77813 -2.77812 z m 6.1909,-0.13229 -0.19033,-0.33073 0.21652,0.19614 0.21651,0.19615 0.36113,-0.29972 0.36113,-0.29971 -0.16666,0.4343 -0.16665,0.4343 h -0.22066 -0.22066 z m 1.21743,0.11672 v -0.21402 l 0.41147,-0.51359 0.41147,-0.51359 -0.28849,0.59531 -0.28849,0.59532 h 2.55116 2.55116 l -0.15229,-0.39688 -0.1523,-0.39687 h 0.11468 0.11468 l 0.2832,0.52916 0.2832,0.52917 h -2.91973 -2.91972 z m 6.19244,-0.0915 -0.18878,-0.30547 0.32306,0.19967 0.32307,0.19967 0.39387,-0.48952 0.39386,-0.48952 -0.28848,0.59532 -0.28849,0.59531 h -0.23966 -0.23966 z m 7.56589,0.20148 v -0.10399 l 0.41062,-0.15757 0.41062,-0.15757 -0.16165,0.26156 -0.16165,0.26155 h -0.24897 -0.24897 z m 14.95083,-0.15757 -0.16164,-0.26156 0.41061,0.15757 0.41062,0.15757 v 0.10399 0.10398 h -0.24897 -0.24897 z m 1.18876,0.0126 v -0.24897 l 0.30546,-0.18878 0.30546,-0.18879 -0.18319,0.29641 -0.18319,0.29641 2.85429,0.0851 2.85429,0.0851 -2.97656,0.0562 -2.97656,0.0562 z m 8.20208,-1.71979 v -1.99999 h 3.34699 3.34699 l -1.03189,0.74964 -1.03188,0.74964 -0.36313,0.44098 -0.36312,0.44099 h -0.50991 -0.50991 l -0.80973,0.41873 -0.80974,0.41873 0.17703,-0.28644 0.17703,-0.28644 h -0.70793 -0.70793 l 0.13831,0.52891 0.13831,0.5289 -0.23975,0.14817 -0.23974,0.14817 z m 0.60583,-0.94166 -0.13838,-0.52916 h -0.10143 -0.10144 v 0.52916 0.52917 h 0.23982 0.23981 z m 2.04,2.53216 v -0.13229 l 0.52917,-0.2832 0.52917,-0.2832 v 0.13229 0.13229 l -0.52917,0.2832 -0.52917,0.2832 z m -5.69942,-0.43309 -0.1744,-0.28219 0.1261,-0.1261 0.1261,-0.1261 0.15668,0.40829 0.15667,0.40828 h -0.10837 -0.10838 z m -56.60995,-0.25526 -0.52917,-0.23705 -1.08246,-0.27309 -1.08246,-0.2731 -0.50504,-0.55806 -0.50504,-0.55806 v -1.28913 -1.28912 l 0.67876,-0.67876 0.67876,-0.67876 2.87179,-0.51788 2.8718,-0.51788 h 27.85196 27.85195 l 2.09866,0.50125 2.09867,0.50125 0.55786,0.29857 0.55787,0.29856 0.27996,0.5231 0.27996,0.5231 h 1.04902 1.04902 v 1.18132 1.18132 l -0.59531,0.28848 -0.59531,0.28849 0.46302,-0.37449 0.46302,-0.3745 v -0.96301 -0.96302 h -0.92604 -0.92604 v 0.26458 0.26458 h -2.52016 -2.52016 l -0.15875,-0.79375 -0.15875,-0.79375 h -0.76067 -0.76068 v 0.26459 0.26458 h -0.52917 -0.52916 v -0.26458 -0.26459 h -1.85209 -1.85208 v 0.26459 0.26458 h -0.52917 -0.52916 v -0.26458 -0.26459 h -1.85209 -1.85208 v 0.26459 0.26458 h -0.52917 -0.52916 v -0.26458 -0.26459 h -1.85209 -1.85208 v 0.26459 0.26458 h -0.52917 -0.52916 v -0.26458 -0.26459 h -1.85209 -1.85208 v 0.26459 0.26458 h -0.52917 -0.52916 v -0.26458 -0.26459 h -1.7198 -1.71979 v 0.26459 0.26458 h -0.66146 -0.66145 v -0.26458 -0.26459 h -1.7198 -1.71979 v 0.26459 0.26458 h -0.52916 -0.52917 v -0.26458 -0.26459 h -1.85208 -1.85209 v 0.26459 0.26458 h -0.52916 -0.52917 v -0.26458 -0.26459 h -1.85208 -1.85209 v 0.26459 0.26458 h -0.52916 -0.52917 v -0.26458 -0.26459 h -1.85208 -1.85209 v 0.26459 0.26458 h -0.52916 -0.52917 v -0.26458 -0.26459 h -1.85208 -1.85209 v 0.26459 0.26458 h -0.52916 -0.52917 v -0.26458 -0.26459 h -1.85208 -1.85209 v 0.26459 0.26458 h -0.52916 -0.52917 v -0.26458 -0.26459 h -1.99999 -1.99999 l 0.16352,0.26459 0.16352,0.26458 h -1.99999 -1.99999 v 1.30014 1.30015 l 1.71979,0.96176 1.7198,0.96176 v 0.11935 0.11934 l -0.0661,-0.0179 -0.0661,-0.0179 z m 60.56726,-4.95266 0.50121,-0.59531 -1.56236,0.0445 -1.56236,0.0445 0.99219,0.10379 0.99218,0.10378 v 0.5573 0.55729 l 0.069,-0.11025 0.069,-0.11024 z m -56.0032,-0.51311 -0.46302,-0.121 -0.46302,0.121 -0.46302,0.121 h 0.92604 0.92604 z m 4.22743,-0.0107 -0.99809,-0.10414 -0.85399,0.10627 -0.854,0.10627 1.85209,-0.002 1.85208,-0.002 z m 4.7684,3.5e-4 -0.99218,-0.10379 -0.99219,0.10379 -0.99219,0.10379 h 1.98438 1.98437 z m 4.7625,0 -0.99218,-0.10379 -0.99219,0.10379 -0.99219,0.10379 h 1.98438 1.98437 z m 4.7625,0 -0.99218,-0.10379 -0.99219,0.10379 -0.99219,0.10379 h 1.98438 1.98437 z m 4.49202,-3.5e-4 -0.99809,-0.10414 -0.85399,0.10627 -0.854,0.10627 1.85208,-0.002 1.85209,-0.002 z m 4.7625,0 -0.99809,-0.10414 -0.85399,0.10627 -0.854,0.10627 1.85208,-0.002 1.85209,-0.002 z m 4.7625,0 -0.99809,-0.10414 -0.85399,0.10627 -0.854,0.10627 1.85208,-0.002 1.85209,-0.002 z m 4.7625,0 -0.99809,-0.10414 -0.85399,0.10627 -0.854,0.10627 1.85208,-0.002 1.85209,-0.002 z m 4.7684,3.5e-4 -0.99219,-0.10379 -0.99218,0.10379 -0.99219,0.10379 h 1.98437 1.98438 z m 4.7625,0 -0.99219,-0.10379 -0.99218,0.10379 -0.99219,0.10379 h 1.98437 1.98438 z m 4.7625,0 -0.99219,-0.10379 -0.99218,0.10379 -0.99219,0.10379 h 1.98437 1.98438 z m 8.00365,5.10615 v -0.13229 l 0.52916,-0.2832 0.52917,-0.2832 v 0.13229 0.13229 l -0.52917,0.2832 -0.52916,0.2832 z m -48.41875,-1.73841 0.2832,-0.52917 h 0.13229 0.13229 l -0.2832,0.52917 -0.2832,0.52917 h -0.13229 -0.1323 z m 21.69583,0 0.2832,-0.52917 h 0.13229 0.13229 l -0.2832,0.52917 -0.2832,0.52917 h -0.13229 -0.13229 z m 10.18646,-0.26458 -0.41047,-0.79375 h 0.1323 0.13229 l 0.41046,0.79375 0.41047,0.79375 h -0.1323 -0.13229 z m -37.43854,0 -0.28321,-0.52917 h 0.1323 0.13229 l 0.2832,0.52917 0.2832,0.52916 h -0.13229 -0.13229 z m 12.43541,0 0.2832,-0.52917 h 0.1323 0.13229 l -0.2832,0.52917 -0.28321,0.52916 h -0.13229 -0.13229 z m 30.69167,0 0.2832,-0.52917 h 0.13229 0.13229 l -0.2832,0.52917 -0.2832,0.52916 h -0.13229 -0.13229 z m -45.50833,-0.26459 0.2832,-0.52916 h 0.13229 0.13229 l -0.2832,0.52916 -0.2832,0.52917 h -0.13229 -0.1323 z m 17.19791,0 -0.2832,-0.52916 h 0.13229 0.13229 l 0.28321,0.52916 0.2832,0.52917 h -0.13229 -0.1323 z m 5.40395,-0.22588 0.39045,-0.75506 -3.1645,0.003 -3.16451,0.003 -0.14599,-0.14599 -0.14599,-0.14599 3.456,-0.0393 3.45601,-0.0393 v 0.15706 0.15706 l -0.40367,0.78061 -0.40367,0.78061 h -0.13229 -0.13229 z m 9.41272,-0.0387 -0.2832,-0.52917 h 0.13229 0.13229 l 0.2832,0.52917 0.2832,0.52917 h -0.13229 -0.13229 z m 5.55625,0 0.2832,-0.52917 h 0.13229 0.13229 l -0.2832,0.52917 -0.2832,0.52917 h -0.13229 -0.13229 z m 9.15246,-0.39688 -0.43341,-0.66145 h 0.22821 0.22822 l 0.30138,0.66145 0.30138,0.66146 h -0.0962 -0.0962 z m -38.91036,0.11809 0.14132,-0.41107 -2.52192,-0.0672 -2.52192,-0.0672 -0.004,0.34599 -0.004,0.34599 -0.23345,-0.36867 -0.23345,-0.36867 -0.59436,0.15543 -0.59436,0.15543 0.25801,-0.25802 0.25802,-0.25802 3.36393,0.0744 3.36392,0.0744 -0.40948,0.52916 -0.40948,0.52917 z m 1.54375,-0.11657 -0.15172,-0.39535 -0.27774,0.17165 -0.27774,0.17165 0.18879,-0.30546 0.18879,-0.30546 h 0.10737 0.10736 l 0.28321,0.52916 0.2832,0.52917 h -0.14991 -0.1499 z m 14.38189,-0.32279 0.13054,-0.34018 h 0.20797 0.20797 l 0.13054,0.34018 0.13054,0.34017 h -0.46905 -0.46905 z m 21.50518,0.21453 v -0.27027 l -2.77838,0.0562 -2.77837,0.0562 2.5e-4,-0.19844 2.5e-4,-0.19843 h 3.0427 3.04271 v 0.24896 0.24897 l -0.26458,0.16352 -0.26458,0.16353 z m -48.32633,-0.35464 -0.12365,-0.20007 h 2.17637 2.17638 l -0.15753,0.15753 -0.15754,0.15754 -1.89519,0.0425 -1.89519,0.0425 z m 13.66591,0.0332 -0.92604,-0.1636 3.175,-0.0139 3.175,-0.0139 -0.26459,0.0973 -0.26458,0.0973 -1.98437,0.0803 -1.98438,0.0803 z m 14.28749,-0.0464 1e-5,-0.21007 3.45601,0.0393 3.456,0.0393 -0.13799,0.138 -0.13799,0.13799 -3.31803,0.0328 -3.31803,0.0328 z m 8.73126,0.0547 -1.45521,-0.15531 3.15295,-0.0431 3.15295,-0.0431 -0.11024,0.1069 -0.11024,0.10691 -1.5875,0.0915 -1.5875,0.0915 z m 13.75846,-0.0431 -1.3e-4,-0.19843 h 2.11667 2.11667 l 7e-5,0.19843 8e-5,0.19844 h -2.11661 -2.11662 z"
           id="path112" /><path
           style="fill:#8c8c8c;fill-opacity:1"
           d="m 687.27802,175.90519 v -0.49231 l -1.3588,-0.16093 -1.3588,-0.16093 -0.1229,-0.1229 -0.12291,-0.12291 0.1744,-0.28218 0.1744,-0.28219 h 1.3073 1.30731 v -1.19063 -1.19062 h -1.17306 -1.17305 l -0.11022,0.7276 -0.11022,0.72761 -0.0396,-0.8599 -0.0397,-0.85989 h 1.45521 1.45521 v 2.38125 2.38125 h -0.13229 -0.13229 z m 8.46681,-0.5354 1.5e-4,-0.16291 -3.83661,0.066 -3.8366,0.066 v -0.52899 -0.52899 h 1.17501 1.17501 l 0.17146,0.27743 0.17146,0.27743 0.30717,-0.25128 0.30718,-0.25128 1.51885,-0.0923 1.51886,-0.0923 0.13792,0.36053 0.13792,0.36052 0.33558,-0.2785 0.33558,-0.27851 h 2.96816 2.96816 l 0.24672,-0.15248 0.24672,-0.15249 0.13934,0.22546 0.13934,0.22545 1.4569,-0.12082 1.45689,-0.12081 0.44562,0.171 0.44562,0.171 -0.50045,0.47513 -0.50045,0.47513 -0.9482,-0.17339 -0.9482,-0.17339 -0.3553,-0.21959 -0.3553,-0.21959 0.14432,0.37413 0.14432,0.37413 -2.08373,-0.0863 -2.08373,-0.0863 v -0.26005 -0.26005 l -0.31034,0.1918 -0.31034,0.1918 -1.01258,0.18516 -1.01258,0.18516 z m 27.18579,0.0373 -2.05052,-0.0902 v -0.26276 -0.26276 l -0.46302,0.24552 -0.46302,0.24553 -4.61393,0.011 -4.61393,0.011 -0.51123,-0.27361 -0.51123,-0.2736 0.17984,0.29098 0.17983,0.29098 h -2.13228 -2.13228 v -0.13588 -0.13588 l 0.29176,-0.46718 0.29176,-0.46718 1.75876,0.15866 1.75876,0.15866 1.6332,-0.1587 1.63319,-0.1587 -0.11616,0.18794 -0.11615,0.18795 0.25061,0.15489 0.25062,0.15489 0.16619,-0.2689 0.16619,-0.2689 h 1.45521 1.45521 l -0.17087,-0.33073 -0.17087,-0.33073 0.54625,0.66146 0.54624,0.66146 0.0372,-0.26459 0.0372,-0.26458 -0.0107,-0.13657 -0.0107,-0.13657 1.69917,0.14258 1.69917,0.14258 1.69928,-0.14259 1.69929,-0.14259 0.43234,0.73189 0.43234,0.7319 -0.0811,-0.0532 -0.0811,-0.0532 z m 5.29933,-0.29713 0.13872,-0.36151 -0.55189,0.29536 -0.55189,0.29536 h -0.69625 -0.69625 l -0.51918,-0.27786 -0.51918,-0.27785 0.14229,-0.23024 0.1423,-0.23024 5.0043,0.007 5.0043,0.007 0.32565,-0.20127 0.32566,-0.20126 -0.17749,0.28718 -0.17749,0.28718 0.25062,0.15489 0.25062,0.15489 0.16618,-0.2689 0.16619,-0.2689 h 1.55627 1.55627 l 0.17147,0.27743 0.17146,0.27743 0.35376,-0.2936 0.35377,-0.2936 1.14403,0.0823 1.14404,0.0823 v 0.39688 0.39687 l -3.70417,0.0493 -3.70417,0.0493 -0.26458,0.0449 -0.26458,0.0449 -0.79376,-0.0546 -0.79375,-0.0546 -0.50313,-0.26883 -0.50314,-0.26883 0.13872,0.36151 0.13872,0.3615 h -2.18158 -2.18159 z m 15.82302,0.24847 -0.77192,-0.15155 -0.10998,-0.33059 -0.10997,-0.33059 0.40377,-0.15494 0.40377,-0.15494 -0.24948,-0.65617 -0.24948,-0.65618 v -0.11506 -0.11507 h 3.05833 3.05832 l -0.15638,0.25303 -0.15638,0.25303 -0.45455,-0.1629 -0.45454,-0.16289 0.19606,0.21617 0.19606,0.21617 -0.91055,0.88432 -0.91055,0.88432 h -0.55968 -0.55967 l -0.44563,0.21769 -0.44563,0.21769 z m -62.48502,-0.3037 -0.81527,-0.23673 -0.50764,-0.56094 -0.50765,-0.56094 v -1.28913 -1.28912 l 0.67876,-0.67876 0.67876,-0.67876 2.87179,-0.51788 2.8718,-0.51788 h 27.85196 27.85195 l 2.09866,0.50125 2.09867,0.50125 0.55786,0.29857 0.55787,0.29856 0.27185,0.50795 0.27184,0.50794 1.12328,0.10123 1.12329,0.10122 -1.12448,0.0462 -1.12448,0.0462 v 0.26458 0.26458 h -2.49835 -2.49835 l 0.10888,-0.5654 0.10889,-0.5654 0.4461,-0.49293 0.44609,-0.49293 -1.56236,0.0375 -1.56236,0.0376 1.05833,0.18949 1.05834,0.18949 -0.99219,0.0376 -0.99219,0.0375 v 0.26459 0.26458 h -0.52917 -0.52916 v -0.26458 -0.26459 h -1.85209 -1.85208 v 0.26459 0.26458 h -0.52917 -0.52916 v -0.26458 -0.26459 h -1.85209 -1.85208 v 0.26459 0.26458 h -0.52917 -0.52916 v -0.26458 -0.26459 h -1.85209 -1.85208 v 0.26459 0.26458 h -0.52917 -0.52916 v -0.26458 -0.26459 h -1.83004 -1.83003 l -0.11977,0.33073 -0.11978,0.33073 -0.56014,-0.33073 -0.56015,-0.33073 h -1.72338 -1.72338 v 0.26459 0.26458 h -0.39688 -0.39687 v -0.26458 -0.26459 h -1.85208 -1.85209 v 0.26459 0.26458 h -0.52916 -0.52917 v -0.26458 -0.26459 h -1.85208 -1.85209 v 0.26459 0.26458 h -0.52916 -0.52917 v -0.26458 -0.26459 h -1.85208 -1.85209 v 0.26459 0.26458 h -0.52916 -0.52917 v -0.26458 -0.26459 h -1.85208 -1.85209 v 0.26459 0.26458 h -0.52916 -0.52917 v -0.26458 -0.26459 h -1.85208 -1.85209 v 0.26459 0.26458 h -0.52916 -0.52917 v -0.26458 -0.26459 h -1.85208 -1.85209 v 0.26459 0.26458 h -0.52916 -0.52917 v -0.26458 -0.26459 h -1.98438 -1.98437 v 0.26459 0.26458 h -1.98438 -1.98437 v 1.20155 1.20156 l 1.32292,0.82237 1.32291,0.82237 v 0.0927 0.0927 l -0.33073,-0.0239 -0.33073,-0.0239 z m 6.43767,-4.92502 -0.46302,-0.121 -0.46302,0.121 -0.46302,0.121 h 0.92604 0.92604 z m 4.22743,-0.0107 -0.99809,-0.10414 -0.85399,0.10627 -0.854,0.10627 1.85209,-0.002 1.85208,-0.002 z m 4.7684,3.5e-4 -0.99218,-0.10379 -0.99219,0.10379 -0.99219,0.10379 h 1.98438 1.98437 z m 4.7625,0 -0.99218,-0.10379 -0.99219,0.10379 -0.99219,0.10379 h 1.98438 1.98437 z m 4.7625,0 -0.99218,-0.10379 -0.99219,0.10379 -0.99219,0.10379 h 1.98438 1.98437 z m 4.49202,-3.5e-4 -0.99809,-0.10414 -0.85399,0.10627 -0.854,0.10627 1.85208,-0.002 1.85209,-0.002 z m 4.7625,0 -0.99809,-0.10414 -0.85399,0.10627 -0.854,0.10627 1.85208,-0.002 1.85209,-0.002 z m 4.7625,0 -0.99809,-0.10414 -0.85399,0.10627 -0.854,0.10627 1.85208,-0.002 1.85209,-0.002 z m 4.7625,0 -0.99809,-0.10414 -0.85399,0.10627 -0.854,0.10627 1.85208,-0.002 1.85209,-0.002 z m 4.7684,3.5e-4 -0.99219,-0.10379 -0.99218,0.10379 -0.99219,0.10379 h 1.98437 1.98438 z m 4.7625,0 -0.99219,-0.10379 -0.99218,0.10379 -0.99219,0.10379 h 1.98437 1.98438 z m 4.7625,0 -0.99219,-0.10379 -0.99218,0.10379 -0.99219,0.10379 h 1.98437 1.98438 z m -3.10885,2.06599 v -0.24342 h -2.66877 -2.66876 l -0.15346,-0.15346 -0.15346,-0.15345 h 3.0785 3.07851 l -0.1523,0.39687 -0.15229,0.39688 h -0.10399 -0.10398 z m -48.31374,-0.32989 -0.13624,-0.22044 h 2.04408 2.04409 l -0.11024,0.109 -0.11025,0.109 -1.7976,0.11144 -1.7976,0.11144 z m 5.36199,-0.0179 -0.30763,-0.19439 3.28524,-0.004 3.28525,-0.004 -0.18364,0.18363 -0.18364,0.18364 -2.79398,0.0148 -2.79398,0.0148 z m 8.41478,0.0283 -0.78491,-0.16821 3.04271,-0.0104 3.04271,-0.0104 -0.26459,0.0973 -0.26458,0.0973 -1.99322,0.0813 -1.99321,0.0813 z m 8.34322,0.0269 -1.7198,-0.16638 3.02066,-0.0457 3.02066,-0.0457 -0.11151,0.11151 -0.11152,0.11152 -1.18935,0.10053 -1.18935,0.10053 z m 5.99815,-0.0527 -0.30961,-0.19695 3.28524,-0.004 3.28524,-0.004 -0.15091,0.15091 -0.15092,0.15092 -2.82471,0.0501 -2.82472,0.0501 z m 8.55393,0.0365 -1.45521,-0.15531 3.15295,-0.0431 3.15295,-0.0431 -0.11024,0.1069 -0.11024,0.10691 -1.5875,0.0915 -1.5875,0.0915 z m 14.68438,9.2e-4 -1.05834,-0.16739 2.09462,-0.0376 2.09462,-0.0375 -0.11983,0.11982 -0.11983,0.11983 -0.91645,0.0851 -0.91646,0.0851 z"
           id="path111" /><path
           style="fill:#7a7a7a;fill-opacity:1"
           d="m 686.02124,175.14411 -1.38906,-0.0972 v -0.25076 -0.25076 h 1.45521 1.45521 v 0.39688 0.39687 l -0.0661,-0.0489 -0.0661,-0.0489 z m -5.4658,-0.77883 -0.70931,-0.70932 0.0779,-1.44656 0.0779,-1.44655 0.67187,-0.50001 0.67186,-0.5 2.87869,-0.51913 2.87869,-0.51912 27.67028,0.007 27.67028,0.007 2.49918,0.62371 2.49919,0.62371 0.47738,0.58954 0.47738,0.58954 v 0.49986 0.49985 h -2.38125 -2.38125 v -0.57448 -0.57447 l 0.43788,-0.48386 0.43788,-0.48385 h -1.49621 -1.49622 v 0.52916 0.52917 h -0.52917 -0.52916 v -0.52917 -0.52916 h -1.85209 -1.85208 v 0.52916 0.52917 h -0.52917 -0.52916 v -0.52917 -0.52916 h -1.85209 -1.85208 v 0.52916 0.52917 h -0.52917 -0.52916 v -0.52917 -0.52916 h -1.85209 -1.85208 v 0.52916 0.52917 h -0.42165 -0.42164 l -0.13838,-0.52917 -0.13838,-0.52916 h -1.82123 -1.82122 v 0.52916 0.52917 h -0.42165 -0.42164 l -0.13838,-0.52917 -0.13838,-0.52916 h -1.6711 -1.67111 l -0.16795,0.52916 -0.16795,0.52917 h -0.36122 -0.36121 l -0.16795,-0.52917 -0.16795,-0.52916 h -1.68414 -1.68413 l -0.16795,0.52916 -0.16795,0.52917 h -0.37905 -0.37904 v -0.52917 -0.52916 h -1.85208 -1.85209 v 0.52916 0.52917 h -0.52916 -0.52917 v -0.52917 -0.52916 h -1.85208 -1.85209 v 0.52916 0.52917 h -0.52916 -0.52917 v -0.52917 -0.52916 h -1.85208 -1.85209 v 0.52916 0.52917 h -0.52916 -0.52917 v -0.52917 -0.52916 h -1.85208 -1.85209 v 0.52916 0.52917 h -0.52916 -0.52917 v -0.52917 -0.52916 h -1.85208 -1.85209 v 0.52916 0.52917 h -0.42164 -0.42165 l -0.13515,-0.51682 -0.13515,-0.51682 -2.10122,0.0538 -2.10123,0.0538 0.11971,0.46302 0.11971,0.46302 h -0.0773 -0.0773 l -0.75785,-0.39525 -0.75784,-0.39524 -0.39688,0.0185 -0.39687,0.0185 0.92604,0.35661 0.92604,0.35662 -1.65365,0.0201 -1.65364,0.0201 v 1.27842 1.27843 l 1.25677,0.69951 1.25677,0.69952 -0.82382,0.006 -0.82381,0.006 z m 66.70209,-3.40009 -0.74235,-0.6531 h -0.51442 -0.51441 v 0.21658 0.21658 l 0.8599,0.42796 0.85989,0.42795 0.39688,0.009 0.39687,0.009 z m -59.18576,3.84482 v -0.26459 h 1.32291 1.32292 v 0.26459 0.26458 h -1.32292 -1.32291 z m 2.91041,-0.005 v -0.24303 l 9.39271,0.004 9.39271,0.004 v 0.23935 0.23934 h -9.39271 -9.39271 z m 19.05,0.0167 v -0.25283 h 5.29167 5.29167 v 0.25283 0.25282 h -5.29167 -5.29167 z m 10.84792,-0.013 v -0.23935 l 9.39271,-0.004 9.39271,-0.004 v 0.24303 0.24303 h -9.39271 -9.39271 z m 19.05,0.001 v -0.26459 h 1.45521 1.45521 v 0.26459 0.26458 h -1.45521 -1.45521 z m 3.175,0 v -0.26459 h 0.52917 0.52916 v -0.24897 -0.24896 l -0.23264,-0.14379 -0.23265,-0.14378 -0.13946,-0.53329 -0.13946,-0.53329 h 2.48878 2.48877 v 0.41723 0.41722 l -0.7734,0.7734 -0.7734,0.7734 h -1.87243 -1.87244 z m -58.45203,-2.80018 0.0209,-0.50712 0.13896,0.34727 0.13897,0.34727 -0.15986,0.15985 -0.15985,0.15985 z m 3.68328,-0.16694 v -0.20788 h 0.52917 0.52916 v 0.20788 0.20789 h -0.52916 -0.52917 z m 5.29167,0.0567 -0.39688,-0.25648 0.46302,-0.004 0.46302,-0.004 v 0.26458 0.26458 l -0.0661,-0.004 -0.0661,-0.004 z m 4.23333,-0.0567 v -0.20788 h 0.52917 0.52916 v 0.20788 0.20789 h -0.52916 -0.52917 z m 4.7625,0 v -0.20788 h 0.52917 0.52916 v 0.20788 0.20789 h -0.52916 -0.52917 z m 18.78542,0.0567 v -0.26458 h 0.28019 0.2802 l -0.16352,0.26458 -0.16352,0.26458 h -0.11668 -0.11667 z m 4.7625,-0.0567 v -0.20788 h 0.52916 0.52917 v 0.20788 0.20789 h -0.52917 -0.52916 z m 5.15937,0.0567 -0.52917,-0.22739 0.59532,-0.0186 0.59531,-0.0186 v 0.26458 0.26458 l -0.0661,-0.0186 -0.0661,-0.0186 z m 4.36563,-0.0567 v -0.20788 h 0.52916 0.52917 v 0.20788 0.20789 h -0.52917 -0.52916 z m 4.7625,0 v -0.20788 h 0.52916 0.52917 v 0.20788 0.20789 h -0.52917 -0.52916 z"
           id="path110" /><path
           style="fill:#686868;fill-opacity:1"
           d="m 680.68373,174.38961 -0.81405,-0.68498 v -1.31142 -1.31142 l 0.61131,-0.61131 0.61131,-0.61131 2.36526,-0.49811 2.36525,-0.4981 28.24984,-0.075 28.24984,-0.075 1.64808,0.41869 1.64807,0.4187 0.99042,0.25829 0.99042,0.25828 0.39865,0.77089 0.39864,0.77089 -0.009,0.34387 -0.009,0.34386 -0.35048,-0.63233 -0.35048,-0.63234 -0.63233,-0.35047 -0.63234,-0.35048 -0.61566,-0.009 -0.61567,-0.009 -0.7734,0.7734 -0.77339,0.77339 v -0.31765 -0.31765 l 0.41187,-0.58804 0.41188,-0.58803 h -1.43935 -1.43935 l -0.13838,0.52916 -0.13838,0.52917 h -0.42165 -0.42164 v -0.52917 -0.52916 h -1.85209 -1.85208 v 0.52916 0.52917 h -0.52917 -0.52916 v -0.52917 -0.52916 h -1.85209 -1.85208 v 0.52916 0.52917 h -0.42165 -0.42164 l -0.13838,-0.52917 -0.13838,-0.52916 h -1.82123 -1.82122 v 0.52916 0.52917 h -0.42165 -0.42164 l -0.13332,-0.50983 -0.13333,-0.50983 -2.11695,-0.0855 -2.11696,-0.0855 -0.12181,0.19844 -0.12182,0.19844 h 0.41249 0.41249 v 0.39687 0.39688 h -0.37905 -0.37904 l -0.16167,-0.50938 -0.16167,-0.50938 -2.10574,-0.0859 -2.10574,-0.0859 6.2e-4,0.19844 6.2e-4,0.19844 h 0.26459 0.26458 v 0.39687 0.39688 h -0.39688 -0.39687 v -0.52917 -0.52916 h -1.83044 -1.83045 l -0.41851,-0.1606 -0.41852,-0.1606 v 0.29289 0.29289 h 0.38857 0.38857 l -0.15229,0.39687 -0.1523,0.39688 h -0.36856 -0.36857 v -0.50902 -0.50902 l -2.14276,-0.0863 -2.14275,-0.0863 -0.12182,0.19844 -0.12182,0.19844 h 0.43454 0.43454 l -0.11012,0.33073 -0.11012,0.33073 -0.44109,0.0855 -0.4411,0.0856 v -0.54857 -0.54856 h -1.85208 -1.85209 v 0.52916 0.52917 h -0.52916 -0.52917 v -0.52917 -0.52916 h -1.85208 -1.85209 v 0.52916 0.52917 h -0.52916 -0.52917 v -0.52917 -0.52916 h -1.85208 -1.85209 v 0.52916 0.52917 h -0.42164 -0.42165 l -0.13332,-0.50983 -0.13333,-0.50983 -2.11695,-0.0855 -2.11695,-0.0855 -0.12182,0.19844 -0.12182,0.19844 h 0.41249 0.41249 v 0.39687 0.39688 h -0.42164 -0.42165 l -0.13838,-0.52917 -0.13838,-0.52916 h -2.22741 -2.22741 l 0.31331,0.58542 0.31331,0.58542 -0.69156,-0.45313 -0.69157,-0.45313 h -0.5638 -0.5638 l -0.75156,0.44396 -0.75156,0.44396 -0.14068,0.56051 -0.14068,0.56051 0.1999,0.74746 0.1999,0.74745 1.17659,0.62933 1.1766,0.62932 h -0.70322 -0.70321 z m 13.20887,-4.3421 v -0.26459 h -0.11668 -0.11667 l -0.16353,0.26459 -0.16352,0.26458 h 0.2802 0.2802 z m 4.7625,0 v -0.26459 h -0.11668 -0.11667 l -0.16353,0.26459 -0.16352,0.26458 h 0.2802 0.2802 z m 4.7625,0 v -0.26459 h -0.11668 -0.11667 l -0.16353,0.26459 -0.16352,0.26458 h 0.2802 0.2802 z m 23.54792,0 v -0.26459 h -0.11668 -0.11668 l -0.16352,0.26459 -0.16352,0.26458 h 0.2802 0.2802 z m 4.7625,0 v -0.26459 h -0.11668 -0.11668 l -0.16352,0.26459 -0.16352,0.26458 h 0.2802 0.2802 z m 4.7625,0 v -0.26459 h -0.11668 -0.11668 l -0.16352,0.26459 -0.16352,0.26458 h 0.2802 0.2802 z m 4.7625,0 v -0.26459 h -0.11668 -0.11668 l -0.16352,0.26459 -0.16352,0.26458 h 0.2802 0.2802 z m -56.62084,4.7625 v -0.26459 h 1.45521 1.45521 v 0.26459 0.26458 h -1.45521 -1.45521 z m 3.43959,0 v -0.26459 h 1.32291 1.32292 v 0.26459 0.26458 h -1.32292 -1.32291 z m 2.91041,0 v -0.23813 h 9.39271 9.39271 v 0.23813 0.23812 h -9.39271 -9.39271 z m 19.05,0 v -0.26459 h 1.5875 1.5875 v 0.26459 0.26458 h -1.5875 -1.5875 z m 3.43959,0 v -0.26459 h 1.85208 1.85208 v 0.26459 0.26458 h -1.85208 -1.85208 z m 4.10104,0 -0.16352,-0.26459 h 1.60311 1.60312 v 0.26459 0.26458 h -1.4396 -1.43959 z m 3.30729,-5.2e-4 v -0.24304 l 5.54805,0.001 5.54805,0.001 0.1493,0.24156 0.14929,0.24156 h -5.69735 -5.69734 z m 11.64167,-0.001 v -0.24153 l 3.57187,-0.004 3.57188,-0.004 v 0.25245 0.25245 l -3.57188,-0.007 -3.57187,-0.007 z m 7.40833,0.002 v -0.26459 h 1.32292 1.32291 v 0.26459 0.26458 h -1.32291 -1.32292 z m 3.175,0 v -0.26459 h 0.67646 0.67646 l -0.41188,-0.58803 -0.41187,-0.58804 v -0.33801 -0.338 h 0.57326 0.57326 l -0.1806,0.18061 -0.18061,0.18061 1.26099,0.61072 1.26099,0.61072 0.3435,0.002 0.3435,0.002 0.37375,-0.8599 0.37374,-0.85989 0.0104,0.34812 0.0104,0.34812 -0.27243,0.50904 -0.27243,0.50903 -0.77276,0.39962 -0.77277,0.39961 h -1.60064 -1.60064 z m -45.24375,-2.93519 v -0.23981 h 0.52917 0.52916 v 0.10143 0.10143 l -0.52916,0.13838 -0.52917,0.13838 z m -4.28294,-0.15597 0.34726,-0.13896 0.15985,0.15985 0.15986,0.15985 -0.50712,-0.0209 -0.50712,-0.0209 z m 37.55429,0.006 0.33073,-0.13345 0.33073,0.13345 0.33073,0.13345 h -0.66146 -0.66146 z m 4.7625,0 0.33073,-0.13345 0.33073,0.13345 0.33073,0.13345 h -0.66146 -0.66145 z"
           id="path109" /><path
           style="fill:#575757;fill-opacity:1"
           d="m 680.64308,174.30119 -0.7734,-0.7734 0.0104,-0.48337 0.0104,-0.48337 0.3604,0.82813 0.36039,0.82813 0.33376,0.20628 0.33376,0.20628 0.81684,0.19527 0.81685,0.19528 -0.74796,0.0271 -0.74795,0.0271 z m 3.9891,0.50882 v -0.26459 h 1.45521 1.45521 v 0.26459 0.26458 h -1.45521 -1.45521 z m 3.43959,0 v -0.26459 h 1.32291 1.32292 v 0.26459 0.26458 h -1.32292 -1.32291 z m 2.91041,0.002 v -0.25245 l 3.57188,0.004 3.57187,0.004 v 0.24153 0.24153 l -3.57187,0.007 -3.57188,0.007 z m 7.54002,-8.7e-4 0.14929,-0.24156 5.54806,-0.001 5.54805,-0.001 v 0.24304 0.24305 h -5.69734 -5.69735 z m 11.50998,-9.7e-4 v -0.26459 h 1.60312 1.60311 l -0.16352,0.26459 -0.16352,0.26458 h -1.43959 -1.4396 z m 3.43959,0 v -0.26459 h 1.85208 1.85208 v 0.26459 0.26458 h -1.85208 -1.85208 z m 4.10104,0 -0.16352,-0.26459 h 1.60311 1.60312 v 0.26459 0.26458 h -1.4396 -1.43959 z m 3.30729,-5.2e-4 v -0.24304 l 5.54805,0.001 5.54805,0.001 0.1493,0.24156 0.14929,0.24156 h -5.69735 -5.69734 z m 11.64167,-0.001 v -0.24153 l 3.57187,-0.004 3.57188,-0.004 v 0.25245 0.25245 l -3.57188,-0.007 -3.57187,-0.007 z m 7.40833,0.002 v -0.26459 h 1.32292 1.32291 v 0.26459 0.26458 h -1.32291 -1.32292 z m 3.175,0 v -0.26459 l 0.8599,0.0313 0.85989,0.0313 0.79375,0.20198 0.79375,0.20197 -1.65364,0.0313 -1.65365,0.0313 z m -63.22482,-3.12088 -0.0106,-0.60734 0.6056,-0.6056 0.60559,-0.60559 2.40889,-0.44071 2.40889,-0.44072 h 28.53104 28.53103 l 2.07414,0.44571 2.07413,0.44571 0.64389,0.76522 0.64389,0.76521 -0.0106,0.44272 -0.0106,0.44272 -0.39125,-0.72095 -0.39124,-0.72095 -0.50681,-0.27123 -0.50681,-0.27124 -0.745,0.008 -0.74499,0.008 -0.41609,0.32231 -0.41608,0.32232 -0.30347,0.52916 -0.30348,0.52917 -0.008,-0.46302 -0.008,-0.46302 0.52916,-0.52917 0.52917,-0.52916 h -1.56586 -1.56586 l -0.41852,-0.1606 -0.41851,-0.1606 v 0.29289 0.29289 h 0.41892 0.41893 l -0.11012,0.33073 -0.11012,0.33073 -0.4411,0.0855 -0.44109,0.0856 v -0.54857 -0.54856 h -1.83045 -1.83044 l -0.41852,-0.1606 -0.41851,-0.1606 v 0.29289 0.29289 h 0.41892 0.41893 l -0.10473,0.31419 -0.10473,0.3142 -0.33168,0.11055 -0.33167,0.11056 -0.14567,-0.55704 -0.14567,-0.55704 h -1.79959 -1.79958 l -0.41852,-0.1606 -0.41851,-0.1606 v 0.29289 0.29289 h 0.39687 0.39688 v 0.39687 0.39688 h -0.42165 -0.42164 l -0.13838,-0.52917 -0.13838,-0.52916 -2.01966,-0.0143 -2.01967,-0.0143 -9.59113,-0.0519 -9.59113,-0.0519 -2e-5,0.19844 -10e-6,0.19844 h 0.38857 0.38857 l -0.15229,0.39687 -0.1523,0.39688 h -0.36856 -0.36857 v -0.52917 -0.52916 h -1.83044 -1.83045 l -0.41851,-0.1606 -0.41852,-0.1606 v 0.29289 0.29289 h 0.41893 0.41892 l -0.10473,0.31419 -0.10473,0.3142 -0.33168,0.11055 -0.33167,0.11056 -0.14567,-0.55704 -0.14567,-0.55704 h -1.79958 -1.79959 l -0.41851,-0.1606 -0.41852,-0.1606 v 0.29289 0.29289 h 0.41893 0.41892 l -0.10473,0.31419 -0.10473,0.3142 -0.33168,0.11055 -0.33167,0.11056 -0.14567,-0.55704 -0.14567,-0.55704 h -1.79958 -1.79959 l -0.41851,-0.1606 -0.41852,-0.1606 v 0.29289 0.29289 h 0.39688 0.39687 v 0.39687 0.39688 h -0.42164 -0.42165 l -0.13838,-0.52917 -0.13838,-0.52916 -2.01966,-0.0248 -2.01966,-0.0249 -2.51354,0.0478 -2.51355,0.0478 -0.10385,0.10292 -0.10384,0.10292 0.36843,0.45679 0.36843,0.45679 -0.65418,-0.4504 -0.65419,-0.45039 h -0.75227 -0.75227 l -0.50681,0.27124 -0.50681,0.27123 -0.39125,0.72095 -0.39124,0.72095 z m 8.63172,-0.96259 -0.14555,-0.3793 0.51411,0.0387 0.51412,0.0387 v 0.34057 0.34057 h -0.36857 -0.36856 z m 23.65774,-0.0837 0.0209,-0.46302 0.14343,0.36067 0.14343,0.36066 0.2285,-0.36066 0.22851,-0.36067 0.004,0.46302 0.004,0.46302 h -0.39688 -0.39687 z m 4.7625,0 0.0209,-0.46302 0.14343,0.36067 0.14343,0.36066 0.2285,-0.36066 0.22851,-0.36067 0.004,0.46302 0.004,0.46302 h -0.39688 -0.39687 z m 4.65267,0.0837 -0.14555,-0.3793 0.51412,0.0387 0.51412,0.0387 v 0.34057 0.34057 h -0.36857 -0.36857 z m 4.76325,0.20291 -0.17639,-0.17639 v -0.20404 -0.20404 l 0.52916,0.0399 0.52917,0.0399 v 0.34057 0.34057 h -0.35278 -0.35278 z"
           id="path108" /><path
           style="fill:#454545;fill-opacity:1"
           d="m 684.63218,174.81001 v -0.26459 h 1.45521 1.45521 v 0.26459 0.26458 h -1.45521 -1.45521 z m 3.43959,0 v -0.26459 h 1.33853 1.33853 l -0.16352,0.26459 -0.16352,0.26458 h -1.17501 -1.17501 z m 2.91041,0 v -0.26459 h 1.85209 1.85208 v 0.26459 0.26458 h -1.85208 -1.85209 z m 4.10104,0 -0.16352,-0.26459 h 1.60312 1.60311 v 0.26459 0.26458 h -1.43959 -1.43959 z m 3.43959,0 0.16352,-0.26459 h 1.68856 1.68856 l 0.16352,0.26459 0.16353,0.26458 h -2.01561 -2.0156 z m 4.10104,-0.002 v -0.24206 l 3.429,-0.002 3.42901,-0.002 0.15532,0.25131 0.15532,0.25132 -3.58433,-0.007 -3.58432,-0.007 z m 7.40833,0.002 v -0.26459 h 1.60312 1.60311 l -0.16352,0.26459 -0.16352,0.26458 h -1.43959 -1.4396 z m 3.43959,0 v -0.26459 h 1.85208 1.85208 v 0.26459 0.26458 h -1.85208 -1.85208 z m 4.10104,0 -0.16352,-0.26459 h 1.60311 1.60312 v 0.26459 0.26458 h -1.4396 -1.43959 z m 3.43771,0.003 0.15532,-0.25131 3.429,0.002 3.42901,0.002 v 0.24206 0.24207 l -3.58433,0.007 -3.58432,0.007 z m 7.4102,-0.003 0.16353,-0.26459 h 1.68856 1.68856 l 0.16352,0.26459 0.16352,0.26458 h -2.0156 -2.01561 z m 4.10105,0 v -0.26459 h 1.60311 1.60312 l -0.16352,0.26459 -0.16353,0.26458 h -1.43959 -1.43959 z m 3.43958,0 v -0.26459 h 1.85208 1.85209 v 0.26459 0.26458 h -1.85209 -1.85208 z m 4.10104,0 -0.16352,-0.26459 h 1.33853 1.33853 v 0.26459 0.26458 h -1.17501 -1.17501 z m 3.30729,0 v -0.26459 l 0.59532,0.0264 0.59531,0.0264 0.66146,0.21184 0.66146,0.21183 -1.25678,0.0264 -1.25677,0.0264 z m -63.00458,-0.72761 -0.36313,-0.46302 0.46302,0.36313 0.46303,0.36312 v 0.0999 0.0999 h -0.0999 -0.0999 z m -0.47453,-1.01423 0.0209,-0.50712 0.13896,0.34726 0.13897,0.34727 -0.15986,0.15985 -0.15985,0.15985 z m -0.0103,-1.08998 -0.0106,-0.31828 0.29381,-0.64484 0.29381,-0.64484 0.56609,-0.28521 0.56608,-0.28521 2.21204,-0.40532 2.21204,-0.40532 28.61192,0.005 28.61192,0.005 1.98438,0.51323 1.98437,0.51324 0.59531,0.68761 0.59532,0.68761 -0.0106,0.44827 -0.0106,0.44826 -0.39125,-0.72095 -0.39124,-0.72095 -0.50681,-0.27123 -0.50681,-0.27124 h -0.82317 -0.82317 l -0.64943,0.64943 -0.64943,0.64943 v -0.16935 -0.16936 l 0.57528,-0.61237 0.57529,-0.61236 -0.64143,-0.0141 -0.64143,-0.0141 -27.51667,0.003 -27.51667,0.003 -2.4884,0.0112 -2.48841,0.0112 0.50403,0.59531 0.50403,0.59531 -0.55,-0.46302 -0.55,-0.46302 h -0.85646 -0.85645 l -0.50681,0.27124 -0.50681,0.27123 -0.39125,0.72095 -0.39124,0.72095 z m 9.04095,-1.24254 0.34116,-0.37019 0.0926,0.088 0.0926,0.088 -0.1744,0.28218 -0.1744,0.28219 h -0.2594 -0.2594 z m 4.35952,0.19931 -0.1819,-0.1819 v -0.22048 -0.22049 h 0.2802 0.2802 l -0.16353,0.26458 -0.16352,0.26459 h 0.25815 0.25815 l 0.11024,-0.19844 0.11025,-0.19844 -0.0386,0.24805 -0.0386,0.24805 -0.26459,0.0882 -0.26458,0.0882 z m 4.7625,0 -0.1819,-0.1819 0.004,-0.28663 0.004,-0.28663 0.26053,0.39687 0.26054,0.39688 0.28472,-0.39688 0.28473,-0.39687 -0.10283,0.38034 -0.10282,0.38034 -0.26459,0.0882 -0.26458,0.0882 z m 4.7625,0 -0.1819,-0.1819 0.004,-0.28663 0.004,-0.28663 0.26053,0.39687 0.26054,0.39688 0.28472,-0.39688 0.28473,-0.39687 -0.10283,0.38034 -0.10282,0.38034 -0.26459,0.0882 -0.26458,0.0882 z m 4.70201,-0.11131 -0.1744,-0.28218 0.0926,-0.088 0.0926,-0.088 0.34116,0.37019 0.34116,0.37019 h -0.2594 -0.2594 z m 4.7625,0 -0.1744,-0.28218 0.15879,-0.15879 0.15878,-0.15878 0.004,0.37482 0.004,0.37483 0.25648,-0.39688 0.25648,-0.39687 0.004,0.46302 0.004,0.46302 h -0.24897 -0.24897 z m 4.7625,0 -0.1744,-0.28218 0.15879,-0.15879 0.15878,-0.15878 0.004,0.37482 0.004,0.37483 0.25648,-0.39688 0.25648,-0.39687 0.004,0.46302 0.004,0.46302 h -0.24897 -0.24897 z m 4.66198,-0.18083 0.0209,-0.46302 0.14343,0.36067 0.14343,0.36066 0.2285,-0.36066 0.22851,-0.36067 0.004,0.46302 0.004,0.46302 h -0.39688 -0.39687 z m 5.06191,0.0928 0.34116,-0.37019 0.0926,0.088 0.0926,0.088 -0.1744,0.28218 -0.1744,0.28219 h -0.2594 -0.2594 z m 4.35952,0.19931 -0.1819,-0.1819 v -0.22048 -0.22049 h 0.28019 0.2802 l -0.16352,0.26458 -0.16352,0.26459 h 0.25815 0.25815 l 0.11024,-0.19844 0.11025,-0.19844 -0.0386,0.24805 -0.0386,0.24805 -0.26459,0.0882 -0.26458,0.0882 z m 4.7625,0 -0.1819,-0.1819 0.004,-0.28663 0.004,-0.28663 0.26053,0.39687 0.26053,0.39688 0.28473,-0.39688 0.28473,-0.39687 -0.10283,0.38034 -0.10282,0.38034 -0.26459,0.0882 -0.26458,0.0882 z m 4.70201,-0.11131 -0.1744,-0.28218 0.0926,-0.088 0.0926,-0.088 0.34116,0.37019 0.34116,0.37019 h -0.2594 -0.2594 z"
           id="path107" /><path
           style="fill:#333333;fill-opacity:1"
           d="m 684.63218,174.81001 v -0.26459 h 1.45521 1.45521 v 0.26459 0.26458 h -1.45521 -1.45521 z m 3.43959,0 v -0.26459 h 1.33853 1.33853 l -0.16352,0.26459 -0.16352,0.26458 h -1.17501 -1.17501 z m 3.0427,0 0.16353,-0.26459 h 1.70417 1.70418 v 0.26459 0.26458 h -1.8677 -1.8677 z m 3.96875,0 -0.16352,-0.26459 h 1.60312 1.60311 v 0.26459 0.26458 h -1.43959 -1.43959 z m 3.43959,0 0.16352,-0.26459 h 1.68856 1.68856 l 0.16352,0.26459 0.16353,0.26458 h -2.01561 -2.0156 z m 4.10104,0 v -0.26459 h 1.60311 1.60312 l -0.16352,0.26459 -0.16352,0.26458 h -1.4396 -1.43959 z m 3.43958,0 v -0.26459 h 1.70418 1.70418 l 0.16352,0.26459 0.16352,0.26458 h -1.8677 -1.8677 z m 4.10104,0 -0.16352,-0.26459 h 1.61873 1.61873 l -0.16352,0.26459 -0.16352,0.26458 h -1.29169 -1.29168 z m 3.3073,0 v -0.26459 h 1.85208 1.85208 v 0.26459 0.26458 h -1.85208 -1.85208 z m 4.10104,0 -0.16352,-0.26459 h 1.60311 1.60312 v 0.26459 0.26458 h -1.4396 -1.43959 z m 3.43958,0 0.16352,-0.26459 h 1.70418 1.70418 v 0.26459 0.26458 h -1.8677 -1.8677 z m 3.96875,0 -0.16352,-0.26459 h 1.60311 1.60312 v 0.26459 0.26458 h -1.43959 -1.4396 z m 3.43958,0 0.16353,-0.26459 h 1.68856 1.68856 l 0.16352,0.26459 0.16352,0.26458 h -2.0156 -2.01561 z m 4.10105,0 v -0.26459 h 1.60311 1.60312 l -0.16352,0.26459 -0.16353,0.26458 h -1.43959 -1.43959 z m 3.43958,0 v -0.26459 h 1.70418 1.70417 l 0.16353,0.26459 0.16352,0.26458 h -1.8677 -1.8677 z m 4.10104,0 -0.16352,-0.26459 h 1.33853 1.33853 v 0.26459 0.26458 h -1.17501 -1.17501 z m 3.30729,0 v -0.26459 l 0.59532,0.0186 0.59531,0.0186 0.52917,0.22739 0.52916,0.22739 -1.12448,0.0186 -1.12448,0.0186 z m -63.48323,-2.97239 -0.0168,-0.45885 0.72761,-0.77174 0.7276,-0.77175 2.41917,-0.42305 2.41918,-0.42306 h 28.32188 28.32188 l 2.16554,0.51723 2.16555,0.51723 0.49705,0.44982 0.49704,0.44982 v 0.2315 0.2315 l -0.7276,-0.5106 -0.7276,-0.5106 -0.73985,-0.16689 -0.73984,-0.1669 -0.78151,0.78151 -0.78151,0.78151 v -0.20322 -0.20323 l 0.53079,-0.48035 0.53078,-0.48036 -0.12823,-0.12823 -0.12823,-0.12824 -29.96975,0.0232 -29.96974,0.0232 -1.45521,0.16412 -1.45521,0.16413 -0.60954,0.3957 -0.60955,0.39571 -0.23358,0.57989 -0.23358,0.57988 z m 9.03478,-1.10197 0.34116,-0.37019 0.0926,0.088 0.0926,0.088 -0.1744,0.28218 -0.1744,0.28219 h -0.2594 -0.2594 z m 4.7625,0 0.34116,-0.37019 0.0926,0.088 0.0926,0.088 -0.1744,0.28218 -0.1744,0.28219 h -0.2594 -0.2594 z m 4.35952,0.19931 -0.1819,-0.1819 0.004,-0.28663 0.004,-0.28663 0.26053,0.39687 0.26054,0.39688 0.28472,-0.39688 0.28473,-0.39687 -0.10283,0.38034 -0.10282,0.38034 -0.26459,0.0882 -0.26458,0.0882 z m 4.70201,-0.11131 -0.1744,-0.28218 0.0926,-0.088 0.0926,-0.088 0.34116,0.37019 0.34116,0.37019 h -0.2594 -0.2594 z m 4.7625,0 -0.1744,-0.28218 0.0926,-0.088 0.0926,-0.088 0.34116,0.37019 0.34116,0.37019 h -0.2594 -0.2594 z m 4.7625,0 -0.1744,-0.28218 0.0926,-0.088 0.0926,-0.088 0.34116,0.37019 0.34116,0.37019 h -0.2594 -0.2594 z m 9.81748,-0.0599 0.18065,-0.47443 0.14811,0.14811 0.14811,0.14811 -0.32876,0.32632 -0.32877,0.32632 z m 4.66891,-0.0281 0.34116,-0.37019 0.0926,0.088 0.0926,0.088 -0.1744,0.28218 -0.1744,0.28219 h -0.2594 -0.2594 z m 4.7625,0 0.34116,-0.37019 0.0926,0.088 0.0926,0.088 -0.1744,0.28218 -0.1744,0.28219 h -0.2594 -0.2594 z m 4.29903,0.088 -0.1744,-0.28218 0.0926,-0.088 0.0926,-0.088 0.34116,0.37019 0.34116,0.37019 h -0.2594 -0.2594 z m 4.7625,0 -0.1744,-0.28218 0.0926,-0.088 0.0926,-0.088 0.34116,0.37019 0.34116,0.37019 h -0.2594 -0.2594 z"
           id="path106" /></g><path
         id="shape"
         style="opacity:0.616314;fill:none;fill-opacity:1;stroke:#000000;stroke-width:0.2;stroke-linejoin:bevel;stroke-dasharray:none"
         d="m 742.3223,168.71284 -4.13257,0.0109 h -23.49934 -27.85204 l -0.77102,0.13901 -0.24443,5.2e-4 -1.44228,0.30385 -0.41393,0.0744 -2.87166,0.5178 -0.58343,0.58342 -0.0543,0.0274 -0.0222,0.0491 -0.0191,0.0191 -0.0646,0.0646 -0.34933,0.25993 -0.005,0.0946 -0.25941,0.25942 v 10e-4 1.28829 0.001 0.0506 1.23713 0.001 0.10128 l 0.41289,0.35554 0.0946,0.10438 0.50798,0.56069 0.25787,0.0749 0.15141,0.13023 0.0615,0.0103 0.0408,0.0408 0.15037,-0.001 0.002,0.002 0.0413,-0.002 0.41341,0.0692 0.002,5.2e-4 0.51056,0.14831 0.33073,0.0238 0.0429,0.003 0.15555,0.0393 0.52916,0.2372 0.52917,0.23719 0.0145,0.004 0.38241,0.22479 v 0.0553 l 0.7276,0.39481 0.46922,0.25477 1.36064,0.8015 0.18966,0.15348 8.82013,-0.0202 h 0.0403 l 19.33163,0.008 28.16107,0.0119 0.22273,-0.12764 h 0.076 l -0.0749,-5.2e-4 0.25684,-0.14676 0.47955,-0.27492 v 0.0393 l 0.52917,-0.28318 0.52917,-0.28319 v -0.0791 l 0.10903,-0.0625 0.15555,-0.0889 v 0.002 l 0.52917,-0.28319 0.52916,-0.28318 v -0.0419 l 0.18139,-0.10387 0.61236,-0.35088 v 0.005 l 0.52917,-0.28319 0.52917,-0.28319 v -0.0439 l 1.3255,-0.75913 0.52658,-0.25528 v -0.0465 -1.13481 -0.0227 -0.9803 l 0.13229,-0.005 -0.13229,-0.0119 v -0.16019 -0.001 h -1.04903 -0.73898 l -0.32556,-0.0294 -0.003,-0.005 v -0.17002 l -0.2682,-0.33072 -0.27337,-0.51108 -0.17053,-0.0915 -0.0853,-0.16485 -0.11731,-0.0305 -0.0403,-0.0501 -0.30954,-0.077 -0.0232,-0.0279 -0.13436,-0.0289 -0.23513,-0.12609 -2.09858,-0.50126 -2.09858,-0.50126 h -0.17725 z m -51.35397,1.33532 h 0.27853 0.30593 l 0.68006,0.0708 0.84646,0.0884 0.004,0.015 -1.70429,0.002 -1.84381,0.002 0.84543,-0.10542 z m 4.72994,0 h 0.31109 5.2e-4 0.31057 l 0.6811,0.0713 0.84026,0.0879 0.004,0.015 h -1.83607 -1.85156 v -0.0129 l 0.85938,-0.0899 z m 4.7625,0 h 0.31109 5.2e-4 0.31057 l 0.6811,0.0713 0.84026,0.0879 0.004,0.015 h -1.83607 -1.82314 l 0.004,-0.0165 0.82683,-0.0863 z m 4.7625,0 h 0.31109 5.2e-4 0.31057 l 0.6811,0.0713 0.8599,0.0899 v 0.0129 h -1.85209 -1.82314 l 0.004,-0.0165 0.82683,-0.0863 z m 4.53047,0 h 0.54312 0.0413 l 0.68007,0.0708 0.98857,0.10336 -1.84227,0.002 -1.71979,0.002 v -0.0155 l 0.7214,-0.0899 z m 4.7625,0 h 0.41083 0.15451 0.0191 l 0.68007,0.0708 0.88211,0.092 0.004,0.0114 -1.73943,0.002 -1.74046,0.002 0.004,-0.0134 0.73845,-0.092 z m 4.7625,0 h 0.39791 0.18655 l 0.68007,0.0708 0.84594,0.0884 0.004,0.015 -1.70377,0.002 -1.74046,0.002 0.004,-0.0134 0.73794,-0.092 z m 4.7625,0 h 0.24753 0.33693 l 0.68007,0.0708 0.84594,0.0884 0.004,0.015 -1.70377,0.002 -1.84381,0.002 0.84542,-0.10542 z m 4.72995,0 h 0.31109 0.31109 l 0.6811,0.0713 0.84026,0.0879 0.004,0.015 h -1.83606 -1.85157 v -0.0129 l 0.85938,-0.0899 z m 4.7625,0 h 0.31109 5.2e-4 0.31057 l 0.6811,0.0713 0.84026,0.0879 0.004,0.015 h -1.83606 -1.85157 v -0.0129 l 0.85938,-0.0899 z m 4.7625,0 h 0.31109 5.2e-4 0.31057 l 0.6811,0.0713 0.85989,0.0899 v 0.0129 h -1.85208 -1.82315 l 0.004,-0.0165 0.82682,-0.0863 z m 6.1619,5.1e-4 -0.17467,0.2496 -0.21136,0.23358 -0.008,0.009 -0.44596,0.49248 -0.0181,0.0951 -0.092,0.10904 v 5.2e-4 l -0.0693,0.10955 v 5.2e-4 l -0.0687,0.11007 v -0.55656 -5.1e-4 -5.2e-4 -0.39377 l 0.13229,-0.005 -0.13229,-0.0238 v -0.13384 -5.2e-4 l -0.99219,-0.10387 -0.81855,-0.0858 -0.006,-0.001 0.006,-0.0217 1.38854,-0.0393 z m -56.62652,0.0357 h 5.1e-4 l 0.17364,0.0455 0.31161,0.0811 v 5.1e-4 l 0.01,0.0382 h -0.78444 -0.92191 l 0.45889,-0.11988 0.11058,-0.0289 z m 11.10888,0.12299 -0.0109,0.015 h -0.009 v -0.0129 z m 4.7625,0 -0.0109,0.015 h -0.009 v -0.0129 z m 33.07292,0 -0.0109,0.015 h -0.009 v -0.0129 z m -51.84387,1.6924 h 1.17306 1.17305 v 1.17668 0.0134 5.2e-4 1.16272 l -0.46819,0.0274 h -0.8878 -1.35599 l 0.16537,-0.82683 0.16536,-0.82682 v -0.3638 -0.0109 l 0.0553,-0.0553 -0.0434,-0.10903 z m 21.79299,0.006 0.11059,0.0801 -0.1385,0.23306 -0.032,-0.0103 -0.27233,0.48421 h -0.046 l -0.28319,0.52917 -0.28319,0.52916 h 0.005 l -0.23616,0.39688 h -1.46761 -1.48673 l -0.231,-0.4129 -0.40152,-0.77721 -0.41031,-0.79375 h -0.0661 l -0.0961,-0.17208 1.048,-0.0171 0.14056,0.0248 0.0455,0.01 v 0.0413 h 0.52916 0.52917 v -0.0548 l 1.04955,-0.0429 0.61546,-0.0253 z m -6.33708,0.0357 0.21549,0.35606 0.002,0.003 0.15038,0.39222 h 0.0868 l 0.0806,0.13281 0.0207,0.0346 0.18707,0.30851 0.003,0.005 0.17984,0.33538 0.25063,0.4687 5.1e-4,0.10439 v 0.0176 l -0.0439,0.0388 -0.0873,0.078 -0.92242,0.0641 h -0.24856 -0.0517 -1.25264 l 0.14831,-0.2651 h 0.0599 l 0.16536,-0.30851 0.1633,-0.19689 -0.031,-0.0506 0.14521,-0.2713 0.0496,0.031 0.1297,-0.33848 0.10439,-0.27233 0.30747,-0.55087 z m 34.93016,0.001 h 0.37879 v 0.10852 h 0.52917 0.26458 v 0.13487 0.003 0.031 0.0264 0.18293 0.03 0.0393 l -0.40359,0.65267 -0.009,0.0129 -0.41237,0.58859 0.0248,0.0403 -0.008,0.0129 -0.3054,0.37724 -0.0491,0.0305 -0.9002,0.0326 -0.95395,0.0346 h -0.82372 l -0.11472,-0.19017 0.008,-0.008 -0.56586,-0.95964 -0.56585,-0.95911 h -0.0393 l -0.0847,-0.14004 0.31885,-0.006 0.25424,0.10903 0.0661,0.0186 0.0661,0.0186 v -0.15451 l 1.71927,-0.0346 z m -7.46052,5.1e-4 1.42627,0.003 -0.12196,0.21807 h -0.061 l -0.16588,0.31058 -0.16278,0.19585 0.031,0.0501 -0.14521,0.2713 -0.0274,-0.0171 -0.29766,0.65319 -0.0475,0.10387 -0.23306,0.41754 h -1.47588 -1.4888 l -0.21084,-0.34933 -0.0599,-0.11369 -0.31523,-0.59531 -0.37414,-0.57774 -0.35036,-0.54054 1.82314,-0.015 0.57154,0.061 v 0.0326 h 0.52917 0.52917 v -0.0718 z m -20.06183,0.009 0.10387,0.11937 0.19586,0.22479 0.0785,0.13178 h -0.0124 l 0.28319,0.52916 0.28319,0.52917 h 0.0558 l 0.12919,0.19895 0.15658,0.24133 0.16381,0.27389 0.0413,0.0801 h -0.84801 l -0.6351,-0.0295 -0.21084,-0.01 -0.98237,-0.0884 10e-4,-0.0253 0.12868,-0.31005 0.1633,-0.39275 0.33021,-0.53795 0.12661,0.0786 0.15606,-0.49144 -0.0243,-0.008 0.007,-0.0109 0.0191,0.014 0.0202,-0.0636 0.009,-0.0295 z m -0.2899,0.51728 -0.002,0.005 0.0145,0.005 z m 30.18679,-0.51573 0.0543,0.002 0.22324,0.34054 0.43356,0.66146 h 0.0227 l 0.15762,0.24495 0.25579,0.48317 0.2713,0.51212 -1.05368,0.0491 -0.29404,-0.0171 -1.27279,-0.0729 v -0.0868 l 0.18087,-0.31885 h 0.0651 l 0.0961,-0.17983 0.22324,-0.13798 -0.0625,-0.16226 0.0264,-0.0491 0.15968,-0.29818 0.0496,0.031 0.14624,-0.38189 0.0718,-0.18655 z m -45.91658,0.003 v 0.032 l -0.0491,0.10335 -0.0972,0.20464 -0.0672,0.13178 h -0.0326 l -0.0971,0.18138 -0.22221,0.13746 0.062,0.16175 -0.0258,0.0486 -0.16019,0.29869 -0.0661,-0.0408 -0.1695,0.53278 -0.0656,0.20723 -0.16588,0.32556 h -1.27382 -0.48421 l -0.78962,-0.0496 v -1.07487 -1.12448 l 0.20878,-0.008 0.0326,0.0527 0.40773,-0.0253 h 0.14469 0.52917 v -0.0413 l 0.78807,-0.0176 z m 19.29856,0.0233 h 0.11576 l 0.8263,0.0796 0.85783,-0.0724 1.27744,0.0274 v 0.13126 l -0.27801,0.53743 -0.22015,0.39946 -0.24184,0.44028 -0.2589,0.42478 -0.0326,0.0269 -0.22324,0.18293 -1.28157,0.0641 -1.17513,0.0594 h -0.10025 l -0.015,0.006 -0.16071,0.008 -0.14056,-0.24856 0.005,-0.16227 -0.52555,-0.79375 -0.14469,-0.21807 -0.38189,-0.6749 -10e-4,-0.0977 -10e-4,-0.11833 z m 10.25054,5.1e-4 0.0625,0.0382 0.0165,0.0103 0.005,0.003 v 0.13229 h 0.11679 0.0971 l 0.0491,0.0305 -0.28939,0.50591 -0.10284,0.1571 -0.0651,0.0997 h -0.0517 l -0.22944,0.4284 -0.076,0.11627 0.007,0.0119 -0.14469,0.2713 -0.10491,-0.0646 v 0.26045 l -0.0186,0.0346 h 0.0186 v 0.0289 l -0.13229,0.23202 -1.25109,0.002 -0.18138,-0.007 -1.29811,-0.10904 -0.22376,-0.17156 -0.19327,-0.30644 -0.19482,-0.33022 -0.54622,-0.92604 h -0.0522 l -0.1602,-0.25424 5.2e-4,-0.0713 5.1e-4,-0.0713 0.12299,-0.004 0.0811,-0.001 0.0171,0.0109 1.38338,-0.0248 1.44797,-0.0139 z m 9.08988,0.0186 0.25477,0.45526 v 5.2e-4 5.2e-4 l 0.42375,0.81907 0.38344,0.74156 0.0398,0.0775 0.0367,-0.0589 0.0749,0.13488 -1.17874,0.0667 -0.79013,0.045 h -0.75396 v -0.15193 l 0.27802,-0.447 0.108,0.0667 0.16071,-0.4191 0.0786,-0.20412 0.58394,-0.93844 0.15813,-0.18604 z m -31.35932,0.006 0.0971,0.13694 -0.093,0.27182 -0.0284,0.0832 -0.0253,0.045 h -0.0269 l -0.46819,0.86972 -0.13901,0.25786 -0.13384,0.23823 -0.29973,0.37311 h -0.84025 l -0.65268,-0.0413 -1.26039,-0.0796 -0.47645,-0.76998 -5.2e-4,-5.1e-4 -0.55035,-0.8909 v -0.31885 -0.14883 l 2.48253,-0.0134 1.22112,-0.006 v 0.0398 0.0646 l 0.24701,-0.0646 h 0.28215 0.52917 v -0.0455 z m 23.63887,0.002 0.17001,0.0248 0.27699,0.43718 0.11989,0.22376 0.28318,0.52917 h 0.0744 l 0.21962,0.34623 0.12092,0.31522 0.0889,0.231 v 5.2e-4 l 0.001,0.0284 5.2e-4,0.016 -1.44591,0.12144 h -1.21336 l 0.1974,-0.36897 0.14676,-0.22635 0.33228,-0.51211 0.0806,0.046 0.16898,-0.44028 0.0822,-0.21394 0.0527,-0.0997 z m -29.78062,0.0171 0.0527,0.008 0.38603,0.66094 h -0.008 l 0.28318,0.52917 0.28319,0.52916 h 0.0594 l 0.18655,0.31885 v 5.1e-4 0.094 l -1.25936,0.0765 -0.65163,0.0398 h -0.70384 l -0.0258,-0.045 0.29094,-0.55036 0.0677,-0.12764 0.22789,-0.37465 0.5054,-0.83147 -0.005,-0.003 0.19017,-0.293 z m 45.97343,0.007 h 1.57199 v 0.0196 h 0.52917 0.52917 v -0.0196 h 1.05833 v 1.07177 0.0248 0.90072 l -0.0315,0.20515 -0.76326,0.047 h -0.47904 -0.43822 l -0.4439,-0.032 -0.0388,0.032 h -0.35347 l -0.0992,-0.19534 0.0506,0.063 -0.25322,-0.46095 -0.20308,-0.39894 -0.5054,-0.99219 -0.0889,-0.18087 z m -23.89415,0.28371 h 0.33073 0.33073 l 0.19275,0.37775 h -0.008 l 0.41031,0.79375 0.16846,0.32556 0.005,0.009 0.0481,0.0941 0.18604,0.36535 h -1.33584 -1.20716 v -0.24236 l 0.30127,-0.59066 0.0594,0.0367 0.15141,-0.39533 0.0847,-0.22117 z m 28.37656,0.90743 h 0.10129 0.0119 l 0.13643,0.3576 0.14986,0.39378 5.2e-4,0.003 0.0708,0.27079 -0.0868,0.0331 h -0.14418 -0.23978 v -0.52865 -5.2e-4 z m -55.29792,2.11719 h 0.0879 0.84026 0.0439 0.88418 l -0.33021,0.52916 -0.10594,0.16899 -0.25011,0.30799 -0.27854,0.0522 h -0.29352 -0.5979 v -0.28009 -0.24908 -0.0315 z m 2.77296,0 h 1.97611 0.0677 1.8495 l 0.2744,0.16898 0.0155,0.009 0.16174,0.30282 -0.0558,-0.0346 0.18294,0.29611 0.0951,0.15399 0.031,0.0579 -0.24443,0.0935 -0.33848,0.0103 h -2.019 -2.5647 v -0.14779 l 0.23823,-0.38138 0.0424,-0.0682 0.16072,0.0992 v -0.28009 -0.0765 z m 6.07146,0 h 0.38448 l 0.0269,0.0434 -0.14108,0.26355 -0.0636,-0.0393 -0.15141,0.39533 -0.0207,0.0537 -0.21136,0.34158 h -0.16433 -0.24495 l -0.16019,-0.41858 -0.16072,-0.41858 v -0.076 l 0.32763,-0.06 0.24546,-0.0362 z m 1.20975,0 h 1.23765 l 1.11053,0.046 1.90376,0.0786 0.19275,0.19275 0.31781,0.31781 v 0.21136 0.0785 h -2.51354 -2.51923 l 0.10956,-0.28525 0.16071,-0.41858 v -0.11059 z m 13.81621,0 h 0.47542 l -0.22582,0.36173 -0.0909,0.14573 -0.0134,0.0217 -0.12144,0.19431 -0.26975,0.33486 h -0.12506 l -0.23926,-0.14779 -0.0553,-0.0341 -0.0279,-0.0512 -0.062,-0.16226 -0.15141,-0.39533 -0.0636,0.0393 -0.11421,-0.21342 0.65991,-0.0568 z m 4.2354,0 h 1.07332 l 0.18965,0.25838 v 0.18242 l 0.17622,0.17621 0.17622,0.17674 0.01,-0.01 0.0889,0.14314 -2.5461,0.13126 h -0.0289 -0.15606 -2.50114 l 0.26458,-0.49454 0.23513,-0.43925 1.94613,-0.0806 z m 2.88871,0 h 0.77412 l -0.21653,0.40514 -0.005,0.009 -0.13952,0.24598 0.0165,-0.0165 -0.12299,0.23047 -0.004,0.007 -0.19482,0.0749 -0.23048,0.0884 -0.25476,-0.31057 -0.12816,-0.20516 -0.30231,-0.4842 0.72502,-0.0403 z m 1.71204,0 h 0.60875 l 1.54358,0.0677 1.98282,0.0873 0.19999,0.37413 0.15916,0.29714 0.0884,0.231 h -2.51561 -2.49442 l 0.003,-0.15555 0.10077,-0.262 0.12609,-0.32866 z m 6.04356,0 h 0.29507 v 0.24598 l -0.15141,0.28318 -0.002,0.004 -0.0972,0.15658 -0.10387,0.16795 -0.31729,0.2005 h -0.21704 l -0.0992,-0.25942 0.0367,0.0227 -0.15761,-0.41083 -0.10077,-0.26251 v -0.0139 l 0.57929,-0.0853 z m 9.89811,0 h 1.03921 2.04329 l 0.11627,0.18655 -0.0419,0.0419 5.2e-4,5.1e-4 -5.2e-4,5.2e-4 0.17467,0.28215 0.17415,0.28216 h 0.0723 l 0.12971,0.20774 -0.0568,0.0568 h -2.56471 -2.01899 l -0.62839,-0.0186 0.0548,-0.10232 0.0212,-0.0393 0.0961,-0.15554 0.18294,-0.29611 -0.0558,0.0346 0.23668,-0.44235 z m 3.98528,0 h 0.93535 0.93534 v 0.52916 0.03 0.49919 h -0.40824 l -0.39378,-0.0579 -0.57877,-0.0853 -0.20671,-0.38603 z m 2.66444,5.1e-4 0.62218,0.007 0.061,0.0119 0.58705,0.11524 -0.0248,0.0408 -5.2e-4,5.2e-4 -0.30334,0.22892 -0.42943,0.32608 h -5.1e-4 l -0.0693,-0.0269 0.0336,0.0543 -0.0481,0.0362 h -0.21394 -0.0677 l -0.0698,-0.26665 -0.0765,-0.29197 z m -36.56934,5.2e-4 0.94102,0.007 2.24379,0.0171 0.0915,0.23823 h -0.0279 l 0.15244,0.39687 0.0729,0.19069 0.0227,0.0811 v 0.0155 0.10956 h -2.49442 -2.55075 l 0.27234,-0.50902 0.0103,-0.0191 0.26252,-0.49041 z m -20.09335,0.005 0.57102,0.0677 v 0.2682 l -0.0103,0.0992 -0.0367,0.34985 -0.15141,-0.006 -0.19844,-0.008 -0.51367,-0.3886 -0.42271,-0.31936 0.6258,-0.0517 z m 47.46325,0.009 0.46716,0.032 -0.003,0.12609 -0.10128,0.29042 -0.0563,0.16227 -0.11266,0.16795 -0.16846,0.25166 -0.23306,-0.0889 -0.061,-0.0233 -0.17157,-0.22479 -0.18086,-0.23668 -0.21498,-0.40101 0.37776,-0.0253 z m -29.89275,0.0455 h 5.2e-4 l 0.4625,0.0848 v 0.0868 0.002 0.22893 l -0.016,0.0134 -0.31471,0.24185 -0.33073,0.25373 -0.23667,-0.12402 -0.11369,-0.11369 -0.31109,-0.31109 v -0.21188 -0.0966 z m 23.98458,0.0718 h 2.01073 1.95751 l 0.18087,0.15038 0.13074,0.10852 0.24443,0.24391 v 0.19069 0.0207 0.0181 0.19379 h -1.11105 l -1.5353,-0.0486 -2.33888,-0.0734 0.0279,-0.37103 0.24753,-0.24805 z"
         transform="translate(-0.75774338,43.949117)" /></g></g>


<script type="text/javascript">
  <![CDATA[
    // Global Parameters and Variables
    //!export-start
    let _pn_setState         = 0;
    let _pb_boolState        = false;
    let _pn_setInterval      = 500;
    let _pc_state0Colour     = '#ffffff';
    let _pc_state1Colour     = '#00ff00';
    let _pc_state2Colour     = '#ff9500';
    let _pc_state3Colour     = '#ff0000';
    let _pc_state4Colour     = '#3c3c3c';
    let _pc_state5Colour     = '#dcdcdc';
    let _pn_lightShade       = 50;
    let _pn_highLightShade   = 90;
    let _pn_darkShade        = 15;
    let _pn_shadowShade      = -15;
    let _pn_strokeWidth      = 1;     
    let _pn_opacity          = 0.60;  
    let _pn_indicationMode   = 0;     
    //!export-end
    
    // Internal state variables
    let stateNumber = 0;
    let isBlinking = false;
    let myCheckInterval;
    
    // Force global timing mechanism by using epoch time
    function getGlobalBlinkState(interval) {
      // Use the current time divided by interval, which will give
      // the same result for all SVGs at the same moment
      return Math.floor(Date.now() / interval) % 2 === 0;
    }
    
    // Function to update the color based on the set state
    function logic() {
      switch (stateNumber) {
        case 0: // off
          setColors(_pc_state0Colour);
          stopBlinking();
          break; 
        case 1: // run
          setColors(_pc_state1Colour);
          stopBlinking();
          break;
        case 2: // warning
          setColors(_pc_state2Colour);
          stopBlinking();
          break;
        case 3: // fault
          startForceSync();
          break;
        case 4: // invalid 
          setColors(_pc_state4Colour);
          stopBlinking();
          break;
        case 5: // spare
          setColors(_pc_state5Colour);
          stopBlinking();
          break;
        default:
          console.log('Undefined State');
          stopBlinking();
      }
    }

    // Initial setup
    function init() {
      // Set up visibility change listener
      document.addEventListener('visibilitychange', handleVisibilityChange);
      
      // Initial state rendering
      logic(); 
    }
    
    // Handler for tab visibility changes
    function handleVisibilityChange() {
      if (document.visibilityState === 'visible' && isBlinking) {
        // Resume checking when tab becomes visible again
        startForceSync();
      } else if (document.visibilityState === 'hidden' && isBlinking) {
        // Pause checking when tab is hidden
        clearInterval(myCheckInterval);
        myCheckInterval = null;
      }
    }
    
    // Update the blinking display based on global time
    function updateBlinkDisplay() {
      if (!isBlinking) return;
      
      // Get the global blink state
      const showFaultColor = getGlobalBlinkState(_pn_setInterval);
      
      // Set the appropriate color
      if (showFaultColor) {
        setColors(_pc_state3Colour);
      } else {
        setColors(_pc_state0Colour);
      }
    }
    
    // Start forced synchronization
    function startForceSync() {
      // Clear any existing interval
      stopBlinking();
      
      // Set blinking state
      isBlinking = true;
      
      // Update display immediately
      updateBlinkDisplay();
      
      // Check very frequently to ensure tight synchronization (every 16ms = ~60fps)
      myCheckInterval = setInterval(updateBlinkDisplay, 16);
    }

    // Function to update values from Fuxa
    function putValue(id, value) {
      if (id === '_pn_setState') {
        stateNumber = value;
        logic(); 
      }
      if (id === '_pb_boolState') {
        _pb_boolState = value;
        if (_pb_boolState === true) {
          stateNumber = 1;
        } else if (_pb_boolState === false) {
          stateNumber = 0;
        }
        logic(); 
      }
      if (id === '_pn_setInterval')    _pn_setInterval    = value;
      if (id === '_pc_state0Colour')   _pc_state0Colour   = value;
      if (id === '_pc_state1Colour')   _pc_state1Colour   = value;
      if (id === '_pc_state2Colour')   _pc_state2Colour   = value;
      if (id === '_pc_state3Colour')   _pc_state3Colour   = value;
      if (id === '_pc_state4Colour')   _pc_state4Colour   = value;
      if (id === '_pc_state5Colour')   _pc_state5Colour   = value;
      if (id === '_pn_lightShade')     _pn_lightShade     = value;
      if (id === '_pn_highLightShade') _pn_highLightShade = value;
      if (id === '_pn_darkShade')      _pn_darkShade      = value;
      if (id === '_pn_shadowShade')    _pn_shadowShade    = value;
      if (id === '_pn_strokeWidth')    _pn_strokeWidth    = value;
      if (id === '_pn_opacity')        _pn_opacity        = value;
      if (id === '_pn_indicationMode') _pn_indicationMode = value;
    }

    // Function to send values back to Fuxa (placeholder)
    function postValue(id, value) {
      console.error('Not defined!');
    }

    // Function to update the fill and/or stroke color based on indication mode
    function setColors(color) {
      // Get the single element with ID "shape"
      const shapeElement = document.getElementById('shape');
      if (!shapeElement) return; // Safety check
      
      // Set opacity
      shapeElement.style.opacity = _pn_opacity;
      
      // Set stroke width
      shapeElement.style.strokeWidth = _pn_strokeWidth;
      
      // Apply colors based on indication mode
      switch(_pn_indicationMode) {
        case 0: // Fill only
          shapeElement.style.fill = color;
          shapeElement.style.stroke = "none";
          break;
        case 1: // Stroke only
          shapeElement.style.fill = "none";
          shapeElement.style.stroke = color;
          break;
        case 2: // Both fill and stroke
          shapeElement.style.fill = color;
          shapeElement.style.stroke = color;
          break;
        default:
          // Default to fill only
          shapeElement.style.fill = color;
          shapeElement.style.stroke = "none";
      }
    }

    // Function to stop blinking
    function stopBlinking() {
      if (myCheckInterval) {
        clearInterval(myCheckInterval);
        myCheckInterval = null;
      }
      isBlinking = false;
    }

    // Clean up event listeners when widget is destroyed
    function cleanup() {
      stopBlinking();
      document.removeEventListener('visibilitychange', handleVisibilityChange);
    }

    // Initialize the SVG
    init();

    // Ensure cleanup when SVG is removed
    const cleanupObserver = new MutationObserver((mutations) => {
      mutations.forEach((mutation) => {
        mutation.removedNodes.forEach((node) => {
          if (node.id === 'Layer_1') {
            cleanup();
            cleanupObserver.disconnect();
          }
        });
      });
    });
    cleanupObserver.observe(document.body, { childList: true, subtree: true });
  ]]>
  </script>
</svg>
