<?xml version="1.0" encoding="UTF-8" standalone="no"?>
<!-- Created with Inkscape (http://www.inkscape.org/) -->

<svg
   width="28.622091mm"
   height="41.296543mm"
   viewBox="0 0 28.622091 41.296543"
   version="1.1"
   id="Layer_1"
   xml:space="preserve"
   xmlns="http://www.w3.org/2000/svg"
   xmlns:svg="http://www.w3.org/2000/svg"><defs
     id="defs1" /><g
     id="layer22"
     transform="translate(-895.58469,-78.59597)"><g
       id="g171"><g
         id="g144"
         transform="translate(117.67128,-0.22982673)"><path
           style="fill:#c2c2c2;fill-opacity:1"
           d="m 795.99908,119.36399 -0.39343,-0.61863 -7.72002,-13.59764 -7.72002,-13.597635 -0.36764,-0.822156 -0.36765,-0.822157 -0.68915,-3.800054 -0.68914,-3.800054 0.18628,-1.354472 0.18629,-1.354472 0.42976,-0.327163 0.42977,-0.327164 3.22768,-0.0084 3.22768,-0.0084 0.64888,0.859895 0.64888,0.859896 8.19176,14.419793 8.19176,14.419793 0.9245,1.85208 0.9245,1.85209 0.17776,1.15225 0.17777,1.15225 0.40433,0.78189 0.40433,0.78189 -0.0812,0.97465 -0.0812,0.97466 -1.42493,0.51067 -1.42492,0.51068 -0.51538,-0.70749 -0.51537,-0.70749 h -1.21731 -1.21731 l -1.07573,0.51364 -1.07572,0.51364 -0.70623,0.17113 -0.70622,0.17114 z m 1.62684,-1.19202 -0.0855,-0.4411 -0.33073,-0.11012 -0.33073,-0.11012 v 0.55122 0.55122 h 0.41627 0.41628 z m -1.35089,-2.13495 -0.11058,-0.73125 -0.004,1.32292 -0.004,1.32292 0.11419,-0.59168 0.11418,-0.59167 z m -0.71903,-0.68068 v -1.14005 l -0.36205,-0.49513 -0.36204,-0.49513 -0.31244,0.5838 -0.31244,0.58379 0.59092,1.05139 0.59091,1.05139 h 0.0836 0.0836 z m -1.24341,-2.65425 0.13612,-0.35472 -0.23605,-0.37288 -0.23606,-0.37288 -0.004,0.7276 -0.004,0.72761 h 0.10399 0.10398 z m -1.29976,-2.77034 -0.45904,-0.70058 -0.23883,0.71648 -0.23883,0.71648 0.61546,1.10071 0.61545,1.10071 0.0824,-1.1166 0.0824,-1.11661 z m -1.00225,-1.79619 -0.1712,-0.44615 -0.13229,0.13229 -0.13229,0.13229 0.1712,0.44616 0.17121,0.44615 0.13229,-0.13229 0.13229,-0.13229 z m -1.249,-2.14985 -0.33421,-0.62447 -0.32111,0.60001 -0.32112,0.60001 0.57033,1.06497 0.57032,1.06496 0.085,-1.0405 0.085,-1.0405 z m -1.00522,-1.85858 -0.26968,-0.46302 v 0.92604 0.92604 l 0.26968,-0.46302 0.26969,-0.46302 z m -1.07412,-1.90812 -0.28861,-0.53928 h -0.23744 -0.23745 l -0.16762,0.52814 -0.16763,0.52815 0.61282,1.09601 0.61282,1.09602 0.0809,-1.08488 0.0809,-1.08489 z m -2.06513,-2.457508 -0.12996,-1.389063 -0.34578,-0.501063 -0.34577,-0.501064 -0.18745,0.746858 -0.18745,0.746858 0.6065,1.143272 0.6065,1.14326 h 0.0567 0.0567 z m 0.91204,0.529168 -0.13346,-0.330731 v 0.661461 0.66146 l 0.13346,-0.33073 0.13345,-0.33073 z m -2.28383,-4.000373 -0.27265,-0.272649 0.0168,0.912812 0.0168,0.912813 0.25588,-0.640164 0.25588,-0.640164 z m -1.16036,-2.044457 -0.38893,-0.555286 -0.29502,0.551244 -0.29502,0.551244 0.60261,1.12824 0.60261,1.128241 0.0814,-1.124199 0.0813,-1.124199 z m -1.0456,-1.755344 -0.12197,-0.468057 -0.01,0.79375 -0.01,0.79375 0.13177,-0.325693 0.13178,-0.325694 z m -1.13659,-2.134181 -0.4566,-0.696858 -0.26744,0.599365 -0.26744,0.599365 0.63944,1.243584 0.63944,1.243585 0.0846,-1.146091 0.0846,-1.146092 z m -0.91745,-1.590637 0.0186,-0.346344 -0.26458,0.163522 -0.26459,0.163521 0.0186,0.711989 0.0186,0.71199 0.2274,-0.529167 0.22739,-0.529167 z m -1.12358,-1.952223 -0.13896,-0.347266 -0.0209,0.507118 -0.0209,0.507118 0.15985,-0.159852 0.15986,-0.159853 z"
           id="path152" /><path
           style="fill:#b0b0b0;fill-opacity:1"
           d="m 795.99908,119.36399 -0.39343,-0.61863 -7.72002,-13.59764 -7.72002,-13.597635 -0.36764,-0.822156 -0.36765,-0.822157 -0.68915,-3.800054 -0.68914,-3.800054 0.18628,-1.354472 0.18629,-1.354472 0.42976,-0.327163 0.42977,-0.327164 3.22768,-0.0084 3.22768,-0.0084 0.64888,0.859895 0.64888,0.859896 8.19176,14.419793 8.19176,14.419793 0.9245,1.85208 0.9245,1.85209 0.17776,1.15225 0.17777,1.15225 0.40433,0.78189 0.40433,0.78189 -0.0812,0.97465 -0.0812,0.97466 -1.42493,0.51067 -1.42492,0.51068 -0.51538,-0.70749 -0.51537,-0.70749 h -1.21731 -1.21731 l -1.07573,0.51364 -1.07572,0.51364 -0.70623,0.17113 -0.70622,0.17114 z m 1.62684,-1.19202 -0.0855,-0.4411 -0.33073,-0.11012 -0.33073,-0.11012 v 0.55122 0.55122 h 0.41627 0.41628 z m -1.27617,-1.54328 v -1.1594 l -0.26458,-0.16352 -0.26459,-0.16352 v 1.48644 1.48644 l 0.26459,-0.16352 0.26458,-0.16352 z m -0.79375,-1.27235 v -1.14005 l -0.36205,-0.49513 -0.36204,-0.49513 -0.31244,0.5838 -0.31244,0.58379 0.59092,1.05139 0.59091,1.05139 h 0.0836 0.0836 z m -1.24341,-2.65425 0.13612,-0.35472 -0.23605,-0.37288 -0.23606,-0.37288 -0.004,0.7276 -0.004,0.72761 h 0.10399 0.10398 z m -1.29976,-2.77034 -0.45904,-0.70058 -0.23883,0.71648 -0.23883,0.71648 0.61546,1.10071 0.61545,1.10071 0.0824,-1.1166 0.0824,-1.11661 z m 4.82775,1.38334 -0.75814,-0.66666 -0.16395,0.16395 -0.16396,0.16396 0.65751,0.50519 0.6575,0.50519 0.26459,-0.002 0.26458,-0.002 z m -0.69708,-1.9054 v -0.20753 l -0.79375,-0.46888 -0.79375,-0.46888 v 0.24727 0.24727 l 0.59531,0.41527 0.59532,0.41527 0.19843,0.0139 0.19844,0.0139 z m -5.29572,-0.87284 0.004,0.37483 0.17679,-0.17679 0.17679,-0.17679 -0.29807,-0.59491 -0.29808,-0.59492 -0.10726,-0.66146 -0.10727,-0.66145 -0.032,1.4552 -0.032,1.45521 0.25648,-0.39687 0.25648,-0.39688 z m -1.0862,-2.55114 -0.33421,-0.62447 -0.32111,0.60001 -0.32112,0.60001 0.57033,1.06497 0.57032,1.06496 0.085,-1.0405 0.085,-1.0405 z m 2.86014,1.05183 -0.121,-0.46302 v 0.92604 0.92605 l 0.121,-0.46302 0.121,-0.46303 z m 2.19886,-0.04 v -0.23845 l -0.92604,-0.54637 -0.92604,-0.54638 v 0.25955 0.25955 l 0.8599,0.52428 0.85989,0.52429 0.0661,9.9e-4 0.0661,9.9e-4 z m -6.07902,-2.89685 -0.25488,-0.43657 -0.008,0.42994 -0.008,0.42995 -0.14629,0.89297 -0.1463,0.89297 0.40923,-0.88634 0.40923,-0.88634 z m -1.05932,-1.88167 -0.28861,-0.53928 h -0.23744 -0.23745 l -0.16762,0.52814 -0.16763,0.52815 0.61282,1.09601 0.61282,1.09602 0.0809,-1.08488 0.0809,-1.08489 z m 5.41855,1.94646 -0.52916,-0.40785 -0.46302,-0.2545 -0.46303,-0.25451 v 0.24162 0.24162 l 0.59532,0.41527 0.59531,0.41527 0.39687,0.005 0.39688,0.005 z m -1.19062,-2.21436 v -0.25779 l -0.79375,-0.41046 -0.79375,-0.41047 v 0.26293 0.26293 l 0.7276,0.39473 0.72761,0.39473 0.0661,0.0106 0.0661,0.0106 z m -6.29306,-2.189608 -0.12996,-1.389063 -0.34578,-0.501063 -0.34577,-0.501064 -0.18745,0.746858 -0.18745,0.746858 0.6065,1.143272 0.6065,1.14326 h 0.0567 0.0567 z m 0.91204,0.529168 -0.13346,-0.330731 v 0.661461 0.66146 l 0.13346,-0.33073 0.13345,-0.33073 z m 3.66081,-1.1655 -0.52875,-0.39463 -0.46302,-0.254505 -0.46302,-0.254505 v 0.24791 0.24791 l 0.85295,0.540048 0.85294,0.540048 0.13883,-0.138823 0.13882,-0.138824 z m -4.17346,-2.004763 -0.10706,-0.864634 -0.003,1.5875 -0.003,1.5875 0.10976,-0.722866 0.10977,-0.722866 z m -1.91585,-1.083365 -0.39257,-0.560471 0.0186,1.580226 0.0186,1.580226 0.37393,-1.019755 0.37392,-1.019756 z m 4.76681,0.720095 -0.52917,-0.407847 -0.46302,-0.254505 -0.46302,-0.254505 v 0.24162 0.241621 l 0.59531,0.415269 0.59532,0.415269 0.39687,0.0055 0.39688,0.0055 z m -5.7825,-2.511297 -0.38893,-0.555286 -0.29502,0.551244 -0.29502,0.551244 0.60261,1.12824 0.60261,1.128241 0.0814,-1.124199 0.0813,-1.124199 z m 4.05876,-0.251238 -0.65751,-0.505188 -0.19844,-0.0059 -0.19844,-0.0059 v 0.203301 0.203301 l 0.72426,0.439454 0.72426,0.439454 0.13169,-0.131684 0.13168,-0.131684 z m -5.10436,-1.504106 -0.12197,-0.468057 -0.01,0.79375 -0.01,0.79375 0.13177,-0.325693 0.13178,-0.325694 z m -1.13659,-2.134181 -0.4566,-0.696858 -0.26744,0.599365 -0.26744,0.599365 0.63944,1.243584 0.63944,1.243585 0.0846,-1.146091 0.0846,-1.146092 z m 5.66719,1.685577 -0.0838,-0.05985 -0.99219,-0.596693 -0.99219,-0.596692 v 0.26018 0.26018 l 0.84826,0.537077 0.84826,0.537078 0.22768,-0.140714 0.22768,-0.140715 z m -6.58464,-3.276214 0.0186,-0.346344 -0.26458,0.163522 -0.26459,0.163521 0.0186,0.711989 0.0186,0.71199 0.2274,-0.529167 0.22739,-0.529167 z m 4.91223,0.741338 -0.16469,-0.266465 -0.77697,-0.401788 -0.77697,-0.401788 v 0.262928 0.262928 l 0.7276,0.394731 0.72761,0.394732 0.21405,0.01059 0.21405,0.01059 z m -3.38399,-1.651765 -0.11466,-0.595312 v 1.190625 1.190625 l 0.11466,-0.595312 0.11466,-0.595313 z m -2.65182,0.810287 -0.13896,-0.347266 -0.0209,0.507118 -0.0209,0.507118 0.15985,-0.159852 0.15986,-0.159852 z m 0.0798,-1.751943 0.004,-0.346344 -0.26459,0.163521 -0.26458,0.163522 0.004,0.579697 0.004,0.579698 0.25648,-0.396875 0.25648,-0.396875 z m 3.96885,-0.327327 -0.6575,-0.505188 -0.19844,-0.0059 -0.19844,-0.0059 v 0.203301 0.203302 l 0.72426,0.439454 0.72426,0.439454 0.13168,-0.131685 0.13169,-0.131684 z m -1.28535,-2.426318 -0.81922,-0.518697 -0.31421,0.104736 -0.31421,0.104736 0.90545,0.541642 0.90545,0.541641 0.22799,-0.12768 0.22798,-0.127681 z"
           id="path151" /><path
           style="fill:#9e9e9e;fill-opacity:1"
           d="m 795.99908,119.36399 -0.39343,-0.61863 -7.72002,-13.59764 -7.72002,-13.597635 -0.36764,-0.822156 -0.36765,-0.822157 -0.68915,-3.800054 -0.68914,-3.800054 0.18628,-1.354472 0.18629,-1.354472 0.42976,-0.327163 0.42977,-0.327164 3.22768,-0.0084 3.22768,-0.0084 0.64888,0.859895 0.64888,0.859896 8.19176,14.419793 8.19176,14.419793 0.9245,1.85208 0.9245,1.85209 0.17776,1.15225 0.17777,1.15225 0.40433,0.78189 0.40433,0.78189 -0.0812,0.97465 -0.0812,0.97466 -1.42493,0.51067 -1.42492,0.51068 -0.51538,-0.70749 -0.51537,-0.70749 h -1.21731 -1.21731 l -1.07573,0.51364 -1.07572,0.51364 -0.70623,0.17113 -0.70622,0.17114 z m 1.62684,-1.19202 -0.0855,-0.4411 -0.33073,-0.11012 -0.33073,-0.11012 v 0.55122 0.55122 h 0.41627 0.41628 z m -1.28022,-1.49275 -0.004,-1.10886 -0.25648,-0.39688 -0.25648,-0.39687 -0.004,1.66926 -0.004,1.66926 0.26459,-0.16352 0.26458,-0.16352 z m -0.7897,-1.32288 v -1.14005 l -0.36205,-0.49513 -0.36204,-0.49513 -0.31244,0.5838 -0.31244,0.58379 0.59092,1.05139 0.59091,1.05139 h 0.0836 0.0836 z m -1.25842,-3.29019 -0.11994,-0.32921 -0.23686,0.14638 -0.23686,0.14639 0.0119,0.97657 0.0119,0.97658 0.34486,-0.79375 0.34487,-0.79375 z m -1.28475,-2.1344 -0.45904,-0.70058 -0.23883,0.71648 -0.23883,0.71648 0.61546,1.10071 0.61545,1.10071 0.0824,-1.1166 0.0824,-1.11661 z m 5.45359,1.85919 v -0.20753 l -0.79375,-0.46888 -0.79375,-0.46888 v 0.3714 0.3714 l 0.59531,0.28711 0.59531,0.28711 0.19844,0.0179 0.19844,0.0179 z m -6.65213,-3.25409 0.0375,0.37483 0.17679,-0.17679 0.17679,-0.17679 -0.30197,-0.59491 -0.30197,-0.59492 -0.0949,-1.05833 -0.0949,-1.05833 -0.007,2.51354 -0.007,2.51354 0.18949,-1.05833 0.18949,-1.05834 z m 4.93234,0.41202 -1.05834,-0.65184 -0.19843,-0.001 -0.19844,-0.001 4.7e-4,0.19844 4.7e-4,0.19844 0.72713,0.43883 0.72714,0.43883 0.52916,0.0159 0.52917,0.0159 z m -3.11779,-1.64674 -0.11022,-0.72761 v 1.45521 1.45521 l 0.11022,-0.7276 0.11023,-0.72761 z m -2.86726,-1.31642 -0.33421,-0.62447 -0.32111,0.60001 -0.32112,0.60001 0.57033,1.06497 0.57032,1.06496 0.085,-1.0405 0.085,-1.0405 z m 5.01039,0.97212 -0.0927,-0.27814 -0.85537,-0.54159 -0.85538,-0.54158 4.7e-4,0.35671 4.8e-4,0.35671 0.72713,0.43883 0.72713,0.43883 0.22049,0.0242 0.22048,0.0242 z m -6.04917,-2.91995 -0.27083,-0.50607 h -0.12299 -0.12298 l 0.0104,1.38907 0.0104,1.38906 0.38347,-0.883 0.38346,-0.883 z m -1.04056,-1.81887 -0.28861,-0.53928 h -0.23744 -0.23745 l -0.16762,0.52814 -0.16763,0.52815 0.61282,1.09601 0.61282,1.09602 0.0809,-1.08488 0.0809,-1.08489 z m 6.05796,2.28479 -0.11024,-0.0863 -0.99219,-0.59669 -0.99219,-0.5967 v 0.35572 0.35571 l 0.59532,0.29484 0.59531,0.29483 0.50712,0.0325 0.50712,0.0325 z m -2.18606,-2.97988 -1.00804,-0.68498 -0.17391,0.17391 -0.17391,0.17391 0.65751,0.50518 0.6575,0.50519 0.52444,0.006 0.52444,0.006 z m -5.93703,-1.762418 -0.12996,-1.389063 -0.34578,-0.501063 -0.34577,-0.501064 -0.18745,0.746858 -0.18745,0.746858 0.6065,1.143272 0.6065,1.14326 h 0.0567 0.0567 z m 0.91204,0.529168 -0.13346,-0.330731 v 0.661461 0.66146 l 0.13346,-0.33073 0.13345,-0.33073 z m -0.50992,-3.571877 -0.0991,-1.25677 v 2.513541 2.513546 l 0.0991,-1.256775 0.0991,-1.256771 z m 2.10293,2.530079 -0.13897,-0.347266 -0.0209,0.507118 -0.0209,0.507118 0.15985,-0.159852 0.15985,-0.159853 z m 2.68113,0.201353 -0.0837,-0.05985 -0.99218,-0.596692 -0.99219,-0.596693 v 0.290052 0.290051 l 0.8412,0.511566 0.8412,0.511566 0.23474,-0.145074 0.23473,-0.145074 z m -6.71129,-3.523054 -0.38066,-0.729732 0.017,1.719792 0.017,1.719792 0.36365,-0.99006 0.36364,-0.99006 z m 4.63908,0.618137 -1.18654,-0.636507 -0.12834,0.125435 -0.12833,0.125436 0.6575,0.505188 0.65751,0.505188 0.65736,0.0059 0.65737,0.0059 z m -5.64612,-2.299468 -0.38893,-0.555286 -0.29502,0.551244 -0.29502,0.551244 0.60261,1.12824 0.60261,1.128241 0.0814,-1.124199 0.0813,-1.124199 z m 4.195,-0.114935 -0.79375,-0.650629 -0.19844,-0.0013 -0.19844,-0.0013 v 0.256133 0.256133 l 0.72761,0.394732 0.7276,0.394732 0.26459,0.0011 0.26458,0.0011 z m -5.19657,-1.447008 v -0.661458 l -0.22739,0.529167 -0.22739,0.529167 v 0.661458 0.661458 l 0.22739,-0.529166 0.22739,-0.529167 z m -1.18062,-2.327582 -0.4566,-0.696858 -0.26744,0.599365 -0.26744,0.599365 0.63944,1.243584 0.63944,1.243585 0.0846,-1.146091 0.0846,-1.146092 z m 5.41325,1.491078 -0.35898,-0.241192 -0.7276,-0.393988 -0.72761,-0.393988 v 0.245395 0.245396 l 0.84826,0.537077 0.84826,0.537078 0.23832,-0.147293 0.23833,-0.147293 z m -4.79609,-3.853949 -0.10414,-0.998088 -0.002,1.852083 -0.002,1.852083 0.10627,-0.853994 0.10628,-0.853995 z m -1.53461,0.772234 0.0186,-0.346344 -0.26458,0.163522 -0.26459,0.163521 0.0186,0.711989 0.0186,0.71199 0.2274,-0.529167 0.22739,-0.529167 z m 5.31026,0.816897 -0.39687,-0.149129 -0.74284,-0.520305 -0.74284,-0.520305 -0.17925,0.179251 -0.17925,0.179252 0.65751,0.505187 0.6575,0.505188 0.66146,-0.01501 0.66146,-0.01501 z m -6.40987,-1.650092 -0.0299,-1.311831 -0.31216,-0.119785 -0.31215,-0.119785 0.21322,1.100887 0.21322,1.100887 0.0115,0.330729 0.0115,0.330729 h 0.11729 0.1173 z m 4.04421,-1.363203 -0.82212,-0.499966 h -0.1259 -0.1259 v 0.256133 0.256133 l 0.72658,0.380694 0.72658,0.380693 0.22144,-0.136861 0.22145,-0.136861 z m -1.43663,-2.512397 -0.93213,-0.633403 h -0.14633 -0.14633 v 0.238601 0.238601 l 0.84826,0.537078 0.84825,0.537077 0.23021,-0.142276 0.23021,-0.142276 z"
           id="path150" /><path
           style="fill:#8c8c8c;fill-opacity:1"
           d="m 795.99908,119.36399 -0.39343,-0.61863 -7.72002,-13.59764 -7.72002,-13.597635 -0.36764,-0.822156 -0.36765,-0.822157 -0.6859,-3.782682 -0.6859,-3.782682 0.17989,-1.439844 0.1799,-1.439843 0.20675,0.127777 0.20674,0.127776 0.15172,-0.395355 0.15171,-0.395355 h 3.30213 3.30213 l 0.64888,0.859895 0.64888,0.859896 8.19176,14.419793 8.19176,14.419792 0.95714,1.90117 0.95715,1.90117 0.12375,1.49765 0.12376,1.49765 0.42677,0.65134 0.42678,0.65134 -0.0822,0.71065 -0.0822,0.71064 -1.42493,0.51075 -1.42492,0.51075 -0.51538,-0.70749 -0.51537,-0.70749 h -1.21731 -1.21731 l -1.07573,0.51364 -1.07572,0.51364 -0.70623,0.17113 -0.70622,0.17114 z m 1.62684,-1.19202 -0.0855,-0.4411 -0.33073,-0.11012 -0.33073,-0.11012 v 0.55122 0.55122 h 0.41627 0.41628 z m -1.30747,-1.49275 -0.0313,-1.10886 -0.20197,-0.79375 -0.20198,-0.79375 -0.0313,2.06613 -0.0313,2.06614 0.26459,-0.16352 0.26458,-0.16352 z m 8.03495,1.20878 -1.65365,-0.0939 -1.65364,0.0939 -1.65365,0.0939 h 3.30729 3.30729 z m -8.7974,-2.13478 v -1.53693 l -0.36402,-0.49783 -0.36403,-0.49784 -0.41253,0.79775 -0.41253,0.79775 0.46574,0.70998 0.46575,0.70998 0.22094,-0.20057 0.22094,-0.20057 -0.17557,0.30685 -0.17557,0.30686 0.16146,0.42075 0.16145,0.42075 h 0.10399 0.10398 z m -1.24226,-3.14202 0.1375,-0.22248 -0.36428,-0.65814 -0.36429,-0.65814 0.0134,1.5875 0.0134,1.5875 0.21342,-0.70688 0.21341,-0.70687 z m -0.68596,-4.44918 -0.0865,-1.5875 -0.051,1.9771 -0.051,1.9771 -0.43396,-0.61957 -0.43397,-0.61958 -0.35854,0.85271 -0.35854,0.85272 0.44418,0.75193 0.44418,0.75194 0.25691,-0.15878 0.25692,-0.15879 -0.17403,0.28159 -0.17403,0.28159 0.19498,0.4869 0.19497,0.48689 0.20793,-1.98437 0.20794,-1.98438 z m 4.83864,3.71096 v -0.39008 l -0.76021,-0.39311 -0.7602,-0.39312 -0.14761,0.14761 -0.14761,0.1476 0.14179,0.36949 0.14179,0.36949 0.19788,-0.1223 0.19788,-0.12229 0.502,0.37998 0.502,0.37999 0.0661,0.008 0.0661,0.008 z m -6.59035,-3.95599 -0.27989,-0.54872 -0.0867,-1.5875 -0.0867,-1.5875 -0.05,2.62379 -0.05,2.62378 -0.17944,-0.17943 -0.17944,-0.17944 0.0603,-1.32245 0.0603,-1.32244 -0.35249,-0.50325 -0.35249,-0.50325 -0.42482,0.74021 -0.42482,0.74021 0.96255,1.63354 0.96255,1.63355 0.3505,-0.85619 0.3505,-0.85619 z m 4.94601,1.03878 -0.97342,-0.66146 h -0.27862 -0.27862 v 0.25614 0.25613 l 0.7276,0.39473 0.72761,0.39473 0.52444,0.0106 0.52444,0.0106 z m -0.67392,-1.9981 -0.19528,-0.16617 -0.99219,-0.59309 -0.99219,-0.59309 v 0.56636 0.56636 l 0.22561,-0.13943 0.2256,-0.13943 0.50188,0.36698 0.50188,0.36699 0.45999,-0.0346 0.45999,-0.0346 z m -6.55017,-3.14079 -0.3708,-0.68194 0.001,1.71979 10e-4,1.71979 0.36978,-1.03785 0.36979,-1.03786 z m -0.91747,-1.60109 -0.28689,-0.53606 h -0.2128 -0.21281 l -0.30722,0.67428 -0.30722,0.67427 0.40831,0.78958 0.40831,0.78959 0.2942,-0.18182 0.2942,-0.18183 -0.17403,0.28159 -0.17404,0.28159 0.1993,0.4869 0.1993,0.48689 0.0791,-1.51446 0.0791,-1.51446 z m 5.28389,1.73897 -1.18653,-0.63539 -0.18689,0.1147 -0.18688,0.11469 0.14846,0.38688 0.14846,0.38689 0.18335,-0.11332 0.18335,-0.11331 0.38424,0.24307 0.38424,0.24307 0.65737,0.004 0.65736,0.004 z m -1.27969,-2.41051 -1.15148,-0.65827 h -0.23758 -0.23758 v 0.26458 0.26459 h 0.2802 0.2802 l -0.16165,0.26155 -0.16165,0.26155 0.38386,-0.1473 0.38385,-0.14729 0.17467,0.28262 0.17467,0.28262 0.71199,-0.003 0.71199,-0.003 z m -5.18644,-0.44862 0.16703,-0.76049 -0.27692,-0.33367 -0.27693,-0.333669 -0.0889,-2.367473 -0.0889,-2.367472 -0.0544,2.828656 -0.0544,2.828658 -0.19844,0.12265 -0.19843,0.12265 0.0916,-1.150446 0.0916,-1.150448 -0.40175,-0.57358 -0.40175,-0.573579 -0.27087,0.980999 -0.27087,0.980999 0.69978,1.253355 0.69977,1.25335 h 0.33293 0.33292 z m 1.63027,-1.86021 -0.11507,-0.598397 -0.005,1.058333 -0.005,1.058334 0.12041,-0.45994 0.1204,-0.459933 z m 2.56462,0.370318 0.13715,-0.221909 -1.04758,-0.58877 -1.04757,-0.58877 V 98.768 99.329711 l 0.2256,-0.139431 0.22561,-0.139431 0.502,0.379985 0.502,0.379985 0.18282,0.0084 0.18282,0.0084 z m -6.60117,-3.678567 -0.38066,-0.729732 0.017,1.719792 0.017,1.719792 0.36365,-0.99006 0.36364,-0.99006 z m -0.68222,0.317317 0.0479,-1.466493 -0.38149,-0.544659 -0.3815,-0.544659 -0.39633,0.754381 -0.39633,0.754381 0.70458,1.256502 0.70458,1.256502 0.0253,2.69e-4 0.0253,2.69e-4 z m 6.11914,0.746421 -0.39688,-0.149129 -0.7258,-0.508172 -0.72579,-0.508172 -0.25484,0.157496 -0.25483,0.157496 0.14846,0.386882 0.14846,0.386882 0.18335,-0.113314 0.18334,-0.113314 0.38424,0.243074 0.38425,0.243073 0.66145,-0.01684 0.66146,-0.01684 z m -2.07753,-2.85499 -1.15149,-0.658271 h -0.23757 -0.23758 v 0.264583 0.264583 h 0.2802 0.2802 l -0.16165,0.261553 -0.16165,0.261553 0.38386,-0.147299 0.38385,-0.147299 0.17467,0.282621 0.17467,0.282621 0.71199,-0.0032 0.71199,-0.0032 z m -5.56357,-2.149315 -0.2964,-0.650522 -0.0526,-2.170363 -0.0526,-2.170363 -0.0916,1.932861 -0.0916,1.932862 -0.47603,-0.587875 -0.47603,-0.587875 -0.30547,0.876276 -0.30548,0.876276 0.74998,1.299002 0.74997,1.299002 0.0368,-0.978025 0.0368,-0.978025 0.13894,-0.138941 0.13894,-0.138941 0.0273,1.43316 0.0274,1.43316 0.26905,-1.015574 0.26905,-1.015574 z m 3.82009,-0.534108 -0.95086,-0.646123 -0.26061,0.161069 -0.26062,0.16107 0.27857,0.52052 0.27858,0.52052 0.24921,-0.154022 0.24921,-0.154022 0.45947,0.25713 0.45947,0.25713 0.22421,-0.138575 0.22422,-0.138575 z m -5.72259,-2.686818 0.0186,-0.346344 -0.26458,0.163522 -0.26459,0.163521 0.0186,0.711989 0.0186,0.71199 0.2274,-0.529167 0.22739,-0.529167 z m 4.55656,0.343673 -1.15058,-0.657756 -0.22693,0.140249 -0.22692,0.14025 0.14263,0.371695 0.14263,0.371696 0.34822,-0.133623 0.34821,-0.133623 0.17467,0.282621 0.17467,0.282621 0.71199,-0.0032 0.71199,-0.0032 z m -5.84133,-2.597157 -0.27531,-0.275311 -0.10739,0.114653 -0.10738,0.114653 0.30141,1.5875 0.30141,1.5875 0.0813,-1.426842 0.0813,-1.426842 z m 5.00753,0.657117 v -0.222919 l -0.91559,-0.493081 -0.9156,-0.493082 -0.20888,0.223057 -0.20888,0.223057 0.33237,0.118667 0.33238,0.118667 -0.14768,0.238954 -0.14768,0.238955 0.38385,-0.147299 0.38386,-0.147298 0.17467,0.282621 0.17466,0.282621 h 0.38126 0.38126 z m -0.79375,-2.324698 v -0.05297 l -1.22395,-0.684079 -1.22395,-0.684079 h -0.099 -0.099 l 0.006,0.33073 0.006,0.330729 0.82517,0.406324 0.82517,0.406325 h 0.49174 0.49173 z m -2.57086,-3.008633 h 0.4983 l -0.1086,-0.330729 -0.1086,-0.330729 -0.7072,-0.08372 -0.7072,-0.08372 v 0.297772 0.297773 l -0.29098,-0.179836 -0.29098,-0.179836 0.31549,0.589502 0.31549,0.589501 0.29299,-0.292989 0.29299,-0.292989 z"
           id="path149" /><path
           style="fill:#7a7a7a;fill-opacity:1"
           d="m 795.88535,119.09227 -0.52757,-0.87608 -7.85333,-13.82631 -7.85334,-13.82631 -0.76421,-4.055349 -0.76422,-4.05535 0.15401,-1.492244 0.15402,-1.492243 0.20055,0.123945 0.20054,0.123945 0.15172,-0.395355 0.15171,-0.395355 h 3.28419 3.28419 l 0.64845,0.859895 0.64846,0.859896 8.50917,14.984731 8.50918,14.984734 0.66077,1.41943 0.66077,1.41944 0.003,1.13762 0.003,1.13762 0.405,0.78316 0.40499,0.78317 -0.0604,0.89728 -0.0604,0.89728 -1.03356,0.30966 -1.03356,0.30966 -0.36319,0.13937 -0.36318,0.13937 -0.30391,-0.667 -0.3039,-0.66699 -1.82252,-0.0866 -1.82251,-0.0866 0.11403,0.2954 0.11403,0.2954 -1.06401,0.31879 -1.06401,0.31878 -0.33775,0.12961 -0.33775,0.12961 z m 1.80468,-0.4792 h 0.23866 l -0.43619,-0.91471 -0.4362,-0.91471 -0.22098,0.13657 -0.22099,0.13658 v 0.93873 0.93873 l 0.41852,-0.1606 0.41851,-0.16059 z m -1.36346,-1.52136 -0.0232,-1.25677 -0.20605,-1.32292 -0.20605,-1.32291 -0.077,2.11666 -0.077,2.11667 -0.15922,-1.71979 -0.15923,-1.71979 -0.30441,-0.51973 -0.30442,-0.51972 -0.38926,0.9166 -0.38926,0.9166 0.66784,1.19062 0.66785,1.19063 0.29283,0.59325 0.29284,0.59324 0.19843,0.002 0.19844,0.002 z m 9.41459,0.99428 0.16223,-0.26248 -0.27086,-0.46512 -0.27085,-0.46512 -0.008,0.46302 -0.008,0.46303 -3.10885,0.0523 -3.10885,0.0523 2.91041,0.15998 2.91042,0.15998 0.31511,0.0523 0.31512,0.0523 z m -7.14245,-2.38334 -0.41046,-0.79375 h -0.1323 -0.13229 l 0.41047,0.79375 0.41046,0.79375 h 0.13229 0.13229 z m -1.54456,-0.8599 -0.13346,-0.33073 v 0.66146 0.66146 l 0.13346,-0.33073 0.13345,-0.33073 z m 0.70955,-0.52916 -0.20477,-0.33073 -0.1746,-1.05834 -0.17459,-1.05833 -0.0331,0.87729 -0.0331,0.87729 0.27389,0.51177 0.2739,0.51178 h 0.13859 0.1386 z m -3.69837,-2.6327 -0.36141,-0.71446 -0.0477,-2.19596 -0.0477,-2.19595 -0.15077,1.97658 -0.15077,1.97657 -0.363,-0.78595 -0.36301,-0.78595 -0.36184,1.02424 -0.36185,1.02424 0.72485,1.29254 0.72485,1.29254 0.17207,-0.59699 0.17206,-0.59698 0.0465,0.92604 0.0465,0.92604 0.34128,-0.92604 0.34128,-0.92604 z m 4.40109,0.19209 v -0.39008 l -0.76021,-0.39311 -0.7602,-0.39312 -0.14761,0.14761 -0.14761,0.1476 0.14179,0.36949 0.14179,0.36949 0.19788,-0.1223 0.19788,-0.12229 0.502,0.37998 0.502,0.37999 0.0661,0.008 0.0661,0.008 z m -6.58608,-3.99433 -0.29309,-0.81253 -0.0512,-1.8333 -0.0512,-1.8333 -0.1621,2.64584 -0.1621,2.64583 -0.0512,-1.11203 -0.0512,-1.11203 -0.3154,-0.69224 -0.31541,-0.69225 -0.43553,0.87823 -0.43553,0.87824 0.94937,1.78723 0.94938,1.78723 0.35923,-0.86119 0.35923,-0.86119 z m 4.02411,1.57551 -0.1641,-0.42766 0.63543,0.34527 0.63543,0.34527 0.46302,0.0382 0.46302,0.0382 v -0.18951 -0.1895 l -0.46302,-0.14392 -0.46302,-0.14391 -0.8599,-0.57439 -0.85989,-0.57438 v 0.44025 0.44025 l 0.27389,0.51177 0.27389,0.51177 h 0.11468 0.11468 z m -1.1422,-1.9536 -0.2832,-0.52916 h -0.13229 -0.13229 l 0.2832,0.52916 0.2832,0.52917 h 0.13229 0.13229 z m 1.5875,-0.43818 v -0.061 l -1.10853,-0.66105 -1.10853,-0.66104 -0.20283,0.12535 -0.20283,0.12536 0.14846,0.38688 0.14846,0.38689 0.19788,-0.1223 0.19788,-0.1223 0.50188,0.36698 0.50188,0.36699 0.46314,-0.0349 0.46314,-0.0349 z m -6.74126,-3.22546 -0.3813,-0.70198 0.008,1.71979 0.008,1.71979 0.37325,-1.01781 0.37326,-1.01782 z m -0.94852,-1.66873 -0.31192,-0.75304 h -0.17447 -0.17448 l -0.31578,0.8366 -0.31578,0.8366 0.72079,1.32925 0.7208,1.32924 0.0814,-1.4128 0.0814,-1.4128 z m 6.36686,2.36565 v -0.20828 h -0.28988 -0.28989 l -0.76664,-0.54589 -0.76664,-0.5459 -0.25483,0.1575 -0.25484,0.15749 0.14846,0.38688 0.14846,0.38689 0.19788,-0.1223 0.19788,-0.1223 0.50188,0.36698 0.50188,0.36699 0.46314,-0.0349 0.46314,-0.0349 z m -7.61561,-3.58206 -0.0492,-0.991841 -0.2222,-2.513541 -0.2222,-2.513542 -0.057,1.984375 -0.057,1.984375 -0.43129,-0.79375 -0.4313,-0.79375 -0.38138,0.926042 -0.38138,0.926041 0.88545,1.644381 0.88545,1.64438 0.25567,-0.25567 0.25567,-0.25567 z m 4.2599,1.09405 -0.16411,-0.42766 0.5519,0.29536 0.55189,0.29537 0.6127,-0.002 0.61271,-0.002 -1.32292,-0.76411 -1.32291,-0.76411 -0.0829,0.35553 -0.0829,0.35553 0.29063,0.54303 0.29062,0.54303 h 0.11468 0.11468 z m -2.54019,-2.681203 -0.11023,-0.727604 v 1.455207 1.45521 l 0.11023,-0.7276 0.11022,-0.72761 z m 1.12269,0.17841 -0.29392,-0.549194 0.61534,0.343896 0.61534,0.343895 0.62581,0.0595 0.62581,0.0595 -1.23825,-0.785275 -1.23825,-0.785274 -0.24649,0.152339 -0.24648,0.152339 0.40269,0.778734 0.4027,0.778733 h 0.13481 0.13481 z m -4.98522,-3.391525 -0.26605,-0.689489 -0.11644,-0.529167 -0.11644,-0.529167 -0.009,2.116667 -0.009,2.116667 0.3916,-0.898011 0.39161,-0.898012 z m 3.9376,1.559469 -0.2832,-0.529167 h -0.13229 -0.13229 l 0.2832,0.529167 0.2832,0.529167 h 0.13229 0.13229 z m -5.12028,-3.625516 -0.38367,-0.732267 -0.38918,0.922121 -0.38918,0.92212 0.69376,1.30554 0.69376,1.30554 0.0791,-1.495393 0.0791,-1.495394 z m 6.7056,3.118398 -0.002,-0.15434 -1.0884,-0.590996 -1.0884,-0.590996 -0.22078,0.136448 -0.22078,0.136449 0.14846,0.386882 0.14846,0.386882 0.17403,-0.107559 0.17404,-0.107558 0.61579,0.329564 0.6158,0.329564 h 0.37307 0.37307 z m -2.24678,-3.057855 -1.05833,-0.651845 -0.35013,-0.0083 -0.35013,-0.0083 0.0951,0.46302 0.0951,0.463021 0.43347,-0.07316 0.43348,-0.07316 0.16786,0.2716 0.16786,0.2716 0.71199,-0.0014 0.71199,-0.0014 z m -5.59171,-2.044284 -0.36141,-0.714465 -0.0477,-2.195952 -0.0477,-2.195951 -0.15077,1.976574 -0.15077,1.976574 -0.34387,-0.761103 -0.34387,-0.761102 -0.4562,0.901195 -0.45619,0.901195 0.73316,1.267123 0.73316,1.267123 0.33149,0.359828 0.33149,0.359829 0.29526,-0.833202 0.29527,-0.833201 z m 3.06745,0.03298 -0.29392,-0.549194 0.61534,0.343896 0.61534,0.343896 0.62582,0.0595 0.62581,0.0595 -1.23825,-0.785275 -1.23825,-0.785274 -0.24649,0.152339 -0.24649,0.152339 0.4027,0.778735 0.4027,0.778734 h 0.13481 0.1348 z m -5.14051,-3.613587 -0.15052,-0.599719 h -0.2329 -0.2329 l -0.0943,1.186008 -0.0943,1.186007 0.10225,0.306753 0.10225,0.306754 0.3755,-0.893042 0.37549,-0.893043 z m 3.96061,1.516948 -0.41047,-0.79375 0.20523,0.0084 0.20524,0.0084 0.48873,0.370288 0.48874,0.370288 0.38854,-0.149096 0.38854,-0.149096 -1.07622,-0.641782 -1.07623,-0.641781 -0.2621,0.16199 -0.26211,0.16199 0.53258,1.043935 0.53257,1.043935 h 0.13371 0.13371 z m -5.02432,-3.390485 -0.16435,-0.654806 -0.22645,0.236708 -0.22645,0.236708 0.30659,1.5875 0.30659,1.5875 0.0842,-1.169402 0.0842,-1.169402 z m 3.83369,1.273818 -0.2832,-0.529166 h -0.13229 -0.13229 l 0.2832,0.529166 0.2832,0.529167 h 0.13229 0.13229 z m 0.51618,-1.288425 -1.17764,-0.759259 -0.20711,0.185849 -0.20711,0.185849 0.16286,0.424412 0.16286,0.424411 0.34822,-0.133622 0.34822,-0.133623 0.17467,0.282621 0.17466,0.282621 h 0.69901 0.69901 z m -3.51595,-0.629804 -0.13345,-0.330729 v 0.661458 0.661459 l 0.13345,-0.33073 0.13345,-0.330729 z m -1.05833,-1.852083 -0.13346,-0.33073 v 0.661459 0.661458 l 0.13346,-0.330729 0.13345,-0.330729 z m 4.32268,0.696049 v -0.05045 L 782.72,84.09676 l -1.19433,-0.699924 -0.26159,0.161673 -0.26159,0.161674 0.27857,0.52052 0.27858,0.52052 0.24921,-0.154022 0.24921,-0.154022 0.39706,0.222207 0.39706,0.222207 h 0.53108 0.53107 z m -3.0427,-1.95282 -0.16795,-0.529167 0.61314,-0.03133 0.61314,-0.03133 0.20665,0.03407 0.20664,0.03407 -0.39529,-0.764424 -0.3953,-0.764424 -0.4283,-0.164354 -0.4283,-0.164354 h -0.35584 -0.35583 l -0.10781,0.46302 -0.1078,0.463021 0.534,0.992188 0.534,0.992187 h 0.1014 0.1014 z m -1.45521,-2.38125 -0.2832,-0.529167 h -0.13229 -0.1323 l 0.28321,0.529167 0.2832,0.529166 h 0.13229 0.13229 z"
           id="path148" /><path
           style="fill:#686868;fill-opacity:1"
           d="m 795.61063,118.56402 -0.79754,-1.40616 -7.55799,-13.29499 -7.55799,-13.294989 -0.5562,-2.907134 -0.55619,-2.907135 0.1686,-0.59892 0.1686,-0.59892 -0.29899,0.396875 -0.29899,0.396875 0.0941,-0.973628 0.0941,-0.973628 -0.25097,0.155106 -0.25096,0.155105 0.17035,-0.636686 0.17036,-0.636686 0.004,-0.859896 0.004,-0.859895 0.19843,0.0018 0.19844,0.0018 1.0077,1.850313 1.00769,1.850313 h 0.14509 0.14509 l -0.1455,-0.379168 -0.1455,-0.379169 0.77499,-0.170216 0.77499,-0.170217 -0.36876,-0.707386 -0.36877,-0.707385 -0.8182,-0.47798 -0.81819,-0.477979 -0.0117,0.742563 -0.0117,0.742562 -0.54196,-1.027587 -0.54195,-1.027588 0.35388,-0.218712 0.35388,-0.218712 3.13945,0.03768 3.13945,0.03768 0.87503,1.340913 0.87503,1.340914 8.26212,14.552084 8.26213,14.552083 0.62058,1.32291 0.62057,1.32292 0.011,1.32292 0.011,1.32291 0.38846,0.51359 0.38846,0.51359 -0.008,0.41246 -0.008,0.41245 -0.35716,-0.4708 -0.35717,-0.4708 -0.15528,0.40465 -0.15528,0.40466 h -3.05101 -3.05102 v 0.6083 0.60831 l -0.99218,0.35513 -0.99219,0.35512 -0.30153,0.112 -0.30152,0.112 z m 1.90053,0.15594 0.41093,-0.15769 -0.52696,-1.03294 -0.52697,-1.03293 h -0.12691 -0.12692 v 1.19062 1.19063 h 0.24295 0.24294 z m -1.21965,-3.06606 -0.20634,-0.44563 -0.0375,-1.40646 -0.0375,-1.40645 -0.16586,1.05833 -0.16586,1.05833 -0.43867,-0.79375 -0.43867,-0.79375 -0.39153,0.92085 -0.39154,0.92085 0.40665,0.79895 0.40665,0.79894 0.69311,1.19062 0.6931,1.19063 0.1402,-1.32292 0.1402,-1.32292 z m 2.22129,-0.11297 -1.02672,-1.82266 -0.14458,-1.11308 -0.14459,-1.11308 0.63476,0.41591 0.63475,0.4159 v -0.39687 -0.39688 l -0.68975,-0.45193 -0.68974,-0.45194 -0.26081,0.26081 -0.26081,0.26081 0.2891,0.54018 0.28909,0.54018 v 0.71057 0.71058 l 1.10788,1.9472 1.10788,1.94721 0.0901,-0.0901 0.0901,-0.0901 z m -1.44675,-0.69509 -0.11507,-0.5984 -0.005,1.05833 -0.005,1.05834 0.12041,-0.45994 0.1204,-0.45994 z m -2.90139,-1.55773 0.31217,-0.82703 -0.38646,-0.74733 -0.38645,-0.74732 -0.0477,-2.19596 -0.0477,-2.19595 -0.15077,1.97658 -0.15077,1.97657 -0.35707,-0.78595 -0.35708,-0.78595 -0.44393,0.92604 -0.44393,0.92605 0.9333,1.65119 0.9333,1.6512 0.14043,0.002 0.14043,0.002 z m 1.56657,-2.67869 -0.13345,-0.33073 v 0.66146 0.66146 l 0.13345,-0.33073 0.13345,-0.33073 z m 0.50123,-0.52189 -0.41188,-0.58804 v -0.21502 -0.21502 l 0.59532,0.32379 0.59531,0.3238 0.46302,0.0382 0.46302,0.0382 -0.004,-0.15422 -0.004,-0.15422 -1.31911,-0.72753 -1.3191,-0.72752 9.9e-4,0.46294 9.9e-4,0.46294 0.52428,0.8599 0.52429,0.85989 h 0.15119 0.15118 z m -4.35212,-2.20888 -0.29309,-0.81253 -0.0477,-2.09788 -0.0477,-2.09788 -0.15077,1.98437 -0.15077,1.98438 -0.37547,-0.89042 -0.37547,-0.89042 -0.48025,0.9361 -0.48024,0.93609 0.988,1.73925 0.98801,1.73925 0.35923,-0.85888 0.35923,-0.85889 z m 2.75408,-0.63404 -0.43143,-0.8343 0.68476,0.44868 0.68477,0.44867 0.16583,-0.16583 0.16584,-0.16584 0.35507,0.29468 0.35507,0.29469 -0.002,-0.23084 -0.002,-0.23083 -1.12244,-0.66036 -1.12244,-0.66036 -0.26459,-0.001 -0.26458,-0.001 -0.46302,-0.734 -0.46302,-0.734 v -0.1352 -0.13521 l 0.59531,0.33504 0.59531,0.33505 0.46302,0.035 0.46302,0.035 -0.002,-0.16231 -0.002,-0.16231 -1.10454,-0.59984 -1.10454,-0.59984 -0.23277,0.23276 -0.23276,0.23277 1.27334,2.25335 1.27334,2.25336 0.0857,-0.0758 0.0856,-0.0758 z m -5.03711,-3.45899 -0.39131,-0.75669 -0.0477,-2.19596 -0.0477,-2.195947 -0.15077,1.984377 -0.15077,1.98437 -0.21627,-0.59531 -0.21627,-0.59531 h -0.22623 -0.22624 l -0.30079,0.9114 -0.30079,0.91141 0.45549,0.74224 0.45549,0.74224 0.55163,0.85132 0.55163,0.85133 0.32591,-0.94139 0.32592,-0.94138 z m 2.41725,-1.17054 -0.42731,-0.65215 v -0.15091 -0.15091 l 0.59531,0.3238 0.59532,0.32379 0.46302,0.0382 0.46302,0.0382 -2.7e-4,-0.15422 -2.7e-4,-0.15422 -1.28465,-0.72151 -1.28465,-0.72151 -0.15974,0.15974 -0.15973,0.15974 0.41939,0.82635 0.41939,0.82635 0.26391,0.33073 0.26391,0.33073 h 0.13033 0.13032 z m -4.5666,-1.00149 0.36015,-0.8599 -0.35939,-0.71447 -0.35939,-0.714461 -0.0477,-2.195951 -0.0477,-2.195952 -0.15077,1.984375 -0.15077,1.984375 -0.38188,-0.905883 -0.38187,-0.905883 -0.43067,1.027063 -0.43066,1.027063 0.94483,1.662304 0.94483,1.66231 0.0654,0.002 0.0654,0.002 z m 2.93941,-1.803841 -0.41972,-0.811649 0.61136,0.341767 0.61137,0.341767 0.62581,0.0595 0.62581,0.0595 -1.23825,-0.785275 -1.23825,-0.785274 -0.20385,0.125992 -0.20386,0.125992 -0.44069,-0.924133 -0.44069,-0.924133 0.59552,0.333291 0.59553,0.333291 0.59531,0.05716 0.59531,0.05715 v -0.0913 -0.0913 l -1.21695,-0.713185 -1.21696,-0.713184 -0.22632,0.226318 -0.22631,0.226317 1.19424,2.181518 1.19424,2.181521 h 0.12354 0.12353 z m -5.12965,-3.61472 -0.28505,-0.625614 -0.0313,-1.112029 -0.0313,-1.11203 -0.18772,0.79375 -0.18772,0.79375 -0.35261,-0.727604 -0.35261,-0.727604 h -0.17773 -0.17772 l -0.28986,0.94447 -0.28987,0.944471 0.95561,1.630508 0.95562,1.630507 0.36866,-0.903481 0.36866,-0.903481 z m 2.5235,-0.988281 -0.4273,-0.652149 v -0.15091 -0.15091 l 0.51177,0.273893 0.51177,0.273892 h 0.59836 0.59837 l -1.27838,-0.810719 -1.27837,-0.81072 -0.22,0.220001 -0.22,0.22 0.66782,1.119886 0.66782,1.119886 h 0.14772 0.14773 z m -4.74148,-1.558723 0.27252,-0.887956 -0.35105,-0.633398 -0.35104,-0.633399 -0.057,-2.248958 -0.0571,-2.248958 -0.15077,1.976574 -0.15077,1.976574 -0.36653,-0.785949 -0.36654,-0.785949 -0.33483,0.79375 -0.33484,0.79375 -0.0924,0.169002 -0.0924,0.169001 0.90949,1.616936 0.90948,1.616936 h 0.17061 0.1706 z m 3.1143,-1.24661 -0.41972,-0.811649 0.61136,0.341767 0.61136,0.341768 0.59532,0.05715 0.59531,0.05715 v -0.09382 -0.09382 l -1.21972,-0.681714 -1.21972,-0.681713 -0.23352,0.144325 -0.23352,0.144324 0.53257,1.043935 0.53258,1.043935 h 0.13371 0.13371 z m -1.52341,-1.103495 -0.11507,-0.598398 -0.005,1.058334 -0.005,1.058333 0.1204,-0.459936 0.12041,-0.459936 z m -3.63865,-2.269438 0.0119,-0.348123 -0.32408,-0.577918 -0.32409,-0.577919 -0.16451,1.322917 -0.16452,1.322917 0.14197,0.387889 0.14196,0.387889 0.3347,-0.784764 0.3347,-0.784764 z m 3.83914,0.991683 -0.41972,-0.811649 0.56843,0.304212 0.56842,0.304211 0.63825,0.115737 0.63825,0.115737 v -0.112325 -0.112325 l -1.19433,-0.699924 -1.19433,-0.699925 -0.25891,0.160015 -0.25891,0.160015 0.53258,1.043935 0.53257,1.043935 h 0.13371 0.13371 z m -5.09392,-3.512418 -0.3598,-0.752192 -0.14499,0.144985 -0.14498,0.144986 0.35815,1.797831 0.35816,1.797832 0.14663,-1.190625 0.14662,-1.190625 z m 3.78026,1.149067 -0.41046,-0.79375 h 0.25576 0.25576 l 0.16352,0.264583 0.16352,0.264584 0.71199,-0.005 0.71199,-0.005 -1.28908,-0.809323 -1.28909,-0.809323 -0.21246,0.219038 -0.21245,0.219038 0.66851,1.124479 0.66851,1.124479 h 0.11222 0.11222 z m -2.86032,-1.785938 -0.121,-0.46302 v 0.926041 0.926042 l 0.121,-0.463021 0.121,-0.463021 z m 1.2377,-1.008647 -0.47427,-0.723832 0.65157,0.363285 0.65157,0.363285 0.59531,0.05716 0.59531,0.05715 v -0.07689 -0.07689 l -1.30767,-0.812893 -1.30767,-0.812892 -0.11436,0.310323 -0.11436,0.310322 0.54305,0.989228 0.54305,0.989228 0.10637,-0.106376 0.10638,-0.106375 z m -2.29129,-0.70806 -0.11507,-0.598397 -0.005,1.058333 -0.005,1.058334 0.12041,-0.459936 0.1204,-0.459936 z m 0.25819,-1.309465 -0.13896,-0.347265 -0.0209,0.507118 -0.0209,0.507118 0.15985,-0.159853 0.15986,-0.159852 z m 23.05957,36.441056 -0.29626,-0.65022 -1.74859,-0.0963 -1.74858,-0.0963 3.37343,-0.0215 3.37344,-0.0215 v 0.34629 0.34629 l -1.23776,0.42175 -1.23775,0.42174 h -0.0908 -0.0908 z m 1.29428,-0.56796 -0.15985,-0.15986 -0.34727,0.13897 -0.34726,0.13896 0.50712,0.0209 0.50712,0.0209 z"
           id="path147" /><path
           style="fill:#575757;fill-opacity:1"
           d="m 788.18585,105.41828 -8.21041,-14.454174 -0.27951,-0.744829 -0.27951,-0.744828 0.0116,-0.445797 0.0116,-0.445796 0.38127,1.058333 0.38128,1.058333 0.0254,0.132292 0.0254,0.132292 0.48367,-1.038256 0.48366,-1.038256 -0.37879,-0.578109 -0.37879,-0.578109 0.11695,-0.36801 0.11696,-0.36801 0.14424,-1.455209 0.14425,-1.455208 -0.2366,0.529166 -0.23661,0.529167 -0.0203,1.190625 -0.0203,1.190625 -0.47995,-0.727851 -0.47996,-0.727851 0.1978,-1.388816 0.1978,-1.388815 -0.005,-0.529167 -0.005,-0.529167 -0.2162,0.79375 -0.21619,0.79375 -0.19794,1.587501 -0.19794,1.5875 -0.21334,-0.926042 -0.21334,-0.926042 0.14197,-0.926042 0.14197,-0.926041 -0.30418,0.396875 -0.30418,0.396875 0.16191,-1.058334 0.1619,-1.058333 -0.29936,0.396875 -0.29936,0.396875 0.15725,-0.48466 0.15726,-0.484661 v -0.904402 -0.904402 h 0.23248 0.23248 l 6.32533,11.178646 6.32533,11.178647 -0.0978,2.0892 -0.0978,2.0892 -0.48621,-0.74119 -0.48621,-0.74118 -0.4126,0.98747 -0.41259,0.98748 0.98721,1.7187 0.9872,1.7187 0.43893,-0.9914 0.43894,-0.99141 -0.38353,-0.58534 -0.38353,-0.58534 0.0769,-2.30098 0.0769,-2.30099 2.71198,4.7519 2.71198,4.7519 v 0.72761 0.72761 l 1.00255,1.88465 1.00255,1.88466 -0.0898,0.81365 -0.0898,0.81365 -1.28636,0.41136 -1.28635,0.41136 z m 9.74966,12.97046 -0.002,-0.17255 -0.4927,-0.74728 -0.4927,-0.74729 0.0623,-1.1048 0.0623,-1.1048 -0.11454,0.88646 -0.11454,0.88646 -0.37091,-0.48958 -0.3709,-0.48959 -0.0397,-1.71979 -0.0397,-1.71979 -0.21637,-0.79375 -0.21637,-0.79375 0.12976,2.11667 0.12977,2.11666 -0.47254,-0.7276 -0.47254,-0.7276 h -0.15015 -0.15015 l -0.32486,0.89838 -0.32486,0.89838 1.23714,2.11683 1.23713,2.11683 0.75437,-0.26297 0.75436,-0.26297 z m -1.5137,-0.83401 v -1.19062 l 0.11467,0.59531 0.11466,0.59531 -0.11466,0.59531 -0.11467,0.59532 z m -2.19049,-4.36027 0.30385,-0.92069 -0.41562,-0.59339 -0.41563,-0.59339 -0.0518,-2.25623 -0.0518,-2.25624 -0.0947,1.85209 -0.0947,1.85208 -0.45615,-0.6035 -0.45614,-0.60349 -0.4077,0.89948 -0.40769,0.89947 0.93511,1.62225 0.93512,1.62225 h 0.18698 0.18697 z m -4.49993,-9.23416 -0.35251,-0.56078 -0.17886,-2.38125 -0.17887,-2.381247 -0.0457,1.852087 -0.0457,1.85208 -0.49234,-0.64048 -0.49234,-0.64047 -0.18426,0.83891 -0.18425,0.83891 h -0.25472 -0.25471 l 0.71181,1.25678 0.71181,1.25677 0.39468,0.64248 0.39468,0.64248 0.40195,-1.00775 0.40194,-1.00775 z m -2.22385,-2.4231 0.3912,-0.93628 -0.4047,-0.5778 -0.40471,-0.577798 -0.0467,-2.256233 -0.0467,-2.256233 -0.15171,1.852083 -0.15172,1.852084 -0.42401,-0.765274 -0.424,-0.765275 -0.30479,0.874325 -0.30479,0.874324 -0.16672,-0.166712 -0.16671,-0.166712 0.3243,-0.782934 0.3243,-0.782934 -0.27968,-0.879196 -0.27968,-0.879196 -0.25588,-2.248958 -0.25588,-2.248959 0.0996,1.984375 0.0996,1.984376 -0.52082,-0.632795 -0.52082,-0.632794 -0.08,0.103628 -0.08,0.103627 -0.33023,0.830629 -0.33022,0.830629 2.06079,3.601142 2.06078,3.601141 h 0.0894 0.0894 z m -4.4237,-7.925262 0.33413,-0.924042 -0.41327,-0.590038 -0.41328,-0.590037 -0.0518,-2.256233 -0.0518,-2.256232 -0.0947,1.852083 -0.0947,1.852083 -0.45614,-0.603496 -0.45615,-0.603497 -0.41172,0.908366 -0.41173,0.908366 0.90619,1.61336 0.90618,1.61336 h 0.18731 0.1873 z m -4.01585,-8.650567 -0.13896,-0.347266 -0.0209,0.507119 -0.0209,0.507118 0.15985,-0.159853 0.15986,-0.159852 z m 23.88782,34.297229 -0.33348,-0.62312 -1.74723,-0.0963 -1.74722,-0.0963 3.37343,-0.0215 3.37344,-0.0215 v 0.3403 0.3403 l -0.46302,0.14174 -0.46302,0.14173 -0.82971,0.25887 -0.8297,0.25888 z m 1.25978,-0.5408 -0.15985,-0.15986 -0.34727,0.13897 -0.34726,0.13896 0.50712,0.0209 0.50712,0.0209 z m -4.69084,-1.18305 v -0.28457 l -1.02185,-1.76595 -1.02185,-1.76596 -0.14207,-1.11308 -0.14207,-1.11308 0.63476,0.41591 0.63475,0.4159 v -0.39687 -0.39688 l -0.68442,-0.44844 -0.68441,-0.44845 -0.15248,0.15249 -0.15249,0.15248 -0.48602,-0.7992 -0.48602,-0.79919 v -0.13521 -0.1352 l 0.59532,0.32379 0.59531,0.3238 0.46302,0.0382 0.46302,0.0382 -2.7e-4,-0.15422 -2.7e-4,-0.15422 -1.32264,-0.74287 -1.32265,-0.74286 -0.009,0.2137 -0.009,0.2137 -0.37813,-0.66146 -0.37812,-0.66146 -0.009,-0.16726 -0.009,-0.16726 0.99219,0.34201 0.99218,0.34202 0.11025,-0.10861 0.11024,-0.10861 -0.11024,-0.0772 -0.11025,-0.0771 -1.13374,-0.72649 -1.13375,-0.72648 -0.21172,0.13084 -0.21171,0.13085 -0.45896,-0.96245 -0.45896,-0.96244 0.4186,0.3474 0.41859,0.3474 0.79051,0.0921 0.79052,0.092 v -0.10199 -0.10198 l -1.2114,-0.70993 -1.21139,-0.70992 -0.15467,0.15467 -0.15467,0.15466 -0.48602,-0.79919 -0.48602,-0.7992 v -0.1352 -0.13521 l 0.59531,0.3238 0.59532,0.32379 0.46302,0.0382 0.46302,0.0382 -0.002,-0.15422 -0.002,-0.15422 -1.12244,-0.66036 -1.12244,-0.66036 -0.26458,-0.001 -0.26459,-0.001 -0.32135,-0.52917 -0.32135,-0.529164 -0.009,-0.214052 -0.009,-0.214053 0.27321,0.168848 0.2732,0.168847 0.78513,0.225173 0.78513,0.225171 v -0.223491 -0.223494 l -1.21972,-0.681713 -1.21971,-0.681713 -0.19189,0.118594 -0.19189,0.118595 -0.44069,-0.924133 -0.44069,-0.924133 0.59552,0.333291 0.59553,0.333291 0.59531,0.05716 0.59531,0.05715 v -0.07689 -0.07689 l -1.30767,-0.812893 -1.30767,-0.812892 -0.0884,0.265334 -0.0884,0.265335 -0.43306,-0.908148 -0.43307,-0.908147 0.96929,0.334139 0.96928,0.334139 0.11298,-0.111341 0.11298,-0.111341 -0.50986,-0.378869 -0.50985,-0.378869 -0.96835,-0.475894 -0.96835,-0.475894 -0.30675,-0.491185 -0.30675,-0.491185 0.14423,-0.14423 0.14423,-0.14423 0.33712,0.255477 0.33712,0.255476 0.59532,0.03037 0.59531,0.03037 v -0.09071 -0.09071 l -1.19433,-0.699924 -1.19433,-0.699924 -0.21728,0.134284 -0.21728,0.134285 -0.44069,-0.924133 -0.44068,-0.924133 0.59552,0.333291 0.59553,0.333292 0.59531,0.05715 0.59531,0.05715 v -0.07689 -0.07689 l -1.30767,-0.812892 -1.30767,-0.812893 -0.0884,0.265335 -0.0885,0.265334 -0.43306,-0.908147 -0.43307,-0.908148 0.96929,0.334139 0.96928,0.334139 0.11298,-0.111341 0.11297,-0.111341 -0.50985,-0.390109 -0.50985,-0.390109 -0.97413,-0.467053 -0.97414,-0.467053 -0.27696,-0.595313 -0.27697,-0.595312 h 0.2433 0.2433 l 0.14308,0.23151 0.14308,0.231511 h 0.66628 0.66628 v -0.05967 -0.05967 l -1.31959,-0.820308 -1.3196,-0.820307 0.15728,-0.409866 0.15728,-0.409867 h 0.37536 0.37536 l -0.39014,-0.754459 -0.39015,-0.75446 -0.66567,-0.436165 -0.66567,-0.436166 h -0.1232 -0.1232 l -0.0921,0.595312 -0.0921,0.595313 -0.4449,-0.826351 -0.44489,-0.826351 0.16583,-0.165836 0.16584,-0.165837 h 3.38683 3.38683 l 1.43462,2.447396 1.43462,2.447396 7.14679,12.587616 7.1468,12.587619 1.08453,2.15703 1.08453,2.15704 v 1.27822 1.27822 l 0.38846,0.51359 0.38846,0.51359 0.008,0.3813 0.008,0.38129 -0.35432,-0.48456 -0.35432,-0.48457 -0.16654,0.434 -0.16654,0.434 h -2.78643 -2.78643 z m -19.51244,-28.951894 0.005,-1.058334 0.11506,0.598398 0.11507,0.598397 -0.1204,0.459936 -0.12041,0.459936 z m -0.8187,-0.926042 v -0.661458 l 0.13345,0.330729 0.13346,0.330729 -0.13346,0.330729 -0.13345,0.330729 z"
           id="path146" /><path
           style="fill:#454545;fill-opacity:1"
           d="m 795.99194,119.07609 -0.37001,-0.59532 -7.87649,-13.87629 -7.87649,-13.87629 -0.10144,-0.543501 -0.10144,-0.5435 0.30314,0.661458 0.30313,0.661459 0.47795,-1.047207 0.47794,-1.047207 -0.24445,-0.456753 -0.24444,-0.456754 0.0313,-1.141873 0.0313,-1.141873 0.17148,-0.79375 0.17147,-0.79375 0.65818,1.190625 0.65819,1.190625 -0.13336,2.095585 -0.13336,2.095585 -0.38986,-0.733471 -0.38986,-0.73347 -0.43283,1.019136 -0.43283,1.019135 0.95498,1.781446 0.95499,1.781447 0.15655,0.0045 0.15656,0.0045 0.3233,-1.079079 0.3233,-1.079079 -0.42392,-0.646986 -0.42392,-0.646985 0.0763,-2.240747 0.0764,-2.240746 2.11667,3.768373 2.11666,3.768374 -0.0884,2.089199 -0.0884,2.089199 -0.48621,-0.741184 -0.48621,-0.741183 -0.41539,0.99416 -0.41538,0.99416 0.94662,1.692722 0.94662,1.69272 h 0.19742 0.19742 l 0.30182,-0.98341 0.30182,-0.98341 -0.38972,-0.594781 -0.38972,-0.594782 0.0106,-2.324413 0.0106,-2.324413 0.40699,0.750995 0.40699,0.750995 0.13109,-0.131095 0.1311,-0.131095 -0.43244,-0.836237 -0.43243,-0.836236 0.61136,0.337993 0.61136,0.337993 0.35728,-0.07321 0.35728,-0.07321 -0.16625,0.269004 -0.16625,0.269004 0.53468,0.286155 0.53469,0.286154 -0.28092,-0.616544 -0.28092,-0.616543 -1.18318,-0.71467 -1.18318,-0.714669 h -0.21133 -0.21133 l -0.29664,-0.651038 -0.29663,-0.651038 0.71719,0.314738 0.71718,0.314738 0.21158,0.3363 0.21159,0.3363 h 0.22667 0.22666 l -0.1362,-0.520833 -0.1362,-0.520832 -1.16565,-0.683117 -1.16565,-0.683117 -0.19473,0.117586 -0.19474,0.117586 -0.47821,-0.938396 -0.47821,-0.938396 0.68412,0.448256 0.68412,0.448255 0.25711,-0.158902 0.25711,-0.158903 v 0.384182 0.384183 l 0.36693,0.140803 0.36693,0.140804 -0.13205,-0.504953 -0.13205,-0.504954 -1.26742,-0.779856 -1.26743,-0.779856 -0.13857,0.138568 -0.13857,0.138568 -0.40013,-0.773774 -0.40013,-0.773773 0.88934,0.278361 0.88935,0.278362 -0.11926,0.192965 -0.11926,0.192966 0.51061,0.273269 0.51061,0.273268 -0.14303,-0.546937 -0.14303,-0.546937 -1.22006,-0.766363 -1.22007,-0.766362 -0.28826,-0.005 -0.28826,-0.005 -0.29663,-0.651039 -0.29663,-0.651038 0.71718,0.317223 0.71719,0.317223 0.36222,0.346415 0.36223,0.346414 0.10702,-0.107022 0.10702,-0.107021 -0.16951,-0.441758 -0.16952,-0.441757 -1.15963,-0.679587 -1.15962,-0.679586 V 83.017079 82.66096 l 0.26458,-0.163521 0.26458,-0.163522 v 0.384183 0.384182 l 0.37765,0.144916 0.37764,0.144916 -0.28462,-0.816472 -0.28463,-0.816472 -1.05096,-1.019928 -1.05097,-1.019928 h -0.19599 -0.19599 l 0.11904,0.727604 0.11904,0.727604 -0.53754,-0.777245 -0.53754,-0.777244 0.13284,-0.214943 0.13284,-0.214943 3.35783,0.0018 3.35782,0.0018 0.57322,0.858088 0.57321,0.858088 8.26482,14.552084 8.26481,14.552083 0.88541,1.84462 0.8854,1.84461 0.009,1.19809 0.009,1.19809 0.37812,0.66146 0.37812,0.66146 v 0.26458 0.26459 l -0.35515,-0.64107 -0.35514,-0.64106 -0.18248,0.57492 -0.18247,0.57492 h -2.76029 -2.7603 v -0.28774 -0.28774 l -0.99219,-1.76278 -0.99218,-1.76279 -0.14095,-1.09291 -0.14096,-1.09291 0.63288,0.41468 0.63288,0.41468 -0.0951,-0.48154 -0.0951,-0.48154 -0.91738,-0.49144 -0.91737,-0.49144 -0.36516,-0.69694 -0.36517,-0.69695 0.58531,0.40997 0.58531,0.40997 0.37732,-0.1448 0.37732,-0.14479 -0.077,0.33012 -0.077,0.33011 0.30991,0.11433 0.30991,0.11433 -0.12563,-0.48039 -0.12562,-0.48039 -1.11033,-0.6592 -1.11033,-0.6592 -0.26458,-0.10907 -0.26458,-0.10906 -0.32232,-0.4201 -0.32231,-0.4201 -0.008,-0.19277 -0.008,-0.19276 0.7276,0.31949 0.72761,0.31948 0.21158,0.3363 0.21159,0.3363 h 0.22666 0.22667 l -0.13674,-0.52287 -0.13673,-0.52288 -1.19051,-0.66538 -1.1905,-0.66539 -0.19189,0.1186 -0.19189,0.11859 -0.43848,-0.9195 -0.43848,-0.9195 0.64783,0.42447 0.64782,0.42447 0.24614,-0.15212 0.24614,-0.15212 0.1376,0.52619 0.1376,0.52619 h 0.28083 0.28083 l -0.21193,-0.57291 -0.21194,-0.57291 -1.43318,-0.76543 -1.43319,-0.76542 -0.34925,-0.66526 -0.34925,-0.66526 0.61383,0.33931 0.61384,0.33932 0.35728,-0.0732 0.35728,-0.0732 -0.16626,0.269 -0.16625,0.269 0.50915,0.27249 0.50915,0.27249 -0.28998,-0.61445 -0.28997,-0.61446 -1.07166,-0.63695 -1.07166,-0.63694 -0.26458,-0.10907 -0.26459,-0.10907 -0.32231,-0.4201 -0.32232,-0.42009 -0.008,-0.192765 -0.008,-0.192765 0.72761,0.319486 0.7276,0.319485 0.21159,0.336299 0.21158,0.3363 h 0.22667 0.22666 l -0.1362,-0.52083 -0.1362,-0.520834 -1.16565,-0.683117 -1.16565,-0.683117 -0.21728,0.134285 -0.21727,0.134285 -0.45536,-0.954889 -0.45535,-0.95489 0.68381,0.448051 0.68381,0.44805 0.25711,-0.158903 0.25711,-0.158902 v 0.384182 0.384182 l 0.38336,0.147109 0.38336,0.147108 -0.18816,-0.508628 -0.18815,-0.508629 -1.23257,-0.781672 -1.23257,-0.781673 -0.15406,0.401459 -0.15405,0.401458 2.71412,4.804935 2.71412,4.80494 -0.13364,2.09558 -0.13364,2.09559 -0.37527,-0.70622 -0.37528,-0.70622 -0.45115,0.99188 -0.45115,0.99189 0.79847,1.4552 0.79847,1.45521 0.31339,0.34213 0.31339,0.34213 0.3191,-1.06505 0.31909,-1.06505 -0.41667,-0.80575 -0.41668,-0.80576 0.0767,-2.09696 0.0767,-2.09696 1.65365,2.89188 1.65364,2.89188 v 0.71179 0.71178 l 0.92604,1.68472 0.92604,1.68473 v 1.00735 1.00734 l -1.02288,0.30647 -1.02288,0.30646 h -0.29394 -0.29393 z m 1.65569,-1.35932 -0.50215,-0.8235 -0.0358,-1.32291 -0.0358,-1.32292 -0.17077,0.92604 -0.17076,0.92604 -0.32357,-0.57791 -0.32357,-0.57792 v -2.11845 -2.11845 l -0.30644,-0.18938 -0.30643,-0.18939 0.16223,1.95971 0.16224,1.95971 -0.49916,-0.65751 -0.49917,-0.6575 -0.10472,0.12834 -0.10472,0.12834 -0.33656,0.84592 -0.33656,0.84592 1.24715,2.0966 1.24715,2.09661 0.8698,-0.26695 0.8698,-0.26695 z m -1.2463,-0.29433 0.01,-0.79375 0.12197,0.46806 0.12196,0.46805 -0.13177,0.3257 -0.13177,0.32569 z m -4.34228,-8.24673 0.27944,-0.8384 -0.36721,-0.48452 -0.3672,-0.48452 -0.008,-2.29949 -0.008,-2.29949 -0.22425,-0.13859 -0.22425,-0.13859 0.10318,2.04121 0.10318,2.0412 -0.41655,-0.7276 -0.41654,-0.72761 h -0.13734 -0.13735 l -0.39094,0.93567 -0.39094,0.93566 0.96719,1.7295 0.96719,1.72951 0.19489,-0.21777 0.19489,-0.21777 z m -2.31339,-5.36952 -0.3016,-0.93583 -0.21613,-2.11667 -0.21612,-2.116667 -0.0352,1.844807 -0.0352,1.84481 -0.43845,-0.62597 -0.43845,-0.62597 -0.44562,0.89783 -0.44563,0.89783 0.79375,1.4552 0.79374,1.45521 0.28274,0.36414 0.28274,0.36413 0.36051,-0.8835 0.36051,-0.88351 z m -4.25576,-7.071782 0.0119,-0.579697 -0.26458,-0.163522 -0.26458,-0.163521 -0.0264,-1.902615 -0.0264,-1.902614 -0.22429,-0.661458 -0.22428,-0.661459 0.0522,1.937625 0.0522,1.937625 -0.363,-0.548562 -0.363,-0.548562 h -0.21179 -0.21179 l -0.30725,0.93096 -0.30724,0.930961 1.01412,1.733622 1.01413,1.733622 0.319,-0.746354 0.319,-0.746353 z m 17.48087,22.419852 -0.27677,-0.51715 -1.78306,-0.10009 -1.78306,-0.10009 3.37343,-0.005 3.37344,-0.005 v 0.31542 0.31543 l -1.02288,0.30647 -1.02289,0.30646 h -0.29072 -0.29072 z m 1.18419,-0.27661 0.52917,-0.22739 -0.72761,-0.0186 -0.7276,-0.0186 v 0.26458 0.26458 l 0.19844,-0.0186 0.19843,-0.0186 z m -24.71765,-29.787676 0.0209,-0.507118 0.13897,0.347265 0.13896,0.347266 -0.15985,0.159852 -0.15985,0.159853 z m 0.55986,-0.507118 0.01,-0.79375 0.12197,0.468056 0.12197,0.468056 -0.13178,0.325694 -0.13177,0.325694 z m -0.82445,-0.815799 0.0209,-0.507118 0.13897,0.347266 0.13896,0.347265 -0.15985,0.159853 -0.15985,0.159852 z m 0.81006,-1.130627 -0.35058,-0.623509 0.15331,-1.228574 0.1533,-1.228575 0.0103,-0.661458 0.0103,-0.661459 0.38994,0.513591 0.38995,0.513591 v 0.229628 0.229629 l 0.29098,-0.179836 0.29098,-0.179836 -0.34709,0.627242 -0.34708,0.627241 -0.14689,1.322917 -0.14688,1.322917 z m -1.05375,-0.567116 v -0.661458 l 0.13345,0.330729 0.13345,0.330729 -0.13345,0.330729 -0.13345,0.330729 z m -0.14726,-1.691894 0.17872,-1.030436 -0.23505,0.144989 -0.23506,0.144988 v -1.672009 -1.67201 l 0.15138,-0.151563 0.15138,-0.151562 0.57915,1.030456 0.57914,1.030456 -0.2675,0.7036 -0.26751,0.7036 -0.0209,0.974963 -0.0209,0.974964 -0.14343,-0.360668 -0.14343,-0.360667 -0.24237,0.360667 -0.24237,0.360668 z"
           id="path145" /><path
           style="fill:#333333;fill-opacity:1"
           d="m 795.89038,118.83165 -0.52743,-0.88004 -7.84097,-13.80895 -7.84098,-13.808937 0.0119,-0.346267 0.0119,-0.346267 0.3284,0.769362 0.32841,0.769361 0.44507,-1.133058 0.44508,-1.133058 -0.28656,-0.535456 -0.28657,-0.535456 0.18131,-1.839998 0.18131,-1.839998 -0.28329,0.175078 -0.28328,0.175078 v 1.027103 1.027104 l -0.23686,0.146387 -0.23686,0.146387 -0.16001,-0.416995 -0.16002,-0.416995 v -0.758964 -0.758963 l 0.44164,-0.247154 0.44164,-0.247154 -0.34884,-0.842182 -0.34885,-0.842183 -0.22103,0.348585 -0.22104,0.348585 -0.008,1.058334 -0.008,1.058333 -0.25648,-0.396875 -0.25649,-0.396875 -0.008,-0.661458 -0.008,-0.661459 -0.19439,0.305782 -0.19438,0.305781 0.0329,-1.705692 0.0329,-1.705693 0.10616,-0.106158 0.10616,-0.106158 1.02843,1.82583 1.02844,1.82583 0.26245,-0.162204 0.26245,-0.162203 -0.18107,0.29298 -0.18107,0.29298 1.81263,3.253629 1.81262,3.25363 -0.10742,1.938044 -0.10742,1.938045 -0.37454,-0.482836 -0.37453,-0.482836 -0.52902,-1.158113 -0.52902,-1.158112 -0.0477,-2.14918 -0.0477,-2.149179 -0.15077,1.976574 -0.15077,1.976575 -0.36443,-0.78595 -0.36443,-0.785949 -0.46012,1.058334 -0.46013,1.058333 0.39852,0.79375 0.39853,0.79375 1.73283,3.025221 1.73283,3.025222 0.44437,-1.040846 0.44438,-1.040847 -0.29391,-0.529166 -0.29391,-0.529167 -0.13435,-2.422819 -0.13434,-2.422818 0.19843,0.123329 0.19844,0.123329 V 90.774009 90.42039 l -0.4561,-0.654184 -0.45609,-0.654184 0.72815,0.474017 0.72815,0.474017 0.25408,-0.157029 0.25408,-0.15703 -0.14978,0.390325 -0.14978,0.390326 0.53229,0.284875 0.5323,0.284874 h 0.14401 0.14401 l -0.29678,-0.651358 -0.29677,-0.651359 -1.08143,-0.715655 -1.08143,-0.715655 h -0.30492 -0.30491 l -0.45779,-0.774972 -0.45778,-0.774972 0.62522,0.346114 0.62523,0.346113 0.19844,-0.05621 0.19843,-0.05621 v 0.33323 0.33323 l 0.5523,0.344912 0.55229,0.344912 -0.1878,-0.611996 -0.1878,-0.611997 -0.2255,-0.283614 -0.22549,-0.283613 -1.30774,-0.642428 -1.30773,-0.642428 -0.26698,-0.564971 -0.26697,-0.56497 0.77426,0.292248 0.77425,0.292248 v 0.310561 0.310561 l 0.41851,0.160599 0.41852,0.160599 h 0.11744 0.11745 l -0.38182,-0.727604 -0.38182,-0.727605 -1.08018,-0.657772 -1.08018,-0.657772 v -0.3188 -0.318801 l 0.30546,-0.188787 0.30546,-0.188787 -0.19966,0.323068 -0.19967,0.323068 0.48951,0.370856 0.48952,0.370856 0.20289,0.0084 0.2029,0.0084 -0.66206,-1.30651 -0.66206,-1.30651 -0.88872,-0.677865 -0.88873,-0.677865 h -0.17851 -0.1785 l 0.16136,0.727604 0.16135,0.727604 -0.51762,-0.79375 -0.51762,-0.79375 0.11234,-0.198438 0.11233,-0.198437 3.35783,0.0033 3.35782,0.0033 0.55159,0.856621 0.55158,0.856621 8.34396,14.684375 8.34397,14.684374 0.70764,1.40404 0.70764,1.40404 0.2152,1.63867 0.21519,1.63867 0.1946,0.52916 0.19459,0.52917 -0.26062,-0.36569 -0.26062,-0.36569 -0.17904,0.56413 -0.17905,0.56413 -2.69415,-0.0182 -2.69415,-0.0182 -1.11742,-2.29693 -1.11742,-2.29692 0.026,-0.71922 0.026,-0.71921 0.49609,0.2655 0.4961,0.2655 v -0.38816 -0.38817 l -0.75747,-0.53937 -0.75747,-0.53936 -0.14906,0.14906 -0.14907,0.14906 -0.43143,-0.8343 -0.43143,-0.83429 0.67651,0.44326 0.6765,0.44326 0.0168,-0.22886 0.0168,-0.22887 0.23929,0.59531 0.23929,0.59531 h 0.27311 0.2731 l -0.004,-0.33072 -0.004,-0.33073 -0.19438,-0.26706 -0.19439,-0.26706 -1.11881,-0.72513 -1.1188,-0.72513 h -0.17495 -0.17494 l -0.35148,-0.46302 -0.35148,-0.46302 -0.008,-0.20775 -0.008,-0.20774 0.59531,0.3301 0.59531,0.3301 0.19844,-0.0562 0.19844,-0.0562 v 0.33323 0.33323 l 0.55795,0.34845 0.55796,0.34845 -0.16091,-0.35095 -0.16091,-0.35095 -0.16114,-0.45469 -0.16114,-0.45468 -1.16566,-0.68312 -1.16565,-0.68312 -0.22218,0.13732 -0.22219,0.13732 -0.30328,-0.66561 -0.30327,-0.66561 v -0.12915 -0.12915 l 0.53464,0.28612 0.53463,0.28613 0.25609,-0.15827 0.25608,-0.15827 -0.14978,0.39033 -0.14978,0.39033 0.5898,0.31565 0.58981,0.31565 -0.17241,-0.44929 -0.17241,-0.44929 v -0.21781 -0.2178 l -1.25677,-0.7454 -1.25677,-0.7454 -0.19265,0.0569 -0.19264,0.0569 -0.41772,-0.80778 -0.41771,-0.80778 0.63148,0.41377 0.63148,0.41376 0.17731,-0.17732 0.17732,-0.17732 v 0.43167 0.43166 l 0.55421,0.2966 0.5542,0.2966 -0.18551,-0.61802 -0.1855,-0.61802 -0.56714,-0.45055 -0.56713,-0.45054 -0.97863,-0.4755 -0.97862,-0.47549 -0.25865,-0.564972 -0.25865,-0.564971 0.77425,0.292248 0.77425,0.292248 v 0.275217 0.27523 l 0.52917,0.33047 0.52917,0.33047 v -0.12209 -0.12208 l -0.3069,-0.67356 -0.30689,-0.673565 -1.17465,-0.688387 -1.17464,-0.688388 -0.27024,0.27024 -0.27024,0.27024 3.88802,6.83395 3.88803,6.83395 -0.17293,1.65364 -0.17293,1.65365 h -0.21522 -0.21521 l -0.1606,-0.41852 -0.1606,-0.41851 v -2.07941 -2.07942 l -0.26459,-0.16352 -0.26458,-0.16352 -0.008,1.80155 -0.008,1.80156 -0.30007,-0.52917 -0.30007,-0.52917 -0.17312,-0.13229 -0.17313,-0.13229 -0.4448,-1.12983 -0.4448,-1.12984 -0.0477,-2.04516 -0.0477,-2.04517 -0.15077,1.97657 -0.15077,1.97658 -0.3489,-0.77215 -0.34891,-0.77215 -0.27137,0.38307 -0.27136,0.38308 0.15538,-0.47978 0.15538,-0.47978 -0.39501,-0.76385 -0.395,-0.76385 v -2.11419 -2.1142 l -0.2901,-0.17929 -0.2901,-0.17929 0.16798,2.08191 0.16797,2.0819 -0.41549,-0.7276 -0.41549,-0.72761 h -0.19837 -0.19837 l -0.34621,-1.17251 -0.3462,-1.17251 -0.0723,-2.48156 -0.0723,-2.48155 -0.32006,-0.598052 -0.32007,-0.598052 0.66918,0.438468 0.66919,0.438468 0.27319,-0.16884 0.27319,-0.168839 -0.14979,0.390325 -0.14978,0.390325 0.5323,0.284875 0.53229,0.284875 h 0.14401 0.14402 l -0.30356,-0.666235 -0.30356,-0.666234 -1.25248,-0.770662 -1.25249,-0.770662 -0.13857,0.138567 -0.13856,0.138568 -0.43244,-0.836237 -0.43243,-0.836236 0.61136,0.338693 0.61136,0.338694 0.19844,-0.05621 0.19844,-0.05621 v 0.333231 0.33323 l 0.55229,0.344912 0.55229,0.344912 -0.1878,-0.611997 -0.1878,-0.611996 -0.22549,-0.283614 -0.2255,-0.283614 -1.30773,-0.642428 -1.30774,-0.642427 -0.26697,-0.564971 -0.26697,-0.56497 0.77425,0.292248 0.77425,0.292247 v 0.310561 0.310561 l 0.41852,0.160599 0.41851,0.1606 h 0.1191 0.1191 l -0.34311,-0.654856 -0.34311,-0.654856 -1.23187,-0.781228 -1.23187,-0.781227 -0.15531,0.404742 -0.15532,0.404742 1.92029,3.36775 1.92028,3.367749 -0.0891,2.087691 -0.0891,2.08768 -0.89978,-1.57982 -0.89978,-1.579826 -0.003,-2.182812 -0.003,-2.182813 -0.19843,-5.96e-4 -0.19844,-5.96e-4 0.0692,1.918825 0.0692,1.918826 -0.40834,-0.727604 -0.40833,-0.727605 h -0.12029 -0.12029 l -0.40141,0.960704 -0.40141,0.960704 1.04756,1.883573 1.04755,1.88357 0.30694,-0.87341 0.30693,-0.8734 0.12931,0.12931 0.12931,0.1293 -0.39255,0.78687 -0.39254,0.78687 2.17259,3.86879 2.17259,3.86879 0.3172,-0.60427 0.3172,-0.60427 -0.17199,0.52917 -0.17199,0.52916 -0.0126,0.28124 -0.0126,0.28124 2.08823,3.68751 2.08824,3.68751 0.31289,0.32541 0.3129,0.32541 0.7979,-0.27815 0.7979,-0.27815 -0.52361,-0.88745 -0.52361,-0.88746 0.0807,-1.36536 0.0806,-1.36537 0.8599,1.50177 0.85989,1.50176 v 0.90878 0.90879 l -0.67312,0.25592 -0.67313,0.25592 -0.61576,0.15455 -0.61576,0.15454 z m 7.08068,0.32314 -0.27649,-0.51661 -1.65105,-0.1031 -1.65106,-0.10311 3.24115,0.0108 3.24114,0.0108 v 0.30241 0.30241 l -1.02288,0.30647 -1.02289,0.30646 h -0.29072 -0.29072 z m 1.1839,-0.27714 0.52917,-0.22739 -0.87551,-0.0186 -0.87552,-0.0186 0.16353,0.26458 0.16352,0.26458 0.18282,-0.0186 0.18282,-0.0186 z m -7.78432,-1.47726 0.0209,-0.50712 0.13896,0.34727 0.13897,0.34726 -0.15986,0.15986 -0.15985,0.15985 z m -2.37949,-3.28524 -0.0145,-0.39688 0.25648,-0.39687 0.25648,-0.39688 -0.0145,0.26459 -0.0145,0.26458 -0.2274,0.52917 -0.22739,0.52916 z m -4.49792,-7.67292 -0.0145,-0.39687 0.25648,-0.39688 0.25648,-0.39687 -0.0146,0.26458 -0.0145,0.26458 -0.22739,0.52917 -0.22739,0.52917 z m -6.61458,-11.906249 -0.0145,-0.396875 0.25648,-0.396875 0.25649,-0.396875 -0.0145,0.264583 -0.0145,0.264584 -0.2274,0.529166 -0.22739,0.529167 z m -2.91218,-5.975174 0.0209,-0.507118 0.13897,0.347266 0.13896,0.347265 -0.15985,0.159853 -0.15985,0.159852 z m -1.05833,-2.38125 0.0209,-0.507118 0.13896,0.347265 0.13897,0.347266 -0.15986,0.159853 -0.15985,0.159852 z"
           id="path144" /></g><path
         id="shape"
         style="opacity:0.601208;fill:none;fill-opacity:1;stroke:#000000;stroke-width:0.2;stroke-linejoin:bevel;stroke-dasharray:none"
         d="m 779.13548,78.925798 -0.0703,0.182935 v 5.17e-4 l -0.21084,0.160197 -0.33435,0.254248 -0.1018,-0.06305 -0.0326,0.259416 -0.0269,-5.17e-4 -10e-4,0.223759 -0.11937,0.957048 -0.0677,0.542086 -0.11886,0.862996 0.0274,0.149862 v 5.16e-4 l -0.0692,0.256832 0.061,-0.03772 -0.0284,0.08733 0.0744,-0.0987 0.22686,1.250569 v 5.17e-4 l -0.0264,0.170532 0.0367,-0.04806 -0.03,0.312643 0.0796,-0.10542 0.20516,1.131714 -0.006,0.03204 0.009,-0.01344 0.12919,0.711068 0.003,0.01757 0.68626,3.782715 0.16743,0.374654 0.0532,0.28267 0.34158,0.600997 0.002,0.0036 0.17053,0.381889 7.72046,13.598139 7.71994,13.59762 0.39326,0.61857 0.39326,0.61856 0.70641,-0.17105 0.70642,-0.17104 0.81804,-0.39068 0.59428,-0.17828 -0.0346,-0.0889 0.7736,-0.36948 h 1.2175 0.60203 l 0.63717,0.0305 0.49299,0.67696 0.0822,0.11214 5.1e-4,0.001 v 5.2e-4 l 0.22893,0.50178 h 5.2e-4 l 0.0238,0.0517 0.1173,-0.045 0.0625,0.0853 1.42472,-0.51056 1.42524,-0.51108 0.0822,-0.71055 0.0822,-0.71056 -0.0408,-0.0625 0.0388,-0.46561 -0.40463,-0.78186 -0.40411,-0.78187 -0.17776,-1.15238 -0.0548,-0.35502 -0.0579,-0.69866 -0.95704,-1.90118 -0.35916,-0.77153 -0.25734,-0.45372 -0.34055,-0.67593 -8.19175,-14.419791 -8.19175,-14.419792 -0.64905,-0.859896 -0.10336,-0.136942 v -5.17e-4 l -0.26871,-0.457853 h -0.077 l -0.0238,-0.03152 -5.2e-4,-5.17e-4 -5.2e-4,-0.001 -5.1e-4,-10e-4 -0.0879,-0.134358 h -0.014 l -0.0723,-0.09612 h -0.0362 -3.26595 -0.0181 z m 0.66352,7.731828 0.0527,0.131258 0.009,0.03566 0.0109,0.465605 -0.0305,0.03049 -0.15968,0.15968 0.0207,-0.506946 0.0109,-0.261999 z m 1.07539,1.842265 0.005,0.02119 0.0982,0.390157 v 5.17e-4 5.17e-4 l -0.0109,0.199988 -0.22737,0.529166 -0.22738,0.529167 -0.0186,-0.712101 -0.0186,-0.712101 0.26459,-0.163298 z m 0.53072,1.251603 0.42168,0.521932 0.11317,0.139527 0.0165,0.02532 0.23822,0.510046 0.01,-0.131258 0.15503,0.236162 -0.0847,1.146183 -0.0847,1.146183 -0.63923,-1.243852 -0.62116,-1.207678 0.11576,-0.332279 0.007,-0.01912 0.1266,-0.283703 z m 1.57458,2.511992 0.0594,0.226859 0.0444,0.170532 v 0.02326 0.332796 l -0.10232,0.386023 -0.0837,0.207222 0.01,-0.79375 0.005,-0.395324 v -5.17e-4 z m 0.71623,1.427303 0.31265,0.445967 0.0677,0.09663 0.009,0.0124 0.33693,0.481107 10e-4,0.0021 0.0341,0.06511 -0.014,0.427881 v 0.0041 l -0.0506,0.699183 -0.0811,1.124479 -0.60255,-1.128614 -0.59841,-1.119311 0.1881,-0.358635 0.28732,-0.546736 z m 1.27693,2.326989 0.27233,0.272335 0.0755,0.07545 0.108,0.207222 0.0341,0.108004 -0.093,0.252698 -0.10748,0.269751 -0.2558,0.640271 -0.0171,-0.913123 z m 0.89969,1.463994 0.26871,0.38964 0.30128,0.437183 0.0491,0.116272 5.2e-4,5.16e-4 0.0289,0.311092 0.002,0.02222 0.0377,0.405144 -0.0413,0.521415 -0.0863,1.087276 -0.40617,-0.76533 -0.60617,-1.143085 0.18294,-0.729671 z m 1.5229,3.149678 0.016,0.32039 0.0129,0.25994 -0.0289,0.0713 z m -0.69401,0.0346 0.0455,0.48473 h -0.0563 -0.0568 l -0.17673,-0.33331 0.16949,-0.10491 z m 1.26658,1.0139 h 0.18811 0.0248 0.21291 l 0.24546,0.45888 0.17002,0.46716 0.005,-0.0656 0.14573,0.35191 -0.002,0.0372 -0.0682,0.91364 -0.0806,1.08469 -0.2248,-0.40256 0.17415,-0.28164 -0.24649,0.15245 -0.31575,-0.56379 v -5.2e-4 l -0.61288,-1.09554 0.16743,-0.52813 0.0543,-0.17105 5.2e-4,-5.2e-4 v -5.1e-4 z m 1.51877,1.98437 0.26976,0.46302 0.13642,0.2341 0.0568,0.1912 -0.13436,0.3762 -0.0517,0.11214 -0.007,0.0124 -0.26976,0.46302 v -0.92604 z m 0.89917,1.77457 0.34624,0.49506 0.007,0.009 10e-4,0.002 0.0217,0.0408 0.30024,0.5612 0.009,0.19224 -0.0186,0.40566 -0.0413,0.50591 -0.0847,1.04076 -0.5705,-1.06505 -0.57051,-1.06505 0.32143,-0.59996 z m 1.40095,2.30322 0.0894,0.17466 0.0615,0.12041 0.18397,0.51108 -0.0646,0.15813 -0.008,0.008 -0.0207,0.0207 -0.11162,0.11162 -0.0677,-0.17673 -0.002,-0.13281 -0.004,-0.37465 -0.0579,0.0899 -0.009,-0.0899 -0.0258,0.14366 -0.0253,0.0393 -0.15038,-0.39119 0.13229,-0.13229 z m 0.78445,1.54719 0.31678,0.45217 0.12454,0.19017 0.0646,0.0982 5.2e-4,0.001 v 5.1e-4 l 0.22944,0.4961 0.01,-0.13126 0.15503,0.23616 -0.0827,1.11673 -0.0822,1.11621 -0.22479,-0.40256 0.17415,-0.28164 -0.2465,0.15297 -0.31832,-0.56948 -0.61547,-1.10071 0.23875,-0.71623 0.078,-0.2341 z m 1.52342,2.49907 0.11782,0.18604 0.005,0.008 10e-4,0.002 0.17466,0.34571 0.0238,0.0656 -0.0708,0.16226 -0.0326,0.0532 -0.13746,0.22273 -0.0672,0.22324 h -0.0367 -0.10387 l 0.004,-0.72761 0.002,-0.46715 z m 0.73691,1.43764 0.17156,0.23461 0.18862,0.25787 0.002,0.003 0.19482,0.26613 v 5.2e-4 l 0.0367,0.0661 0.13074,1.41438 v 0.28474 0.74362 h -0.0837 -0.0837 l -0.19379,-0.3452 0.006,-0.01 0.1757,-0.30644 -0.22118,0.20051 -0.0165,0.015 -0.34055,-0.60564 -0.58343,-1.03818 0.20051,-0.38861 0.21497,-0.41496 z m 1.33273,2.16266 0.0109,0.0145 0.006,0.0124 0.094,0.62167 0.0315,0.20825 0.0119,0.43357 0.002,0.0636 0.006,0.33021 -0.0553,0.28732 -0.10439,0.54157 -0.01,0.006 0.004,-1.279 z m 0.71469,2.12183 0.33073,0.11007 0.27957,0.093 0.077,0.15141 0.0594,0.30696 0.0858,0.44132 h -0.26045 -0.15607 -0.41599 v -0.55139 z"
         transform="translate(117.67128,-0.22982673)" /></g></g>


<script type="text/javascript">
  <![CDATA[
    // Global Parameters and Variables
    //!export-start
    let _pn_setState         = 0;
    let _pb_boolState        = false;
    let _pn_setInterval      = 500;
    let _pc_state0Colour     = '#ffffff';
    let _pc_state1Colour     = '#00ff00';
    let _pc_state2Colour     = '#ff9500';
    let _pc_state3Colour     = '#ff0000';
    let _pc_state4Colour     = '#3c3c3c';
    let _pc_state5Colour     = '#dcdcdc';
    let _pn_lightShade       = 50;
    let _pn_highLightShade   = 90;
    let _pn_darkShade        = 15;
    let _pn_shadowShade      = -15;
    let _pn_strokeWidth      = 1;     
    let _pn_opacity          = 0.60;  
    let _pn_indicationMode   = 0;     
    //!export-end
    
    // Internal state variables
    let stateNumber = 0;
    let isBlinking = false;
    let myCheckInterval;
    
    // Force global timing mechanism by using epoch time
    function getGlobalBlinkState(interval) {
      // Use the current time divided by interval, which will give
      // the same result for all SVGs at the same moment
      return Math.floor(Date.now() / interval) % 2 === 0;
    }
    
    // Function to update the color based on the set state
    function logic() {
      switch (stateNumber) {
        case 0: // off
          setColors(_pc_state0Colour);
          stopBlinking();
          break; 
        case 1: // run
          setColors(_pc_state1Colour);
          stopBlinking();
          break;
        case 2: // warning
          setColors(_pc_state2Colour);
          stopBlinking();
          break;
        case 3: // fault
          startForceSync();
          break;
        case 4: // invalid 
          setColors(_pc_state4Colour);
          stopBlinking();
          break;
        case 5: // spare
          setColors(_pc_state5Colour);
          stopBlinking();
          break;
        default:
          console.log('Undefined State');
          stopBlinking();
      }
    }

    // Initial setup
    function init() {
      // Set up visibility change listener
      document.addEventListener('visibilitychange', handleVisibilityChange);
      
      // Initial state rendering
      logic(); 
    }
    
    // Handler for tab visibility changes
    function handleVisibilityChange() {
      if (document.visibilityState === 'visible' && isBlinking) {
        // Resume checking when tab becomes visible again
        startForceSync();
      } else if (document.visibilityState === 'hidden' && isBlinking) {
        // Pause checking when tab is hidden
        clearInterval(myCheckInterval);
        myCheckInterval = null;
      }
    }
    
    // Update the blinking display based on global time
    function updateBlinkDisplay() {
      if (!isBlinking) return;
      
      // Get the global blink state
      const showFaultColor = getGlobalBlinkState(_pn_setInterval);
      
      // Set the appropriate color
      if (showFaultColor) {
        setColors(_pc_state3Colour);
      } else {
        setColors(_pc_state0Colour);
      }
    }
    
    // Start forced synchronization
    function startForceSync() {
      // Clear any existing interval
      stopBlinking();
      
      // Set blinking state
      isBlinking = true;
      
      // Update display immediately
      updateBlinkDisplay();
      
      // Check very frequently to ensure tight synchronization (every 16ms = ~60fps)
      myCheckInterval = setInterval(updateBlinkDisplay, 16);
    }

    // Function to update values from Fuxa
    function putValue(id, value) {
      if (id === '_pn_setState') {
        stateNumber = value;
        logic(); 
      }
      if (id === '_pb_boolState') {
        _pb_boolState = value;
        if (_pb_boolState === true) {
          stateNumber = 1;
        } else if (_pb_boolState === false) {
          stateNumber = 0;
        }
        logic(); 
      }
      if (id === '_pn_setInterval')    _pn_setInterval    = value;
      if (id === '_pc_state0Colour')   _pc_state0Colour   = value;
      if (id === '_pc_state1Colour')   _pc_state1Colour   = value;
      if (id === '_pc_state2Colour')   _pc_state2Colour   = value;
      if (id === '_pc_state3Colour')   _pc_state3Colour   = value;
      if (id === '_pc_state4Colour')   _pc_state4Colour   = value;
      if (id === '_pc_state5Colour')   _pc_state5Colour   = value;
      if (id === '_pn_lightShade')     _pn_lightShade     = value;
      if (id === '_pn_highLightShade') _pn_highLightShade = value;
      if (id === '_pn_darkShade')      _pn_darkShade      = value;
      if (id === '_pn_shadowShade')    _pn_shadowShade    = value;
      if (id === '_pn_strokeWidth')    _pn_strokeWidth    = value;
      if (id === '_pn_opacity')        _pn_opacity        = value;
      if (id === '_pn_indicationMode') _pn_indicationMode = value;
    }

    // Function to send values back to Fuxa (placeholder)
    function postValue(id, value) {
      console.error('Not defined!');
    }

    // Function to update the fill and/or stroke color based on indication mode
    function setColors(color) {
      // Get the single element with ID "shape"
      const shapeElement = document.getElementById('shape');
      if (!shapeElement) return; // Safety check
      
      // Set opacity
      shapeElement.style.opacity = _pn_opacity;
      
      // Set stroke width
      shapeElement.style.strokeWidth = _pn_strokeWidth;
      
      // Apply colors based on indication mode
      switch(_pn_indicationMode) {
        case 0: // Fill only
          shapeElement.style.fill = color;
          shapeElement.style.stroke = "none";
          break;
        case 1: // Stroke only
          shapeElement.style.fill = "none";
          shapeElement.style.stroke = color;
          break;
        case 2: // Both fill and stroke
          shapeElement.style.fill = color;
          shapeElement.style.stroke = color;
          break;
        default:
          // Default to fill only
          shapeElement.style.fill = color;
          shapeElement.style.stroke = "none";
      }
    }

    // Function to stop blinking
    function stopBlinking() {
      if (myCheckInterval) {
        clearInterval(myCheckInterval);
        myCheckInterval = null;
      }
      isBlinking = false;
    }

    // Clean up event listeners when widget is destroyed
    function cleanup() {
      stopBlinking();
      document.removeEventListener('visibilitychange', handleVisibilityChange);
    }

    // Initialize the SVG
    init();

    // Ensure cleanup when SVG is removed
    const cleanupObserver = new MutationObserver((mutations) => {
      mutations.forEach((mutation) => {
        mutation.removedNodes.forEach((node) => {
          if (node.id === 'Layer_1') {
            cleanup();
            cleanupObserver.disconnect();
          }
        });
      });
    });
    cleanupObserver.observe(document.body, { childList: true, subtree: true });
  ]]>
  </script>
</svg>
