<?xml version="1.0" encoding="UTF-8" standalone="no"?>
<!-- Created with Inkscape (http://www.inkscape.org/) -->

<svg
   width="41.58086mm"
   height="41.287228mm"
   viewBox="0 0 41.58086 41.287228"
   version="1.1"
   id="Layer_1"
   xml:space="preserve"
   xmlns="http://www.w3.org/2000/svg"
   xmlns:svg="http://www.w3.org/2000/svg"><defs
     id="defs1" /><g
     id="layer23"
     transform="translate(-922.93121,-26.66951)"><g
       id="g180"><g
         id="g152"
         transform="translate(156.05235,5.9754949)"><path
           style="fill:#c2c2c2;fill-opacity:1"
           d="m 769.2218,61.361044 -1.91598,-0.411847 -0.16437,-0.876194 -0.16438,-0.876193 0.65022,-0.857836 0.65021,-0.857837 0.14329,-1.087954 0.1433,-1.087954 1.16314,-1.733838 1.16314,-1.733837 13.80448,-14.686288 13.80447,-14.686287 1.18357,-0.814316 1.18357,-0.814316 2.99504,0.0084 2.99503,0.0084 0.42762,0.325592 0.42761,0.325593 0.29419,1.371753 0.29419,1.371753 -1.25828,4.090596 -1.25828,4.090597 -13.3854,14.24583 -13.38539,14.24583 -0.53898,0.481326 -0.53898,0.481326 -2.2079,-0.466825 -2.2079,-0.466826 -0.14966,-0.21577 -0.14965,-0.21577 -0.62407,0.66429 -0.62407,0.66429 -0.4169,-0.03694 -0.4169,-0.03693 z m 2.2412,-0.732467 -0.15985,-0.159853 -0.34727,0.138964 -0.34727,0.138965 0.50712,0.02089 0.50712,0.02089 z m 6.05309,-0.258663 -0.1606,-0.418514 v -0.557028 -0.557029 l -0.81306,0.777106 -0.81306,0.777105 0.74691,0.167133 0.74692,0.167134 0.22674,0.0313 0.22675,0.0313 z m 1.16232,-1.598257 v -1.223022 l -0.36956,0.306709 -0.36957,0.306708 0.12851,0.585584 0.1285,0.585585 0.10046,0.330729 0.10047,0.330729 h 0.14059 0.1406 z m 1.98132,-1.008686 1.22848,-1.437958 -0.45025,-0.687163 -0.45024,-0.687164 -0.51771,0.468515 -0.5177,0.468516 -0.21396,0.399835 -0.21397,0.399835 -0.18844,1.256771 -0.18845,1.256771 h 0.14187 0.14188 z m 1.72284,-3.116655 v -1.11503 l -0.44576,0.445763 -0.44576,0.445764 0.35818,0.669266 0.35818,0.669267 h 0.0876 0.0876 z m 2.71625,-2.887228 -0.44091,-0.746403 -0.45748,0.41401 -0.45748,0.41401 -0.4156,0.875828 -0.41561,0.875827 0.012,0.886055 0.012,0.886056 1.30198,-1.42949 1.30199,-1.42949 z m 0.98792,-1.065832 v -1.099341 l -0.51613,0.46709 -0.51613,0.46709 0.41427,0.63225 0.41427,0.632251 h 0.10186 0.10186 z m 2.71963,-2.826218 -0.45411,-0.79123 -0.85716,0.969331 -0.85717,0.969332 -0.005,1.190625 -0.005,1.190625 1.31658,-1.368726 1.31657,-1.368727 z m 0.98454,-1.010241 v -1.231632 l -0.52313,0.473426 -0.52313,0.473425 0.44788,0.758207 0.44789,0.758206 h 0.0752 0.0753 z m 2.76733,-2.84874 -0.4649,-0.709538 -0.88663,0.859358 -0.88664,0.859358 v 1.201718 1.201719 l 1.35154,-1.351539 1.35154,-1.351539 z m 0.93683,-1.120009 v -1.231632 l -0.52313,0.473425 -0.52312,0.473425 0.44788,0.758207 0.44788,0.758207 h 0.0753 0.0752 z m 2.71082,-2.779806 -0.44111,-0.746752 -0.87027,0.843497 -0.87027,0.843498 v 1.194922 1.194922 l 1.31139,-1.291667 1.31138,-1.291667 z m 0.99335,-1.206733 v -1.249422 l -0.55613,0.556127 -0.55612,0.556126 0.45426,0.693295 0.45427,0.693295 h 0.10186 0.10186 z m 2.68491,-2.736633 -0.43316,-0.754734 -0.86129,0.834796 -0.86129,0.834797 v 1.194922 1.194922 l 1.29445,-1.274985 1.29445,-1.274984 z m 1.01045,-1.519665 -0.009,-0.976573 -0.51652,0.619882 -0.51653,0.619882 0.27402,0.512008 0.27402,0.512008 0.25131,-0.155317 0.25131,-0.155317 z m 2.73783,-2.337297 -0.40863,-0.62365 h -0.15353 -0.15353 l -0.74208,0.710959 -0.74209,0.71096 v 1.197323 1.197323 l 1.30425,-1.284632 1.30424,-1.284632 z m 1.05907,-0.69006 -0.13098,-0.595049 -0.11189,-0.360527 -0.1119,-0.360528 -0.38678,0.320996 -0.38677,0.320995 0.40117,0.775787 0.40118,0.775787 0.22847,-0.141206 0.22848,-0.141206 z m 1.26051,-2.68728 0.24462,-0.769314 -0.52995,0.479592 -0.52994,0.479593 v 0.444062 0.444062 l 0.19293,0.192925 0.19292,0.192926 0.0924,-0.347266 0.0924,-0.347265 z"
           id="path161" /><path
           style="fill:#b0b0b0;fill-opacity:1"
           d="m 769.2218,61.361044 -1.91598,-0.411847 -0.16437,-0.876194 -0.16438,-0.876193 0.65022,-0.857836 0.65021,-0.857837 0.14329,-1.087954 0.1433,-1.087954 1.16314,-1.733838 1.16314,-1.733837 13.80448,-14.686288 13.80447,-14.686287 1.18357,-0.814316 1.18357,-0.814316 2.99504,0.0084 2.99503,0.0084 0.42762,0.325592 0.42761,0.325593 0.29419,1.371753 0.29419,1.371753 -1.25828,4.090596 -1.25828,4.090597 -13.3854,14.24583 -13.38539,14.24583 -0.53898,0.481326 -0.53898,0.481326 -2.2079,-0.466825 -2.2079,-0.466826 -0.14966,-0.21577 -0.14965,-0.21577 -0.62407,0.66429 -0.62407,0.66429 -0.4169,-0.03694 -0.4169,-0.03693 z m 2.2412,-0.732467 -0.15985,-0.159853 -0.34727,0.138964 -0.34727,0.138965 0.50712,0.02089 0.50712,0.02089 z m 6.05309,-0.258663 -0.1606,-0.418514 v -0.557028 -0.557029 l -0.81306,0.777106 -0.81306,0.777105 0.74691,0.167133 0.74692,0.167134 0.22674,0.0313 0.22675,0.0313 z m 1.16232,-1.598257 v -1.223022 l -0.36956,0.306709 -0.36957,0.306708 0.12851,0.585584 0.1285,0.585585 0.10046,0.330729 0.10047,0.330729 h 0.14059 0.1406 z m 1.98132,-1.008686 1.22848,-1.437958 -0.45025,-0.687163 -0.45024,-0.687164 -0.51771,0.468515 -0.5177,0.468516 -0.21396,0.399835 -0.21397,0.399835 -0.18844,1.256771 -0.18845,1.256771 h 0.14187 0.14188 z m 1.72284,-3.116655 v -1.11503 l -0.44576,0.445763 -0.44576,0.445764 0.35818,0.669266 0.35818,0.669267 h 0.0876 0.0876 z m 2.71625,-2.887228 -0.44091,-0.746403 -0.45748,0.41401 -0.45748,0.41401 -0.4156,0.875828 -0.41561,0.875827 0.012,0.886055 0.012,0.886056 1.30198,-1.42949 1.30199,-1.42949 z m 0.98792,-1.065832 v -1.099341 l -0.51613,0.46709 -0.51613,0.46709 0.41427,0.63225 0.41427,0.632251 h 0.10186 0.10186 z m 2.71963,-2.826218 -0.45411,-0.79123 -0.85716,0.969331 -0.85717,0.969332 -0.005,1.190625 -0.005,1.190625 1.31658,-1.368726 1.31657,-1.368727 z m 0.98454,-1.010241 v -1.231632 l -0.52313,0.473426 -0.52313,0.473425 0.44788,0.758207 0.44789,0.758206 h 0.0752 0.0753 z m 2.76733,-2.84874 -0.4649,-0.709538 -0.88663,0.859358 -0.88664,0.859358 v 1.201718 1.201719 l 1.35154,-1.351539 1.35154,-1.351539 z m 0.93683,-1.120009 v -1.231632 l -0.52313,0.473425 -0.52312,0.473425 0.44788,0.758207 0.44788,0.758207 h 0.0753 0.0752 z m 2.71082,-2.779806 -0.44111,-0.746752 -0.87027,0.843497 -0.87027,0.843498 v 1.194922 1.194922 l 1.31139,-1.291667 1.31138,-1.291667 z m 0.99335,-1.206733 v -1.249422 l -0.55613,0.556127 -0.55612,0.556126 0.45426,0.693295 0.45427,0.693295 h 0.10186 0.10186 z m 2.68491,-2.736633 -0.43316,-0.754734 -0.86129,0.834796 -0.86129,0.834797 v 1.194922 1.194922 l 1.29445,-1.274985 1.29445,-1.274984 z m 1.01045,-1.519665 -0.009,-0.976573 -0.51652,0.619882 -0.51653,0.619882 0.27402,0.512008 0.27402,0.512008 0.25131,-0.155317 0.25131,-0.155317 z m 2.73783,-2.337297 -0.40863,-0.62365 h -0.15353 -0.15353 l -0.74208,0.710959 -0.74209,0.71096 v 1.197323 1.197323 l 1.30425,-1.284632 1.30424,-1.284632 z m 1.05907,-0.69006 -0.13098,-0.595049 -0.11189,-0.360527 -0.1119,-0.360528 -0.38678,0.320996 -0.38677,0.320995 0.40117,0.775787 0.40118,0.775787 0.22847,-0.141206 0.22848,-0.141206 z m 1.26051,-2.68728 0.24462,-0.769314 -0.52995,0.479592 -0.52994,0.479593 v 0.444062 0.444062 l 0.19293,0.192925 0.19292,0.192926 0.0924,-0.347266 0.0924,-0.347265 z"
           id="path160" /><path
           style="fill:#9e9e9e;fill-opacity:1"
           d="m 769.2218,61.361044 -1.91598,-0.411847 -0.16437,-0.876194 -0.16438,-0.876193 0.65022,-0.857836 0.65021,-0.857837 0.14329,-1.087954 0.1433,-1.087954 1.16314,-1.733838 1.16314,-1.733837 13.80448,-14.686288 13.80447,-14.686287 1.18357,-0.814316 1.18357,-0.814316 2.99504,0.0084 2.99503,0.0084 0.42762,0.325592 0.42761,0.325593 0.29419,1.371753 0.29419,1.371753 -1.25828,4.090596 -1.25828,4.090597 -13.3854,14.24583 -13.38539,14.24583 -0.53898,0.481326 -0.53898,0.481326 -2.2079,-0.466825 -2.2079,-0.466826 -0.14966,-0.21577 -0.14965,-0.21577 -0.62407,0.66429 -0.62407,0.66429 -0.4169,-0.03694 -0.4169,-0.03693 z m 2.2412,-0.732467 -0.15985,-0.159853 -0.34727,0.138964 -0.34727,0.138965 0.50712,0.02089 0.50712,0.02089 z m 6.05309,-0.258663 -0.1606,-0.418514 v -0.557028 -0.557029 l -0.81306,0.777106 -0.81306,0.777105 0.74691,0.167133 0.74692,0.167134 0.22674,0.0313 0.22675,0.0313 z m 1.16232,-1.598257 v -1.223022 l -0.36956,0.306709 -0.36957,0.306708 0.12851,0.585584 0.1285,0.585585 0.10046,0.330729 0.10047,0.330729 h 0.14059 0.1406 z m 1.98132,-1.008686 1.22848,-1.437958 -0.45025,-0.687163 -0.45024,-0.687164 -0.51771,0.468515 -0.5177,0.468516 -0.21396,0.399835 -0.21397,0.399835 -0.18844,1.256771 -0.18845,1.256771 h 0.14187 0.14188 z m 1.72284,-3.116655 v -1.11503 l -0.44576,0.445763 -0.44576,0.445764 0.35818,0.669266 0.35818,0.669267 h 0.0876 0.0876 z m 2.71625,-2.887228 -0.44091,-0.746403 -0.45748,0.41401 -0.45748,0.41401 -0.4156,0.875828 -0.41561,0.875827 0.012,0.886055 0.012,0.886056 1.30198,-1.42949 1.30199,-1.42949 z m 0.98792,-1.065832 v -1.099341 l -0.51613,0.46709 -0.51613,0.46709 0.41427,0.63225 0.41427,0.632251 h 0.10186 0.10186 z m 2.71963,-2.826218 -0.45411,-0.79123 -0.85716,0.969331 -0.85717,0.969332 -0.005,1.190625 -0.005,1.190625 1.31658,-1.368726 1.31657,-1.368727 z m 0.98454,-1.010241 v -1.231632 l -0.52313,0.473426 -0.52313,0.473425 0.44788,0.758207 0.44789,0.758206 h 0.0752 0.0753 z m 2.76733,-2.84874 -0.4649,-0.709538 -0.88663,0.859358 -0.88664,0.859358 v 1.201718 1.201719 l 1.35154,-1.351539 1.35154,-1.351539 z m 0.93683,-1.120009 v -1.231632 l -0.52313,0.473425 -0.52312,0.473425 0.44788,0.758207 0.44788,0.758207 h 0.0753 0.0752 z m 2.71082,-2.779806 -0.44111,-0.746752 -0.87027,0.843497 -0.87027,0.843498 v 1.194922 1.194922 l 1.31139,-1.291667 1.31138,-1.291667 z m 0.99335,-1.206733 v -1.249422 l -0.55613,0.556127 -0.55612,0.556126 0.45426,0.693295 0.45427,0.693295 h 0.10186 0.10186 z m 2.68491,-2.736633 -0.43316,-0.754734 -0.86129,0.834796 -0.86129,0.834797 v 1.194922 1.194922 l 1.29445,-1.274985 1.29445,-1.274984 z m 1.01045,-1.519665 -0.009,-0.976573 -0.51652,0.619882 -0.51653,0.619882 0.27402,0.512008 0.27402,0.512008 0.25131,-0.155317 0.25131,-0.155317 z m 2.73783,-2.337297 -0.40863,-0.62365 h -0.15353 -0.15353 l -0.74208,0.710959 -0.74209,0.71096 v 1.197323 1.197323 l 1.30425,-1.284632 1.30424,-1.284632 z m 1.05907,-0.69006 -0.13098,-0.595049 -0.11189,-0.360527 -0.1119,-0.360528 -0.38678,0.320996 -0.38677,0.320995 0.40117,0.775787 0.40118,0.775787 0.22847,-0.141206 0.22848,-0.141206 z m 1.26051,-2.68728 0.24462,-0.769314 -0.52995,0.479592 -0.52994,0.479593 v 0.444062 0.444062 l 0.19293,0.192925 0.19292,0.192926 0.0924,-0.347266 0.0924,-0.347265 z"
           id="path159" /><path
           style="fill:#8c8c8c;fill-opacity:1"
           d="m 769.2218,61.361044 -1.91598,-0.411847 -0.16437,-0.876194 -0.16438,-0.876193 0.65022,-0.857836 0.65021,-0.857837 0.14329,-1.087954 0.1433,-1.087954 1.16314,-1.733838 1.16314,-1.733837 13.80448,-14.686288 13.80447,-14.686287 1.18357,-0.814316 1.18357,-0.814316 h 3.06949 3.06948 l 0.15088,0.393192 0.15089,0.393192 -6.55085,6.948995 -6.55085,6.948996 -2.00886,2.126631 -2.00886,2.126632 -3.5859,3.826493 -3.5859,3.826493 -3.09483,3.279883 -3.09483,3.279882 0.0209,0.556576 0.0209,0.556576 0.15211,-0.396875 0.15211,-0.396875 2.9227,-3.175 2.9227,-3.175 8.08295,-8.576951 8.08295,-8.576951 0.92604,-1.070488 0.92604,-1.070488 0.1664,1.445356 0.1664,1.445356 -0.0147,-1.489663 -0.0147,-1.489663 2.06706,-2.258559 2.06706,-2.25856 0.38226,0.146689 0.38227,0.14669 -0.12884,0.492679 -0.12884,0.492679 h 0.27066 0.27066 l -0.12492,0.653451 -0.12491,0.653452 0.26766,-0.165425 0.26766,-0.165426 -0.16698,0.834891 -0.16697,0.83489 h 0.2231 0.2231 l 0.46983,-1.653646 0.46983,-1.653646 0.0887,0.264584 0.0887,0.264583 -0.91984,2.778125 -0.91984,2.778125 0.14417,-0.79375 0.14417,-0.79375 0.13063,-0.44121 0.13064,-0.441211 -0.3811,0.05593 -0.38109,0.05593 -0.42356,0.351529 -0.42357,0.351529 v 0.481155 0.481155 l 0.22047,0.136257 0.22047,0.136258 -0.11503,0.783761 -0.11503,0.783762 -3.27018,3.395075 -3.27017,3.395075 -0.0103,0.198437 -0.0103,0.198438 0.19844,-0.02257 0.19844,-0.02257 3.1636,-3.421534 3.1636,-3.421534 0.33125,-0.723084 0.33126,-0.723085 -0.15336,0.79375 -0.15336,0.79375 -1.51439,1.5875 -1.51439,1.5875 -12.21053,13.014205 -12.21054,13.014204 -0.26281,0.162427 -0.26281,0.162427 -2.18605,-0.462131 -2.18606,-0.462132 -0.14966,-0.21577 -0.14965,-0.21577 -0.62407,0.66429 -0.62407,0.66429 -0.4169,-0.03694 -0.4169,-0.03693 z m 3.10661,-0.440323 0.32937,-0.396875 h -0.29698 -0.29698 v 0.264583 0.264583 h -0.41249 -0.41249 l 0.16244,-0.262822 0.16243,-0.262821 -0.60984,0.04137 -0.60984,0.04137 -1.45521,-0.205342 -1.45521,-0.205342 0.19043,0.198289 0.19042,0.19829 1.39708,0.338292 1.39707,0.338292 0.69521,0.0225 0.69521,0.0225 z m 12.55537,-6.746875 6.60225,-7.011458 3.68747,-3.909591 3.68746,-3.909591 -0.12989,-0.129895 -0.1299,-0.129895 -4.06816,4.304069 -4.06816,4.30407 -1.97132,1.984374 -1.97133,1.984375 1.36777,-1.503399 1.36777,-1.5034 -0.45712,-0.796478 -0.45711,-0.796478 -0.79766,0.970337 -0.79765,0.970338 -0.16089,-1.05171 -0.1609,-1.051709 -0.0375,2.653476 -0.0376,2.653477 -1.76583,1.712148 -1.76583,1.712148 1.35919,-1.563211 1.35919,-1.563211 -0.45325,-0.77113 -0.45326,-0.77113 -0.7276,0.869138 -0.72761,0.869139 -0.0375,0.406869 -0.0376,0.40687 -0.18949,-1.058334 -0.18949,-1.058333 -0.0376,2.388893 -0.0375,2.388894 -1.76386,1.712148 -1.76385,1.712148 1.3875,-1.631626 1.38751,-1.631627 -0.46914,-0.716004 -0.46915,-0.716005 -0.74201,0.830451 -0.742,0.830451 -0.0376,0.72343 -0.0376,0.72343 -0.18949,-1.058333 -0.18949,-1.058334 -0.0375,1.927538 -0.0376,1.927538 -0.42731,0.65215 -0.4273,0.652149 h -0.33705 -0.33704 l 0.0123,-0.330729 0.0123,-0.330729 -0.0417,-0.779507 -0.0417,-0.779506 -0.87249,0.845652 -0.87249,0.845653 h -0.56382 -0.56382 l -0.41577,-0.415774 -0.41578,-0.415774 v 0.267867 0.267867 l 0.33073,0.214053 0.33073,0.214052 1.32292,0.306958 1.32291,0.306957 0.66146,-0.04237 0.66146,-0.04237 z m -6.20537,4.589201 v -1.231632 l -0.52917,0.478889 -0.52917,0.478889 0.004,0.289722 0.004,0.289722 0.25648,-0.396875 0.25648,-0.396875 0.004,0.683507 0.004,0.683507 0.17639,0.176389 0.17639,0.176389 h 0.0882 0.0882 z m -10.57803,0.03461 0.33468,-0.403269 -0.12752,-0.12752 -0.12752,-0.127519 -0.48035,0.530788 -0.48036,0.530789 h 0.27319 0.2732 z m 7.31137,-1.305916 1.52875,-1.709184 0.22764,0.320122 0.22764,0.320122 -0.10834,-0.396875 -0.10834,-0.396875 h -0.24253 -0.24254 l -1.69558,1.785938 -1.69559,1.785937 h 0.29007 0.29008 z m 6.97082,-2.845428 v -1.11503 l -0.44576,0.445763 -0.44576,0.445764 0.35818,0.669266 0.35818,0.669267 h 0.0876 0.0876 z m -6.775,-0.62687 0.16078,-0.418984 -0.31437,0.104791 -0.31438,0.104791 -0.10473,0.314193 -0.10473,0.314192 h 0.25833 0.25832 z m 2.27709,-2.491433 v -0.264584 h -0.26459 -0.26458 v 0.264584 0.264583 h 0.26458 0.26459 z m 8.20208,-0.852547 v -1.117129 l -0.59531,0.618936 -0.59532,0.618936 0.33073,0.123367 0.33073,0.123367 v 0.374827 0.374826 h 0.26459 0.26458 z m -5.82083,-1.528703 v -0.264584 h -0.26459 -0.26458 v 0.264584 0.264583 h 0.26458 0.26459 z m 9.525,-2.289966 v -1.231632 l -0.52313,0.473426 -0.52313,0.473425 0.44788,0.758207 0.44789,0.758206 h 0.0752 0.0753 z m 2.76744,-2.848575 -0.46501,-0.709703 -0.87065,0.843866 -0.87065,0.843865 -0.10058,-1.293181 -0.10059,-1.293181 -0.0477,2.642957 -0.0477,2.642958 1.48394,-1.483939 1.48394,-1.483939 z m -9.91119,2.624999 v -0.396875 h -0.26459 -0.26458 v 0.396875 0.396875 h 0.26458 0.26459 z m 2.38125,-2.513541 v -0.264584 h -0.41249 -0.41249 l 0.16352,0.264584 0.16352,0.264583 h 0.24897 0.24897 z m 8.46666,-1.231632 v -1.231632 l -0.52313,0.473425 -0.52312,0.473425 0.44788,0.758207 0.44788,0.758207 h 0.0753 0.0752 z m 1.92206,-0.821762 1.2407,-1.259644 -0.46013,-0.701435 -0.46014,-0.701435 -0.98895,0.906306 -0.98895,0.906307 v 1.054772 1.054773 h 0.20838 0.20838 z m -8.27206,-0.327856 v -0.264584 h -0.28019 -0.2802 l 0.16352,0.264584 0.16352,0.264583 h 0.11668 0.11667 z m 6.8041,-3.373438 -0.11023,-0.727604 v 1.455209 1.455208 l 0.11023,-0.727604 0.11022,-0.727604 z m 3.25007,0.536517 v -1.249422 l -0.55613,0.556127 -0.55612,0.556126 0.45426,0.693295 0.45427,0.693295 h 0.10186 0.10186 z m -7.67292,0.323379 V 38.82801 h -0.42927 -0.42927 l 0.32938,0.396875 0.32937,0.396875 h 0.0999 0.0999 z m 10.36423,-3.048859 -0.42676,-0.74358 -0.97759,0.837886 -0.97758,0.837887 -0.0224,0.705964 -0.0224,0.705965 0.16849,0.439065 0.16848,0.439065 1.25826,-1.239336 1.25826,-1.239335 z m -7.98298,0.535318 V 36.44676 h -0.41249 -0.41249 l 0.16353,0.264584 0.16352,0.264583 h 0.24897 0.24896 z m 5.74576,-2.844271 -0.11022,-0.727604 v 1.455208 1.455208 l 0.11022,-0.727604 0.11023,-0.727604 z m 3.24127,0.778135 -0.009,-0.976573 -0.51652,0.619882 -0.51653,0.619882 0.27402,0.512008 0.27402,0.512008 0.25131,-0.155317 0.25131,-0.155317 z m 2.73783,-2.337297 -0.40863,-0.62365 -0.16801,0.0078 -0.16801,0.0078 -0.86315,0.785175 -0.86315,0.785176 0.17252,1.078929 0.17253,1.07893 1.26727,-1.24821 1.26726,-1.24821 z m -9.34361,1.874276 V 33.7697 l -0.26458,0.163522 -0.26458,0.163521 v 0.248969 0.248968 h 0.26458 0.26458 z m 10.40268,-2.564336 -0.13098,-0.595049 -0.11189,-0.360527 -0.1119,-0.360528 -0.38678,0.320996 -0.38677,0.320995 0.40117,0.775787 0.40118,0.775787 0.22847,-0.141206 0.22848,-0.141206 z m -8.02143,0.06641 V 31.41968 h -0.41249 -0.41249 l 0.16353,0.264584 0.16352,0.264583 h 0.24897 0.24896 z m 2.11667,-2.38125 V 29.03843 h -0.2802 -0.2802 l 0.16353,0.264584 0.16352,0.264583 h 0.11667 0.11668 z m 2.38125,-2.38125 V 26.65718 h -0.2802 -0.2802 l 0.16353,0.264584 0.16352,0.264583 h 0.11667 0.11668 z m 6.90006,-2.800174 0.0209,-0.507118 0.13897,0.347266 0.13896,0.347265 -0.15985,0.159853 -0.15985,0.159852 z m -0.64451,-0.648635 -0.1821,-0.910498 -0.64596,0.790591 -0.64596,0.790591 -0.01,-0.284609 -0.01,-0.284608 0.69039,-0.641433 0.6904,-0.641433 0.23695,-0.529167 0.23695,-0.529167 -0.14965,0.926042 -0.14965,0.926042 0.27659,-0.396875 0.27658,-0.396875 -0.0145,0.529166 -0.0145,0.529167 -0.20216,0.516782 -0.20216,0.516782 z"
           id="path158" /><path
           style="fill:#7a7a7a;fill-opacity:1"
           d="m 769.44298,61.35841 -1.95938,-0.437689 -0.20484,-0.529167 -0.20483,-0.529167 -0.0105,-0.529166 -0.0106,-0.529167 0.26969,0.463021 0.26968,0.463021 0.44987,8.3e-5 0.44988,8.3e-5 v -2.182895 -2.182896 l 1.25625,-1.797868 1.25625,-1.797868 13.86981,-14.73859 13.86981,-14.738589 1.17356,-0.727605 1.17356,-0.727604 2.75038,0.0041 2.75038,0.0041 0.39382,0.248992 0.39381,0.248991 -0.92298,1.002594 -0.92298,1.002593 -1.85209,1.989701 -1.85208,1.989701 -2.22856,2.377058 -2.22855,2.377059 -1.75507,1.852083 -1.75508,1.852083 -6.44536,6.879166 -6.44536,6.879167 -2.07257,2.173886 -2.07258,2.173886 -0.0122,0.736531 -0.0122,0.73653 -1.65884,1.805552 -1.65884,1.805553 0.11666,0.794897 0.11667,0.794897 0.56223,0.22705 0.56224,0.22705 -0.5797,0.01677 -0.5797,0.01677 -0.16352,-0.264583 -0.16352,-0.264583 h -0.77814 -0.77813 v 0.264583 0.264583 h -0.2802 -0.2802 l 0.16352,-0.264583 0.16353,-0.264583 -1.00781,-0.0029 -1.0078,-0.0029 -0.99219,-0.163999 -0.99218,-0.163998 v 0.269243 0.269243 l 1.78593,0.33248 1.78594,0.33248 0.52917,0.209874 0.52916,0.209875 -0.39687,-0.0086 -0.39688,-0.0086 z m 6.40167,-7.449147 0.13838,-0.529167 h -0.18689 -0.1869 l -0.3175,0.3175 -0.3175,0.3175 v 0.211667 0.211666 h 0.36602 0.36601 z m 2.30459,-2.504387 v -0.35649 l -0.53474,0.139839 -0.53475,0.139838 0.30014,0.361645 0.30014,0.361645 0.23461,-0.144993 0.2346,-0.144994 z m 1.47537,-2.241377 0.41704,0.346112 0.24037,-0.379861 0.24037,-0.379862 0.004,-0.214053 0.004,-0.214052 -0.33073,0.207449 -0.33073,0.207449 -0.42251,-0.06931 -0.42252,-0.06931 -0.37123,0.47279 -0.37124,0.47279 0.46302,-0.363126 0.46302,-0.363126 z m 2.31012,-2.422497 0.28909,0.289094 h 0.18081 0.18081 l 0.13816,-0.528329 0.13816,-0.528329 -0.40946,0.229148 -0.40947,0.229149 -0.44392,-0.116089 -0.44393,-0.116089 -0.37839,0.458587 -0.37839,0.458587 0.62372,-0.332412 0.62371,-0.332412 z m 3.0573,-2.854276 -0.0959,-0.279255 -0.36462,0.226523 -0.36463,0.226523 0.19605,0.317218 0.19606,0.317219 0.26448,-0.264486 0.26449,-0.264486 z m 1.56713,-2.186237 0.10084,0.302524 h 0.37483 0.37483 V 41.51967 41.036328 l -0.78524,0.115248 -0.78524,0.115249 -0.33924,0.411412 -0.33924,0.411411 0.64881,-0.345841 0.64881,-0.345842 z m 2.41649,-2.375558 0.22693,0.364627 0.29416,-0.181804 0.29417,-0.181804 v -0.248968 -0.248969 h -0.76136 -0.76135 l -0.36313,0.439382 -0.36312,0.439382 0.60338,-0.373236 0.60339,-0.373236 z m 1.72297,-2.852403 -0.12656,-0.126558 -0.45672,0.47684 -0.45672,0.47684 0.58327,-0.350282 0.58328,-0.350281 z m 1.19505,0.264789 0.26931,-0.503196 -0.50627,0.132392 -0.50627,0.132392 0.14229,0.370804 0.14229,0.370804 h 0.0947 0.0947 z m 2.45837,-2.62037 0.12493,-0.477733 -0.75877,0.111363 -0.75877,0.111364 -0.1428,0.231047 -0.14279,0.231047 0.38385,-0.147298 0.38386,-0.147299 0.17467,0.282621 0.17467,0.282621 h 0.21811 0.21811 z m 1.5706,-2.227621 0.3241,0.324104 h 0.18081 0.18081 l 0.12327,-0.471382 0.12326,-0.471382 -0.87688,0.102372 -0.87689,0.102371 -0.34,0.411518 -0.34,0.411517 0.5887,-0.366611 0.58871,-0.36661 z m 1.68048,-2.799797 -0.14812,-0.148113 -0.32632,0.328766 -0.32631,0.328766 0.47443,-0.180654 0.47443,-0.180653 z m 1.4482,0.105963 v -0.372105 l -0.52619,0.137602 -0.52619,0.137602 0.14493,0.234503 0.14493,0.234503 h 0.38126 0.38126 z m 0.8275,-2.472166 0.36313,-0.463021 -0.46302,0.363126 -0.46302,0.363126 v 0.0999 0.0999 h 0.0999 0.0999 z m 1.42146,0.198438 0.16352,-0.264584 h -0.41249 -0.41249 v 0.264584 0.264583 h 0.24897 0.24897 z m -25.13542,34.517255 -1.32291,-0.356945 1.19062,0.15151 1.19063,0.15151 0.52916,0.214063 0.52917,0.214063 -0.39687,-0.0086 -0.39688,-0.0086 z m 1.32691,-0.657046 0.16751,-0.271038 -0.17863,-0.813288 -0.17862,-0.813288 -0.87334,0.846471 -0.87334,0.84647 -0.81972,-0.180041 -0.81972,-0.180042 0.0115,-0.441998 0.0115,-0.441998 1.54049,-1.69383 1.54049,-1.693831 0.45069,2.090706 0.45069,2.090705 0.1318,0.46302 0.13181,0.463021 h -0.43032 -0.43032 z m -0.12253,-4.517143 -0.33557,-1.877766 1.01497,-1.039422 1.01497,-1.039422 0.18568,0.469792 0.18567,0.469792 0.0186,-0.580255 0.0186,-0.580256 1.47177,-1.734849 1.47178,-1.734848 h 0.38031 0.3803 l -0.0661,-0.225988 -0.0661,-0.225988 1.835,-2.008266 1.83499,-2.008266 0.22208,0.137254 0.22208,0.137254 -0.0727,-0.242895 -0.0727,-0.242896 1.74403,-1.891245 1.74404,-1.891246 0.19624,0.196246 0.19625,0.196245 -0.0882,-0.296836 -0.0882,-0.296836 1.52135,-1.601751 1.52136,-1.601751 -0.0114,2.295462 -0.0114,2.295462 -1.69643,1.803239 -1.69642,1.80324 -0.0917,-1.935531 -0.0917,-1.935532 -0.0526,2.102189 -0.0526,2.102189 -0.71563,0.746954 -0.71562,0.746953 0.47682,0.807196 0.47682,0.807197 -0.12506,0.125065 -0.12507,0.125066 -0.52014,-0.8215 -0.52013,-0.8215 -0.82275,0.937059 -0.82275,0.93706 -0.0953,-1.515714 -0.0953,-1.515714 -0.05,1.765814 -0.05,1.765814 -0.75089,0.615436 -0.7509,0.615436 0.62193,0.992188 0.62192,0.992187 h -0.26111 -0.26111 l -0.42607,-0.823937 -0.42608,-0.823937 -0.88669,0.859414 -0.88669,0.859415 -0.10301,-1.159957 -0.10301,-1.159956 -0.0462,1.44073 -0.0462,1.440731 -0.69399,0.724366 -0.69399,0.724366 0.58328,0.943757 0.58327,0.943758 h -0.22911 -0.22912 l -0.48293,-0.817536 -0.48293,-0.817536 -0.87779,0.850787 -0.87779,0.850787 -0.10919,-0.893147 -0.10919,-0.893147 -0.0424,1.215764 -0.0423,1.215764 -0.48385,0.437882 -0.48386,0.437882 h -0.13523 -0.13523 z m 15.23688,-12.153621 -0.48552,-0.821915 0.12223,-0.122231 0.12223,-0.122231 0.44939,0.685849 0.44938,0.68585 -0.0861,0.258297 -0.0861,0.258297 z m 1.42887,-5.423131 -0.0108,-2.388893 1.71979,-1.704505 1.71979,-1.704505 v 2.25796 2.257959 l -0.76939,0.737123 -0.76939,0.737122 0.53761,0.911176 0.53761,0.911176 -0.14559,0.145582 -0.14558,0.145582 -0.42318,-0.818337 -0.42318,-0.818338 h -0.17237 -0.17237 l -0.73612,0.859896 -0.73612,0.859895 z m 3.69342,-3.932105 v -2.323761 l 1.65364,-1.724625 1.65365,-1.724626 0.15171,1.813672 0.15172,1.813672 0.0467,-2.066136 0.0467,-2.066135 0.26156,0.161648 0.26155,0.161649 -0.13486,-0.35145 -0.13487,-0.351449 1.05908,-1.034163 1.05908,-1.034163 0.10381,0.1151 0.1038,0.115099 0.56251,2.654834 0.56251,2.654833 -0.004,0.387875 -0.004,0.387875 -0.25648,-0.396875 -0.25648,-0.396875 -0.004,-0.727604 -0.004,-0.727604 h -0.22357 -0.22358 l -0.46602,0.514949 -0.46602,0.514949 0.58617,0.823201 0.58617,0.823201 -0.1469,0.146898 -0.1469,0.146897 -0.49821,-0.819242 -0.49821,-0.819242 -1.68558,1.698383 -1.68559,1.698383 -0.23555,-0.145577 -0.23555,-0.145577 0.72402,1.094058 0.72401,1.094059 -0.14523,0.145231 -0.14523,0.145231 -0.47843,-0.809913 -0.47843,-0.809913 -0.87026,0.843497 -0.87027,0.843498 z m 6.88725,-6.950466 -0.30392,-1.545202 -0.0967,-0.300351 -0.0967,-0.300352 0.76597,-0.733847 0.76597,-0.733848 0.12449,0.372741 0.12448,0.372741 0.30332,1.542337 0.30333,1.542337 -0.0893,0.04516 -0.0893,0.04516 -0.7039,0.619159 -0.70389,0.61916 z"
           id="path157" /><path
           style="fill:#686868;fill-opacity:1"
           d="m 770.42671,61.401438 0.34727,-0.138964 0.15985,0.159852 0.15985,0.159853 -0.50711,-0.02089 -0.50712,-0.02089 z m 6.08542,0 0.34727,-0.138964 0.15985,0.159852 0.15985,0.159853 -0.50712,-0.02089 -0.50712,-0.02089 z m -7.40833,-0.264583 0.34726,-0.138964 0.15985,0.159852 0.15986,0.159853 -0.50712,-0.02089 -0.50712,-0.02089 z m 6.08541,0 0.34727,-0.138964 0.15985,0.159852 0.15985,0.159853 -0.50711,-0.02089 -0.50712,-0.02089 z m -3.6505,-0.244286 -0.004,-0.292735 -1.89879,-0.176474 -1.89879,-0.176474 -0.21383,0.336917 -0.21382,0.336918 -0.004,-0.441382 -0.004,-0.441381 -0.15725,-0.48466 -0.15725,-0.484661 0.26518,0.373063 0.26517,0.373063 2.73635,0.05039 2.73634,0.05039 -2.17272,-0.102875 -2.17273,-0.102874 -0.17492,-0.932417 -0.17493,-0.932417 0.13363,-1.185536 0.13363,-1.185537 1.20861,-1.817592 1.20862,-1.817592 10.79499,-11.478028 10.79499,-11.478027 3.02074,-3.230166 3.02075,-3.230166 1.26883,-0.814207 1.26883,-0.814207 2.9325,0.121597 2.9325,0.121598 0.16225,0.162255 0.16226,0.162255 -1.54104,1.655602 -1.54105,1.655602 -0.68391,0.690159 -0.68391,0.690158 -2.09514,2.295969 -2.09514,2.295969 -0.21591,-0.340294 -0.21591,-0.340294 -0.004,0.490972 -0.004,0.490973 -0.69495,0.831944 -0.69496,0.831944 -3.89141,4.101042 -3.89142,4.101041 -1.01239,1.137456 -1.01239,1.137455 -0.21802,-0.343705 -0.21802,-0.343706 -0.004,0.533167 -0.004,0.533166 -2.84427,3.033881 -2.84428,3.033881 -2.17484,2.23948 -2.17484,2.23948 0.15217,0.606297 0.15217,0.606296 -1.72904,1.867523 -1.72904,1.867523 0.14154,0.872186 0.14153,0.872187 -0.8509,-0.124887 -0.85091,-0.124887 -0.23122,0.365062 -0.23122,0.365061 z m 4.30594,-6.983306 0.13838,-0.529167 h -0.18689 -0.1869 l -0.3175,0.3175 -0.3175,0.3175 v 0.211667 0.211666 h 0.36602 0.36601 z m 2.3738,-2.438433 0.17189,-0.454057 -0.84816,0.146223 -0.84815,0.146224 -0.33073,0.101093 -0.33073,0.101092 v 0.325804 0.325804 l 0.3175,-0.3175 0.3175,-0.3175 h 0.34396 0.34396 v 0.548065 0.548066 l 0.34553,-0.349628 0.34554,-0.349628 z m 1.4052,-2.237146 0.15688,0.408833 0.37498,-0.143893 0.37498,-0.143893 v -0.455035 -0.455035 l -0.7778,0.114157 -0.7778,0.114157 -0.47897,0.542435 -0.47897,0.542435 0.72491,-0.466496 0.72491,-0.466497 z m 2.37132,-2.367943 0.31794,0.434807 0.25822,-0.333663 0.25822,-0.333664 0.17941,-0.315057 0.17942,-0.315056 -0.99812,0.149083 -0.99811,0.149084 -0.52917,0.542789 -0.52917,0.542788 0.77171,-0.477959 0.77171,-0.477959 z m 2.286,-2.540999 0.3241,0.324104 h 0.18081 0.18081 l 0.13519,-0.516959 0.13519,-0.51696 -0.83194,0.153779 -0.83193,0.15378 -0.39688,0.392748 -0.39687,0.392749 0.58871,-0.353672 0.58871,-0.353672 z m 2.37085,-2.512742 0.26119,0.466726 0.24832,-0.153471 0.24833,-0.153472 v -0.467728 -0.467727 l -0.77298,0.113449 -0.77298,0.113449 -0.61608,0.676376 -0.61609,0.676377 0.87955,-0.635352 0.87955,-0.635353 z m 3.21734,-2.725499 0.13041,-0.498657 -0.83194,0.153779 -0.83193,0.153779 -0.26647,0.297035 -0.26648,0.297035 0.25325,-0.198438 0.25324,-0.198437 h 0.34396 0.34396 v 0.388571 0.388571 l 0.3708,-0.142291 0.3708,-0.14229 z m 1.06706,-2.375154 h 0.44219 v 0.429271 0.429272 l 0.39687,-0.329377 0.39688,-0.329377 v -0.357863 -0.357864 l -0.8599,0.158653 -0.85989,0.158654 -0.52917,0.552515 -0.52917,0.552516 0.55,-0.4532 0.55,-0.4532 z m 3.61719,-2.757394 v -0.311349 l -0.91677,0.107028 -0.91677,0.107027 -0.30626,0.369011 -0.30625,0.36901 h 0.24407 0.24406 l 0.3449,-0.330729 0.34491,-0.330729 0.29312,0.44899 0.29312,0.44899 0.34093,-0.28295 0.34094,-0.282949 z m 1.33412,-2.059508 0.51078,0.318985 h 0.10502 0.10503 l 0.13518,-0.516959 0.13519,-0.51696 -0.83193,0.153061 -0.83193,0.153061 -0.52917,0.552515 -0.52917,0.552516 0.61012,-0.507602 0.61011,-0.507602 z m 1.70949,-2.81101 -0.1479,-0.147898 -0.58796,0.61251 -0.58796,0.61251 0.73586,-0.464612 0.73586,-0.464611 z m 1.56585,-0.343149 -0.13608,-0.220186 -0.50345,0.314409 -0.50345,0.314409 0.30336,0.365523 0.30336,0.365523 0.33617,-0.459746 0.33618,-0.459746 z m 2.2697,-1.84683 V 26.65718 h -0.52086 -0.52086 l 0.14588,0.380169 0.14589,0.380169 0.37498,-0.143893 0.37497,-0.143893 z m -1.55375,-0.17013 0.36313,-0.463021 -0.46302,0.363126 -0.46302,0.363126 v 0.0999 0.0999 h 0.0999 0.0999 z m -22.23211,33.668228 -0.0347,-0.79375 -0.21387,-0.336982 -0.21386,-0.336983 -0.50673,0.559927 -0.50672,0.559927 -0.46056,0.24648 -0.46055,0.24648 -0.66689,-0.167379 -0.66688,-0.167378 0.005,-0.434337 0.005,-0.434338 1.47224,-1.521354 1.47223,-1.521355 h 0.0834 0.0834 l 0.4422,1.987635 0.44221,1.987635 -0.12037,0.459761 -0.12037,0.459761 z m -0.25892,-4.006016 -0.32474,-1.762438 0.75704,-0.935353 0.75705,-0.935352 0.29481,-0.09827 0.29482,-0.09827 0.11666,0.610561 0.11666,0.610561 0.036,-0.849895 0.036,-0.849894 1.47999,-1.663647 1.47999,-1.663647 0.2398,-0.08819 0.2398,-0.08819 0.0149,0.352778 0.0149,0.352777 0.31579,-0.835528 0.3158,-0.835529 1.38427,-1.495658 1.38428,-1.495658 0.52046,-0.03921 0.52047,-0.03921 -0.24252,-0.292213 -0.24251,-0.292213 1.57892,-1.562445 1.57892,-1.562445 v 2.260701 2.260701 l -0.64187,0.603007 -0.64187,0.603008 -0.30578,-0.18898 -0.30577,-0.18898 0.70216,1.112299 0.70216,1.112299 -0.13188,0.131882 -0.13188,0.131882 -0.43879,-0.848525 -0.43879,-0.848525 -0.89065,0.863254 -0.89065,0.863254 -0.0935,-1.825254 -0.0934,-1.825255 -0.0518,2.159293 -0.0518,2.159293 -0.77028,0.648149 -0.77028,0.648149 0.50396,0.764433 0.50395,0.764433 -0.003,0.264583 -0.003,0.264584 -0.56117,-0.876454 -0.56118,-0.876454 -0.87524,0.848314 -0.87523,0.848314 -0.0966,-1.55936 -0.0966,-1.55936 -0.05,1.757956 -0.05,1.757956 -0.73142,0.782987 -0.73142,0.782986 0.46544,0.766349 0.46544,0.766349 4.1e-4,0.264583 4e-4,0.264583 -0.54559,-0.894922 -0.54559,-0.894922 -0.89168,0.864254 -0.89168,0.864253 -0.10302,-1.159956 -0.10301,-1.159956 -0.0462,1.342941 -0.0462,1.342942 -0.61523,0.577978 -0.61523,0.577977 z m 12.93228,-13.794856 v -2.175169 h 0.2802 0.2802 l -0.13541,-0.21909 -0.1354,-0.219091 1.575,-1.558564 1.575,-1.558565 v 2.248319 2.24832 l -1.71979,1.704504 -1.7198,1.704505 z m 2.25825,1.37375 -0.44845,-0.684415 0.13393,-0.133923 0.13392,-0.133923 0.42318,0.818338 0.42318,0.818337 h -0.10866 -0.10865 z m 1.44592,-5.237426 v -2.338241 l 1.71509,-1.756938 1.71508,-1.756939 0.005,2.265603 0.005,2.265603 -0.78808,0.755037 -0.78809,0.755036 0.5235,0.847049 0.52351,0.847048 -0.008,0.233354 -0.008,0.233353 -0.62016,-1.0089 -0.62016,-1.0089 -0.82679,1.003038 -0.82679,1.003038 z m 3.71128,-3.931473 -0.007,-2.31269 1.71099,-1.788352 1.71099,-1.788352 0.009,2.265602 0.009,2.265603 -0.74595,0.714664 -0.74595,0.714664 -0.21569,-0.202142 -0.21569,-0.202142 0.71616,1.149477 0.71615,1.149477 -0.13188,0.131882 -0.13188,0.131882 -0.42318,-0.818338 -0.42318,-0.818338 -0.19164,-0.0024 -0.19164,-0.0024 -0.72049,0.862281 -0.72049,0.862281 z m 3.70481,-3.8683 -0.008,-2.21224 1.08297,-1.293489 1.08298,-1.29349 h 0.19421 0.19421 l 0.32337,1.754991 0.32337,1.75499 -0.58524,0.622956 -0.58523,0.622955 -0.40967,-0.327425 -0.40967,-0.327426 0.54747,0.79375 0.54746,0.79375 0.31669,0.661458 0.31669,0.661459 -0.42958,-0.529167 -0.42959,-0.529166 -0.2137,-0.371578 -0.2137,-0.371577 -0.81876,0.900744 -0.81876,0.900744 z m 3.28484,0.374855 -0.18112,-0.965415 0.1323,-0.132292 0.13229,-0.132292 0.18111,0.965415 0.18111,0.965415 -0.13229,0.132292 -0.13229,0.132291 z m -0.0911,-3.313771 -0.29106,-1.357183 V 26.02882 25.426505 l 0.64801,-0.608776 0.64802,-0.608776 0.14372,0.628801 0.14372,0.628801 0.27559,1.29188 0.27558,1.291879 -0.0751,0.03104 -0.0751,0.03104 -0.70113,0.616556 -0.70112,0.616556 z"
           id="path156" /><path
           style="fill:#575757;fill-opacity:1"
           d="m 770.07749,60.450196 -1.58554,-0.207682 -0.59532,0.103975 -0.59531,0.103976 v -0.227893 -0.227893 h 3.175 3.175 v 0.236793 0.236792 l -0.99414,0.09481 -0.99414,0.09481 z m 4.43373,-0.113076 -0.59531,-0.114662 0.008,-0.444619 0.008,-0.444618 1.31447,-1.321735 1.31446,-1.321735 v -0.19962 -0.199619 h 0.23514 0.23513 l 0.17585,0.992188 0.17584,0.992187 0.15106,0.529167 0.15105,0.529167 -0.20324,-0.192416 -0.20323,-0.192416 -0.89717,0.787729 -0.89718,0.787728 -0.18923,-0.03603 -0.18923,-0.03603 z m -5.91675,-1.334628 -0.28125,-0.727605 0.11034,-1.379511 0.11034,-1.37951 1.20237,-1.795489 1.20238,-1.795489 13.39707,-14.2875 13.39707,-14.287499 1.38687,-1.113756 1.38687,-1.113756 3.22553,-0.01072 3.22553,-0.01072 0.11352,0.198437 0.11352,0.198438 -0.79222,0.642643 -0.79221,0.642643 0.18456,-0.581472 0.18455,-0.581472 -0.94545,0.450854 -0.94545,0.450853 v 0.24035 0.240349 l 0.52916,0.13838 0.52917,0.138381 v 0.132649 0.13265 l -0.84469,0.960971 -0.84469,0.96097 -0.28014,0.0051 -0.28013,0.0051 -0.65384,0.457966 -0.65384,0.457965 h -0.82105 -0.82104 l -0.64144,0.711155 -0.64143,0.711154 0.7587,-0.575258 0.7587,-0.575258 0.23349,0.144302 0.23348,0.144302 v 0.340252 0.340253 l -0.50596,0.457888 -0.50596,0.457887 -0.35393,0.05358 -0.35394,0.05358 -0.30685,0.191855 -0.30685,0.191856 -0.36731,-0.140948 -0.3673,-0.140948 -0.64876,0.710614 -0.64876,0.710614 0.87108,-0.501889 0.87109,-0.501888 0.23982,0.388033 0.23982,0.388034 0.82812,-0.612259 0.82813,-0.61226 0.10752,0.10753 0.10753,0.107529 -0.92207,0.893713 -0.92208,0.893713 V 30.395233 30.06073 l -0.79124,0.56341 -0.79124,0.56341 -0.91251,0.14808 -0.91251,0.14808 -0.61135,0.67914 -0.61136,0.67914 0.76328,-0.578863 0.76329,-0.578863 h 0.2289 0.2289 v 0.488159 0.48816 l -0.46993,0.425283 -0.46993,0.425284 -1.10068,0.176005 -1.10068,0.176006 -0.6122,0.677325 -0.6122,0.677326 0.87555,-0.605312 0.87555,-0.605312 0.32394,0.443023 0.32395,0.443024 0.73267,-0.576316 0.73266,-0.576316 0.1144,0.114394 0.11439,0.114395 -0.96181,0.907956 -0.96181,0.907957 0.18764,-0.330729 0.18764,-0.330729 h -0.15722 -0.15721 l -0.69188,0.453337 -0.69188,0.453338 -0.42329,0.09489 -0.42329,0.09489 -0.43438,-4.63e-4 -0.43437,-4.62e-4 -0.62396,0.681012 -0.62396,0.681013 0.71597,-0.457837 0.71597,-0.457836 0.27622,0.170712 0.27622,0.170713 0.0209,0.447406 0.0209,0.447406 0.12694,-0.311171 0.12693,-0.311171 0.97068,-0.740376 0.97068,-0.740375 -0.90515,1.12634 -0.90515,1.12634 -0.38391,-0.147319 -0.3839,-0.147318 -0.47037,0.425676 -0.47037,0.425677 -1.07495,0.144181 -1.07495,0.14418 -0.3009,0.362564 -0.3009,0.362563 h 0.28137 0.28136 l 0.16353,-0.264583 0.16352,-0.264583 h 0.25727 0.25727 l 0.15608,0.406729 0.15607,0.406729 -0.45943,0.50767 -0.45944,0.50767 -1.13932,0.170852 -1.13932,0.170852 -0.61614,0.681523 -0.61615,0.681523 0.82362,-0.568332 0.82361,-0.568332 0.16857,0.168571 0.16858,0.168572 v 0.45464 0.45464 l -0.66894,0.4383 -0.66893,0.438301 -0.25711,-0.158902 -0.25711,-0.158903 v 0.280198 0.280198 h -0.62045 -0.62045 l -0.50403,0.595313 -0.50403,0.595312 0.61012,-0.517422 0.61011,-0.517422 0.53971,0.337055 0.53971,0.337055 0.43768,-0.374701 0.43767,-0.374701 0.39688,-0.21227 0.39687,-0.212271 -0.91096,0.964912 -0.91096,0.964912 -0.16685,-0.269972 -0.16685,-0.269973 -0.47401,0.523778 -0.47402,0.523777 -1.13932,0.170852 -1.13932,0.170852 -0.61614,0.681523 -0.61615,0.681523 0.89707,-0.620632 0.89706,-0.620632 0.32908,0.450045 0.32908,0.450046 0.82438,-0.693666 0.82437,-0.693666 v 0.238602 0.238602 l -0.75542,0.723737 -0.75541,0.723737 -0.23677,-0.05364 -0.23677,-0.05364 -0.98369,0.437739 -0.98369,0.437738 h -0.49666 -0.49666 l -0.50402,0.570125 -0.50403,0.570124 0.72491,-0.466496 0.72491,-0.466497 0.16846,0.439001 0.16846,0.439001 -0.61609,0.655794 -0.61609,0.655794 -0.33495,-0.128534 -0.33496,-0.128534 -0.15638,0.253027 -0.15638,0.253028 h -0.61344 -0.61345 l -0.32938,0.396875 -0.32937,0.396875 h 0.28136 0.28137 l 0.16352,-0.264583 0.16352,-0.264583 h 0.39966 0.39966 l -0.0845,0.595312 -0.0846,0.595313 -0.92604,0.462585 -0.92605,0.462586 -0.24603,0.08245 -0.24604,0.08245 0.17746,0.46247 0.17747,0.462469 0.99461,-0.742476 0.99462,-0.742477 -0.36196,0.461168 -0.36195,0.461168 0.1428,0.546085 0.1428,0.546084 -1.43922,1.505846 -1.43923,1.505845 -0.32444,0.727605 -0.32444,0.727604 h -2.19092 -2.19091 z m 8.81816,-2.742205 -0.30085,-1.617725 0.84946,-1.023339 0.84946,-1.023338 0.17342,-0.0048 0.17341,-0.0048 -0.14125,2.182812 -0.14126,2.182813 -0.4039,0.463021 -0.40389,0.46302 h -0.17688 -0.17688 z m 1.91143,-1.821858 0.19593,-2.248958 0.17452,-0.304916 0.17452,-0.304916 1.4182,-1.495986 1.41819,-1.495987 0.0458,0.08111 0.0458,0.08111 -0.14106,2.160405 -0.14107,2.160405 -0.7079,0.791759 -0.70791,0.791758 0.0668,0.09054 0.0668,0.09054 -1.05225,0.926042 -1.05226,0.926041 z m 0.94185,-1.5875 -0.28321,-0.529166 h -0.13229 -0.13229 l 0.2832,0.529166 0.2832,0.529167 h 0.1323 0.13229 z m 1.32291,2.910417 -0.2832,-0.529167 h 0.13229 0.13229 l 0.28321,0.529167 0.2832,0.529166 h -0.13229 -0.1323 z m -3.95411,-3.189243 0.0146,-0.382632 0.79223,-0.626296 0.79222,-0.626297 0.11521,0.115215 0.11522,0.115215 -0.92208,0.893713 -0.92208,0.893713 z m 5.27994,-1.058334 0.003,-1.176381 0.16315,-0.986934 0.16315,-0.986934 0.20614,0.127403 0.20614,0.127403 -0.11966,-0.463386 -0.11965,-0.463385 1.46725,-1.446171 1.46724,-1.44617 -0.01,2.107629 -0.01,2.107628 -0.64434,0.788565 -0.64435,0.788565 -0.42723,-0.523981 -0.42723,-0.523982 0.59427,1.058333 0.59427,1.058333 -0.36016,-0.33104 -0.36015,-0.331041 -0.87282,0.845964 -0.87281,0.845964 z m 2.52764,0.620967 -0.18065,-0.474432 0.32876,0.32632 0.32877,0.326319 -0.14811,0.148113 -0.14811,0.148112 z m -5.53478,-2.128077 0.12123,-0.463021 0.97848,-0.63855 0.97848,-0.63855 -0.92604,1.079175 -0.92605,1.079175 -0.17366,0.02239 -0.17367,0.0224 z m 6.71201,-2.858515 0.004,-1.573256 0.16115,-0.601476 0.16115,-0.601476 0.36871,0.469184 0.3687,0.469185 -0.31786,-0.741894 -0.31787,-0.741894 1.50419,-1.504188 1.50419,-1.504189 v 2.266108 2.266107 l -0.64187,0.603007 -0.64187,0.603008 -0.32505,-0.200892 -0.32505,-0.200893 0.21655,0.37161 0.21656,0.37161 0.48578,0.702302 0.48578,0.702302 -0.004,0.223739 -0.004,0.22374 -0.56118,-0.876454 -0.56117,-0.876454 -0.88958,0.862211 -0.88957,0.86221 z m 3.70055,-4.258828 V 41.02598 l 0.3846,-0.768254 0.3846,-0.768254 1.33519,-1.312971 1.3352,-1.31297 v 2.259037 2.259037 l -0.65371,0.614121 -0.6537,0.614122 -0.45084,-0.369563 -0.45084,-0.369564 0.4953,0.79375 0.4953,0.79375 -0.23326,-0.20309 -0.23325,-0.203089 -0.87729,0.850304 -0.8773,0.850305 z m 1.05834,-1.680053 -0.2832,-0.529167 h -0.1323 -0.13229 l 0.2832,0.529167 0.2832,0.529167 h 0.1323 0.13229 z m 1.32291,2.910417 -0.2832,-0.529167 h 0.13229 0.1323 l 0.2832,0.529167 0.2832,0.529166 h -0.13229 -0.1323 z m -5.82083,-1.377685 v -0.411592 l 0.95395,-0.727613 0.95395,-0.727612 -0.2682,0.497772 -0.26819,0.497771 -0.68576,0.641433 -0.68575,0.641434 z m 7.14375,-4.159059 V 36.38197 l 0.37606,0.312101 0.37606,0.312101 -0.14052,-0.537335 -0.14051,-0.537336 1.47891,-1.528306 1.47892,-1.528307 0.005,2.234481 0.005,2.234481 -0.70385,0.734668 -0.70386,0.734668 -0.37724,-0.455607 -0.37723,-0.455607 0.56479,1.058333 0.56478,1.058333 -0.33797,-0.456258 -0.33797,-0.456258 -0.86551,0.838889 -0.86552,0.83889 z m -4.7625,1.531016 v -0.30156 l 0.46302,-0.364366 0.46302,-0.364365 0.52917,-0.293302 0.52917,-0.293303 -0.9118,0.959229 -0.9118,0.959228 h -0.0804 -0.0804 z m 8.46667,-5.312789 v -2.215367 l 1.70721,-1.839829 1.70721,-1.839828 0.0126,2.162512 0.0126,2.162512 -0.68557,0.81476 -0.68558,0.81476 -0.28135,-0.173882 -0.28134,-0.173882 0.21655,0.37161 0.21656,0.371609 0.48578,0.702303 0.48578,0.702302 -0.004,0.223739 -0.004,0.22374 -0.55069,-0.859896 -0.55069,-0.859896 h -0.21509 -0.21508 l -0.68497,0.81405 -0.68498,0.81405 z m 0.79375,-1.793983 -0.2832,-0.529167 h -0.1323 -0.13229 l 0.2832,0.529167 0.28321,0.529167 h 0.13229 0.13229 z m -2.32269,-0.307974 0.10266,-0.307975 0.91157,-0.672382 0.91158,-0.672382 -0.9118,0.980357 -0.91179,0.980356 h -0.10244 -0.10244 z m 5.24689,-1.808692 0.008,-2.248959 1.05636,-1.168514 1.05636,-1.168515 0.22745,0.242473 0.22745,0.242473 0.29914,1.431452 0.29913,1.431452 -0.57848,0.615765 -0.57848,0.615765 -0.40007,-0.327425 -0.40007,-0.327426 0.47647,0.73211 0.47647,0.732111 -0.39848,-0.152909 -0.39847,-0.152908 -0.69031,0.876007 -0.69031,0.876006 z m 1.04455,-1.322917 -0.2832,-0.529167 h -0.1323 -0.13229 l 0.2832,0.529167 0.28321,0.529167 h 0.13229 0.13229 z m 1.32291,2.910416 -0.2832,-0.529166 h 0.13229 0.1323 l 0.2832,0.529166 0.2832,0.529167 h -0.13229 -0.13229 z m 1.07923,-0.683506 0.0209,-0.507118 0.13897,0.347265 0.13896,0.347266 -0.15985,0.159852 -0.15985,0.159853 z m -0.29999,-4.322154 -0.33437,-1.870984 0.48003,-0.530427 0.48003,-0.530428 h 0.20198 0.20198 l 0.40534,1.777021 0.40534,1.777021 -0.053,0.0089 -0.053,0.0089 -0.69998,0.615474 -0.69997,0.615474 z m -3.68638,0.353404 0.003,-0.507118 0.98891,-0.628381 0.98891,-0.628381 -0.92604,1.022337 -0.92604,1.022337 -0.0661,0.113162 -0.0661,0.113162 z"
           id="path155" /><path
           style="fill:#454545;fill-opacity:1"
           d="m 769.41799,60.259262 v -0.264583 l 0.99219,0.01961 0.99218,0.01961 1.19063,0.211855 1.19062,0.211855 -2.18281,0.03312 -2.18281,0.03312 z m 5.09323,0.07786 -0.59531,-0.114662 v -0.510764 -0.510765 h 0.15602 0.15603 l 0.46258,0.571264 0.46258,0.571264 0.33443,-0.206688 0.33443,-0.206689 0.36988,-0.885244 0.36988,-0.885244 v -0.786633 -0.786633 l 0.23154,-0.143098 0.23153,-0.143097 0.1712,1.0706 0.17119,1.0706 -0.55342,0.777212 -0.55342,0.777213 -0.49338,0.264045 -0.49337,0.264045 -0.0835,-0.03603 -0.0835,-0.03603 z m -5.91828,-1.334628 -0.28279,-0.727605 0.13953,-1.404627 0.13954,-1.404627 1.21748,-1.781844 1.21748,-1.781844 13.77888,-14.672903 13.77888,-14.672903 1.09459,-0.726471 1.09459,-0.726472 3.175,0.02161 3.175,0.02161 -0.66146,0.202464 -0.66146,0.202465 -1.32292,0.672238 -1.32291,0.672238 -0.50282,0.55642 -0.50281,0.556421 0.83905,0.167809 0.83905,0.16781 0.12387,0.20043 0.12387,0.20043 -0.39396,0.326959 -0.39396,0.326959 V 25.220904 25.04275 l -0.88487,0.674924 -0.88487,0.674923 h -0.93679 -0.93678 l -0.445,0.679149 -0.44499,0.67915 0.613,-0.39416 0.61301,-0.394159 0.32688,0.361188 0.32689,0.361188 -0.72376,0.487106 -0.72376,0.487107 -0.79375,0.07766 -0.79375,0.07766 -0.66146,0.686663 -0.66146,0.686664 0.67904,-0.416682 0.67903,-0.416682 0.27216,0.431463 0.27216,0.431462 -0.61791,0.48605 -0.61791,0.486051 -0.26714,-0.165101 -0.26714,-0.1651 v 0.280198 0.280198 h -0.61196 -0.61195 l -0.77711,0.841472 -0.7771,0.841472 0.765,-0.578243 0.76501,-0.578243 0.36615,0.303874 0.36614,0.303875 -0.43402,0.479587 -0.43402,0.479588 -1.13932,0.170852 -1.13932,0.170852 -0.59612,0.63454 -0.59612,0.634541 h 0.22372 0.22373 l 0.44592,-0.40355 0.44591,-0.40355 0.34465,0.415276 0.34465,0.415277 -0.63744,0.448011 -0.63744,0.44801 -0.79375,0.08823 -0.79375,0.08824 -0.8599,0.826847 -0.85989,0.826848 v 0.186542 0.186543 l 0.85989,-0.803996 0.8599,-0.803996 0.0862,0.436499 0.0862,0.436498 0.3107,-0.178195 0.31071,-0.178195 -0.64876,0.711921 -0.64876,0.71192 -0.34343,-0.131786 -0.34343,-0.131786 v 0.25628 0.256279 h -0.75274 -0.75274 l -0.43788,0.483854 -0.43789,0.483855 v 0.218611 0.218611 l 0.51756,-0.468386 0.51757,-0.468387 0.41077,0.410772 0.41077,0.410771 -0.5976,0.419974 -0.59761,0.419973 -0.9753,0.156916 -0.97529,0.156917 -0.61221,0.668498 -0.6122,0.668499 0.66146,-0.414624 0.66146,-0.414624 0.31334,0.346685 0.31334,0.346685 -0.60784,0.571029 -0.60783,0.571028 -0.23467,-0.06797 -0.23468,-0.06797 -0.79576,0.168747 -0.79577,0.168747 -0.63519,0.879337 -0.6352,0.879336 0.6956,-0.634147 0.6956,-0.634146 0.4318,0.358359 0.4318,0.358359 -0.58805,0.476169 -0.58804,0.47617 -1.00973,0.161462 -1.00973,0.161463 -0.61221,0.668499 -0.6122,0.668498 0.69026,-0.440991 0.69026,-0.440992 0.34119,0.411106 0.34119,0.411105 -0.50228,0.384528 -0.50229,0.384528 -0.98002,0.16824 -0.98002,0.16824 -0.47519,0.535795 -0.47518,0.535795 0.52916,-0.274904 0.52917,-0.274904 0.31334,0.338913 0.31334,0.338913 -0.62448,0.58667 -0.62448,0.58667 -0.26589,-0.164327 -0.26589,-0.164328 -0.16619,0.268899 -0.16619,0.268899 h -0.59292 -0.59293 l -0.3175,0.3175 -0.3175,0.3175 v 0.252674 0.252674 l 0.52917,-0.478889 0.52916,-0.47889 v 0.437883 0.437882 l 0.33073,0.0084 0.33073,0.0084 -0.52917,0.414544 -0.52916,0.414544 -0.66403,0.24222 -0.66403,0.242219 -0.35734,0.988468 -0.35735,0.988467 -0.12784,1.244903 -0.12784,1.244902 -0.37214,0.308849 -0.37214,0.308848 v 0.49677 0.49677 h -2.25551 -2.2555 z m 34.16255,-34.345301 v -0.41249 l -0.2689,0.166189 -0.2689,0.166188 0.15222,0.246301 0.15223,0.246301 h 0.11667 0.11668 z m -25.34952,31.567289 -0.30751,-1.653532 0.98841,-0.989659 0.98841,-0.98966 -0.0872,2.180171 -0.0872,2.180171 -0.41685,0.463021 -0.41685,0.46302 h -0.17688 -0.17688 z m 1.93827,-1.664106 0.19227,-2.10632 0.0693,-0.07939 0.0693,-0.0794 0.77032,1.27002 0.77032,1.270021 -1.03186,0.915695 -1.03186,0.915695 z m -3.39844,0.571856 -0.42303,-0.645629 0.58563,-0.383968 0.58563,-0.383967 -0.0266,0.893619 -0.0266,0.89362 -0.13598,0.135978 -0.13597,0.135977 z m 4.48145,-2.056951 -0.75559,-1.344147 1.48775,-1.487746 1.48775,-1.487746 v 2.130435 2.130435 l -0.73217,0.701458 -0.73216,0.701458 z m -2.79886,-0.505578 0.008,-0.38023 0.67124,-0.489022 0.67124,-0.489023 0.11144,0.111436 0.11143,0.111436 -0.79099,0.757817 -0.79099,0.757817 z m 5.30296,-0.92364 0.0196,-1.04409 0.17883,-1.184358 0.17882,-1.184358 1.01429,1.713525 1.01429,1.713524 -0.33991,-0.33104 -0.33991,-0.331041 -0.87282,0.845964 -0.87281,0.845964 z m 1.23063,-2.385407 -0.72107,-1.193792 V 47.87017 47.673478 l 1.4552,-1.437132 1.45521,-1.437132 v 2.124273 2.124273 l -0.73413,0.703343 -0.73413,0.703343 z m -4.16066,0.697875 v -0.246566 l 0.8599,-0.592294 0.85989,-0.592294 -0.7771,0.83886 -0.77711,0.838861 h -0.0828 -0.0828 z m 6.61459,-2.311251 v -1.074123 l 0.26931,-1.425175 0.26932,-1.425175 1.45048,-1.452333 1.45047,-1.452332 -0.008,2.113791 -0.008,2.11379 -0.64041,0.727604 -0.6404,0.727605 h -0.12806 -0.12805 l -0.59315,-1.055374 -0.59316,-1.055373 -0.10739,0.107396 -0.1074,0.107397 0.97657,1.543289 0.97656,1.54329 -0.34617,-0.331041 -0.34618,-0.331041 -0.87281,0.845964 -0.87281,0.845964 z m -4.49792,-0.151149 v -0.101935 l 0.8599,-0.633883 0.85989,-0.633883 -0.42849,0.650272 -0.42848,0.650271 -0.43141,0.08555 -0.43141,0.08555 z m 2.43981,-2.361507 0.10266,-0.307974 0.91158,-0.672383 0.91157,-0.672382 -0.91179,0.980357 -0.9118,0.980356 h -0.10244 -0.10244 z m 5.76632,-2.087519 0.004,-1.705548 0.22395,-0.353299 0.22395,-0.353299 0.86197,1.411632 0.86197,1.411632 -0.21268,-0.20309 -0.21268,-0.203089 -0.87729,0.850304 -0.8773,0.850305 z m -3.44363,-0.332874 v -0.347118 l 0.83848,-0.619916 0.83848,-0.619916 -0.73759,0.967034 -0.73759,0.967033 h -0.10089 -0.10089 z m 4.61944,-1.367186 -0.69454,-1.185136 0.52808,-0.733093 0.52808,-0.733092 0.94905,-0.911799 0.94906,-0.911798 v 2.061579 2.06158 l -0.54719,0.768448 -0.54718,0.768448 h -0.23541 -0.23542 z m 2.52431,-2.599419 v -2.036277 h 0.20094 0.20094 l 0.36867,0.595312 0.36866,0.595313 0.35425,0.545531 0.35425,0.545531 -0.92386,0.895434 -0.92385,0.895433 z m -4.7625,1.32806 v -0.339829 l 0.8599,-0.493571 0.85989,-0.493571 -0.7771,0.8334 -0.77711,0.8334 h -0.0828 -0.0828 z m 6.01581,-2.451627 -0.72414,-1.198861 v -0.210967 -0.210966 l 1.46255,-1.564187 1.46255,-1.564188 -0.0735,2.309188 -0.0735,2.309187 -0.66492,0.664828 -0.66493,0.664827 z m -3.63456,-0.0692 v -0.214826 l 0.8599,-0.618968 0.85989,-0.618968 -0.7771,0.833794 -0.77711,0.833794 h -0.0828 -0.0828 z m 6.09584,-2.842126 0.0104,-2.102423 1.72891,-1.852083 1.72891,-1.852083 -0.12461,2.34801 -0.1246,2.348011 -0.65061,0.650614 -0.65062,0.650614 -0.71068,-1.212687 -0.71068,-1.212688 h -0.13676 -0.13675 l 0.19543,0.33073 0.19542,0.330729 0.59567,0.957991 0.59567,0.957991 -0.90777,0.879849 -0.90777,0.879849 z m 2.10624,1.204869 -0.2832,-0.529167 h 0.13229 0.1323 l 0.2832,0.529167 0.2832,0.529166 h -0.13229 -0.13229 z m -5.97702,-0.684086 0.0616,-0.419502 0.90721,-0.552909 0.9072,-0.55291 -0.9118,0.972412 -0.91179,0.972411 h -0.057 -0.057 z M 796.14091,32.774 v -0.23318 l 0.99218,-0.735426 0.99219,-0.735426 -0.9118,0.968606 -0.91179,0.968606 h -0.0804 -0.0804 z m 5.29166,-1.981892 v -2.049491 l 0.24347,0.150471 0.24347,0.15047 0.82642,1.343111 0.82643,1.34311 -0.29765,-0.183952 -0.29764,-0.183952 -0.77225,0.739862 -0.77225,0.739862 z m 1.11287,-1.176744 -0.80395,-1.306581 1.01664,-0.992725 1.01665,-0.992725 0.25757,1.026819 0.25758,1.02682 0.15353,0.686451 0.15354,0.686451 -0.62381,0.586036 -0.6238,0.586035 z m -4.01497,0.725958 0.008,-0.37685 0.65314,-0.475373 0.65314,-0.475373 v 0.230815 0.230815 l -0.66145,0.621408 -0.66146,0.621407 z m 6.09903,-2.638831 -0.28651,-1.33594 v -0.342845 -0.342845 l 0.48564,-0.4395 0.48565,-0.4395 0.482,1.418041 0.48201,1.418041 -0.50463,0.691929 -0.50463,0.691929 -0.17651,0.0083 -0.17651,0.0083 z m -3.72442,-0.05312 0.002,-0.330729 0.85823,-0.485457 0.85822,-0.485456 -0.77711,0.816185 -0.7771,0.816186 h -0.0828 -0.0828 z"
           id="path154" /><path
           style="fill:#333333;fill-opacity:1"
           d="m 770.54247,60.331105 0.99219,-0.103786 0.99218,0.103786 0.99219,0.103786 h -1.98437 -1.98438 z m 3.96875,-0.08009 -0.59531,-0.239286 V 59.60633 59.200929 h 0.12026 0.12027 l 0.66145,0.661458 0.66146,0.661459 -0.18641,-0.01677 -0.18641,-0.01677 z m -5.72301,-0.734251 -0.14463,-0.234019 -0.16698,-1.044212 -0.16698,-1.044212 0.28612,-1.047218 0.28611,-1.047217 1.0275,-1.538919 1.02751,-1.538919 13.7265,-14.617204 13.72651,-14.617205 1.2091,-0.843355 1.20911,-0.843355 2.89193,0.01301 2.89194,0.01301 -1.71979,0.889 -1.71979,0.889 -0.92605,0.966297 -0.92604,0.966298 0.42063,-0.16056 0.42063,-0.16056 0.33813,0.407422 0.33813,0.407421 -0.62647,0.521859 -0.62646,0.521858 -0.97873,0.0088 -0.97872,0.0088 -0.6976,0.914607 -0.69761,0.914608 0.17059,0.276017 0.17059,0.276018 h -0.49866 -0.49867 l -0.6214,0.661458 -0.62141,0.661459 h 0.25779 0.25778 l 0.32852,-0.328518 0.32852,-0.328517 0.24485,0.394663 0.24486,0.394663 -0.53572,0.529167 -0.53571,0.529167 -0.34163,-0.458909 -0.34163,-0.458908 -0.15405,0.154046 -0.15405,0.154047 0.14237,0.371007 0.14237,0.371008 -0.62362,8e-6 -0.62362,8e-6 -0.71039,0.890328 -0.71039,0.890328 0.30028,0.300289 0.30029,0.300289 h -0.69085 -0.69086 l -0.69907,0.830797 -0.69907,0.830797 0.13808,0.359828 0.13808,0.359828 h -0.46896 -0.46896 l -0.88705,0.9152 -0.88704,0.9152 0.33837,0.407717 0.33838,0.407716 h -0.80263 -0.80263 l -0.68498,0.81405 -0.68497,0.814051 v 0.244283 0.244283 h 0.23372 0.23373 l 0.13803,-0.527832 0.13803,-0.527831 0.43978,-0.168759 0.43978,-0.168759 0.29872,0.298724 0.29872,0.298724 -0.51494,0.389526 -0.51495,0.389525 -0.92604,0.17217 -0.92604,0.17217 -0.86601,0.820043 -0.86602,0.820043 0.13011,0.339044 0.1301,0.339045 h -0.5016 -0.5016 l -0.80422,0.975665 -0.80423,0.975665 0.28819,0.347252 0.2882,0.347251 h -0.64436 -0.64435 l -0.74533,0.777955 -0.74533,0.777955 0.15836,0.41267 0.15836,0.41267 h -0.60024 -0.60024 l -0.3175,0.3175 -0.3175,0.3175 v 0.239974 0.239974 l 0.37753,-0.144872 0.37753,-0.144872 0.28855,0.347687 0.28856,0.347687 -0.68587,0.449399 -0.68587,0.449399 -0.14259,-0.545254 -0.14258,-0.545254 -0.25255,0.156079 -0.25254,0.156079 0.14203,0.370112 0.14203,0.370112 h -0.47986 -0.47986 l -0.43788,0.483854 -0.43788,0.483855 v 0.21 0.210001 l 0.36177,-0.300242 0.36177,-0.300243 0.29875,0.359976 0.29876,0.359976 -0.49512,0.448075 -0.49512,0.448075 -0.3459,-0.07719 -0.3459,-0.07718 -0.61006,1.255458 -0.61006,1.255459 -0.0765,1.172022 -0.0765,1.172022 -0.52205,0.57686 -0.52206,0.57686 0.1323,0.170659 0.13229,0.17066 -2.16081,0.07649 -2.1608,0.07649 z m 32.37978,-33.785627 v -0.396875 h -0.26458 -0.26459 v 0.396875 0.396875 h 0.26459 0.26458 z m -24.88485,33.38642 0.2786,-0.744829 v -0.908817 -0.908817 h 0.22996 0.22997 l 0.16099,0.99209 0.161,0.992091 -0.66956,0.661555 -0.66956,0.661555 z m 1.49194,-1.534261 -0.12061,-0.366744 -0.26847,-1.322917 -0.26847,-1.322916 0.91273,-0.921632 0.91273,-0.921632 v 2.137396 2.137395 l -0.52365,0.473897 -0.52365,0.473897 z m 1.61705,-3.078723 0.12361,-1.785937 0.0536,-0.226289 0.0536,-0.226289 0.84862,1.365157 0.84863,1.365156 -0.24237,-0.149791 -0.24236,-0.149791 -0.56742,0.796861 -0.56741,0.79686 h -0.2161 -0.2161 z m -3.29984,0.620713 -0.28981,-0.636058 0.45146,-0.408566 0.45146,-0.408565 -0.0996,1.044623 -0.0996,1.044624 h -0.062 -0.062 z m 4.30064,-2.174927 -0.71701,-1.223484 1.48562,-1.485619 1.48562,-1.485618 v 2.133816 2.133815 l -0.61237,0.575288 -0.61236,0.575287 h -0.15625 -0.15624 z m -2.77286,-0.391655 v -0.374237 l 0.52917,-0.33047 0.52917,-0.33047 v 0.225818 0.225818 l -0.52917,0.478889 -0.52917,0.47889 z m 5.45097,-1.956735 0.1769,-2.116667 0.33985,-0.661458 0.33984,-0.661458 1.21185,-1.179568 1.21184,-1.179567 v 2.091131 2.091132 l -0.70839,0.739405 -0.7084,0.739405 -0.64039,-1.073886 -0.64039,-1.073887 -0.12552,0.125524 -0.12552,0.125524 0.68922,1.091805 0.68923,1.091804 -0.94351,0.983714 -0.9435,0.983714 z m -3.06972,-0.76332 v -0.101862 l 0.72761,-0.468263 0.7276,-0.468262 -0.50403,0.570124 -0.50402,0.570125 h -0.22358 -0.22358 z m 6.73811,-3.20543 0.18327,-2.116666 0.6404,-0.94033 0.6404,-0.94033 0.92599,-0.89751 0.926,-0.89751 v 2.087945 2.087946 l -0.70922,0.740261 -0.70921,0.740262 -0.74486,-1.122659 -0.74486,-1.122659 -10e-4,0.271858 -10e-4,0.271858 0.3563,0.521892 0.35631,0.521892 0.48966,0.79375 0.48966,0.79375 -0.23326,-0.20309 -0.23325,-0.20309 -0.90716,0.864549 -0.90716,0.864548 z m -6.61038,1.447817 -0.16809,-0.271975 0.59945,-0.485406 0.59945,-0.485405 0.32204,0.294359 0.32205,0.29436 -0.41316,0.463021 -0.41315,0.463021 h -0.34025 -0.34025 z m 2.25352,-0.722714 v -0.200938 l 0.53514,-0.334199 0.53514,-0.334199 -0.3342,0.535137 -0.3342,0.535138 h -0.20094 -0.20094 z m 0.10581,-1.693994 -0.19,-0.307433 0.59085,-0.478447 0.59086,-0.478446 0.35882,0.322858 0.35882,0.322859 -0.57685,0.457138 -0.57685,0.457137 -0.18282,0.0059 -0.18282,0.0059 z m 2.17367,-0.602736 0.14621,-0.381002 0.70538,-0.449162 0.70539,-0.449163 -0.7771,0.830165 -0.77711,0.830164 h -0.0745 -0.0745 z m 5.68933,-1.617616 0.0313,-1.308673 0.16714,-0.771181 0.16713,-0.771181 0.88675,1.432639 0.88675,1.432639 -0.20789,-0.20309 -0.2079,-0.203089 -0.87729,0.850304 -0.8773,0.850305 z m -5.58756,-0.484494 v -0.366445 l 0.63697,-0.417357 0.63697,-0.417358 0.16135,0.420463 0.16134,0.420464 -0.30154,0.363339 -0.30155,0.36334 h -0.49677 -0.49677 z m 2.11667,-0.529166 v -0.101862 l 0.7276,-0.468263 0.72761,-0.468262 -0.50403,0.570124 -0.50403,0.570125 h -0.22357 -0.22358 z m 4.63453,-1.057528 -0.71565,-1.221152 1.07512,-1.284111 1.07512,-1.284111 0.43566,-0.36157 0.43567,-0.36157 -0.0986,2.170249 -0.0986,2.170249 -0.69659,0.696585 -0.69658,0.696584 z m 2.50922,-1.999157 v -1.410268 l 0.28918,-0.956738 0.28918,-0.956739 1.45128,-1.5875 1.45127,-1.5875 -0.12572,2.150564 -0.12573,2.150564 -0.45453,0.693707 -0.45454,0.693707 h -0.21257 -0.21258 l -0.58092,-0.939959 -0.58093,-0.939958 -0.12121,0.121211 -0.12121,0.12121 0.66229,1.049135 0.66229,1.049135 -0.90778,0.879849 -0.90777,0.879848 z m -4.63109,0.514136 0.16264,-0.26316 0.58058,-0.304506 0.58058,-0.304505 -0.50403,0.567666 -0.50403,0.567666 h -0.23919 -0.23919 z m 0.21855,-1.748065 -0.17136,-0.446546 0.48431,-0.35413 0.4843,-0.354131 0.34952,0.290079 0.34953,0.290079 -0.14412,0.233181 -0.14411,0.233182 -0.51836,0.277416 -0.51835,0.277416 z m 2.0396,-0.568462 0.008,-0.198437 0.71929,-0.50792 0.71929,-0.50792 -0.64143,0.706357 -0.64144,0.706358 h -0.0862 -0.0862 z m 6.07711,-2.604381 v -1.871486 l 0.17717,-0.177168 0.17716,-0.177168 0.64245,1.077342 0.64245,1.077342 0.12995,-0.129945 0.12994,-0.129945 -0.68498,-1.008037 -0.68498,-1.008037 0.0122,-0.26931 0.0122,-0.26931 1.46935,-1.5875 1.46936,-1.5875 -0.17223,2.38125 -0.17223,2.381249 -1.57386,1.584855 -1.57386,1.584854 z m -5.91145,0.771927 -0.17881,-0.178809 0.57257,-0.609468 0.57256,-0.609469 0.3281,0.448704 0.3281,0.448704 -0.43522,0.331159 -0.43523,0.331158 -0.28663,0.0084 -0.28663,0.0084 z m 1.9427,-0.740438 V 34.87285 l 0.85989,-0.439865 0.8599,-0.439866 -0.50403,0.565363 -0.50403,0.565363 h -0.35587 -0.35586 z m 0.37039,-1.769436 -0.19,-0.307434 0.59085,-0.478446 0.59086,-0.478447 0.36629,0.322859 0.36629,0.322859 -0.54749,0.463021 -0.54748,0.463021 h -0.21966 -0.21966 z m 2.01086,-0.568852 v -0.08253 l 0.85989,-0.620824 0.8599,-0.620824 -0.64143,0.703359 -0.64144,0.703358 h -0.21846 -0.21846 z m 5.29166,-1.867954 v -2.049491 l 0.21613,0.133572 0.21612,0.133571 0.84023,1.351641 0.84022,1.35164 -0.2841,-0.175583 -0.2841,-0.175583 -0.77225,0.739862 -0.77225,0.739862 z m 1.11287,-1.176744 -0.80395,-1.306581 1.03617,-1.01179 1.03616,-1.011789 0.009,0.252134 0.009,0.252134 0.35907,1.501902 0.35906,1.501902 -0.60071,0.564335 -0.6007,0.564334 z m -3.93509,0.638158 v -0.349131 l 0.50086,-0.312788 0.50085,-0.312789 -0.28179,0.526531 -0.28179,0.526531 -0.21907,0.135388 -0.21906,0.135389 z m 6.022,-2.783932 -0.3171,-1.611806 0.16178,-0.26176 0.16177,-0.26176 h 0.35938 0.35938 l 0.46139,1.208127 0.46138,1.208128 -0.66543,0.665438 -0.66544,0.665438 z m -5.79886,0.605012 0.0855,-0.434662 0.45574,-0.286996 0.45574,-0.286995 0.33801,0.342594 0.33801,0.342594 -0.51359,0.379064 -0.51359,0.379063 h -0.3657 -0.36571 z m 2.06992,-0.46095 v -0.10186 l 0.7276,-0.468263 0.72761,-0.468262 -0.50403,0.570124 -0.50403,0.570125 h -0.22358 -0.22357 z"
           id="path153" /></g><path
         id="shape"
         style="opacity:0.60423;fill:none;fill-opacity:1;stroke:#000000;stroke-width:0.2;stroke-linejoin:bevel;stroke-dasharray:none"
         d="m 801.14814,20.793931 -0.0661,0.04237 h -0.21549 l -1.18339,0.814421 -0.86351,0.593762 -0.0755,0.04703 -0.014,0.01447 -0.231,0.159163 -13.80432,14.685926 -13.80433,14.686442 -1.16323,1.733744 -0.42013,0.626318 -0.002,0.0031 -0.002,0.0026 -10e-4,10e-4 -0.81081,1.160136 v 0.49041 l -0.0708,0.538468 -0.10077,0.763261 -0.0103,0.03772 0.003,0.01705 v 5.17e-4 5.16e-4 l -0.0357,0.268718 -0.65009,0.857829 -0.47801,0.630452 -0.0961,-0.165364 0.006,0.285253 -0.0295,0.03876 -0.0424,-0.05943 0.0263,0.08062 -0.0362,0.04754 0.0935,0.498161 v 5.17e-4 l 0.003,0.166915 0.0543,0.139526 5.2e-4,10e-4 0.0129,0.07028 0.16433,0.875915 1.47433,0.316777 -0.0238,0.0098 0.0853,0.0036 0.38034,0.08165 1.91565,0.411862 0.41703,0.03721 0.41702,0.03669 0.0351,-0.03772 h 5.2e-4 l 0.18914,0.0041 -0.14056,-0.05581 0.54002,-0.574642 0.52865,-0.563273 0.18396,0.02739 0.061,0.08733 0.14935,0.215491 0.11524,0.02429 0.0486,0.07906 0.28577,-0.0083 h 10e-4 l 0.94722,0.200504 -0.0749,0.03049 0.27182,0.01137 0.6134,0.129708 0.48834,0.103353 -0.0506,0.02015 0.18293,0.0078 1.01545,0.214457 0.003,5.17e-4 0.12144,0.03307 0.0388,10e-4 0.36484,0.077 0.0439,0.0093 0.0842,-0.07545 0.262,0.0052 -0.17622,-0.07131 0.0491,-0.03049 0.26252,-0.162264 0.55759,-0.594279 0.0382,-0.03411 13.38574,-14.245642 13.13822,-13.983642 0.0217,-0.02274 5.1e-4,-5.17e-4 0.30799,-0.322461 0.0977,-0.503845 1.07746,-3.503145 0.58032,-1.886707 5.2e-4,-0.0015 0.41341,-1.248503 -0.0155,-0.04547 v -5.17e-4 l 0.22272,-0.72347 0.12351,-0.123507 -0.11524,-0.288354 -0.23099,-1.07797 0.003,-0.121957 0.0145,-0.529166 -0.12041,0.173116 -0.18965,-0.883151 0.0563,-0.348299 -0.10904,0.243396 -0.39119,-0.297656 -0.20774,-0.15813 -0.0708,-0.184485 h -3.06958 -1.76165 z m 4.97902,7.585583 -0.17518,0.550871 -0.24443,0.769462 -0.0925,0.347266 -0.0718,0.26975 -0.18604,-0.115238 -0.0718,-0.04444 -0.14831,-0.148311 V 29.58461 29.159313 l 0.31058,-0.272851 0.1757,-0.155029 0.003,-0.0026 10e-4,-0.001 0.37569,-0.330212 z m -1.79059,1.922363 0.11214,0.360185 0.11162,0.360702 0.0537,0.243396 v 5.16e-4 l 0.002,0.285254 0.093,0.143661 0.11369,0.517281 -0.22841,0.141076 -0.22841,0.141594 -0.40101,-0.77618 -0.40152,-0.775663 0.38705,-0.320911 z m -1.11259,1.382345 0.40824,0.623734 0.18604,0.283704 0.002,0.0021 0.003,0.0041 10e-4,0.0021 0.20722,0.341581 -1.25677,1.238168 -0.0372,0.03669 -0.0791,0.07803 -0.54777,0.539502 -0.19327,0.19017 -0.4098,0.403593 -0.0744,-0.464571 V 34.3037 33.119276 l 0.006,-0.0062 v 0.02635 l 0.009,-0.01188 v 0.01188 l 0.33383,-0.367419 0.003,-0.0031 0.39015,-0.37362 0.72657,-0.696082 0.15503,-0.0072 z m -2.33784,2.023649 0.008,0.93741 0.009,0.976685 -0.25115,0.155029 -0.25166,0.155546 -0.27388,-0.512113 -0.27389,-0.512113 0.51625,-0.619601 0.35346,-0.424263 5.2e-4,-5.17e-4 z m -1.42214,1.724443 0.42013,0.732771 0.006,0.01085 0.42685,0.743624 -1.25832,1.239201 -0.0362,0.03566 -1.22215,1.204061 -0.0723,-0.188619 v -0.935344 -1.194759 h 5.2e-4 l 0.0145,-0.01395 v 0.04237 l 0.18603,-0.222725 0.66043,-0.640271 0.009,-0.0088 0.55552,-0.538985 10e-4,-10e-4 5.1e-4,-5.17e-4 h 5.2e-4 z m -2.26497,2.228287 v 1.240751 1.249537 h -0.10181 -0.1018 l -0.45424,-0.693498 -0.44803,-0.683679 0.20154,-0.210323 h 0.0501 l 0.10852,-0.165365 0.18966,-0.189653 0.36173,-0.361735 z m -1.46141,1.743046 0.45992,0.701766 0.0667,0.101803 0.30489,0.515731 v 5.16e-4 l 5.2e-4,10e-4 0.0584,0.112655 -1.19372,1.212329 -0.0171,0.01705 -0.0817,0.0801 -1.19734,1.179257 h -0.1142 v -1.082622 -1.194759 l 0.002,-0.0016 v 0.01809 l 0.0202,-0.02429 v 0.03617 l 0.24753,-0.288871 5.2e-4,-0.001 0.60048,-0.581876 0.54312,-0.526583 0.003,-0.0021 0.002,-0.0016 z m -2.24276,2.252576 v 1.231966 1.23145 h -0.0749 -0.0755 l -0.44803,-0.758094 -0.40877,-0.691947 0.1292,-0.137459 h 0.0486 l 0.15193,-0.213424 0.31109,-0.330213 z m -1.40147,1.642277 0.33022,0.503329 0.003,0.0041 0.002,0.0026 0.17828,0.302824 0.37983,0.643372 -1.31414,1.314648 -0.13229,0.132292 -1.21956,1.219047 v -1.201994 -1.201477 l 0.88677,-0.859379 0.016,-0.0155 z m -2.3027,2.326473 v 1.231966 1.23145 h -0.0749 -0.0755 l -0.44803,-0.758094 -0.4191,-0.710034 0.52762,-0.551387 5.2e-4,-5.17e-4 5.1e-4,-5.17e-4 z m -1.44694,1.460376 0.1416,0.223242 0.003,0.0047 0.31781,0.553971 0.16588,0.288355 0.0703,0.121956 0.092,0.161231 0.12351,0.214974 -0.13178,0.144694 -1.18184,1.228349 -1.3162,1.368908 0.005,-1.190625 0.005,-1.190625 0.0956,-0.108004 0.0145,0.09457 0.79789,-0.969966 0.50849,-0.61805 z m -2.25722,2.508374 v 1.081588 0.01809 1.099157 h -0.20361 l -0.32556,-0.497127 V 51.04273 l -0.21911,-0.08165 -0.0171,-0.02636 -0.16433,-0.251147 -0.062,-0.09405 0.39636,-0.412378 0.33177,-0.344682 z m -1.42886,1.419035 0.44132,0.746208 0.35967,0.608748 0.002,0.0036 5.1e-4,5.17e-4 0.0713,0.137976 -0.0842,0.09663 -1.21026,1.328601 -1.30173,1.42937 -0.0119,-0.886251 -0.0124,-0.885734 0.14831,-0.312125 0.0413,0.232027 0.0367,-0.396358 v -5.17e-4 l 0.18965,-0.398942 0.21756,-0.45837 0.35863,-0.428398 0.44907,-0.536401 0.0703,-0.06821 0.002,-0.0021 z m -2.27531,2.518709 v 1.114661 1.115177 h -0.0873 -0.0879 l -0.35812,-0.66921 -0.35709,-0.667142 0.0734,-0.07648 0.37156,-0.371554 z m -1.35289,1.482597 0.28474,0.435116 v 5.16e-4 l 0.17053,0.287838 0.37,0.626835 -1.19476,1.398364 -1.22886,1.438156 h -0.1416 -0.14211 l 0.18862,-1.256771 0.0222,-0.148828 0.0388,0.214974 0.0377,-0.72347 v -0.0021 -0.001 l 0.0894,-0.596346 0.21445,-0.399976 0.03,-0.05581 0.44546,-0.498678 0.005,-0.0052 z m -2.35128,2.534729 v 1.214396 0.0083 1.223182 h -0.0884 -0.0522 -0.0357 l -0.15038,-0.149862 -0.0548,-0.180868 -0.10077,-0.330729 -0.0501,-0.22996 -10e-4,-0.144694 -0.004,-0.683679 -0.13229,0.204639 -0.063,-0.285771 0.20309,-0.183451 0.29765,-0.269235 z m -1.45056,1.44384 0.12765,0.200504 v 0.201021 0.557072 l 0.0698,0.181901 0.014,0.258383 -0.0124,0.330729 -10e-4,0.03152 -0.20258,-0.02791 -0.74672,-0.166915 -0.73226,-0.164331 0.28164,-0.273368 h 5.2e-4 l 0.14469,-0.07751 5.2e-4,-5.17e-4 0.0889,-0.04754 0.1695,-0.238228 0.20671,-0.227893 0.19017,-0.184485 5.1e-4,-5.17e-4 z m -6.19187,1.582849 0.43047,0.05633 0.0202,0.02015 -0.0791,0.127641 -0.29146,-0.01189 -0.50746,-0.02119 0.34727,-0.13901 z"
         transform="translate(156.05235,5.975495)" /></g></g>


<script type="text/javascript">
  <![CDATA[
    // Global Parameters and Variables
    //!export-start
    let _pn_setState         = 0;
    let _pb_boolState        = false;
    let _pn_setInterval      = 500;
    let _pc_state0Colour     = '#ffffff';
    let _pc_state1Colour     = '#00ff00';
    let _pc_state2Colour     = '#ff9500';
    let _pc_state3Colour     = '#ff0000';
    let _pc_state4Colour     = '#3c3c3c';
    let _pc_state5Colour     = '#dcdcdc';
    let _pn_lightShade       = 50;
    let _pn_highLightShade   = 90;
    let _pn_darkShade        = 15;
    let _pn_shadowShade      = -15;
    let _pn_strokeWidth      = 1;     
    let _pn_opacity          = 0.60;  
    let _pn_indicationMode   = 0;     
    //!export-end
    
    // Internal state variables
    let stateNumber = 0;
    let isBlinking = false;
    let myCheckInterval;
    
    // Force global timing mechanism by using epoch time
    function getGlobalBlinkState(interval) {
      // Use the current time divided by interval, which will give
      // the same result for all SVGs at the same moment
      return Math.floor(Date.now() / interval) % 2 === 0;
    }
    
    // Function to update the color based on the set state
    function logic() {
      switch (stateNumber) {
        case 0: // off
          setColors(_pc_state0Colour);
          stopBlinking();
          break; 
        case 1: // run
          setColors(_pc_state1Colour);
          stopBlinking();
          break;
        case 2: // warning
          setColors(_pc_state2Colour);
          stopBlinking();
          break;
        case 3: // fault
          startForceSync();
          break;
        case 4: // invalid 
          setColors(_pc_state4Colour);
          stopBlinking();
          break;
        case 5: // spare
          setColors(_pc_state5Colour);
          stopBlinking();
          break;
        default:
          console.log('Undefined State');
          stopBlinking();
      }
    }

    // Initial setup
    function init() {
      // Set up visibility change listener
      document.addEventListener('visibilitychange', handleVisibilityChange);
      
      // Initial state rendering
      logic(); 
    }
    
    // Handler for tab visibility changes
    function handleVisibilityChange() {
      if (document.visibilityState === 'visible' && isBlinking) {
        // Resume checking when tab becomes visible again
        startForceSync();
      } else if (document.visibilityState === 'hidden' && isBlinking) {
        // Pause checking when tab is hidden
        clearInterval(myCheckInterval);
        myCheckInterval = null;
      }
    }
    
    // Update the blinking display based on global time
    function updateBlinkDisplay() {
      if (!isBlinking) return;
      
      // Get the global blink state
      const showFaultColor = getGlobalBlinkState(_pn_setInterval);
      
      // Set the appropriate color
      if (showFaultColor) {
        setColors(_pc_state3Colour);
      } else {
        setColors(_pc_state0Colour);
      }
    }
    
    // Start forced synchronization
    function startForceSync() {
      // Clear any existing interval
      stopBlinking();
      
      // Set blinking state
      isBlinking = true;
      
      // Update display immediately
      updateBlinkDisplay();
      
      // Check very frequently to ensure tight synchronization (every 16ms = ~60fps)
      myCheckInterval = setInterval(updateBlinkDisplay, 16);
    }

    // Function to update values from Fuxa
    function putValue(id, value) {
      if (id === '_pn_setState') {
        stateNumber = value;
        logic(); 
      }
      if (id === '_pb_boolState') {
        _pb_boolState = value;
        if (_pb_boolState === true) {
          stateNumber = 1;
        } else if (_pb_boolState === false) {
          stateNumber = 0;
        }
        logic(); 
      }
      if (id === '_pn_setInterval')    _pn_setInterval    = value;
      if (id === '_pc_state0Colour')   _pc_state0Colour   = value;
      if (id === '_pc_state1Colour')   _pc_state1Colour   = value;
      if (id === '_pc_state2Colour')   _pc_state2Colour   = value;
      if (id === '_pc_state3Colour')   _pc_state3Colour   = value;
      if (id === '_pc_state4Colour')   _pc_state4Colour   = value;
      if (id === '_pc_state5Colour')   _pc_state5Colour   = value;
      if (id === '_pn_lightShade')     _pn_lightShade     = value;
      if (id === '_pn_highLightShade') _pn_highLightShade = value;
      if (id === '_pn_darkShade')      _pn_darkShade      = value;
      if (id === '_pn_shadowShade')    _pn_shadowShade    = value;
      if (id === '_pn_strokeWidth')    _pn_strokeWidth    = value;
      if (id === '_pn_opacity')        _pn_opacity        = value;
      if (id === '_pn_indicationMode') _pn_indicationMode = value;
    }

    // Function to send values back to Fuxa (placeholder)
    function postValue(id, value) {
      console.error('Not defined!');
    }

    // Function to update the fill and/or stroke color based on indication mode
    function setColors(color) {
      // Get the single element with ID "shape"
      const shapeElement = document.getElementById('shape');
      if (!shapeElement) return; // Safety check
      
      // Set opacity
      shapeElement.style.opacity = _pn_opacity;
      
      // Set stroke width
      shapeElement.style.strokeWidth = _pn_strokeWidth;
      
      // Apply colors based on indication mode
      switch(_pn_indicationMode) {
        case 0: // Fill only
          shapeElement.style.fill = color;
          shapeElement.style.stroke = "none";
          break;
        case 1: // Stroke only
          shapeElement.style.fill = "none";
          shapeElement.style.stroke = color;
          break;
        case 2: // Both fill and stroke
          shapeElement.style.fill = color;
          shapeElement.style.stroke = color;
          break;
        default:
          // Default to fill only
          shapeElement.style.fill = color;
          shapeElement.style.stroke = "none";
      }
    }

    // Function to stop blinking
    function stopBlinking() {
      if (myCheckInterval) {
        clearInterval(myCheckInterval);
        myCheckInterval = null;
      }
      isBlinking = false;
    }

    // Clean up event listeners when widget is destroyed
    function cleanup() {
      stopBlinking();
      document.removeEventListener('visibilitychange', handleVisibilityChange);
    }

    // Initialize the SVG
    init();

    // Ensure cleanup when SVG is removed
    const cleanupObserver = new MutationObserver((mutations) => {
      mutations.forEach((mutation) => {
        mutation.removedNodes.forEach((node) => {
          if (node.id === 'Layer_1') {
            cleanup();
            cleanupObserver.disconnect();
          }
        });
      });
    });
    cleanupObserver.observe(document.body, { childList: true, subtree: true });
  ]]>
  </script>
</svg>
