<?xml version="1.0" encoding="UTF-8" standalone="no"?>
<!-- Created with Inkscape (http://www.inkscape.org/) -->

<svg
   width="25.624405mm"
   height="10.803024mm"
   viewBox="0 0 25.624405 10.803024"
   version="1.1"
   id="Layer_1"
   xml:space="preserve"
   xmlns="http://www.w3.org/2000/svg"
   xmlns:svg="http://www.w3.org/2000/svg"><defs
     id="defs1" /><g
     id="layer13"
     transform="translate(-331.11121,-146.49839)"><g
       id="g49"><g
         id="g18"
         transform="translate(64.391438,-0.36174965)"><path
           style="fill:#d4d4d4;fill-opacity:1"
           d="m 288.26956,157.22054 -1.5875,-0.15396 -0.0802,-0.95938 -0.0802,-0.95938 -1.77192,-0.15856 -1.77192,-0.15855 -3.3073,-0.16165 -3.30729,-0.16164 -3.43958,-0.2294 -3.43958,-0.2294 -0.97279,-0.17135 -0.97278,-0.17134 -0.31081,-1.84268 -0.31081,-1.84268 0.12373,-0.12373 0.12373,-0.12373 9.75882,-1.31193 9.75882,-1.31193 1.40468,-0.002 1.40468,-0.002 -0.16352,0.26458 -0.16353,0.26458 h -0.51355 -0.51355 v 0.66146 0.66146 h 0.75682 0.75682 l 1.22756,0.16825 1.22755,0.16826 v 1.01702 1.01701 l -0.42539,1.06315 -0.42539,1.06315 0.195,0.46356 0.195,0.46356 -0.0577,1.19062 -0.0577,1.19063 -0.27351,0.33073 -0.27351,0.33073 -0.56291,-0.0445 -0.56292,-0.0445 z"
           id="path27" /><path
           style="fill:#c2c2c2;fill-opacity:1"
           d="m 288.26956,157.22054 -1.5875,-0.15396 -0.0802,-0.95938 -0.0802,-0.95938 -1.77192,-0.15856 -1.77192,-0.15855 -3.3073,-0.16165 -3.30729,-0.16164 -3.43958,-0.2294 -3.43958,-0.2294 -0.97279,-0.17135 -0.97278,-0.17134 -0.31081,-1.84268 -0.31081,-1.84268 0.12373,-0.12373 0.12373,-0.12373 9.75882,-1.31193 9.75882,-1.31193 1.40468,-0.002 1.40468,-0.002 -0.16352,0.26458 -0.16353,0.26458 h -0.51355 -0.51355 v 0.66146 0.66146 h 0.75682 0.75682 l 1.22756,0.16825 1.22755,0.16826 v 1.01702 1.01701 l -0.42539,1.06315 -0.42539,1.06315 0.195,0.46356 0.195,0.46356 -0.0577,1.19062 -0.0577,1.19063 -0.27351,0.33073 -0.27351,0.33073 -0.56291,-0.0445 -0.56292,-0.0445 z m -19.6467,-6.50396 -0.12645,-0.66146 h -0.0798 -0.0798 l -0.41852,0.1606 -0.41851,0.1606 v 0.34652 0.34652 l 0.33073,0.13345 0.33073,0.13345 0.29404,0.0209 0.29404,0.0209 z m 9.46024,-1.16585 v -0.5044 l -0.46302,0.0937 -0.46302,0.0937 -1.25677,0.16229 -1.25677,0.16229 v 0.24837 0.24837 h 1.71979 1.71979 z m 3.37344,0.33763 0.59531,-0.15954 v -0.64843 -0.64843 l -0.46302,0.13099 -0.46302,0.13098 -1.35888,0.17211 -1.35889,0.1721 0.13297,0.50849 0.13298,0.50849 1.09362,-0.004 1.09362,-0.004 z m 3.4013,-0.6616 1.18823,-0.2992 -0.0885,-0.42841 -0.0885,-0.4284 -0.38728,0.0441 -0.38729,0.0441 -1.25677,0.17054 -1.25677,0.17055 v 0.51295 0.51296 h 0.5443 0.54429 z m 2.75026,-1.05458 v -0.23372 h -0.52916 -0.52917 v 0.3721 0.37211 l 0.52917,-0.13838 0.52916,-0.13838 z"
           id="path26" /><path
           style="fill:#b0b0b0;fill-opacity:1"
           d="m 288.26956,157.22054 -1.5875,-0.15396 -0.0802,-0.95938 -0.0802,-0.95938 -1.77192,-0.15856 -1.77192,-0.15855 -3.3073,-0.16165 -3.30729,-0.16164 -3.43958,-0.2294 -3.43958,-0.2294 -0.97279,-0.17135 -0.97278,-0.17134 -0.31081,-1.84268 -0.31081,-1.84268 0.12373,-0.12373 0.12373,-0.12373 9.75882,-1.31193 9.75882,-1.31193 1.40468,-0.002 1.40468,-0.002 -0.16352,0.26458 -0.16353,0.26458 h -0.51355 -0.51355 v 0.66146 0.66146 h 0.75682 0.75682 l 1.22756,0.16825 1.22755,0.16826 v 1.01702 1.01701 l -0.42539,1.06315 -0.42539,1.06315 0.195,0.46356 0.195,0.46356 -0.0577,1.19062 -0.0577,1.19063 -0.27351,0.33073 -0.27351,0.33073 -0.56291,-0.0445 -0.56292,-0.0445 z m 0,-4.51958 0.16352,-0.26459 h -0.28019 -0.2802 v 0.26459 0.26458 h 0.11667 0.11668 z m -1.85208,-0.47548 0.79375,-0.22589 -0.73822,-0.18619 -0.73822,-0.18619 -1.3123,0.17409 -1.3123,0.17408 v 0.24249 0.24248 l -0.8599,-0.15152 -0.85989,-0.15151 -1.19063,0.26475 -1.19062,0.26475 3.30729,-0.11773 3.30729,-0.11773 z m -17.59479,-0.56122 v -0.77211 l -0.1606,-0.41851 -0.1606,-0.41852 h -0.50086 -0.50086 v 0.3638 0.36381 l 0.16536,0.82682 0.16537,0.82682 h 0.49609 0.4961 z m 5.29166,-1.45167 v -0.63628 l -1.12448,0.14216 -1.12447,0.14216 -0.38914,0.20659 -0.38913,0.2066 1.05059,0.1769 1.05059,0.1769 0.26459,0.0897 0.26458,0.0897 0.19844,0.0209 0.19843,0.0209 z m 3.96875,-0.25891 v -0.8952 l -0.65345,-0.12492 -0.65345,-0.12491 0.119,0.19255 0.119,0.19254 -1.19841,0.13508 -1.19841,0.13508 -0.10873,0.10873 -0.10872,0.10873 0.15265,0.58375 0.15266,0.58376 h 1.68893 1.68893 z m 3.68194,0.63061 h 0.43309 l -0.10093,-1.05833 -0.10093,-1.05834 h -0.34744 -0.34745 l -0.46192,-0.17725 -0.46191,-0.17726 0.19131,0.30955 0.19131,0.30955 h -0.78773 -0.78772 l -0.41664,0.15987 -0.41663,0.15988 0.16699,0.70002 0.16699,0.70002 0.1306,0.22962 0.1306,0.22962 1.19266,-0.16348 1.19267,-0.16347 z m 3.26338,-0.54308 0.99218,-0.27554 v -0.87938 -0.87938 l -1.69171,0.0319 -1.69171,0.0319 0.11983,0.19844 0.11982,0.19843 h -0.28019 -0.2802 v 0.24736 0.24736 l 0.25803,0.67868 0.25804,0.67869 0.60186,-0.001 0.60186,-0.001 z m 2.53669,-0.74766 0.35388,-0.22431 -0.0893,-0.62884 -0.0893,-0.62883 -0.39688,-0.0685 -0.39687,-0.0685 -0.38184,0.2453 -0.38183,0.2453 0.31002,0.68041 0.31001,0.68041 0.20411,-0.004 0.20411,-0.004 z"
           id="path25" /><path
           style="fill:#9e9e9e;fill-opacity:1"
           d="m 288.26956,157.22054 -1.5875,-0.15396 -0.0802,-0.95938 -0.0802,-0.95938 -1.77192,-0.15856 -1.77192,-0.15855 -3.3073,-0.16165 -3.30729,-0.16164 -3.43958,-0.2294 -3.43958,-0.2294 -0.97279,-0.17135 -0.97278,-0.17134 -0.31081,-1.84268 -0.31081,-1.84268 0.11672,-0.11672 0.11671,-0.11671 3.90868,-0.54175 3.90867,-0.54174 0.14657,0.14657 0.14657,0.14657 h -0.47559 -0.47559 l 0.164,0.99219 0.164,0.99218 0.003,0.33073 0.003,0.33073 h 1.88213 1.88212 l -0.18708,-1.25677 -0.18709,-1.25677 -0.0607,-0.0634 -0.0607,-0.0634 -0.84061,-0.16812 -0.8406,-0.16812 v 0.29766 0.29765 h -0.39687 -0.39688 v -0.24675 -0.24675 l 0.46302,-0.12789 0.46302,-0.12788 1.32292,-0.16544 1.32292,-0.16545 -0.36561,0.24652 -0.36562,0.24653 0.18128,1.02116 0.18128,1.02116 0.11775,0.40546 0.11774,0.40546 1.19107,0.0518 1.19106,0.0518 v -0.27668 -0.27669 l 0.52917,0.16795 0.52917,0.16795 -0.003,-0.48085 -0.003,-0.48085 -0.164,-0.99219 -0.16399,-0.99219 h -0.36226 -0.36226 v -0.25954 -0.25954 l 0.65011,-0.16317 0.6501,-0.16316 0.34209,0.13723 0.34208,0.13724 -0.46302,0.0209 -0.46302,0.0209 10e-4,0.59531 10e-4,0.59531 0.27014,0.97261 0.27013,0.9726 1.47756,-0.0892 1.47755,-0.0892 0.23713,-0.23714 0.23714,-0.23714 -0.16833,-1.22808 -0.16832,-1.22808 -0.81475,-0.17895 -0.81474,-0.17895 -0.0992,0.29771 -0.0992,0.29771 h -0.37482 -0.37483 v -0.23628 -0.23627 l 0.45689,-0.17533 0.45688,-0.17532 2.62772,-0.16009 2.62772,-0.16008 -0.18981,0.3071 -0.1898,0.3071 h -0.51355 -0.51355 v 0.66146 0.66146 h 0.75682 0.75682 l 1.22756,0.16825 1.22755,0.16826 v 1.01702 1.01701 l -0.42539,1.06315 -0.42539,1.06315 0.195,0.46356 0.195,0.46356 -0.0577,1.19062 -0.0577,1.19063 -0.27351,0.33073 -0.27351,0.33073 -0.56291,-0.0445 -0.56292,-0.0445 z m -0.41142,-3.99042 0.0226,0.39688 0.25648,-0.39688 0.25648,-0.39687 0.004,-0.19844 0.004,-0.19844 h -0.36601 -0.36602 l -0.16314,-0.59531 -0.16315,-0.59531 -0.19844,0.26458 -0.19844,0.26458 -1.79886,0.005 -1.79885,0.005 -0.18552,0.2593 -0.18552,0.2593 -1.8112,0.0252 -1.81119,0.0253 -0.21263,0.34403 -0.21262,0.34403 -0.46951,-0.18017 -0.46952,-0.18017 -1.21083,0.19504 -1.21084,0.19503 1.19063,0.19155 1.19062,0.19155 3.175,0.0173 3.175,0.0173 1.37647,-0.16536 1.37648,-0.16535 0.11419,-0.42766 0.11419,-0.42766 0.0493,0.79375 0.0493,0.79375 0.22739,-0.52917 0.22739,-0.52916 z m -19.02329,-1.78593 -0.14445,-1.25678 -0.59532,-0.0845 -0.59531,-0.0846 v 0.51449 0.5145 l 0.16536,0.82682 0.16537,0.82683 h 0.5744 0.5744 z m 5.4377,-0.22635 -0.1582,-0.41225 v -0.61113 -0.61114 l -0.7025,-0.17632 -0.70251,-0.17631 -0.19675,0.31835 -0.19676,0.31836 -0.88668,-0.17035 -0.88667,-0.17035 0.39687,0.26016 0.39688,0.26016 -0.49133,0.004 -0.49133,0.004 0.1606,0.41852 0.1606,0.41851 0.003,0.30909 0.003,0.30909 1.87539,0.0599 1.87539,0.0599 z m -4.12695,-0.63355 v -0.52917 l -0.19843,0.004 -0.19844,0.004 -0.39688,0.26053 -0.39687,0.26053 0.39687,0.26053 0.39688,0.26053 0.19844,0.004 0.19843,0.004 z m 17.79323,-0.59531 -0.0661,-0.19844 v -1.05833 -1.05834 h -0.82757 -0.82756 l 0.17577,1.09925 0.17578,1.09924 0.14759,0.2388 0.14759,0.23881 0.57034,-0.0813 0.57035,-0.0813 z m -8.53281,-1.51632 v -0.25954 l 0.67378,-0.16911 0.67378,-0.1691 0.16407,0.16406 0.16406,0.16407 h -0.44097 -0.44097 v 0.26458 0.26459 h -0.39687 -0.39688 z"
           id="path24" /><path
           style="fill:#8c8c8c;fill-opacity:1"
           d="m 286.67807,156.92783 -0.16751,-0.27103 0.16829,-0.76621 0.16829,-0.76621 -1.40546,-0.14819 -1.40545,-0.14819 -6.08542,-0.27007 -6.08541,-0.27006 -2.15025,-0.30186 -2.15024,-0.30186 -0.30555,-1.85021 -0.30556,-1.85021 0.12232,-0.12232 0.12232,-0.12231 0.30917,1.57151 0.30918,1.57152 0.63524,-0.12143 0.63524,-0.12143 -0.0115,-0.1676 -0.0115,-0.16759 -0.21753,-1.12448 -0.21753,-1.12448 h 0.19524 0.19524 l 0.16923,1.05834 0.16924,1.05833 h 0.5094 0.50941 l -0.15657,-0.99219 -0.15657,-0.99219 -0.25192,-0.16536 -0.25192,-0.16536 0.27455,-0.16969 0.27455,-0.16968 0.1409,0.22799 0.14091,0.22799 0.17671,1.10511 0.17672,1.10511 0.17288,0.10684 0.17288,0.10685 1.67935,0.19 1.67936,0.18999 -0.16092,-1.82406 -0.16091,-1.82406 0.10925,0.26458 0.10925,0.26459 0.30013,1.52148 0.30012,1.52147 1.1057,-0.14907 1.10569,-0.14908 0.59531,-0.12067 0.59532,-0.12067 0.0283,-1.11944 0.0283,-1.11944 0.25191,1.12495 0.25191,1.12495 1.50569,-0.13484 1.50569,-0.13483 -0.26458,0.11355 -0.26458,0.11356 -1.2619,0.17008 -1.26189,0.17008 0.17688,0.28619 0.17687,0.28619 -0.73815,-0.18526 -0.73816,-0.18527 -1.41498,0.17679 -1.41498,0.17679 0.15534,0.25135 0.15535,0.25135 -0.93028,-0.17452 -0.93027,-0.17452 -0.48484,0.28189 -0.48483,0.28189 0.39688,0.0104 0.39687,0.0104 3.57188,0.25474 3.57187,0.25473 3.175,0.008 3.175,0.008 0.46302,-0.0446 0.46302,-0.0446 v -0.35278 -0.35277 h 0.39688 0.39687 v -0.52917 -0.52917 h -0.39687 -0.39688 v -0.38126 -0.38126 l -0.29416,-0.1818 -0.29417,-0.1818 -0.21099,0.34139 -0.21099,0.34139 -0.43978,-0.43979 -0.43979,-0.43978 h 0.28349 0.28348 l 0.0209,-0.99219 0.0209,-0.99219 0.0883,0.26458 0.0883,0.26459 0.16479,0.74478 0.16479,0.74478 0.58596,-0.0833 0.58596,-0.0833 0.0821,-0.99218 0.0821,-0.99219 0.18247,0.004 0.18247,0.004 0.30975,0.19704 0.30975,0.19704 0.18195,0.72495 0.18195,0.72495 h 0.21807 0.21807 l 0.20255,-0.59531 0.20254,-0.59531 -0.0582,-0.21563 -0.0582,-0.21563 0.86562,0.0833 0.86563,0.0833 -0.0367,1.39258 -0.0367,1.39258 -0.30011,0.36161 -0.30011,0.3616 0.1723,1.46595 0.17229,1.46594 -0.17129,0.68248 -0.17129,0.68247 h -2.2283 -2.22831 z m 2.91441,-2.63937 0.16352,-0.26459 -0.61093,0.004 -0.61092,0.004 0.39687,0.25648 0.39688,0.25648 0.0505,0.004 0.0505,0.004 z m -7.32411,-2.18282 -0.10468,-0.33073 0.14978,-1.05833 0.14978,-1.05833 0.19984,0.97445 0.19984,0.97446 0.45436,0.11933 0.45436,0.11933 -0.46303,0.0307 -0.46302,0.0307 v 0.26458 0.26458 h -0.23627 -0.23628 z m 1.9663,-0.6454 0.46302,-0.121 0.46302,0.121 0.46302,0.121 h -0.92604 -0.92604 z m -6.10979,-2.19887 v -0.66146 l 0.13345,0.33073 0.13345,0.33073 -0.13345,0.33073 -0.13345,0.33073 z m 7.36656,-1.55449 v -0.27361 l 0.91858,-0.17233 0.91859,-0.17233 0.99964,0.27098 0.99965,0.27097 -1.05834,-0.0297 -1.05833,-0.0298 -0.8599,0.20472 -0.85989,0.20471 z"
           id="path23" /><path
           style="fill:#7a7a7a;fill-opacity:1"
           d="m 287.08445,156.94329 -0.39137,-0.24747 0.0809,-0.9391 0.0809,-0.9391 -1.80621,-3e-4 -1.80621,-3.1e-4 -6.87917,-0.40471 -6.87916,-0.40471 -0.92605,-0.20009 -0.92604,-0.2001 -0.0777,-0.65166 -0.0776,-0.65166 0.24305,0.35904 0.24305,0.35905 0.5622,-0.17844 0.5622,-0.17843 0.0313,-0.57749 0.0313,-0.57748 0.16917,0.79052 0.16917,0.79052 0.50029,0.0964 0.50028,0.0963 -0.14628,-1.81291 -0.14628,-1.8129 0.41172,2.01986 0.41173,2.01986 2.01036,0.16066 2.01036,0.16066 5.612,0.29816 5.61201,0.29817 0.67185,-0.16862 0.67184,-0.16863 v -0.39183 -0.39183 h 0.39688 0.39687 v -0.50086 -0.50086 l -0.41364,-0.15873 -0.41365,-0.15873 0.15338,-0.24817 0.15338,-0.24817 -0.31414,-0.19415 -0.31413,-0.19414 0.53212,-0.19685 0.53213,-0.19685 -0.12004,-0.81791 -0.12005,-0.81792 h 0.42691 0.4269 v 0.9044 0.90441 l 0.1606,0.41851 0.1606,0.41852 h 0.34805 0.34805 l 0.31429,-0.99219 0.3143,-0.99219 0.3934,-0.31256 0.3934,-0.31255 0.39104,0.15006 0.39104,0.15005 -0.1818,1.35313 -0.1818,1.35312 -0.26087,0.32291 -0.26086,0.3229 0.18156,1.32009 0.18156,1.32008 -0.17668,0.80441 -0.17667,0.8044 -1.89721,-0.004 -1.89721,-0.004 z m 2.60526,-1.99338 0.54638,-0.92604 h -0.27668 -0.27668 l 0.17433,-0.79375 0.17434,-0.79375 h -0.4179 -0.4179 v 0.77435 0.77435 l -0.3511,0.0855 -0.3511,0.0855 0.22638,0.8599 0.22637,0.8599 h 0.0986 0.0986 z m -18.0889,-1.71979 0.52917,-0.22739 0.83825,-0.0186 0.83826,-0.0186 0.3645,-0.13987 0.3645,-0.13987 -0.0653,-0.98461 -0.0653,-0.98461 0.28262,1.26986 0.28261,1.26985 -0.19953,0.18535 -0.19953,0.18536 -0.10568,-0.29345 -0.10569,-0.29344 -1.11486,0.21578 -1.11486,0.21577 -0.52917,-0.007 -0.52916,-0.007 z m 6.81442,-1.65364 -0.002,-1.38907 0.20031,0.79375 0.20031,0.79375 0.0313,0.59532 0.0313,0.59531 h -0.23001 -0.23002 z m -1.70465,0.94374 0.34726,-0.13897 0.15986,0.15985 0.15985,0.15986 -0.50712,-0.0209 -0.50712,-0.0209 z m 5.87963,-0.0838 -0.0629,-0.13229 -0.0829,-1.05833 -0.0829,-1.05834 0.25341,0.64907 0.2534,0.64906 -0.10762,0.54156 -0.10762,0.54156 z m -15.31325,-0.79375 v -0.66146 l 0.13346,0.33073 0.13345,0.33073 -0.13345,0.33073 -0.13346,0.33073 z m 19.12627,-0.023 -0.17777,-0.28764 0.29445,-0.29444 0.29444,-0.29445 v 0.58208 0.58209 h -0.11667 -0.11668 z m -17.52896,-0.90299 0.01,-0.79375 0.12197,0.46806 0.12197,0.46805 -0.13177,0.3257 -0.13178,0.32569 z m -1.88278,-0.55121 0.0209,-0.50712 0.13896,0.34726 0.13897,0.34727 -0.15985,0.15985 -0.15986,0.15985 z m 18.522,-2.58869 0.11024,-0.0972 1.05833,-0.16115 1.05834,-0.16115 -0.52917,0.23974 -0.52917,0.23975 -0.63941,0.0186 -0.63941,0.0186 z"
           id="path22" /><path
           style="fill:#686868;fill-opacity:1"
           d="m 287.40967,157.01215 -0.59532,-0.11466 v -1.03994 -1.03993 l -2.3151,-0.0532 -2.3151,-0.0532 2.11666,-0.0795 2.11667,-0.0795 0.59531,-0.13684 0.59531,-0.13685 v -0.39183 -0.39183 h 0.37483 0.37483 l 0.13345,-0.33073 0.13345,-0.33073 0.0209,0.4101 0.0209,0.41011 -0.28558,0.28558 -0.28559,0.28558 0.18546,1.23673 0.18546,1.23673 0.52523,-0.0803 0.52523,-0.0803 0.47536,-1.25677 0.47537,-1.25677 h -0.2324 -0.2324 l 0.15875,-0.79375 0.15875,-0.79375 h -1.22369 -1.2237 v -0.50712 -0.50711 l -0.33073,-0.11056 -0.33073,-0.11056 0.71454,-0.13689 0.71454,-0.13688 -0.0183,0.15925 -0.0183,0.15925 0.0313,0.33073 0.0313,0.33073 h 0.88845 0.88845 l 0.23632,-1.12448 0.23633,-1.12448 0.58457,-0.0832 0.58456,-0.0832 -0.16228,1.4061 -0.16227,1.40609 -0.26369,0.17234 -0.26369,0.17235 0.17055,1.24429 0.17055,1.24429 -0.16483,1.03076 -0.16482,1.03076 -1.61983,-0.036 -1.61983,-0.036 z m -8.99584,-2.65359 1.25677,-0.0991 1.25677,0.0991 1.25678,0.0991 h -2.51355 -2.51354 z m -8.19863,-0.35299 -2.17936,-0.21078 -0.26804,-0.16566 -0.26803,-0.16565 v -0.24897 -0.24897 h 0.79375 0.79375 l 0.0313,-0.59531 0.0313,-0.59532 0.16973,0.79375 0.16973,0.79375 h 0.52657 0.52657 l -0.0519,-1.05833 -0.0519,-1.05833 0.27676,1.19062 0.27675,1.19063 0.10179,0.10613 0.10178,0.10613 2.98068,0.18396 2.98067,0.18396 -2.38125,0.005 -2.38125,0.005 z m 4.3291,-0.72193 -0.13045,-0.21107 0.24308,-0.38425 0.24307,-0.38424 0.004,0.59531 0.004,0.59532 h -0.11667 -0.11668 z m 3.96875,-0.52917 -0.13045,-0.21107 0.24308,-0.38424 0.24307,-0.38425 0.004,0.59532 0.004,0.59531 h -0.11667 -0.11668 z m 3.94698,-0.5644 -0.15222,-0.2463 0.26889,-0.16619 0.2689,-0.16619 v 0.41249 0.41249 h -0.11667 -0.11668 z m 3.95745,-0.54745 -0.16352,-0.26458 h 0.2802 0.28019 v 0.26458 0.26459 h -0.11667 -0.11668 z m 1.91272,-1.48277 -0.19293,-0.19292 v -0.4057 -0.40569 l 0.29435,0.29435 0.29435,0.29435 -0.10143,0.30427 -0.10142,0.30427 z"
           id="path21" /><path
           style="fill:#575757;fill-opacity:1"
           d="m 287.54196,157.00936 -0.72761,-0.11022 v -1.04076 -1.04076 h 0.28242 0.28241 l -0.16745,0.59532 -0.16746,0.59531 0.27787,-0.39688 0.27786,-0.39687 0.0438,-0.52917 0.0438,-0.52917 0.1587,1.19063 0.1587,1.19062 h 1.0467 1.0467 l 0.30152,-1.05833 0.30153,-1.05833 -0.1204,-0.99219 -0.1204,-0.99219 h -1.29397 -1.29397 v -0.66146 -0.66145 h 0.25628 0.25628 l -0.14611,0.38073 -0.1461,0.38074 0.99135,0.18598 0.99135,0.18598 0.41678,-0.2629 0.41678,-0.26291 0.21706,-1.09756 0.21705,-1.09756 h 0.24901 0.24902 v 1.27 1.27 l -0.2296,0.25135 -0.22959,0.25135 -0.15695,0.8413 -0.15694,0.84129 0.25004,0.0848 0.25004,0.0847 -0.16494,1.38906 -0.16494,1.38906 -1.4845,-0.0396 -1.4845,-0.0396 z m -18.91771,-3.17689 -0.8599,-0.10671 v -0.35008 -0.35008 l 0.79375,-0.1165 0.79375,-0.1165 v 0.38109 0.38108 l 0.7836,-0.11501 0.7836,-0.11501 0.13414,0.34956 0.13414,0.34956 -0.85159,-0.0423 -0.85159,-0.0423 z m 19.24844,-0.0732 0.39687,-0.25648 0.21405,-0.004 0.21406,-0.004 -0.16352,0.26458 -0.16353,0.26458 -0.4474,-0.004 -0.44741,-0.004 z m -13.35016,-0.51088 -0.15222,-0.24631 0.26889,-0.16618 0.2689,-0.16619 v 0.41249 0.41249 h -0.11667 -0.11668 z m 3.95745,-0.54745 -0.16352,-0.26459 h 0.2802 0.28019 v 0.26459 0.26458 h -0.11667 -0.11668 z m 3.96875,-0.52917 -0.16352,-0.26458 h 0.2802 0.28019 v 0.26458 0.26458 h -0.11667 -0.11668 z m 3.96875,-0.52917 -0.16352,-0.26458 h 0.2802 0.28019 v 0.26458 0.26459 h -0.11667 -0.11668 z"
           id="path20" /><path
           style="fill:#454545;fill-opacity:1"
           d="m 287.80654,157.012 -0.99219,-0.10965 0.0186,-0.57934 0.0186,-0.57935 0.17984,0.39688 0.17984,0.39687 0.26458,0.0325 0.26459,0.0325 1.10549,0.16605 1.10549,0.16605 0.41586,-0.41586 0.41586,-0.41587 0.004,-0.57641 0.004,-0.57642 0.22746,-0.35897 0.22745,-0.35898 0.13187,0.22669 0.13186,0.22668 -0.16494,1.19063 -0.16493,1.19062 -1.19063,0.0275 -1.19062,0.0275 z m -18.58698,-3.25271 -0.16352,-0.26458 h -0.64584 -0.64585 v -0.26459 -0.26458 h 0.79375 0.79375 v 0.26458 0.26459 h 0.79375 0.79375 v 0.26458 0.26458 h -0.77813 -0.77814 z m 21.58145,-0.46302 -0.0179,-0.8599 -0.59531,-0.0313 -0.59531,-0.0313 0.78666,-0.1685 0.78666,-0.1685 0.19797,-1.15965 0.19797,-1.15965 0.13985,-0.13985 0.13985,-0.13985 v 1.23831 1.23832 l -0.23738,0.45943 -0.23737,0.45943 -0.27389,0.66146 -0.27388,0.66145 z m -16.28978,-0.0661 -0.16352,-0.26458 h 0.2802 0.28019 v 0.26458 0.26459 h -0.11667 -0.11668 z m 13.62604,-1.05833 -0.38155,-0.23581 0.13229,-0.13229 0.13229,-0.13229 0.38155,0.23581 0.38155,0.23581 -0.13229,0.13229 -0.13229,0.13229 z"
           id="path19" /><path
           style="fill:#333333;fill-opacity:1"
           d="m 290.05485,157.02018 0.72696,-0.12091 0.12264,-0.5778 0.12263,-0.57781 0.12125,-0.52916 0.12124,-0.52917 -0.0448,1.19063 -0.0448,1.19062 -0.92604,0.0373 -0.92604,0.0373 z m -2.90977,-0.26827 0.46302,-0.121 0.46302,0.121 0.46303,0.121 h -0.92605 -0.92604 z m -17.79323,-2.99262 -0.39687,-0.25648 -0.59531,-0.004 -0.59532,-0.004 v -0.26459 -0.26458 h 0.79375 0.79375 v 0.26458 0.26459 h 0.79375 0.79375 v 0.26458 0.26458 l -0.59531,-0.004 -0.59531,-0.004 z m 21.29896,-1.33436 -0.52916,-0.21595 0.59027,-0.0186 0.59027,-0.0186 0.12941,-0.59531 0.1294,-0.59532 0.12494,-0.66145 0.12493,-0.66146 -0.0871,1.27978 -0.0871,1.27978 -0.22835,0.21153 -0.22834,0.21153 z"
           id="path18" /></g><g
         id="asdasd"
         transform="translate(64.391438,-0.36174965)"><path
           id="shape"
           style="opacity:0.614925;fill:none;fill-opacity:1;stroke:#000000;stroke-width:0.4;stroke-linejoin:bevel;stroke-dasharray:none"
           d="m 289.54303,147.05977 -1.43247,0.0873 h -5.2e-4 -0.0233 l -0.54105,10e-4 h -10e-4 l -0.216,-0.0594 -0.31988,0.06 -0.3266,5.1e-4 -1.15031,0.15451 -1.24437,0.076 -0.36639,0.14056 h -5.2e-4 l -5.1e-4,5.2e-4 -0.43202,0.0579 -0.20825,0.0279 -0.56948,0.0765 -0.15193,-0.061 -0.65009,0.1633 -0.047,0.0119 h -5.2e-4 l -10e-4,5.2e-4 -0.83509,0.11214 -0.10646,0.0145 -0.1018,0.0134 -0.063,-0.063 -0.6103,0.15348 -0.78497,0.10542 -0.39015,0.0527 -1.28158,0.1602 -1.32292,0.16536 -0.17208,0.0475 -10e-4,5.2e-4 -0.52193,0.0698 -0.4992,0.0672 -0.18345,0.0248 -0.0181,-0.0181 -3.9088,0.54157 -1.0666,0.14779 -1.22422,0.16485 -1.56373,0.21032 -0.006,-0.0289 -0.0341,0.0341 -0.0145,0.0139 -0.0362,0.0367 -0.0253,0.0253 -0.076,-0.19069 -0.0114,0.2775 v 5.2e-4 l -0.0222,0.0222 -0.0253,0.0248 -0.0367,0.0367 0.0646,0.38396 -0.0109,0.2682 0.0481,-0.0481 0.20878,1.23869 0.0496,0.29404 v 0.14676 l 0.0176,-0.0434 0.24391,1.44539 0.49454,0.0873 0.003,0.002 0.015,0.002 0.46044,0.0811 0.97307,0.17105 1.28829,0.0858 h 0.002 l 5.2e-4,5.1e-4 1.09089,0.15296 3.60701,0.1602 0.8909,0.0594 3.30729,0.16175 3.3073,0.16174 1.77146,0.15813 1.77199,0.15865 0.0801,0.95963 0.008,0.0971 v 5.2e-4 l -0.0992,0.45165 0.15864,0.25735 0.0129,0.15245 0.0868,0.008 0.0765,0.12403 h 1.20044 l 0.22376,0.0217 1.58699,0.15451 0.56327,0.0445 0.56276,0.0444 0.2191,-0.2651 h 0.015 l 0.0279,5.1e-4 v -5.1e-4 h 0.0574 l 0.0434,-0.17363 0.18449,-0.22273 0.0305,-0.63252 0.0842,-0.3359 -0.0258,-0.22169 0.005,-0.0222 -0.0258,-0.1881 0.0475,-0.98082 -0.19482,-0.46354 -0.0372,-0.0879 v -5.1e-4 l -0.0698,-0.59635 0.32659,-0.81649 5.2e-4,-5.1e-4 0.22996,-0.27699 0.008,-0.31781 0.1974,-0.49299 v -1.017 -0.45733 l 0.0398,-0.29611 -0.0398,-0.015 v -0.24857 h -10e-4 v -0.001 l -1.22783,-0.16795 -1.22732,-0.16847 h -0.75706 -0.75551 v -0.66094 -0.66146 h 0.51315 0.51366 l 0.0289,-0.047 0.13488,0.004 -0.11731,-0.0315 0.11731,-0.18965 0.16329,-0.26458 h -10e-4 z" /></g></g></g>


<script type="text/javascript">
  <![CDATA[
    // Global Parameters and Variables
    //!export-start
    let _pn_setState         = 0;
    let _pb_boolState        = false;
    let _pn_setInterval      = 500;
    let _pc_state0Colour     = '#ffffff';
    let _pc_state1Colour     = '#00ff00';
    let _pc_state2Colour     = '#ff9500';
    let _pc_state3Colour     = '#ff0000';
    let _pc_state4Colour     = '#3c3c3c';
    let _pc_state5Colour     = '#dcdcdc';
    let _pn_lightShade       = 50;
    let _pn_highLightShade   = 90;
    let _pn_darkShade        = 15;
    let _pn_shadowShade      = -15;
    let _pn_strokeWidth      = 1;     
    let _pn_opacity          = 0.60;  
    let _pn_indicationMode   = 0;     
    //!export-end
    
    // Internal state variables
    let stateNumber = 0;
    let isBlinking = false;
    let myCheckInterval;
    
    // Force global timing mechanism by using epoch time
    function getGlobalBlinkState(interval) {
      // Use the current time divided by interval, which will give
      // the same result for all SVGs at the same moment
      return Math.floor(Date.now() / interval) % 2 === 0;
    }
    
    // Function to update the color based on the set state
    function logic() {
      switch (stateNumber) {
        case 0: // off
          setColors(_pc_state0Colour);
          stopBlinking();
          break; 
        case 1: // run
          setColors(_pc_state1Colour);
          stopBlinking();
          break;
        case 2: // warning
          setColors(_pc_state2Colour);
          stopBlinking();
          break;
        case 3: // fault
          startForceSync();
          break;
        case 4: // invalid 
          setColors(_pc_state4Colour);
          stopBlinking();
          break;
        case 5: // spare
          setColors(_pc_state5Colour);
          stopBlinking();
          break;
        default:
          console.log('Undefined State');
          stopBlinking();
      }
    }

    // Initial setup
    function init() {
      // Set up visibility change listener
      document.addEventListener('visibilitychange', handleVisibilityChange);
      
      // Initial state rendering
      logic(); 
    }
    
    // Handler for tab visibility changes
    function handleVisibilityChange() {
      if (document.visibilityState === 'visible' && isBlinking) {
        // Resume checking when tab becomes visible again
        startForceSync();
      } else if (document.visibilityState === 'hidden' && isBlinking) {
        // Pause checking when tab is hidden
        clearInterval(myCheckInterval);
        myCheckInterval = null;
      }
    }
    
    // Update the blinking display based on global time
    function updateBlinkDisplay() {
      if (!isBlinking) return;
      
      // Get the global blink state
      const showFaultColor = getGlobalBlinkState(_pn_setInterval);
      
      // Set the appropriate color
      if (showFaultColor) {
        setColors(_pc_state3Colour);
      } else {
        setColors(_pc_state0Colour);
      }
    }
    
    // Start forced synchronization
    function startForceSync() {
      // Clear any existing interval
      stopBlinking();
      
      // Set blinking state
      isBlinking = true;
      
      // Update display immediately
      updateBlinkDisplay();
      
      // Check very frequently to ensure tight synchronization (every 16ms = ~60fps)
      myCheckInterval = setInterval(updateBlinkDisplay, 16);
    }

    // Function to update values from Fuxa
    function putValue(id, value) {
      if (id === '_pn_setState') {
        stateNumber = value;
        logic(); 
      }
      if (id === '_pb_boolState') {
        _pb_boolState = value;
        if (_pb_boolState === true) {
          stateNumber = 1;
        } else if (_pb_boolState === false) {
          stateNumber = 0;
        }
        logic(); 
      }
      if (id === '_pn_setInterval')    _pn_setInterval    = value;
      if (id === '_pc_state0Colour')   _pc_state0Colour   = value;
      if (id === '_pc_state1Colour')   _pc_state1Colour   = value;
      if (id === '_pc_state2Colour')   _pc_state2Colour   = value;
      if (id === '_pc_state3Colour')   _pc_state3Colour   = value;
      if (id === '_pc_state4Colour')   _pc_state4Colour   = value;
      if (id === '_pc_state5Colour')   _pc_state5Colour   = value;
      if (id === '_pn_lightShade')     _pn_lightShade     = value;
      if (id === '_pn_highLightShade') _pn_highLightShade = value;
      if (id === '_pn_darkShade')      _pn_darkShade      = value;
      if (id === '_pn_shadowShade')    _pn_shadowShade    = value;
      if (id === '_pn_strokeWidth')    _pn_strokeWidth    = value;
      if (id === '_pn_opacity')        _pn_opacity        = value;
      if (id === '_pn_indicationMode') _pn_indicationMode = value;
    }

    // Function to send values back to Fuxa (placeholder)
    function postValue(id, value) {
      console.error('Not defined!');
    }

    // Function to update the fill and/or stroke color based on indication mode
    function setColors(color) {
      // Get the single element with ID "shape"
      const shapeElement = document.getElementById('shape');
      if (!shapeElement) return; // Safety check
      
      // Set opacity
      shapeElement.style.opacity = _pn_opacity;
      
      // Set stroke width
      shapeElement.style.strokeWidth = _pn_strokeWidth;
      
      // Apply colors based on indication mode
      switch(_pn_indicationMode) {
        case 0: // Fill only
          shapeElement.style.fill = color;
          shapeElement.style.stroke = "none";
          break;
        case 1: // Stroke only
          shapeElement.style.fill = "none";
          shapeElement.style.stroke = color;
          break;
        case 2: // Both fill and stroke
          shapeElement.style.fill = color;
          shapeElement.style.stroke = color;
          break;
        default:
          // Default to fill only
          shapeElement.style.fill = color;
          shapeElement.style.stroke = "none";
      }
    }

    // Function to stop blinking
    function stopBlinking() {
      if (myCheckInterval) {
        clearInterval(myCheckInterval);
        myCheckInterval = null;
      }
      isBlinking = false;
    }

    // Clean up event listeners when widget is destroyed
    function cleanup() {
      stopBlinking();
      document.removeEventListener('visibilitychange', handleVisibilityChange);
    }

    // Initialize the SVG
    init();

    // Ensure cleanup when SVG is removed
    const cleanupObserver = new MutationObserver((mutations) => {
      mutations.forEach((mutation) => {
        mutation.removedNodes.forEach((node) => {
          if (node.id === 'Layer_1') {
            cleanup();
            cleanupObserver.disconnect();
          }
        });
      });
    });
    cleanupObserver.observe(document.body, { childList: true, subtree: true });
  ]]>
  </script>
</svg>
