<?xml version="1.0" encoding="UTF-8" standalone="no"?>
<!-- Created with Inkscape (http://www.inkscape.org/) -->

<svg
   width="87.618134mm"
   height="80.17556mm"
   viewBox="0 0 87.618134 80.17556"
   version="1.1"
   id="Layer_1"
   xml:space="preserve"
   xmlns="http://www.w3.org/2000/svg"
   xmlns:svg="http://www.w3.org/2000/svg"><defs
     id="defs1" /><g
     id="layer6"
     transform="translate(-457.36591,-4.2029956)"><g
       id="g209"><g
         id="g189"
         transform="translate(193.97376,2.2982677)"><path
           style="fill:#d4d4d4;fill-opacity:1"
           d="m 272.63655,80.648731 v -0.931755 h -0.76135 -0.76136 l -0.34565,-0.416485 -0.34565,-0.416485 -0.28852,-1.59535 -0.28851,-1.59535 -0.91959,2.607148 -0.91958,2.607147 -1.87729,0.07691 -1.87729,0.07691 -0.18033,-3.119619 -0.18033,-3.119619 1.36267,-3.902604 1.36267,-3.902605 h 1.66231 1.66231 l 0.17719,-1.288328 0.17719,-1.288327 0.37925,-0.731012 0.37926,-0.731011 0.7913,-6.034164 0.7913,-6.034164 V 26.684306 2.4586426 h 5.15937 5.15938 V 34.576835 66.695027 l 0.67291,0.16889 0.67291,0.168891 0.23636,0.587396 0.23636,0.587397 0.0215,-20.6375 0.0215,-20.6375 0.24928,-2.370097 0.24929,-2.370097 0.50174,-0.672611 0.50175,-0.672612 4.00677,-0.07304 4.00677,-0.07304 V 15.151751 9.6023926 h 28.08902 28.08901 l -0.17497,27.9796874 -0.17498,27.979688 -5e-4,7.871354 -5e-4,7.871354 h -3.43958 -3.43958 v -8.863541 -8.863542 h -21.16667 -21.16666 v 8.863542 8.863541 h -3.48311 -3.4831 l 0.17006,-26.19375 0.17007,-26.19375 h -1.44946 -1.44946 l -0.006,20.571354 -0.006,20.571355 -0.48182,1.060602 -0.48182,1.060603 -0.96034,0.843193 -0.96035,0.843193 -0.99942,0.277541 -0.99942,0.277542 -0.83401,0.0015 -0.83401,0.0015 -0.2767,0.79375 -0.27671,0.79375 h -0.66596 -0.66597 l -0.0754,2.711979 -0.0754,2.711979 -5.09323,0.07186 -5.09323,0.07186 z m 24.34167,-62.579672 v -2.116666 h -0.79375 -0.79375 v 2.116666 2.116667 h 0.79375 0.79375 z m 10.84791,0 v -2.116666 h -4.89479 -4.89479 v 2.116666 2.116667 h 4.89479 4.89479 z m 2.91042,0 v -2.116666 h -0.92604 -0.92605 v 2.116666 2.116667 h 0.92605 0.92604 z m 9.525,0 v -2.116666 h -4.36563 -4.36562 v 2.116666 2.116667 h 4.36562 4.36563 z m 2.91041,0 v -2.116666 h -0.92604 -0.92604 v 2.116666 2.116667 h 0.92604 0.92604 z m 10.05417,0 v -2.116666 h -4.63021 -4.63021 v 2.116666 2.116667 h 4.63021 4.63021 z m 2.64583,0 v -2.116666 h -0.92604 -0.92604 v 2.116666 2.116667 h 0.92604 0.92604 z m 10.84792,0 v -2.116666 h -4.89479 -4.89479 v 2.116666 2.116667 h 4.89479 4.89479 z m 2.64583,0 v -2.116666 h -0.79375 -0.79375 v 2.116666 2.116667 h 0.79375 0.79375 z m -52.38749,-5.291666 v -2.116667 h -0.79375 -0.79375 v 2.116667 2.116666 h 0.79375 0.79375 z m 10.84791,0 v -2.116667 h -4.89479 -4.89479 v 2.116667 2.116666 h 4.89479 4.89479 z m 2.91042,0 v -2.116667 h -0.92604 -0.92605 v 2.116667 2.116666 h 0.92605 0.92604 z m 9.525,0 v -2.116667 h -4.36563 -4.36562 v 2.116667 2.116666 h 4.36562 4.36563 z m 2.91041,0 v -2.116667 h -0.92604 -0.92604 v 2.116667 2.116666 h 0.92604 0.92604 z m 10.05417,0 v -2.116667 h -4.63021 -4.63021 v 2.116667 2.116666 h 4.63021 4.63021 z m 2.64583,0 v -2.116667 h -0.92604 -0.92604 v 2.116667 2.116666 h 0.92604 0.92604 z m 10.84792,0 v -2.116667 h -4.89479 -4.89479 v 2.116667 2.116666 h 4.89479 4.89479 z m 2.64583,0 v -2.116667 h -0.79375 -0.79375 v 2.116667 2.116666 h 0.79375 0.79375 z"
           id="path198" /><path
           style="fill:#c2c2c2;fill-opacity:1"
           d="m 272.63655,80.648731 v -0.931755 h -0.76135 -0.76136 l -0.34565,-0.416485 -0.34565,-0.416485 -0.28852,-1.59535 -0.28851,-1.59535 -0.91959,2.607148 -0.91958,2.607147 -1.87729,0.07691 -1.87729,0.07691 -0.18033,-3.119619 -0.18033,-3.119619 1.36267,-3.902604 1.36267,-3.902605 h 1.66231 1.66231 l 0.17719,-1.288328 0.17719,-1.288327 0.37925,-0.731012 0.37926,-0.731011 0.7913,-6.034164 0.7913,-6.034164 V 26.684306 2.4586426 h 5.15937 5.15938 V 34.576835 66.695027 l 0.67291,0.16889 0.67291,0.168891 0.23636,0.587396 0.23636,0.587397 0.0215,-20.6375 0.0215,-20.6375 0.24928,-2.370097 0.24929,-2.370097 0.50174,-0.672611 0.50175,-0.672612 4.00677,-0.07304 4.00677,-0.07304 V 15.151751 9.6023926 h 28.08902 28.08901 l -0.17497,27.9796874 -0.17498,27.979688 -5e-4,7.871354 -5e-4,7.871354 h -3.43958 -3.43958 v -8.863541 -8.863542 h -21.16667 -21.16666 v 8.863542 8.863541 h -3.48311 -3.4831 l 0.17006,-26.19375 0.17007,-26.19375 h -1.44946 -1.44946 l -0.006,20.571354 -0.006,20.571355 -0.48182,1.060602 -0.48182,1.060603 -0.96034,0.843193 -0.96035,0.843193 -0.99942,0.277541 -0.99942,0.277542 -0.83401,0.0015 -0.83401,0.0015 -0.2767,0.79375 -0.27671,0.79375 h -0.66596 -0.66597 l -0.0754,2.711979 -0.0754,2.711979 -5.09323,0.07186 -5.09323,0.07186 z m -4.9246,-6.595716 0.15984,-0.636879 0.16598,-0.4876 0.16597,-0.487601 -0.48079,0.661458 -0.48079,0.661458 -0.51829,0.463021 -0.51829,0.463021 h 0.67326 0.67326 z m 12.7015,-4.01497 0.1606,-0.418515 v -0.904402 -0.904402 h -0.3638 -0.3638 l -0.16537,0.826823 -0.16536,0.826823 v 0.496094 0.496094 h 0.36856 0.36857 z m 2.99356,-0.967463 -0.11506,-0.598397 -0.005,1.058333 -0.005,1.058333 0.1204,-0.459936 0.12041,-0.459936 z m -4.86673,0.228672 0.13951,-0.363556 0.18954,-2.172884 0.18954,-2.172884 -4.07105,0.183844 -4.07106,0.183844 -0.10988,0.103274 -0.10988,0.103274 -0.12198,2.107046 -0.12197,2.107046 2.6131,0.0869 2.61311,0.0869 1.36075,0.05537 1.36076,0.05537 z m 0.18169,-5.25884 10e-6,-0.06615 0.65611,-4.960477 0.65611,-4.960478 -1.48097,-2.890596 -1.48098,-2.890597 -1.27538,-0.417155 -1.27537,-0.417155 h -0.49376 -0.49376 l -0.99822,7.739062 -0.99822,7.739063 -0.14064,0.595312 -0.14063,0.595313 h 3.73285 3.73285 z M 346.4553,52.04556 v -0.595721 l 0.1606,-0.418515 0.16059,-0.418514 h -0.95434 -0.95435 v 0.809364 0.809365 l 0.23686,-0.146387 0.23685,-0.146386 0.13479,0.351258 0.1348,0.351258 h 0.4221 0.4221 z m -0.46302,-3.422258 1.25677,-0.159583 v -0.679786 -0.679787 l -14.81599,0.100686 -14.81599,0.100686 -6.8e-4,0.177415 -6.8e-4,0.177415 0.7873,0.172919 0.78729,0.172919 0.27104,-0.167512 0.27104,-0.167511 v 0.243701 0.243701 l 1.65365,0.277998 1.65364,0.277999 10.17011,0.02877 10.1701,0.02878 0.0887,0.08872 0.0887,0.08872 0.58909,-0.08333 0.58909,-0.08333 z m -33.91071,-6.06807 0.0519,-2.35473 0.12615,-0.482388 0.12615,-0.482388 h 0.22542 0.22542 l -0.16895,0.440279 -0.16895,0.440278 0.31191,-0.192773 0.31191,-0.192774 0.53064,0.168419 0.53065,0.168419 -0.15175,0.245535 -0.15175,0.245534 h 0.2802 0.28019 v -0.29698 -0.296981 l 0.41207,0.341982 0.41206,0.341982 1.57974,-1.698648 1.57974,-1.698647 0.19756,0.316065 0.19756,0.316064 0.52262,-0.08838 0.52261,-0.08838 0.62789,0.395072 0.62789,0.395072 -0.18449,-0.358174 -0.18449,-0.358173 0.3911,0.478854 0.39109,0.478853 0.18125,-0.293264 0.18125,-0.293264 0.33152,0.275136 0.33151,0.275135 0.21625,-0.196142 0.21625,-0.196142 -0.15712,0.439519 -0.15713,0.439518 1.2341,-0.08355 1.23409,-0.08355 -0.4735,0.346232 -0.4735,0.346232 0.31,0.191589 0.31,0.191589 0.1879,-0.304026 0.18789,-0.304026 1.72836,2.188358 1.72837,2.188359 0.36676,0.595312 0.36676,0.595313 0.39938,-0.01457 0.39937,-0.01457 1.37774,-1.805821 1.37775,-1.80582 0.81672,-0.119869 0.81672,-0.119869 0.13625,0.220469 0.13626,0.220469 h 0.26458 0.26459 l -0.14917,-0.241357 -0.14917,-0.241357 0.37145,0.05452 0.37144,0.05452 0.38177,0.316837 0.38176,0.316836 0.17367,-0.17367 0.17367,-0.17367 0.72539,-0.07734 0.7254,-0.07734 -0.39424,0.249254 -0.39424,0.249253 0.57969,0.0041 0.5797,0.0041 0.15638,-0.253027 0.15638,-0.253028 0.38688,0.14846 0.38688,0.148461 -0.14589,0.236059 -0.14589,0.236059 0.65407,-0.248676 0.65407,-0.248677 0.15003,0.39099 0.15004,0.39099 0.66622,-0.436527 0.66623,-0.436526 0.004,0.625742 0.004,0.625742 0.23383,-0.369283 0.23383,-0.369284 0.48972,0.211509 0.48972,0.211509 0.51873,-0.06673 0.51873,-0.06673 0.99647,1.150548 0.99646,1.150548 -0.06,-12.038542 -0.06,-12.038542 -25.65925,-0.03451 -25.65924,-0.03451 -0.33607,0.12896 -0.33606,0.12896 v 2.71742 2.717421 l 0.39687,0.329377 0.39688,0.329377 v -0.17512 -0.17512 l 0.3691,0.341161 0.36911,0.34116 -0.14793,0.243401 -0.14792,0.2434 0.4268,-0.16378 0.42681,-0.16378 -0.16098,0.449546 -0.16097,0.449547 0.20924,-0.189129 0.20923,-0.189128 0.50179,0.268549 0.50179,0.268549 -0.15532,0.251309 -0.15531,0.251308 0.34634,0.03133 0.34634,0.03133 0.18232,-0.02596 0.18231,-0.02596 0.16625,0.523792 0.16624,0.523792 0.24675,0.03307 0.24676,0.03307 0.26458,0.06615 0.26459,0.06615 0.28019,0.03307 0.2802,0.03307 -0.16352,0.264583 -0.16352,0.264583 0.34634,0.0068 0.34635,0.0068 0.89275,1.316095 0.89276,1.316094 h 0.20938 0.20938 l 4.30445,5.816153 4.30446,5.816154 0.0686,-0.06862 0.0686,-0.06862 z m 11.09039,-3.864287 v -0.280199 l 0.26459,0.163522 0.26458,0.163521 v 0.116677 0.116677 h -0.26458 -0.26459 z M 294.0678,24.815934 v -3.836458 l -0.8599,-4.12e-4 -0.85989,-4.11e-4 0.0797,3.83687 0.0797,3.83687 h 0.78015 0.78016 z m -3.92351,1.653646 0.087,-1.918229 -0.0845,-0.595312 -0.0846,-0.595313 h -2.0674 -2.06741 l -0.15953,0.595313 -0.15954,0.595312 -0.004,1.918229 -0.004,1.918229 h 2.22806 2.22805 z m 6.83393,-8.400521 v -2.116666 h -0.79375 -0.79375 v 2.116666 2.116667 h 0.79375 0.79375 z m 10.84791,0 v -2.116666 h -4.89479 -4.89479 v 2.116666 2.116667 h 4.89479 4.89479 z m 2.91042,0 v -2.116666 h -0.92604 -0.92605 v 2.116666 2.116667 h 0.92605 0.92604 z m 9.525,0 v -2.116666 h -4.36563 -4.36562 v 2.116666 2.116667 h 4.36562 4.36563 z m 2.91041,0 v -2.116666 h -0.92604 -0.92604 v 2.116666 2.116667 h 0.92604 0.92604 z m 10.05417,0 v -2.116666 h -4.63021 -4.63021 v 2.116666 2.116667 h 4.63021 4.63021 z m 2.64583,0 v -2.116666 h -0.92604 -0.92604 v 2.116666 2.116667 h 0.92604 0.92604 z m 10.84792,0 v -2.116666 h -4.89479 -4.89479 v 2.116666 2.116667 h 4.89479 4.89479 z m 2.64583,0 v -2.116666 h -0.79375 -0.79375 v 2.116666 2.116667 h 0.79375 0.79375 z m -52.38749,-5.291666 v -2.116667 h -0.79375 -0.79375 v 2.116667 2.116666 h 0.79375 0.79375 z m 10.84791,0 v -2.116667 h -4.89479 -4.89479 v 2.116667 2.116666 h 4.89479 4.89479 z m 2.91042,0 v -2.116667 h -0.92604 -0.92605 v 2.116667 2.116666 h 0.92605 0.92604 z m 9.525,0 v -2.116667 h -4.36563 -4.36562 v 2.116667 2.116666 h 4.36562 4.36563 z m 2.91041,0 v -2.116667 h -0.92604 -0.92604 v 2.116667 2.116666 h 0.92604 0.92604 z m 10.05417,0 v -2.116667 h -4.63021 -4.63021 v 2.116667 2.116666 h 4.63021 4.63021 z m 2.64583,0 v -2.116667 h -0.92604 -0.92604 v 2.116667 2.116666 h 0.92604 0.92604 z m 10.84792,0 v -2.116667 h -4.89479 -4.89479 v 2.116667 2.116666 h 4.89479 4.89479 z m 2.64583,0 v -2.116667 h -0.79375 -0.79375 v 2.116667 2.116666 h 0.79375 0.79375 z"
           id="path197" /><path
           style="fill:#b0b0b0;fill-opacity:1"
           d="m 272.63655,80.648731 v -0.931755 h -0.76135 -0.76136 l -0.34565,-0.416485 -0.34565,-0.416485 -0.28852,-1.59535 -0.28851,-1.59535 -0.91959,2.607148 -0.91958,2.607147 -1.87729,0.07691 -1.87729,0.07691 -0.18033,-3.119619 -0.18033,-3.119619 1.36267,-3.902604 1.36267,-3.902605 h 1.66231 1.66231 l 0.17719,-1.288328 0.17719,-1.288327 0.37925,-0.731012 0.37926,-0.731011 0.7913,-6.034164 0.7913,-6.034164 V 26.684306 2.4586426 h 5.15937 5.15938 V 34.576835 66.695027 l 0.67291,0.16889 0.67291,0.168891 0.23636,0.587396 0.23636,0.587397 0.0215,-20.6375 0.0215,-20.6375 0.24928,-2.370097 0.24929,-2.370097 0.50174,-0.672611 0.50175,-0.672612 4.00677,-0.07304 4.00677,-0.07304 V 15.151751 9.6023926 h 28.08902 28.08901 l -0.17497,27.9796874 -0.17498,27.979688 -5e-4,7.871354 -5e-4,7.871354 h -0.26458 -0.26458 V 79.055518 76.80656 h -0.39688 -0.39687 v 2.248958 2.248958 h -2.77813 -2.77812 v -8.863541 -8.863542 h -21.16667 -21.16666 v 8.863542 8.863541 h -3.45691 -3.45691 l 0.11015,-30.1625 0.11016,-30.1625 -0.95273,-3.96e-4 -0.95272,-3.96e-4 0.0794,3.969146 0.0794,3.969146 h -0.54242 -0.54242 l -0.006,20.571354 -0.006,20.571355 -0.48182,1.060602 -0.48182,1.060603 -0.96034,0.843193 -0.96035,0.843193 -0.99942,0.277541 -0.99942,0.277542 -0.83401,0.0015 -0.83401,0.0015 -0.2767,0.79375 -0.27671,0.79375 h -0.66596 -0.66597 l -0.0754,2.711979 -0.0754,2.711979 -5.09323,0.07186 -5.09323,0.07186 z m 27.69905,-3.246859 -0.121,-0.463021 v 0.926042 0.926042 l 0.121,-0.463021 0.121,-0.463021 z m -31.69465,-5.934647 1.07804,-3.222668 -0.10667,-0.106672 -0.10667,-0.106673 -0.52469,0.48507 -0.52468,0.485069 -0.88643,0.813639 -0.88643,0.813639 -0.75155,0.906153 -0.75156,0.906153 -0.2053,0.529166 -0.2053,0.529167 -0.18545,0.595313 -0.18545,0.595312 h 1.58204 1.58205 z m 77.55381,-0.01193 0.004,0.191889 0.25648,-0.396875 0.25648,-0.396875 0.0351,-5.291667 0.0351,-5.291667 0.20684,-5.688541 0.20685,-5.688542 0.18902,-0.859896 0.18902,-0.859896 H 320.953 294.33234 l 0.0523,3.770313 0.0523,3.770312 0.14614,-2.910416 0.14614,-2.910417 2.11666,0.03404 2.11667,0.03404 22.29115,0.03211 22.29114,0.0321 0.058,3.63802 0.058,3.638021 0.0817,-3.638021 0.0817,-3.63802 h 1.44774 1.44774 v 0.661458 0.661458 h -1.0844 -1.0844 l 0.15021,10.252604 0.1502,10.252605 0.0648,0.434916 0.0649,0.434916 0.60476,-0.22993 0.60476,-0.22993 z m -65.5776,-2.192558 0.1754,-1.584303 -0.24155,-0.251355 -0.24154,-0.251354 -0.31357,0.313562 -0.31356,0.313561 -0.11698,1.617324 -0.11699,1.617324 0.49669,-0.09523 0.4967,-0.09523 z m 3.79335,-0.161936 0.79375,-0.169134 -0.72761,-0.0313 -0.7276,-0.0313 V 68.191993 67.51492 l -0.22971,0.141968 -0.22971,0.141968 -0.17743,1.337517 -0.17742,1.337516 0.20698,0.322068 0.20699,0.322068 0.13401,-0.92404 0.134,-0.924041 z m -5.58223,-0.827055 0.1747,-1.918229 0.15977,-1.162153 0.15977,-1.162152 -0.30686,0.189647 -0.30686,0.189647 -3.96216,-0.0242 -3.96217,-0.0242 -0.002,0.202957 -0.002,0.202957 -0.27107,2.366296 -0.27108,2.366296 0.13265,0.345683 0.13266,0.345683 h 4.07515 4.07516 z m -0.0131,-4.630208 0.12882,-0.463021 0.58035,-4.641162 0.58035,-4.641162 -1.45586,-2.902915 -1.45587,-2.902914 -1.22365,-0.327278 -1.22366,-0.327277 h -0.65766 -0.65766 v 0.123137 0.123138 l -1.05833,8.120882 -1.05834,8.120883 v 0.09036 0.09036 h 3.68634 3.68634 z m 17.83713,-4.894792 -0.005,-0.595312 0.0651,-3.7827 0.0651,-3.782699 -0.13278,-0.132782 -0.13278,-0.132781 -0.69268,0.173851 -0.69268,0.173851 v 3.807776 3.807775 h 0.30868 0.30868 l -0.17482,0.174821 -0.17482,0.174821 0.59375,0.328404 0.59374,0.328404 0.0382,0.02594 0.0381,0.02594 z m 50.33446,-13.758333 0.002,-0.595313 0.17139,-11.824682 0.17139,-11.824682 -0.63667,-0.150983 -0.63668,-0.150982 -25.53229,0.06941 -25.53229,0.06941 -0.0688,12.236979 -0.0688,12.23698 22.29379,0.03587 22.29379,0.03588 3.175,0.182342 3.175,0.182343 0.59531,0.04637 0.59531,0.04637 z m -57.09388,-3.175 0.10539,-1.653646 0.058,-5.688542 0.058,-5.688542 0.26329,-2.859258 0.2633,-2.859258 -0.15426,-0.249596 -0.15426,-0.249596 h -2.20027 -2.20027 l -0.16536,0.826823 -0.16537,0.826823 v 8.292998 8.292998 l 0.37051,-0.142177 0.37051,-0.142178 -0.0398,0.481211 -0.0398,0.48121 0.7276,0.08372 0.72761,0.08372 v 0.262624 0.262624 l -0.33073,-0.190326 -0.33073,-0.190326 0.22049,0.240857 0.22048,0.240856 0.17639,0.0094 0.17639,0.0094 0.56052,0.312044 0.56053,0.312045 0.16708,-0.16708 0.16708,-0.16708 v 0.286632 0.286632 l -0.33073,0.133452 -0.33073,0.133452 0.57181,0.02089 0.57181,0.02089 z m 7.08537,-23.746355 v -2.116666 h -0.79375 -0.79375 v 2.116666 2.116667 h 0.79375 0.79375 z m 10.84791,0 v -2.116666 h -4.89479 -4.89479 v 2.116666 2.116667 h 4.89479 4.89479 z m 2.91042,0 v -2.116666 h -0.92604 -0.92605 v 2.116666 2.116667 h 0.92605 0.92604 z m 9.525,0 v -2.116666 h -4.36563 -4.36562 v 2.116666 2.116667 h 4.36562 4.36563 z m 2.91041,0 v -2.116666 h -0.92604 -0.92604 v 2.116666 2.116667 h 0.92604 0.92604 z m 10.05417,0 v -2.116666 h -4.63021 -4.63021 v 2.116666 2.116667 h 4.63021 4.63021 z m 2.64583,0 v -2.116666 h -0.92604 -0.92604 v 2.116666 2.116667 h 0.92604 0.92604 z m 10.84792,0 v -2.116666 h -4.89479 -4.89479 v 2.116666 2.116667 h 4.89479 4.89479 z m 2.64583,0 v -2.116666 h -0.79375 -0.79375 v 2.116666 2.116667 h 0.79375 0.79375 z m -52.38749,-5.291666 v -2.116667 h -0.79375 -0.79375 v 2.116667 2.116666 h 0.79375 0.79375 z m 10.84791,0 v -2.116667 h -4.89479 -4.89479 v 2.116667 2.116666 h 4.89479 4.89479 z m 2.91042,0 v -2.116667 h -0.92604 -0.92605 v 2.116667 2.116666 h 0.92605 0.92604 z m 9.525,0 v -2.116667 h -4.36563 -4.36562 v 2.116667 2.116666 h 4.36562 4.36563 z m 2.91041,0 v -2.116667 h -0.92604 -0.92604 v 2.116667 2.116666 h 0.92604 0.92604 z m 10.05417,0 v -2.116667 h -4.63021 -4.63021 v 2.116667 2.116666 h 4.63021 4.63021 z m 2.64583,0 v -2.116667 h -0.92604 -0.92604 v 2.116667 2.116666 h 0.92604 0.92604 z m 10.84792,0 v -2.116667 h -4.89479 -4.89479 v 2.116667 2.116666 h 4.89479 4.89479 z m 2.64583,0 v -2.116667 h -0.79375 -0.79375 v 2.116667 2.116666 h 0.79375 0.79375 z"
           id="path196" /><path
           style="fill:#9e9e9e;fill-opacity:1"
           d="m 272.63655,80.510726 v -0.79375 h -0.76135 -0.76136 l -0.31846,-0.383725 -0.31846,-0.383725 -0.29891,-1.745026 -0.29891,-1.745027 -0.93638,2.724064 -0.93638,2.724064 -1.78957,0.07832 -1.78957,0.07832 -0.10642,-0.3429 -0.10642,-0.342901 -0.15131,-2.832745 -0.1513,-2.832745 1.89237,-0.07767 1.89237,-0.07767 1.03233,-3.042708 1.03232,-3.042708 0.26821,-1.852084 0.26821,-1.852083 0.35203,-0.79375 0.35203,-0.79375 0.13512,-0.396875 0.13512,-0.396875 0.0209,1.007802 0.0209,1.007803 -0.23237,-0.143612 -0.23237,-0.143612 -0.15985,0.799279 -0.15986,0.79928 -0.17316,2.463388 -0.17316,2.463387 0.63153,0.169009 0.63153,0.169009 3.63803,0.0036 3.63802,0.0036 0.005,-0.595312 0.005,-0.595313 0.25986,-2.466925 0.25985,-2.466926 0.15384,-0.708074 0.15383,-0.708075 -0.28194,0.396875 -0.28193,0.396875 -0.008,-0.529166 -0.008,-0.529167 0.58041,-4.71498 0.58042,-4.714981 -1.40923,-2.856127 -1.40922,-2.856128 -1.21782,-0.320815 -1.21782,-0.320815 -0.6478,-0.04558 -0.64779,-0.04558 -0.19677,0.79375 -0.19677,0.79375 -0.24515,1.455208 -0.24516,1.455209 -0.0348,-24.681652 -0.0348,-24.6816523 2.71198,0.075402 2.71198,0.075402 0.2273,2.4626261 0.22731,2.4626262 0.0852,-0.085187 0.0852,-0.085187 0.18174,-2.2451472 0.18173,-2.2451471 0.29952,-0.194386 0.29953,-0.194386 1.65364,-0.00405 1.65365,-0.00405 V 34.547511 66.63638 l 0.79375,0.299607 0.79375,0.299607 0.0554,0.618295 0.0554,0.618296 0.16902,-22.225 0.16902,-22.225001 0.32006,-1.186716 0.32006,-1.186716 0.42256,-0.46693 0.42257,-0.466929 h 2.70881 2.70881 l 0.1606,0.418514 0.1606,0.418515 v 3.682527 3.682527 h -0.39688 -0.39687 l -0.006,20.571354 -0.006,20.571355 -0.4857,1.069279 -0.48571,1.069279 -0.88263,0.742685 -0.88263,0.742685 -0.67637,0.266886 -0.67638,0.266886 -1.31121,0.170108 -1.31121,0.170108 -0.15446,0.661459 -0.15446,0.661458 -0.71714,0.08372 -0.71714,0.08372 v 2.628259 2.628259 h -5.15938 -5.15937 z m 7.76267,-9.458854 0.12098,-0.198437 0.19004,-1.785938 0.19004,-1.785937 h -0.52913 -0.52913 l -0.15954,0.595312 -0.15954,0.595313 -0.004,1.389062 -0.004,1.389063 h 0.38126 0.38126 z m 3.23288,-1.322916 0.12703,-0.595313 h 0.65642 0.65642 v -0.269624 -0.269624 l -0.66146,0.166015 -0.66146,0.166016 V 68.088378 67.25033 l -0.23855,0.147432 -0.23855,0.147431 -0.18267,1.573858 -0.18266,1.573857 0.21657,0.344847 0.21657,0.344846 0.0827,-0.529166 0.0827,-0.529167 z m 6.293,-5.88698 0.15435,-2.513541 0.16797,-17.594792 0.16797,-17.594792 0.19115,-1.94478 0.19115,-1.944781 -0.30656,-0.11764 -0.30656,-0.117639 -2.07503,0.07804 -2.07503,0.07804 -0.25296,0.79375 -0.25297,0.79375 0.063,20.042838 0.063,20.042837 0.76278,0.816558 0.76278,0.816557 0.33496,-0.134861 0.33495,-0.134861 -0.46302,-0.02089 -0.46302,-0.02089 v -0.207887 -0.207887 h 0.51027 0.51026 l -0.0124,0.141741 -0.0124,0.141741 0.0354,0.529167 0.0354,0.529167 0.22371,-0.352914 0.22371,-0.352913 0.16724,0.435829 0.16724,0.435829 0.27077,-0.167344 0.27077,-0.167344 -0.17749,-0.287181 -0.17749,-0.287181 0.30547,0.188787 0.30546,0.188786 v 0.425358 0.425357 l 0.10044,-0.110243 0.10044,-0.110243 z m 4.67187,1.322917 V 49.02531 h 24.47395 24.47396 v 0.661458 0.661458 h -13.80243 -13.80243 l 0.11024,0.104773 0.11025,0.104773 3.70416,0.148124 3.70417,0.148124 9.98802,0.01169 9.98802,0.01169 v 6.35 6.35 h -21.29896 -21.29895 v 8.863542 8.863541 h -0.26459 -0.26458 V 79.055518 76.80656 h -0.26458 -0.26459 v 2.248958 2.248958 h -1.55045 -1.55044 l 0.13347,-15.496375 0.13346,-15.496376 -1.03041,0.0844 -1.03042,0.0844 0.10604,15.411979 0.10605,15.411979 h -0.30448 -0.30448 z m 3.09115,-3.224609 -0.13896,-0.347266 -0.0209,0.507118 -0.0209,0.507118 0.15985,-0.159852 0.15986,-0.159853 z m 0.0169,-8.997706 -0.0845,-2.991227 -3.6e-4,5.820834 -3.6e-4,5.820833 0.0849,-2.829607 0.0849,-2.829606 z m 46.04549,28.163461 -0.0902,-0.198438 0.0976,-15.941146 0.0976,-15.941145 h 1.45056 1.45056 l -0.0845,0.595312 -0.0846,0.595313 -1.09883,0.0801 -1.09883,0.08011 0.14734,15.464166 0.14734,15.464165 h -0.42196 -0.42196 z m 3.21562,0 -0.0183,-0.198438 0.0307,-15.742708 0.0307,-15.742708 0.29331,-0.826564 0.29331,-0.826563 -0.17976,-0.468446 -0.17976,-0.468447 -26.45197,0.172418 -26.45196,0.172418 V 46.93217 46.687339 l -0.1606,-0.418515 -0.1606,-0.418514 h 26.61894 26.61893 V 33.298216 20.746123 l -0.26459,-0.163522 -0.26458,-0.163521 v -2.233344 -2.233343 h -4.89479 -4.89479 v 2.248958 2.248958 h -0.52917 -0.52917 v -2.248958 -2.248958 h -0.92604 -0.92604 v 2.248958 2.248958 h -0.39687 -0.39688 v -2.248958 -2.248958 h -4.63021 -4.63021 v 2.248958 2.248958 h -0.39687 -0.39688 v -2.248958 -2.248958 h -0.91574 -0.91574 l -0.0764,2.315104 -0.0765,2.315104 h -0.39688 -0.39687 l -0.0765,-2.315104 -0.0764,-2.315104 h -4.35533 -4.35532 v 2.248958 2.248958 h -0.39688 -0.39687 v -2.248958 -2.248958 h -0.92604 -0.92605 v 2.233343 2.233344 l -0.29416,0.181803 -0.29416,0.181804 -0.23096,-0.364626 -0.23095,-0.364627 -0.004,-2.05052 -0.004,-2.050521 h -4.89479 -4.89479 v 2.248958 2.248958 h -0.52917 -0.52916 v -2.248958 -2.248958 h -0.92605 -0.92604 v 2.233343 2.233344 l -0.19844,0.122541 -0.19843,0.122541 0.0713,12.196199 0.0713,12.196199 21.22761,0.03587 21.2276,0.03588 3.175,0.182342 3.175,0.182343 -24.67424,0.04637 -24.67425,0.04637 0.068,-17.925521 0.068,-17.9255207 h 27.91354 27.91354 l -0.0173,19.8437497 -0.0173,19.843751 -0.0488,15.941145 -0.0488,15.941146 h -0.26458 -0.26458 V 79.055518 76.80656 h -0.52917 -0.52917 v 2.248958 2.248958 h -0.79375 -0.79375 z m 2.39957,-63.03698 v -2.116666 h -0.92604 -0.92604 v 2.116666 2.116667 h 0.92604 0.92604 z m -13.49375,-5.307281 v -2.101052 h -0.92604 -0.92604 v 2.099092 2.099093 l 0.7276,0.09317 0.72761,0.09317 0.19844,-0.09121 0.19843,-0.09121 z m 10.84792,-4.03e-4 v -2.100649 h -4.89479 -4.89479 v 2.105075 2.105076 l 1.91823,0.07774 1.91823,0.07774 2.97656,-0.08216 2.97656,-0.08216 z m -49.74166,0.01602 v -2.116667 h -0.92605 -0.92604 v 2.116667 2.116666 h 0.92604 0.92605 z m 10.84791,0 v -2.116667 h -4.89479 -4.89479 v 2.116667 2.116666 h 4.89479 4.89479 z m 2.91042,0 v -2.116667 h -0.92604 -0.92605 v 2.116667 2.116666 h 0.92605 0.92604 z m 9.525,0 v -2.116667 h -4.36563 -4.36562 v 2.116667 2.116666 h 4.36562 4.36563 z m 2.91041,0 v -2.116667 h -0.92604 -0.92604 v 2.116667 2.116666 h 0.92604 0.92604 z m 10.05417,0 v -2.116667 h -4.63021 -4.63021 v 2.116667 2.116666 h 4.63021 4.63021 z m 16.13958,0 v -2.116667 h -0.92604 -0.92604 v 2.116667 2.116666 h 0.92604 0.92604 z m -83.17298,55.701999 0.40815,-1.197832 h 0.3912 0.39121 l -0.54837,0.697139 -0.54837,0.69714 v 0.345579 0.345579 l -0.25098,0.155113 -0.25098,0.155114 z m 5.18229,-7.283249 v -0.926042 l 0.121,0.463021 0.121,0.463021 -0.121,0.463021 -0.121,0.463021 z m 0.26992,-1.984375 0.005,-1.058333 0.11507,0.598397 0.11506,0.598397 -0.1204,0.459936 -0.12041,0.459936 z m 0.24944,-2.116667 0.01,-0.79375 0.12197,0.468057 0.12197,0.468056 -0.13177,0.325694 -0.13177,0.325693 z m 0.27439,-1.984375 v -0.926041 l 0.121,0.46302 0.121,0.463021 -0.121,0.463021 -0.121,0.463021 z m 0.26992,-1.984375 0.005,-1.058333 0.11507,0.598397 0.11506,0.598398 -0.1204,0.459936 -0.12041,0.459936 z"
           id="path195" /><path
           style="fill:#8c8c8c;fill-opacity:1"
           d="m 272.63655,80.510726 v -0.79375 h -0.61089 -0.61089 l -0.4517,-0.330729 -0.45171,-0.330729 -0.27567,-1.713095 -0.27568,-1.713095 -0.0931,-0.09308 -0.0931,-0.09308 -0.87388,2.666068 -0.87387,2.666069 h -1.92812 -1.92811 v -2.77812 -2.778125 l 0.0662,-0.198438 0.0661,-0.198437 h 1.65428 1.65428 l 1.18181,-3.571875 1.18181,-3.571875 0.28505,-1.83109 0.28506,-1.831089 0.13562,-0.219431 0.13562,-0.219432 h 0.22869 0.22869 l -0.38894,0.779635 -0.38893,0.779636 -0.16035,3.189114 -0.16035,3.189115 1.03258,0.0061 1.03258,0.0061 3.24115,0.163921 3.24115,0.163922 0.004,-0.36848 0.004,-0.36848 0.25506,-3.077592 0.25506,-3.077593 0.27485,-0.722921 0.27486,-0.72292 -0.40181,0.154188 -0.40181,0.154189 v -0.352936 -0.352935 l 0.52917,-3.90773 0.52916,-3.90773 v -0.902974 -0.902975 l -1.27442,-2.69941 -1.27442,-2.699411 -1.51418,-0.463021 -1.51418,-0.463021 h -0.5067 -0.5067 l -0.15354,0.992188 -0.15353,0.992187 -0.22356,1.058334 -0.22355,1.058333 -0.0318,-24.434963 -0.0318,-24.4349635 2.22706,0.093296 2.22706,0.093296 0.12514,0.1322917 0.12515,0.1322917 0.16387,6.4822917 0.16387,6.4822914 0.13469,5.027083 0.13469,5.027084 0.12913,3.042708 0.12913,3.042708 0.15848,2.313441 0.15848,2.313441 0.21196,-0.131 0.21196,-0.131 0.14946,-2.447024 0.14946,-2.447024 0.13001,-2.248959 0.13001,-2.248958 0.18393,-12.094753 0.18392,-12.0947519 1.14552,-0.1717811 1.14552,-0.1717811 0.40012,0.1535423 0.40013,0.1535422 V 34.861797 67.016976 l 0.19844,-0.03133 0.19843,-0.03133 0.23084,0.03133 0.23083,0.03133 -0.29695,0.357807 -0.29695,0.357807 -0.16801,1.607349 -0.168,1.607348 0.20954,0.482241 0.20954,0.48224 0.19172,-0.79375 0.19171,-0.79375 0.0626,1.455208 0.0626,1.455209 -0.0422,0.231023 -0.0422,0.231024 1.5943,-0.115321 1.5943,-0.115321 0.99625,-0.790675 0.99625,-0.790675 0.66146,-1.309403 0.66146,-1.309402 0.16572,-22.886459 0.16573,-22.886458 0.19503,-0.859896 0.19504,-0.859896 h -2.41783 -2.41783 l -0.32418,0.727604 -0.32418,0.727604 0.005,22.820313 0.005,22.820313 h -0.2135 -0.21351 l 0.0758,-23.084896 0.0758,-23.084896 0.52484,-0.867983 0.52485,-0.867983 2.91473,0.07423 2.91474,0.07423 0.0732,3.902604 0.0732,3.902604 h -0.40395 -0.40394 V 49.250405 69.58384 l -0.30113,0.899378 -0.30112,0.899377 -0.64025,0.862339 -0.64024,0.862338 -1.02343,0.522111 -1.02342,0.522112 -1.47479,0.173332 -1.47479,0.173333 v 0.515721 0.515722 l -0.79375,0.299607 -0.79375,0.299607 v 2.587827 2.587826 h -5.15938 -5.15937 z m 7.7623,-8.929687 0.12061,-0.198438 0.19067,-2.050521 0.19067,-2.05052 h -0.53194 -0.53195 l -0.16059,0.418514 -0.1606,0.418515 v 1.830444 1.830443 h 0.38126 0.38126 z M 294.59697,65.20899 V 49.02531 h 1.4552 1.45521 v 16.139583 16.139583 h -0.26458 -0.26458 V 65.826351 50.348226 h -1.06438 -1.06438 l 0.0185,15.377486 0.0185,15.377485 -0.14474,0.144737 -0.14473,0.144737 z m 3.175,-0.0441 V 49.02531 h 22.90485 22.90486 l -0.0845,0.595312 -0.0845,0.595313 -22.55573,0.06763 -22.55573,0.06763 v 0.263097 0.263098 h 22.62188 22.62187 v 6.217708 6.217709 h -21.29896 -21.29895 v 8.995833 8.995833 h -0.26459 -0.26458 v -2.38125 -2.38125 h -0.26458 -0.26459 v 2.38125 2.38125 h -1.05833 -1.05833 z m 46.03749,0.02205 V 49.02531 h 1.45521 1.45521 v 0.513953 0.513954 l -1.12448,0.08136 -1.12448,0.08136 -0.0409,15.469716 -0.0409,15.469717 -0.28981,0.0966 -0.28981,0.0966 z m 3.175,-0.0064 V 49.056539 l 0.26459,-0.163521 0.26458,-0.163522 V 47.81907 46.908643 H 320.92301 294.33238 V 46.379476 45.85031 h 26.45833 26.45834 v -12.700001 -12.7 h -0.26459 -0.26458 v -2.387088 -2.387088 l -4.96094,0.07198 -4.96093,0.07198 -0.0764,2.315104 -0.0765,2.315104 h -0.38657 -0.38658 v -2.38125 -2.38125 h -0.92604 -0.92604 v 2.38125 2.38125 h -0.39687 -0.39688 v -2.38125 -2.38125 h -4.63021 -4.63021 v 2.38125 2.38125 h -0.39687 -0.39688 v -2.38125 -2.38125 h -0.92604 -0.92604 v 2.38125 2.38125 h -0.38657 -0.38658 l -0.0764,-2.315104 -0.0764,-2.315104 -4.43177,-0.07254 -4.43177,-0.07254 v 2.387647 2.387647 h -0.39688 -0.39687 v -2.38125 -2.38125 h -0.91611 -0.91612 l -0.0761,2.425994 -0.0761,2.425994 -0.32055,0.106204 -0.32055,0.106205 -0.0763,-2.466052 -0.0763,-2.466053 h -5.02708 -5.02708 l -0.0767,2.333629 -0.0767,2.333629 -0.32016,-0.106023 -0.32015,-0.106022 -0.0764,-2.293753 -0.0765,-2.293752 h -0.91574 -0.91574 v 2.365635 2.365636 l -0.30622,0.189256 -0.30623,0.189257 0.17231,9.417504 0.1723,9.417504 0.002,2.711979 0.002,2.71198 20.04219,0.03016 20.04218,0.03016 3.43959,0.189618 3.43958,0.189617 -23.74635,0.0448 -23.74636,0.0448 V 27.726351 9.866976 h 27.87639 27.87638 l 0.19575,9.723438 0.19575,9.723437 -0.0924,9.880993 -0.0925,9.880992 -0.19843,0.122644 -0.19844,0.122643 -0.0549,16.057822 -0.0549,16.057823 -0.0873,-2.447396 -0.0873,-2.447396 h -0.51924 -0.51924 v 2.38125 2.38125 h -0.79375 -0.79375 z m 2.4015,-45.457803 0.0202,-0.727604 0.10834,-0.529167 0.10834,-0.529166 -0.16078,-1.138842 -0.16078,-1.138841 -0.8277,0.08051 -0.8277,0.08051 -0.0764,2.315104 -0.0764,2.315104 h 0.93634 0.93634 z m -52.40774,-6.962076 v -2.398014 l -0.8599,0.08291 -0.8599,0.08291 -0.0764,2.315104 -0.0765,2.315105 h 0.93634 0.93635 z m 11.05665,0.08291 -0.0765,-2.315104 h -5.02708 -5.02708 l -0.0786,1.959614 -0.0786,1.959614 0.13642,0.355491 0.13641,0.35549 h 5.04569 5.04569 z m 2.70168,-0.06615 v -2.38125 h -0.92604 -0.92605 v 2.38125 2.38125 h 0.92605 0.92604 z m 9.73374,0.06615 -0.0764,-2.315104 -4.43177,-0.07254 -4.43177,-0.07254 v 2.387647 2.387648 h 4.50822 4.50821 z m 2.70167,-0.06615 v -2.38125 h -0.92604 -0.92604 v 2.38125 2.38125 h 0.92604 0.92604 z m 10.05417,0 v -2.38125 h -4.63021 -4.63021 v 2.38125 2.38125 h 4.63021 4.63021 z m 2.64583,0 v -2.38125 h -0.92604 -0.92604 v 2.38125 2.38125 h 0.92604 0.92604 z m 10.84792,-0.0058 v -2.387089 l -4.96094,0.07198 -4.96093,0.07198 -0.0764,2.315104 -0.0765,2.315105 h 5.03739 5.03738 z m 2.4919,2.226489 0.41852,-0.1606 -0.004,-1.493046 -0.004,-1.493047 -0.15954,-0.595313 -0.15953,-0.595312 h -0.89519 -0.89518 v 2.072569 2.07257 l 0.17639,0.176389 0.17639,0.176389 h 0.46343 0.46343 z m -65.41335,53.01112 0.0829,-0.859896 h 0.26458 0.26459 l 0.0829,0.859896 0.0829,0.859896 h -0.43041 -0.4304 z"
           id="path194" /><path
           style="fill:#7a7a7a;fill-opacity:1"
           d="m 272.63655,80.378435 v -0.926042 h -0.90552 -0.90553 l -0.26368,-0.859896 -0.26368,-0.859896 -0.18322,-1.322916 -0.18322,-1.322917 -0.99461,2.778125 -0.99461,2.778125 -1.71868,0.07743 -1.71867,0.07743 -0.16763,-0.838107 -0.16762,-0.838106 -3e-5,-2.14974 -4e-5,-2.149739 h 1.76116 1.76116 l 1.26075,-3.704167 1.26075,-3.704167 0.0208,2.447396 0.0208,2.447396 1.91823,0.01965 1.91823,0.01965 1.9793,0.107766 1.9793,0.107767 0.3358,0.128859 0.33581,0.12886 0.002,-0.190134 0.002,-0.190133 0.2596,-3.571875 0.25961,-3.571875 0.25561,-0.88374 0.25561,-0.88374 -0.38525,0.147832 -0.38524,0.147832 0.002,-0.190134 0.002,-0.190134 0.52727,-3.931377 0.52727,-3.931377 -0.01,-1.36029 -0.01,-1.360289 -1.24713,-2.363959 -1.24713,-2.363959 -1.45521,-0.472862 -1.45521,-0.472862 -0.58332,-0.0074 -0.58332,-0.0074 -0.15624,0.992188 -0.15623,0.992187 -0.22635,0.79375 -0.22636,0.79375 0.0399,-24.077083 0.0399,-24.0770838 1.96709,0.070905 1.96708,0.070905 0.0494,0.061387 0.0494,0.061387 0.18597,12.4354168 0.18597,12.435417 0.2173,8.284649 0.2173,8.284649 0.15758,0.157585 0.15759,0.157585 1.03787,-2.224526 1.03787,-2.224525 0.15742,-11.1125 0.15743,-11.1125 0.15322,-7.540625 0.15323,-7.5406258 0.0429,-0.028696 0.0429,-0.028696 0.99219,-0.1531067 0.99219,-0.1531066 0.0544,4.547428 0.0544,4.5474281 0.0118,11.641666 0.0118,11.641667 0.0661,16.073438 0.0662,16.073437 h 0.42927 0.42927 l -0.32724,0.394302 -0.32724,0.394301 -0.13688,1.705304 -0.13689,1.705303 0.20357,0.480083 0.20356,0.480082 0.20179,-0.661458 0.20179,-0.661458 0.0264,1.389062 0.0264,1.389063 h 1.36582 1.36581 l 1.14926,-0.673508 1.14925,-0.673509 0.78974,-1.377012 0.78974,-1.377013 0.0114,-20.902083 0.0114,-20.902084 0.23886,-2.646518 0.23886,-2.646519 0.17741,-0.462336 0.17742,-0.462335 h -2.55747 -2.55746 l 0.16352,-0.264584 0.16352,-0.264583 h 2.64584 2.64583 l -0.16165,0.261553 -0.16165,0.261552 0.41062,-0.157568 0.41062,-0.157569 v 3.864766 3.864766 h -0.39064 -0.39064 l -0.0724,20.703646 -0.0724,20.703646 -0.64199,1.120843 -0.64198,1.120842 -1.01877,0.706006 -1.01877,0.706007 -1.64653,0.157526 -1.64654,0.157526 -0.0887,0.626799 -0.0887,0.626798 -0.77122,0.291104 -0.77122,0.291104 v 2.587827 2.587826 h -5.15938 -5.15937 z m 7.76586,-8.535285 0.12416,-0.20091 0.1902,-2.18034 0.19019,-2.18034 h -0.55829 -0.55829 l -0.1199,0.595312 -0.11991,0.595313 -0.1527,0.907892 -0.15271,0.907893 0.16473,0.878045 0.16472,0.878045 h 0.35181 0.35182 z m 14.25752,-6.612111 -0.063,-16.205729 h 1.4552 1.45521 v 16.155198 16.155198 l -0.2848,-0.176017 -0.2848,-0.176017 0.0748,-15.183775 0.0748,-15.183775 -0.28692,-0.286924 -0.28693,-0.286924 -0.75983,0.08683 -0.75984,0.08683 -0.13547,15.610416 -0.13547,15.610417 z m 3.11204,-0.05017 V 49.02531 h 22.88645 22.88646 v 0.242943 0.242944 l -0.1606,0.418515 -0.1606,0.418514 h -22.59356 -22.59357 v 0.264584 0.264583 h 22.62187 22.62188 v 6.217708 6.217709 h -21.16667 -21.16666 v 8.863541 8.863542 h -0.26459 -0.26458 v -2.248958 -2.248959 h -0.25954 -0.25955 l -0.1444,0.595313 -0.1444,0.595312 0.0732,1.719792 0.0732,1.719792 -0.99219,0.08212 -0.99218,0.08212 z m 46.03749,-0.01597 V 49.02531 h 1.47461 1.47461 l -0.0878,0.46302 -0.0878,0.463021 -1.12219,0.08136 -1.1222,0.08136 v 15.595204 15.595203 h -0.26458 -0.26459 z m 3.175,0.01561 v -16.12397 l 0.26459,-0.163521 0.26458,-0.163522 V 47.81907 46.908643 H 320.92301 294.33238 V 46.379476 45.85031 h 26.45833 26.45834 l -0.0311,-12.369271 -0.0311,-12.369271 -0.16736,-2.645834 -0.16736,-2.645833 -5.09323,-0.07186 -5.09323,-0.07186 v 2.386963 2.386963 h -0.26458 -0.26458 l -0.0294,-0.595312 -0.0293,-0.595313 0.0531,-1.785937 0.0531,-1.785938 h -1.08209 -1.08208 v 2.38125 2.38125 h -0.39687 -0.39688 v -2.38125 -2.38125 h -4.63021 -4.63021 v 2.38125 2.38125 h -0.39687 -0.39688 v -2.38125 -2.38125 h -0.92604 -0.92604 l -0.0285,0.330729 -0.0285,0.33073 0.0503,2.050521 0.0503,2.05052 h -0.41867 -0.41867 v -2.38125 -2.38125 h -4.49792 -4.49791 v 2.38125 2.38125 h -0.39688 -0.39687 v -2.38125 -2.38125 h -0.92604 -0.92605 v 2.38125 2.38125 h -0.39687 -0.39688 v -2.38125 -2.38125 h -5.15937 -5.15937 v 2.38125 2.38125 h -0.25429 -0.25428 l -0.0764,-2.315104 -0.0764,-2.315104 -0.98206,-0.08151 -0.98205,-0.08151 -0.0763,2.462764 -0.0763,2.462763 -0.26458,-0.132292 -0.26459,-0.132291 0.0687,-5.159375 0.0687,-5.1593754 27.74291,-0.067355 27.7429,-0.067354 0.19649,9.9892294 0.19649,9.98923 -0.0946,9.616307 -0.0946,9.616307 -0.19843,0.122745 -0.19844,0.122746 -0.0549,16.057822 -0.0549,16.057823 -0.0873,-2.447396 -0.0873,-2.447396 h -0.51924 -0.51924 v 2.38125 2.38125 h -0.79375 -0.79375 z m 2.58999,-47.045303 -0.0765,-2.315104 -0.99218,-0.08212 -0.99219,-0.08212 v 2.397222 2.397221 h 1.06863 1.06864 z m -52.3875,-5.291667 -0.0764,-2.315104 -0.99219,-0.08212 -0.99219,-0.08212 v 2.397222 2.397222 h 1.06864 1.06863 z m 10.90376,-0.07186 v -2.386964 l -5.09322,0.07186 -5.09323,0.07186 -0.0765,2.315104 -0.0765,2.315105 h 5.16968 5.16967 z m 2.64584,-0.01026 v -2.397222 l -0.99219,0.08212 -0.99219,0.08212 -0.0786,1.959614 -0.0786,1.959614 0.13641,0.355491 0.13642,0.35549 h 0.93434 0.93435 z m 9.78958,0.01597 v -2.38125 h -4.49792 -4.49791 v 2.38125 2.38125 h 4.49791 4.49792 z m 2.64583,-0.01597 v -2.397222 l -0.99218,0.08212 -0.99219,0.08212 -0.0786,1.959614 -0.0786,1.959614 0.13642,0.355491 0.13641,0.35549 h 0.93435 0.93434 z m 10.09056,1.272742 0.0364,-1.124479 0.0298,-1.190625 0.0298,-1.190625 -4.69635,-0.07225 -4.69636,-0.07225 v 2.387356 2.387355 h 4.63021 4.63021 z m 2.87403,-1.25677 v -2.38125 h -1.05834 -1.05833 v 2.38125 2.38125 h 1.05833 1.05834 z m 10.84791,0 v -2.38125 h -5.15937 -5.15938 v 2.38125 2.38125 h 5.15938 5.15937 z m 2.51354,0 v -2.248959 l -0.99218,-0.08212 -0.99219,-0.08212 v 2.413194 2.413193 l 0.99219,-0.08212 0.99218,-0.08212 z m -65.74895,55.716431 v -0.375235 l 0.16002,-0.416995 0.16001,-0.416995 0.23686,0.146387 0.23686,0.146387 v 0.645843 0.645844 h -0.39688 -0.39687 z m 1.44921,-21.452889 -4e-5,-21.960417 0.0721,10.894274 0.0721,10.894274 -0.0721,11.066143 -0.072,11.066142 z M 270.29708,65.69406 v -0.661459 l 0.13345,0.330729 0.13345,0.33073 -0.13345,0.330729 -0.13345,0.330729 z m 24.15646,-20.439063 -0.12681,-0.330729 0.0717,-12.038542 0.0717,-12.038542 0.0634,12.104688 0.0634,12.104688 19.51302,0.03587 19.51302,0.03588 3.175,0.182342 3.175,0.182343 -22.69633,0.04637 -22.69632,0.04637 z m -9.09062,-21.519445 0.0264,-0.771701 0.22481,-0.661458 0.2248,-0.661459 -0.15279,1.322917 -0.15279,1.322917 -0.0984,0.110243 -0.0984,0.110243 z"
           id="path193" /><path
           style="fill:#686868;fill-opacity:1"
           d="m 272.81294,81.128088 -0.17639,-0.176389 v -0.749653 -0.749653 h -0.76135 -0.76136 l -0.28297,-0.340958 -0.28297,-0.340958 -0.29302,-1.834232 -0.29302,-1.834233 -0.0706,-0.07056 -0.0706,-0.07056 -0.47565,1.518144 -0.47566,1.518145 -0.5167,1.389062 -0.51671,1.389063 h -1.66393 -1.66393 l -0.16684,-1.389063 -0.16685,-1.389062 -0.002,-1.521354 -0.002,-1.521355 h 1.79302 1.79303 l 1.22715,-3.63802 1.22716,-3.638021 0.0225,2.711979 0.0225,2.711979 2.71198,0.03459 2.71198,0.03459 1.19062,0.03824 1.19063,0.03824 0.303,0.190235 0.30301,0.190235 0.16001,-0.416995 0.16002,-0.416995 0.002,-2.558047 0.002,-2.558048 0.25335,-1.546954 0.25335,-1.546955 0.15982,-0.503566 0.15983,-0.503567 h -0.40809 -0.40809 l 0.12671,-0.727604 0.12671,-0.727604 0.39163,-3.175 0.39163,-3.175 0.14645,-2.116667 0.14646,-2.116667 0.25263,-1.5875 0.25264,-1.5875 0.002,-0.463021 0.002,-0.46302 h -0.75427 -0.75426 l -0.81573,0.284365 -0.81573,0.284365 -1.62638,-0.416657 -1.62637,-0.416657 h -0.50275 -0.50276 l -0.12209,0.595313 -0.12209,0.595312 -0.21368,1.058334 -0.21368,1.058333 -0.0676,-23.797847 -0.0676,-23.7978478 0.20071,-0.2007124 0.20072,-0.2007125 1.50663,0.1554987 1.50664,0.1554987 0.0899,3.602436 0.0898,3.6024359 0.0624,9.7585524 0.0624,9.758553 0.11894,0.19245 0.11894,0.19245 0.0349,6.850039 0.0349,6.850039 0.19935,1.852084 0.19936,1.852083 0.0376,-0.465398 0.0376,-0.465398 1.70905,-3.503352 1.70905,-3.503352 0.13286,-1.058334 0.13285,-1.058333 0.14261,-7.011458 0.1426,-7.011459 0.0409,-8.73125 0.0409,-8.7312497 0.11576,-1.5213542 0.11576,-1.5213542 h 0.63697 0.63698 V 34.746113 66.769001 l 0.37292,0.143104 0.37292,0.143104 -0.24063,0.839033 -0.24063,0.839032 v 1.77207 1.772069 l 0.24456,0.151146 0.24456,0.151146 0.12162,-0.46626 0.12163,-0.46626 0.0307,1.000491 0.0307,1.000491 0.42475,0.162994 0.42476,0.162994 1.34531,-0.310536 1.34532,-0.310536 0.86986,-0.663477 0.86987,-0.663477 0.64069,-1.115514 0.6407,-1.115514 0.13019,-22.754166 0.13018,-22.754167 0.30957,-1.362445 0.30956,-1.362444 0.51295,-0.13414 0.51296,-0.134139 v 3.6877 3.687701 l -0.39688,0.152295 -0.39687,0.152295 v 19.80242 19.802419 l -0.29312,1.366762 -0.29312,1.366762 -0.90372,1.000314 -0.90373,1.000314 -0.89366,0.424072 -0.89367,0.424072 h -1.3315 -1.3315 l -0.0837,0.719184 -0.0837,0.719183 -0.8599,0.245133 -0.85989,0.245133 v 2.607559 2.607558 h -4.8507 -4.85069 z m 7.89484,-11.202708 0.26603,-2.511529 -0.34763,-0.08852 -0.34762,-0.08852 -0.35854,0.137581 -0.35853,0.137581 -0.18279,1.706883 -0.18279,1.706883 0.18416,0.838475 0.18416,0.838475 0.43876,-0.08289 0.43877,-0.08289 z m 63.10168,-4.744872 V 49.02531 h 1.47726 1.47726 l -0.10888,0.330729 -0.10888,0.330729 -1.27924,0.08241 -1.27924,0.08241 0.17623,15.578055 0.17624,15.578056 -0.26537,0.164008 -0.26538,0.164009 z m 3.175,-0.04582 V 49.056539 l 0.26459,-0.163521 0.26458,-0.163522 v -1.072251 -1.072252 l -26.52085,0.09568 -26.52084,0.09568 -0.0892,-0.463021 -0.0892,-0.46302 h 26.45602 26.45602 l 0.10616,-1.91823 0.10617,-1.918229 0.056,-10.628813 0.056,-10.628814 -0.27275,-0.168572 -0.27276,-0.168572 v -2.365636 -2.365635 h -5.15937 -5.15938 v 2.38125 2.38125 h -0.26458 -0.26458 v -2.38125 -2.38125 h -1.05834 -1.05833 v 2.38125 2.38125 h -0.26458 -0.26459 v -2.387218 -2.387219 l -4.82864,0.07212 -4.82865,0.07211 v 2.22475 2.22475 l -0.33073,0.112403 -0.33073,0.112403 v -2.403299 -2.403299 h -1.05833 -1.05833 v 2.38125 2.38125 h -0.26459 -0.26458 v -2.387498 -2.387497 l -4.56406,0.07239 -4.56406,0.07239 v 2.224058 2.224057 l -0.33073,0.113095 -0.33073,0.113096 v -2.403299 -2.403299 h -1.05834 -1.05833 v 2.38125 2.38125 h -0.26458 -0.26459 v -2.38125 -2.38125 h -5.15937 -5.15937 v 2.38125 2.38125 h -0.26459 -0.26458 v -2.38125 -2.38125 h -1.05833 -1.05834 v 2.38125 2.38125 h -0.26458 -0.26458 V 15.158643 9.866976 h 27.74557 27.74558 l 0.19781,10.252604 0.19781,10.252604 -0.096,9.326352 -0.096,9.326352 -0.19843,2.11e-4 -0.19844,2.11e-4 -0.0554,16.205729 -0.0554,16.205729 -0.0867,-2.597202 -0.0867,-2.597202 -0.45323,0.08664 -0.45323,0.08664 -0.076,2.283548 -0.076,2.283547 -0.78386,0.115047 -0.78387,0.115048 z m 2.64584,6.115626 V 70.98573 h -0.26459 -0.26458 V 70.705528 70.42533 l 0.26458,0.163521 0.26459,0.163522 -0.0373,-7.622386 -0.0372,-7.622386 -0.254,1.455209 -0.254,1.455208 -0.11856,6.548437 -0.11855,6.548438 h 0.40981 0.40981 z m 0,-53.181251 v -2.38125 h -1.05834 -1.05833 v 2.38125 2.38125 h 1.05833 1.05834 z m -52.3875,-5.291666 v -2.38125 h -1.05833 -1.05834 v 2.38125 2.38125 h 1.05834 1.05833 z m 10.84791,0 v -2.38125 h -5.15937 -5.15937 v 2.38125 2.38125 h 5.15937 5.15937 z m 2.73328,0.230206 0.16588,-2.151043 -0.14228,-0.230207 -0.14227,-0.230206 h -1.04272 -1.04272 v 2.38125 2.38125 h 1.01912 1.01912 z m 9.70214,-0.236454 v -2.387498 l -4.56406,0.07239 -4.56406,0.07239 -0.0484,2.315104 -0.0484,2.315105 h 4.61248 4.61248 z m 2.73328,0.236454 0.16588,-2.151043 -0.14228,-0.230207 -0.14228,-0.230206 h -1.04271 -1.04272 v 2.38125 2.38125 h 1.01912 1.01911 z m 10.2313,-0.236175 v -2.387219 l -4.82864,0.07212 -4.82865,0.07211 -0.0484,2.315104 -0.0484,2.315105 h 4.87706 4.87706 z m 2.64584,0.006 v -2.38125 h -1.05834 -1.05833 v 2.38125 2.38125 h 1.05833 1.05834 z m 10.84791,0 v -2.38125 h -5.15937 -5.15938 v 2.38125 2.38125 h 5.15938 5.15937 z m 2.64584,0 v -2.38125 h -1.05834 -1.05833 v 2.38125 2.38125 h 1.05833 1.05834 z m -54.91805,61.515625 2.7e-4,-6.879167 0.0823,3.521347 0.0823,3.521347 -0.0826,3.35782 -0.0826,3.35782 z m 2.46653,-8.665104 -0.0683,-15.411979 h -1.2572 -1.2572 l 4.3e-4,-0.595313 4.3e-4,-0.595312 h 1.4552 1.45521 v 16.007291 16.007292 h -0.13016 -0.13016 z m 0.59319,0.330729 v -15.08125 h 22.75416 22.75417 v 6.216134 6.216134 l -21.23281,0.06772 -21.23282,0.06772 -0.0706,6.654786 -0.0706,6.654785 -0.52467,-0.137207 -0.52468,-0.137206 v 2.279817 2.279817 h -0.92604 -0.92604 z m -14.02292,2.535181 v -0.375235 l 0.16002,-0.416995 0.16001,-0.416995 0.23686,0.146387 0.23686,0.146387 v 0.645843 0.645844 h -0.39688 -0.39687 z m 1.44907,-20.923723 -4e-5,-21.43125 0.0722,10.629743 0.0722,10.629744 -0.0722,10.801507 -0.0722,10.801506 z m 12.57385,2.070307 V 49.02531 h 22.88645 22.88646 v 0.405178 0.405179 l -0.33073,0.106134 -0.33073,0.106134 -22.55573,0.103785 -22.55572,0.103786 z m -3.2632,-4.231071 -0.17639,-0.176389 v -0.236101 -0.236101 l 0.23101,0.142771 0.23101,0.142771 18.88514,0.05019 18.88513,0.05019 -1.5875,0.190814 -1.5875,0.190814 -17.35225,0.02872 -17.35226,0.02872 z m -0.0699,-20.461111 v -4.101042 l 0.0902,2.050521 0.0902,2.050521 -0.0902,2.050521 -0.0902,2.050521 z"
           id="path192" /><path
           style="fill:#575757;fill-opacity:1"
           d="m 272.85175,80.444581 -0.0829,-0.859896 -0.88106,-0.08449 -0.88106,-0.08449 -0.37571,-0.899202 -0.37571,-0.899201 -0.004,-1.000686 -0.004,-1.000685 -0.20666,-0.325317 -0.20666,-0.325317 -1.01189,2.905004 -1.0119,2.905005 h -1.68781 -1.68781 v -0.886122 -0.886122 l -0.17112,-2.024295 -0.17111,-2.024295 h 0.72835 0.72835 l 1.03026,0.815983 1.03027,0.815983 0.0186,0.440788 0.0186,0.440788 0.37479,-1.022231 0.37478,-1.022231 0.66109,-3.078811 0.66109,-3.07881 0.20225,-0.661459 0.20226,-0.661458 0.13229,2.910417 0.13229,2.910416 4.0749,0.132292 4.0749,0.132292 0.20598,0.529166 0.20599,0.529167 0.0272,-3.307292 0.0272,-3.307291 0.23553,-1.719792 0.23553,-1.719792 0.19464,-0.904302 0.19465,-0.904303 -0.39446,0.151367 -0.39445,0.151367 0.35616,-2.554356 0.35616,-2.554356 0.4099,-4.101042 0.4099,-4.101041 0.15235,-1.521355 0.15236,-1.521354 h -0.58331 -0.58331 l -0.44563,0.227317 -0.44562,0.227316 -0.8599,0.162944 -0.85989,0.162944 V 47.182094 46.41044 l 1.62388,-3.256628 1.62388,-3.256628 0.60092,-1.595503 0.60092,-1.595503 0.14101,-4.22533 0.14101,-4.22533 0.0154,-12.766146 0.0154,-12.7661461 h 0.39687 0.39688 V 34.870101 67.016976 h 0.37292 0.37293 l -0.31552,1.256771 -0.31551,1.256771 0.0984,1.653646 0.0984,1.653646 h 0.37337 0.37338 v 0.529166 0.529167 l 0.85989,-0.0015 0.8599,-0.0015 1.01091,-0.280715 1.01092,-0.280715 1.05673,-0.954697 1.05674,-0.954696 0.44589,-0.813634 0.44589,-0.813634 0.14608,-23.680208 0.14608,-23.680209 0.0524,-0.04725 0.0524,-0.04725 0.41577,-0.415773 0.41578,-0.415774 h 0.24568 0.24569 v 3.596645 3.596645 l -0.52453,0.137165 -0.52452,0.137166 -0.0708,20.980269 -0.0708,20.980269 -0.80909,1.016649 -0.80908,1.01665 -1.16521,0.595313 -1.1652,0.595312 h -1.23378 -1.23379 l -0.15404,0.770242 -0.15405,0.770242 -0.80507,0.176823 -0.80506,0.176822 v 2.624811 2.62481 h -4.87803 -4.87803 z m 7.84675,-9.921875 0.17196,-2.315105 0.0502,-0.529166 0.0502,-0.529167 -0.56163,-0.08014 -0.56164,-0.08013 -0.1851,0.47701 -0.1851,0.47701 -0.14911,1.756992 -0.1491,1.756993 0.17328,0.690403 0.17328,0.690404 h 0.50037 0.50038 z m 16.65201,6.283854 v -4.365625 l 0.0891,2.182812 0.0891,2.182813 -0.0891,2.182812 -0.0891,2.182813 z m 0.78659,-10.847917 -0.0199,-15.213542 0.32999,6.217709 0.32999,6.217708 0.0265,0.06615 0.0266,0.06615 h 0.92604 0.92604 l -0.0566,6.680729 -0.0566,6.680729 -0.0844,-2.976562 -0.0844,-2.976563 h -1.04408 -1.04407 l -0.0777,5.225521 -0.0777,5.225521 z m 45.73637,-0.859896 -0.064,-16.073437 h 1.47726 1.47726 l -0.10888,0.330729 -0.10888,0.330729 -1.23399,0.08056 -1.234,0.08056 -0.0704,15.662152 -0.0704,15.662151 z m 3.11099,-0.06615 V 49.02531 h 0.26459 0.26458 v -1.35349 -1.353489 l -26.50235,0.09672 -26.50235,0.09672 -0.11032,-0.330729 -0.11033,-0.330729 h 26.44953 26.44952 l 0.15954,-0.595313 0.15953,-0.595312 0.004,-12.104688 0.004,-12.104688 h -0.26458 -0.26459 v -2.38125 -2.38125 h -5.15937 -5.15938 v 2.38125 2.38125 h -0.26458 -0.26458 v -2.38125 -2.38125 h -1.05834 -1.05833 v 2.38125 2.38125 h -0.26458 -0.26459 v -2.38125 -2.38125 h -4.89479 -4.89479 l -0.0186,2.447396 -0.0186,2.447396 -0.21393,-0.529167 -0.21393,-0.529166 0.13842,-1.918229 0.13843,-1.91823 h -1.22882 -1.22881 v 2.38125 2.38125 h -0.26459 -0.26458 v -2.38125 -2.38125 h -4.63021 -4.63021 l -0.0186,2.447396 -0.0186,2.447396 -0.21393,-0.529167 -0.21393,-0.529166 0.13842,-1.918229 0.13843,-1.91823 h -1.22881 -1.22882 v 2.38125 2.38125 h -0.26458 -0.26459 v -2.38125 -2.38125 h -5.15937 -5.15937 v 2.38125 2.38125 h -0.26459 -0.26458 v -2.38125 -2.38125 h -1.05833 -1.05834 v 2.38125 2.38125 h -0.26458 -0.26458 V 15.158643 9.866976 h 6.69395 6.69396 l 0.3175,0.3175 0.3175,0.3175 v -0.29873 -0.2987303 l 1.78594,0.1009303 1.78594,0.100931 10.69203,0.01413 10.69204,0.01413 -0.12994,0.129935 -0.12993,0.129934 -12.34804,0.01219 -12.34804,0.01219 v 2.369875 2.369875 l 0.33073,0.03412 0.33073,0.03412 0.7559,0.04472 0.75591,0.04472 0.19323,-0.522347 0.19323,-0.522348 0.15057,0.575803 0.15058,0.575802 h 4.52268 4.52269 l 0.003,-1.256771 0.003,-1.256771 0.19553,-1.058333 0.19553,-1.058333 0.13229,2.248958 0.13229,2.248958 h 6.08263 6.08262 l 0.14626,-0.79375 0.14626,-0.79375 0.18159,0.864613 0.18159,0.864613 6.41348,-0.07086 6.41347,-0.07086 0.31874,-1.058333 0.31873,-1.058333 0.0203,1.0074 0.0203,1.007401 1.12448,-0.08136 1.12448,-0.08136 0.0854,-1.190625 0.0854,-1.190625 -0.17154,-1.149533 -0.17153,-1.149533 -1.17066,0.09311 -1.17065,0.09311 V 10.199612 9.866976 h 1.42411 1.42411 l 0.19419,10.914063 0.19419,10.914062 -0.16865,7.805208 -0.16865,7.805209 -0.0956,0.79375 -0.0956,0.79375 -0.0936,16.139583 -0.0937,16.139584 -0.13597,-13.361459 -0.13597,-13.361458 -0.22084,2.048755 -0.22085,2.048756 -0.25875,0.159916 -0.25875,0.159916 0.0483,7.316328 0.0483,7.316329 -0.20119,3.770313 -0.2012,3.770312 h -0.62432 -0.62433 z m 2.64584,-46.963542 v -2.38125 h -1.05834 -1.05833 v 2.38125 2.38125 h 1.05833 1.05834 z m -52.3875,-5.291666 v -2.38125 h -1.04272 -1.04272 l -0.14227,0.230206 -0.14228,0.230207 0.16588,2.151043 0.16587,2.151044 h 1.01912 1.01912 z m 10.84791,1.227553 v -1.153697 l 0.16826,-1.227553 0.16825,-1.227553 h -5.32763 -5.32762 v 2.38125 2.38125 h 5.15937 5.15937 z m -24.18099,54.645446 -0.13515,-0.218667 0.14961,-0.572107 0.14961,-0.572107 0.23451,0.144931 0.2345,0.144931 v 0.645843 0.645844 h -0.24897 -0.24897 z m 1.28802,-20.021957 4e-5,-20.108334 0.0725,10.139905 0.0725,10.139906 -0.0726,9.968428 -0.0726,9.968428 z m 11.78048,1.427417 v -0.292374 l -1.05834,0.100929 -1.05833,0.100928 V 49.495322 49.02531 h 1.32292 1.32291 v 0.661458 0.661458 h -0.26458 -0.26458 z m 1.05829,-0.568999 4e-5,-0.464499 22.68802,0.06762 22.68802,0.06762 v 0.264584 0.264583 l -22.68806,0.132292 -22.68805,0.132291 z M 272.94087,26.204997 272.90113,2.7232259 h 1.19063 1.19062 l 0.0287,0.4630208 0.0287,0.4630209 0.0713,2.9104167 0.0713,2.9104167 0.18409,18.935558 0.18409,18.935559 -1.2763,-0.01785 -1.27629,-0.01785 -0.1587,1.190625 -0.1587,1.190625 z m 23.83891,18.919146 2.3151,-0.08818 2.31511,0.08818 2.3151,0.08819 h -4.63021 -4.63021 z m 17.34277,-5e-5 2.19537,-0.08934 2.03796,0.08995 2.03796,0.08995 -4.23333,-6.09e-4 -4.23334,-6.09e-4 z m 15.86243,0.02182 0.33073,-0.133452 0.33073,0.133452 0.33073,0.133453 h -0.66146 -0.66145 z M 294.43602,25.212809 v -3.571875 l 0.0926,1.785938 0.0926,1.785937 -0.0926,1.785938 -0.0926,1.785937 z m 41.8883,-11.310937 -0.14563,-1.256771 0.24351,-0.251354 0.24351,-0.251354 v 1.508125 1.508125 h -0.0979 -0.0979 z m -25.41562,-0.719131 -0.14904,-0.388402 0.25303,-0.15638 0.25302,-0.15638 v 0.544782 0.544782 h -0.10398 -0.10398 z m 12.26326,-0.273057 v -0.396875 h 0.26459 0.26458 v 0.396875 0.396875 h -0.26458 -0.26459 z m 11.90625,-2.536561 -1.4552,-0.155311 6.61458,0.0087 6.61458,0.0087 -1.71979,0.07795 -1.71979,0.07795 -3.43958,0.06866 -3.43959,0.06866 z"
           id="path191" /><path
           style="fill:#454545;fill-opacity:1"
           d="m 272.90113,80.378435 v -0.926042 h -0.91673 -0.91673 l -0.27749,-0.518498 -0.2775,-0.518498 -0.14577,-1.267439 -0.14577,-1.26744 -0.14111,-0.661458 -0.14111,-0.661459 -0.90661,2.38125 -0.90662,2.38125 0.15261,-0.661458 0.15261,-0.661458 0.49211,-2.38125 0.49211,-2.38125 0.20028,-1.852084 0.20028,-1.852083 0.20456,1.058333 0.20455,1.058334 0.0152,1.102839 0.0152,1.10284 0.1606,0.418514 0.1606,0.418515 h 3.94897 3.94896 l 0.23929,0.595313 0.23929,0.595312 0.0653,-3.439583 0.0653,-3.439584 0.14992,2.116667 0.14991,2.116667 h 0.52555 0.52554 l 0.0521,-0.396875 0.0522,-0.396875 0.1619,-0.992188 0.1619,-0.992187 h 0.88575 0.88574 l 0.1606,0.418514 0.1606,0.418515 v 0.863395 0.863395 l 0.52183,0.47225 0.52183,0.472249 1.3023,-0.125134 1.30229,-0.125134 1.22451,-0.717609 1.2245,-0.717608 0.72168,-1.090235 0.72168,-1.090235 0.14604,-23.435244 0.14604,-23.435245 0.29424,-0.79375 0.29424,-0.79375 0.0227,3.241146 0.0227,3.241146 h 0.39687 0.39688 v 0.246754 0.246753 l -0.52917,0.167951 -0.52917,0.167951 -0.006,20.553525 -0.006,20.553525 -0.48845,1.058333 -0.48845,1.058333 -0.63383,0.582685 -0.63383,0.582684 -0.98008,0.409503 -0.98007,0.409503 h -1.16606 -1.16605 l -0.15404,0.770242 -0.15405,0.770242 -0.80507,0.176823 -0.80506,0.176822 v 2.624811 2.62481 h -4.8948 -4.89479 z m 71.02964,-10.583334 1.1e-4,-11.377083 0.0768,5.772587 0.0768,5.772586 -0.0769,5.604497 -0.0769,5.604497 z m 3.10755,-4.696354 -0.0539,-16.073437 h 0.26459 0.26458 v -1.327749 -1.327748 l -19.64531,0.0097 -19.64531,0.0097 -6.94532,-0.0049 -6.94531,-0.0049 v -0.26452 -0.264583 h 26.58089 26.58088 l 0.0144,-12.700001 0.0144,-12.7 h -0.26926 -0.26926 l 0.0168,-0.595312 0.0168,-0.595313 0.24496,0.610665 0.24497,0.610665 1.12732,-0.0815 1.12733,-0.0815 0.17431,-1.058334 0.17431,-1.058333 -0.14073,31.353125 -0.14073,31.353125 -0.0997,0.110243 -0.0997,0.110244 -0.0332,-13.603994 -0.0333,-13.603993 -0.40057,2.38125 -0.40057,2.38125 -0.10208,9.061979 -0.10207,9.06198 h -0.64403 -0.64403 l -0.0891,2.182812 -0.0891,2.182813 z M 264.43447,78.51179 v -2.26352 l 1.51217,1.082843 1.51217,1.082844 0.29569,0.717655 0.2957,0.717656 -0.11894,0.463021 -0.11893,0.463021 h -1.68893 -1.68893 z m 35.98333,-5.012522 v -2.778125 h -1.19063 -1.19062 l 0.0478,-8.532813 0.0478,-8.532812 0.18098,4.233333 0.18098,4.233334 0.0358,0.595312 0.0358,0.595313 h 1.05833 1.05833 v 6.482291 6.482292 h -0.13229 -0.13229 z m -19.31458,-5.688542 v -0.79375 h -0.66999 -0.66998 l -0.23929,0.595313 -0.23929,0.595312 -0.005,-0.926041 -0.005,-0.926042 0.21991,-1.058333 0.21991,-1.058334 0.19375,-0.463021 0.19375,-0.46302 h -0.46115 -0.46114 l 0.17621,-1.256771 0.17621,-1.256771 0.38606,-3.571875 0.38607,-3.571875 0.28493,-2.645833 0.28494,-2.645834 0.15132,-0.626587 0.15133,-0.626587 -1.02872,0.148582 -1.02872,0.148582 -0.85989,0.177306 -0.8599,0.177306 v -0.815867 -0.815867 l 0.76957,-1.529267 0.76956,-1.529268 1.67783,-3.704166 1.67783,-3.704167 0.0678,-13.361458 0.0678,-13.3614587 0.0734,-3.175 0.0734,-3.1750001 0.0572,32.2130208 0.0572,32.213021 h 0.37389 0.37389 l -0.29961,0.79375 -0.2996,0.79375 h -0.86804 -0.86803 z m 2.91446,0.06615 0.004,-0.727604 0.25648,0.396875 0.25648,0.396875 0.004,0.330729 0.004,0.330729 h -0.26458 -0.26459 z M 296.97822,50.083643 V 49.81906 h -1.05834 -1.05833 V 49.422185 49.02531 h 1.32292 1.32291 v 0.661458 0.661458 h -0.26458 -0.26458 z m 1.05833,-0.661458 v -0.399831 l 22.68802,0.06762 22.68802,0.06762 v 0.264584 0.264583 l -22.68802,0.06762 -22.68802,0.06762 z m 45.77255,-0.06615 3.6e-4,-0.330729 h 1.3073 1.30731 l 0.14837,0.240069 0.14837,0.240069 -1.45603,0.09066 -1.45604,0.09066 z m -70.86174,-23.28333 -0.0462,-23.3494791 h 0.76545 0.76544 l 0.12674,0.3307292 0.12674,0.3307291 0.0337,15.3458338 0.0337,15.345833 0.171,6.548438 0.17099,6.548437 h -0.94941 -0.94941 l -0.10128,1.124479 -0.10128,1.12448 z m 21.70452,-8.189617 -0.0549,-2.699514 1.32291,0.15668 1.32292,0.15668 v -2.536569 -2.536568 l -1.38906,-0.09718 -1.38907,-0.09718 6.4823,0.01085 6.48229,0.01085 -4.80663,0.07838 -4.80662,0.07838 -0.18157,1.937676 -0.18158,1.937677 0.0966,0.503835 0.0965,0.503836 4.0979,0.142799 4.0979,0.142798 -4.0349,0.05564 -4.03489,0.05564 -0.0208,0.595313 -0.0208,0.595312 0.0391,1.653646 0.0391,1.653646 h -0.28281 -0.28282 v -2.248958 -2.248959 h -1.1807 -1.18069 l -0.0873,2.447396 -0.0873,2.447396 z m 13.79024,0.84743 0.002,-1.852084 0.10414,0.998089 0.10414,0.998089 -0.10627,0.853995 -0.10628,0.853994 z m 12.29345,0.463021 0.081,-1.256771 0.0887,-0.396875 0.0887,-0.396875 0.0307,1.653646 0.0307,1.653645 h -0.20035 -0.20034 z m 12.81653,0.46302 v -0.926041 l 0.121,0.463021 0.121,0.46302 -0.121,0.463021 -0.121,0.463021 z m -22.48958,-0.264583 v -0.926042 l 0.121,0.463021 0.121,0.463021 -0.121,0.463021 -0.121,0.463021 z m 12.28126,0.203001 -0.15448,-0.59075 0.25591,-0.255917 0.25592,-0.255917 v 0.846666 0.846667 h -0.10143 -0.10144 z m 12.79277,-0.319678 v -0.677073 h 0.26458 0.26458 v 0.513552 0.513552 l -0.26458,0.163521 -0.26458,0.163522 z m 13.49375,-3.175 v -0.41249 h -1.19063 -1.19062 v -0.264583 -0.264583 h 1.4552 1.45521 v 0.513551 0.513552 l -0.26458,0.163522 -0.26458,0.163521 z m -41.67188,-0.677073 0.16352,-0.264583 h 0.11668 0.11668 v 0.264583 0.264583 h -0.2802 -0.2802 z m 2.9931,0.08384 0.34727,-0.138965 0.15985,0.159853 0.15985,0.159852 -0.50712,-0.02089 -0.50711,-0.02089 z m 0.0705,-2.619433 0.0209,-0.507118 0.13896,0.347265 0.13897,0.347266 -0.15986,0.159852 -0.15985,0.159853 z m 12.43542,0 0.0209,-0.507118 0.13897,0.347265 0.13896,0.347266 -0.15985,0.159852 -0.15985,0.159853 z m 12.67911,0.02205 v -0.396875 h 0.26458 0.26458 v 0.396875 0.396875 h -0.26458 -0.26458 z m 13.49375,-2.116666 v -0.396875 h -1.19063 -1.19062 V 10.131559 9.866976 h 1.4552 1.45521 v 0.661458 0.661459 h -0.26458 -0.26458 z m -38.67878,-0.577616 0.34727,-0.138964 0.15985,0.159852 0.15985,0.159853 -0.50712,-0.02089 -0.50711,-0.02089 z"
           id="path190" /><path
           style="fill:#333333;fill-opacity:1"
           d="m 272.90113,80.406438 v -0.954045 h -0.91673 -0.91673 l -0.29042,-0.542648 -0.29042,-0.542649 -0.15414,-1.838602 -0.15414,-1.838601 h -0.20416 -0.20416 l -0.15674,0.330729 -0.15674,0.330729 0.13178,-1.058333 0.13178,-1.058333 0.007,-0.79375 0.007,-0.79375 0.25648,0.396875 0.25648,0.396875 0.008,1.058333 0.008,1.058333 0.20544,0.323341 0.20543,0.32334 3.94058,0.07353 3.94058,0.07353 0.49009,1.455209 0.49009,1.455208 0.12857,0.368599 0.12858,0.368598 0.11315,-0.113158 0.11316,-0.113158 -0.35411,-2.372107 -0.35412,-2.372107 0.11805,-0.198438 0.11806,-0.198437 h 0.51355 0.51355 l 0.004,-0.859896 0.004,-0.859896 0.22213,-0.350357 0.22214,-0.350357 0.89829,0.08577 0.8983,0.08577 0.0878,0.92498 0.0878,0.924979 0.27537,0.331792 0.27536,0.331791 h 1.33928 1.33927 l 1.13024,-0.54714 1.13024,-0.547141 0.81038,-0.92297 0.81038,-0.922971 0.31446,-1.175723 0.31446,-1.175722 h 0.24352 0.24352 l -0.17785,1.112262 -0.17786,1.112261 -0.55001,0.889925 -0.55,0.889925 -1.00811,0.667138 -1.00812,0.667138 -1.59191,0.14435 -1.59192,0.14435 -0.1599,0.728006 -0.1599,0.728006 -0.77935,0.155872 -0.77936,0.155872 -2.4e-4,2.586302 -2.3e-4,2.586302 -4.89456,0.09415 -4.89456,0.09415 z m 74.13263,-15.159784 -0.0493,-15.925531 0.26459,-0.163522 0.26458,-0.163521 V 47.686778 46.379476 H 320.92301 294.33238 V 46.114893 45.85031 h 26.58806 26.58806 l 0.0687,-12.633855 0.0687,-12.633854 1.25677,-0.08064 1.25677,-0.08064 -0.0223,12.516059 -0.0223,12.51606 -0.18998,1.520711 -0.18998,1.520712 0.14616,0.19908 0.14616,0.19908 -0.13584,13.890625 -0.13583,13.890625 -0.0985,-11.641667 -0.0985,-11.641666 -0.39794,2.513541 -0.39795,2.513542 -0.10198,9.044453 -0.10199,9.044454 -0.58863,0.08367 -0.58862,0.08367 -0.14915,2.248958 -0.14914,2.248959 z M 264.43447,79.56907 v -1.20624 l 0.33073,0.192272 0.33072,0.192273 1.12873,0.797288 1.12873,0.797289 -0.33498,0.212627 -0.33498,0.212628 -1.12447,0.0041 -1.12448,0.0041 z m 34.85885,-9.042406 -1.25677,-0.0991 V 66.870188 63.31281 h 1.32292 1.32291 v 3.704166 3.704167 l -0.0661,-0.04769 -0.0661,-0.04769 z m -15.26109,-2.649792 0.0186,-0.727604 0.22739,0.529167 0.22739,0.529166 0.0186,0.198438 0.0186,0.198437 h -0.26458 -0.26459 z m -3.07154,-0.671522 -0.27481,-0.320665 -0.34228,-2.123063 -0.34228,-2.123062 0.15434,-4.642651 0.15434,-4.642652 0.39661,-3.007047 0.39661,-3.007048 v -0.08297 -0.08297 h -0.95844 -0.95844 l 0.26931,-0.330729 0.26931,-0.330729 0.0356,-2.586369 0.0356,-2.586368 0.52023,-0.853215 0.52022,-0.853215 9.9e-4,-0.312269 9.9e-4,-0.312269 0.76729,-1.672106 0.7673,-1.672106 0.12805,-0.529167 0.12806,-0.529166 0.0307,16.205729 0.0307,16.205729 h 0.41249 0.41249 l -0.16353,0.264584 -0.16352,0.264583 -0.97657,-0.01006 -0.97657,-0.01006 z m 16.11321,-17.253999 -0.1523,-0.396875 h -1.03003 -1.03002 V 49.289893 49.02531 h 1.32292 1.32291 v 0.661458 0.661458 h -0.14059 -0.1406 z m 0.96265,-0.529166 V 49.02531 h 22.62187 22.62188 v 0.396875 0.396875 h -22.62188 -22.62187 z m 45.9052,-0.132292 0.16353,-0.264583 h 1.17501 1.17501 v 0.264583 0.264583 h -1.33854 -1.33853 z M 272.94561,25.940414 272.90113,2.7232259 h 0.52917 0.52917 l 5e-4,4.0348959 5.1e-4,4.0348962 0.17499,18.071285 0.17499,18.071285 -0.55802,0.145924 -0.55801,0.145923 -0.10217,0.965083 -0.10217,0.965083 z m 18.21177,2.447395 v -0.264583 l 0.19844,0.0041 0.19844,0.0041 0.39687,0.25648 0.39688,0.256481 -0.59532,0.0041 -0.59531,0.0041 z m 6.08542,-9.260416 v -0.635 l 0.3175,0.3175 0.3175,0.3175 -0.3175,0.3175 -0.3175,0.3175 z m 38.89375,0 v -0.264584 h 0.26458 0.26458 v 0.264584 0.264583 h -0.26458 -0.26458 z m -38.85198,-2.910417 v -0.661458 l 0.13346,0.330729 0.13345,0.330729 -0.13345,0.330729 -0.13346,0.330729 z m 51.22125,-0.459063 -1.25677,-0.0991 V 15.408726 15.15864 h 1.4552 1.45521 v 0.396875 0.396875 l -0.19843,-0.04769 -0.19844,-0.04769 z m -51.18374,-4.038854 v -1.455208 l 0.11023,0.727604 0.11022,0.727604 -0.11022,0.727604 -0.11023,0.727605 z m 52.30822,-1.058333 v -0.264583 h -1.05834 -1.05833 V 10.131559 9.866976 h 1.32292 1.32291 v 0.529167 0.529166 h -0.26458 -0.26458 z"
           id="path189" /></g><path
         id="shape"
         style="opacity:0.616314;fill:none;fill-opacity:1;stroke:#000000;stroke-linejoin:bevel"
         d="m 282.1548,2.3996368 -0.39274,0.058911 h -3.96617 -3.86798 l -1.29191,-0.05426 5.2e-4,0.4790406 -0.002,0.00155 0.002,0.5426025 V 26.684459 50.909854 l -0.16847,1.284676 -0.0243,-0.126607 -0.002,0.324011 -0.0191,0.147278 -0.11988,0.914673 -0.10904,0.828373 -0.0253,-0.09767 v 0.291971 l -0.0439,0.336931 -0.2036,1.551843 -0.0171,-0.06408 -0.003,0.213424 v 5.17e-4 l -0.0563,0.428914 -0.17363,1.322917 -0.0217,-0.113688 -0.002,0.291455 -0.25063,1.912544 -0.0227,-0.08733 v 0.260966 l -0.32091,2.447396 -0.37931,0.730705 -0.3793,0.731221 -0.17725,1.288294 -0.17725,1.288293 h -1.66244 -1.66243 l -1.36219,3.902604 -1.32446,3.793051 -0.0176,5.16e-4 0.002,0.04341 -0.0227,0.06563 0.18035,3.119706 0.0982,1.698604 v 1.134815 h 0.0656 l 0.0165,0.286287 0.17208,-0.0072 0.003,0.0098 1.78956,-0.07803 1.78955,-0.07855 0.91984,-2.607076 0.91932,-2.607076 0.28836,1.595252 0.28887,1.595251 0.0543,0.06511 v 5.17e-4 l 0.0217,0.02636 0.0129,0.07958 0.1354,0.09922 0.13797,0.166398 0.0403,0.131258 h 0.0687 l 0.21962,0.264583 h 0.30128 0.46043 0.15038 0.61082 v 0.485242 0.176217 0.132291 l -5.2e-4,0.176217 -0.001,0.617533 h 5.1e-4 5.2e-4 v 0.275952 l 5.09323,-0.07183 5.09323,-0.07183 0.004,-0.132292 h 0.12815 0.002 v -2.628263 -2.031917 l 0.0145,-0.521416 0.29198,-0.11007 h 0.37723 0.66611 l 0.0444,-0.127641 0.0398,-0.0047 0.0749,-0.321944 0.032,-0.01189 v -5.17e-4 l 0.0444,-0.01654 v -0.19327 l 0.0408,-0.117305 0.23616,-0.676962 0.91313,-0.118339 0.7953,-0.0016 0.68626,-0.190686 h 10e-4 l 0.10749,-0.01395 0.13539,-0.05374 0.002,-5.17e-4 0.0672,-0.0186 0.99942,-0.277503 0.66301,-0.58136 0.34933,-0.178283 0.27492,-0.370004 0.31884,-0.280086 0.30748,-0.258899 0.35657,-0.785482 0.0227,-0.03049 0.0248,-0.0739 0.0816,-0.179834 0.004,-0.0083 0.0667,-0.146245 0.03,-0.03772 v -0.02842 l 0.38551,-0.848527 v -0.447002 l 0.01,-0.02894 v -0.990638 l 0.003,-0.01447 V 48.776134 31.726529 l 0.01,-2.756421 0.13798,-0.05323 h 1.30018 1.35289 l -0.062,16.933334 h -0.1509 l 0.14986,0.39119 -0.0181,4.900476 -0.0429,11.742436 v 0.05116 l -0.11937,18.368904 h 0.0522 0.56378 v 0.08837 l 0.0884,-0.08837 h 0.0372 l 5.2e-4,0.132292 0.001,-0.132292 h 2.73213 l 0.0512,0.03152 v -0.03152 h 0.26458 v 0.03204 l 0.38706,-0.03204 h 2.78794 V 72.44084 72.308548 72.176256 63.577298 h 21.29896 21.03438 v 8.863542 8.863541 h 0.52916 v 0.03152 0.01292 l 0.13333,-0.04444 h 2.77709 0.26458 2.79518 l 0.005,0.132292 v -0.01344 l 5.2e-4,0.01344 v -0.02635 l 10e-4,0.02635 5.2e-4,-0.132292 h 0.3731 l 0.0491,-15.941146 0.0444,-14.567069 0.0109,-1.702222 0.0289,-0.01809 0.0165,-1.773018 0.0785,-7.604187 0.0672,-6.542236 0.0315,-1.46141 -0.0103,-0.593762 0.007,-0.729154 -0.005,-0.267684 0.003,-0.261483 -0.006,-0.277503 0.003,-0.251664 -0.0692,-3.42098 v -0.0124 l 0.1018,-16.2780761 h -28.08873 -28.08924 v 5.5495321 5.549532 l -2.42517,0.04393 -0.0119,-0.03049 h -2.70888 -2.70888 l -0.11885,0.131775 -0.0398,5.17e-4 -0.18294,0.244946 -0.0811,0.08992 -0.4222,0.466638 -0.0501,0.185518 -0.26717,0.358118 -0.0408,0.38809 -0.0718,0.118856 -0.002,0.54932 -0.20878,0.773597 -0.0103,1.338936 -0.16537,1.57148 -0.0212,20.6375 -0.003,2.723865 -0.13385,17.627348 -0.0574,-0.143144 -0.0114,-0.02791 -0.0465,-0.514697 -0.1292,-0.04858 -0.004,-0.03772 h -0.0625 l -0.047,-0.116272 -0.67282,-0.168982 -0.20723,-0.05219 -0.46508,-0.175183 V 34.547545 2.4585479 h -5.2e-4 -0.64751 z m 13.23588,8.2609942 h 0.66146 0.13229 0.79375 v 2.10013 0.01654 2.116667 h -0.79375 -0.13229 -0.66146 v -2.116667 z m 2.64584,0 h 4.89479 4.89479 v 2.116667 2.116667 h -4.89479 -4.89479 v -2.116667 z m 10.84791,0 h 0.92605 0.92604 v 2.100647 0.01602 1.362707 l -0.0584,0.75396 h -0.86764 -0.92605 v -2.116667 z m 2.64584,0 h 4.36562 4.36563 v 2.116667 2.116667 h -4.36563 -4.36562 v -2.122868 z m 9.78958,0 h 0.92604 0.92604 v 2.100647 0.01602 0.132292 0.396875 0.83199 l -0.0584,0.75551 h -0.86765 -0.92604 v -2.116667 z m 2.64583,0 h 4.63021 4.63021 v 2.116667 2.116667 h -4.63021 -4.63021 v -2.116667 -0.0062 z m 10.05417,0 h 0.92604 0.92604 v 2.101164 2.101164 l -0.0677,0.03101 h -0.85835 -0.65112 l -0.27492,-0.03514 v -2.099097 z m 2.91042,0 h 4.89479 4.89479 v 2.100647 0.01033 2.090312 l -1.16065,0.03204 h -3.73414 -4.32325 l -0.57154,-0.02325 v -2.104781 z m 10.84791,0 h 0.62994 0.16381 0.73123 l 0.0625,0.233061 v 1.883606 2.116667 h -0.79375 -0.13229 -0.66146 v -2.116667 z m -52.3875,5.291667 h 0.66146 0.13229 0.78187 l 0.0119,0.352433 v 1.896525 1.984375 h -0.79375 -0.79375 v -2.116666 z m 2.64584,0 h 4.89479 4.89479 v 2.116667 2.116666 h -4.89479 -4.89479 v -1.984375 -0.132291 z m 10.8598,0 h 0.91416 0.92604 v 2.116667 0.02222 0.110071 1.984375 h -0.92604 -0.92605 v -1.999878 -0.116788 -1.742013 z m 2.63395,0 h 4.35529 0.0103 4.34496 l 0.0207,0.625801 v 1.490866 2.116666 h -4.36563 -4.36562 v -2.116666 -0.0062 z m 9.81025,0 h 0.90537 0.0103 0.9157 v 2.116667 0.02222 0.110071 1.984375 h -0.92604 -0.88935 l -0.0367,-1.511019 v -0.605647 -1.490866 z m 2.62516,0 h 4.63021 4.63021 v 2.116667 0.132291 1.984375 h -4.63021 -4.63021 v -2.116666 z m 10.05521,0 h 0.925 0.92604 v 2.116667 0.132291 1.984375 h -0.92604 -0.925 v -2.116666 z m 2.90938,0 h 4.89479 4.89479 v 2.110982 0.122473 1.999878 h -4.89479 -4.89479 v -1.984375 z m 10.84791,0 h 0.66146 0.13229 0.7705 l 0.0233,0.163814 v 1.952853 2.116666 h -0.79375 -0.13229 -0.66146 v -2.116666 z"
         transform="translate(193.97376,2.2982677)" /></g></g>


<script type="text/javascript">
  <![CDATA[
    // Global Parameters and Variables
    //!export-start
    let _pn_setState         = 0;
    let _pb_boolState        = false;
    let _pn_setInterval      = 500;
    let _pc_state0Colour     = '#ffffff';
    let _pc_state1Colour     = '#00ff00';
    let _pc_state2Colour     = '#ff9500';
    let _pc_state3Colour     = '#ff0000';
    let _pc_state4Colour     = '#3c3c3c';
    let _pc_state5Colour     = '#dcdcdc';
    let _pn_lightShade       = 50;
    let _pn_highLightShade   = 90;
    let _pn_darkShade        = 15;
    let _pn_shadowShade      = -15;
    let _pn_strokeWidth      = 1;     
    let _pn_opacity          = 0.60;  
    let _pn_indicationMode   = 0;     
    //!export-end
    
    // Internal state variables
    let stateNumber = 0;
    let isBlinking = false;
    let myCheckInterval;
    
    // Force global timing mechanism by using epoch time
    function getGlobalBlinkState(interval) {
      // Use the current time divided by interval, which will give
      // the same result for all SVGs at the same moment
      return Math.floor(Date.now() / interval) % 2 === 0;
    }
    
    // Function to update the color based on the set state
    function logic() {
      switch (stateNumber) {
        case 0: // off
          setColors(_pc_state0Colour);
          stopBlinking();
          break; 
        case 1: // run
          setColors(_pc_state1Colour);
          stopBlinking();
          break;
        case 2: // warning
          setColors(_pc_state2Colour);
          stopBlinking();
          break;
        case 3: // fault
          startForceSync();
          break;
        case 4: // invalid 
          setColors(_pc_state4Colour);
          stopBlinking();
          break;
        case 5: // spare
          setColors(_pc_state5Colour);
          stopBlinking();
          break;
        default:
          console.log('Undefined State');
          stopBlinking();
      }
    }

    // Initial setup
    function init() {
      // Set up visibility change listener
      document.addEventListener('visibilitychange', handleVisibilityChange);
      
      // Initial state rendering
      logic(); 
    }
    
    // Handler for tab visibility changes
    function handleVisibilityChange() {
      if (document.visibilityState === 'visible' && isBlinking) {
        // Resume checking when tab becomes visible again
        startForceSync();
      } else if (document.visibilityState === 'hidden' && isBlinking) {
        // Pause checking when tab is hidden
        clearInterval(myCheckInterval);
        myCheckInterval = null;
      }
    }
    
    // Update the blinking display based on global time
    function updateBlinkDisplay() {
      if (!isBlinking) return;
      
      // Get the global blink state
      const showFaultColor = getGlobalBlinkState(_pn_setInterval);
      
      // Set the appropriate color
      if (showFaultColor) {
        setColors(_pc_state3Colour);
      } else {
        setColors(_pc_state0Colour);
      }
    }
    
    // Start forced synchronization
    function startForceSync() {
      // Clear any existing interval
      stopBlinking();
      
      // Set blinking state
      isBlinking = true;
      
      // Update display immediately
      updateBlinkDisplay();
      
      // Check very frequently to ensure tight synchronization (every 16ms = ~60fps)
      myCheckInterval = setInterval(updateBlinkDisplay, 16);
    }

    // Function to update values from Fuxa
    function putValue(id, value) {
      if (id === '_pn_setState') {
        stateNumber = value;
        logic(); 
      }
      if (id === '_pb_boolState') {
        _pb_boolState = value;
        if (_pb_boolState === true) {
          stateNumber = 1;
        } else if (_pb_boolState === false) {
          stateNumber = 0;
        }
        logic(); 
      }
      if (id === '_pn_setInterval')    _pn_setInterval    = value;
      if (id === '_pc_state0Colour')   _pc_state0Colour   = value;
      if (id === '_pc_state1Colour')   _pc_state1Colour   = value;
      if (id === '_pc_state2Colour')   _pc_state2Colour   = value;
      if (id === '_pc_state3Colour')   _pc_state3Colour   = value;
      if (id === '_pc_state4Colour')   _pc_state4Colour   = value;
      if (id === '_pc_state5Colour')   _pc_state5Colour   = value;
      if (id === '_pn_lightShade')     _pn_lightShade     = value;
      if (id === '_pn_highLightShade') _pn_highLightShade = value;
      if (id === '_pn_darkShade')      _pn_darkShade      = value;
      if (id === '_pn_shadowShade')    _pn_shadowShade    = value;
      if (id === '_pn_strokeWidth')    _pn_strokeWidth    = value;
      if (id === '_pn_opacity')        _pn_opacity        = value;
      if (id === '_pn_indicationMode') _pn_indicationMode = value;
    }

    // Function to send values back to Fuxa (placeholder)
    function postValue(id, value) {
      console.error('Not defined!');
    }

    // Function to update the fill and/or stroke color based on indication mode
    function setColors(color) {
      // Get the single element with ID "shape"
      const shapeElement = document.getElementById('shape');
      if (!shapeElement) return; // Safety check
      
      // Set opacity
      shapeElement.style.opacity = _pn_opacity;
      
      // Set stroke width
      shapeElement.style.strokeWidth = _pn_strokeWidth;
      
      // Apply colors based on indication mode
      switch(_pn_indicationMode) {
        case 0: // Fill only
          shapeElement.style.fill = color;
          shapeElement.style.stroke = "none";
          break;
        case 1: // Stroke only
          shapeElement.style.fill = "none";
          shapeElement.style.stroke = color;
          break;
        case 2: // Both fill and stroke
          shapeElement.style.fill = color;
          shapeElement.style.stroke = color;
          break;
        default:
          // Default to fill only
          shapeElement.style.fill = color;
          shapeElement.style.stroke = "none";
      }
    }

    // Function to stop blinking
    function stopBlinking() {
      if (myCheckInterval) {
        clearInterval(myCheckInterval);
        myCheckInterval = null;
      }
      isBlinking = false;
    }

    // Clean up event listeners when widget is destroyed
    function cleanup() {
      stopBlinking();
      document.removeEventListener('visibilitychange', handleVisibilityChange);
    }

    // Initialize the SVG
    init();

    // Ensure cleanup when SVG is removed
    const cleanupObserver = new MutationObserver((mutations) => {
      mutations.forEach((mutation) => {
        mutation.removedNodes.forEach((node) => {
          if (node.id === 'Layer_1') {
            cleanup();
            cleanupObserver.disconnect();
          }
        });
      });
    });
    cleanupObserver.observe(document.body, { childList: true, subtree: true });
  ]]>
  </script>
</svg>
