<?xml version="1.0" encoding="UTF-8" standalone="no"?>
<!-- Created with Inkscape (http://www.inkscape.org/) -->

<svg
   width="20.701078mm"
   height="32.493156mm"
   viewBox="0 0 20.701078 32.493156"
   version="1.1"
   id="Layer_1"
   xml:space="preserve"
   xmlns="http://www.w3.org/2000/svg"
   xmlns:svg="http://www.w3.org/2000/svg"><defs
     id="defs1" /><g
     id="layer7"
     transform="translate(-218.21228,-105.01244)"><g
       id="g303"><g
         id="g231"
         transform="translate(52.4537,0.18087483)"><path
           style="fill:#d4d4d4;fill-opacity:1"
           d="m 173.17125,136.64725 -0.17639,-0.17639 v -2.21473 -2.21473 l -1.21491,-1.18075 -1.21491,-1.18076 h -1.67989 -1.67989 l -0.17069,-0.27617 -0.17068,-0.27617 0.26459,-0.31914 0.2646,-0.31914 0.2683,-1.93728 0.26831,-1.93727 -0.51012,-0.51012 -0.51013,-0.51012 v -1.04333 -1.04333 l 0.59531,-0.41738 0.59532,-0.41738 -0.0421,-2.01583 -0.0421,-2.01583 -0.32166,-1.14887 -0.32166,-1.14886 -0.17803,0.11003 -0.17803,0.11003 -0.29101,-0.18098 -0.291,-0.18098 -0.09,-0.69082 -0.09,-0.69082 0.31896,-0.38434 0.31897,-0.38433 0.0747,-3.29047 0.0747,-3.29047 9.06198,-0.0696 9.06198,-0.0696 v 3.32966 3.32967 l 0.39688,0.39687 0.39687,0.39688 v 0.64823 0.64823 l -0.64829,0.29538 -0.64829,0.29538 -0.27775,0.79676 -0.27775,0.79677 v 2.27812 2.27812 l 0.52917,0.33047 0.52916,0.33047 v 1.05609 1.0561 l -0.46302,0.46302 -0.46302,0.46302 0.2152,1.97746 0.21521,1.97747 0.27059,0.32605 0.2706,0.32605 -0.17069,0.27617 -0.17068,0.27617 h -1.65684 -1.65685 l -1.23796,1.18618 -1.23795,1.18617 v 2.3857 2.3857 h -2.86632 -2.86632 z"
           id="path252" /><path
           style="fill:#c2c2c2;fill-opacity:1"
           d="m 173.17125,136.64725 -0.17639,-0.17639 v -2.21473 -2.21473 l -1.21491,-1.18075 -1.21491,-1.18076 h -1.67989 -1.67989 l -0.17069,-0.27617 -0.17068,-0.27617 0.26459,-0.31914 0.2646,-0.31914 0.2683,-1.93728 0.26831,-1.93727 -0.51012,-0.51012 -0.51013,-0.51012 v -1.04333 -1.04333 l 0.59531,-0.41738 0.59532,-0.41738 -0.0421,-2.01583 -0.0421,-2.01583 -0.32166,-1.14887 -0.32166,-1.14886 -0.17803,0.11003 -0.17803,0.11003 -0.29101,-0.18098 -0.291,-0.18098 -0.09,-0.69082 -0.09,-0.69082 0.31896,-0.38434 0.31897,-0.38433 0.0747,-3.29047 0.0747,-3.29047 9.06198,-0.0696 9.06198,-0.0696 v 3.32966 3.32967 l 0.39688,0.39687 0.39687,0.39688 v 0.64823 0.64823 l -0.64829,0.29538 -0.64829,0.29538 -0.27775,0.79676 -0.27775,0.79677 v 2.27812 2.27812 l 0.52917,0.33047 0.52916,0.33047 v 1.05609 1.0561 l -0.46302,0.46302 -0.46302,0.46302 0.2152,1.97746 0.21521,1.97747 0.27059,0.32605 0.2706,0.32605 -0.17069,0.27617 -0.17068,0.27617 h -1.65684 -1.65685 l -1.23796,1.18618 -1.23795,1.18617 v 2.3857 2.3857 h -2.86632 -2.86632 z m 3.7207,-0.51263 -0.15985,-0.15985 -0.34727,0.13897 -0.34726,0.13896 0.50712,0.0209 0.50711,0.0209 z m 0.0717,-2.37573 v -1.74184 l -0.33073,0.10919 -0.33073,0.10919 -0.0788,1.63265 -0.0788,1.63265 h 0.4095 0.4095 z m 2.25899,-4.76025 0.53919,-0.14486 -0.32633,-2.16663 -0.32634,-2.16663 -0.0144,-0.17367 -0.0144,-0.17367 -0.52596,0.13754 -0.52595,0.13754 -0.16381,-0.42689 -0.16382,-0.42689 h -1.03002 -1.03003 l -0.014,0.46302 -0.014,0.46302 -0.33987,2.07495 -0.33987,2.07494 0.55233,0.22339 0.55233,0.22338 1.32291,0.0132 1.32292,0.0132 z m -0.5392,-5.93333 -0.16352,-0.26458 -0.71199,0.0186 -0.71199,0.0186 -0.52917,0.22739 -0.52916,0.22739 1.40467,0.0186 1.40468,0.0186 z m -0.46302,-0.81494 -0.46302,-0.26969 v -0.38373 -0.38372 h 0.11065 0.11065 l 0.41852,-0.1606 0.41851,-0.1606 v 0.42518 0.42518 h 0.40192 0.40191 l -0.17207,-0.7276 -0.17207,-0.72761 -0.64018,-0.85989 -0.64019,-0.8599 h -0.53309 -0.5331 l -0.53666,0.28721 -0.53666,0.28722 -0.52639,1.18998 -0.52638,1.18999 0.0883,0.0442 0.0882,0.0442 0.79375,0.43883 0.79375,0.43883 1.05834,0.0162 1.05833,0.0161 z m 0.26932,-8.63453 -0.72286,-0.10976 -0.86464,0.10706 -0.86463,0.10707 1.5875,0.003 1.5875,0.003 z m 0.26775,-4.24272 -0.074,-3.37344 h -1.19062 -1.19063 l -0.0751,3.00484 -0.0751,3.00484 0.30591,0.3686 0.30591,0.3686 h 1.03384 1.03384 z"
           id="path251" /><path
           style="fill:#b0b0b0;fill-opacity:1"
           d="m 173.17125,136.64725 -0.17639,-0.17639 v -2.21473 -2.21473 l -1.21491,-1.18075 -1.21491,-1.18076 h -1.67989 -1.67989 l -0.17069,-0.27617 -0.17068,-0.27617 0.26459,-0.31914 0.2646,-0.31914 0.2683,-1.93728 0.26831,-1.93727 -0.51012,-0.51012 -0.51013,-0.51012 v -1.04333 -1.04333 l 0.59531,-0.41738 0.59532,-0.41738 -0.0421,-2.01583 -0.0421,-2.01583 -0.32166,-1.14887 -0.32166,-1.14886 -0.17803,0.11003 -0.17803,0.11003 -0.29101,-0.18098 -0.291,-0.18098 -0.09,-0.69082 -0.09,-0.69082 0.31896,-0.38434 0.31897,-0.38433 0.0747,-3.29047 0.0747,-3.29047 9.06198,-0.0696 9.06198,-0.0696 v 3.32966 3.32967 l 0.39688,0.39687 0.39687,0.39688 v 0.64823 0.64823 l -0.64829,0.29538 -0.64829,0.29538 -0.27775,0.79676 -0.27775,0.79677 v 2.27812 2.27812 l 0.52917,0.33047 0.52916,0.33047 v 1.05609 1.0561 l -0.46302,0.46302 -0.46302,0.46302 0.2152,1.97746 0.21521,1.97747 0.27059,0.32605 0.2706,0.32605 -0.17069,0.27617 -0.17068,0.27617 h -1.65684 -1.65685 l -1.23796,1.18618 -1.23795,1.18617 v 2.3857 2.3857 h -2.86632 -2.86632 z m 4.2343,-3.59392 -0.0451,-3.24115 -0.26458,-0.13229 -0.26458,-0.13229 -0.0806,1.25677 -0.0806,1.25677 h -0.53271 -0.5327 l 0.0721,2.11667 0.0722,2.11667 h 0.85084 0.85085 z m -4.19359,-3.5078 -0.0848,-0.0835 -0.74447,0.14299 -0.74446,0.143 0.74446,0.78049 0.74447,0.78049 0.0848,-0.84 0.0848,-0.83999 z m 6.65976,0.88887 0.79606,-0.83299 v -0.093 -0.0931 h -0.92605 -0.92604 v 0.92604 0.92604 h 0.12999 0.12999 z m 1.6876,-1.49244 0.12902,-0.20876 -0.4371,-2.56936 -0.43711,-2.56936 h -0.99922 -0.99922 v 0.26458 0.26458 h -0.52916 -0.52917 v -0.26458 -0.26458 h -1.56874 -1.56874 l -0.26851,1.38906 -0.2685,1.38906 -0.16874,1.11477 -0.16875,1.11477 0.16952,0.27429 0.16952,0.2743 h 3.67294 3.67294 z m -0.36238,-5.87665 v -0.26458 h -3.30729 -3.30729 v 0.26458 0.26458 h 3.30729 3.30729 z m 0.098,-0.9321 0.15462,-0.40293 -0.54302,-1.45134 -0.54301,-1.45133 -0.87131,-0.92386 -0.87131,-0.92386 h -1.00192 -1.00191 l -0.95122,1.00434 -0.95122,1.00434 -0.36736,1.03397 -0.36736,1.03397 0.30122,0.10041 0.30121,0.1004 v 0.63941 0.63941 h 3.27898 3.27899 z m -3.53759,-0.52311 v -0.39687 h 0.52917 0.52916 v 0.39687 0.39688 h -0.52916 -0.52917 z m 3.04271,-8.06979 -0.79375,-0.20198 -2.11667,-0.005 -2.11667,-0.005 -0.66145,0.21184 -0.66146,0.21184 3.57187,-0.005 3.57188,-0.005 z m -4.78455,-0.8599 0.15434,-0.33073 0.15434,0.33073 0.15434,0.33073 h 1.83003 1.83004 l 0.52917,-0.52916 0.52916,-0.52917 v -2.91697 -2.91696 l -0.67868,-0.25804 -0.67868,-0.25803 -2.0333,0.004 -2.0333,0.004 -0.59531,0.15953 -0.59531,0.15954 v 3.54102 3.54101 h 0.63941 0.63941 z"
           id="path239" /><path
           style="fill:#9e9e9e;fill-opacity:1"
           d="m 173.15546,136.40513 -0.1606,-0.41852 v -2.03994 -2.03993 l -1.1345,-1.11343 -1.13449,-1.11342 h -1.8046 -1.80461 l 0.15692,-0.6252 0.15691,-0.62521 0.2634,-1.82219 0.2634,-1.82219 0.005,-0.33073 0.005,-0.33073 h -0.36857 -0.36857 l -0.1606,-0.41851 -0.1606,-0.41852 v -0.61818 -0.61817 l 0.1606,-0.41852 0.1606,-0.41851 h 0.36353 0.36352 l 0.17176,-0.68433 0.17175,-0.68432 -0.17678,-1.95093 -0.17679,-1.95092 -0.2804,-0.80434 -0.28039,-0.80433 h -0.50328 -0.50328 v -0.92604 -0.92604 h 0.25667 0.25668 l 0.074,-3.37344 0.074,-3.37344 2.64584,-0.0774 2.64583,-0.0773 0.60952,0.1521 0.60952,0.15211 -0.0803,3.56371 -0.0804,3.56371 0.66146,0.0211 0.66146,0.021 -0.79375,0.36345 -0.79375,0.36346 5.02708,-0.008 5.02709,-0.008 -0.92604,-0.35662 -0.92605,-0.35662 0.92605,-0.041 0.92604,-0.041 -0.33073,-0.13346 -0.33073,-0.13345 v -3.38922 -3.38923 l 0.41851,-0.1606 0.41852,-0.1606 h 0.9044 0.9044 v 3.43958 3.43959 h 0.26459 0.26458 v 0.92604 0.92604 h -0.50865 -0.50865 l -0.26976,0.8599 -0.26975,0.85989 -0.17525,1.75594 -0.17525,1.75594 0.18093,0.82375 0.18092,0.82375 h 0.34755 0.34754 l 0.1606,0.41851 0.1606,0.41852 v 0.61817 0.61818 l -0.1606,0.41852 -0.1606,0.41851 h -0.36856 -0.36857 l 0.008,0.19844 0.008,0.19844 0.24694,1.90057 0.24694,1.90058 0.17045,0.67911 0.17044,0.67911 h -1.8046 -1.80461 l -1.13449,1.11342 -1.13449,1.11343 v 2.31054 2.31055 l -0.26249,0.16223 -0.26249,0.16222 -0.33282,-0.21275 -0.33283,-0.21276 v -3.50532 -3.50531 l 0.46302,-4.2e-4 0.46302,-4.1e-4 0.0105,1.12448 0.0105,1.12448 1.15695,-1.25677 1.15694,-1.25677 h 0.85 0.85 l -0.16919,-0.84593 -0.16918,-0.84593 -0.15802,-1.34451 -0.15802,-1.34451 -0.44266,-0.54665 -0.44265,-0.54665 -0.38769,-0.15244 -0.3877,-0.15244 0.99219,-0.0209 0.99219,-0.0209 v -0.26458 -0.26458 l -0.99219,-0.0423 -0.99219,-0.0423 0.92605,-0.10881 0.92604,-0.10881 0.25135,-0.24572 0.25136,-0.24572 h -0.56647 -0.56647 l -0.18505,-0.29943 -0.18506,-0.29942 0.42689,-0.2389 0.42688,-0.23889 -0.5634,-1.5122 -0.5634,-1.51221 -0.6146,-0.97823 -0.6146,-0.97824 -0.9366,-0.25861 -0.93661,-0.25861 -0.72253,0.21711 -0.72253,0.2171 -0.49502,0.20043 -0.49503,0.20044 -0.98592,1.52542 -0.98593,1.52542 -0.33887,1.21033 -0.33887,1.21032 0.31817,0.38337 0.31817,0.38337 0.8402,0.10525 0.84019,0.10524 -1.00781,0.0423 -1.0078,0.0423 0.16352,0.26458 0.16353,0.26458 0.71198,0.01 0.71199,0.01 -0.76182,0.62303 -0.76183,0.62302 -0.33097,2.07944 -0.33097,2.07944 0.11622,0.19844 0.11623,0.19844 h 1.83647 1.83647 v 1.4552 1.45521 h -0.67523 -0.67522 l 0.0517,2.14377 0.0517,2.14377 -0.36864,0.23343 -0.36863,0.23343 -0.6993,0.004 -0.69929,0.004 z m 0.10398,-6.06378 v -0.92604 h -0.97014 -0.97014 l 0.11025,0.12794 0.11024,0.12794 0.66146,0.77762 0.66146,0.77762 0.19843,0.0205 0.19844,0.0205 z m 4.67431,-6.3941 -0.17639,-0.17638 v -0.22049 -0.22049 h 0.52917 0.52916 v 0.39688 0.39687 h -0.35278 -0.35277 z m -4.40972,-2.33715 v -0.39687 h 0.39687 0.39688 v 0.39687 0.39688 h -0.39688 -0.39687 z m 4.36447,0.13042 -0.16468,-0.26645 0.42505,-0.16311 0.42506,-0.16311 0.14738,0.14738 0.14737,0.14737 -0.1744,0.28219 -0.1744,0.28219 h -0.23335 -0.23336 z m -1.98322,-8.99396 v -0.26458 h 0.28019 0.2802 l -0.16352,0.26458 -0.16352,0.26458 h -0.11668 -0.11667 z m 4.49791,0 v -0.26458 h 0.26459 0.26458 v 0.26458 0.26458 h -0.26458 -0.26459 z"
           id="path238" /><path
           style="fill:#8c8c8c;fill-opacity:1"
           d="m 173.25944,134.34079 v -2.21827 l -1.3679,-1.3536 -1.36789,-1.35361 h -1.70312 -1.70312 l 0.1902,-0.46302 0.1902,-0.46302 0.28118,-2.04557 0.28117,-2.04557 -0.57536,-0.49901 -0.57536,-0.499 0.008,-0.63043 0.008,-0.63042 0.35148,-0.46302 0.35149,-0.46302 h 0.33624 0.33624 l -0.1381,-2.71198 -0.1381,-2.71198 -0.30823,-0.82804 -0.30823,-0.82803 -0.44825,0.0343 -0.44824,0.0343 -0.0839,-0.72911 -0.0839,-0.72911 0.41459,-0.15909 0.4146,-0.1591 v -3.41127 -3.41128 h 1.28598 1.28599 l 1.24139,0.17015 1.24139,0.17015 -0.08,3.53446 -0.08,3.53446 0.66146,0.0211 0.66145,0.021 -0.79375,0.36345 -0.79375,0.36346 2.31511,0.0119 2.3151,0.0119 v 0.16508 0.16508 l -1.15895,1.02016 -1.15895,1.02015 -0.59567,1.26216 -0.59567,1.26216 -0.49677,1.43757 -0.49678,1.43756 0.14737,0.46431 0.14737,0.46431 0.71496,0.10901 0.71497,0.109 -0.72761,0.0396 -0.7276,0.0396 v 0.26458 0.26458 h 1.05833 1.05834 v 0.39688 0.39687 h -0.39688 -0.39687 v -0.26458 -0.26458 h -0.50184 -0.50184 l -0.31249,2.3151 -0.31249,2.3151 -0.12954,0.46303 -0.12955,0.46302 1.14231,0.004 1.14231,0.004 0.52917,0.14249 0.52916,0.14249 -0.0512,3.22734 -0.0512,3.22733 -0.0149,0.33073 -0.0149,0.33073 h -0.79375 -0.79375 z m 0,-3.86715 v -1.05833 h -0.92604 -0.92604 v 0.18584 0.18584 l 0.84565,0.87249 0.84565,0.8725 h 0.0804 0.0804 z m 5.07331,2.4474 0.0462,-3.63802 0.10128,1.12448 0.10128,1.12448 h 0.19646 0.19645 l 0.37663,-0.33073 0.37662,-0.33073 -0.456,0.55 -0.456,0.55 v 2.29427 2.29427 h -0.26458 -0.26458 z m -2.95664,-2.16441 v -1.34132 h 0.67595 0.67596 l -0.0806,1.25677 -0.0806,1.25677 -0.59531,0.0845 -0.59531,0.0846 z m 7.48637,-1.53198 0.73949,-0.11137 -0.12504,-0.4443 -0.12504,-0.4443 -0.16544,-1.4552 -0.16543,-1.45521 -0.13302,-0.69898 -0.13303,-0.69898 -0.47794,0.12498 -0.47795,0.12499 -0.16047,-0.4182 -0.16048,-0.41819 h 1.05003 1.05003 v -0.24618 -0.24618 l -0.59531,-0.11466 -0.59531,-0.11466 0.59531,-0.036 0.59531,-0.036 v -0.24897 -0.24896 l -0.2355,-0.14555 -0.23551,-0.14555 -0.4508,-1.92059 -0.4508,-1.92059 -0.42942,-1.18064 -0.42942,-1.18064 -0.76377,-0.86988 -0.76376,-0.86988 2.21022,-0.009 2.21022,-0.009 -0.66146,-0.37812 -0.66146,-0.37813 0.30787,-0.009 0.30787,-0.009 -0.0103,-3.45048 -0.0103,-3.45048 0.0993,-0.0885 0.0993,-0.0885 0.59532,-0.18299 0.59531,-0.18299 v 3.34402 3.34402 l 0.41095,0.41096 0.41096,0.41095 -0.0802,0.56233 -0.0802,0.56234 h -0.39688 -0.39687 l -0.36269,0.79375 -0.36268,0.79375 -0.13502,2.71198 -0.13502,2.71198 h 0.33624 0.33625 l 0.35148,0.46302 0.35148,0.46302 0.008,0.63042 0.008,0.63043 -0.56704,0.49179 -0.56704,0.49179 0.2608,2.05278 0.2608,2.05279 0.20225,0.46302 0.20226,0.46302 -1.41737,-0.0396 -1.41737,-0.0397 z m -4.84054,-5.49788 v -0.44097 l 0.26459,0.0882 0.26458,0.0882 -0.0331,0.19844 -0.0331,0.19844 -0.23151,0.15434 -0.23151,0.15434 z m -4.49791,-2.11667 v -0.39687 h 0.39687 0.39688 v 0.39687 0.39688 h -0.39688 -0.39687 z m 4.49791,0 v -0.44097 l 0.26459,0.0882 0.26458,0.0882 -0.0331,0.19844 -0.0331,0.19843 -0.23151,0.15434 -0.23151,0.15434 z m 3.70417,0 v -0.39687 h 0.39687 0.39688 v 0.39687 0.39688 h -0.39688 -0.39687 z"
           id="path237" /><path
           style="fill:#7a7a7a;fill-opacity:1"
           d="m 173.25944,134.23401 v -2.32505 l -1.26586,-1.24683 -1.26586,-1.24682 h -1.77685 -1.77684 v -0.24897 -0.24897 l 0.23691,-0.14642 0.23691,-0.14642 0.18601,-2.10126 0.186,-2.10126 -0.53702,-0.57643 -0.53703,-0.57643 0.0685,-0.56494 0.0685,-0.56494 0.20623,-0.46302 0.20624,-0.46302 h 0.36857 0.36857 v -2.20094 -2.20094 l -0.39805,-1.34038 -0.39806,-1.34039 -0.52799,-0.13807 -0.52798,-0.13808 v -0.40274 -0.40275 l 0.39687,-0.39687 0.39688,-0.39688 v -3.36304 -3.36305 l 1.38906,0.16685 1.38906,0.16684 0.59531,0.002 0.59532,0.002 v 3.16186 3.16185 l 0.37808,0.21158 0.37808,0.21159 0.0849,0.21987 0.0849,0.21988 -0.66146,0.36606 -0.66146,0.36606 1.47726,0.009 1.47725,0.009 0.14864,0.14863 0.14863,0.14863 -0.6175,1.10814 -0.61749,1.10814 -0.93875,2.90069 -0.93875,2.90069 0.19494,0.18249 0.19494,0.18248 0.52916,0.12728 0.52917,0.12728 -0.74322,0.0307 -0.74322,0.0307 0.16352,0.26458 0.16353,0.26458 0.71198,0.0168 0.71199,0.0168 -0.55896,0.22584 -0.55896,0.22584 -0.18338,1.86105 -0.18338,1.86106 -0.23138,0.80675 -0.23137,0.80676 0.57684,0.004 0.57684,0.004 -0.32874,0.20877 -0.32874,0.20878 1.05634,1.03149 1.05635,1.0315 v -1.06793 -1.06794 l 0.14761,-0.14761 0.14762,-0.14761 0.51384,0.13437 0.51385,0.13438 v 3.54101 3.54102 h -0.66146 -0.66146 z m 5.24114,1.86203 -0.0818,-0.19844 0.14992,-2.11667 0.14991,-2.11666 0.0485,2.3151 0.0485,2.31511 h -0.11667 -0.11668 z m -3.12447,-5.33941 v -1.34132 h 0.67595 0.67596 l -0.0806,1.25677 -0.0806,1.25677 -0.59531,0.0845 -0.59531,0.0846 z m 8.35079,-1.49997 0.281,-0.11688 -0.34888,-2.57421 -0.34889,-2.57422 -0.12225,-0.33073 -0.12225,-0.33073 h 0.50525 0.50525 l 0.16352,-0.26458 0.16352,-0.26458 -0.47863,-0.008 -0.47864,-0.008 0.47075,-0.27401 0.47076,-0.27401 -0.52602,-0.44555 -0.52602,-0.44554 -0.41531,-2.91042 -0.41531,-2.91042 -0.15418,-0.85989 -0.15419,-0.8599 h 1.2662 1.26619 l -0.62141,-0.66146 -0.62141,-0.66145 h 0.3107 0.31071 v -3.3073 -3.30729 h 0.39687 0.39688 v 3.29168 3.29168 l 0.26458,0.16352 0.26459,0.16352 v 0.64584 0.64585 h -0.38949 -0.38948 l -0.38656,1.38906 -0.38655,1.38906 -0.17337,1.37841 -0.17336,1.37841 0.17667,0.8044 0.17668,0.80441 h 0.34499 0.345 l 0.15954,0.59531 0.15953,0.59531 0.004,0.56292 0.004,0.56291 -0.43123,0.35789 -0.43122,0.35789 0.17165,2.23312 0.17165,2.23312 0.29197,0.3518 0.29197,0.35181 -0.76,-0.0209 -0.76,-0.0209 z m -10.20287,-5.52989 v -0.44097 l 0.26458,0.0882 0.26458,0.0882 -0.0331,0.19844 -0.0331,0.19844 -0.23151,0.15434 -0.23151,0.15434 z m 8.20208,0 v -0.39688 h 0.39687 0.39688 v 0.39688 0.39687 h -0.39688 -0.39687 z m -8.20208,-2.24896 v -0.26458 h 0.24896 0.24897 l 0.16352,0.26458 0.16353,0.26458 h -0.41249 -0.41249 z m 4.6302,0 0.16353,-0.26458 h 0.11667 0.11668 v 0.26458 0.26458 h -0.2802 -0.2802 z m 3.57188,0 v -0.26458 h 0.39687 0.39688 v 0.26458 0.26458 h -0.39688 -0.39687 z m -5.82083,-7.42395 v -0.2802 l 0.26458,0.16352 0.26458,0.16353 v 0.11667 0.11668 h -0.26458 -0.26458 z m 4.49791,0.0156 v -0.26459 h 0.26459 0.26458 v 0.26459 0.26458 h -0.26458 -0.26459 z"
           id="path236" /><path
           style="fill:#686868;fill-opacity:1"
           d="m 173.25944,134.6329 v -1.96497 l 0.16999,-1.62631 0.16998,-1.62631 h 0.36686 0.36686 l -0.0738,3.50246 -0.0738,3.50246 -0.46302,0.0888 -0.46302,0.0888 z m 2.29306,-2.74815 -0.17639,-0.17639 v -1.14652 -1.14653 h 0.52917 0.52916 v 1.32292 1.32291 h -0.35278 -0.35277 z m -6.48265,-2.40176 -1.94063,-0.0918 0.28711,-0.34594 0.28711,-0.34595 0.16878,-2.37778 0.16878,-2.37778 -0.43349,-0.16634 -0.43348,-0.16635 v -0.90194 -0.90195 l 0.35507,-0.29469 0.35507,-0.29468 0.14694,0.14693 0.14693,0.14694 0.17514,-1.27371 0.17514,-1.27371 -0.28428,-1.77927 -0.28429,-1.77926 -0.25402,-0.66813 -0.25402,-0.66813 h -0.40343 -0.40342 v -0.66146 -0.66146 h 0.26458 0.26459 v -3.55941 -3.55941 l 1.38906,0.1569 1.38906,0.1569 0.089,0.074 0.089,0.074 0.045,3.32799 0.045,3.32798 -0.26627,0.11196 -0.26626,0.11197 0.51359,0.0209 0.51359,0.0209 -0.51359,0.38846 -0.51359,0.38846 1.41737,0.008 1.41737,0.008 -0.13123,0.34197 -0.13123,0.34197 -0.82312,3.08433 -0.82312,3.08432 v 0.67475 0.67475 h -0.26458 -0.26459 v 0.24518 0.24518 l 0.46302,0.121 0.46302,0.121 -0.46302,0.0307 -0.46302,0.0307 v 0.26458 0.26458 l 0.72761,0.004 0.7276,0.004 -0.36669,0.23222 -0.36669,0.23223 -0.44026,2.67414 -0.44026,2.67414 h 0.60851 0.60852 v 0.26458 0.26458 l -0.0661,-0.0526 -0.0661,-0.0526 z m 14.83431,-3.77185 v -0.92604 l 0.121,0.46302 0.121,0.46302 -0.121,0.46302 -0.121,0.46302 z m -0.32597,-1.98437 v -0.39688 h 0.55748 0.55747 l -0.13612,-0.35472 -0.13612,-0.35472 0.23605,-0.37288 0.23606,-0.37289 0.004,0.85059 0.004,0.85059 -0.51177,0.27389 -0.51178,0.27389 h -0.14968 -0.14969 z m -9.83919,-0.0485 0.34727,-0.13897 0.15985,0.15986 0.15985,0.15985 -0.50712,-0.0209 -0.50712,-0.0209 z m 8.20208,0 0.34727,-0.13897 0.15985,0.15986 0.15985,0.15985 -0.50711,-0.0209 -0.50712,-0.0209 z m 1.75852,-1.95353 -0.1744,-0.28219 0.12092,-0.12091 0.12092,-0.12092 0.43322,0.16624 0.43323,0.16625 -0.14639,0.23686 -0.14639,0.23686 h -0.23335 -0.23335 z m -0.35458,-3.55427 -0.0372,-2.11667 -0.16185,-0.97899 -0.16186,-0.979 0.70626,-0.17726 0.70626,-0.17726 0.11026,0.11027 0.11027,0.11027 -0.39773,1.31057 -0.39772,1.31057 -0.21971,1.85208 -0.2197,1.85208 z m 1.63379,-4.26694 0.1659,-0.1659 -0.33174,-0.82629 -0.33174,-0.82629 0.0446,-2.97656 0.0446,-2.97656 0.0841,-0.19844 0.0841,-0.19844 0.17683,3.43958 0.17683,3.43959 0.19986,0.7276 0.19985,0.72761 h -0.33952 -0.33953 z"
           id="path235" /><path
           style="fill:#575757;fill-opacity:1"
           d="m 173.42864,136.37548 -0.1692,-0.1692 v -1.76917 -1.76918 l 0.16999,-1.62631 0.16998,-1.62631 h 0.22689 0.22689 v 3.42397 3.42397 l -0.22768,0.14071 -0.22768,0.14071 z m 2.10563,-4.50896 -0.15816,-0.15816 v -1.14652 -1.14653 h 0.52917 0.52916 v 1.16232 1.16231 l -0.37101,0.14237 -0.371,0.14237 z m -8.12585,-2.81171 0.29918,-0.36049 0.20209,-2.51048 0.20209,-2.51047 -0.39259,0.0267 -0.3926,0.0267 -0.0997,-0.48395 -0.0997,-0.48395 0.16681,-0.66459 0.1668,-0.66458 0.36862,0.14145 0.36861,0.14145 0.18367,-1.46999 0.18366,-1.46999 -0.27434,-1.62397 -0.27434,-1.62397 -0.28247,-0.7276 -0.28247,-0.7276 h -0.40343 -0.40342 v -0.66146 -0.66146 h 0.26458 0.26459 v -3.4548 -3.45479 l 1.12447,0.0814 1.12448,0.0814 0.074,3.37344 0.0741,3.37344 -0.33864,0.004 -0.33863,0.004 0.39687,0.25648 0.39688,0.25648 -0.33073,0.004 -0.33073,0.004 v 0.26458 0.26458 h 1.17501 1.17501 l 0.16352,0.26459 0.16352,0.26458 h -0.24638 -0.24638 l -0.16914,1.12448 -0.16913,1.12448 -0.42308,2.18663 -0.42307,2.18663 0.3262,0.39306 0.32621,0.39305 -0.36312,0.0314 -0.36313,0.0314 -0.33073,-0.043 -0.33073,-0.0429 v 0.38642 0.38643 l 0.33073,0.13345 0.33073,0.13345 -0.33073,0.0209 -0.33073,0.0209 v 0.26458 0.26458 h 0.66146 0.66146 v 0.0916 0.0917 l -0.36984,0.76825 -0.36983,0.76825 -0.21544,1.85209 -0.21544,1.85208 0.0267,0.33073 0.0267,0.33073 h -1.19362 -1.19363 z m 16.43436,-5.34366 v -0.41249 l 0.26889,0.16619 0.2689,0.16619 -0.15222,0.2463 -0.15222,0.2463 h -0.11668 -0.11667 z m -0.17913,-8.2484 0.0468,-1.38486 0.3686,-0.14273 0.3686,-0.14272 0.0516,0.0724 0.0516,0.0724 -0.46705,1.45521 -0.46706,1.45521 z"
           id="path234" /><path
           style="fill:#454545;fill-opacity:1"
           d="m 173.47732,134.11166 -0.0856,-2.18281 0.15687,-1.32292 0.15687,-1.32291 0.0416,3.50573 0.0416,3.50573 h -0.11285 -0.11285 z m 2.14648,-2.38125 -0.0169,-0.0661 -0.0824,-0.83152 -0.0824,-0.83153 0.22754,-0.3591 0.22753,-0.3591 0.004,1.25677 0.004,1.25677 h -0.1323 -0.13229 z m -8.08087,-2.73449 0.16093,-0.41938 0.14263,-1.49885 0.14264,-1.49884 0.12492,-0.99329 0.12491,-0.99329 -0.20174,0.0324 -0.20174,0.0324 -0.34749,-0.0313 -0.34749,-0.0313 0.0829,-0.8599 0.0829,-0.8599 h 0.39687 0.39688 l 0.17206,-0.52916 0.17206,-0.52917 0.008,-1.71979 0.008,-1.71979 -0.44497,-1.71979 -0.44497,-1.7198 -0.46302,0.0778 -0.46302,0.0777 v -0.67305 -0.67306 h 0.26458 0.26459 v -3.43958 -3.43959 h 0.79375 0.79375 v 3.43959 3.43958 l -0.46303,0.0209 -0.46302,0.0209 0.31587,0.12849 0.31587,0.1285 -0.13912,0.36252 -0.13911,0.36251 1.01387,0.0834 1.01387,0.0834 -0.0594,1.5875 -0.0594,1.5875 -0.30914,2.08546 -0.30913,2.08546 -0.4818,0.41253 -0.4818,0.41253 0.28739,0.34628 0.28739,0.34629 h -0.31259 -0.3126 l 0.16352,0.26458 0.16353,0.26458 h 0.64584 0.64584 v 0.41249 0.41249 l -0.24553,-0.15175 -0.24554,-0.15174 -0.13007,0.46686 -0.13007,0.46686 -0.17944,1.83097 -0.17945,1.83097 -0.30234,0.48414 -0.30235,0.48413 h -0.49383 -0.49383 z"
           id="path233" /><path
           style="fill:#333333;fill-opacity:1"
           d="m 173.61473,133.78093 0.002,-2.11666 0.10163,1.13147 0.10162,1.13147 -0.10337,0.9852 -0.10337,0.98519 z m -5.90906,-5.35781 0.21081,-0.99219 0.18051,-2.05052 0.18052,-2.05052 h 0.3743 0.3743 v 0.46996 0.46997 l -0.28007,2.23356 -0.28006,2.23356 -0.2815,0.33918 -0.2815,0.33919 h -0.20406 -0.20406 z m -0.34974,-4.99952 -0.1819,-0.1819 v -0.63676 -0.63676 l 0.46302,0.0898 0.46302,0.0898 -0.002,0.63596 -0.002,0.63596 -0.27865,0.0929 -0.27865,0.0929 z m 1.00872,-4.26089 v -2.57969 l -0.37531,-1.2932 -0.37532,-1.2932 -0.48458,-0.12672 -0.48458,-0.12672 v -0.36602 -0.36602 h 0.26458 0.26459 v -3.57187 -3.57188 h 0.52916 0.52917 v 3.2632 3.26319 l -0.18321,0.18321 -0.18321,0.18321 -0.0772,0.50589 -0.0772,0.5059 0.85573,0.0826 0.85572,0.0826 0.0641,2.38125 0.0641,2.38125 -0.33004,1.43363 -0.33004,1.43362 -0.26319,0.0877 -0.26319,0.0877 z"
           id="path232" /></g><g
         id="g302"
         transform="translate(52.4537,0.18087483)"><path
           id="shape"
           style="opacity:0.60597;fill:none;fill-opacity:1;stroke:#000000;stroke-linejoin:bevel"
           d="m 185.1659,105.33155 -9.06197,0.0692 -9.06198,0.0698 -0.0749,3.29024 -0.0744,3.29075 -0.31936,0.38447 -0.0382,0.046 h -0.15503 v 0.18655 l -0.12557,0.15141 0.0899,0.69091 0.0357,0.27389 v 0.54932 h 0.26768 l 0.078,0.0486 0.29093,0.18087 0.17777,-0.11007 0.17829,-0.10955 0.32142,1.14876 0.31368,1.12035 0.01,0.10645 0.0403,1.93787 0.0419,1.98903 -0.008,0.0331 -0.58652,0.41083 -0.17519,0.12299 h -0.0997 l -0.0367,0.0956 -0.28371,0.19895 v 0.54105 l -5.1e-4,0.002 v 0.61805 0.61805 l 5.1e-4,0.001 v 0.30696 l 0.19017,0.19017 0.13023,0.33899 h 0.20877 l 0.49093,0.49093 -0.2682,1.93735 -0.26872,1.93735 -0.26458,0.31936 -0.26459,0.31884 0.17105,0.27595 0.10749,0.17467 -0.0253,0.1018 h 0.0884 1.71618 1.64383 l 1.21491,1.18081 1.21491,1.18081 v 1.90531 0.30902 1.73064 0.48421 l 0.17622,0.17674 0.12299,0.12299 0.0207,0.0543 0.19999,-0.001 h 2.69906 2.29495 l 0.0455,0.0289 0.047,-0.0289 h 0.47904 v -2.3859 -2.38538 l 1.23765,-1.18649 1.23765,-1.18546 h 1.59732 1.80454 l -0.0253,-0.10129 0.10852,-0.17518 0.17053,-0.27647 -0.27078,-0.32608 -0.27027,-0.32608 -0.21549,-1.97714 -0.21498,-1.97765 0.39636,-0.39636 h 0.20774 l 0.12971,-0.33745 0.19223,-0.19223 v -1.05627 -1.05575 l -0.28783,-0.17983 -0.0341,-0.0889 h -0.108 l -0.0992,-0.062 -0.52917,-0.33021 v -2.27842 -2.18849 l 0.0124,-0.12454 v -10e-4 l 0.2651,-0.76067 0.27802,-0.79685 0.64803,-0.29508 0.092,-0.0418 h 0.29094 v -0.13281 l 0.26561,-0.12093 v -0.64802 -0.64854 l -0.26561,-0.26561 v -0.0362 h -0.0362 l -0.0951,-0.0951 -0.39688,-0.39688 v -3.32951 z" /></g></g></g>


<script type="text/javascript">
  <![CDATA[
    // Global Parameters and Variables
    //!export-start
    let _pn_setState         = 0;
    let _pb_boolState        = false;
    let _pn_setInterval      = 500;
    let _pc_state0Colour     = '#ffffff';
    let _pc_state1Colour     = '#00ff00';
    let _pc_state2Colour     = '#ff9500';
    let _pc_state3Colour     = '#ff0000';
    let _pc_state4Colour     = '#3c3c3c';
    let _pc_state5Colour     = '#dcdcdc';
    let _pn_lightShade       = 50;
    let _pn_highLightShade   = 90;
    let _pn_darkShade        = 15;
    let _pn_shadowShade      = -15;
    let _pn_strokeWidth      = 1;     
    let _pn_opacity          = 0.60;  
    let _pn_indicationMode   = 0;     
    //!export-end
    
    // Internal state variables
    let stateNumber = 0;
    let isBlinking = false;
    let myCheckInterval;
    
    // Force global timing mechanism by using epoch time
    function getGlobalBlinkState(interval) {
      // Use the current time divided by interval, which will give
      // the same result for all SVGs at the same moment
      return Math.floor(Date.now() / interval) % 2 === 0;
    }
    
    // Function to update the color based on the set state
    function logic() {
      switch (stateNumber) {
        case 0: // off
          setColors(_pc_state0Colour);
          stopBlinking();
          break; 
        case 1: // run
          setColors(_pc_state1Colour);
          stopBlinking();
          break;
        case 2: // warning
          setColors(_pc_state2Colour);
          stopBlinking();
          break;
        case 3: // fault
          startForceSync();
          break;
        case 4: // invalid 
          setColors(_pc_state4Colour);
          stopBlinking();
          break;
        case 5: // spare
          setColors(_pc_state5Colour);
          stopBlinking();
          break;
        default:
          console.log('Undefined State');
          stopBlinking();
      }
    }

    // Initial setup
    function init() {
      // Set up visibility change listener
      document.addEventListener('visibilitychange', handleVisibilityChange);
      
      // Initial state rendering
      logic(); 
    }
    
    // Handler for tab visibility changes
    function handleVisibilityChange() {
      if (document.visibilityState === 'visible' && isBlinking) {
        // Resume checking when tab becomes visible again
        startForceSync();
      } else if (document.visibilityState === 'hidden' && isBlinking) {
        // Pause checking when tab is hidden
        clearInterval(myCheckInterval);
        myCheckInterval = null;
      }
    }
    
    // Update the blinking display based on global time
    function updateBlinkDisplay() {
      if (!isBlinking) return;
      
      // Get the global blink state
      const showFaultColor = getGlobalBlinkState(_pn_setInterval);
      
      // Set the appropriate color
      if (showFaultColor) {
        setColors(_pc_state3Colour);
      } else {
        setColors(_pc_state0Colour);
      }
    }
    
    // Start forced synchronization
    function startForceSync() {
      // Clear any existing interval
      stopBlinking();
      
      // Set blinking state
      isBlinking = true;
      
      // Update display immediately
      updateBlinkDisplay();
      
      // Check very frequently to ensure tight synchronization (every 16ms = ~60fps)
      myCheckInterval = setInterval(updateBlinkDisplay, 16);
    }

    // Function to update values from Fuxa
    function putValue(id, value) {
      if (id === '_pn_setState') {
        stateNumber = value;
        logic(); 
      }
      if (id === '_pb_boolState') {
        _pb_boolState = value;
        if (_pb_boolState === true) {
          stateNumber = 1;
        } else if (_pb_boolState === false) {
          stateNumber = 0;
        }
        logic(); 
      }
      if (id === '_pn_setInterval')    _pn_setInterval    = value;
      if (id === '_pc_state0Colour')   _pc_state0Colour   = value;
      if (id === '_pc_state1Colour')   _pc_state1Colour   = value;
      if (id === '_pc_state2Colour')   _pc_state2Colour   = value;
      if (id === '_pc_state3Colour')   _pc_state3Colour   = value;
      if (id === '_pc_state4Colour')   _pc_state4Colour   = value;
      if (id === '_pc_state5Colour')   _pc_state5Colour   = value;
      if (id === '_pn_lightShade')     _pn_lightShade     = value;
      if (id === '_pn_highLightShade') _pn_highLightShade = value;
      if (id === '_pn_darkShade')      _pn_darkShade      = value;
      if (id === '_pn_shadowShade')    _pn_shadowShade    = value;
      if (id === '_pn_strokeWidth')    _pn_strokeWidth    = value;
      if (id === '_pn_opacity')        _pn_opacity        = value;
      if (id === '_pn_indicationMode') _pn_indicationMode = value;
    }

    // Function to send values back to Fuxa (placeholder)
    function postValue(id, value) {
      console.error('Not defined!');
    }

    // Function to update the fill and/or stroke color based on indication mode
    function setColors(color) {
      // Get the single element with ID "shape"
      const shapeElement = document.getElementById('shape');
      if (!shapeElement) return; // Safety check
      
      // Set opacity
      shapeElement.style.opacity = _pn_opacity;
      
      // Set stroke width
      shapeElement.style.strokeWidth = _pn_strokeWidth;
      
      // Apply colors based on indication mode
      switch(_pn_indicationMode) {
        case 0: // Fill only
          shapeElement.style.fill = color;
          shapeElement.style.stroke = "none";
          break;
        case 1: // Stroke only
          shapeElement.style.fill = "none";
          shapeElement.style.stroke = color;
          break;
        case 2: // Both fill and stroke
          shapeElement.style.fill = color;
          shapeElement.style.stroke = color;
          break;
        default:
          // Default to fill only
          shapeElement.style.fill = color;
          shapeElement.style.stroke = "none";
      }
    }

    // Function to stop blinking
    function stopBlinking() {
      if (myCheckInterval) {
        clearInterval(myCheckInterval);
        myCheckInterval = null;
      }
      isBlinking = false;
    }

    // Clean up event listeners when widget is destroyed
    function cleanup() {
      stopBlinking();
      document.removeEventListener('visibilitychange', handleVisibilityChange);
    }

    // Initialize the SVG
    init();

    // Ensure cleanup when SVG is removed
    const cleanupObserver = new MutationObserver((mutations) => {
      mutations.forEach((mutation) => {
        mutation.removedNodes.forEach((node) => {
          if (node.id === 'Layer_1') {
            cleanup();
            cleanupObserver.disconnect();
          }
        });
      });
    });
    cleanupObserver.observe(document.body, { childList: true, subtree: true });
  ]]>
  </script>
</svg>
