<?xml version="1.0" encoding="UTF-8" standalone="no"?>
<!-- Created with Inkscape (http://www.inkscape.org/) -->

<svg
   width="54.220852mm"
   height="32.254784mm"
   viewBox="0 0 54.220852 32.254784"
   version="1.1"
   id="Layer_1"
   xml:space="preserve"
   xmlns="http://www.w3.org/2000/svg"
   xmlns:svg="http://www.w3.org/2000/svg"><defs
     id="defs1" /><g
     id="layer11"
     transform="translate(-539.32597,-482.04412)"><g
       id="g51"
       transform="translate(-14.272254,91.470515)"><g
         id="g31"
         transform="translate(85.220604,43.200791)"><path
           style="fill:#d4d4d4;fill-opacity:1"
           d="m 471.55208,371.05099 v -8.07414 l -0.80547,-2.90195 -0.80547,-2.90196 -0.51744,-2.71557 -0.51745,-2.71557 v -1.91875 -1.91876 h 0.35829 0.35829 l 3.54431,0.5416 3.54432,0.54159 12.56771,2.53244 12.56771,2.53244 2.91041,0.56657 2.91042,0.56656 0.0845,0.59274 0.0846,0.59273 h 1.57442 1.57442 l 4.69103,3.15584 4.69103,3.15585 0.8599,1.44798 0.85989,1.44798 v 6.77326 6.77326 h -25.26771 -25.26771 z"
           id="path40" /><path
           style="fill:#c2c2c2;fill-opacity:1"
           d="m 471.55208,371.05099 v -8.07414 l -0.80547,-2.90195 -0.80547,-2.90196 -0.51744,-2.71557 -0.51745,-2.71557 v -1.91875 -1.91876 h 0.35829 0.35829 l 3.54431,0.5416 3.54432,0.54159 12.56771,2.53244 12.56771,2.53244 2.91041,0.56657 2.91042,0.56656 0.0845,0.59274 0.0846,0.59273 h 1.57442 1.57442 l 4.69103,3.15584 4.69103,3.15585 0.8599,1.44798 0.85989,1.44798 v 6.77326 6.77326 h -25.26771 -25.26771 z m 22.36448,-9.90591 -0.15634,-0.25296 0.71273,-0.46699 0.71273,-0.467 0.68476,-0.0891 0.68477,-0.0891 -0.52917,0.39903 -0.52916,0.39902 0.66145,-0.14208 0.66146,-0.14208 -0.39687,0.28348 -0.39688,0.28348 0.1682,0.004 0.16819,0.004 0.73888,-0.38334 0.73887,-0.38333 0.28356,0.16954 0.28355,0.16954 -0.34212,-0.42236 -0.34212,-0.42235 0.17237,-0.68677 0.17236,-0.68677 h 0.3682 0.36819 v 0.64585 0.64584 l 0.24832,0.15347 0.24832,0.15347 0.26224,-0.46858 0.26223,-0.46859 h 0.21525 0.21525 l -0.069,-0.30062 -0.069,-0.30063 0.40156,-0.15409 0.40156,-0.15409 v 0.23151 0.23151 l 0.55154,-0.14423 0.55153,-0.14423 -0.3531,-0.22383 -0.35309,-0.22382 0.26458,-0.0259 0.26459,-0.0259 -4.36563,-0.88016 -4.36562,-0.88015 -3.70417,-0.6928 -3.70417,-0.6928 -0.78856,-0.15942 -0.78856,-0.15942 0.35552,0.42837 0.35552,0.42838 0.27957,-0.17279 0.27956,-0.17278 -0.16895,0.44028 -0.16895,0.44028 0.45472,0.003 0.45472,0.003 0.56883,0.87867 0.56884,0.87867 0.4895,0.002 0.48949,0.002 0.34573,-0.48718 0.34574,-0.48718 h 0.41055 0.41056 l -0.15594,0.62129 -0.15593,0.62128 0.64242,0.29271 0.64243,0.29271 0.46047,0.73965 0.46048,0.73965 0.64635,0.5896 0.64636,0.5896 0.2001,-0.12366 0.2001,-0.12367 0.32696,0.39396 0.32696,0.39396 h 0.11551 0.11551 z m -0.49225,-0.71718 -0.17639,-0.17639 v -0.37167 -0.37168 l 0.39687,0.39688 0.39688,0.39687 v 0.15119 0.15119 h -0.22049 -0.22048 z m -0.0786,-2.00642 0.15954,-0.59531 0.004,-0.19844 0.004,-0.19844 h 0.39688 0.39687 v 0.79375 0.79375 h -0.56002 -0.56003 z m -2.3434,-0.19297 -0.16014,-0.25911 0.28612,-0.53464 0.28613,-0.53463 h 0.38757 0.38756 v 0.79375 0.79375 h -0.51355 -0.51355 z m -4.864,-1.92921 -0.28994,-0.28994 -0.16339,0.16339 -0.16339,0.1634 0.35742,0.38821 0.35742,0.38821 0.0959,-0.26166 0.0959,-0.26167 z"
           id="path39" /><path
           style="fill:#b0b0b0;fill-opacity:1"
           d="m 471.55208,371.05099 v -8.07414 l -0.80547,-2.90195 -0.80547,-2.90196 -0.51744,-2.71557 -0.51745,-2.71557 v -1.91875 -1.91876 h 0.35829 0.35829 l 3.54431,0.5416 3.54432,0.54159 12.56771,2.53244 12.56771,2.53244 2.91041,0.56657 2.91042,0.56656 0.0845,0.59274 0.0846,0.59273 h 1.57442 1.57442 l 4.69103,3.15584 4.69103,3.15585 0.8599,1.44798 0.85989,1.44798 v 6.77326 6.77326 h -25.26771 -25.26771 z m 25.00313,3.46652 1.85208,-0.10455 v -0.0494 -0.0494 l 0.92604,-0.11781 0.92605,-0.1178 0.70112,-0.27596 0.70112,-0.27597 0.12123,-0.97105 0.12122,-0.97106 -0.0678,-0.0833 -0.0678,-0.0833 -1.54826,-0.36089 -1.54826,-0.36089 -11.28978,-2.26776 -11.28978,-2.26775 h -0.67432 -0.67431 l 0.13266,0.33073 0.13265,0.33073 1.34394,0.92604 1.34393,0.92604 0.45355,0.41709 0.45355,0.41709 0.45957,0.17635 0.45958,0.17636 -0.14673,0.23741 -0.14672,0.23742 0.85756,0.40694 0.85756,0.40694 0.26459,0.048 0.26458,0.0481 0.71037,0.50583 0.71037,0.50583 0.21567,-0.062 0.21567,-0.062 0.66146,0.37471 0.66146,0.3747 0.26458,0.0263 0.26459,0.0264 0.7276,0.21301 0.7276,0.213 v 0.18417 0.18417 l 1.10544,0.0652 1.10544,0.0652 0.22491,0.13901 0.22491,0.139 0.85246,0.12306 0.85247,0.12306 0.87948,0.0968 0.87948,0.0968 0.12594,0.12594 0.12594,0.12593 0.84666,-0.104 0.84667,-0.10399 z m 7.3487,-1.99165 0.13437,-0.51384 -0.14761,-0.14762 -0.14761,-0.14761 h -0.35278 -0.35278 v 0.66146 0.66146 h 0.36602 0.36601 z m 3.31634,-1.58335 0.0958,-0.28735 0.24199,0.14956 0.24198,0.14955 v -0.23823 -0.23824 l -1.32292,-0.0468 -1.32291,-0.0468 v 0.55561 0.55561 l 0.98515,-0.13276 0.98515,-0.13276 z m -3.12442,-0.25319 v -0.49831 l -0.54535,-0.14261 -0.54535,-0.14262 -0.15466,0.40305 -0.15466,0.40304 0.36928,0.23382 0.36929,0.23383 0.33073,0.004 0.33072,0.004 z m -2.11666,-0.41212 v -0.38126 l -0.22565,-0.13946 -0.22565,-0.13946 -5.92592,-1.21694 -5.92591,-1.21694 -7.12536,-1.43734 -7.12535,-1.43734 h -0.34912 -0.34913 v 0.37567 0.37566 l 1.78594,0.39932 1.78594,0.39932 3.175,0.69537 3.175,0.69537 8.06979,1.67323 8.06979,1.67323 0.59532,0.0314 0.59531,0.0314 z m 6.61458,-1.96909 0.13229,-1.41565 0.50403,0.56008 0.50403,0.56009 h -0.42958 -0.42958 l 0.13538,0.35277 0.13537,0.35278 h 0.37385 0.37385 l -0.13627,-0.22048 -0.13627,-0.22049 h 0.2802 0.2802 l -0.0313,-0.19844 -0.0313,-0.19844 0.0354,-0.52916 0.0354,-0.52917 0.25089,0.39688 0.25088,0.39687 0.18142,-0.13229 0.18142,-0.13229 0.17833,0.50838 0.17833,0.50838 0.44444,-0.63453 0.44443,-0.63452 -0.99297,-0.50237 -0.99298,-0.50238 -0.11465,-0.1035 -0.11465,-0.10349 0.3519,-0.32632 0.35191,-0.32632 -0.15978,0.28713 -0.15977,0.28713 0.92368,0.44047 0.92369,0.44048 h 0.25561 0.2556 v -0.2802 -0.2802 l -0.30546,0.18879 -0.30546,0.18879 0.18164,-0.29391 0.18165,-0.29391 0.39948,0.1533 0.39948,0.15329 -0.12292,-0.67787 -0.12292,-0.67786 0.34718,0.13323 0.34719,0.13322 -0.14212,0.57823 -0.14212,0.57822 0.21173,-0.19471 0.21173,-0.19471 -0.0225,-0.79288 -0.0226,-0.79288 0.29172,-0.18029 0.29172,-0.18029 -0.16378,0.4268 -0.16378,0.42681 0.40119,-0.15395 0.40118,-0.15395 -0.27342,-0.27342 -0.27342,-0.27342 -1.26572,-0.74527 -1.26572,-0.74527 0.20724,-0.005 0.20723,-0.005 1.27707,0.64714 1.27708,0.64714 0.36777,-0.71329 0.36778,-0.71329 0.39687,-0.32231 0.39688,-0.32231 -0.26458,-0.0125 -0.26459,-0.0125 0.39688,-0.25096 0.39687,-0.25096 -0.39687,-0.3894 -0.39688,-0.3894 -2.76352,-1.86913 -2.76353,-1.86913 -1.46981,0.0297 -1.4698,0.0297 1.37079,0.30103 1.37079,0.30104 0.16603,0.16982 0.16604,0.16981 -1.6308,5.76804 -1.6308,5.76803 -0.12736,0.33191 -0.12737,0.33192 0.75051,-0.0564 0.7505,-0.0564 z m 2.11355,-4.00717 -0.39376,-0.24896 0.52917,-0.008 0.52917,-0.008 -0.39467,-0.24951 -0.39466,-0.24952 0.26458,-0.26458 0.26459,-0.26458 0.30613,0.1892 0.30612,0.18919 -0.31145,0.58196 -0.31146,0.58196 z m -6.31614,4.96846 0.0307,-0.33073 0.0354,-1.19006 0.0354,-1.19006 -0.92604,0.008 -0.92604,0.008 -0.0793,1.36003 -0.0793,1.36004 0.60844,0.11638 0.60844,0.11638 0.33073,0.036 0.33073,0.036 z m -2.90773,-0.66146 0.0334,-0.46302 0.0371,-0.66146 0.0371,-0.66146 -0.46736,-0.7023 -0.46736,-0.7023 v -0.44695 -0.44695 l 0.52917,-0.13838 0.52916,-0.13838 0.0209,-0.69674 0.0209,-0.69675 0.26574,0.72761 0.26575,0.7276 h 1.30087 1.30086 v -0.30559 -0.30559 l 0.49311,0.44625 0.4931,0.44626 0.82019,-2.97252 0.82018,-2.97251 -0.0565,-0.0533 -0.0565,-0.0533 -10.45105,-1.99981 -10.45104,-1.99982 -8.50031,-1.59733 -8.50031,-1.59734 h -0.16857 -0.16856 l 0.14186,0.85989 0.14186,0.8599 0.41103,2.11666 0.41103,2.11667 0.53389,1.85208 0.53389,1.85209 0.21923,0.23068 0.21924,0.23067 -0.12966,0.33788 -0.12965,0.33787 0.21647,0.13327 0.21648,0.13328 0.0592,-0.81536 0.0592,-0.81536 -0.30116,-0.36288 -0.30116,-0.36288 0.57268,-0.14976 0.57268,-0.14975 v -0.27071 -0.2707 l -0.42796,-0.31293 -0.42796,-0.31293 0.46488,-0.90686 0.46487,-0.90687 0.188,-0.13229 0.18799,-0.13229 0.15107,-0.39687 0.15108,-0.39688 0.0209,1.25677 0.0209,1.25677 h 0.92604 0.92604 v -0.338 -0.338 l 0.46302,-0.65419 0.46302,-0.65418 0.15608,1.32291 0.15609,1.32292 -0.22223,0.0882 -0.22223,0.0882 v 0.50712 0.50712 h 0.36448 0.36448 l 0.33868,-0.40809 0.33868,-0.40809 0.21422,0.21421 0.21421,0.21422 -0.1607,0.6145 -0.16069,0.61451 -0.62439,-0.11936 -0.62439,-0.11936 v 1.53298 1.53298 l 0.46302,0.13146 0.46303,0.13146 1.85208,0.42777 1.85208,0.42776 10.05417,2.08168 10.05417,2.08168 0.19843,0.0228 0.19844,0.0228 z m -13.39489,-3.42154 -0.52916,-0.11571 -1.7198,-0.51854 -1.71979,-0.51854 -0.33343,-0.21059 -0.33342,-0.21058 0.97777,-3.09158 0.97777,-3.09157 h 0.58626 0.58626 l -0.76758,2.55662 -0.76759,2.55662 v 0.32951 0.32951 l 1.58206,0.53427 1.58206,0.53427 0.79919,-2.58983 0.79919,-2.58983 v -0.27935 -0.27936 l -0.7276,-0.26574 -0.7276,-0.26574 0.39687,-0.0249 0.39688,-0.0249 -0.35905,-0.2275 -0.35904,-0.2275 0.17843,-0.5622 0.17844,-0.5622 h 0.24675 0.24676 v 0.79375 0.79375 h 0.37767 0.37767 l 0.54837,0.69714 0.54837,0.69714 v 0.48318 0.48318 l -0.50945,0.47462 -0.50945,0.47462 -0.49465,1.96501 -0.49466,1.965 -0.25266,0.0519 -0.25267,0.0519 z m 10.33385,-0.0598 -0.14842,-0.24014 0.2386,-0.61975 0.2386,-0.61975 0.15879,0.46302 0.15879,0.46302 0.12399,0.39688 0.12399,0.39687 h -0.37296 -0.37296 z m -4.64531,-1.06112 v -0.24295 l 0.1606,-0.41851 0.1606,-0.41852 h 0.23628 0.23627 v 0.66146 0.66146 h -0.39687 -0.39688 z m -2.07278,-0.83135 0.0884,-0.60405 0.35299,-0.11634 0.353,-0.11634 -0.0884,0.60405 -0.0884,0.60406 -0.353,0.11634 -0.35299,0.11634 z m -8.84956,-1.205 -0.16261,-0.16261 0.42243,-0.64472 0.42244,-0.64472 0.25153,0.25154 0.25154,0.25153 -0.17641,0.5558 -0.1764,0.5558 h -0.33495 -0.33495 z m -2.30682,-0.51623 v -0.14969 l 0.27389,-0.51177 0.27389,-0.51177 h 0.25528 0.25527 v 0.66146 0.66146 h -0.52917 -0.52916 z m 21.96041,-1.15159 v -0.24294 l 0.1606,-0.41852 0.1606,-0.41851 h 0.23628 0.23627 v 0.66145 0.66146 h -0.39687 -0.39688 z m -2.11666,-0.6831 v -0.66146 h 0.33073 0.33073 v 0.66146 0.66146 h -0.33073 -0.33073 z m -2.38125,-0.52917 v -0.66145 h 0.42518 0.42518 l -0.1606,0.41851 -0.1606,0.41852 v 0.24294 0.24294 h -0.26458 -0.26458 z m -4.49792,-0.91042 v -0.51355 l 0.28219,-0.1744 0.28218,-0.17441 0.13885,0.13885 0.13885,0.13885 -0.17428,0.5491 -0.17428,0.54911 h -0.24676 -0.24675 z m -2.23392,-0.61093 0.18299,-0.59531 0.0818,-0.0926 0.0818,-0.0926 0.25735,0.15905 0.25735,0.15905 -0.13832,0.5289 -0.13831,0.5289 h -0.38384 -0.38385 z m -6.45345,-1.27272 0.0884,-0.60406 0.353,-0.11634 0.35299,-0.11634 -0.0884,0.60406 -0.0884,0.60406 -0.35299,0.11634 -0.353,0.11634 z m -1.96156,-0.0517 -0.12104,-0.32921 0.11537,-0.33072 0.11536,-0.33073 h 0.35006 0.35006 l -0.13946,0.53329 -0.13946,0.53329 -0.20492,0.12664 -0.20492,0.12665 z m -2.42385,-0.42252 -0.13944,-0.2256 0.36677,-0.50159 0.36677,-0.50158 0.17808,0.17808 0.17808,0.17808 -0.17428,0.54911 -0.17428,0.54911 h -0.23113 -0.23114 z m -3.99138,-0.83035 -0.17931,-0.29014 0.31976,-0.38529 0.31975,-0.38528 h 0.25059 0.25059 l -0.0845,0.57459 -0.0845,0.57459 -0.30649,0.10083 -0.30648,0.10084 z m 25.42192,9.85469 -0.15568,-0.15568 -0.16497,0.16498 -0.16498,0.16498 0.20592,0.47443 0.20593,0.47443 0.11473,-0.48373 0.11473,-0.48373 z m 3.81307,0.46168 v -0.52916 h -0.26458 -0.26458 v 0.52916 0.52917 h 0.26458 0.26458 z m -30.67017,-2.05052 0.0215,-0.19844 0.0808,-0.79375 0.0808,-0.79375 -0.12008,-0.46302 -0.12007,-0.46302 h -0.77592 -0.77592 v 1.30452 1.30451 l 0.59531,0.11466 0.59531,0.11467 0.19844,0.036 0.19844,0.036 z m -0.15378,-13.03073 -0.16353,-0.26458 -0.71199,0.0313 -0.71198,0.0313 0.79375,0.20197 0.79375,0.20198 0.0818,0.0313 0.0818,0.0313 z m -1.9132,-0.43813 -0.32569,-0.13177 -0.46806,0.12197 -0.46805,0.12197 0.79375,0.01 0.79375,0.01 z m -1.73034,-0.25089 -0.15985,-0.15985 -0.34727,0.13897 -0.34726,0.13896 0.50712,0.0209 0.50711,0.0209 z"
           id="path38" /><path
           style="fill:#9e9e9e;fill-opacity:1"
           d="m 471.55208,371.20077 v -7.92435 l 0.4339,-0.24282 0.43389,-0.24282 -0.13047,-1.35783 -0.13047,-1.35782 h 0.35803 0.35804 v -0.51602 -0.51602 l -0.38228,-0.21394 -0.38227,-0.21393 0.44181,-0.91223 0.4418,-0.91223 0.24333,0.84843 0.24333,0.84844 h 0.86188 0.86188 l 0.29166,-0.83666 0.29166,-0.83665 0.19605,0.19604 0.19604,0.19604 10e-4,1.49644 0.001,1.49644 0.46302,0.0896 0.46302,0.0896 v -0.41628 -0.41627 h 0.38835 0.38835 l -0.22257,0.59531 -0.22257,0.59531 -0.56265,-0.0828 -0.56266,-0.0828 v 1.69822 1.69822 l 2.71198,0.55228 2.71198,0.55228 9.75021,1.99947 9.7502,1.99946 h 0.2623 0.26231 l -0.0906,-1.45557 -0.0906,-1.45557 0.21838,3.6e-4 0.21838,3.6e-4 -0.0861,-0.85989 -0.0861,-0.8599 1.4552,0.004 1.45521,0.004 0.15565,-0.21504 0.15565,-0.21503 0.33977,0.4094 0.33977,0.4094 h -0.39843 -0.39843 l -0.11943,0.62477 -0.11943,0.62478 0.41686,-0.0295 0.41687,-0.0295 0.99813,-3.67862 0.99814,-3.67862 -0.0775,-0.0775 -0.0775,-0.0775 -12.42757,-2.38177 -12.42757,-2.38176 -6.74687,-1.27046 -6.74688,-1.27045 -0.0814,-0.83949 -0.0814,-0.8395 0.61055,-0.11666 0.61056,-0.11666 -0.59532,-0.036 -0.59531,-0.036 v -0.66146 -0.66146 h 0.11109 0.11108 l 3.79152,0.55276 3.79152,0.55276 15.08125,3.03004 15.08125,3.03004 0.46302,0.1392 0.46302,0.1392 v 0.49457 0.49457 l 0.72761,0.11591 0.7276,0.11592 -1.32292,-0.0924 -1.32291,-0.0924 0.38422,0.24036 0.38422,0.24035 1.21593,0.16724 1.21593,0.16723 0.30933,0.19118 0.30933,0.19117 -1.7096,6.07521 -1.7096,6.07521 -0.001,0.0661 -10e-4,0.0661 h 0.92604 0.92604 v -0.21945 -0.21944 l 0.59532,0.021 0.59531,0.021 0.027,-0.52916 0.027,-0.52917 0.0578,-0.66146 0.0578,-0.66146 0.22739,0.52917 0.2274,0.52917 0.0226,-0.26459 0.0226,-0.26458 0.24318,0.38442 0.24318,0.38441 -0.14801,0.74006 -0.14801,0.74007 h 4.09742 4.09742 l -0.12717,-0.66527 -0.12717,-0.66527 0.45515,0.17466 0.45515,0.17465 0.23383,-0.36928 0.23383,-0.36928 0.004,-0.59531 0.004,-0.59532 h 0.14968 0.14969 l 0.51177,0.2739 0.51177,0.27389 v -0.80563 -0.80562 l -1.11099,-1.67341 -1.11099,-1.67341 -4.46627,-2.95423 -4.46627,-2.95424 h 0.41904 0.41903 l 4.46664,2.97619 4.46663,2.97619 0.95618,1.47674 0.95617,1.47675 v 6.79186 6.79186 l -5.4901,-0.007 -5.49011,-0.007 0.92604,-0.77951 0.92605,-0.77952 0.21733,-0.007 0.21734,-0.007 0.36879,-0.33073 0.3688,-0.33073 0.46329,-0.39463 0.46329,-0.39462 0.88056,-0.59756 0.88055,-0.59757 h 0.25284 0.25283 v -0.38756 -0.38757 l 0.53658,-0.28717 0.53658,-0.28716 -0.18059,-0.29219 -0.18058,-0.29219 0.27549,0.17026 0.27548,0.17026 0.34369,-0.41413 0.3437,-0.41413 -0.37986,-0.24036 -0.37986,-0.24037 -6.82415,-0.004 -6.82415,-0.004 0.17997,3.57187 0.17997,3.57188 h -0.58432 -0.58432 l 0.186,-3.66413 0.18599,-3.66413 -0.63041,-0.16872 -0.63042,-0.16872 -0.21203,-0.004 -0.21203,-0.004 0.0797,3.83687 0.0797,3.83687 -0.43979,-4.1e-4 -0.43978,-4.1e-4 0.0429,-3.90208 0.0429,-3.90207 -2.91042,-0.58092 -2.91041,-0.58092 -10.41802,-2.13159 -10.41802,-2.13159 h -0.46289 -0.4629 l 0.10479,5.09323 0.10478,5.09323 0.13105,0.81947 0.13106,0.81947 1.05089,0.50345 1.05089,0.50344 0.003,0.19844 0.003,0.19844 h -2.77812 -2.77813 z m 1.88691,3.55873 0.16711,-1.05833 0.0417,-4.16719 0.0417,-4.16719 h -0.65712 -0.65713 l 0.10044,1.65365 0.10045,1.65364 0.0171,3.63803 0.0171,3.63802 0.33073,-0.0661 0.33073,-0.0661 z m 30.61385,-4.66238 -0.35388,-0.22431 -0.48142,-0.004 -0.48143,-0.004 0.0845,0.58447 0.0846,0.58446 0.66146,0.15805 0.66146,0.15805 0.0893,-0.51416 0.0893,-0.51415 z m 15.38883,0.82592 v -0.52916 h -7.27604 -7.27605 v 0.52916 0.52917 h 7.27605 7.27604 z m -17.19792,-0.62493 v -0.62493 l -1.38906,-0.28973 -1.38906,-0.28972 -12.39769,-2.52493 -12.39768,-2.52492 h -0.12228 -0.12228 l 0.0845,0.58537 0.0845,0.58538 13.62604,2.8322 13.62605,2.83221 0.19843,0.022 0.19844,0.022 z m 2.38125,-2.3007 v -1.60271 l -1.12448,0.0814 -1.12448,0.0814 v 1.32291 1.32292 l 0.39688,0.17984 0.39687,0.17984 0.72761,0.0186 0.7276,0.0186 z m -30.89149,-3.55666 -0.12645,-0.66146 h -0.63061 -0.63062 v 0.51077 0.51076 l 0.59532,0.11466 0.59531,0.11467 0.16175,0.036 0.16174,0.036 z m 1.56224,-1.80824 0.0928,-1.14679 -0.0855,-0.44071 -0.0856,-0.44072 h -0.92047 -0.92047 l 0.08,1.37831 0.08,1.37831 0.66146,0.18282 0.66146,0.18282 0.17179,0.0264 0.1718,0.0264 z m -0.56867,-3.08655 v -0.52917 h -0.26458 -0.26458 v 0.52917 0.52917 h 0.26458 0.26458 z m 17.99167,-5.82083 v -0.26459 h -0.2802 -0.2802 l 0.16353,0.26459 0.16352,0.26458 h 0.11667 0.11668 z m -17.72708,-3.4055 v -0.2305 l -1.38907,-0.17907 -1.38906,-0.17906 -1.05833,-0.10896 -1.05833,-0.10896 2.24895,0.49334 2.24896,0.49335 0.19844,0.0252 0.19844,0.0252 z m 33.62297,17.27407 0.0209,-0.50712 0.13896,0.34727 0.13897,0.34727 -0.15986,0.15985 -0.15985,0.15985 z m 10.03328,0.022 v -0.39687 h 0.36448 0.36447 l 0.32938,0.39687 0.32938,0.39688 h -0.69386 -0.69385 z m -5.02303,0.0573 -0.004,-0.20723 0.6772,-1.33639 0.6772,-1.33639 0.40278,0.15456 0.40277,0.15456 h 0.11065 0.11065 v 0.40192 0.40191 l -0.62559,-0.15701 -0.6256,-0.15702 -0.17453,0.45482 -0.17453,0.45482 0.41467,0.45822 0.41468,0.45821 -0.39982,0.15342 -0.39983,0.15343 -0.17384,-0.28127 -0.17383,-0.28128 -0.22746,0.35898 -0.22746,0.35897 z m -12.96864,-2.28467 v -0.24294 l 0.1606,-0.41852 0.1606,-0.41851 h 0.23628 0.23627 v 0.66146 0.66146 h -0.39687 -0.39688 z m -2.03539,-0.31758 -0.31559,-0.38326 0.23506,-0.38034 0.23507,-0.38034 0.16805,0.16806 0.16806,0.16805 -0.0875,0.59555 -0.0875,0.59554 z m -11.19378,-0.14772 -0.66145,-0.10702 -1.52136,-0.55067 -1.52135,-0.55067 v -0.14713 -0.14713 l 0.93514,-2.99561 0.93515,-2.99561 h 0.26378 0.26378 l 0.11638,0.33073 0.11637,0.33073 -0.75776,2.51354 -0.75776,2.51354 1.62527,0.56255 1.62527,0.56255 0.16614,-0.16567 0.16615,-0.16568 0.79466,-2.70039 0.79467,-2.70039 -0.69623,-0.25528 -0.69622,-0.25528 0.53644,-0.0209 0.53644,-0.0209 0.58804,0.41188 0.58804,0.41188 v 0.87864 0.87864 l -0.38126,0.31642 -0.38126,0.31641 -0.58333,1.96494 -0.58332,1.96494 -0.42448,-0.036 -0.42448,-0.036 z m 6.549,-0.94692 -0.12105,-0.32921 0.11537,-0.33073 0.11536,-0.33073 h 0.24254 0.24253 v 0.51355 0.51356 l -0.23685,0.14638 -0.23686,0.14639 z m -2.31161,-0.52765 0.004,-0.33073 0.24615,-0.38921 0.24614,-0.38921 0.17084,0.17084 0.17083,0.17083 -0.17428,0.54911 -0.17428,0.5491 h -0.24675 -0.24675 z m 19.31053,0.0661 v -0.26458 h 0.26458 0.26459 v 0.26458 0.26458 h -0.26459 -0.26458 z m -27.78125,-1.96876 v -0.38126 l 0.28219,-0.1744 0.28218,-0.1744 0.12092,0.12091 0.12092,0.12092 -0.16683,0.43475 -0.16683,0.43474 h -0.23627 -0.23628 z m -2.18226,-0.21557 -0.12104,-0.32921 0.11537,-0.33073 0.11536,-0.33073 h 0.24254 0.24253 v 0.51355 0.51355 l -0.23686,0.14639 -0.23686,0.14639 z m 21.69211,-0.90147 -0.12905,-0.22149 0.20308,-0.52917 0.20307,-0.52917 0.19583,0.48081 0.19582,0.48081 -0.26985,0.26985 -0.26986,0.26985 z m -2.31193,-0.88295 v -0.52917 h 0.3721 0.37211 l -0.13838,0.52917 -0.13838,0.52917 h -0.23373 -0.23372 z m -2.33451,-0.4411 0.0856,-0.44109 0.30991,-0.10318 0.30991,-0.10318 -0.14233,0.54427 -0.14233,0.54428 h -0.25313 -0.25312 z m -4.54466,-0.59559 v -0.24295 l 0.16002,-0.41699 0.16001,-0.417 0.21202,0.13104 0.21202,0.13103 -0.13831,0.52891 -0.13831,0.5289 h -0.23372 -0.23373 z m -2.11667,-0.81539 v -0.52917 h 0.26459 0.26458 v 0.52917 0.52916 h -0.26458 -0.26459 z m -2.72299,-0.16536 -0.15096,-0.15096 0.14237,-0.37101 0.14237,-0.37101 h 0.23627 0.23628 v 0.38126 0.38126 l -0.22768,0.14072 -0.22768,0.14071 z m -3.88754,-0.95912 0.004,-0.33073 0.22746,-0.35898 0.22746,-0.35898 0.16622,0.26896 0.16623,0.26895 -0.16146,0.42075 -0.16146,0.42076 h -0.23627 -0.23628 z m -1.85613,-0.72761 v -0.52916 h 0.26458 0.26458 v 0.52916 0.52917 h -0.26458 -0.26458 z m -2.38125,-0.24897 v -0.51355 l 0.28218,-0.1744 0.28219,-0.1744 0.10419,0.1042 0.1042,0.10419 -0.15266,0.58376 -0.15265,0.58376 h -0.23373 -0.23372 z m -3.80425,-0.49265 -0.16622,-0.26896 0.16146,-0.42075 0.16146,-0.42075 h 0.23627 0.23628 l -0.004,0.33073 -0.004,0.33073 -0.22746,0.35897 -0.22745,0.35898 z"
           id="path37" /><path
           style="fill:#8c8c8c;fill-opacity:1"
           d="m 471.81667,371.18763 v -7.9375 l 0.33073,0.0661 0.33073,0.0662 -0.003,-1.65452 -0.003,-1.65452 0.26721,0.0879 0.26721,0.0879 0.0802,1.5289 0.0802,1.5289 0.51511,0.1347 0.51512,0.13471 v 0.22717 0.22718 l -0.70709,-0.26883 -0.70708,-0.26884 -0.35125,0.13479 -0.35125,0.13478 v 0.41173 0.41173 l 0.67868,0.25803 0.67869,0.25804 h 0.22795 0.22796 l 0.121,-0.46302 0.121,-0.46302 0.0307,0.59531 0.0307,0.59531 h 0.41455 0.41455 l 14.82702,3.04271 14.82701,3.04271 h 7.50407 7.50408 l -0.21175,-0.57242 -0.21175,-0.57241 -3.81462,-0.065 -3.81462,-0.065 -1.45521,-0.028 -1.45521,-0.0279 0.66146,-0.33548 0.66146,-0.33549 0.0356,-0.38822 0.0356,-0.38822 0.0612,-0.79375 0.0612,-0.79375 0.1322,0.52917 0.13221,0.52917 0.24423,0.15424 0.24423,0.15425 -0.26829,0.70565 -0.26829,0.70565 h 4.37647 4.37647 l 0.51178,-0.27389 0.51177,-0.2739 v -1.06463 -1.06464 l 0.33073,0.20661 0.33073,0.20661 0.33073,0.0502 0.33072,0.0502 v -0.91272 -0.91273 l -1.0176,-1.60049 -1.0176,-1.6005 -4.60479,-3.06075 -4.6048,-3.06075 0.54395,0.13522 0.54394,0.13522 4.35426,2.91055 4.35426,2.91055 0.98877,1.48921 0.98878,1.48921 v 6.75094 6.75095 h -0.26458 -0.26459 v -3.59028 -3.59028 l -0.59531,0.0845 -0.59531,0.0846 0.0427,3.50573 0.0427,3.50573 h -0.50575 -0.50574 v -3.57188 -3.57187 h -7.27604 -7.27605 v 3.57187 3.57188 h -0.26458 -0.26458 v -3.67586 -3.67586 l -0.41852,-0.1606 -0.41851,-0.1606 h -0.53667 -0.53668 l 0.0998,3.83646 0.0998,3.83646 h -0.20297 -0.20297 v -3.96875 -3.96875 h -0.23196 -0.23196 l -9.0946,-1.8559 -9.0946,-1.8559 -4.55837,-0.92223 -4.55836,-0.92222 h -0.17032 -0.17031 l 0.18171,5.75468 0.18171,5.75469 0.044,0.92604 0.044,0.92604 h -0.39179 -0.39179 v -6.74687 -6.74688 l -0.84092,-0.0815 -0.84092,-0.0815 0.11625,4.7117 0.11625,4.7117 0.1166,2.18281 0.11661,2.18282 h -0.38412 -0.38412 z m 49.74166,-0.42519 v -0.68976 l -0.41851,0.1606 -0.41851,0.1606 h -0.24295 -0.24294 v 0.52916 0.52917 h 0.66146 0.66145 z m -0.0812,-1.88488 -0.12197,-0.46806 -0.01,0.79375 -0.01,0.79375 0.13177,-0.32569 0.13178,-0.3257 z m -17.09992,1.71475 -0.0168,-0.7276 0.19844,-5e-5 0.19843,-5e-5 0.0832,-1.38395 0.0832,-1.38394 0.31367,-0.2035 0.31366,-0.20351 -0.39687,-0.26053 -0.39688,-0.26053 0.40456,-0.004 0.40456,-0.004 0.99585,-3.73692 0.99584,-3.73692 -0.10574,-0.10574 -0.10574,-0.10574 -15.71446,-3.00584 -15.71445,-3.00583 -3.37344,-0.61314 -3.37344,-0.61313 v -0.87275 -0.87274 h 0.0667 0.0667 l 2.77708,0.52917 2.77708,0.52917 h 0.0667 0.0667 v -0.23415 -0.23414 l -2.18282,-0.30739 -2.18281,-0.30738 -0.85989,-0.14938 -0.8599,-0.14937 v -0.65304 -0.65303 l 0.7276,0.14993 0.72761,0.14994 3.57187,0.54346 3.57188,0.54346 9.39271,1.8514 9.39271,1.8514 2.51354,0.51223 2.51354,0.51224 2.64583,0.53946 2.64584,0.53945 0.59531,0.13374 0.59531,0.13375 v 0.50572 0.50573 l 0.46302,0.1087 0.46302,0.10871 -1.19062,-0.10463 -1.19063,-0.10462 0.39688,0.24937 0.39687,0.24937 1.33557,0.1793 1.33557,0.17929 0.3045,0.18819 0.3045,0.18819 -1.70068,5.9459 -1.70068,5.9459 -0.006,0.19844 -0.006,0.19844 h 0.83785 0.83785 l -0.1812,0.1812 -0.1812,0.18119 -1.72596,-0.0423 -1.72596,-0.0423 -0.23683,0.58869 -0.23684,0.58869 z m -11.65844,-16.86718 v -0.26459 h -0.26458 -0.26459 v 0.26459 0.26458 h 0.26459 0.26458 z m 9.12813,15.89606 -0.52917,-0.20999 -3.63878,-0.74262 -3.63879,-0.74262 0.1132,-0.11321 0.1132,-0.1132 4.8485,0.98477 4.8485,0.98476 0.11025,0.0978 0.11024,0.0978 -0.90399,-0.0168 -0.904,-0.0168 z m 0.18123,-2.60075 -0.0489,-2.18281 0.0661,-0.19844 0.0662,-0.19844 1.05833,-0.0188 1.05834,-0.0188 0.62045,0.11991 0.62045,0.11992 -0.30731,0.18993 -0.30732,0.18993 -0.0944,0.50268 -0.0945,0.50268 -0.0202,0.19844 -0.0202,0.19844 h -1.1768 -1.1768 l -0.0972,1.38906 -0.0972,1.38906 z m 1.80314,-1.25677 v -0.39688 h -0.10398 -0.10399 l -0.15229,0.39688 -0.1523,0.39687 h 0.25628 0.25628 z m 4.78339,1.83003 0.0209,-0.50712 0.13896,0.34727 0.13897,0.34727 -0.15986,0.15985 -0.15985,0.15985 z m 10.29786,0.16265 v -0.25628 l 0.39688,0.15229 0.39687,0.1523 v 0.10398 0.10399 h -0.39687 -0.39688 z m -26.9875,-0.27289 -0.66146,-0.21184 0.52917,0.005 0.52917,0.005 0.79375,0.20198 0.79375,0.20197 -0.66146,0.005 -0.66146,0.005 z m 22.09271,-0.26458 -0.16352,-0.26459 h 0.39687 0.39688 l 0.16352,0.26459 0.16352,0.26458 h -0.39687 -0.39688 z m -23.74636,-0.17523 0.33073,-0.13345 0.33073,0.13345 0.33073,0.13345 h -0.66146 -0.66145 z m -1.04179,-0.2701 0.34726,-0.13896 0.15986,0.15985 0.15985,0.15985 -0.50712,-0.0209 -0.50712,-0.0209 z m -1.32292,-0.26458 0.34727,-0.13897 0.15985,0.15986 0.15985,0.15985 -0.50712,-0.0209 -0.50711,-0.0209 z m -3.59837,-0.54442 -1.92818,-0.40145 0.12009,-0.1201 0.12009,-0.12009 2.20497,0.44669 2.20497,0.4467 0.11024,0.10441 0.11024,0.10442 -0.50711,-0.0296 -0.50712,-0.0296 z m 16.35203,-0.53161 0.004,-0.19844 0.24615,-0.38921 0.24615,-0.38921 0.1529,0.1529 0.15291,0.15291 -0.16683,0.43474 -0.16683,0.43475 h -0.23627 -0.23628 z m 14.44387,-0.22055 -0.16078,-0.41898 0.31437,0.10479 0.31438,0.10479 0.10473,0.31419 0.10473,0.3142 h -0.25833 -0.25832 z m -33.82865,-0.0208 0.33073,-0.13345 0.33073,0.13345 0.33073,0.13346 h -0.66146 -0.66146 z m -4.29948,-0.71369 -2.64583,-0.56111 0.59531,-0.0871 0.59531,-0.0871 v -1.40656 -1.40657 l -0.39524,-0.75784 -0.39525,-0.75785 -0.002,-0.32142 -0.002,-0.32142 0.51311,-0.27461 0.51311,-0.27461 0.13673,0.22124 0.13674,0.22124 -0.0925,2.38917 -0.0925,2.38917 0.17024,0.27107 0.17024,0.27107 2.24896,0.45441 2.24896,0.4544 0.11024,0.10442 0.11024,0.10441 -0.6394,-0.0316 -0.63941,-0.0316 z m 10.31875,0.35395 -1.05833,-0.20932 -1.12448,-0.45033 -1.12448,-0.45033 0.008,-0.16971 0.008,-0.16971 0.5407,-1.85209 0.5407,-1.85208 0.30001,-0.99219 0.3,-0.99218 h 0.34222 0.34221 v 0.0892 0.0892 l -0.78381,2.61066 -0.78381,2.61066 0.069,0.069 0.069,0.069 1.69566,0.52775 1.69566,0.52775 0.0304,-0.0555 0.0304,-0.0555 0.73502,-2.49467 0.73501,-2.49467 0.1335,-0.3479 0.1335,-0.3479 -0.62296,-0.24951 -0.62297,-0.24952 0.46302,-0.0168 0.46302,-0.0168 0.52917,0.52917 0.52917,0.52916 v 0.62045 0.62046 l -0.52917,0.47888 -0.52917,0.47889 -0.0205,0.55431 -0.0205,0.5543 -0.45992,1.30667 -0.45991,1.30667 -0.24718,0.0519 -0.24718,0.0519 z m 11.24479,-0.24316 v -0.54478 h 0.26459 0.26458 v 0.38126 0.38126 l -0.26458,0.16352 -0.26459,0.16352 z m -4.49386,-0.87551 -0.004,-0.72761 h 0.26458 0.26458 l -0.004,0.33073 -0.004,0.33073 -0.25648,0.39688 -0.25648,0.39687 z m -2.25172,-0.19635 -0.16222,-0.26248 0.27086,-0.46512 0.27085,-0.46512 0.008,0.72761 0.008,0.7276 h -0.11667 -0.11668 z m -8.60025,-1.97085 v -0.38126 l 0.26458,-0.16352 0.26459,-0.16352 v 0.54478 0.54478 h -0.26459 -0.26458 z m -2.11667,-0.66146 v -0.54478 h 0.26459 0.26458 v 0.38126 0.38126 l -0.26458,0.16352 -0.26459,0.16352 z m -3.96875,-0.64584 v -0.39688 l 0.26459,-0.16352 0.26458,-0.16352 v 0.39687 0.39688 l -0.26458,0.16352 -0.26459,0.16352 z m 25.66864,-0.0974 -0.004,-0.59531 h 0.26458 0.26458 l -0.004,0.19844 -0.004,0.19843 -0.25648,0.39688 -0.25648,0.39687 z m -29.63739,-0.44987 v -0.64831 l -0.36467,-0.21159 -0.36467,-0.21158 0.27827,-0.66146 0.27827,-0.66146 0.1048,0.59531 0.10481,0.59532 h 0.51076 0.51077 v 0.92604 0.92604 h -0.52917 -0.52917 z m 27.25209,0.0181 v -0.39687 l 0.26458,-0.16353 0.26458,-0.16352 v 0.39688 0.39687 l -0.26458,0.16352 -0.26458,0.16353 z m -2.27727,-0.58204 0.1606,-0.41851 v -0.11065 -0.11065 h 0.23981 0.23982 l -0.13838,0.52916 -0.13838,0.52917 h -0.26204 -0.26203 z m -4.6019,-0.74088 v -0.39687 l 0.26458,-0.16352 0.26459,-0.16352 v 0.39687 0.39688 l -0.26459,0.16352 -0.26458,0.16352 z m -2.11667,-0.67707 v -0.54478 h 0.26459 0.26458 v 0.38126 0.38126 l -0.26458,0.16352 -0.26459,0.16352 z m -2.64585,-0.5292 v -0.54478 h 0.26458 0.26459 v 0.38126 0.38126 l -0.26459,0.16352 -0.26458,0.16353 z m -3.9647,-0.47863 0.004,-0.19844 0.24615,-0.38921 0.24614,-0.38921 0.15291,0.1529 0.15291,0.15291 -0.16683,0.43474 -0.16683,0.43475 h -0.23627 -0.23628 z m -1.85613,-0.69638 v -0.39687 l 0.26458,-0.16352 0.26458,-0.16352 v 0.39687 0.39688 l -0.26458,0.16352 -0.26458,0.16352 z m -2.3772,-0.36195 0.004,-0.19844 0.24615,-0.38921 0.24614,-0.38922 0.15291,0.15291 0.1529,0.1529 -0.16682,0.43475 -0.16683,0.43474 h -0.23628 -0.23627 z m -3.96875,-0.79375 0.004,-0.19844 0.24615,-0.38921 0.24614,-0.38922 0.17937,0.17937 0.17936,0.17936 -0.15667,0.40829 -0.15668,0.40828 h -0.27289 -0.27288 z"
           id="path36" /><path
           style="fill:#7a7a7a;fill-opacity:1"
           d="m 471.8667,374.56106 0.05,-4.56406 0.0793,1.45521 0.0793,1.45521 0.0691,3.10937 0.0691,3.10938 -0.19844,-5.2e-4 -0.19843,-5.2e-4 z m 2.15793,4.15578 -0.15667,-0.40829 0.13138,-0.13137 0.13137,-0.13138 0.14113,0.53967 0.14112,0.53966 h -0.11583 -0.11582 z m 45.64823,0.20985 -0.0334,-0.19844 0.0586,-3.37344 0.0586,-3.37343 -3.5309,-0.0149 -3.5309,-0.0149 -4.16694,-0.0513 -4.16693,-0.0513 -2.5e-4,-0.19843 -2.5e-4,-0.19844 h 7.67291 7.67292 v -0.66146 -0.66146 l -4.16719,-0.0587 -4.16718,-0.0587 4.08254,-0.0807 4.08255,-0.0807 0.34922,-0.28983 0.34923,-0.28983 v -0.61345 -0.61344 l 0.28764,-0.17777 0.28763,-0.17777 0.29814,0.29814 0.29815,0.29814 -0.29822,0.79005 -0.29821,0.79006 h 0.37389 0.37389 v -2.03208 -2.03207 l -1.08174,-1.66033 -1.08175,-1.66033 -4.33564,-2.84055 -4.33564,-2.84056 0.0939,-0.0939 0.0939,-0.0939 4.50958,2.93954 4.50958,2.93955 1.07846,1.65527 1.07845,1.65528 v 6.66228 6.66229 h -0.29125 -0.29125 l 0.0928,-3.63802 0.0928,-3.63803 -0.33073,0.0265 -0.33073,0.0265 -0.41053,0.0397 -0.41053,0.0397 0.0283,3.10885 0.0283,3.10885 -0.0146,0.46303 -0.0146,0.46302 h -0.26459 -0.26458 z m 2.15006,-8.13594 v -0.66146 h -0.76291 -0.7629 l -0.12645,0.66146 -0.12644,0.66146 h 0.88935 0.88935 z m -17.36245,5.15938 v -3.04271 l 0.0955,1.52135 0.0955,1.52136 -0.0955,1.52135 -0.0955,1.52135 z m -30.48536,1.32291 v -0.66146 l 0.13345,0.33073 0.13345,0.33073 -0.13345,0.33073 -0.13345,0.33073 z m 28.26864,-6.08541 v -0.26459 h 0.26458 0.26459 v 0.26459 0.26458 h -0.26459 -0.26458 z m 1.00872,0.0838 0.34727,-0.13897 0.15985,0.15986 0.15986,0.15985 -0.50712,-0.0209 -0.50712,-0.0209 z m -2.59622,-0.34843 -0.66146,-0.21183 0.52917,-0.008 0.52917,-0.008 0.52916,0.22739 0.52917,0.22739 -0.39688,-0.008 -0.39687,-0.008 z m -1.65364,-0.43981 0.33072,-0.13345 0.33073,0.13345 0.33073,0.13345 h -0.66146 -0.66145 z m -1.32292,-0.26458 0.33073,-0.13345 0.33073,0.13345 0.33073,0.13345 h -0.66146 -0.66146 z m -2.05052,-0.35394 -0.66146,-0.21184 h 0.52917 0.52916 l 0.66146,0.21184 0.66146,0.21184 h -0.52917 -0.52916 z m 8.92969,0.0876 0.33072,-0.13173 -0.002,-0.57326 -0.002,-0.57327 1.35236,-4.97782 1.35236,-4.97781 -0.13539,-0.13539 -0.13539,-0.13539 -19.00797,-3.62495 -19.00797,-3.62495 -0.0829,-0.85299 -0.0829,-0.85299 h 0.11993 0.11993 l 2.57179,0.52917 2.57179,0.52917 h 0.23546 0.23546 v -0.23587 -0.23586 l -3.04271,-0.45996 -3.04271,-0.45995 v -0.45071 -0.45071 l 0.1355,-0.1355 0.13549,-0.13549 3.23794,0.4862 3.23795,0.48621 6.2177,1.21115 6.21771,1.21116 9.26042,1.8446 9.26042,1.84461 0.46302,0.13914 0.46302,0.13914 v 0.51133 0.51134 l -0.59531,0.0179 -0.59532,0.0179 0.52917,0.23438 0.52917,0.23438 1.53612,0.29871 1.53613,0.2987 -0.11134,0.30891 -0.11135,0.3089 -1.68937,5.98492 -1.68936,5.98492 -1.32292,0.0117 -1.32291,0.0117 z M 501.45,355.46053 v -0.11667 l -0.26458,-0.16353 -0.26459,-0.16352 v 0.2802 0.2802 h 0.26459 0.26458 z m -8.73125,-1.7354 v -0.26459 h -0.26458 -0.26459 v 0.26459 0.26458 h 0.26459 0.26458 z m -8.99583,-1.70418 v -0.11668 l -0.26459,-0.16352 -0.26458,-0.16352 v 0.2802 0.2802 h 0.26458 0.26459 z m 23.76289,17.9276 0.34726,-0.13896 0.15986,0.15985 0.15985,0.15985 -0.50712,-0.0209 -0.50712,-0.0209 z m 2.23687,-0.28228 0.4172,-0.46302 0.0979,-0.92604 0.0979,-0.92604 0.22227,1.02116 0.22227,1.02116 -0.3294,0.20358 -0.32941,0.20358 0.36067,0.14343 0.36067,0.14344 -0.76861,0.0209 -0.76861,0.0209 z m -37.85443,-0.46302 0.01,-0.79375 0.12197,0.46806 0.12197,0.46805 -0.13177,0.3257 -0.13178,0.32569 z m 22.10727,0.22165 0.33073,-0.13345 0.33073,0.13345 0.33073,0.13345 h -0.66146 -0.66146 z m -1.32292,-0.26459 0.33073,-0.13345 0.33073,0.13345 0.33073,0.13346 h -0.66146 -0.66145 z m -2.3151,-0.35393 -0.66146,-0.21184 0.52917,0.005 0.52917,0.005 0.79375,0.20198 0.79375,0.20197 -0.66146,0.005 -0.66146,0.005 z m -1.65365,-0.43982 0.33073,-0.13345 0.33073,0.13345 0.33073,0.13346 h -0.66146 -0.66145 z m -16.8463,-0.50827 0.0209,-0.50712 0.13897,0.34726 0.13896,0.34727 -0.15985,0.15985 -0.15985,0.15985 z m 15.80451,0.23818 0.34726,-0.13897 0.15986,0.15986 0.15985,0.15985 -0.50712,-0.0209 -0.50712,-0.0209 z m -1.60404,-0.25907 0.33073,-0.13345 0.33073,0.13345 0.33073,0.13345 h -0.66146 -0.66146 z m -1.32292,-0.26459 0.33073,-0.13345 0.33073,0.13345 0.33073,0.13346 h -0.66146 -0.66145 z m -1.04179,-0.27009 0.34726,-0.13897 0.15986,0.15986 0.15985,0.15985 -0.50712,-0.0209 -0.50712,-0.0209 z m 30.60898,-0.0838 0.16352,-0.26459 h 0.11668 0.11668 v 0.26459 0.26458 h -0.2802 -0.2802 z m -32.94062,-0.26459 -0.66146,-0.21183 0.52917,0.005 0.52916,0.005 0.79375,0.20197 0.79375,0.20198 -0.66146,0.005 -0.66145,0.005 z m -9.48323,-0.52916 v -0.66146 l 0.13346,0.33073 0.13345,0.33073 -0.13345,0.33073 -0.13346,0.33072 z m 6.83739,0 -0.66145,-0.21184 0.52916,0.005 0.52917,0.005 0.79375,0.20198 0.79375,0.20197 -0.66146,0.005 -0.66146,0.005 z m 23.74944,-0.18713 0.5984,-0.11507 0.45994,0.12041 0.45993,0.1204 -1.05833,-0.005 -1.05833,-0.005 z m -25.40308,-0.25269 0.33073,-0.13345 0.33073,0.13345 0.33073,0.13346 h -0.66146 -0.66146 z m -2.05052,-0.35393 -0.66146,-0.21184 h 0.52917 0.52916 l 0.66146,0.21184 0.66146,0.21183 h -0.52917 -0.52916 z m 26.9875,-0.38126 v -0.64585 l 0.28485,-0.17604 0.28484,-0.17605 0.50891,0.54624 0.5089,0.54625 v 0.27564 0.27565 h -0.79375 -0.79375 z m 1.78986,-0.002 -0.12391,-0.64821 0.37929,-0.14554 0.37929,-0.14555 h 0.11065 0.11065 v 0.79375 0.79375 h -0.36603 -0.36603 z m -30.10028,0.11903 -0.39687,-0.25648 0.46302,-0.004 0.46302,-0.004 v 0.26458 0.26459 l -0.0661,-0.004 -0.0661,-0.004 z m 27.29386,-0.26458 v -0.66146 l 0.13345,0.33073 0.13345,0.33073 -0.13345,0.33073 -0.13345,0.33073 z m 14.24572,0.26458 v -0.26458 h 0.26459 0.26458 v 0.26458 0.26459 h -0.26458 -0.26459 z m -43.37078,-0.41892 0.0209,-0.50712 0.13897,0.34727 0.13896,0.34726 -0.15985,0.15985 -0.15985,0.15986 z m 26.70203,-0.22692 v -0.41249 h 0.26459 0.26458 v 0.24897 0.24897 l -0.26458,0.16352 -0.26459,0.16352 z m -19.62877,-0.0641 0.34726,-0.13897 0.15986,0.15985 0.15985,0.15986 -0.50712,-0.0209 -0.50712,-0.0209 z m 7.02241,-0.24991 -1.09699,-0.38888 -0.12009,-0.45922 -0.12009,-0.45923 1.92352,0.66391 1.92353,0.66391 -0.12675,0.20508 -0.12675,0.20508 -0.57969,-0.0209 -0.5797,-0.0209 z m -8.34533,-0.0147 0.34727,-0.13896 0.15985,0.15985 0.15985,0.15985 -0.50712,-0.0209 -0.50711,-0.0209 z m -1.32292,-0.26458 0.34727,-0.13897 0.15985,0.15986 0.15985,0.15985 -0.50711,-0.0209 -0.50712,-0.0209 z m -1.33945,-0.25907 0.33073,-0.13345 0.33073,0.13345 0.33073,0.13345 h -0.66146 -0.66146 z m 13.63629,-0.23399 0.1462,-0.51683 0.17112,-0.59531 0.17111,-0.59531 h 0.3725 0.3725 l -0.25907,0.68138 -0.25906,0.68139 -0.43075,0.43075 -0.43076,0.43076 z m 5.47986,-0.003 v -0.41249 l 0.2689,0.16619 0.2689,0.16618 -0.15223,0.2463 -0.15222,0.24631 h -0.11668 -0.11667 z m -20.42253,-0.0328 0.34727,-0.13896 0.15985,0.15985 0.15985,0.15985 -0.50712,-0.0209 -0.50711,-0.0209 z m -1.05833,-0.26458 0.34726,-0.13897 0.15986,0.15986 0.15985,0.15985 -0.50712,-0.0209 -0.50712,-0.0209 z m 19.09961,-0.0682 v -0.24897 l 0.26458,-0.16352 0.26458,-0.16352 v 0.41249 0.41249 h -0.26458 -0.26458 z m -8.46667,-1.5875 v -0.24897 l 0.26458,-0.16352 0.26459,-0.16352 v 0.41249 0.41249 h -0.26459 -0.26458 z m -2.11667,-0.66146 v -0.41249 h 0.26459 0.26458 v 0.24897 0.24897 l -0.26458,0.16352 -0.26459,0.16352 z m 8.31286,-0.28864 0.18243,-0.72687 0.38359,-0.82297 0.38359,-0.82297 -0.0978,0.73392 -0.0978,0.73392 0.2291,0.14159 0.2291,0.1416 0.0209,-0.47864 0.0209,-0.47864 0.12856,0.31607 0.12857,0.31606 -0.28781,0.53777 -0.28781,0.53777 -0.55893,0.29913 -0.55894,0.29913 z m -16.82913,-0.30459 0.34726,-0.13896 0.15986,0.15985 0.15985,0.15985 -0.50712,-0.0209 -0.50712,-0.0209 z m 2.60538,-0.0177 -0.1213,-0.19844 -0.0928,-0.79375 -0.0928,-0.79375 h 0.5031 0.5031 l 0.0405,0.99219 0.0405,0.99218 h -0.32955 -0.32955 z m 1.94214,-0.18283 v -0.41249 h 0.26459 0.26458 v 0.24897 0.24897 l -0.26458,0.16352 -0.26459,0.16352 z m 25.66459,-0.1479 v -0.52917 h 0.23981 0.23981 l -0.13838,0.52917 -0.13838,0.52916 h -0.10143 -0.10143 z m -29.48834,-0.0442 -0.11986,-0.35273 -0.0787,-0.52917 -0.0787,-0.52916 0.61363,-0.087 0.61363,-0.087 -0.0845,0.86032 -0.0845,0.86033 -0.33059,0.10852 -0.33059,0.10852 z m 27.10709,-0.3215 v -0.39687 l 0.26458,-0.16353 0.26458,-0.16352 v 0.39688 0.39687 l -0.26458,0.16352 -0.26458,0.16353 z m -2.3772,-0.36196 0.004,-0.19844 0.25648,-0.39687 0.25648,-0.39688 0.004,0.59532 0.004,0.59531 h -0.26458 -0.26458 z m -4.50197,-1.10886 v -0.24897 l 0.26458,-0.16352 0.26459,-0.16352 v 0.41249 0.41249 h -0.26459 -0.26458 z m -2.11667,-0.38126 v -0.39688 l 0.26459,-0.16352 0.26458,-0.16352 v 0.39687 0.39688 l -0.26458,0.16352 -0.26459,0.16352 z M 488.75,357.32823 v -0.39687 l 0.26458,-0.16353 0.26459,-0.16352 v 0.39688 0.39687 l -0.26459,0.16352 -0.26458,0.16353 z m -3.77336,-0.59059 -0.16047,-0.25965 0.23274,-0.37658 0.23273,-0.37658 0.11347,0.12463 0.11347,0.12462 -0.18573,0.51161 -0.18573,0.5116 z m -2.04342,-0.5495 0.004,-0.21406 0.25648,-0.39687 0.25648,-0.39688 0.004,0.44741 0.004,0.44741 -0.26458,0.16352 -0.26458,0.16352 z m -2.38125,-0.54478 0.004,-0.19844 0.25648,-0.39688 0.25648,-0.39687 0.004,0.59531 0.004,0.59531 h -0.26458 -0.26458 z m -3.70822,-1.08039 v -0.57326 h 0.24117 0.24117 l -0.0571,0.38922 -0.0571,0.38921 -0.18404,0.18405 -0.18405,0.18405 z"
           id="path35" /><path
           style="fill:#686868;fill-opacity:1"
           d="m 519.70625,375.28867 v -3.83646 l 0.99219,0.0396 0.99219,0.0396 -0.72761,0.11022 -0.7276,0.11022 -0.0182,0.31316 -0.0182,0.31315 0.0244,3.37344 0.0244,3.37344 h -0.27078 -0.27079 z m 2.06197,-0.74928 0.0776,-4.58639 -0.8052,0.11818 -0.80519,0.11817 -0.0313,0.3007 -0.0313,0.3007 0.0313,0.19844 0.0313,0.19844 h -0.26459 -0.26458 v -0.60855 -0.60854 l 0.24218,-0.25135 0.24218,-0.25136 0.0886,-0.64073 0.0885,-0.64073 0.33073,-0.10892 0.33073,-0.10892 v 0.79375 0.79375 l -0.33073,0.13345 -0.33073,0.13345 0.59531,0.0209 0.59531,0.0209 v -2.02126 -2.02126 l -0.8226,-1.35218 -0.82261,-1.35218 -0.56645,-0.64018 -0.56646,-0.64018 0.63008,0.42486 0.63009,0.42487 1.02272,1.53823 1.02272,1.53824 8.4e-4,6.68073 8.4e-4,6.68073 -0.19844,3.2e-4 -0.19843,3.3e-4 z m -49.93067,3.90223 0.0209,-0.50712 0.13897,0.34727 0.13896,0.34726 -0.15985,0.15985 -0.15985,0.15986 z m 32.73784,-6.90557 0.34727,-0.13896 0.15985,0.15985 0.15985,0.15985 -0.50712,-0.0209 -0.50711,-0.0209 z m 7.14129,-0.0168 2.72605,-0.0859 2.56562,0.0863 2.56561,0.0863 -5.29167,-4.2e-4 -5.29166,-4.3e-4 z m -1.91949,-1.67531 0.17633,-0.28531 0.21994,-0.70688 0.21994,-0.70687 -0.0379,0.99219 -0.0379,0.99218 h -0.35841 -0.35842 z m 4.02208,0.0889 1.91823,-0.0913 1.91823,0.0913 1.91823,0.0913 h -3.83646 -3.83646 z m -8.92969,-0.65674 v -0.56631 l 1.3589,-4.9869 1.35891,-4.98691 -0.15536,-0.15535 -0.15535,-0.15536 -9.60407,-1.83912 -9.60407,-1.83913 -9.39271,-1.78131 -9.3927,-1.7813 -0.0847,-0.87002 -0.0847,-0.87002 0.48155,0.13983 0.48156,0.13983 2.34505,0.42719 2.34506,0.42719 0.14644,-0.14643 0.14643,-0.14644 -0.12106,-0.12106 -0.12105,-0.12105 -2.8169,-0.43873 -2.8169,-0.43872 -0.14971,-0.39014 -0.14971,-0.39013 0.12035,-0.19473 0.12034,-0.19472 3.78312,0.58877 3.78312,0.58877 3.57187,0.70574 3.57188,0.70574 4.7625,0.91971 4.7625,0.91972 6.61458,1.32565 6.61459,1.32565 0.46302,0.13614 0.46302,0.13614 v 0.51133 0.51134 l -0.59531,0.004 -0.59532,0.004 0.38422,0.24306 0.38423,0.24306 1.24896,0.17178 1.24896,0.17178 0.37669,0.30871 0.3767,0.30872 -1.74749,5.95312 -1.74749,5.95313 -0.98999,0.055 -0.99,0.055 z M 501.45,355.46053 v -0.11667 l -0.26458,-0.16353 -0.26459,-0.16352 v 0.2802 0.2802 h 0.26459 0.26458 z m -8.73125,-1.7354 v -0.26459 h -0.26458 -0.26459 v 0.26459 0.26458 h 0.26459 0.26458 z m -8.99583,-1.85209 v -0.26458 h -0.26459 -0.26458 v 0.26458 0.26459 h 0.26458 0.26459 z m 18.25625,13.36146 v -0.66146 h 0.52086 0.52086 l -0.15229,0.39688 -0.1523,0.39687 h 0.42519 0.42518 v 0.26459 0.26458 h -0.79375 -0.79375 z m 1.85208,0 v -0.66146 h 0.39688 0.39687 v 0.66146 0.66146 h -0.39687 -0.39688 z m -29.15378,0.21614 0.34727,-0.13897 0.15985,0.15985 0.15985,0.15986 -0.50711,-0.0209 -0.50712,-0.0209 z m 23.883,-0.76735 0.0209,-0.50712 0.13896,0.34726 0.13897,0.34727 -0.15985,0.15985 -0.15986,0.15985 z m -12.39016,-0.28664 -1.12448,-0.39687 v -0.35872 -0.35871 l 1.31479,0.44691 1.31478,0.44691 -0.0249,0.19844 -0.0249,0.19843 -0.16536,0.11025 -0.16537,0.11024 z m 7.87136,-0.61736 v -0.26458 h 0.2802 0.28019 l -0.16352,0.26458 -0.16352,0.26459 h -0.11668 -0.11667 z m -5.20154,-0.91158 0.17445,-0.45461 v -0.24295 -0.24294 h 0.28299 0.28298 l -0.0845,0.57459 -0.0846,0.57459 -0.37289,0.12297 -0.37289,0.12297 z m -5.51409,-1.46967 0.16352,-0.26458 h 0.11668 0.11668 v 0.26458 0.26459 h -0.2802 -0.2802 z m -2.24896,-0.41249 v -0.41249 l 0.2689,0.16619 0.2689,0.16619 -0.15222,0.2463 -0.15222,0.2463 h -0.11668 -0.11668 z m 8.38714,-0.37027 0.1434,-0.5484 0.2549,-0.15754 0.2549,-0.15753 -0.0884,0.60395 -0.0884,0.60396 -0.30991,0.10198 -0.30991,0.10198 z m 24.28891,-1.86307 -3.175,-2.11583 0.20725,-4.2e-4 0.20726,-4.2e-4 2.83545,1.8868 2.83545,1.8868 0.25136,0.22987 0.25135,0.22987 -0.11906,-4.2e-4 -0.11906,-4.2e-4 z m -38.48479,1.46977 -0.31729,-0.38231 0.0865,-0.58915 0.0865,-0.58915 0.34299,-0.11301 0.34299,-0.113 -0.064,1.08446 -0.064,1.08447 h -0.0482 -0.0482 z m 1.83999,0.001 v -0.41249 h 0.26459 0.26458 v 0.24897 0.24897 l -0.26458,0.16352 -0.26459,0.16352 z m 25.68548,-0.0377 0.0209,-0.50712 0.13897,0.34727 0.13896,0.34726 -0.15985,0.15985 -0.15985,0.15986 z m -29.65423,-0.7717 v -0.66146 h 0.11066 0.11065 l 0.41851,-0.1606 0.41852,-0.1606 v 0.82206 0.82206 h -0.52917 -0.52917 z m 27.25209,0.39687 v -0.26458 h 0.2802 0.28019 l -0.16352,0.26458 -0.16352,0.26459 h -0.11668 -0.11667 z m -2.38125,-0.52916 v -0.26459 h 0.2802 0.28019 l -0.16352,0.26459 -0.16352,0.26458 h -0.11668 -0.11667 z m -4.36563,-1.05834 0.16352,-0.26458 h 0.11668 0.11668 v 0.26458 0.26459 h -0.2802 -0.2802 z m -2.24896,-0.38126 v -0.41249 h 0.26459 0.26458 v 0.24897 0.24897 l -0.26458,0.16352 -0.26459,0.16352 z m -2.62494,-0.56683 0.0209,-0.50712 0.13896,0.34727 0.13897,0.34727 -0.15986,0.15985 -0.15985,0.15985 z m -5.84172,-1.16857 v -0.26459 h 0.2802 0.28019 l -0.16352,0.26459 -0.16352,0.26458 h -0.11668 -0.11667 z"
           id="path34" /><path
           style="fill:#575757;fill-opacity:1"
           d="m 521.64054,372.37017 -0.0501,-6.75139 -1.18663,-1.6975 -1.18664,-1.6975 0.31069,0.12457 0.31068,0.12457 1.12448,1.70895 1.12448,1.70896 v 6.61715 6.61715 l -0.19844,-0.002 -0.19843,-0.002 z m -1.93429,-0.67815 v -0.23981 h 0.52917 0.52916 v 0.10143 0.10144 l -0.52916,0.13838 -0.52917,0.13838 z m 0.19844,-1.73796 0.33073,-0.13345 0.33073,0.13345 0.33073,0.13346 h -0.66146 -0.66146 z m -15.01511,-0.69024 v -0.51571 l 1.36563,-4.99934 1.36563,-4.99933 -0.1748,-0.1748 -0.1748,-0.1748 -8.66531,-1.65411 -8.6653,-1.65411 -9.92188,-1.88678 -9.92187,-1.88678 -0.46303,-0.13721 -0.46302,-0.13722 v -0.79375 -0.79375 l 0.46302,0.13781 0.46303,0.1378 2.33875,0.42964 2.33876,0.42963 0.15274,-0.15273 0.15273,-0.15274 -0.14971,-0.14971 -0.14971,-0.14971 -2.80481,-0.42502 -2.8048,-0.42502 v -0.4836 -0.4836 h 0.54113 0.54112 l 2.70002,0.42324 2.70003,0.42324 8.73125,1.70325 8.73125,1.70325 5.95312,1.20359 5.95313,1.20358 1.25677,0.26372 1.25677,0.26372 v 0.51885 0.51884 l -0.33855,-0.0777 -0.33855,-0.0777 -0.0822,0.26458 -0.0822,0.26458 1.14831,0.20696 1.14831,0.20695 0.59531,0.12882 0.59531,0.12881 -0.006,0.45798 -0.006,0.45798 -1.64742,5.67882 -1.64741,5.67882 -0.99219,0.0333 -0.99219,0.0333 z M 501.45,355.31263 v -0.26459 h -0.24897 -0.24897 l -0.16352,0.26459 -0.16352,0.26458 h 0.41249 0.41249 z m -8.73125,-1.5875 v -0.26459 h -0.26458 -0.26459 v 0.26459 0.26458 h 0.26459 0.26458 z m -8.99583,-1.85209 v -0.26458 h -0.26459 -0.26458 v 0.26458 0.26459 h 0.26458 0.26459 z m 26.47922,17.30816 0.0209,-0.50712 0.13896,0.34727 0.13897,0.34727 -0.15986,0.15985 -0.15985,0.15985 z m 10.03328,-0.22692 v -0.64584 l 0.28218,-0.1744 0.28219,-0.1744 0.0913,0.0926 0.0913,0.0926 -0.13977,0.7276 -0.13977,0.72761 h -0.23374 -0.23374 z m -18.25625,-3.71978 v -0.66146 h 0.39687 0.39688 v 0.66146 0.66146 h -0.39688 -0.39687 z m 1.05833,0.39688 v -0.26459 h 0.2802 0.2802 l -0.16352,0.26459 -0.16353,0.26458 h -0.11667 -0.11668 z m 0.79375,-0.39688 v -0.66146 h 0.39688 0.39687 v 0.66146 0.66146 h -0.39687 -0.39688 z m -5.27078,-0.55121 0.0209,-0.50712 0.13896,0.34726 0.13897,0.34727 -0.15985,0.15985 -0.15986,0.15985 z m -12.78703,-0.45405 -0.72761,-0.28752 v -0.2135 -0.21351 h 0.30004 0.30003 l 1.02288,0.30646 1.02289,0.30647 v 0.2227 0.2227 l -0.59532,-0.0281 -0.59531,-0.0281 z m 3.24114,-1.34476 v -0.39687 l 0.26459,-0.16353 0.26458,-0.16352 v 0.39688 0.39687 l -0.26458,0.16352 -0.26459,0.16353 z m -7.9375,-1.75102 v -0.26458 h 0.2802 0.2802 l -0.16352,0.26458 -0.16352,0.26458 h -0.11668 -0.11668 z m 8.46667,-0.54478 v -0.2802 l 0.26458,0.16352 0.26459,0.16352 v 0.11668 0.11668 h -0.26459 -0.26458 z m -12.43542,-0.24897 v -0.26458 h 0.2802 0.2802 l -0.16352,0.26458 -0.16352,0.26458 h -0.11668 -0.11668 z m -3.9026,-0.92604 v -0.66146 h 0.49609 0.4961 v 0.66146 0.66146 h -0.4961 -0.49609 z m 1.78594,0.0283 v -0.63316 l 0.39687,-0.15229 0.39688,-0.1523 v 0.78545 0.78545 h -0.39688 -0.39687 z m 25.4,0.36856 v -0.26458 h 0.2802 0.28019 l -0.16352,0.26458 -0.16352,0.26459 h -0.11668 -0.11667 z m -8.99584,-1.85208 v -0.26458 h 0.2802 0.2802 l -0.16352,0.26458 -0.16352,0.26458 h -0.11668 -0.11668 z m -8.46666,-1.85208 v -0.26459 h 0.2802 0.28019 l -0.16352,0.26459 -0.16352,0.26458 h -0.11668 -0.11667 z"
           id="path33" /><path
           style="fill:#454545;fill-opacity:1"
           d="m 521.76189,372.399 -0.19332,-6.85841 -0.67033,-1.01294 -0.67033,-1.01294 h 0.12334 0.12333 l 0.81103,1.17879 0.81103,1.17879 -0.0707,6.69256 -0.0707,6.69257 z m -16.7843,-3.65877 0.15724,-0.8599 1.29255,-4.70136 1.29255,-4.70136 -0.55528,-0.1211 -0.55527,-0.1211 -17.33021,-3.30439 -17.33021,-3.3044 -1.088,-0.16935 -1.08799,-0.16936 -0.32225,-0.19916 -0.32226,-0.19917 0.0873,-0.65524 0.0873,-0.65524 2.61685,0.49956 2.61686,0.49956 0.41843,-0.16057 0.41844,-0.16057 -0.36554,-0.22592 -0.36554,-0.22592 -2.6296,-0.33511 -2.6296,-0.33511 -0.13898,-0.36219 -0.13899,-0.36219 0.1518,-0.15181 0.15181,-0.1518 3.65119,0.55516 3.6512,0.55517 3.30729,0.6586 3.30729,0.65861 5.02709,0.97009 5.02708,0.97009 6.72674,1.35855 6.72675,1.35855 0.0981,0.29426 0.0981,0.29426 -0.40949,0.4095 -0.4095,0.4095 0.46383,0.13216 0.46383,0.13215 1.52136,0.30157 1.52135,0.30156 0.003,0.31197 0.003,0.31197 -1.64655,5.75469 -1.64654,5.75469 h -1.03722 -1.03722 z m 2.2094,-4.48138 -0.13896,-0.34727 -0.0209,0.50712 -0.0209,0.50712 0.15985,-0.15985 0.15986,-0.15985 z m 1.03644,-3.5839 -0.10989,-0.1099 -0.42135,1.44941 -0.42136,1.4494 0.0264,0.22386 0.0264,0.22386 0.50483,-1.56337 0.50483,-1.56337 z m -3.86301,-4.7242 -1.71979,-0.36707 -0.61937,-0.14661 -0.61937,-0.1466 0.14804,-0.3858 0.14805,-0.38579 h -0.23423 -0.23424 l -0.10571,0.31713 -0.10571,0.31713 -4.14967,-0.76186 -4.14967,-0.76186 v -0.38142 -0.38142 l -0.3606,0.29927 -0.36059,0.29927 -4.06493,-0.77729 -4.06492,-0.77729 -0.0895,-0.26847 -0.0895,-0.26847 -0.38044,0.14599 -0.38043,0.14599 -3.06447,-0.57941 -3.06447,-0.57941 -0.11513,0.11514 -0.11514,0.11514 3.37869,0.70179 3.3787,0.70179 0.92604,0.14093 0.92605,0.14093 7.40833,1.45758 7.40833,1.45759 2.38125,0.48952 2.38125,0.48953 0.66146,5.6e-4 0.66146,5.7e-4 z m 15.94114,12.98792 v -0.66146 h 0.23151 0.23151 v 0.66146 0.66146 h -0.23151 -0.23151 z m -18.32239,-3.70417 v -0.66146 h 0.39687 0.39688 v 0.66146 0.66146 h -0.39688 -0.39687 z m 1.05833,0.39688 v -0.26459 h 0.2802 0.2802 l -0.16352,0.26459 -0.16353,0.26458 h -0.11667 -0.11668 z m 0.79375,-0.39688 v -0.66146 h 0.39688 0.39687 v 0.66146 0.66146 h -0.39687 -0.39688 z m -17.66094,-0.99133 -0.85989,-0.27584 v -0.24414 -0.24414 l 0.46302,0.13756 0.46302,0.13755 0.7276,0.17354 0.72761,0.17354 v 0.2359 0.2359 l -0.33073,-0.027 -0.33073,-0.027 z m 2.84427,-1.52221 v -0.26458 h 0.2802 0.2802 l -0.16352,0.26458 -0.16352,0.26458 h -0.11668 -0.11668 z m -15.67517,-3.30729 -0.12645,-0.66146 h 0.49248 0.49248 v 0.66146 0.66146 h -0.36603 -0.36603 z m 1.65226,0 v -0.66146 h 0.39687 0.39688 v 0.66146 0.66146 h -0.39688 -0.39687 z m 32.32094,-3.57188 v -0.66146 l 0.13345,0.33073 0.13345,0.33073 -0.13345,0.33073 -0.13345,0.33073 z"
           id="path32" /><path
           style="fill:#333333;fill-opacity:1"
           d="m 521.77113,372.51823 -0.18408,-6.73918 0.11794,-0.11794 0.11793,-0.11793 0.13692,0.13692 0.13691,0.13692 -0.0708,6.7202 -0.0708,6.7202 z m -16.88155,-3.23281 v -0.3588 l 1.42048,-5.15335 1.42048,-5.15335 -0.296,-0.16451 -0.296,-0.16451 -1.05833,-0.1813 -1.05833,-0.1813 -16.53646,-3.16095 -16.53646,-3.16094 -1.38906,-0.28232 -1.38907,-0.28231 v -0.22643 -0.22642 l 0.46302,-0.121 0.46303,-0.121 -0.46303,-0.0307 -0.46302,-0.0307 v -0.34988 -0.34988 l 2.84427,0.50419 2.84428,0.5042 4.10104,0.78397 4.10104,0.78397 0.79375,0.11929 0.79375,0.1193 8.99583,1.73964 8.99584,1.73965 3.69156,0.78409 3.69156,0.7841 0.12794,0.12794 0.12793,0.12793 -1.70283,5.94606 -1.70283,5.94607 -0.48085,0.002 -0.48085,0.002 0.14553,-0.46302 0.14553,-0.46303 1.20513,-4.20359 1.20513,-4.20359 -0.0979,-0.29362 -0.0979,-0.29362 -0.35038,0.65469 -0.35038,0.6547 -1.10508,4.2247 -1.10508,4.2247 -0.30866,0.10289 -0.30867,0.10288 z m -12.7,-14.78301 -1.98437,-0.48683 -7.6321,-1.34946 -7.63209,-1.34946 -0.25934,0.0865 -0.25933,0.0864 6.96539,1.28288 6.96539,1.28287 2.24895,0.46991 2.24896,0.4699 0.66146,-0.003 0.66146,-0.003 z m -18.1901,-3.33376 -0.33073,-0.13345 -0.33073,0.13345 -0.33073,0.13345 h 0.66146 0.66146 z m -1.32292,-0.26459 -0.33073,-0.13345 -0.33073,0.13345 -0.33072,0.13346 h 0.66145 0.66146 z m -1.46072,-0.2492 -0.15985,-0.15986 -0.34727,0.13897 -0.34726,0.13896 0.50712,0.0209 0.50711,0.0209 z m 30.824,14.57964 -0.0547,-0.66146 h 0.39391 0.39391 v 0.66146 0.66146 h -0.33917 -0.33917 z m 1.79141,0 v -0.66146 h 0.39688 0.39687 v 0.66146 0.66146 h -0.39687 -0.39688 z m -30.42708,-5.82083 v -0.66146 h 0.39687 0.39688 v 0.66146 0.66146 h -0.39688 -0.39687 z m 1.5875,0 v -0.66146 h 0.39687 0.39688 v 0.66146 0.66146 h -0.39688 -0.39687 z m 30.42708,-3.30869 -0.92604,-0.21282 -1.49321,-0.30268 -1.4932,-0.30268 0.135,-0.51626 0.135,-0.51625 0.16758,0.0161 0.16758,0.0161 2.2797,0.44697 2.2797,0.44696 0.0354,0.19844 0.0354,0.19844 v 0.39687 0.39688 l -0.19844,-0.0266 -0.19844,-0.0266 z m -8.99583,-1.84832 -3.57188,-0.73013 0.085,-0.36372 0.085,-0.36373 0.17954,-0.15692 0.17954,-0.15693 3.97534,0.81839 3.97535,0.81838 -0.0921,0.46302 -0.0921,0.46302 -0.57592,-0.0306 -0.57591,-0.0306 z m -7.54063,-1.45119 -2.91041,-0.6023 -0.99219,-0.17705 -0.99219,-0.17706 v -0.39319 -0.39319 l 0.33348,-0.12796 0.33348,-0.12797 3.77759,0.76366 3.77759,0.76366 0.15495,0.15495 0.15495,0.15495 -0.15667,0.40829 -0.15668,0.40828 -0.20674,-0.0264 -0.20674,-0.0264 z m -9.99108,-1.97034 -3.64108,-0.7214 -0.32767,-0.41628 -0.32767,-0.41629 -2.71198,-0.33434 -2.71198,-0.33435 v -0.22179 -0.2218 h 0.24076 0.24076 l 3.51429,0.52339 3.51429,0.52339 3.45485,0.6941 3.45485,0.6941 0.0724,0.0675 0.0724,0.0676 -0.16682,0.43475 -0.16683,0.43474 -0.43471,-0.026 -0.43472,-0.026 z"
           id="path31" /></g><path
         id="shape"
         style="opacity:0.60423;fill:none;fill-opacity:1;stroke:#000000;stroke-linecap:butt;stroke-linejoin:bevel;stroke-opacity:1;paint-order:normal"
         d="m 468.9063,347.86216 v 0.0419 h -5.2e-4 v 0.48007 l -10e-4,0.002 10e-4,0.003 v 0.17725 0.66146 h 5.2e-4 v 0.29972 l -0.031,0.006 0.031,0.31885 v 1.89084 l 0.51728,2.71559 0.5178,2.71508 0.80511,2.90215 0.80564,2.90215 v 8.07393 0.14986 7.92355 10e-4 h 0.26355 0.001 l 0.19844,5.2e-4 0.19844,5.1e-4 v -10e-4 h 24.60625 5.42292 19.44791 v 5.2e-4 l 0.10542,-5.2e-4 h 0.15555 l 0.004,0.13229 0.002,-0.13229 h 0.13075 v -5.2e-4 h 5.1e-4 v -6.79183 -5.63015 l 0.009,-0.83044 -5.2e-4,-10e-4 5.2e-4,-0.0543 -0.009,-0.009 v -0.26717 l -0.26871,-0.41444 -0.004,-0.006 -0.58808,-0.99064 -0.8599,-1.44798 -4.69118,-3.15588 -4.69067,-3.15536 h -1.57458 -1.39733 l -0.17829,-0.0284 -0.003,-5.2e-4 -0.0326,-0.22789 v -0.28577 -0.50591 l -0.11679,-0.0264 -0.0155,-0.11059 -2.91041,-0.56689 -2.91042,-0.56637 -12.56771,-2.53266 -12.56771,-2.53215 -3.54448,-0.54157 -3.54397,-0.54156 h -0.35864 -0.1328 l -0.004,-5.2e-4 h -0.0191 z"
         transform="translate(85.220604,43.200791)" /></g></g>


<script type="text/javascript">
  <![CDATA[
    // Global Parameters and Variables
    //!export-start
    let _pn_setState         = 0;
    let _pb_boolState        = false;
    let _pn_setInterval      = 500;
    let _pc_state0Colour     = '#ffffff';
    let _pc_state1Colour     = '#00ff00';
    let _pc_state2Colour     = '#ff9500';
    let _pc_state3Colour     = '#ff0000';
    let _pc_state4Colour     = '#3c3c3c';
    let _pc_state5Colour     = '#dcdcdc';
    let _pn_lightShade       = 50;
    let _pn_highLightShade   = 90;
    let _pn_darkShade        = 15;
    let _pn_shadowShade      = -15;
    let _pn_strokeWidth      = 1;     
    let _pn_opacity          = 0.60;  
    let _pn_indicationMode   = 0;     
    //!export-end
    
    // Internal state variables
    let stateNumber = 0;
    let isBlinking = false;
    let myCheckInterval;
    
    // Force global timing mechanism by using epoch time
    function getGlobalBlinkState(interval) {
      // Use the current time divided by interval, which will give
      // the same result for all SVGs at the same moment
      return Math.floor(Date.now() / interval) % 2 === 0;
    }
    
    // Function to update the color based on the set state
    function logic() {
      switch (stateNumber) {
        case 0: // off
          setColors(_pc_state0Colour);
          stopBlinking();
          break; 
        case 1: // run
          setColors(_pc_state1Colour);
          stopBlinking();
          break;
        case 2: // warning
          setColors(_pc_state2Colour);
          stopBlinking();
          break;
        case 3: // fault
          startForceSync();
          break;
        case 4: // invalid 
          setColors(_pc_state4Colour);
          stopBlinking();
          break;
        case 5: // spare
          setColors(_pc_state5Colour);
          stopBlinking();
          break;
        default:
          console.log('Undefined State');
          stopBlinking();
      }
    }

    // Initial setup
    function init() {
      // Set up visibility change listener
      document.addEventListener('visibilitychange', handleVisibilityChange);
      
      // Initial state rendering
      logic(); 
    }
    
    // Handler for tab visibility changes
    function handleVisibilityChange() {
      if (document.visibilityState === 'visible' && isBlinking) {
        // Resume checking when tab becomes visible again
        startForceSync();
      } else if (document.visibilityState === 'hidden' && isBlinking) {
        // Pause checking when tab is hidden
        clearInterval(myCheckInterval);
        myCheckInterval = null;
      }
    }
    
    // Update the blinking display based on global time
    function updateBlinkDisplay() {
      if (!isBlinking) return;
      
      // Get the global blink state
      const showFaultColor = getGlobalBlinkState(_pn_setInterval);
      
      // Set the appropriate color
      if (showFaultColor) {
        setColors(_pc_state3Colour);
      } else {
        setColors(_pc_state0Colour);
      }
    }
    
    // Start forced synchronization
    function startForceSync() {
      // Clear any existing interval
      stopBlinking();
      
      // Set blinking state
      isBlinking = true;
      
      // Update display immediately
      updateBlinkDisplay();
      
      // Check very frequently to ensure tight synchronization (every 16ms = ~60fps)
      myCheckInterval = setInterval(updateBlinkDisplay, 16);
    }

    // Function to update values from Fuxa
    function putValue(id, value) {
      if (id === '_pn_setState') {
        stateNumber = value;
        logic(); 
      }
      if (id === '_pb_boolState') {
        _pb_boolState = value;
        if (_pb_boolState === true) {
          stateNumber = 1;
        } else if (_pb_boolState === false) {
          stateNumber = 0;
        }
        logic(); 
      }
      if (id === '_pn_setInterval')    _pn_setInterval    = value;
      if (id === '_pc_state0Colour')   _pc_state0Colour   = value;
      if (id === '_pc_state1Colour')   _pc_state1Colour   = value;
      if (id === '_pc_state2Colour')   _pc_state2Colour   = value;
      if (id === '_pc_state3Colour')   _pc_state3Colour   = value;
      if (id === '_pc_state4Colour')   _pc_state4Colour   = value;
      if (id === '_pc_state5Colour')   _pc_state5Colour   = value;
      if (id === '_pn_lightShade')     _pn_lightShade     = value;
      if (id === '_pn_highLightShade') _pn_highLightShade = value;
      if (id === '_pn_darkShade')      _pn_darkShade      = value;
      if (id === '_pn_shadowShade')    _pn_shadowShade    = value;
      if (id === '_pn_strokeWidth')    _pn_strokeWidth    = value;
      if (id === '_pn_opacity')        _pn_opacity        = value;
      if (id === '_pn_indicationMode') _pn_indicationMode = value;
    }

    // Function to send values back to Fuxa (placeholder)
    function postValue(id, value) {
      console.error('Not defined!');
    }

    // Function to update the fill and/or stroke color based on indication mode
    function setColors(color) {
      // Get the single element with ID "shape"
      const shapeElement = document.getElementById('shape');
      if (!shapeElement) return; // Safety check
      
      // Set opacity
      shapeElement.style.opacity = _pn_opacity;
      
      // Set stroke width
      shapeElement.style.strokeWidth = _pn_strokeWidth;
      
      // Apply colors based on indication mode
      switch(_pn_indicationMode) {
        case 0: // Fill only
          shapeElement.style.fill = color;
          shapeElement.style.stroke = "none";
          break;
        case 1: // Stroke only
          shapeElement.style.fill = "none";
          shapeElement.style.stroke = color;
          break;
        case 2: // Both fill and stroke
          shapeElement.style.fill = color;
          shapeElement.style.stroke = color;
          break;
        default:
          // Default to fill only
          shapeElement.style.fill = color;
          shapeElement.style.stroke = "none";
      }
    }

    // Function to stop blinking
    function stopBlinking() {
      if (myCheckInterval) {
        clearInterval(myCheckInterval);
        myCheckInterval = null;
      }
      isBlinking = false;
    }

    // Clean up event listeners when widget is destroyed
    function cleanup() {
      stopBlinking();
      document.removeEventListener('visibilitychange', handleVisibilityChange);
    }

    // Initialize the SVG
    init();

    // Ensure cleanup when SVG is removed
    const cleanupObserver = new MutationObserver((mutations) => {
      mutations.forEach((mutation) => {
        mutation.removedNodes.forEach((node) => {
          if (node.id === 'Layer_1') {
            cleanup();
            cleanupObserver.disconnect();
          }
        });
      });
    });
    cleanupObserver.observe(document.body, { childList: true, subtree: true });
  ]]>
  </script>
</svg>
