<?xml version="1.0" encoding="UTF-8"?>
<svg width="24" height="24" version="1.1" xmlns="http://www.w3.org/2000/svg" xmlns:cc="http://creativecommons.org/ns#" xmlns:dc="http://purl.org/dc/elements/1.1/" xmlns:rdf="http://www.w3.org/1999/02/22-rdf-syntax-ns#">
 <metadata>
  <rdf:RDF>
   <cc:Work rdf:about="">
    <dc:format>image/svg+xml</dc:format>
    <dc:type rdf:resource="http://purl.org/dc/dcmitype/StillImage"/>
    <dc:title/>
   </cc:Work>
  </rdf:RDF>
 </metadata>
 <g transform="matrix(.54557 0 0 .54557 1.1163 1.1163)" fill="none" stroke="#fff" stroke-width="2.1888">
  <path d="m40 20a20 20 0 0 1-20 20 20 20 0 0 1-20-20 20 20 0 0 1 20-20 20 20 0 0 1 20 20"/>
  <path d="m10 2.8 28 8.4m-28 26 28-8.4m-35.4-18.8c7.85 5.51 18.51 4.67 25.4-2m-25.4 22c7.85-5.51 18.51-4.67 25.4 2" pointer-events="all"/>
 </g>
</svg>
