<?xml version="1.0" encoding="UTF-8"?>
<svg width="24" height="24" version="1.1" xmlns="http://www.w3.org/2000/svg" xmlns:cc="http://creativecommons.org/ns#" xmlns:dc="http://purl.org/dc/elements/1.1/" xmlns:rdf="http://www.w3.org/1999/02/22-rdf-syntax-ns#">
 <metadata>
  <rdf:RDF>
   <cc:Work rdf:about="">
    <dc:format>image/svg+xml</dc:format>
    <dc:type rdf:resource="http://purl.org/dc/dcmitype/StillImage"/>
    <dc:title/>
   </cc:Work>
  </rdf:RDF>
 </metadata>
 <g transform="matrix(.24047 0 0 .24047 1.143 2.7597)" fill="none" stroke="#fff" stroke-width="4.5744">
  <path d="m39.5 74.52-4 5.96h20l-4-5.96m-31-68.52v64.55c0 3.05-4.48 5.52-10 5.52s-10-2.47-10-5.52v-64.55c0-3.05 4.48-5.52 10-5.52s10 2.47 10 5.52zm50 0v64.55c0 3.05 4.48 5.52 10 5.52s10-2.47 10-5.52v-64.55c0-3.05-4.48-5.52-10-5.52s-10 2.47-10 5.52z" pointer-events="all"/>
  <path d="m55.5 35.79v34.76c0 3.05-4.48 5.52-10 5.52s-10-2.47-10-5.52v-34.76c0-3.04 4.48-5.51 10-5.51s10 2.47 10 5.51z" pointer-events="all"/>
  <path d="m53.5 63.6a8 7.9444 0 0 1-8 7.9444 8 7.9444 0 0 1-8-7.9444 8 7.9444 0 0 1 8-7.9444 8 7.9444 0 0 1 8 7.9444"/>
  <path d="m53.5 43.74a8 7.9444 0 0 1-8 7.9444 8 7.9444 0 0 1-8-7.9444 8 7.9444 0 0 1 8-7.9444 8 7.9444 0 0 1 8 7.9444"/>
  <path d="m20.5 53.67h15m20 0h15" pointer-events="all"/>
  <path d="m28 45.72v15.89m35-15.89v15.89" pointer-events="all"/>
 </g>
</svg>
