<?xml version="1.0" encoding="UTF-8"?>
<svg width="24" height="24" version="1.1" xmlns="http://www.w3.org/2000/svg" xmlns:cc="http://creativecommons.org/ns#" xmlns:dc="http://purl.org/dc/elements/1.1/" xmlns:rdf="http://www.w3.org/1999/02/22-rdf-syntax-ns#">
 <metadata>
  <rdf:RDF>
   <cc:Work rdf:about="">
    <dc:format>image/svg+xml</dc:format>
    <dc:type rdf:resource="http://purl.org/dc/dcmitype/StillImage"/>
    <dc:title/>
   </cc:Work>
  </rdf:RDF>
 </metadata>
 <g transform="matrix(.53906 0 0 .53906 .57795 1.2187)" pointer-events="none" style="fill:none;stroke-width:2.1679;stroke:#ffffff">
  <circle cx="21" cy="20" r="20" style="fill:none;stroke-width:2.1679;stroke:#ffffff"/>
  <path d="m10.5 2.8 28 8.4m-28 26 28-8.4" stroke-miterlimit="10" style="fill:none;stroke-miterlimit:4;stroke-width:2.1679;stroke:#ffffff"/>
  <ellipse cx="27" cy="20" rx="6" ry="1.2" style="fill:none;stroke-width:2.1679;stroke:#ffffff"/>
  <path d="m17.41 14.62c2.15 2.52 3.49 4.91 2.99 5.34-.24.21-.88-.07-1.79-.78-.9-.71-1.99-1.79-3.02-3-2.15-2.52-3.49-4.91-2.99-5.34.24-.21.88.07 1.79.78.9.71 1.99 1.79 3.02 3zm-1.83 9.27c1.03-1.22 2.11-2.3 3-3.02.9-.72 1.54-1 1.78-.79.25.2.08.88-.48 1.88-.55 1.01-1.43 2.26-2.46 3.48s-2.11 2.31-3 3.02c-.9.72-1.54 1-1.78.8-.25-.21-.08-.89.48-1.89.55-1.01 1.43-2.26 2.46-3.48z" stroke-miterlimit="10" style="fill:none;stroke-miterlimit:4;stroke-width:2.1679;stroke:#ffffff"/>
 </g>
</svg>
