<?xml version="1.0" encoding="UTF-8" standalone="no"?>
<svg
   xmlns:dc="http://purl.org/dc/elements/1.1/"
   xmlns:cc="http://creativecommons.org/ns#"
   xmlns:rdf="http://www.w3.org/1999/02/22-rdf-syntax-ns#"
   xmlns:svg="http://www.w3.org/2000/svg"
   xmlns="http://www.w3.org/2000/svg"
   xmlns:sodipodi="http://sodipodi.sourceforge.net/DTD/sodipodi-0.dtd"
   xmlns:inkscape="http://www.inkscape.org/namespaces/inkscape"
   width="24"
   height="24"
   version="1.1"
   id="svg858"
   sodipodi:docname="compring.svg"
   inkscape:version="1.0 (4035a4fb49, 2020-05-01)">
  <defs
     id="defs862" />
  <sodipodi:namedview
     inkscape:document-rotation="0"
     pagecolor="#ffffff"
     bordercolor="#666666"
     borderopacity="1"
     objecttolerance="10"
     gridtolerance="10"
     guidetolerance="10"
     inkscape:pageopacity="0"
     inkscape:pageshadow="2"
     inkscape:window-width="1920"
     inkscape:window-height="1017"
     id="namedview860"
     showgrid="false"
     inkscape:zoom="8.8544831"
     inkscape:cx="10.305943"
     inkscape:cy="31.896922"
     inkscape:window-x="-8"
     inkscape:window-y="-8"
     inkscape:window-maximized="1"
     inkscape:current-layer="svg858" />
  <metadata
     id="metadata854">
    <rdf:RDF>
      <cc:Work
         rdf:about="">
        <dc:format>image/svg+xml</dc:format>
        <dc:type
           rdf:resource="http://purl.org/dc/dcmitype/StillImage" />
        <dc:title></dc:title>
      </cc:Work>
    </rdf:RDF>
  </metadata>
  <g
     style="fill:none;stroke:#ffffff;stroke-width:2.29244;stroke-miterlimit:4;stroke-dasharray:none;stroke-opacity:1"
     transform="matrix(0.54749383,0,0,0.54749383,1.1669868,1.1661106)"
     id="g12">
    <path
       id="ellipse6"
       style="fill:none;stroke:#ffffff;stroke-width:2.29244;stroke-miterlimit:4;stroke-dasharray:none;stroke-opacity:1"
       d="M 40,20 A 20,20 0 0 1 20,40 20,20 0 0 1 0,20 20,20 0 0 1 20,0 20,20 0 0 1 40,20" />
    <path
       id="ellipse8"
       style="fill:none;stroke:#ffffff;stroke-width:2.29244;stroke-miterlimit:4;stroke-dasharray:none;stroke-opacity:1"
       d="m 28,20 a 8,8 0 0 1 -8,8 8,8 0 0 1 -8,-8 8,8 0 0 1 8,-8 8,8 0 0 1 8,8" />
    <path
       style="fill:none;stroke:#ffffff;stroke-width:2.29244;stroke-miterlimit:4;stroke-dasharray:none;stroke-opacity:1"
       d="m 10,2.8 28,8.4 m -28,26 28,-8.4 M 13.76,9.6 l 2.16,3.6 m -2.16,17.2 2.16,-3.6 m 10.32,3.6 -2.16,-3.6 M 26.24,9.6 24.08,13.2 M 8,20 h 4 m 16,0 h 4"
       fill="none"
       stroke="#000000"
       stroke-miterlimit="10"
       pointer-events="all"
       id="path10" />
  </g>
</svg>
