<?xml version="1.0" encoding="UTF-8"?>
<svg width="24" height="24" version="1.1" xmlns="http://www.w3.org/2000/svg" xmlns:cc="http://creativecommons.org/ns#" xmlns:dc="http://purl.org/dc/elements/1.1/" xmlns:rdf="http://www.w3.org/1999/02/22-rdf-syntax-ns#">
 <metadata>
  <rdf:RDF>
   <cc:Work rdf:about="">
    <dc:format>image/svg+xml</dc:format>
    <dc:type rdf:resource="http://purl.org/dc/dcmitype/StillImage"/>
    <dc:title/>
   </cc:Work>
  </rdf:RDF>
 </metadata>
 <g transform="matrix(.23506 0 0 .23506 5.2028 2.4246)" fill="none" stroke="#fff" stroke-width="4.6796">
  <path d="m6 0h48l6 15v69h-60v-69z" pointer-events="all"/>
  <path d="m0 24h60m-60 18h60" pointer-events="all"/>
  <path d="m15.3 30a0.3 0.3 0 0 1-0.3 0.3 0.3 0.3 0 0 1-0.3-0.3 0.3 0.3 0 0 1 0.3-0.3 0.3 0.3 0 0 1 0.3 0.3"/>
  <path d="m7.8 36a0.3 0.3 0 0 1-0.3 0.3 0.3 0.3 0 0 1-0.3-0.3 0.3 0.3 0 0 1 0.3-0.3 0.3 0.3 0 0 1 0.3 0.3"/>
  <path d="m22.8 36a0.3 0.3 0 0 1-0.3 0.3 0.3 0.3 0 0 1-0.3-0.3 0.3 0.3 0 0 1 0.3-0.3 0.3 0.3 0 0 1 0.3 0.3"/>
  <path d="m30.3 30a0.3 0.3 0 0 1-0.3 0.3 0.3 0.3 0 0 1-0.3-0.3 0.3 0.3 0 0 1 0.3-0.3 0.3 0.3 0 0 1 0.3 0.3"/>
  <path d="m37.8 36a0.3 0.3 0 0 1-0.3 0.3 0.3 0.3 0 0 1-0.3-0.3 0.3 0.3 0 0 1 0.3-0.3 0.3 0.3 0 0 1 0.3 0.3"/>
  <path d="m45.3 30a0.3 0.3 0 0 1-0.3 0.3 0.3 0.3 0 0 1-0.3-0.3 0.3 0.3 0 0 1 0.3-0.3 0.3 0.3 0 0 1 0.3 0.3"/>
  <path d="m52.8 36a0.3 0.3 0 0 1-0.3 0.3 0.3 0.3 0 0 1-0.3-0.3 0.3 0.3 0 0 1 0.3-0.3 0.3 0.3 0 0 1 0.3 0.3"/>
 </g>
</svg>
