<?xml version="1.0" encoding="UTF-8"?>
<svg width="24" height="24" version="1.1" xmlns="http://www.w3.org/2000/svg" xmlns:cc="http://creativecommons.org/ns#" xmlns:dc="http://purl.org/dc/elements/1.1/" xmlns:rdf="http://www.w3.org/1999/02/22-rdf-syntax-ns#">
 <metadata>
  <rdf:RDF>
   <cc:Work rdf:about="">
    <dc:format>image/svg+xml</dc:format>
    <dc:type rdf:resource="http://purl.org/dc/dcmitype/StillImage"/>
    <dc:title/>
   </cc:Work>
  </rdf:RDF>
 </metadata>
 <g transform="matrix(.1267 0 0 .20189 .62251 9.3692)" fill="none" stroke="#fff" stroke-width="6.8777">
  <path d="m0.5 15c0-8.28 6.72-15 15-15s15 6.72 15 15 6.72 15 15 15 15-6.72 15-15 6.72-15 15-15 15 6.72 15 15 6.72 15 15 15 15-6.72 15-15 6.72-15 15-15 15 6.72 15 15 6.72 15 15 15 15-6.72 15-15" fill="none" pointer-events="all" stroke="#fff" stroke-width="6.8777"/>
 </g>
</svg>
