<?xml version="1.0" encoding="UTF-8" standalone="no"?>
<svg
   xmlns:dc="http://purl.org/dc/elements/1.1/"
   xmlns:cc="http://creativecommons.org/ns#"
   xmlns:rdf="http://www.w3.org/1999/02/22-rdf-syntax-ns#"
   xmlns:svg="http://www.w3.org/2000/svg"
   xmlns="http://www.w3.org/2000/svg"
   xmlns:sodipodi="http://sodipodi.sourceforge.net/DTD/sodipodi-0.dtd"
   xmlns:inkscape="http://www.inkscape.org/namespaces/inkscape"
   inkscape:version="1.0 (4035a4fb49, 2020-05-01)"
   sodipodi:docname="misc7.svg"
   id="svg8"
   version="1.1"
   height="24"
   width="24">
  <defs
     id="defs12" />
  <sodipodi:namedview
     inkscape:current-layer="svg8"
     inkscape:window-maximized="1"
     inkscape:window-y="-8"
     inkscape:window-x="-8"
     inkscape:cy="12"
     inkscape:cx="12"
     inkscape:zoom="35.416667"
     showgrid="false"
     id="namedview10"
     inkscape:window-height="1017"
     inkscape:window-width="1920"
     inkscape:pageshadow="2"
     inkscape:pageopacity="0"
     guidetolerance="10"
     gridtolerance="10"
     objecttolerance="10"
     borderopacity="1"
     bordercolor="#666666"
     pagecolor="#ffffff" />
  <metadata
     id="metadata2">
    <rdf:RDF>
      <cc:Work
         rdf:about="">
        <dc:format>image/svg+xml</dc:format>
        <dc:type
           rdf:resource="http://purl.org/dc/dcmitype/StillImage" />
        <dc:title />
      </cc:Work>
    </rdf:RDF>
  </metadata>
  <g
     style="fill:none;stroke:#ffffff;stroke-opacity:1"
     id="g6"
     stroke-width="6.2479"
     transform="matrix(.17606 0 0 .17606 1.5566 7.5269)">
    <path
       style="fill:none;stroke:#ffffff;stroke-opacity:1"
       id="path4"
       stroke-width="6.2479"
       stroke="#000"
       pointer-events="all"
       fill="none"
       d="m0 60v-60h7.5v52h48.75v-52h7.5v52h48.75v-52h7.5v60zm0-56 3.75-4m-3.75 12 7.5-8m-7.5 16 7.5-8m-7.5 16 7.5-8m-7.5 16 7.5-8m-7.5 16 7.5-8m22.5 24 7.5-8m-37.5 0 7.5-8m-7.5 16 7.5-8m0 8 7.5-8m0 8 7.5-8m0 8 7.5-8m7.5 8 7.5-8m0 8 7.5-8m0 8 11.25-12m-3.75 12 7.5-8m0 8 7.5-8m7.5 8 7.5-8m0 8 7.5-8m0 8 7.5-8m0 8 15-16m-7.5 16 7.5-8m-7.5-8 7.5-8m-7.5 0 7.5-8m-7.5 0 7.5-8m-7.5 0 7.5-8m-7.5 0 7.5-8m-7.5 0 3.75-4m-41.25 60 7.5-8m-26.25-4 7.5-8m-7.5 0 7.5-8m-7.5 0 7.5-8m-7.5 0 7.5-8m-7.5 0 7.5-8m-7.5 0 7.5-8" />
  </g>
</svg>
