<?xml version="1.0" encoding="UTF-8"?>
<svg width="24" height="24" version="1.1" xmlns="http://www.w3.org/2000/svg" xmlns:cc="http://creativecommons.org/ns#" xmlns:dc="http://purl.org/dc/elements/1.1/" xmlns:rdf="http://www.w3.org/1999/02/22-rdf-syntax-ns#">
 <metadata>
  <rdf:RDF>
   <cc:Work rdf:about="">
    <dc:format>image/svg+xml</dc:format>
    <dc:type rdf:resource="http://purl.org/dc/dcmitype/StillImage"/>
    <dc:title/>
   </cc:Work>
  </rdf:RDF>
 </metadata>
 <g transform="matrix(.16661 0 0 .16661 2.137 7.3114)" fill="none" stroke="#fff" stroke-width="6.6023">
  <path d="m0.19 0h7.5v52h105v-52h7.5v60h-120zm0 4 3.75-4m-3.75 12 7.5-8m-7.5 16 7.5-8m-7.5 16 7.5-8m-7.5 16 7.5-8m-7.5 16 7.5-8m22.5 24 7.5-8m-37.5 0 7.5-8m-7.5 16 7.5-8m0 8 7.5-8m0 8 7.5-8m0 8 7.5-8m7.5 8 7.5-8m0 8 7.5-8m0 8 7.5-8m0 8 7.5-8m0 8 7.5-8m7.5 8 7.5-8m0 8 7.5-8m0 8 7.5-8m0 8 15-16m-7.5 16 7.5-8m-7.5-8 7.5-8m-7.5 0 7.5-8m-7.5 0 7.5-8m-7.5 0 7.5-8m-7.5 0 7.5-8m-7.5 0 3.75-4m-41.25 60 7.5-8" fill="none" pointer-events="all" stroke="#fff" stroke-width="6.6023"/>
 </g>
</svg>
