<?xml version="1.0" encoding="UTF-8"?>
<svg width="24" height="24" version="1.1" xmlns="http://www.w3.org/2000/svg" xmlns:cc="http://creativecommons.org/ns#" xmlns:dc="http://purl.org/dc/elements/1.1/" xmlns:rdf="http://www.w3.org/1999/02/22-rdf-syntax-ns#">
 <metadata>
  <rdf:RDF>
   <cc:Work rdf:about="">
    <dc:format>image/svg+xml</dc:format>
    <dc:type rdf:resource="http://purl.org/dc/dcmitype/StillImage"/>
    <dc:title/>
   </cc:Work>
  </rdf:RDF>
 </metadata>
 <g transform="matrix(.44898 0 0 .44898 .88908 8.1657)" fill="none" stroke="#fff" stroke-width="2.6728">
  <path d="m0 6h7c0-2.49 2.01-4.5 4.5-4.5s4.5 2.01 4.5 4.5c0-2.49 2.01-4.5 4.5-4.5s4.5 2.01 4.5 4.5c0-2.49 2.01-4.5 4.5-4.5s4.5 2.01 4.5 4.5c0-2.49 2.01-4.5 4.5-4.5s4.5 2.01 4.5 4.5h7v8h-7c0 2.49-2.01 4.5-4.5 4.5s-4.5-2.01-4.5-4.5c0 2.49-2.01 4.5-4.5 4.5s-4.5-2.01-4.5-4.5c0 2.49-2.01 4.5-4.5 4.5s-4.5-2.01-4.5-4.5c0 2.49-2.01 4.5-4.5 4.5s-4.5-2.01-4.5-4.5h-7zm50-6v20m-50-20v20" fill="none" pointer-events="all" stroke="#fff" stroke-width="2.6728"/>
 </g>
</svg>
