<?xml version="1.0" encoding="UTF-8"?>
<svg width="24" height="24" version="1.1" xmlns="http://www.w3.org/2000/svg" xmlns:cc="http://creativecommons.org/ns#" xmlns:dc="http://purl.org/dc/elements/1.1/" xmlns:rdf="http://www.w3.org/1999/02/22-rdf-syntax-ns#">
 <metadata>
  <rdf:RDF>
   <cc:Work rdf:about="">
    <dc:format>image/svg+xml</dc:format>
    <dc:type rdf:resource="http://purl.org/dc/dcmitype/StillImage"/>
    <dc:title/>
   </cc:Work>
  </rdf:RDF>
 </metadata>
 <g transform="matrix(.26857 0 0 .26857 5.5791 1.2852)" fill="none" stroke="#fff" stroke-width="4.4682">
  <path d="m13.16 71.93-6.58 7.89h36.84l-6.67-7.89" pointer-events="all"/>
  <path d="m42.54 8.77v57.02c0 4.84-7.85 8.77-17.54 8.77s-17.54-3.93-17.54-8.77v-57.02c0-4.84 7.85-8.77 17.54-8.77s17.54 3.93 17.54 8.77z" pointer-events="all"/>
  <path d="m39.035 52.63a14.035 14.034 0 0 1-14.035 14.034 14.035 14.034 0 0 1-14.035-14.034 14.035 14.034 0 0 1 14.035-14.034 14.035 14.034 0 0 1 14.035 14.034"/>
  <path d="m39.035 20.17a14.035 14.034 0 0 1-14.035 14.034 14.035 14.034 0 0 1-14.035-14.034 14.035 14.034 0 0 1 14.035-14.034 14.035 14.034 0 0 1 14.035 14.034"/>
  <path d="m50 27.63v17.54m-7.46-8.77h7.46m-50-8.33v17.54m0-9.21h7.46" pointer-events="all"/>
 </g>
</svg>
