<?xml version="1.0" encoding="UTF-8" standalone="no"?>
<svg
   xmlns:dc="http://purl.org/dc/elements/1.1/"
   xmlns:cc="http://creativecommons.org/ns#"
   xmlns:rdf="http://www.w3.org/1999/02/22-rdf-syntax-ns#"
   xmlns:svg="http://www.w3.org/2000/svg"
   xmlns="http://www.w3.org/2000/svg"
   xmlns:sodipodi="http://sodipodi.sourceforge.net/DTD/sodipodi-0.dtd"
   xmlns:inkscape="http://www.inkscape.org/namespaces/inkscape"
   inkscape:version="1.0 (4035a4fb49, 2020-05-01)"
   sodipodi:docname="pumpvacuum.svg"
   id="svg858"
   version="1.1"
   height="24"
   width="24">
  <defs
     id="defs862" />
  <sodipodi:namedview
     inkscape:current-layer="svg858"
     inkscape:window-maximized="1"
     inkscape:window-y="-8"
     inkscape:window-x="-8"
     inkscape:cy="31.896922"
     inkscape:cx="12"
     inkscape:zoom="8.8544831"
     showgrid="false"
     id="namedview860"
     inkscape:window-height="1017"
     inkscape:window-width="1920"
     inkscape:pageshadow="2"
     inkscape:pageopacity="0"
     guidetolerance="10"
     gridtolerance="10"
     objecttolerance="10"
     borderopacity="1"
     bordercolor="#666666"
     pagecolor="#ffffff"
     inkscape:document-rotation="0" />
  <metadata
     id="metadata854">
    <rdf:RDF>
      <cc:Work
         rdf:about="">
        <dc:format>image/svg+xml</dc:format>
        <dc:type
           rdf:resource="http://purl.org/dc/dcmitype/StillImage" />
        <dc:title></dc:title>
      </cc:Work>
    </rdf:RDF>
  </metadata>
  <g
     style="fill:none;stroke:#ffffff;stroke-width:4.91366;stroke-miterlimit:4;stroke-dasharray:none;stroke-opacity:1"
     transform="matrix(0.2759268,0,0,0.2759268,-0.5043231,5.9738992)"
     id="g10">
    <path
       style="fill:none;stroke:#ffffff;stroke-width:4.91366;stroke-miterlimit:4;stroke-dasharray:none;stroke-opacity:1"
       d="m 0.5,20.49 h 13.18 v -7.14 h 11 C 28.3,5.24 36.47,0 45.5,0 54.53,0 62.7,5.24 66.32,13.35 h 11 v 7.14 H 90.5 v 3.57 H 77.32 v 7.14 h -11 C 62.7,39.31 54.53,44.55 45.5,44.55 36.47,44.55 28.3,39.31 24.68,31.2 h -11 V 24.06 H 0.5 Z"
       fill="#ffffff"
       stroke="#000000"
       stroke-miterlimit="10"
       pointer-events="all"
       id="path6-2" />
    <path
       style="fill:none;stroke:#ffffff;stroke-width:4.91366;stroke-miterlimit:4;stroke-dasharray:none;stroke-opacity:1"
       d="m 13.68,20.49 v 3.57 m 63.64,-3.57 v 3.57 M 24.68,31.2 c -2.53,-5.69 -2.53,-12.16 0,-17.85 m 41.64,0 c 2.53,5.69 2.53,12.16 0,17.85"
       fill="none"
       stroke="#000000"
       stroke-miterlimit="10"
       pointer-events="all"
       id="path8" />
  </g>
</svg>
