<?xml version="1.0" encoding="UTF-8" standalone="no"?>
<svg
   xmlns:dc="http://purl.org/dc/elements/1.1/"
   xmlns:cc="http://creativecommons.org/ns#"
   xmlns:rdf="http://www.w3.org/1999/02/22-rdf-syntax-ns#"
   xmlns:svg="http://www.w3.org/2000/svg"
   xmlns="http://www.w3.org/2000/svg"
   xmlns:sodipodi="http://sodipodi.sourceforge.net/DTD/sodipodi-0.dtd"
   xmlns:inkscape="http://www.inkscape.org/namespaces/inkscape"
   inkscape:version="1.0 (4035a4fb49, 2020-05-01)"
   sodipodi:docname="pumphorizo.svg"
   id="svg858"
   version="1.1"
   height="24"
   width="24">
  <defs
     id="defs862" />
  <sodipodi:namedview
     inkscape:current-layer="svg858"
     inkscape:window-maximized="1"
     inkscape:window-y="-8"
     inkscape:window-x="-8"
     inkscape:cy="31.896922"
     inkscape:cx="12"
     inkscape:zoom="8.8544831"
     showgrid="false"
     id="namedview860"
     inkscape:window-height="1017"
     inkscape:window-width="1920"
     inkscape:pageshadow="2"
     inkscape:pageopacity="0"
     guidetolerance="10"
     gridtolerance="10"
     objecttolerance="10"
     borderopacity="1"
     bordercolor="#666666"
     pagecolor="#ffffff"
     inkscape:document-rotation="0" />
  <metadata
     id="metadata854">
    <rdf:RDF>
      <cc:Work
         rdf:about="">
        <dc:format>image/svg+xml</dc:format>
        <dc:type
           rdf:resource="http://purl.org/dc/dcmitype/StillImage" />
        <dc:title></dc:title>
      </cc:Work>
    </rdf:RDF>
  </metadata>
  <g
     style="fill:none;stroke:#ffffff;stroke-width:5.59103;stroke-miterlimit:4;stroke-dasharray:none;stroke-opacity:1"
     transform="matrix(0.21720264,0,0,0.21720264,3.2426156,0.88269261)"
     id="g10">
    <path
       id="rect8"
       style="fill:none;stroke:#ffffff;stroke-width:5.59103;stroke-miterlimit:4;stroke-dasharray:none;stroke-opacity:1"
       d="m 39.73,70.360001 h 2.74 V 79.56 h -2.74 z" />
    <path
       style="fill:none;stroke:#ffffff;stroke-width:5.59103;stroke-miterlimit:4;stroke-dasharray:none;stroke-opacity:1"
       d="M 30.82,4.61 C 33.42,1.68 37.16,0 41.09,0 c 3.94,0 7.68,1.68 10.28,4.61 v 61.32 c -2.6,2.94 -6.34,4.62 -10.27,4.62 -3.94,0 -7.68,-1.68 -10.28,-4.62 z m 41.1,74.95 c 2.94,2.59 4.63,6.31 4.63,10.22 0,3.91 -1.69,7.63 -4.63,10.22 H 10.27 C 7.33,97.41 5.64,93.69 5.64,89.78 c 0,-3.91 1.69,-7.63 4.63,-10.22 z m 4.45,10.22 h 5.82 m 0,-6.81 V 96.59 M 0,89.78 H 5.82 M 0,82.97 V 96.59 M 30.82,65.93 H 51.37 M 30.82,4.61 h 20.55"
       fill="#ffffff"
       stroke="#000000"
       stroke-miterlimit="10"
       pointer-events="all"
       id="path6" />
  </g>
</svg>
