<?xml version="1.0" encoding="UTF-8"?>
<svg width="24" height="24" version="1.1" xmlns="http://www.w3.org/2000/svg" xmlns:cc="http://creativecommons.org/ns#" xmlns:dc="http://purl.org/dc/elements/1.1/" xmlns:rdf="http://www.w3.org/1999/02/22-rdf-syntax-ns#">
 <metadata>
  <rdf:RDF>
   <cc:Work rdf:about="">
    <dc:format>image/svg+xml</dc:format>
    <dc:type rdf:resource="http://purl.org/dc/dcmitype/StillImage"/>
    <dc:title/>
   </cc:Work>
  </rdf:RDF>
 </metadata>
 <g transform="matrix(.1332 0 0 .1332 1.7492 4.3222)" fill="none" stroke="#fff" stroke-width="8.2583">
  <g pointer-events="all">
   <path d="m147.39 12.95c4.21 0 7.61 8.91 7.61 19.91s-3.4 19.91-7.61 19.91h-128.59c-4.21 0-7.61-8.91-7.61-19.91s3.4-19.91 7.61-19.91z"/>
   <path d="m147.39 72.69c4.21 0 7.61 8.91 7.61 19.91s-3.4 19.91-7.61 19.91h-128.59c-4.21 0-7.61-8.91-7.61-19.91s3.4-19.91 7.61-19.91z"/>
   <path d="m3.96 79.66h8.9m-8.9 25.88h8.9m-8.9-35.84v19.91m-3.96-19.91v19.91m3.96 5.98v19.91m-3.96-19.91v19.91m137.5-102.55v-8.47m-9.89 0h19.78m-19.78-3.98h19.78m-118.7 12.45v-8.47m-9.89 0h19.78m-19.78-3.98h19.78"/>
  </g>
  <path d="m33.63 52.77h9.89v19.91h-9.89z"/>
  <path d="m117.72 52.77h9.89v19.91h-9.89z"/>
 </g>
</svg>
