<?xml version="1.0" encoding="utf-8"?>
<!-- Created with "sPlan" (http://www.abacom-online.de) -->
<svg version="1.1" baseProfile="full"
xmlns="http://www.w3.org/2000/svg"
width="20mm" height="23mm"
viewBox="0 0 207 235">
<title>e-ventil</title>
<defs>
<style type="text/css">
<![CDATA[
polyline {stroke-linecap:round; stroke-linejoin:round}
polygon {stroke-linecap:round; stroke-linejoin:round}
path {stroke-linecap:round; stroke-linejoin:round}
circle {stroke-linecap:round; stroke-linejoin:round}
]]>
</style>
</defs>
<polygon points="93 68 42 68 68 117" fill="none" stroke="rgb(0,0,0)" stroke-width="5" />
<polygon points="68 117 93 167 42 167" fill="none" stroke="rgb(0,0,0)" stroke-width="5" />
<polyline points="67.50 167.50 67.50 192.50" fill="none" stroke="rgb(0,0,0)" stroke-width="5" />
<polyline points="67.50 67.50 67.50 42.50" fill="none" stroke="rgb(0,0,0)" stroke-width="5" />
<polyline points="43.13 117.50 58.13 132.50" fill="none" stroke="rgb(0,0,0)" stroke-width="5" />
<polyline points="43.13 117.50 58.13 102.50" fill="none" stroke="rgb(0,0,0)" stroke-width="5" />
<polyline points="67.50 117.50 118.12 117.50" fill="none" stroke="rgb(0,0,0)" stroke-width="5" />
<path fill="none" stroke="rgb(0,0,0)" stroke-width="5" d=" M 143.57 95.20 Q 141.26 94.99 138.94 95.20 Q 136.62 95.42 134.39 96.06 Q 132.16 96.70 130.11 97.75 Q 128.06 98.79 126.26 100.19 Q 124.46 101.60 122.98 103.31 Q 121.50 105.02 120.41 106.97 Q 119.31 108.92 118.63 111.04 Q 117.96 113.15 117.73 115.35 Q 117.50 117.55 117.73 119.76 Q 117.96 121.96 118.63 124.08 Q 119.31 126.19 120.41 128.14 Q 121.50 130.09 122.98 131.80 Q 124.46 133.51 126.26 134.92 Q 128.06 136.32 130.11 137.36 Q 132.16 138.41 134.39 139.05 Q 136.62 139.69 138.94 139.91 Q 141.26 140.12 143.57 139.91 Q 145.89 139.69 148.12 139.05 Q 150.35 138.41 152.40 137.36 Q 154.45 136.32 156.25 134.92 Q 158.05 133.51 159.53 131.80 Q 161.01 130.09 162.10 128.14 Q 163.20 126.19 163.88 124.08 Q 164.55 121.96 164.78 119.76 Q 165.01 117.55 164.78 115.35 Q 164.55 113.15 163.88 111.04 Q 163.20 108.92 162.10 106.97 Q 161.01 105.02 159.53 103.31 Q 158.05 101.60 156.25 100.19 Q 154.45 98.79 152.40 97.75 Q 150.35 96.70 148.12 96.06 Q 145.89 95.42 143.57 95.20 Z" />
<path fill="rgb(0,0,0)" stroke="rgb(0,0,0)" stroke-width="0" d=" M 149.85 104.15 L 149.85 107.66 130.95 107.64 130.95 104.12 Z M 151.57 100.74 L 151.57 111.07 148.20 111.07 148.20 100.74 Z M 130.74 117.24 L 130.76 116.63 130.84 116.06 130.96 115.53 131.13 115.03 131.36 114.57 131.63 114.15 131.94 113.77 132.30 113.43 132.70 113.13 133.15 112.88 133.64 112.67 134.17 112.51 134.74 112.39 135.34 112.32 135.99 112.29 146.54 112.31 147.19 112.33 147.79 112.40 148.36 112.52 148.89 112.69 149.38 112.90 149.83 113.15 150.23 113.45 150.59 113.79 150.90 114.17 151.17 114.59 151.39 115.06 151.57 115.55 151.69 116.09 151.76 116.65 151.79 117.26 151.76 117.87 151.69 118.44 151.57 118.97 151.39 119.47 151.17 119.93 150.90 120.36 150.59 120.74 150.23 121.08 149.82 121.38 149.37 121.63 148.88 121.84 148.34 122.00 147.78 122.11 147.17 122.18 146.53 122.20 144.86 122.20 144.86 118.64 146.53 118.64 146.73 118.64 146.92 118.62 147.10 118.59 147.27 118.54 147.43 118.49 147.58 118.42 147.71 118.34 147.83 118.24 147.93 118.14 148.02 118.02 148.10 117.88 148.15 117.74 148.19 117.59 148.22 117.43 148.23 117.26 148.22 117.09 148.20 116.94 148.16 116.79 148.10 116.65 148.03 116.52 147.94 116.40 147.84 116.29 147.73 116.20 147.60 116.11 147.45 116.04 147.29 115.98 147.12 115.94 146.94 115.90 146.75 115.88 146.54 115.88 135.99 115.87 135.78 115.87 135.59 115.89 135.41 115.92 135.24 115.97 135.09 116.03 134.94 116.10 134.81 116.18 134.70 116.28 134.60 116.39 134.51 116.51 134.44 116.63 134.39 116.77 134.35 116.92 134.32 117.08 134.31 117.24 134.32 117.42 134.35 117.58 134.39 117.74 134.44 117.88 134.51 118.01 134.60 118.13 134.70 118.23 134.81 118.33 134.94 118.41 135.09 118.48 135.24 118.53 135.41 118.58 135.60 118.61 135.79 118.63 136.00 118.63 137.66 118.63 137.66 122.19 136.00 122.19 135.35 122.17 134.75 122.10 134.18 121.98 133.65 121.82 133.16 121.61 132.71 121.36 132.30 121.06 131.94 120.72 131.63 120.34 131.36 119.91 131.13 119.45 130.96 118.95 130.84 118.41 130.76 117.84 130.74 117.24 Z M 151.57 124.56 L 151.57 128.08 130.95 128.06 130.95 124.54 Z M 134.39 126.10 L 134.39 133.70 130.95 133.70 130.95 126.10 Z M 142.91 126.11 L 142.91 133.00 139.49 133.00 139.49 126.11 Z M 151.57 126.12 L 151.57 133.72 148.14 133.72 148.14 126.12 Z" />
</svg>
