<?xml version="1.0" encoding="UTF-8"?>
<svg width="24" height="24" version="1.1" xmlns="http://www.w3.org/2000/svg" xmlns:cc="http://creativecommons.org/ns#" xmlns:dc="http://purl.org/dc/elements/1.1/" xmlns:rdf="http://www.w3.org/1999/02/22-rdf-syntax-ns#">
 <metadata>
  <rdf:RDF>
   <cc:Work rdf:about="">
    <dc:format>image/svg+xml</dc:format>
    <dc:type rdf:resource="http://purl.org/dc/dcmitype/StillImage"/>
    <dc:title/>
   </cc:Work>
  </rdf:RDF>
 </metadata>
 <path d="m9.9357 1.0241c-0.46387 0-0.62759 0.2172-0.51844 0.65378l1.9101 7.5475a2.7287 2.7287 0 0 0-0.76402 0.32744l-1.337-2.3194-2.3194-3.9183c-0.27287-0.46933-0.65488-0.56483-1.1187-0.30015l-1.1733 0.67125c-0.24558 0.13643-0.35472 0.46387-0.081854 0.90046l5.3482 5.43a2.7287 2.7287 0 0 0-0.35473 0.51844l-2.3194-1.337-4.0111-2.3194c-0.46387-0.27287-0.84588-0.16372-1.1187 0.30015l-0.68216 1.1733c-0.13725 0.24558-0.027287 0.62759 0.43658 0.90046l7.3401 2.0192a2.7287 2.7287 0 0 0-0.05458 0.65488h-7.3674c-0.43659 0-0.68244 0.21829-0.68244 0.68216v1.3643c0 0.46387 0.21857 0.62759 0.65515 0.51844l7.4765-1.8828a2.7287 2.7287 0 0 0 0.32744 0.73674l-2.3194 1.337-4.2021 2.4558c-0.24558 0.13644-0.32744 0.49116-0.054574 0.98232l0.67125 1.1733c0.14735 0.24558 0.47479 0.35472 0.72036 0.21829l5.6483-5.4846a2.7287 2.7287 0 0 0 0.51844 0.38201l-1.3098 2.2375-2.4558 4.2567c-0.13643 0.24558-0.027287 0.6003 0.43658 0.87317l1.2006 0.68216c0.21829 0.13643 0.6003 0.05457 0.73674-0.191l2.1556-7.5584a2.7287 2.7287 0 0 0 0.70945 0.05457v7.3947c0 0.46387 0.21829 0.68216 0.68216 0.68216h1.3643c0.46387 0 0.62759-0.21829 0.51844-0.65488l-1.8828-7.5311a2.7287 2.7287 0 0 0 0.65488-0.30015l1.337 2.3194 2.4558 4.2567c0.16372 0.24558 0.54573 0.32744 0.76402 0.21829l1.2006-0.70945c0.46387-0.24558 0.57302-0.65488 0.16372-0.73674l-5.4573-5.6483a2.7287 2.7287 0 0 0 0.57302-0.73674l2.2921 1.337 4.2567 2.4558c0.24558 0.13643 0.62759 0.02728 0.76402-0.191l0.68216-1.2006c0.27287-0.46387 0.16372-0.84588-0.21829-0.73674l-7.5584-2.1556a2.7287 2.7287 0 0 0 0-0.02728 2.7287 2.7287 0 0 0 0.05457-0.16372 2.7287 2.7287 0 0 0 0.08186-0.70945h7.5038c0.46387 0 0.68216-0.21829 0.68216-0.68216v-1.3643c0-0.46387-0.21829-0.62759-0.65488-0.51844l-7.6129 1.9101a2.7287 2.7287 0 0 0-0.08187-0.24558 2.7287 2.7287 0 0 0 0-0.02728 2.7287 2.7287 0 0 0-0.05457-0.13643 2.7287 2.7287 0 0 0-0.08186-0.16372 2.7287 2.7287 0 0 0-0.05457-0.13643l2.2921-1.3098 4.1748-2.5104c0.4093-0.21831 0.46387-0.54575 0.32744-0.79133l-0.68216-1.1733c-0.27286-0.46387-0.6003-0.6003-0.8186-0.16372l-5.5937 5.4846a2.7287 2.7287 0 0 0-0.73674-0.57302l1.337-2.2921 2.3739-4.2349c0.24558-0.39566 0.10915-0.70945-0.13643-0.84588l-1.1733-0.68216c-0.46387-0.27368-0.8186-0.24558-0.79131 0.27286l-2.1011 7.5365a2.7287 2.7287 0 0 0-0.84588-0.13643v-7.4383c0-0.45569-0.21829-0.68107-0.68216-0.68107z" style="fill:#ffffff"/>
</svg>
